# Exported from Wings 3D 1.0.2
mtllib Anchor.mtl
o cube22
#469 vertices, 462 faces
v -1.09263560 -0.17657750 -0.78567692
v 2.26559205 -0.14778810 -0.39404434
v 2.91446041 -0.25660098 -0.17176854
v -0.91709338 -0.17664504 -0.74054594
v -0.78581302 -0.17509262 -0.42813423
v -0.71451270 -0.17262795 -0.18637413
v 6.2060418e-2 -0.17838305 -0.22975383
v 0.28752085 -0.15882888 -0.35609765
v 1.06958139 -0.25356389 -0.32840353
v 1.40966529 -0.17434997 -0.24298893
v 1.83692532 -0.16517402 -0.25302556
v 2.37711989 -0.14218763 -0.72439766
v 2.33161061 -0.23419592 -0.91152311
v 2.16648376 -0.17528981 -1.05060803
v 1.65338049 -0.17772632 -1.77013506
v 1.49150042 -0.26075745 -1.75728632
v 1.08500882 -3.2935684e-2 -2.05744713
v 1.65223414 -0.26731221 -2.20318641
v 1.76801821 -0.18097758 -1.98132464
v -1.23183261 -0.16122854 -0.59016104
v -1.22978611 -0.18992748 -0.22358689
v -1.39044700 -0.27743842 -0.20657736
v -1.60883204 -0.17032265 -0.33758661
v -1.83947525 -0.28103541 -0.28488196
v 2.45705382 -0.18161759 -1.44234652
v 2.65405764 -0.23748342 -1.06600570
v 2.74532459 -0.15155057 -0.76466800
v -1.09134861 0.16113492 -0.79017739
v -1.23063869 0.15206261 -0.59433607
v -1.22833632 0.19050324 -0.22865664
v -1.38832396 0.27965812 -0.21400142
v -1.60753222 0.17075659 -0.34213195
v -1.83731971 0.28458885 -0.29241966
v 2.91630368 0.22708348 -0.17821429
v 2.74631154 0.10743089 -0.76811928
v 2.65567148 0.18599629 -1.07164914
v 2.45820945 0.12162459 -1.44638763
v 1.76913424 0.11187305 -1.98522726
v 1.65398890 0.19314476 -2.20932262
v 1.49325518 0.19969951 -1.76342253
v 1.65449652 0.11512431 -1.77403769
v 2.16763939 0.12795236 -1.05464914
v 2.33322445 0.18928379 -0.91716655
v 2.37805028 0.10195049 -0.72765113
v 2.26660190 0.11720181 -0.39757568
v 1.83809442 0.14160544 -0.25711380
v 1.41091775 0.15430119 -0.24736865
v 1.07023990 0.24088646 -0.33505704
v 0.28627480 0.16400447 -0.36052972
v 5.2748203e-2 0.24367693 -0.23595112
v -0.71417939 0.17800493 -0.19109939
v -0.78450995 0.16684017 -0.43269094
v -0.91580640 0.16106738 -0.74504641
v -1.07262614 -0.15529680 0.81693446
v 2.27476906 -0.13802806 0.34096703
v 2.91794299 -0.25289714 0.10716114
v -0.89826522 -0.15662068 0.76745323
v -0.77482494 -0.16340645 0.45193069
v -0.70958294 -0.16738498 0.20846419
v 6.7831577e-2 -0.17224524 0.23247394
v 0.29637002 -0.14941751 0.35265652
v 1.07752764 -0.24511279 0.30803377
v 1.41534711 -0.16830717 0.21208344
v 1.84272147 -0.15900962 0.21120419
v 2.39450681 -0.12369608 0.66816820
v 2.35371339 -0.21068891 0.85874810
v 2.19209042 -0.14805631 1.00029878
v 1.69710927 -0.13121936 1.73222106
v 1.53498643 -0.21450868 1.72562619
v 1.70680313 -0.20927634 2.16739178
v 1.81698421 -0.12890066 1.94049500
v -1.21666548 -0.14509780 0.62461570
v -1.22376081 -0.18351937 0.25899585
v -1.38476722 -0.27139780 0.24833147
v -1.59984935 -0.16076927 0.38186141
v -1.83169963 -0.27276579 0.33788854
v 2.49235089 -0.14407802 1.38469164
v 2.67991732 -0.20998082 1.00516619
v 2.76360511 -0.13210865 0.69946896
v -1.07133915 0.18241562 0.81243398
v -1.21547156 0.16819334 0.62044067
v -1.22231102 0.19691134 0.25392610
v -1.38264418 0.28569875 0.24090741
v -1.59854953 0.18030997 0.37731607
v -1.82954409 0.29285847 0.33035083
v 2.91978627 0.23078732 0.10071540
v 2.76459206 0.12687282 0.69601769
v 2.68153116 0.21349889 0.99952276
v 2.49350652 0.15916416 1.38065053
v 1.81810023 0.16394997 1.93659237
v 1.70855788 0.25118063 2.16125557
v 1.13603885 2.1336393e-2 2.02968641
v 1.53674119 0.24594828 1.71948999
v 1.69822529 0.16163127 1.72831843
v 2.19324604 0.15518587 0.99625767
v 2.35532723 0.21279081 0.85310466
v 2.39543720 0.12044204 0.66491473
v 2.27577891 0.12696185 0.33743568
v 1.84389058 0.14776983 0.20711595
v 1.41659957 0.16034398 0.20770372
v 1.07818616 0.24933756 0.30138026
v 0.29512397 0.17341585 0.34822445
v 5.8519362e-2 0.24981474 0.22627666
v -0.70924963 0.18324789 0.20373893
v -0.77352187 0.17852634 0.44737397
v -0.89697823 0.18109174 0.76295276
v -1.78813174 -0.22685593 -0.15120712
v -1.71637908 -0.22825505 -0.23567714
v -1.48708491 -0.22858856 -0.19513301
v -1.48167689 -0.22283696 0.23801016
v -1.78372698 -0.22217132 0.20158242
v -1.70988761 -0.22135116 0.28424233
v -1.70813285 0.23910580 0.27810612
v -1.78197222 0.23828564 0.19544621
v -1.47992214 0.23762001 0.23187396
v -1.48533016 0.23186840 -0.20126922
v -1.78637699 0.23360103 -0.15734333
v -1.71462432 0.23220192 -0.24181335
v -2.00176874 -0.23774269 -0.22233184
v -2.26107252 -0.23509014 -0.22021000
v -2.25924829 0.24359729 -0.22658915
v -1.99993204 0.24421630 -0.22875459
v -2.25479512 -0.22841392 0.28256398
v -1.99551831 -0.23109516 0.27828189
v -1.99368161 0.25086383 0.27185914
v -2.25297089 0.25027351 0.27618483
v -2.25525709 -0.27468698 -0.25769954
v -2.25313510 0.28213560 -0.26511995
v -2.24803254 -0.26700344 0.32093470
v -2.24591054 0.28981915 0.31351429
v -2.35989398 0.27463598 -6.0011906e-2
v -2.35775373 0.27691221 0.11140658
v -2.35979465 -0.25863484 0.11854346
v -2.36193490 -0.26091107 -5.2875022e-2
v 2.95664938 -1.6738793e-2 -0.31177116
v 2.96353416 -9.4166076e-3 0.23964958
v 3.17769488 -1.3186740e-2 -3.0754591e-2
v -1.15466095 -0.23266190 -0.69000987
v -1.00723021 -0.23443796 -0.78112379
v 2.35688987 -0.13232629 -0.58417788
v -0.85637977 -0.23231729 -0.57885151
v -0.81629451 -0.23426918 -0.35750746
v -0.80855846 -0.19239955 -0.24706694
v 0.14050074 -0.19380378 -0.32187382
v 0.59085942 -0.22979780 -0.37898938
v 1.29994342 -0.20200218 -0.27150816
v 2.25575275 -0.24277891 -0.98833433
v 2.10778665 -0.21354069 -1.23272404
v 1.79179499 -0.16504634 -1.67759072
v 1.56094557 -0.21347477 -1.78350444
v 1.67664539 -0.21828862 -2.11164628
v 1.99331420 -0.16709163 -1.77343997
v -1.22053798 -0.20177429 -0.45308464
v -1.31828735 -0.18757144 -0.16199772
v -1.51741283 -0.22992681 -0.30422694
v -1.69651186 -0.22967348 -0.33643375
v 2.36821801 -0.21775526 -1.47450724
v 2.52344391 -0.24786084 -1.29312844
v 2.79607692 -0.21185090 -0.47422659
v -1.15293506 0.22021973 -0.69604512
v -1.10135984 -8.2797700e-3 -0.83251420
v -1.21902150 0.19615947 -0.45838765
v -1.27238285 -4.6783652e-3 -0.61117421
v -1.31684670 0.19046372 -0.16703554
v -1.51565808 0.23053016 -0.31036315
v -1.38147748 6.1600751e-4 -0.24508553
v -1.69475710 0.23078349 -0.34256996
v -1.61064087 -3.0844683e-5 -0.35915818
v -1.81770280 1.2794167e-3 -0.32005003
v 2.79755140 0.17506086 -0.47938271
v 2.97222761 -0.15514115 -0.23047219
v 2.77051699 -2.2931646e-2 -0.82475003
v 2.52511756 0.19131278 -1.29898102
v 2.71475430 -2.6195506e-2 -1.08561428
v 2.36964833 0.15756833 -1.47950893
v 2.46058293 -3.0820859e-2 -1.50538242
v 1.99433898 0.10181523 -1.77702352
v 1.67803515 0.14639330 -2.11650615
v 1.78768251 -3.5094139e-2 -2.01847421
v 1.67990047 -3.8176186e-2 -2.28057120
v 1.56233533 0.15120715 -1.78836431
v 1.46558885 -2.9436508e-2 -1.68603774
v 1.79281976 0.10386052 -1.68117426
v 1.63483222 -3.0759128e-2 -1.73688812
v 2.10921698 0.16178289 -1.23772573
v 2.25742640 0.19639471 -0.99418691
v 2.15888197 -2.2781029e-2 -0.98835568
v 2.28482493 -2.1812170e-2 -0.87963749
v 2.35775993 9.5983619e-2 -0.58722042
v 2.32014822 -1.9796487e-2 -0.71828070
v 2.19735385 -1.6221010e-2 -0.48509448
v 1.83654384 -1.2811690e-2 -0.33244130
v 1.30140689 0.18201892 -0.27662575
v 1.40934455 -1.1031527e-2 -0.32102419
v 0.59118212 0.22039586 -0.38506187
v 1.10243878 -1.0844653e-2 -0.39476637
v 0.13652729 0.22559995 -0.32775517
v 0.19560246 -9.4207060e-4 -0.36405104
v -6.4508704e-2 3.1502553e-2 -0.26902171
v -0.80710445 0.18913878 -0.25215145
v -0.64427877 4.0348158e-3 -0.23076758
v -0.81453243 0.22810830 -0.36366927
v -0.85465389 0.22056434 -0.58488677
v -0.73714760 -3.6984312e-3 -0.38458070
v -1.00550432 0.21844367 -0.78715905
v -0.90524398 -8.6614852e-3 -0.80507508
v -1.13700169 -0.21388071 0.72436824
v -0.98734186 -0.21328605 0.81178852
v 2.37077955 -0.11755416 0.52828475
v -0.84158841 -0.21658620 0.60582865
v -0.80704036 -0.22442709 0.38368280
v -0.80207750 -0.18550684 0.27201093
v 0.14855206 -0.18524094 0.32297864
v 0.60020976 -0.21985341 0.36990528
v 1.30638052 -0.19515612 0.24405681
v 2.27979943 -0.21720449 0.93762979
v 2.13797040 -0.18143930 1.18477458
v 1.83316625 -0.12104667 1.63594634
v 1.60504873 -0.16656963 1.74883806
v 1.72890542 -0.16270839 2.07400156
v 2.03701600 -0.12061337 1.72675575
v -1.20878274 -0.18927221 0.48842484
v -1.31377269 -0.18276995 0.19959428
v -1.50927163 -0.22126837 0.34782424
v -1.68751095 -0.22010072 0.38447374
v 2.40435757 -0.17931968 1.42000799
v 2.55501735 -0.21428147 1.23567406
v 2.80711140 -0.20011538 0.40955444
v -1.13527580 0.23900092 0.71833299
v -1.08023426 1.4187957e-2 0.85949033
v -1.20726625 0.20866155 0.48312183
v -1.25673042 1.1968492e-2 0.64247095
v -1.31233203 0.19526522 0.19455645
v -1.50751687 0.23918859 0.34168803
v -1.37493140 7.5779791e-3 0.27920817
v -1.68575619 0.24035625 0.37833753
v -1.60117558 1.0035798e-2 0.39894278
v -1.80914966 1.0375963e-2 0.36499466
v 2.80858588 0.18679637 0.40439832
v 2.97819166 0.12890397 0.15838207
v 2.79024684 -1.9483111e-3 0.75546755
v 2.55669100 0.22489215 1.22982148
v 2.74101451 1.7330711e-3 1.01763717
v 2.40578789 0.19600391 1.41500630
v 2.49740247 8.3379015e-3 1.44359412
v 2.03804078 0.14829350 1.72317221
v 1.73029518 0.20197352 2.06914169
v 1.83752138 1.7911100e-2 1.97325601
v 1.73631662 2.1824202e-2 2.23795127
v 1.60643850 0.19811229 1.74397818
v 1.50722769 1.4847744e-2 1.64893049
v 1.83419103 0.14786020 1.63236279
v 1.67768812 1.4819502e-2 1.69555742
v 2.13940073 0.19388429 1.17977289
v 2.28147308 0.22196914 0.93177721
v 2.18288645 2.7485115e-3 0.93422862
v 2.30607594 7.8895561e-4 0.82241305
v 2.37164962 0.11075575 0.52524221
v 2.33735964 -1.4915953e-3 0.66022815
v 2.20878137 -4.0674677e-3 0.43016717
v 1.84427205 -4.5924942e-3 0.28653169
v 1.30784399 0.18886499 0.23893922
v 1.41692031 -2.9744626e-3 0.28573898
v 0.60053247 0.23034025 0.36383279
v 1.11195094 -7.2816334e-4 0.36708843
v 0.14457861 0.23416280 0.31709729
v 0.20462554 8.6542676e-3 0.35863212
v -5.7795968e-2 3.8641764e-2 0.26861950
v -0.80062349 0.19603149 0.26692642
v -0.63832269 1.0369295e-2 0.24627081
v -0.80527828 0.23795039 0.37752100
v -0.83986253 0.23629543 0.59979339
v -0.72731872 6.7548986e-3 0.40264097
v -0.98561597 0.23959557 0.80575326
v -0.88486436 1.3012896e-2 0.82718397
v -0.98199645 -0.20289565 0.19515916
v 0.58605777 -0.26364989 -0.25379662
v -1.60551709 -0.29805322 0.31825422
v 0.59229568 -0.25701568 0.24581427
v -1.61286469 -0.30586764 -0.27023548
v -0.98649714 -0.20768228 -0.16531328
v 0.58052116 0.29384453 -0.26162780
v 0.58675907 0.30047875 0.23798309
v -1.61052502 0.30807498 -0.27841709
v -0.98041251 0.21273675 0.18962030
v -1.60317741 0.31588940 0.31007261
v -0.98491320 0.20795012 -0.17085214
v -1.47152249 -0.30560402 -0.21003417
v -1.73882907 0.31627537 0.30024355
v -1.74588917 0.30876673 -0.26521856
v -1.80322434 0.31007515 -0.18343164
v -1.79818844 0.31543099 0.21990746
v -1.69868067 8.7350763e-3 0.27345418
v -1.80556401 -0.30386747 -0.17525003
v -1.49149250 1.7307974e-3 -0.19289316
v -1.46918282 0.30833860 -0.21821578
v -1.78154110 3.4621244e-3 -0.14592002
v -1.48621536 7.3432034e-3 0.22976715
v -1.77734671 7.9229878e-3 0.19001966
v -1.80052811 -0.29851163 0.22808907
v -1.46338214 0.31450781 0.24637600
v -1.46572182 -0.29943481 0.25455761
v -1.74116875 -0.29766725 0.30842516
v -1.70498260 2.0327723e-3 -0.23128440
v -1.74822884 -0.30517589 -0.25703695
v -1.76680137 -0.22788466 -0.22230249
v -1.43033496 -0.22836976 -0.16248591
v -1.42575966 -0.22350378 0.20396231
v -1.76062818 -0.22131927 0.27212541
v -1.75887342 0.23913770 0.26598920
v -1.42400490 0.23695318 0.19782610
v -1.42858020 0.23208720 -0.16862212
v -1.76504661 0.23257231 -0.22843869
v -1.89181428 2.8090626e-3 -0.22645990
v -2.38737002 4.7522603e-3 -0.22235650
v -2.38107918 1.1442775e-2 0.28149429
v -1.88557482 9.4449385e-3 0.27327611
v -1.95106371 -0.25460418 0.36129044
v -1.95736934 0.26737929 -0.31284500
v -1.94904073 0.27623704 0.35421627
v -2.25980379 0.24043873 2.4930229e-2
v -1.95939233 -0.26346193 -0.30577083
v -2.01311536 -0.22621421 2.8046767e-2
v -2.26157839 -0.22522618 3.1135840e-2
v -2.01134076 0.23945069 2.1841157e-2
v -1.93607199 -0.20540379 -0.22331963
v -2.33813212 -0.19728399 -0.22007549
v -2.33659373 0.20639647 -0.22545508
v -1.93448373 0.21136287 -0.22887361
v -2.33184659 -0.19059912 0.28334948
v -1.92982810 -0.19876321 0.27677050
v -1.92823984 0.21800345 0.27121653
v -2.33030820 0.21308133 0.27796990
v -2.44741774 4.2638257e-3 -0.27618001
v -2.52545559 7.2749640e-3 -7.2542488e-2
v -2.43976443 1.2403362e-2 0.33679397
v -2.52286231 1.0032993e-2 0.13515980
v -2.35623278 0.22839724 0.33032460
v -2.35788181 -0.20431647 0.33609110
v -2.43629016 0.22584506 -6.5671054e-2
v -2.43396866 0.22831405 0.12026437
v -2.36382222 0.22032562 -0.27753448
v -2.43563613 -0.20923854 0.12609534
v -2.43795763 -0.21170753 -5.9840078e-2
v -2.36547125 -0.21238809 -0.27176799
v 2.97329021 0.12369112 -0.23418800
v 2.97712905 -0.14992830 0.16209788
v 3.08767103 -1.4653825e-2 -0.14387022
v 3.09042992 -1.1719656e-2 7.7096779e-2
v 3.08909020 0.13971908 -7.9098267e-2
v 3.09018059 0.14087875 8.2340249e-3
v 3.08901075 -0.16609256 1.2324830e-2
v 3.08792036 -0.16725223 -7.5007461e-2
v 2.87200333 6.5640275e-2 0.47480189
v 2.87145740 -7.7613002e-2 0.47671093
v 2.85923178 5.2057323e-2 -0.54810606
v 2.85868586 -9.1195954e-2 -0.54619701
v -2.24084274 0.27087551 0.35952971
v -2.24281585 -0.24687949 0.36642949
v -2.24921126 0.26197531 -0.31072839
v -2.25118438 -0.25577969 -0.30382861
v -1.20044618 -6.7520037e-3 -0.74620711
v -1.28842182 -2.2004356e-3 -0.42981865
v -1.31831947 6.4589080e-4 -0.22478196
v -1.48733646 1.9385534e-4 -0.30703578
v -1.72613516 5.3162846e-4 -0.34997819
v 2.89438437 -0.16625085 -0.40822090
v 2.59349022 -2.8737119e-2 -1.31101280
v 2.38636014 -3.1163028e-2 -1.55228394
v 2.02741313 -3.2979082e-2 -1.79120662
v 1.69662357 -3.6749969e-2 -2.16876652
v 1.54235715 -3.0331500e-2 -1.73124407
v 1.75872084 -3.0252029e-2 -1.66340761
v 2.03911833 -2.5543609e-2 -1.22990634
v 2.23656868 -2.1961204e-2 -0.90462066
v 2.28554066 -1.8101649e-2 -0.60099779
v 1.29960230 -1.1132641e-2 -0.35999445
v 0.64227214 -9.0685231e-3 -0.39307953
v 3.8929802e-2 1.8396887e-2 -0.31679802
v -0.76522414 -1.8222057e-3 -0.25181896
v -0.74926680 -2.5644732e-3 -0.30295494
v -0.80273794 -6.2925182e-3 -0.59799597
v -1.00387186 -9.1200831e-3 -0.86769234
v -1.18144469 1.3456688e-2 0.77567347
v -1.27729236 9.6361086e-3 0.46157043
v -1.31229992 7.0478833e-3 0.25734070
v -1.47921079 8.8357644e-3 0.34377101
v -1.71686322 1.0392640e-2 0.39263701
v 2.83882759 -4.3898988e-3 0.58614494
v 2.62541564 5.2165893e-3 1.24598054
v 2.42437371 9.2656297e-3 1.49232637
v 2.07150335 1.3912286e-2 1.74009888
v 1.75024308 2.0276104e-2 2.12576554
v 1.58510084 1.5127791e-2 1.69221420
v 1.79970368 1.3334544e-2 1.61901966
v 2.06919083 6.4394619e-3 1.17868183
v 2.25845842 1.3192402e-3 0.84858818
v 2.29983459 -2.8995922e-3 0.54384205
v 1.30818510 -2.0045543e-3 0.32742551
v 0.65188503 1.1550900e-3 0.37684259
v 4.6810659e-2 2.6778431e-2 0.31440116
v -0.75870123 5.1151171e-3 0.27061848
v -0.74147212 5.7254158e-3 0.32134185
v -0.78756032 9.8493670e-3 0.61762068
v -0.98189825 1.4249559e-2 0.89223384
v 0.43557238 0.29484638 -0.35282730
v -1.01274139 0.28719231 -0.53737754
v -1.59711446 -0.29763817 0.35180231
v 0.43896091 -0.27804301 -0.34490055
v -1.00133301 -0.28195028 0.56227094
v 2.31564465 -0.29128939 -1.24765698
v 2.34616216 -0.25883304 1.19657301
v -1.01496559 -0.29644897 -0.52959974
v 0.44752364 -0.26893627 0.34091175
v -0.93021305 -0.23433410 0.26921812
v -1.60530228 -0.30634618 -0.30398205
v -0.93656817 -0.24109298 -0.23978106
v 0.44413511 0.30395312 0.33298500
v -0.99910881 0.30169100 0.55449314
v -1.60296260 0.30759644 -0.31216366
v -0.92838352 0.24574201 0.26282046
v -1.59477479 0.31630445 0.34362070
v -0.93473865 0.23898313 -0.24617872
v 2.34817740 0.26997620 1.18952592
v 2.31765989 0.23751985 -1.25470407
v -1.64596543 -0.30548159 -0.25073228
v -1.63909449 -0.29817412 0.29958002
v -1.81646116 -0.30113620 2.6586307e-2
v -1.63675481 0.31576850 0.29139841
v -1.64362575 0.30846103 -0.25891389
v -1.81412148 0.31280642 1.8404696e-2
v -1.41171907 -0.30539802 -0.17747453
v -1.78208283 0.30910851 -0.24992177
v -1.77539342 0.31622291 0.28585134
v -1.78442251 -0.30483411 -0.24174016
v -1.40937940 0.30854460 -0.18565614
v -1.40674989 -0.30011313 0.22052126
v -1.75414664 8.7950845e-3 0.26209569
v -1.40441021 0.31382949 0.21233965
v -1.77773309 -0.29771971 0.29403295
v -1.76014777 2.4126983e-3 -0.21855046
v -1.43576036 1.9538627e-3 -0.16021691
v -1.43131635 6.6802040e-3 0.19571545
v -2.34487238 0.21256903 -0.30940107
v -1.86922724 1.6106620e-3 -0.30992792
v -1.86091082 1.0455441e-2 0.35615667
v -1.89656972 6.1583169e-3 2.3506014e-2
v -2.37634943 8.0662016e-3 2.9470983e-2
v -2.33649080 0.22148312 0.36190291
v -1.90200403 -0.22465274 0.36001197
v -1.90853276 0.23703856 -0.31278364
v -1.94035845 0.20575626 2.1402325e-2
v -1.90021084 0.24588918 0.35374136
v -1.91032595 -0.23350337 -0.30651304
v -1.94187840 -0.19308532 2.6717425e-2
v -2.33256070 -0.19153174 3.1574671e-2
v -2.33104076 0.20730984 2.6259571e-2
v 3.06398158 8.7772418e-2 -0.13823460
v 3.06654777 9.0501640e-2 6.7298256e-2
v 3.06576788 -0.11414590 7.0025459e-2
v 3.06320169 -0.11687512 -0.13550740
v 2.90485625 0.14042257 0.33597350
v 2.90372541 -0.15631636 0.33992794
v 2.89551521 0.13048808 -0.41217535
v 2.82331016 -2.0893180e-2 -0.65668778
v -2.40365479 1.2653338e-2 0.36587819
v -2.33808450 -0.19671396 0.36747595
v -2.41204545 3.7295958e-3 -0.30615294
v -2.34646609 -0.20562805 -0.30382803
vt 1.1758191e-2 0.25039500
vt 1.2306094e-2 0.24636541
vt 2.5063519e-2 0.98042560
vt 2.5292061e-2 0.21035412
vt 2.6321186e-2 0.20716541
vt 2.7104305e-2 0.28696637
vt 2.7422191e-2 0.29137689
vt 2.7482039e-2 0.82707576
vt 3.4789034e-2 0.83883248
vt 3.5407954e-2 0.51298386
vt 3.5408686e-2 0.51298125
vt 3.6262619e-2 0.97422928
vt 3.6755569e-2 0.85567849
vt 3.7839578e-2 0.95737092
vt 3.9325063e-2 0.90654955
vt 4.3913773e-2 0.78603584
vt 4.4647961e-2 0.76906982
vt 4.5883869e-2 0.71999312
vt 4.6203702e-2 0.70655763
vt 4.6469235e-2 0.70427257
vt 4.6963438e-2 0.78251535
vt 5.0295969e-2 0.69730582
vt 5.1452674e-2 0.15713394
vt 5.2886380e-2 0.15495954
vt 5.3530676e-2 0.79295111
vt 5.3651134e-2 0.21885273
vt 5.4238764e-2 0.21596062
vt 5.4838451e-2 0.98681449
vt 5.4927924e-2 0.27813867
vt 5.5030816e-2 0.34033313
vt 5.5396567e-2 0.28191293
vt 5.6722201e-2 0.34485806
vt 5.6764187e-2 0.82137814
vt 6.0271927e-2 0.65919405
vt 6.0274603e-2 0.65919608
vt 6.0563454e-2 0.23850025
vt 6.0768879e-2 0.23540048
vt 6.1013483e-2 0.25818828
vt 6.1189178e-2 0.26154346
vt 6.7332439e-2 0.70531119
vt 6.8082068e-2 0.78392268
vt 7.5096801e-2 0.79315078
vt 7.6515240e-2 0.69614478
vt 7.8816692e-2 0.19286604
vt 7.9515078e-2 0.19064646
vt 8.0386738e-2 0.69656896
vt 8.0536239e-2 0.83432690
vt 8.0840567e-2 0.30420368
vt 8.1425623e-2 0.85230065
vt 8.2013666e-2 0.97766204
vt 8.2053416e-2 0.50434267
vt 8.2054350e-2 0.50434115
vt 8.2063364e-2 0.30780075
vt 8.2455038e-2 0.95977653
vt 8.2866361e-2 0.90612174
vt 8.3626204e-2 0.79345753
vt 8.9524154e-2 0.76681787
vt 9.0278555e-2 0.83388781
vt 9.1697508e-2 0.97782971
vt 9.2225437e-2 0.72314073
vt 9.2244303e-2 6.2873274e-2
vt 9.2742216e-2 0.51742795
vt 9.2742845e-2 0.51742667
vt 9.4363663e-2 6.2118060e-2
vt 9.7251235e-2 0.85207124
vt 9.8185546e-2 0.95969415
vt 9.8271642e-2 0.43242579
vt 9.8319551e-2 0.10033376
vt 9.9919522e-2 0.90598313
vt 9.9965145e-2 9.9291746e-2
vt 0.10233457 0.14486171
vt 0.10237762 0.43691686
vt 0.10313557 0.39529651
vt 0.10341028 0.14342311
vt 0.10571521 0.35127985
vt 0.10585940 0.70100022
vt 0.10647379 0.39932745
vt 0.10657507 0.78852696
vt 0.10715164 0.65193031
vt 0.10715415 0.65193126
vt 0.10768921 0.21310937
vt 0.10780379 0.21103470
vt 0.10813541 0.35483912
vt 0.10863526 0.28337886
vt 0.10973766 0.28619376
vt 0.11069603 0.50485160
vt 0.11069695 0.50485074
vt 0.11076356 1.7286220e-2
vt 0.11260292 0.53364453
vt 0.11260317 0.53364371
vt 0.11291409 0.63604734
vt 0.11291623 0.63604814
vt 0.11318569 1.7193105e-2
vt 0.11513512 0.79781080
vt 0.11542869 0.74950639
vt 0.11589767 0.78889200
vt 0.11649434 0.69705983
vt 0.11759833 0.69195259
vt 0.11786159 0.47683607
vt 0.11826178 0.74025334
vt 0.11842915 0.70086529
vt 0.11972899 0.79269020
vt 0.12140956 0.77045036
vt 0.12265376 0.71919728
vt 0.12317508 0.48130573
vt 0.12506849 0.52301164
vt 0.12506899 0.52301112
vt 0.12629776 0.61417721
vt 0.12629938 0.61417770
vt 0.12784937 0.97106481
vt 0.12817688 0.83764779
vt 0.12874589 0.98346937
vt 0.12909502 0.82544723
vt 0.13306666 0.12758905
vt 0.13401587 0.64198188
vt 0.13401815 0.64198220
vt 0.13404907 0.12669862
vt 0.13657520 0.36732512
vt 0.13963319 0.37038918
vt 0.13983333 0.55623463
vt 0.13983361 0.55623481
vt 0.14091781 4.3565612e-2
vt 0.14157739 0.62009174
vt 0.14157915 0.62009188
vt 0.14223670 0.76985001
vt 0.14272383 4.3518457e-2
vt 0.14453020 0.58385545
vt 0.14453112 0.58385552
vt 0.14491322 0.71970503
vt 0.14581250 0.55244970
vt 0.14581269 0.55244974
vt 0.14680840 0.45004289
vt 0.14755191 0.69780287
vt 0.14764346 0.78963694
vt 0.14824202 0.79204177
vt 0.14832906 0.75025450
vt 0.14835694 0.79855979
vt 0.14875509 0.92244138
vt 0.14879176 0.88587999
vt 0.14896708 0.83436445
vt 0.14903303 0.70021107
vt 0.14934547 0.97647605
vt 0.14941865 0.73959759
vt 0.14981445 0.69129391
vt 0.15142437 0.58545129
vt 0.15142533 0.58545120
vt 0.15182031 0.45360101
vt 0.15233905 0.85194723
vt 0.15261621 0.95920120
vt 0.15371604 0.90572530
vt 0.15404340 0.48442171
vt 0.15404480 0.48442186
vt 0.15686842 0.82692977
vt 0.15697349 0.98186443
vt 0.15816863 0.70048646
vt 0.15893011 0.83619817
vt 0.15903555 0.97245388
vt 0.16137582 0.78894456
vt 0.16474346 0.48901817
vt 0.16474475 0.48901857
vt 0.16786091 0.88511524
vt 0.16789415 0.92319886
vt 0.17053485 0.97668900
vt 0.17056289 0.83426784
vt 0.17060352 0.85176988
vt 0.17065711 0.95941919
vt 0.17069569 0.90571075
vt 0.17234871 0.54578951
vt 0.17234875 0.54578893
vt 0.17413799 0.76770820
vt 0.17535977 0.72234097
vt 0.17810019 0.54612714
vt 0.17810023 0.54612642
vt 0.17867049 0.58296589
vt 0.17867139 0.58296516
vt 0.17974266 0.51348578
vt 0.17974339 0.51348653
vt 0.18167978 0.64693436
vt 0.18168217 0.64693356
vt 0.18366166 0.69751062
vt 0.18398710 0.58074615
vt 0.18398794 0.58074530
vt 0.18417286 0.54868786
vt 0.18417296 0.54868700
vt 0.18434850 0.79260905
vt 0.18842390 0.79280482
vt 0.18887202 0.57632211
vt 0.18887276 0.57632115
vt 0.19025892 0.63905927
vt 0.19026113 0.63905828
vt 0.19070505 0.51634402
vt 0.19070571 0.51634503
vt 0.19092329 0.69639723
vt 0.19187351 0.49777188
vt 0.19187459 0.49777291
vt 0.19632691 0.61100897
vt 0.19632847 0.61100783
vt 0.19667129 0.70500927
vt 0.19984272 0.78412705
vt 0.20028916 0.49858746
vt 0.20029023 0.49858869
vt 0.20337140 0.52440542
vt 0.20337187 0.52440672
vt 0.20572823 0.60468767
vt 0.20572963 0.60468631
vt 0.21226422 0.50606778
vt 0.21226511 0.50606929
vt 0.21297021 0.62182953
vt 0.21297202 0.62182801
vt 0.21374792 0.69841297
vt 0.21444076 0.79193588
vt 0.21501775 0.59289245
vt 0.21501888 0.59289088
vt 0.21527773 0.97755395
vt 0.21537173 0.95954933
vt 0.21545162 0.90576304
vt 0.21553151 0.85197675
vt 0.21560584 0.82545199
vt 0.21562551 0.83397213
vt 0.21567578 0.83688260
vt 0.21585626 0.88375684
vt 0.21594826 0.92428635
vt 0.21612874 0.97116059
vt 0.21619868 0.98259120
vt 0.21779285 0.70637190
vt 0.21900473 0.76889171
vt 0.21903192 0.46494958
vt 0.21903377 0.46495124
vt 0.21964198 0.78717675
vt 0.22064318 0.61827792
vt 0.22064490 0.61827621
vt 0.22095323 0.78260273
vt 0.22101072 0.70321956
vt 0.22168634 0.72007547
vt 0.22947236 0.60725962
vt 0.22947382 0.60725771
vt 0.24551062 4.8376191e-2
vt 0.24559736 0.55245939
vt 0.24559755 0.55245711
vt 0.24637853 4.9315624e-2
vt 0.24945167 0.64382922
vt 0.24945399 0.64382684
vt 0.25000942 0.44229879
vt 0.25568949 0.44337380
vt 0.25715400 8.5854418e-2
vt 0.25757735 8.6657951e-2
vt 0.26020755 0.90581533
vt 0.26024612 0.85210689
vt 0.26029972 0.95975620
vt 0.26034034 0.97725824
vt 0.26036838 0.83483708
vt 0.26045947 0.40488565
vt 0.26391036 0.88484433
vt 0.26394361 0.92292795
vt 0.26532946 0.40548148
vt 0.27276896 0.83558931
vt 0.27287440 0.97184502
vt 0.27483102 0.82617876
vt 0.27493610 0.98111342
vt 0.27718720 0.90580078
vt 0.27828702 0.85232488
vt 0.27856419 0.95957885
vt 0.27933677 4.2479099e-2
vt 0.27999740 4.3716730e-2
vt 0.28155776 0.83505003
vt 0.28193616 0.97716163
vt 0.28301276 0.92216321
vt 0.28304942 0.88560181
vt 0.28359750 0.44723445
vt 0.28684301 0.13978636
vt 0.28718204 0.13889841
vt 0.28865425 0.35140642
vt 0.28964616 0.44748366
vt 0.29067396 7.1238682e-2
vt 0.29105301 7.2446466e-2
vt 0.29250441 0.35114813
vt 0.29406102 0.41842025
vt 0.29942281 0.41828716
vt 0.30270950 0.98259596
vt 0.30305862 0.82457383
vt 0.30362764 0.97039540
vt 0.30395514 0.83697838
vt 0.31470329 0.10095866
vt 0.31471525 9.9641712e-2
vt 0.31707695 0.38959837
vt 0.32186174 0.38881678
vt 0.33098371 0.90554295
vt 0.33271769 0.85183193
vt 0.33365200 0.95945484
vt 0.33920573 0.83369637
vt 0.34062468 0.97763828
vt 0.34235786 0.59445136
vt 0.34720376 0.58599566
vt 0.34803687 0.90540434
vt 0.34844819 0.85174955
vt 0.34888957 0.83386404
vt 0.34947761 0.95922543
vt 0.35036699 0.97719918
vt 0.36335951 0.56594166
vt 0.36630869 0.54628806
vt 0.36728579 0.55718881
vt 0.37100952 0.52315818
vt 0.37138018 0.53795024
vt 0.37504033 0.98666506
vt 0.37696607 0.82122870
vt 0.37734966 0.51534682
vt 0.38264566 0.78307175
vt 0.38697744 0.78964439
vt 0.39157817 0.90497653
vt 0.39306365 0.85415516
vt 0.39368909 0.46677620
vt 0.39414766 0.95584759
vt 0.39464061 0.83729680
vt 0.39611420 0.97269360
vt 0.39657798 0.60934957
vt 0.39910871 0.60344432
vt 0.40285553 0.46061308
vt 0.40432248 0.98096743
vt 0.40674100 0.82761759
vt 0.40895926 0.18004515
vt 0.40974792 0.30944181
vt 0.40989258 0.17764704
vt 0.41123497 0.13450382
vt 0.41151624 0.80309113
vt 0.41154646 0.13225690
vt 0.41256407 0.35474185
vt 0.41279795 0.30668755
vt 0.41646846 0.35174133
vt 0.41827708 0.80618394
vt 0.41975109 0.52312815
vt 0.42205648 0.81970021
vt 0.42365255 0.57987205
vt 0.42522567 0.74861539
vt 0.42575485 0.51809733
vt 0.42632636 0.57497157
vt 0.42909605 0.41987989
vt 0.42933727 0.75265984
vt 0.42947230 0.82260366
vt 0.43419073 0.54399997
vt 0.43552713 0.83880956
vt 0.43896155 0.53974881
vt 0.44045295 0.41576182
vt 0.44197946 0.48920425
vt 0.44375540 0.84139339
vt 0.44860577 0.45378821
vt 0.44971787 0.48546199
vt 0.45530360 0.40521730
vt 0.45814920 0.45051344
vt 0.46066910 0.76586193
vt 0.46652785 0.76744030
vt 0.46726598 0.40247042
vt 0.46786327 0.45038638
vt 0.47118459 0.57490915
vt 0.47435792 0.57281271
vt 0.47750568 0.44809378
vt 0.47784879 0.49592935
vt 0.47850529 0.88122909
vt 0.47994335 0.81936887
vt 0.48212323 0.44007769
vt 0.48264605 0.40286521
vt 0.48478049 0.79447395
vt 0.48513077 0.49403747
vt 0.48766822 0.82024338
vt 0.48867831 0.88232120
vt 0.49160521 0.79517096
vt 0.49223553 0.43853353
vt 0.49263903 0.59741007
vt 0.49460365 0.40148660
vt 0.49496434 0.59628868
vt 0.49690833 0.45778989
vt 0.50608328 0.45692782
vt 0.50643739 0.75114983
vt 0.51149569 0.75125904
vt 0.51377408 0.84161017
vt 0.51675626 0.41160759
vt 0.51757168 0.72196790
vt 0.52104329 0.72167127
vt 0.52109074 0.13267143
vt 0.52171375 0.13667954
vt 0.52229187 0.35159038
vt 0.52242776 0.84114021
vt 0.52458047 0.18318865
vt 0.52490908 0.30529418
vt 0.52508250 0.17877659
vt 0.52513388 0.34678897
vt 0.52591861 0.46394179
vt 0.52738907 0.30080652
vt 0.52814722 0.41186769
vt 0.52937373 0.91017008
vt 0.53385310 0.87143077
vt 0.53472336 0.46448518
vt 0.53570823 0.49692157
vt 0.54094328 0.90917632
vt 0.54288821 0.49786649
vt 0.54378310 0.87015963
vt 0.54397959 0.82123414
vt 0.54809978 0.12579832
vt 0.54931170 0.13055631
vt 0.54971924 0.35759750
vt 0.55140874 0.43338789
vt 0.55181254 0.81949895
vt 0.55216772 0.35268337
vt 0.55283931 0.86695474
vt 0.55396955 0.18075081
vt 0.55421291 0.30759824
vt 0.55438364 0.17560966
vt 0.55668824 0.30289307
vt 0.55913723 0.91328607
vt 0.56162725 0.43525589
vt 0.56260586 0.86485680
vt 0.56641418 0.55504734
vt 0.56997679 0.87078366
vt 0.57076961 0.55739494
vt 0.57091816 0.91099629
vt 0.57654766 0.84871756
vt 0.57992826 0.86794611
vt 0.58404588 0.47139236
vt 0.58510425 0.90468332
vt 0.58554950 0.84556952
vt 0.59234943 0.47471058
vt 0.59444884 0.11669033
vt 0.59641532 0.12331612
vt 0.59656672 0.90123537
vt 0.59660786 0.36476017
vt 0.59678176 0.79752218
vt 0.59856819 0.36022702
vt 0.60075918 0.83165546
vt 0.60198457 0.56688851
vt 0.60217470 0.73201213
vt 0.60349426 0.79346716
vt 0.60579726 0.57087450
vt 0.60589677 0.72777363
vt 0.60690099 0.17668602
vt 0.60701454 0.31153117
vt 0.60780522 0.17084802
vt 0.60900561 0.82742462
vt 0.61010782 0.30582305
vt 0.61292804 0.88326563
vt 0.61869136 0.51656427
vt 0.62349074 0.87854160
vt 0.62479291 0.52141312
vt 0.63030977 0.70717434
vt 0.63278989 0.70165432
vt 0.63616031 0.84967856
vt 0.64523866 0.84386923
vt 0.65015519 0.41507134
vt 0.65120965 0.80199346
vt 0.65377764 0.50200903
vt 0.65521848 0.41070260
vt 0.65700999 0.49769727
vt 0.65742351 0.49516867
vt 0.65781917 0.40852184
vt 0.65796520 0.40816078
vt 0.65812257 0.79545968
vt 0.65868035 0.49553070
vt 0.66534675 0.74691567
vt 0.66970150 0.73972196
vt 0.67288770 0.57776448
vt 0.67398897 0.57365211
vt 0.67452106 0.57383823
vt 0.67537627 0.57185454
vt 0.69405157 0.39776143
vt 0.69506334 0.10915323
vt 0.69733091 0.36738999
vt 0.69739495 0.12068696
vt 0.69911829 0.36453601
vt 0.69946953 0.39432059
vt 0.70151159 0.64525980
vt 0.70171775 0.64192116
vt 0.70184340 0.64022439
vt 0.70224286 0.39261393
vt 0.70243387 0.64459556
vt 0.70262789 0.39236916
vt 0.70557352 0.32178390
vt 0.70562433 0.16639181
vt 0.70599245 0.29358746
vt 0.70602381 0.19462451
vt 0.70625124 0.15636034
vt 0.70875830 0.18743208
vt 0.70880629 0.31710683
vt 0.71033296 0.28614123
vt 0.71720907 0.49350042
vt 0.71765848 0.66420790
vt 0.71778838 0.66573420
vt 0.71807995 0.66872926
vt 0.71943691 0.66836851
vt 0.72060648 0.49052586
vt 0.72234989 0.48903972
vt 0.72244159 0.48969662
vt 0.73306422 0.31009356
vt 0.73314297 0.17814730
vt 0.73545507 0.17082985
vt 0.73709786 0.61276595
vt 0.73749780 0.30183528
vt 0.73796974 0.56279225
vt 0.73798018 0.61018364
vt 0.73844312 0.60887643
vt 0.73925947 0.61067862
vt 0.73990386 0.56023936
vt 0.74090074 0.55895558
vt 0.74092591 0.56055709
vt 0.76240634 0.62674336
vt 0.76298881 0.62469072
vt 0.76329520 0.62365010
vt 0.76403208 0.62635692
vt 0.76596817 0.32457909
vt 0.76612049 0.16370565
vt 0.76710125 0.15173198
vt 0.76965164 0.31991583
vt 0.78969054 0.11991829
vt 0.79032370 0.35274743
vt 0.79058535 0.13552735
vt 0.79245781 0.31133306
vt 0.79261919 0.17702941
vt 0.79312519 0.35096955
vt 0.79459340 0.16825488
vt 0.79659072 0.30263886
vt 0.79792060 0.77515292
vt 0.79847862 0.56508052
vt 0.79923222 0.77581465
vt 0.80035116 0.56380092
vt 0.80097836 0.77650981
vt 0.80130650 0.56316328
vt 0.80182306 0.77707082
vt 0.80206128 0.56456307
vt 0.81221710 0.29594434
vt 0.81237157 0.19247872
vt 0.81390913 0.18527161
vt 0.81534574 0.28521111
vt 0.82021316 0.46637438
vt 0.82033248 0.39504716
vt 0.82415878 0.46557419
vt 0.82441513 0.13231850
vt 0.82515158 0.34469359
vt 0.82550401 0.14373974
vt 0.82577960 0.39426529
vt 0.82616307 0.46519674
vt 0.82692731 0.46643066
vt 0.82736502 0.33765621
vt 0.82854629 0.39390925
vt 0.82987768 0.39464524
vt 0.83489571 0.49528978
vt 0.83540715 0.75734341
vt 0.83652619 0.75760532
vt 0.83741972 0.75887146
vt 0.83822936 0.49479226
vt 0.83872544 0.75808045
vt 0.83992043 0.49456359
vt 0.84089140 0.49537128
vt 0.84666928 0.85333371
vt 0.84686714 0.14301631
vt 0.84752562 0.33768357
vt 0.84791533 0.15086951
vt 0.84881408 0.85346970
vt 0.84890653 0.85261754
vt 0.84945491 0.32639780
vt 0.85302867 0.85366491
vt 0.86396818 0.57885761
vt 0.86419027 0.38037716
vt 0.86553620 0.57895359
vt 0.86632578 0.57901210
vt 0.86653046 0.51676791
vt 0.86814586 0.58195541
vt 0.86940497 0.51693159
vt 0.86993648 0.38052179
vt 0.87085752 0.51703501
vt 0.87169080 0.51896625
vt 0.87284761 0.38063870
vt 0.87332627 0.87973366
vt 0.87371531 0.38110798
vt 0.87482653 0.87814301
vt 0.87575184 0.87958310
vt 0.87579006 0.83019338
vt 0.87694431 0.83008301
vt 0.87768577 0.83001932
vt 0.88051018 0.87920545
vt 0.88140030 0.82961194
vt 0.88409795 0.43444981
vt 0.88870146 0.43500154
vt 0.88958457 0.89097678
vt 0.89098015 0.88902315
vt 0.89102897 0.43531598
vt 0.89111603 0.85420500
vt 0.89212943 0.89065174
vt 0.89220124 0.43531175
vt 0.89304904 0.85260628
vt 0.89326761 0.85386568
vt 0.89461060 0.44973614
vt 0.89711715 0.88992687
vt 0.89748068 0.85312500
vt 0.89818382 0.86224785
vt 0.89888999 0.45050579
vt 0.89914882 0.86114308
vt 0.90042099 0.86183250
vt 0.90105113 0.45092829
vt 0.90209136 0.45118462
vt 0.90480019 0.86093947
vt 0.90796840 0.75297405
vt 0.90809218 0.75449348
vt 0.90903657 0.75246033
vt 0.91111144 0.75141016
vt 0.91129967 0.48550771
vt 0.91261419 0.36985215
vt 0.91482232 0.48662075
vt 0.91659638 0.48721155
vt 0.91824227 0.48757748
vt 0.91926952 0.46731712
vt 0.92480350 0.79497464
vt 0.92491603 0.79567692
vt 0.92631982 0.79427849
vt 0.92696359 0.35596860
vt 0.92704870 0.48165453
vt 0.92927119 0.79285523
vt 0.92949028 0.57792408
vt 0.93106342 0.57939959
vt 0.93184449 0.58015874
vt 0.93290511 0.38214852
vt 0.93301963 0.81281522
vt 0.93323440 0.81278486
vt 0.93399278 0.58325134
vt 0.93472624 0.81203020
vt 0.93573599 0.47338734
vt 0.93671417 0.36430593
vt 0.93804944 0.81042604
vt 0.93861749 0.82201655
vt 0.93887585 0.82213366
vt 0.93946608 0.45486638
vt 0.94068177 0.82128549
vt 0.94419849 0.81955390
vt 0.94730694 0.74675825
vt 0.94770762 0.74875710
vt 0.94830640 0.74582424
vt 0.94863286 0.35592212
vt 0.94871699 0.48186586
vt 0.95023287 0.74394887
vt 0.95093188 0.47887615
vt 0.95620270 0.78348171
vt 0.95657626 0.78216476
vt 0.95675472 0.35800410
vt 0.95795379 0.78112961
vt 0.96062135 0.77904333
vt 0.96228113 0.80050856
vt 0.96263799 0.36128630
vt 0.96356158 0.79960067
vt 0.96512514 0.79848982
vt 0.96567872 0.45282743
vt 0.96649960 0.38509305
vt 0.96815656 0.79624873
vt 0.96873834 0.81332758
vt 0.96935718 0.47550126
vt 0.96999036 0.81321457
vt 0.97089438 0.88234506
vt 0.97169913 0.81203421
vt 0.97203753 0.88442249
vt 0.97248213 0.32802488
vt 0.97259957 0.47861013
vt 0.97298694 0.16118197
vt 0.97369169 0.14867738
vt 0.97450759 0.88321617
vt 0.97501422 0.80965172
vt 0.97589585 0.31724053
vt 0.97842381 0.35810488
vt 0.97932052 0.88075879
vt 0.98584401 0.46532874
vt 0.98675942 0.37274551
vt 0.98889218 0.18832849
vt 0.99000314 0.27724138
vt 0.99121215 0.28915465
vt 0.99150033 0.20019872
vn -0.42767329 -0.54897850 -0.71813520
vn -0.27658244 -0.91552321 -0.29209486
vn 0.32717931 -0.92135456 -0.20990349
vn 0.65988642 -0.51534360 -0.54678231
vn 0.85893441 -0.50321892 -9.4880960e-2
vn 0.17296420 -0.89482280 -0.41155259
vn -0.25481862 -0.89728736 -0.36047587
vn -0.15706331 -0.15916859 -0.97467763
vn 0.13780991 -0.84381252 -0.51864136
vn 0.16698198 -0.84025603 -0.51583604
vn -6.9011382e-2 -0.87218294 -0.48428746
vn -0.54703196 -0.83044644 0.10542646
vn -0.41477633 -0.78775183 0.45542031
vn -0.72995664 -0.52329463 0.43968856
vn -6.2803136e-2 -0.77461738 0.62930413
vn 7.2930374e-3 -0.79524792 0.60624051
vn -0.96754471 3.1965509e-4 -0.25269970
vn 0.34334467 -0.85288877 -0.39331308
vn 0.55955541 -0.76539196 -0.31791963
vn -0.83677436 -0.51288509 -0.19172259
vn -0.34850176 -0.93730451 -2.6016031e-3
vn 0.60069325 -0.61849333 -0.50659019
vn 0.16780916 -0.13624251 -0.97635960
vn -0.13101232 -0.77751914 -0.61506078
vn 0.55200237 -0.56725064 -0.61116291
vn 0.60884441 -0.78985217 -7.3770113e-2
vn 0.63323479 -0.75609519 -0.16532927
vn -0.42355039 0.53289007 -0.73255255
vn -0.83286117 0.51395563 -0.20540663
vn -0.34134933 0.93953082 -2.7612956e-2
vn 0.60533749 0.60017885 -0.52283063
vn 0.16874335 0.10889380 -0.97962637
vn -0.12514601 0.76182893 -0.63557466
vn 0.33311553 0.91319280 -0.23476149
vn 0.63896131 0.74657365 -0.18535435
vn 0.61483818 0.78294335 -9.4729727e-2
vn 0.55624691 0.54654028 -0.62600567
vn 0.56533942 0.75236214 -0.33814575
vn 0.34979406 0.83946389 -0.41586595
vn 1.3414450e-2 0.81104168 0.58483454
vn -5.6834558e-2 0.79156781 0.60843261
vn -0.72590311 0.54037276 0.42551376
vn -0.40871510 0.80274579 0.43422479
vn -0.54067708 0.83710535 8.3204092e-2
vn -0.26967457 0.90946370 -0.31646705
vn -6.2412227e-2 0.85946869 -0.50736405
vn 0.17332778 0.82491501 -0.53802668
vn 0.17664542 0.78972427 -0.58747934
vn -0.14113581 0.10951762 -0.98391391
vn -0.23058136 0.86150068 -0.45238127
vn 0.13494009 0.88453386 -0.44653222
vn 0.86273453 0.49395188 -0.10816960
vn 0.66373882 0.49554665 -0.56025378
vn -0.40943138 -0.52957765 0.74290878
vn -0.26890630 -0.90732179 0.32319740
vn 0.32870708 -0.91591309 0.23033643
vn 0.67350077 -0.50086429 0.54362825
vn 0.86120200 -0.50080726 8.6736371e-2
vn 0.18383916 -0.88344692 0.43095790
vn -0.24568224 -0.88708188 0.39080170
vn -0.13330659 -0.13292623 0.98212014
vn 0.15099338 -0.82979147 0.53725889
vn 0.18008515 -0.82632038 0.53363280
vn -5.6611612e-2 -0.85899539 0.50884384
vn -0.54921793 -0.83277129 -6.9653726e-2
vn -0.42575448 -0.79942745 -0.42385006
vn -0.74053152 -0.53454136 -0.40728198
vn -7.8235968e-2 -0.79103069 -0.60675331
vn -7.5790715e-3 -0.81106489 -0.58490709
vn 0.35333856 -0.84225996 0.40712410
vn 0.56757087 -0.75686726 0.32406058
vn -0.83155762 -0.50733693 0.22609989
vn -0.34801751 -0.93678949 3.6183665e-2
vn 0.61335694 -0.60502509 0.50767894
vn 0.19217466 -0.11032902 0.97513917
vn -0.11536014 -0.76087254 0.63856481
vn 0.56727467 -0.55100806 0.61203723
vn 0.61075798 -0.78781704 7.9492226e-2
vn 0.63741513 -0.75164927 0.16948551
vn -0.40530848 0.55229093 0.72849143
vn -0.82764443 0.51950380 0.21241586
vn -0.34086507 0.94004584 1.1172312e-2
vn 0.61800118 0.61364709 0.49143849
vn 0.19310885 0.13480729 0.97187240
vn -0.10949383 0.77847553 0.61805093
vn 0.33464010 0.91948241 0.20632038
vn 0.64314165 0.75101957 0.14946043
vn 0.61675174 0.78497848 5.8532612e-2
vn 0.57151922 0.56278286 0.59719447
vn 0.57335488 0.76088685 0.30383447
vn 0.35978795 0.85009270 0.38457123
vn -0.96093517 7.3491088e-3 0.27667596
vn -1.4576590e-3 0.79522472 -0.60631306
vn -7.2267390e-2 0.77515450 -0.62762483
vn -0.73647798 0.52912604 -0.42145678
vn -0.41969325 0.79107016 -0.44504558
vn -0.54286305 0.83478050 -9.1876095e-2
vn -0.26199738 0.91760431 0.29893093
vn -5.0012457e-2 0.87265625 0.48576725
vn 0.18643096 0.83885065 0.51144215
vn 0.19079046 0.80548309 0.56106684
vn -0.11785322 0.13817313 0.98337114
vn -0.21947928 0.87378465 0.43396916
vn 0.14629502 0.89611755 0.41901205
vn 0.86500212 0.49636354 7.3447730e-2
vn 0.67735318 0.51002595 0.53015678
vn 0.97595282 -0.16647024 0.14072583
vn 5.0326691e-2 -0.16845699 0.98442342
vn -0.33551438 -0.14780969 0.93036681
vn -0.35858534 -0.17234640 -0.91744933
vn 0.97219091 -0.17047115 -0.16057528
vn 2.5792912e-2 -0.19454945 -0.98055354
vn 2.7175120e-2 0.16814880 -0.98538698
vn 0.97344542 0.15871829 -0.16496217
vn -0.35735476 0.15056495 -0.92175256
vn -0.33428379 0.17510166 0.92606358
vn 0.97720732 0.16271920 0.13633894
vn 5.1708898e-2 0.19424126 0.97958998
vn -0.22008205 0.95312618 -0.20764001
vn 0.23352807 0.96425232 -0.12522818
vn 0.22616064 -0.96899849 -9.9465013e-2
vn -0.22735989 -0.95661604 -0.18219012
vn 0.23626170 0.96715963 9.3715843e-2
vn -0.21514612 0.95837570 0.18769168
vn -0.22242396 -0.95136652 0.21314156
vn 0.22889427 -0.96609119 0.11947901
vn -0.25385403 -0.93212580 -0.25826269
vn -0.24676977 0.92682010 -0.28303564
vn -0.24701898 -0.92485651 0.28917478
vn -0.23993472 0.93408940 0.26440183
vn -0.35926192 0.93010318 -7.6413009e-2
vn -0.35755078 0.93192304 6.0637390e-2
vn -0.36463580 -0.92722454 8.5413030e-2
vn -0.36634695 -0.92904440 -5.1637368e-2
vn 0.89121628 -9.3662327e-3 -0.45348187
vn 0.89807618 2.5158141e-3 0.43983275
vn 0.99998933 -3.4015055e-3 -3.1243077e-3
vn -0.63544630 -0.64520487 -0.42416822
vn 0.13453237 -0.70806024 -0.69321840
vn -0.49547959 -0.83881355 -0.22559211
vn 0.74189742 -0.59534409 -0.30846981
vn 0.73701743 -0.66875457 9.7839861e-2
vn 0.59403942 -0.79802694 -0.10134188
vn -0.36962178 -0.54847952 -0.75003331
vn -3.6285057e-2 -0.42072071 -0.90646427
vn 0.29990036 -0.80008152 -0.51954724
vn -0.48592816 -0.72262806 0.49161215
vn -0.65275953 -0.70212304 0.28447889
vn -0.44380117 -0.79646267 0.41071613
vn 0.40933322 -0.64158689 0.64870068
vn 0.78308558 -0.61583183 -8.6764762e-2
vn 0.35291005 -0.80223313 -0.48153556
vn -0.72767470 -0.68511258 -3.3321009e-2
vn 0.15650628 -0.89242371 -0.42318519
vn 0.37843852 -0.30245750 -0.87481641
vn -7.8415155e-2 -0.30454110 -0.94926592
vn 0.32581842 -0.74150761 -0.58652265
vn 0.57996149 -0.72989532 -0.36179759
vn 0.32762314 -0.91232276 -0.24562217
vn -0.63055424 0.63849627 -0.44127527
vn -0.50144106 -9.6181884e-3 -0.86513835
vn -0.72243616 0.68950659 -5.1639657e-2
vn -0.96267402 6.1701665e-5 -0.27066349
vn 0.16325933 0.87961140 -0.44679994
vn 0.38064352 0.27614575 -0.88252707
vn 0.54171409 -1.3264654e-2 -0.84045814
vn -7.6188570e-2 0.27972603 -0.95705206
vn 0.16586567 -1.3772568e-2 -0.98605218
vn -0.12138362 -1.2764130e-2 -0.99252360
vn 0.33448565 0.90290027 -0.26998231
vn 0.77450660 -0.42517310 -0.46836670
vn 0.95753157 -7.4901265e-3 -0.28823115
vn 0.58546996 0.71555440 -0.38106015
vn 0.93644942 -8.2423429e-3 -0.35070578
vn 0.33139994 0.72311051 -0.60604065
vn 0.69355289 -1.2242050e-2 -0.72030169
vn 0.35896419 0.78640390 -0.50270629
vn 0.78774688 0.60731581 -0.10306485
vn 0.77689003 -1.1350038e-2 -0.62953400
vn 0.51221200 -1.3396049e-2 -0.85875457
vn 0.41427632 0.65550746 0.63141516
vn -0.11972739 1.3685497e-2 0.99271248
vn -0.43767725 0.81048321 0.38930142
vn -0.27046500 1.3859055e-2 0.96263005
vn -0.64736127 0.71440824 0.26560170
vn -0.48035746 0.73915366 0.47213195
vn -0.83304348 1.0545541e-2 0.55310699
vn -0.82205731 1.0719519e-2 0.56930385
vn -0.48909947 0.83623346 -0.24798247
vn -0.99765809 4.7113125e-3 6.8235912e-2
vn -0.61766389 -8.1259830e-3 -0.78640020
vn -0.17355184 -1.2461673e-2 -0.98474589
vn 0.31514831 0.78003715 -0.54057708
vn 0.16742542 -1.3774999e-2 -0.98578851
vn -1.5984429e-2 0.33668813 -0.94148054
vn 0.14919286 -1.6180995e-2 -0.98867571
vn -0.30579777 0.47459758 -0.82537559
vn -0.15794867 -1.8092466e-2 -0.98728156
vn -0.34434725 -2.5219081e-2 -0.93850358
vn 0.58934377 0.79589302 -0.13866589
vn 0.15640934 -1.3956256e-2 -0.98759371
vn 0.74210210 0.66548853 8.0059279e-2
vn 0.74638128 0.58124191 -0.32414940
vn 0.99586546 -5.0038780e-3 -9.0702463e-2
vn 0.13985373 0.68829046 -0.71182664
vn 0.75695862 -1.1591595e-2 -0.65336000
vn -0.62444597 -0.63350566 0.45687834
vn 0.15202980 -0.68945116 0.70819774
vn -0.48941820 -0.83232886 0.26018935
vn 0.74956380 -0.58719066 0.30555073
vn 0.73456704 -0.67136063 -9.8418301e-2
vn 0.59678775 -0.79515681 0.10756409
vn -0.35143911 -0.52768791 0.77332789
vn -1.3654461e-2 -0.39642169 0.91796699
vn 0.31304143 -0.78610557 0.53295694
vn -0.49780918 -0.73526390 -0.45997067
vn -0.65942472 -0.70921169 -0.24935479
vn -0.45365145 -0.80693876 -0.37821977
vn 0.39322494 -0.65871856 -0.64145460
vn 0.78521154 -0.61357081 8.3508688e-2
vn 0.36508644 -0.78928315 0.49370436
vn -0.72638902 -0.68374521 6.9652503e-2
vn 0.16731719 -0.88092596 0.44268997
vn 0.40025867 -0.27925107 0.87281833
vn -5.4593464e-2 -0.27920596 0.95867804
vn 0.34060389 -0.72578279 0.59768581
vn 0.58905414 -0.72022499 0.36645761
vn 0.33370004 -0.90548120 0.26219854
vn -0.61955391 0.65019548 0.43977130
vn -0.47968534 1.3519721e-2 0.87733642
vn -0.72115048 0.69087395 5.1333855e-2
vn -0.95561749 7.5665474e-3 0.29451308
vn 0.17407024 0.89110915 0.41907522
vn 0.40246367 0.29935218 0.86510766
vn 0.56252981 8.8735341e-3 0.82672938
vn -5.2366879e-2 0.30506116 0.95089190
vn 0.19043313 1.2355716e-2 0.98162241
vn -9.6565422e-2 1.3630823e-2 0.99523330
vn 0.34056566 0.90955154 0.23818276
vn 0.78027893 0.42356776 0.46016861
vn 0.96443066 -1.5271942e-4 0.26433592
vn 0.59456261 0.72522472 0.34719505
vn 0.94491487 7.6093812e-4 0.32731529
vn 0.34618541 0.73883533 0.57816781
vn 0.71132151 6.6554479e-3 0.70283527
vn 0.37114058 0.79935388 0.47253364
vn 0.78987283 0.60957683 6.7208602e-2
vn 0.79236657 5.1097564e-3 0.61002386
vn 0.53349368 9.2377112e-3 0.84575360
vn 0.39816804 0.63837580 -0.65874012
vn -0.14447546 -1.2634872e-2 -0.98942771
vn -0.44752754 0.80000711 -0.39963448
vn -0.29441521 -1.1612761e-2 -0.95560705
vn -0.65402646 0.70731958 -0.26823197
vn -0.49223847 0.72651782 -0.47945088
vn -0.84659442 -3.8663185e-3 -0.53222452
vn -0.83601604 -4.1260495e-3 -0.54868948
vn -0.48303665 0.84265170 0.23793636
vn -0.99905207 3.2287749e-3 -4.3411362e-2
vn -0.59783797 1.2959529e-2 0.80151221
vn -0.14891163 1.3743977e-2 0.98875499
vn 0.32818367 0.79406808 0.51161642
vn 0.19198581 1.2345769e-2 0.98132004
vn 6.7850958e-3 0.36357300 0.93154100
vn 0.17375001 1.0276286e-2 0.98473617
vn -0.28658764 0.49878151 0.81797587
vn -0.13432664 9.2447398e-3 0.99089398
vn -0.32118911 1.9416989e-3 0.94701309
vn 0.59250875 0.79900261 0.10260710
vn 0.18193376 1.3290834e-2 0.98322096
vn 0.73965171 0.66288247 -0.11619888
vn 0.75404765 0.58939534 0.28987114
vn 0.99782092 -2.9241851e-3 6.5915507e-2
vn 0.15735115 0.70689954 0.68958949
vn 0.77303621 5.5074409e-3 0.63433799
vn 5.3583820e-3 -0.99474450 -0.10224808
vn -7.0738905e-2 -0.99749356 -1.6162793e-3
vn 6.2203123e-2 -0.88526806 0.46090262
vn -7.0329322e-2 -0.99707661 2.9866668e-2
vn 5.0971776e-2 -0.89721296 -0.43864653
vn 8.2426861e-3 -0.99167980 0.12846494
vn -1.2397383e-2 0.98892160 -0.14792014
vn -9.1451002e-3 0.99258753 0.12118726
vn 5.7762818e-2 0.88479101 -0.46239412
vn 1.7341158e-3 0.99305515 -0.11763695
vn 6.8994166e-2 0.89673591 0.43715502
vn 4.3647566e-3 0.99582223 9.1208699e-2
vn 0.10887067 -0.82950601 0.54778368
vn 3.5486488e-2 -0.60665055 -0.79417619
vn 5.5501352e-2 -0.58536410 0.80886863
vn 0.79023783 -0.60039616 0.12267283
vn 0.78712830 -0.60370325 -0.12637813
vn 8.0331083e-3 -1.3355339e-2 -0.99987854
vn 0.79480256 0.59741256 0.10671042
vn -0.34406114 1.3822561e-2 0.93884550
vn 0.11524425 0.84295482 0.52549589
vn 0.99045905 -1.9382556e-3 0.13779375
vn -0.36739467 -1.0993397e-2 -0.93000016
vn 0.98671128 -5.9241300e-3 -0.16237536
vn 0.79169303 0.59410548 -0.14234054
vn 0.10181108 0.82866821 -0.55040303
vn 9.5437498e-2 -0.84379262 -0.52811524
vn 4.0027691e-2 0.58498422 -0.81005632
vn 3.2994766e-2 1.3192188e-2 0.99936846
vn 6.0042555e-2 0.60627067 0.79298850
vn 0.68880885 -0.19493301 0.69824314
vn -0.85066048 -0.15842041 0.50127809
vn -0.86285612 -0.17139088 -0.47550444
vn 0.67122871 -0.21363006 -0.70979872
vn 0.67276507 0.18951860 -0.71517122
vn -0.86157330 0.16522926 -0.47999036
vn -0.84937765 0.17819972 0.49679218
vn 0.69034522 0.20821565 0.69287064
vn -0.98591627 1.5286299e-3 -0.16723270
vn 0.99284841 -5.3729598e-3 -0.11926090
vn 0.99551783 -2.5339473e-3 9.4540086e-2
vn -0.98143490 6.2947090e-3 0.19169224
vn -0.14539321 0.35391862 0.92390607
vn -0.17112739 -0.35265995 -0.91997086
vn -0.14799214 -0.32805486 0.93299428
vn 0.21908591 -0.97565205 1.0220048e-2
vn -0.16852846 0.32931353 -0.92905907
vn -0.21758522 0.97598758 -1.0243241e-2
vn 0.22651538 0.97388008 -1.5760087e-2
vn -0.22501730 -0.97422753 1.5745996e-2
vn -0.77920431 0.58304430 -0.22999997
vn 0.77219537 0.62486911 -0.11512127
vn 0.76739954 -0.63358116 -9.8350729e-2
vn -0.78364804 -0.58301146 -0.21446071
vn 0.77462131 0.62744918 7.9179207e-2
vn -0.77341328 0.58920324 0.23381923
vn -0.77785701 -0.57685251 0.24935849
vn 0.76982548 -0.63100109 9.5949748e-2
vn -0.85266047 -3.7129727e-3 -0.52245224
vn -0.98569448 1.5104269e-3 -0.16853521
vn -0.83935163 1.0441402e-2 0.54348856
vn -0.98118066 6.3110190e-3 0.19298883
vn -0.65739531 0.61849945 0.43045307
vn -0.66204568 -0.60178174 0.44671495
vn -0.75134201 0.64486763 -0.14011039
vn -0.74782405 0.64860909 0.14165250
vn -0.66814073 0.60707134 -0.43017711
vn -0.75273057 -0.63888656 0.15881011
vn -0.75624853 -0.64262802 -0.12295278
vn -0.67279110 -0.61320985 -0.41391522
vn 0.77718572 0.40680907 -0.48009243
vn 0.77758164 -0.41690580 0.47069773
vn 0.78883744 -1.1026711e-2 -0.61450298
vn 0.78665202 5.4072439e-3 0.61737295
vn 0.74582254 0.58624576 -0.31632998
vn 0.74501324 0.59915286 0.29320833
vn 0.74173495 -0.59558848 0.30838875
vn 0.74255029 -0.59892270 -0.29985107
vn 0.90224293 0.26992107 0.33630391
vn 0.90021183 -0.26770376 0.34344338
vn 0.89413942 0.25954809 -0.36489654
vn 0.89211653 -0.27595833 -0.35773606
vn 3.1473004e-2 -0.10125886 0.99436215
vn 3.2344696e-2 0.12747746 0.99131394
vn 6.6747289e-3 -0.12763262 -0.99179905
vn 7.5464206e-3 0.10110369 -0.99484727
vn -0.80090665 -4.9272241e-3 -0.59876895
vn -0.98921098 1.8176547e-3 -0.14648665
vn -0.33739720 -1.1258234e-2 -0.94129506
vn 0.45269493 -1.3606433e-2 -0.89156164
vn -0.16860328 -1.2491978e-2 -0.98560483
vn 0.79976700 -0.48845517 -0.34897605
vn 0.85826823 -1.0108547e-2 -0.51310181
vn 0.54078857 -1.3269066e-2 -0.84105390
vn 0.63321719 -1.2725980e-2 -0.77386953
vn 0.93808996 -8.1898140e-3 -0.34629490
vn 0.26066716 1.1871286e-2 0.96535574
vn -0.69656740 1.2214701e-2 0.71738738
vn -0.87699713 9.7440832e-3 0.48039680
vn -0.67759678 1.2381507e-2 0.73532939
vn -0.93110193 -1.3125355e-3 -0.36475674
vn 0.29847728 -1.5007809e-2 -0.95429874
vn -1.3880214e-2 -1.5443909e-2 -0.99978439
vn -0.42648844 -2.8907005e-2 -0.90403097
vn 0.85800158 -1.0355909e-2 -0.51354264
vn 0.99094005 -1.9867774e-3 0.13429026
vn 0.92552309 -8.5723537e-3 -0.37859415
vn 0.16013803 -1.3763354e-2 -0.98699867
vn -0.78570847 1.1236534e-2 0.61849490
vn -0.98524656 6.0339432e-3 0.17103454
vn -0.31379098 1.3847739e-2 0.94939110
vn 0.47481419 9.9181144e-3 0.88003018
vn -0.14394317 1.3734846e-2 0.98949064
vn 0.94094838 9.3873438e-4 0.33854876
vn 0.87081252 3.2327111e-3 0.49160463
vn 0.56161945 8.8852468e-3 0.82734796
vn 0.65234197 7.6138451e-3 0.75788652
vn 0.94644477 6.9580169e-4 0.32286500
vn 0.23648403 -1.3848250e-2 -0.97153668
vn -0.71426232 -6.6044171e-3 -0.69984693
vn -0.88871906 -2.7225629e-3 -0.45844413
vn -0.69574555 -6.9202950e-3 -0.71825500
vn -0.92170596 8.6803833e-3 0.38779219
vn 0.32213992 1.0314176e-2 0.94663588
vn 1.0885010e-2 1.1607072e-2 0.99987339
vn -0.40548033 -2.8939445e-3 0.91409919
vn 0.87078245 3.1323427e-3 0.49165854
vn 0.98727960 -5.8797810e-3 -0.15888492
vn 0.93468823 1.1750655e-3 0.35546665
vn 0.18473090 1.2391954e-2 0.98271101
vn -7.0008492e-2 0.80010705 -0.59575793
vn 3.6312512e-2 0.99385573 -0.10455712
vn 0.16290474 -0.57724863 0.80015378
vn -0.11670775 -0.90564902 -0.40765078
vn 3.0996600e-2 -0.99412339 0.10372028
vn -6.6308896e-2 -0.99648307 -5.1231044e-2
vn -6.4679052e-2 -0.99474968 7.9307605e-2
vn 2.8727320e-2 -0.99653684 -7.8032463e-2
vn -0.10628656 -0.89444829 0.43435633
vn 6.7209639e-2 -0.97729101 -0.20096054
vn 0.14307126 -0.59834217 -0.78836366
vn 7.2534411e-2 -0.97163024 0.22510760
vn -5.6021519e-2 0.81697906 0.57393972
vn 3.8581791e-2 0.99626918 7.7195627e-2
vn 0.14754661 0.57601409 -0.80401354
vn 6.8933358e-2 0.97475077 -0.21238908
vn 0.16738009 0.59710764 0.78450390
vn 7.3922989e-2 0.98000602 0.18472572
vn -5.7088789e-2 0.99697377 5.2765213e-2
vn -5.8718633e-2 0.99524038 -7.7773435e-2
vn -0.15382349 -0.89005377 0.42911842
vn -0.16419250 -0.90108155 -0.40136376
vn 0.72303324 0.69057352 -1.8197415e-2
vn -0.15736194 0.89129123 -0.42524953
vn -0.14699293 0.90231900 0.40523264
vn 0.71774799 -0.69630291 2.8457728e-4
vn -0.43210251 -0.72808834 0.53214169
vn 0.70034545 -0.20679637 0.68319214
vn 0.68314136 -0.22509349 -0.69473075
vn 0.70197035 0.21958547 0.67751003
vn -0.42648764 0.74528169 0.51250706
vn -0.44501022 -0.74181611 -0.50167196
vn 0.67226105 -1.2426213e-2 -0.74020989
vn -0.43939535 0.73155393 -0.52130660
vn 0.68476626 0.20128836 -0.70041286
vn 0.69053333 7.0069451e-3 0.72326664
vn -0.86354371 1.0009685e-2 0.50417465
vn -0.87586347 -3.0927850e-3 -0.48254908
vn 0.18228520 -7.4644139e-2 -0.98040826
vn -0.55655256 -8.9500821e-3 -0.83076419
vn -0.53563796 1.3293270e-2 0.84434310
vn -0.99991482 3.9762461e-3 1.2431667e-2
vn 0.99991482 -3.9762461e-3 -1.2431667e-2
vn 0.20672684 -4.8649677e-2 0.97718843
vn -0.54015934 0.39073691 0.74535398
vn -0.56161277 -0.38635562 -0.73165595
vn -0.78820815 -0.61514516 1.8009563e-2
vn -0.54304551 -0.36660874 0.75544663
vn -0.55872660 0.37099003 -0.74174860
vn -0.78349582 0.62139517 1.5310013e-3
vn 0.78109153 0.62415589 -1.8040360e-2
vn 0.77631073 -0.63034903 -1.3223955e-3
vn 0.73551304 0.33900337 -0.58659806
vn 0.73136775 0.36209078 0.57791996
vn 0.72956669 -0.35182089 0.58647636
vn 0.73371678 -0.35978584 -0.57637995
vn 0.81111293 0.48255449 0.33051019
vn 0.80751274 -0.47973633 0.34318542
vn 0.80336078 0.47288055 -0.36193293
vn 0.93248678 -8.3532827e-3 -0.36110750
vn 0.28512643 1.1685628e-2 0.95841868
vn 0.20719079 7.3095355e-2 0.97556601
vn 0.26110891 -1.3857779e-2 -0.96520987
vn 0.18274916 4.7100892e-2 -0.98203068
g cube22_default
usemtl default
f 1/416/1 139/410/139 413/401/413 138/419/138
f 1/416/1 161/423/161 383/414/383 139/410/139
f 2/272/2 11/321/11 192/326/192 191/285/191
f 2/272/2 55/270/55 64/320/64 11/321/11
f 2/272/2 191/285/191 376/277/376 140/252/140
f 3/84/3 159/118/159 367/75/367 171/48/171
f 4/395/4 139/410/139 383/414/383 206/393/206
f 4/395/4 206/393/206 382/364/382 141/381/141
f 5/363/5 141/381/141 382/364/382 204/344/204
f 5/363/5 204/344/204 381/338/381 142/365/142
f 6/337/6 143/350/143 380/329/380 201/308/201
f 7/526/7 6/668/6 201/655/201 199/552/199
f 7/526/7 60/527/60 59/669/59 6/668/6
f 7/526/7 199/552/199 379/534/379 144/513/144
f 8/506/8 144/513/144 379/534/379 198/511/198
f 8/506/8 198/511/198 378/464/378 145/474/145
f 9/434/9 62/433/62 279/477/279 277/476/277
f 9/434/9 145/474/145 378/464/378 196/424/196
f 9/434/9 196/424/196 377/399/377 146/405/146
f 9/434/9 277/476/277 409/490/409 145/474/145
f 10/383/10 146/405/146 377/399/377 194/380/194
f 11/321/11 10/383/10 194/380/194 192/326/192
f 11/321/11 64/320/64 63/382/63 10/383/10
f 12/243/12 140/252/140 376/277/376 190/269/190
f 13/532/13 12/536/12 190/565/190 188/579/188
f 13/532/13 26/487/26 27/467/27 12/536/12
f 13/532/13 188/579/188 375/592/375 147/546/147
f 14/564/14 147/546/147 375/592/375 187/604/187
f 14/564/14 187/604/187 374/615/374 148/560/148
f 15/610/15 149/600/149 373/632/373 184/640/184
f 15/610/15 184/640/184 372/645/372 150/621/150
f 16/628/16 150/621/150 372/645/372 182/653/182
f 16/628/16 182/653/182 17/659/17
f 17/659/17 18/594/18 16/628/16
f 17/663/17 40/629/40 39/597/39
f 17/659/17 180/584/180 18/594/18
f 17/663/17 182/660/182 40/629/40
f 18/594/18 180/584/180 371/572/371 151/587/151
f 19/575/19 151/587/151 371/572/371 179/554/179
f 19/575/19 179/554/179 370/520/370 152/544/152
f 20/436/20 138/419/138 413/401/413 153/430/153
f 21/432/21 73/411/73 223/428/223 154/443/154
f 22/43/22 280/144/280 416/141/416 155/104/155
f 22/79/22 288/115/288 426/189/426 280/178/280
f 23/143/23 155/104/155 416/141/416 156/171/156
f 24/319/24 76/318/76 129/281/129 133/267/133 134/268/134 127/282/127
f 24/319/24 127/282/127 361/280/361 322/305/322
f 24/623/24 322/665/322 454/647/454 445/634/445 169/612/169
f 25/496/25 157/503/157 369/484/369 176/469/176
f 25/496/25 176/469/176 368/460/368 158/499/158
f 26/487/26 158/499/158 368/460/368 174/450/174
f 27/467/27 26/487/26 174/450/174 172/449/172
f 27/132/27 357/73/357 367/75/367 159/118/159
f 28/366/28 160/371/160 407/362/407 205/355/205
f 28/366/28 161/368/161 362/388/362 160/371/160
f 29/391/29 162/394/162 407/362/407 160/371/160
f 29/391/29 163/409/163 363/420/363 162/394/162
f 30/413/30 287/369/287 423/354/423 407/362/407 162/394/162
f 31/80/31 83/51/83 233/10/233 164/35/164
f 31/42/31 165/103/165 420/134/420 284/137/284
f 31/42/31 166/40/166 365/76/365 165/103/165
f 32/136/32 167/170/167 420/134/420 165/103/165
f 32/136/32 168/133/168 366/180/366 167/170/167
f 33/229/33 284/137/284 420/134/420 167/170/167
f 34/85/34 45/276/45 98/271/98 86/81/86
f 34/85/34 86/81/86 351/36/351 350/39/350
f 34/85/34 346/53/346 464/83/464 170/119/170
f 35/147/35 44/244/44 189/255/189 170/119/170
f 35/462/35 172/446/172 174/448/174 36/482/36
f 35/147/35 356/77/356 465/72/465 172/105/172
f 36/482/36 43/530/43 44/531/44 35/462/35
f 36/482/36 174/448/174 368/458/368 173/495/173
f 37/493/37 175/502/175 425/519/425 173/495/173
f 37/493/37 176/468/176 369/485/369 175/502/175
f 38/577/38 41/613/41 183/601/183 177/547/177
f 38/577/38 179/557/179 371/576/371 178/590/178
f 39/597/39 40/629/40 181/624/181 178/590/178
f 39/597/39 180/589/180 17/663/17
f 40/629/40 182/660/182 372/648/372 181/624/181
f 41/613/41 38/577/38 178/590/178 181/624/181
f 41/613/41 184/641/184 373/635/373 183/601/183
f 42/562/42 186/542/186 425/519/425 185/558/185
f 42/562/42 187/602/187 375/588/375 186/542/186
f 43/530/43 36/482/36 173/495/173 425/519/425 186/542/186
f 43/530/43 188/578/188 190/559/190 44/531/44
f 44/244/44 190/273/190 376/278/376 189/255/189
f 45/276/45 34/85/34 170/119/170 189/255/189
f 45/276/45 191/286/191 192/328/192 46/327/46
f 46/327/46 99/322/99 98/271/98 45/276/45
f 46/327/46 192/328/192 194/385/194 47/387/47
f 47/387/47 100/384/100 99/322/99 46/327/46
f 47/387/47 194/385/194 377/402/377 193/407/193
f 48/437/48 101/435/101 262/406/262 193/407/193
f 48/437/48 195/480/195 406/494/406 282/481/282
f 48/437/48 196/426/196 378/466/378 195/480/195
f 49/509/49 197/517/197 406/494/406 195/480/195
f 49/509/49 198/515/198 379/539/379 197/517/197
f 50/529/50 199/556/199 201/661/201 51/667/51
f 50/529/50 282/481/282 406/494/406 197/517/197
f 51/667/51 104/666/104 103/528/103 50/529/50
f 51/316/51 201/293/201 380/301/380 200/335/200
f 52/334/52 203/346/203 407/362/407 202/341/202
f 52/334/52 204/306/204 382/317/382 203/346/203
f 53/348/53 205/355/205 407/362/407 203/346/203
f 53/348/53 206/342/206 383/351/383 205/355/205
f 54/359/54 230/360/230 384/375/384 207/370/207
f 55/270/55 260/283/260 261/323/261 64/320/64
f 56/82/56 3/84/3 353/38/353 352/37/352
f 56/82/56 55/270/55 2/272/2 3/84/3
f 56/82/56 347/45/347 463/74/463 228/117/228
f 57/345/57 275/336/275 405/347/405 208/352/208
f 58/330/58 273/302/273 404/311/404 210/343/210
f 59/315/59 270/292/270 402/299/402 212/332/212
f 60/527/60 268/553/268 270/657/270 59/669/59
f 61/507/61 267/512/267 401/535/401 213/514/213
f 62/433/62 265/422/265 400/465/400 214/475/214
f 63/382/63 263/379/263 399/398/399 215/404/215
f 64/320/64 261/323/261 263/379/263 63/382/63
f 65/540/65 79/471/79 78/488/78 66/537/66
f 65/240/65 259/264/259 398/275/398 209/246/209
f 66/537/66 257/582/257 259/568/259 65/540/65
f 67/566/67 256/605/256 397/595/397 216/548/216
f 68/608/68 253/638/253 395/630/395 218/598/218
f 69/626/69 70/591/70 92/654/92
f 69/626/69 251/651/251 394/644/394 219/618/219
f 70/591/70 249/580/249 92/654/92
f 71/573/71 248/550/248 393/569/393 220/583/220
f 72/386/72 222/392/222 410/356/410 207/370/207
f 72/386/72 232/400/232 385/417/385 222/392/222
f 73/411/73 21/432/21 281/377/281 276/367/276
f 73/411/73 276/367/276 415/353/415 410/356/410 222/392/222
f 74/52/74 22/79/22 154/34/154 223/11/223
f 74/193/74 224/129/224 408/101/408 278/98/278
f 74/193/74 235/199/235 387/158/387 224/129/224
f 75/100/75 225/60/225 408/101/408 224/129/224
f 75/100/75 237/102/237 388/56/388 225/60/225
f 76/228/76 24/241/24 280/178/280 426/189/426 428/238/428 427/160/427 278/152/278
f 76/20/76 278/98/278 408/101/408 225/60/225
f 77/497/77 245/470/245 391/483/391 226/504/226
f 78/488/78 243/455/243 390/461/390 227/500/227
f 79/471/79 241/452/241 243/455/243 78/488/78
f 79/126/79 355/70/355 389/64/389 241/93/241
f 80/412/80 274/403/274 419/396/419 229/415/229
f 81/427/81 229/415/229 419/396/419 231/425/231
f 82/429/82 30/413/30 164/431/164 233/442/233
f 82/429/82 231/425/231 419/396/419 421/372/421 285/376/285
f 83/186/83 286/94/286 422/96/422 234/125/234
f 83/51/83 301/86/301 429/159/429 286/151/286
f 84/95/84 234/125/234 422/96/422 236/57/236
f 85/3/85 33/8/33 128/111/128 131/139/131 132/138/132 130/110/130
f 85/3/85 130/110/130 358/112/358 320/28/320
f 85/227/85 286/151/286 429/159/429 431/239/431 430/190/430 284/179/284 33/242/33
f 85/650/85 320/607/320 453/627/453 446/639/446 238/662/238
f 86/81/86 98/271/98 258/245/258 239/114/239
f 87/473/87 88/489/88 243/451/243 241/453/241
f 87/473/87 97/541/97 96/538/96 88/489/88
f 88/489/88 96/538/96 255/549/255 424/525/424 242/501/242
f 89/498/89 242/501/242 424/525/424 244/505/244
f 90/574/90 94/609/94 250/619/250 247/586/247
f 91/593/91 93/625/93 92/652/92
f 92/652/92 249/581/249 91/593/91
f 92/654/92 251/651/251 69/626/69
f 93/625/93 91/593/91 247/586/247 250/619/250
f 93/625/93 251/649/251 92/652/92
f 94/609/94 90/574/90 246/545/246 252/599/252
f 95/567/95 254/563/254 424/525/424 255/549/255
f 96/538/96 97/541/97 259/570/259 257/585/257
f 97/237/97 87/122/87 239/114/239 258/245/258
f 98/271/98 99/322/99 261/325/261 260/284/260
f 99/322/99 100/384/100 263/378/263 261/325/261
f 100/384/100 47/387/47 193/407/193 262/406/262
f 101/435/101 283/479/283 418/492/418 264/478/264
f 102/508/102 264/478/264 418/492/418 266/516/266
f 103/528/103 104/666/104 270/658/270 268/551/268
f 103/528/103 283/479/283 282/481/282 50/529/50
f 104/333/104 51/316/51 287/369/287 285/376/285
f 104/333/104 285/376/285 421/372/421 269/349/269
f 105/358/105 271/361/271 419/396/419 272/374/272
f 106/390/106 272/374/272 419/396/419 274/403/274
f 107/212/107 111/203/111 300/207/300 428/238/428 294/235/294
f 108/196/108 109/123/109 295/145/295 304/174/304
f 108/196/108 306/204/306 435/230/435 305/208/305
f 109/123/109 108/196/108 305/208/305 426/189/426 288/115/288
f 110/107/110 112/177/112 293/168/293 298/130/298
f 110/107/110 308/90/308 437/63/437 302/87/302
f 111/203/111 107/212/107 297/187/297 299/183/299
f 112/177/112 110/107/110 302/87/302 427/160/427 303/195/303
f 112/177/112 309/192/309 438/172/438 293/168/293
f 113/176/113 115/106/115 298/131/298 293/169/293
f 114/202/114 117/213/117 291/236/291 431/239/431 292/206/292
f 114/202/114 310/191/310 438/173/438 299/184/299
f 115/106/115 113/176/113 289/194/289 429/159/429 301/86/301
f 115/106/115 311/89/311 443/121/443 298/131/298
f 116/124/116 118/197/118 304/175/304 295/146/295
f 117/213/117 114/202/114 299/184/299 297/188/297
f 118/197/118 116/124/116 296/116/296 430/190/430 290/209/290
f 118/197/118 313/205/313 441/182/441 304/175/304
f 119/289/119 120/262/120 324/260/324 323/287/323
f 119/289/119 322/291/322 361/266/361 120/262/120
f 119/289/119 326/297/326 454/298/454 322/291/322
f 120/262/120 361/266/361 469/250/469 327/249/327
f 121/149/121 122/66/122 325/69/325 321/150/321
f 121/149/121 328/166/328 444/163/444 360/142/360
f 122/66/122 121/149/121 360/142/360 319/59/319
f 122/66/122 329/54/329 452/55/452 325/69/325
f 123/261/123 124/288/124 323/287/323 324/260/324
f 124/288/124 123/261/123 359/265/359 318/290/318
f 124/288/124 331/295/331 455/294/455 323/287/323
f 125/65/125 126/148/126 321/150/321 325/69/325
f 125/65/125 320/58/320 358/140/358 126/148/126
f 126/148/126 333/165/333 457/167/457 321/150/321
f 126/148/126 358/140/358 449/164/449 333/165/333
f 127/282/127 345/256/345 469/258/469 361/280/361
f 128/111/128 360/113/360 444/153/444 342/156/342
f 129/281/129 359/279/359 467/259/467 339/257/339
f 130/110/130 132/138/132 341/162/341 338/157/338
f 130/110/130 338/157/338 449/154/449 358/112/358
f 135/30/135 171/48/171 367/75/367 357/73/357
f 135/32/135 356/77/356 464/83/464 346/53/346
f 135/32/135 465/72/465 356/77/356
f 136/23/136 349/4/349 459/26/459 240/44/240
f 136/24/136 355/70/355 463/74/463 347/45/347
f 136/24/136 389/64/389 355/70/355
f 137/1/137 350/39/350 351/36/351
f 137/1/137 351/36/351 459/26/459 349/4/349
f 137/2/137 352/37/352 353/38/353
f 138/419/138 362/440/362 161/423/161 1/416/1
f 140/252/140 159/118/159 3/84/3 2/272/2
f 141/381/141 413/401/413 139/410/139 4/395/4
f 142/365/142 381/338/381 380/329/380 143/350/143
f 142/365/142 413/401/413 141/381/141 5/363/5
f 143/350/143 417/373/417 413/401/413 142/365/142
f 144/513/144 409/490/409 277/476/277 7/526/7
f 145/474/145 409/490/409 144/513/144 8/506/8
f 146/405/146 215/404/215 62/433/62 9/434/9
f 147/546/147 411/521/411 158/499/158 26/487/26 13/532/13
f 148/560/148 374/615/374 373/632/373 149/600/149
f 148/560/148 411/521/411 147/546/147 14/564/14
f 149/600/149 152/544/152 157/503/157 411/521/411 148/560/148
f 150/621/150 151/587/151 19/575/19 15/610/15
f 151/587/151 150/621/150 16/628/16 18/594/18
f 152/544/152 149/600/149 15/610/15 19/575/19
f 152/544/152 370/520/370 369/484/369 157/503/157
f 153/430/153 363/454/363 163/445/163 20/436/20
f 153/430/153 413/401/413 417/373/417 281/377/281 21/432/21
f 154/443/154 364/457/364 363/454/363 153/430/153 21/432/21
f 155/104/155 365/78/365 166/41/166 22/43/22
f 156/171/156 366/185/366 168/135/168 23/143/23
f 156/171/156 416/141/416 280/144/280 24/233/24
f 158/499/158 411/521/411 157/503/157 25/496/25
f 159/118/159 140/252/140 12/243/12 27/132/27
f 160/371/160 362/388/362 163/409/163 29/391/29
f 162/394/162 363/420/363 364/441/364 164/431/164 30/413/30
f 163/445/163 362/440/362 138/419/138 20/436/20
f 164/17/164 364/19/364 166/40/166 31/42/31
f 165/103/165 365/76/365 168/133/168 32/136/32
f 166/41/166 364/21/364 154/18/154 22/43/22
f 167/170/167 366/180/366 169/210/169 33/229/33
f 168/135/168 365/78/365 155/104/155 23/143/23
f 169/211/169 366/185/366 156/171/156 24/233/24
f 169/611/169 445/633/445 451/646/451 319/664/319 33/622/33
f 170/119/170 464/83/464 356/77/356 35/147/35
f 171/48/171 461/29/461 353/38/353 3/84/3
f 172/99/172 465/67/465 357/73/357 27/132/27
f 173/495/173 368/458/368 176/468/176 37/493/37
f 175/502/175 369/485/369 370/524/370 177/547/177
f 177/547/177 183/601/183 185/558/185 425/519/425 175/502/175
f 177/547/177 370/524/370 179/557/179 38/577/38
f 178/590/178 371/576/371 180/589/180 39/597/39
f 181/624/181 372/648/372 184/641/184 41/613/41
f 183/601/183 373/635/373 374/614/374 185/558/185
f 185/558/185 374/614/374 187/602/187 42/562/42
f 186/542/186 375/588/375 188/578/188 43/530/43
f 189/255/189 376/278/376 191/286/191 45/276/45
f 193/407/193 377/402/377 196/426/196 48/437/48
f 195/480/195 378/466/378 198/515/198 49/509/49
f 197/517/197 379/539/379 199/556/199 50/529/50
f 200/335/200 380/301/380 381/303/381 202/341/202
f 200/335/200 423/354/423 287/369/287 51/316/51
f 202/341/202 381/303/381 204/306/204 52/334/52
f 202/341/202 407/362/407 423/354/423 200/335/200
f 203/346/203 382/317/382 206/342/206 53/348/53
f 205/355/205 383/351/383 161/368/161 28/366/28
f 207/370/207 384/375/384 232/400/232 72/386/72
f 207/370/207 410/356/410 208/352/208 54/359/54
f 208/352/208 405/347/405 230/360/230 54/359/54
f 208/352/208 410/356/410 210/343/210 57/345/57
f 209/246/209 228/117/228 79/126/79 65/240/65
f 209/246/209 398/275/398 260/283/260 55/270/55
f 210/343/210 404/311/404 275/336/275 57/345/57
f 210/343/210 410/356/410 211/339/211 58/330/58
f 211/339/211 403/300/403 273/302/273 58/330/58
f 211/339/211 410/356/410 415/353/415 212/332/212
f 212/332/212 402/299/402 403/300/403 211/339/211
f 212/332/212 415/353/415 276/367/276 59/315/59
f 213/514/213 401/535/401 268/553/268 60/527/60
f 213/514/213 414/491/414 214/475/214 61/507/61
f 214/475/214 400/465/400 267/512/267 61/507/61
f 214/475/214 414/491/414 279/477/279 62/433/62
f 215/404/215 146/405/146 10/383/10 63/382/63
f 215/404/215 399/398/399 265/422/265 62/433/62
f 216/548/216 397/595/397 257/582/257 66/537/66
f 216/548/216 412/523/412 217/561/217 67/566/67
f 217/561/217 396/616/396 256/605/256 67/566/67
f 217/561/217 412/523/412 226/504/226 221/543/221 218/598/218
f 218/598/218 221/543/221 71/573/71 68/608/68
f 218/598/218 395/630/395 396/616/396 217/561/217
f 219/618/219 220/583/220 70/591/70 69/626/69
f 219/618/219 394/644/394 253/638/253 68/608/68
f 220/583/220 219/618/219 68/608/68 71/573/71
f 220/583/220 393/569/393 249/580/249 70/591/70
f 221/543/221 392/518/392 248/550/248 71/573/71
f 222/392/222 385/417/385 386/439/386 223/428/223 73/411/73
f 223/234/223 386/232/386 235/199/235 74/193/74
f 224/129/224 387/158/387 237/102/237 75/100/75
f 225/60/225 388/56/388 238/25/238 76/20/76
f 226/504/226 391/483/391 392/518/392 221/543/221
f 226/504/226 412/523/412 227/500/227 77/497/77
f 227/500/227 390/461/390 245/470/245 77/497/77
f 227/500/227 412/523/412 216/548/216 66/537/66 78/488/78
f 228/117/228 209/246/209 55/270/55 56/82/56
f 228/117/228 463/74/463 355/70/355 79/126/79
f 229/415/229 384/438/384 230/418/230 80/412/80
f 230/418/230 405/408/405 274/403/274 80/412/80
f 231/425/231 385/447/385 232/444/232 81/427/81
f 232/444/232 384/438/384 229/415/229 81/427/81
f 233/442/233 386/456/386 385/447/385 231/425/231 82/429/82
f 234/125/234 387/155/387 235/198/235 83/186/83
f 235/198/235 386/225/386 233/226/233 83/186/83
f 236/57/236 388/46/388 237/97/237 84/95/84
f 236/57/236 422/96/422 286/94/286 85/16/85
f 237/97/237 387/155/387 234/125/234 84/95/84
f 238/22/238 388/46/388 236/57/236 85/16/85
f 238/656/238 446/636/446 450/617/450 318/603/318 76/643/76
f 239/114/239 462/71/462 240/44/240 86/81/86
f 240/44/240 459/26/459 351/36/351 86/81/86
f 240/44/240 462/71/462 354/68/354 136/23/136
f 241/88/241 389/61/389 354/68/354 87/122/87
f 242/501/242 390/459/390 243/451/243 88/489/88
f 244/505/244 391/486/391 245/472/245 89/498/89
f 244/505/244 424/525/424 254/563/254 252/599/252 246/545/246
f 245/472/245 390/459/390 242/501/242 89/498/89
f 246/545/246 392/522/392 391/486/391 244/505/244
f 247/586/247 393/571/393 248/555/248 90/574/90
f 248/555/248 392/522/392 246/545/246 90/574/90
f 249/581/249 393/571/393 247/586/247 91/593/91
f 250/619/250 394/642/394 251/649/251 93/625/93
f 252/599/252 395/631/395 253/637/253 94/609/94
f 253/637/253 394/642/394 250/619/250 94/609/94
f 254/563/254 396/620/396 395/631/395 252/599/252
f 255/549/255 397/596/397 256/606/256 95/567/95
f 256/606/256 396/620/396 254/563/254 95/567/95
f 257/585/257 397/596/397 255/549/255 96/538/96
f 258/245/258 398/274/398 259/263/259 97/237/97
f 260/284/260 398/274/398 258/245/258 98/271/98
f 262/406/262 399/397/399 263/378/263 100/384/100
f 264/478/264 400/463/400 265/421/265 101/435/101
f 265/421/265 399/397/399 262/406/262 101/435/101
f 266/516/266 401/533/401 267/510/267 102/508/102
f 266/516/266 418/492/418 283/479/283 103/528/103
f 267/510/267 400/463/400 264/478/264 102/508/102
f 268/551/268 401/533/401 266/516/266 103/528/103
f 269/349/269 402/324/402 270/307/270 104/333/104
f 269/349/269 421/372/421 419/396/419 271/361/271
f 271/361/271 403/331/403 402/324/402 269/349/269
f 272/374/272 404/357/404 273/340/273 105/358/105
f 273/340/273 403/331/403 271/361/271 105/358/105
f 274/403/274 405/408/405 275/389/275 106/390/106
f 275/389/275 404/357/404 272/374/272 106/390/106
f 276/367/276 281/377/281 6/337/6 59/315/59
f 277/476/277 279/477/279 60/527/60 7/526/7
f 278/152/278 427/160/427 302/87/302 74/52/74
f 279/477/279 414/491/414 213/514/213 60/527/60
f 281/377/281 417/373/417 143/350/143 6/337/6
f 282/481/282 283/479/283 101/435/101 48/437/48
f 284/179/284 430/190/430 296/116/296 31/80/31
f 285/376/285 287/369/287 30/413/30 82/429/82
f 288/115/288 432/91/432 307/108/307 109/123/109
f 289/194/289 434/200/434 292/206/292
f 290/209/290 430/190/430 431/239/431 291/236/291
f 290/209/290 433/231/433 313/205/313 118/197/118
f 291/236/291 433/231/433 290/209/290
f 292/206/292 431/239/431 429/159/429 289/194/289
f 292/206/292 434/200/434 310/191/310 114/202/114
f 293/169/293 438/173/438 310/191/310 113/176/113
f 294/235/294 428/238/428 426/189/426 305/208/305
f 294/235/294 435/230/435 306/204/306 107/212/107
f 295/146/295 442/128/442 312/109/312 116/124/116
f 296/116/296 436/92/436 439/62/439 301/86/301 83/51/83 31/80/31
f 297/188/297 441/182/441 313/205/313 117/213/117
f 298/130/298 443/120/443 308/90/308 110/107/110
f 299/183/299 438/172/438 309/192/309 111/203/111
f 300/207/300 440/201/440 303/195/303
f 301/86/301 439/62/439 311/89/311 115/106/115
f 302/87/302 437/63/437 432/91/432 288/115/288 22/79/22 74/52/74
f 303/195/303 427/160/427 428/238/428 300/207/300
f 303/195/303 440/201/440 309/192/309 112/177/112
f 304/174/304 441/181/441 306/204/306 108/196/108
f 305/208/305 435/230/435 294/235/294
f 306/204/306 441/181/441 297/187/297 107/212/107
f 307/108/307 432/91/432 437/63/437 308/90/308
f 307/108/307 442/127/442 295/145/295 109/123/109
f 308/90/308 443/120/443 442/127/442 307/108/307
f 309/192/309 440/201/440 300/207/300 111/203/111
f 310/191/310 434/200/434 289/194/289 113/176/113
f 311/89/311 439/62/439 436/92/436 312/109/312
f 312/109/312 436/92/436 296/116/296 116/124/116
f 312/109/312 442/128/442 443/121/443 311/89/311
f 313/205/313 433/231/433 291/236/291 117/213/117
f 314/312/314 445/314/445 454/298/454 326/297/326
f 314/14/314 447/15/447 452/55/452 329/54/329
f 315/215/315 448/216/448 456/247/456 327/249/327
f 315/215/315 468/214/468 444/163/444 328/166/328
f 316/217/316 448/216/448 457/167/457 333/165/333
f 316/217/316 466/219/466 467/251/467 330/248/330
f 317/13/317 446/9/446 453/47/453 332/49/332
f 317/310/317 447/309/447 455/294/455 331/295/331
f 318/304/318 359/279/359 129/281/129 76/318/76
f 318/290/318 450/296/450 331/295/331 124/288/124
f 319/33/319 360/113/360 128/111/128 33/8/33
f 319/59/319 451/50/451 329/54/329 122/66/122
f 321/150/321 457/167/457 328/166/328 121/149/121
f 323/287/323 455/294/455 326/297/326 119/289/119
f 324/260/324 456/247/456 330/248/330 123/261/123
f 325/69/325 452/55/452 332/49/332 125/65/125
f 326/297/326 455/294/455 447/309/447 314/312/314
f 327/249/327 456/247/456 324/260/324 120/262/120
f 327/249/327 469/250/469 468/214/468 315/215/315
f 328/166/328 457/167/457 448/216/448 315/215/315
f 329/54/329 451/50/451 445/12/445 314/14/314
f 330/248/330 456/247/456 448/216/448 316/217/316
f 330/248/330 467/251/467 359/265/359 123/261/123
f 331/295/331 450/296/450 446/313/446 317/310/317
f 332/49/332 452/55/452 447/15/447 317/13/317
f 332/49/332 453/47/453 320/58/320 125/65/125
f 333/165/333 449/164/449 466/219/466 316/217/316
f 334/220/334 468/218/468 469/258/469 345/256/345
f 335/221/335 334/220/334 345/256/345 344/253/344
f 336/223/336 466/224/466 449/154/449 338/157/338
f 338/157/338 341/162/341 337/222/337 336/223/336
f 339/257/339 343/254/343 133/267/133 129/281/129
f 339/257/339 467/259/467 466/224/466 336/223/336
f 340/161/340 341/162/341 132/138/132 131/139/131
f 340/161/340 342/156/342 334/220/334 335/221/335
f 341/162/341 340/161/340 335/221/335 337/222/337
f 342/156/342 340/161/340 131/139/131 128/111/128
f 342/156/342 444/153/444 468/218/468 334/220/334
f 343/254/343 339/257/339 336/223/336 337/222/337
f 343/254/343 344/253/344 134/268/134 133/267/133
f 344/253/344 343/254/343 337/222/337 335/221/335
f 344/253/344 345/256/345 127/282/127 134/268/134
f 346/53/346 458/31/458 348/7/348 135/32/135
f 347/45/347 460/27/460 349/5/349 136/24/136
f 348/7/348 458/31/458 350/39/350 137/1/137
f 348/6/348 461/29/461 171/48/171 135/30/135
f 349/5/349 460/27/460 352/37/352 137/2/137
f 350/39/350 458/31/458 346/53/346 34/85/34
f 352/37/352 460/27/460 347/45/347 56/82/56
f 353/38/353 461/29/461 348/6/348 137/2/137
f 354/68/354 389/61/389 136/23/136
f 354/68/354 462/71/462 239/114/239 87/122/87
f 357/73/357 465/67/465 135/30/135
