# Exported from Wings 3D 1.0.2
mtllib Barell.mtl
o Barell
#432 vertices, 413 faces
v 1.00048163 1.68136606 -1.0153440e-2
v 0.92109367 1.68392766 0.37699583
v 0.70657057 1.68361725 0.70961045
v 0.38422004 1.70217322 0.92557430
v 1.1053633e-3 1.68936315 1.00100105
v -0.38449151 1.68795480 0.92318836
v -0.70901996 1.69150147 0.70523649
v -0.91967903 1.69014160 0.37559349
v -1.00593426 1.69351889 -1.3423878e-3
v -0.92637004 1.69138131 -0.39294527
v -0.71211907 1.68661326 -0.70794752
v -0.38225823 1.68795202 -0.92950067
v -3.2135636e-3 1.68021742 -1.00092097
v 0.37605175 1.68571399 -0.92850031
v 0.70690427 1.68618181 -0.70856137
v 0.92208493 1.69045089 -0.38425210
v 0.99774324 -1.63679347 3.6817585e-5
v 0.97757845 -1.64605915 0.19445881
v 0.92243307 -1.64199958 0.37778968
v 0.69843492 -1.63798501 0.70007215
v 0.37970085 -1.64084889 0.91241139
v 0.19212269 -1.64360585 0.98230040
v -1.1038032e-2 -1.64038938 0.99846505
v -0.38610779 -1.65027984 0.92669562
v -0.70941992 -1.64390201 0.69893543
v -0.93194928 -1.63760891 0.37317087
v -1.00122660 -1.64501917 -4.3339617e-3
v -0.92532934 -1.64728382 -0.37939613
v -0.71259431 -1.64065306 -0.70425105
v -0.38429426 -1.64358753 -0.92281364
v -3.6163852e-4 -1.64209014 -0.99555824
v 0.38180171 -1.63515202 -0.92481494
v 0.69858453 -1.63843819 -0.71212630
v 0.92481330 -1.63922185 -0.38725674
v 0.95168212 -1.68814768 -8.7157753e-3
v 0.93031456 -1.69054255 0.18405579
v 0.87433835 -1.69386539 0.35630225
v 0.36682793 -1.68744891 0.87121991
v 0.18723857 -1.69503665 0.92969179
v -3.2662354e-3 -1.69442897 0.94199600
v -0.36541474 -1.69202861 0.88272583
v -0.67383359 -1.69536077 0.66644184
v -0.78513166 -1.69764943 0.52919833
v -0.88019812 -1.68457460 0.36119630
v -0.95281760 -1.68793494 -3.7687223e-3
v -0.88093251 -1.68337858 -0.36752957
v -0.67224714 -1.69181820 -0.67093047
v -0.36504519 -1.69269797 -0.88120294
v 2.8315469e-3 -1.68686843 -0.95338840
v 0.35973871 -1.68853659 -0.88153909
v 0.66130678 -1.68788639 -0.67344645
v 0.87990231 -1.69184820 -0.36877348
v 0.93027195 -1.69544817 -0.18556908
v 1.03154950 1.45096610 4.0057741e-3
v 1.04547803 1.39810198 -4.0585386e-3
v 0.96449430 1.45508733 0.39758662
v 0.95500917 1.40478144 0.40048227
v 0.73623572 1.44748406 0.73115923
v 0.73079040 1.39619225 0.73472816
v 0.39322626 1.45148503 0.95840074
v 0.40342200 1.39341187 0.95621951
v 2.1910397e-3 1.45352736 1.03901812
v -6.1654851e-3 1.39835243 1.04220985
v -0.39785270 1.45377302 0.96842464
v -0.39798081 1.39760453 0.96597358
v -0.74130876 1.45115030 0.73218997
v -0.74018872 1.39424680 0.73747938
v -0.96777572 1.44601123 0.40299775
v -0.95758591 1.39797790 0.39882698
v -1.04751497 1.44751574 -6.1650138e-4
v -1.04624126 1.40166367 -4.0001325e-3
v -0.96394378 1.45065037 -0.40894864
v -0.96461349 1.40021842 -0.39906734
v -0.73784355 1.44730045 -0.74216951
v -0.74065012 1.38877665 -0.74140738
v -0.39451373 1.44805274 -0.96823640
v -0.39840092 1.40272898 -0.96659201
v -6.6446342e-3 1.45637977 -1.04393188
v -8.0057591e-3 1.39967775 -1.04208031
v 0.39498065 1.44974123 -0.95720115
v 0.38890517 1.38996841 -0.96335531
v 0.74403813 1.44957342 -0.73533974
v 0.72476539 1.39714032 -0.74329870
v 0.96762758 1.44691555 -0.40236310
v 0.95499786 1.39928351 -0.39506475
v 1.04141204 1.09180556 -7.2118920e-3
v 1.03615633 1.03105671 -6.7576311e-3
v 0.95970829 1.09090229 0.39491709
v 0.96158744 1.02080386 0.39785620
v 0.73023310 1.09965423 0.72966875
v 0.74441107 1.02654537 0.73193712
v 0.39212855 1.09088234 0.96976339
v 0.39894320 1.01574198 0.96674410
v -2.3368318e-3 1.09616931 1.04391361
v 3.9997462e-3 1.02380470 1.03774500
v -0.39738990 1.09259862 0.95960222
v -0.39927636 1.01707201 0.96255132
v -0.73805116 1.09205341 0.72742877
v -0.74138562 1.02283494 0.73699337
v -0.96216785 1.09795849 0.39471125
v -0.95905195 1.02354405 0.39813780
v -1.04639225 1.09711956 -3.1420274e-3
v -1.04352648 1.02426188 -2.6200019e-3
v -0.96852499 1.09794988 -0.40533228
v -0.96284690 1.02057236 -0.39305366
v -0.73185475 1.09722312 -0.73937319
v -0.73480842 1.02112865 -0.74187705
v -0.40487974 1.09613507 -0.96501434
v -0.40325220 1.02395974 -0.96286096
v -4.0522844e-3 1.09591800 -1.03907111
v -5.4891584e-4 1.01958379 -1.04639921
v 0.39888661 1.09437863 -0.96528178
v 0.39455271 1.03249465 -0.96377446
v 0.73555884 1.09218419 -0.73140548
v 0.73249798 1.02333743 -0.73946690
v 0.96391207 1.09761649 -0.39969655
v 0.96364982 1.02761928 -0.40563183
v 0.96781064 1.67816126 -1.1777726e-3
v 0.89915833 1.68637063 0.36213298
v 0.68326083 1.67581120 0.68795137
v 0.36815159 1.67677260 0.89697840
v -7.4162735e-3 1.67993980 0.97228015
v -0.37098713 1.67746406 0.90137630
v -0.69351298 1.67912915 0.68793592
v -0.90719640 1.67984440 0.36903172
v -0.97029136 1.67636310 -4.4164540e-3
v -0.89509403 1.67883165 -0.37499276
v -0.68525398 1.67871376 -0.69187917
v -0.37668243 1.67533067 -0.89655869
v 3.3739369e-3 1.67643412 -0.97971102
v 0.36647749 1.68209525 -0.90547792
v 0.68366765 1.68144529 -0.68859504
v 0.89528991 1.67891448 -0.37454495
v 0.96734665 -1.58958261 8.2224387e-3
v 0.94913284 -1.58948012 0.18612682
v 0.90178370 -1.60410118 0.36800969
v 0.80189679 -1.59247451 0.54009622
v 0.68590391 -1.58681242 0.68820922
v 0.37027623 -1.59798405 0.89804054
v 0.18653251 -1.59644606 0.95686194
v -6.2671993e-3 -1.59066943 0.96493864
v -0.37060376 -1.58888098 0.90119822
v -0.53769685 -1.59783431 0.81172120
v -0.69348803 -1.60042717 0.68876972
v -0.81032961 -1.58978356 0.53346329
v -0.89660602 -1.59584393 0.37342334
v -0.97221231 -1.59333131 7.0701745e-4
v -0.90442365 -1.59052072 -0.37786247
v -0.69238073 -1.58877951 -0.68436533
v -0.54148528 -1.59129506 -0.80365897
v -0.37685765 -1.59255022 -0.90104181
v -0.19300991 -1.58834513 -0.95113839
v -9.2978782e-3 -1.59847061 -0.97665395
v 0.18210640 -1.58589962 -0.94396714
v 0.37450186 -1.59515044 -0.90835418
v 0.53704152 -1.58478343 -0.80742235
v 0.68857102 -1.59229395 -0.69037649
v 0.80698341 -1.59127533 -0.54069469
v 0.89738912 -1.58868790 -0.37320051
v 0.96663929 1.45921126 -2.2203077e-3
v 0.97437939 1.35356521 -5.2762300e-3
v 0.89458523 1.46818199 0.37844064
v 0.88911619 1.35086126 0.36353696
v 0.68467698 1.45590580 0.68304613
v 0.68413334 1.35043205 0.68609249
v 0.37237782 1.45759448 0.89482558
v 0.37022001 1.35220751 0.89956105
v -2.7372502e-3 1.46475831 0.97279768
v 2.7017698e-4 1.34895222 0.97525359
v -0.36725650 1.46938728 0.89305520
v -0.37459696 1.35375745 0.89175336
v -0.68538832 1.46227271 0.68758527
v -0.68435254 1.35404381 0.68261042
v -0.90097740 1.46186479 0.36959271
v -0.89641365 1.35302776 0.37090437
v -0.96369191 1.46106428 8.2950967e-4
v -0.97212038 1.34723078 1.4507584e-3
v -0.90190954 1.46996649 -0.36629218
v -0.90449369 1.34943851 -0.37727368
v -0.68878983 1.46394956 -0.68327927
v -0.69193936 1.35805790 -0.68173326
v -0.37649141 1.46390522 -0.89828404
v -0.37878615 1.35804062 -0.89716334
v -1.6457613e-3 1.46812737 -0.98224511
v 6.3428947e-3 1.35426629 -0.97239087
v 0.36682101 1.46190827 -0.90089391
v 0.37057067 1.35872169 -0.90042345
v 0.68555731 1.46624305 -0.68364824
v 0.68194220 1.35297852 -0.69024981
v 0.89633824 1.45631871 -0.37792779
v 0.90524915 1.35189645 -0.37843192
v 0.97543943 1.15611046 8.5939341e-3
v 0.96697217 0.98535070 2.6693653e-3
v 0.94615971 0.97425835 0.18759608
v 0.89758623 1.15870930 0.37892386
v 0.89660399 0.97554433 0.37080191
v 0.81377885 0.98376227 0.53985240
v 0.68938399 1.15660682 0.69059338
v 0.68480173 0.98278142 0.68491262
v 0.37071072 1.15681397 0.89928864
v 0.36895765 0.97958079 0.89793649
v 0.18775049 0.97965775 0.94455404
v -3.3527948e-3 1.15419224 0.96766244
v 2.7018310e-3 0.98388805 0.97311544
v -0.36580295 1.15479972 0.89470314
v -0.38526063 0.98468322 0.89769341
v -0.68802344 1.15828878 0.68996744
v -0.69620075 0.98079731 0.68461005
v -0.90060242 1.15531746 0.37092307
v -0.89591166 0.98306703 0.36771560
v -0.97371235 1.15640450 -8.1140250e-3
v -0.97002943 0.98111904 1.7161255e-3
v -0.90188413 1.15178715 -0.37977193
v -0.90355683 0.98216324 -0.37983233
v -0.69528906 1.15934562 -0.69047144
v -0.67632226 0.97849801 -0.68096490
v -0.37817334 1.16044665 -0.89313198
v -0.36616140 0.97745207 -0.90868335
v -1.3928667e-3 1.15484211 -0.97078411
v -4.6676126e-3 0.98450252 -0.97585305
v 0.36056791 1.15898754 -0.89944434
v 0.36777066 0.98167540 -0.90381213
v 0.68998100 1.15336761 -0.68664634
v 0.68447595 0.97233492 -0.69443904
v 0.89315450 1.16083825 -0.37269433
v 0.89455140 0.97013028 -0.37308875
v 1.00917580 1.42307167 2.4826988e-3
v 0.93940159 1.42116660 0.38500202
v 0.71720383 1.41810155 0.71741151
v 0.38922129 1.41891881 0.93532681
v 6.1419322e-3 1.43027073 1.01005314
v -0.39119329 1.41884307 0.94326625
v -0.72403366 1.42178162 0.71837867
v -0.94222019 1.42347201 0.38319253
v -1.01978496 1.42497934 -3.1418042e-3
v -0.94092512 1.42253304 -0.39170061
v -0.72287277 1.42868248 -0.72569669
v -0.39065236 1.42610749 -0.94102728
v -3.2600305e-3 1.42601261 -1.01334957
v 0.38377901 1.42692721 -0.93877904
v 0.72133089 1.42794220 -0.71394739
v 0.93244296 1.42530840 -0.39391771
v 1.01076661 1.04159363 -5.6675476e-4
v 0.93390819 1.03935390 0.38729841
v 0.72020930 1.03140274 0.71690077
v 0.38450646 1.03189762 0.93333477
v 4.8257418e-3 1.04068916 1.01367625
v -0.39010810 1.04262881 0.93904323
v -0.71687110 1.03391725 0.71591439
v -0.93384942 1.02713508 0.38797977
v -1.01269997 1.03272492 -1.6838141e-3
v -0.93403188 1.03778168 -0.38426141
v -0.71671987 1.03536513 -0.72110855
v -0.39544794 1.03867400 -0.93641997
v -4.9280390e-3 1.03482968 -1.02483286
v 0.38689837 1.04237078 -0.94486585
v 0.71184869 1.04452986 -0.71708580
v 0.93613596 1.03692607 -0.38833306
v 0.99692407 1.50713013 -2.3816285e-3
v 1.00520315 1.32251900 4.2972212e-3
v 0.92032833 1.50967559 0.37109856
v 0.92614590 1.32976321 0.38212917
v 0.70276921 1.50734458 0.70087737
v 0.71248841 1.32386376 0.70442188
v 0.38016281 1.50433964 0.92109028
v 0.38091122 1.32452135 0.92438924
v -4.7027522e-4 1.50969139 0.99166362
v -4.5080611e-3 1.32598999 0.99802881
v -0.38003829 1.51615102 0.91892386
v -0.38185625 1.32206226 0.92383179
v -0.71171118 1.50985592 0.70478076
v -0.70596498 1.33019457 0.70835285
v -0.92574634 1.50707956 0.38448395
v -0.92718676 1.32158916 0.38017348
v -1.00554033 1.50787069 -7.6851224e-3
v -0.99554397 1.32260100 3.9601150e-3
v -0.92615630 1.51309456 -0.39227284
v -0.92873666 1.31808372 -0.38182369
v -0.70746730 1.51427184 -0.70297403
v -0.71074700 1.32065181 -0.70889744
v -0.38269066 1.50912938 -0.92841175
v -0.38362754 1.32007644 -0.92571200
v -1.2210063e-3 1.50974469 -1.00555134
v -4.3710749e-3 1.32804007 -1.00385234
v 0.37779415 1.50192824 -0.93324882
v 0.38416747 1.33191603 -0.92656396
v 0.70759403 1.51389083 -0.71477282
v 0.70520217 1.31770898 -0.71111392
v 0.92002903 1.50922649 -0.38453076
v 0.92033280 1.32903838 -0.38580205
v 0.99844726 1.18930916 5.5730710e-3
v 0.99238259 0.94562569 -3.7736152e-3
v 0.97748749 0.93981567 0.19615852
v 0.93054028 1.18640207 0.38591142
v 0.92769247 0.94834275 0.38126570
v 0.82826829 0.93999164 0.55336391
v 0.70776563 1.18145827 0.70172056
v 0.70002836 0.94109533 0.70605804
v 0.55566871 0.94126794 0.83758546
v 0.37822408 1.18982723 0.92587277
v 0.38508982 0.93874528 0.92312427
v 0.18865954 0.95023822 0.98296167
v -1.2525831e-4 1.19192881 1.00398474
v 8.5935755e-4 0.94887291 0.99745465
v -0.37709045 1.18468973 0.92355122
v -0.38043558 0.93915915 0.91904096
v -0.70672715 1.17970378 0.70502330
v -0.71160737 0.93653477 0.71377537
v -0.92765856 1.18970379 0.38107843
v -0.93224554 0.94556887 0.37740597
v -1.00398816 1.18487975 -1.2071887e-3
v -0.99523946 0.95318708 1.7193350e-3
v -0.92660100 1.18698397 -0.38055561
v -0.92961855 0.94193326 -0.38060136
v -0.70814897 1.19192824 -0.70604819
v -0.70562726 0.94952303 -0.70558656
v -0.38249269 1.18487926 -0.92629897
v -0.38378263 0.94651274 -0.92545782
v -2.5290457e-3 1.19565672 -1.00913334
v -2.0426256e-3 0.94862123 -1.00801495
v 0.38694215 1.19133787 -0.92219100
v 0.36916707 0.94381103 -0.92665668
v 0.70700511 1.19763783 -0.70992841
v 0.69978632 0.95263596 -0.71322691
v 0.92403772 1.19006869 -0.37628024
v 0.92079937 0.94433472 -0.38287014
v 0.81915608 -2.7034303e-2 0.32191438
v 0.61753539 0.38640547 0.63124171
v 0.30108233 5.0989256e-2 0.80460087
v 0.85476196 -3.5352407e-2 0.33367636
v 0.62657855 0.36665183 0.65900100
v 0.34950028 1.5673117e-2 0.85036698
v 0.93527287 -0.16578944 0.23656688
v 0.78610357 -0.71263972 0.52689557
v 0.19625066 -0.17731640 0.93546728
v 0.96803133 -0.20287809 0.21559139
v 0.91201949 0.26641777 0.39316068
v 0.69831664 0.48788117 0.69422373
v 0.37757381 0.27153734 0.91330412
v 0.22091944 -0.21446592 0.95457023
v 0.87966172 0.27307913 0.36873097
v 0.67049931 0.48101023 0.66277289
v 0.37086245 0.30496006 0.89518355
v 0.82465081 -0.15959719 0.30531614
v 0.32895187 -6.6752123e-2 0.85533837
v 0.87047840 -0.16318400 0.29664857
v 0.32128291 -7.6135178e-2 0.85760644
v 0.41122942 0.16038412 0.79615469
v 0.39179201 -0.39943748 0.82620200
v 0.56663645 0.38526200 0.70077353
v 0.54394324 -0.45448776 0.71391958
v 0.69829806 0.20823445 0.57149987
v 0.68843922 -0.38124416 0.57087145
v 0.81761382 -3.2213166e-3 0.40807895
v 0.81448426 -0.39351623 0.38613448
v 0.39486685 -0.37625316 0.80572403
v 0.40432498 0.20242032 0.80326328
v 0.54808180 -0.41063293 0.69432640
v 0.55125808 0.40918910 0.71305178
v 0.68874318 -0.38255581 0.53958418
v 0.68780571 0.23556327 0.56584681
v 0.79419307 -0.36665600 0.40043906
v 0.78131563 1.4133714e-2 0.39759451
v 0.83380580 -6.3735492e-2 0.31309259
v 0.61369298 0.34907631 0.61254386
v 0.31787408 2.3252948e-2 0.83595682
v 0.46465862 0.40529040 0.90406088
v 0.62646708 0.47407009 0.76884577
v 0.76993122 0.41303328 0.61501882
v 0.84695101 0.34233759 0.47196566
v 0.28917052 -0.39744691 0.89728693
v 0.44231240 -0.68777539 0.86138031
v 0.61355745 -0.70485107 0.73840055
v 0.74283413 -0.67487141 0.61042160
v 0.84816047 -0.71330847 0.45530596
v 0.91651077 -0.42255968 0.27780984
v 0.47797810 -0.71706157 0.84955776
v 0.60967141 -0.75639586 0.76071071
v 0.77838748 -0.73077135 0.60624038
v 0.86560545 -0.72865465 0.47001798
v 0.44989007 0.43002657 0.84015266
v 0.61312854 0.52269228 0.72862075
v 0.72322620 0.43287496 0.61185772
v 0.85125191 0.37990031 0.44009956
v 0.94002327 -0.46978429 0.27937792
v 0.30272331 -0.42922917 0.93901819
v 0.82557555 -0.12761982 0.30598795
v 0.78345291 -3.8366982e-2 0.40049642
v 0.68935533 0.16696379 0.57097332
v 0.53910693 0.38262339 0.70903036
v 0.38474045 0.13450972 0.78239602
v 0.29143739 -8.1143606e-2 0.82619888
v 0.39467271 -0.32554319 0.81866023
v 0.53149483 -0.37674572 0.69931775
v 0.68218432 -0.33458996 0.55980856
v 0.80901922 -0.33116500 0.40168291
v 0.97614000 -0.72371775 -7.7384087e-20
v 0.90183577 -0.98928344 0.37355261
v 0.69023521 -0.78648393 0.69023521
v 0.37355261 -1.00098109 0.90183577
v 5.8652008e-17 -0.85506730 0.97614000
v -0.37355261 -1.16692539 0.90183577
v -0.69023521 -0.77941993 0.69023521
v -0.90183577 -0.83141584 0.37355261
v -0.97614000 -0.88903628 1.1946529e-16
v -0.90183577 -1.27967401 -0.37355261
v -0.69023521 -0.97320648 -0.69023521
v -0.37355261 -1.05698825 -0.90183577
v -1.8043334e-16 -0.65053198 -0.97614000
v 0.37355261 -1.05415673 -0.90183577
v 0.69023521 -0.92177678 -0.69023521
v 0.90183577 -1.23531082 -0.37355261
v 0.76076873 -0.75810819 0.33563927
v 0.83130225 -1.19081608 -1.8956666e-2
v -0.83130225 -0.79495047 1.8956666e-2
v -0.76076873 -0.75195052 -0.33563927
v 0.43688913 -0.83841362 0.58342157
v 0.50022565 -0.67356091 0.26500737
v 0.56356217 -0.92040037 -5.3406821e-2
v 0.62689869 -0.99425117 -0.37182102
v -0.62689869 -1.07345207 0.37182102
v -0.56356217 -0.87430316 5.3406821e-2
v -0.50022565 -0.91455779 -0.26500737
v -0.43688913 -0.69472145 -0.58342157
v 7.4710521e-2 -0.88941341 0.60054485
v 0.14942104 -0.94568198 0.22494969
v 0.22413156 -0.91720754 -0.15064546
v 0.29884208 -0.96403383 -0.52624061
v -0.29884208 -0.94537781 0.52624061
v -0.22413156 -0.94611964 0.15064546
v -0.14942104 -0.94100561 -0.22494969
v -7.4710521e-2 -0.72106278 -0.60054485
vt 3.0298701e-3 0.57573772
vt 5.9376177e-3 0.40426792
vt 7.5712750e-3 0.84236164
vt 7.8315128e-3 0.83612400
vt 8.3456807e-3 0.84805648
vt 8.6983309e-3 0.86255169
vt 8.8343287e-3 0.90880677
vt 9.1596914e-3 0.82172420
vt 9.9255169e-3 0.89889689
vt 1.0225918e-2 0.90761279
vt 1.0431234e-2 0.92097660
vt 1.0535963e-2 0.83101495
vt 1.0614215e-2 0.40701086
vt 1.0774915e-2 0.88524770
vt 1.0787119e-2 0.86378478
vt 1.0963183e-2 0.89515857
vt 1.1014198e-2 0.95492177
vt 1.1914979e-2 0.92011675
vt 1.2043930e-2 0.94671977
vt 3.6685248e-2 0.40261360
vt 6.4661606e-2 0.40741479
vt 6.8884467e-2 0.40202425
vt 6.9627787e-2 0.89778839
vt 6.9802921e-2 0.88481978
vt 6.9899039e-2 0.84768141
vt 6.9961195e-2 0.82358852
vt 7.0309998e-2 0.86366886
vt 7.0317796e-2 0.86186004
vt 7.0443999e-2 0.40891145
vt 7.0477111e-2 0.84060945
vt 7.0795611e-2 0.91731847
vt 7.0807565e-2 0.83659798
vt 7.0949751e-2 0.90608610
vt 7.1055111e-2 0.91822541
vt 7.1148816e-2 0.89432842
vt 7.1555101e-2 0.94531047
vt 7.1639074e-2 0.83009955
vt 7.1758363e-2 0.90810748
vt 7.2629296e-2 0.95369557
vt 9.2944956e-2 0.26212480
vt 9.9253696e-2 0.82417223
vt 0.10043517 0.40363875
vt 0.10236372 0.40856070
vt 0.10643054 0.63759765
vt 0.11967467 0.60316171
vt 0.12664304 0.40501040
vt 0.12884579 0.65942245
vt 0.12925094 0.84668770
vt 0.12978041 0.86350346
vt 0.12983232 0.90563460
vt 0.12994636 0.40251276
vt 0.13009335 0.88474490
vt 0.13016561 0.91575157
vt 0.13040455 0.83530572
vt 0.13042731 0.94657806
vt 0.13096114 0.82210856
vt 0.13120365 0.71574467
vt 0.13134318 0.89682902
vt 0.13156470 0.83995452
vt 0.13210314 0.89405902
vt 0.13214745 0.86142913
vt 0.13223905 0.83014345
vt 0.13290596 0.91699623
vt 0.13297249 0.67384899
vt 0.13322269 0.90771525
vt 0.13348632 0.40905771
vt 0.13373396 0.95272582
vt 0.13489091 0.65978874
vt 0.13714590 0.67157171
vt 0.14110252 0.11599796
vt 0.14211046 0.60937258
vt 0.14417036 0.73741364
vt 0.14422079 0.62066314
vt 0.14852801 0.69475006
vt 0.14867449 0.68866723
vt 0.15064447 0.64107972
vt 0.15085337 0.55694462
vt 0.15736381 0.51504657
vt 0.16050145 0.82318673
vt 0.17251550 0.61343106
vt 0.17258335 0.60042605
vt 0.17578917 0.55042370
vt 0.17663281 0.74861324
vt 0.17811741 0.72475646
vt 0.17829669 0.72840978
vt 0.18839601 0.72195656
vt 0.18887480 0.72838789
vt 0.18910872 0.94451507
vt 0.18984055 0.89761461
vt 0.19018096 0.91691537
vt 0.19063839 0.82300613
vt 0.19068429 0.90541372
vt 0.19085235 0.84896782
vt 0.19124193 0.88530434
vt 0.19124837 0.86282192
vt 0.19168369 0.40271347
vt 0.19223442 0.83769802
vt 0.19253423 0.82971110
vt 0.19270987 0.89219564
vt 0.19275066 0.75084285
vt 0.19296023 0.91692479
vt 0.19296280 0.40947575
vt 0.19309706 0.84033684
vt 0.19356216 0.90649685
vt 0.19404559 0.95196322
vt 0.19414539 0.86106244
vt 0.19500732 0.76346142
vt 0.20554047 0.61213385
vt 0.20614649 0.62012279
vt 0.20741753 0.69903287
vt 0.20774187 0.70559587
vt 0.20950008 0.73976572
vt 0.21153587 0.55445934
vt 0.22143160 0.82376243
vt 0.23443253 0.72847020
vt 0.23487793 0.25335091
vt 0.23543038 0.39657860
vt 0.23680832 0.66583311
vt 0.23687119 0.55526520
vt 0.23913061 0.62097252
vt 0.23991933 0.67272555
vt 0.24134803 0.61092170
vt 0.24934146 0.94638914
vt 0.24956170 0.89974220
vt 0.25022291 0.90746880
vt 0.25050645 0.71662352
vt 0.25074621 0.88706969
vt 0.25098031 0.86434914
vt 0.25102513 0.91893686
vt 0.25126415 0.66080457
vt 0.25148086 0.23904798
vt 0.25159896 0.83790576
vt 0.25168793 0.84871311
vt 0.25222732 0.82552410
vt 0.25250385 0.66674673
vt 0.25256734 0.65253985
vt 0.25260956 0.23107713
vt 0.25280159 0.91716917
vt 0.25329552 0.51670006
vt 0.25401354 0.84049193
vt 0.25413900 0.40298584
vt 0.25421882 0.95163965
vt 0.25421966 0.40864302
vt 0.25426387 0.90650328
vt 0.25449043 0.89301751
vt 0.25516315 0.86005783
vt 0.25524179 0.83003190
vt 0.25925131 0.64694446
vt 0.26658162 0.63851265
vt 0.26865600 0.59752857
vt 0.27959356 0.64077945
vt 0.28225094 0.82498079
vt 0.28421909 0.40795520
vt 0.30644622 0.23187668
vt 0.31003305 0.91016543
vt 0.31020726 0.23634592
vt 0.31066228 0.92065073
vt 0.31073034 0.94885271
vt 0.31074709 0.88832792
vt 0.31116700 0.86694064
vt 0.31151846 0.90175817
vt 0.31348007 0.85031758
vt 0.31355490 0.84092794
vt 0.31369764 0.82606785
vt 0.31411044 0.89421395
vt 0.31420437 0.91809402
vt 0.31467761 0.40308185
vt 0.31508066 0.40952532
vt 0.31510594 0.95329821
vt 0.31512404 0.86200654
vt 0.31534493 0.90805706
vt 0.31626440 0.82912795
vt 0.31627103 0.84170921
vt 0.33190513 0.14140576
vt 0.33727298 0.25239586
vt 0.33811597 0.14248340
vt 0.33864731 0.24759166
vt 0.33986206 0.21661104
vt 0.34282417 5.8247118e-2
vt 0.34593604 0.40261853
vt 0.34755943 0.21321823
vt 0.35000237 9.1085107e-2
vt 0.35180858 9.2315530e-2
vt 0.35716074 0.20688977
vt 0.35817755 0.20745597
vt 0.36875571 0.83471545
vt 0.37171872 0.95353767
vt 0.37253325 0.86825884
vt 0.37260665 0.90318632
vt 0.37261867 0.92361055
vt 0.37277669 0.91093019
vt 0.37366077 0.89070485
vt 0.37380621 0.85211089
vt 0.37428684 0.23866330
vt 0.37430041 0.68992075
vt 0.37441288 0.82632266
vt 0.37452450 0.37149128
vt 0.37472978 0.32421225
vt 0.37486007 0.84136650
vt 0.37488780 0.95294107
vt 0.37511520 0.91790762
vt 0.37516688 0.89536857
vt 0.37539413 0.22339039
vt 0.37568339 0.86244994
vt 0.37571974 0.90851379
vt 0.37599750 0.84105518
vt 0.37702219 0.40238237
vt 0.37731112 0.40932276
vt 0.37845558 0.18639107
vt 0.37857415 0.82931594
vt 0.38011227 0.23749273
vt 0.38135303 0.19144576
vt 0.38223298 0.29794423
vt 0.38304149 0.32701695
vt 0.38480515 0.52049428
vt 0.38975183 0.29465001
vt 0.39401493 0.18103233
vt 0.39825666 0.18468167
vt 0.40799320 0.40303844
vt 0.41272076 0.10133129
vt 0.41691257 0.23145208
vt 0.41892402 0.23623099
vt 0.42353252 0.10174211
vt 0.43384928 0.91210493
vt 0.43497605 0.85220274
vt 0.43510881 0.95250472
vt 0.43555877 0.87004695
vt 0.43560320 0.92420258
vt 0.43567058 0.88970655
vt 0.43625224 0.84136142
vt 0.43685047 0.90375196
vt 0.43713390 0.82830368
vt 0.43767433 0.90988162
vt 0.43783758 0.91850590
vt 0.43814770 0.40131207
vt 0.43818708 0.95351001
vt 0.43819960 0.84167899
vt 0.43822981 0.83054185
vt 0.43851575 0.86285881
vt 0.43939961 0.89627746
vt 0.43987090 0.40972542
vt 0.45493828 0.17893130
vt 0.45685388 0.17303973
vt 0.45761340 0.36846188
vt 0.46092720 0.35975631
vt 0.46977658 0.40355283
vt 0.47984264 0.18833238
vt 0.48444789 0.19228909
vt 0.49642794 0.86940788
vt 0.49706900 0.89220899
vt 0.49732892 0.85256745
vt 0.49740592 0.91247446
vt 0.49789083 0.84294162
vt 0.49845221 0.92194903
vt 0.49853507 0.95175988
vt 0.49858984 0.90304520
vt 0.49891611 0.86339072
vt 0.49916997 0.95602141
vt 0.49940399 0.82727041
vt 0.49974163 0.83037925
vt 0.49993017 0.91881245
vt 0.49994089 0.84257537
vt 0.50010580 0.90995990
vt 0.50018840 0.41050168
vt 0.50046713 0.89695401
vt 0.50163927 0.40217622
vt 0.52220649 0.36664846
vt 0.52771027 0.21364538
vt 0.52890636 6.2373031e-2
vt 0.53277447 0.40409537
vt 0.54300438 0.52056009
vt 0.55756378 0.68303180
vt 0.55930538 0.84116277
vt 0.55932332 0.92316981
vt 0.55952851 0.86976428
vt 0.55953158 0.82838274
vt 0.55954075 0.95065478
vt 0.55979704 0.89120643
vt 0.55981899 0.85319321
vt 0.56018510 0.91284772
vt 0.56036544 0.90403302
vt 0.56155029 0.82924114
vt 0.56170682 0.40967389
vt 0.56197229 0.89533537
vt 0.56207583 0.84259758
vt 0.56309939 0.86168719
vt 0.56325724 0.95619468
vt 0.56347611 0.91947674
vt 0.56392270 0.40305752
vt 0.56398574 0.90960676
vt 0.57128115 0.83509271
vt 0.59422109 0.20848496
vt 0.59495076 0.40342468
vt 0.59952055 0.17121509
vt 0.60741658 0.21033341
vt 0.60792354 0.28373112
vt 0.60985239 0.13568671
vt 0.61137208 0.24382056
vt 0.61177419 0.17391708
vt 0.61996100 0.91204623
vt 0.62021098 0.95233606
vt 0.62057054 0.92358730
vt 0.62061914 0.90506540
vt 0.62063106 0.27853671
vt 0.62094037 0.86869519
vt 0.62100030 0.89040912
vt 0.62123643 0.82817419
vt 0.62177154 0.84201608
vt 0.62185311 0.85316217
vt 0.62266669 0.14147213
vt 0.62358967 0.40963413
vt 0.62400013 0.82892567
vt 0.62400726 0.90804306
vt 0.62419422 0.86329582
vt 0.62437846 0.91616352
vt 0.62438244 0.84186967
vt 0.62440541 0.89509625
vt 0.62570742 0.95325899
vt 0.62588046 0.40406965
vt 0.65161670 0.34638287
vt 0.65265925 7.3244840e-2
vt 0.66151977 0.33641324
vt 0.66591828 0.24242703
vt 0.66599070 0.11295642
vt 0.67500815 0.36508244
vt 0.68174728 0.85385398
vt 0.68181986 0.84211618
vt 0.68190023 0.91216646
vt 0.68229593 0.90323803
vt 0.68260832 0.89063874
vt 0.68263779 0.82881041
vt 0.68269360 0.95274169
vt 0.68272928 0.87002534
vt 0.68278476 0.92508729
vt 0.68542382 0.89429610
vt 0.68576587 0.84281391
vt 0.68590196 0.83152330
vt 0.68590492 0.41060231
vt 0.68601201 0.91565461
vt 0.68670905 0.95142864
vt 0.68674209 0.90674703
vt 0.68716902 0.86192571
vt 0.68884975 0.40437072
vt 0.69241572 0.50566481
vt 0.70506966 0.64385957
vt 0.71184075 0.77653563
vt 0.71227524 0.38859029
vt 0.71533195 3.3132506e-2
vt 0.71558330 0.83071699
vt 0.71587867 0.82961349
vt 0.71787445 0.40460146
vt 0.71825627 0.37608603
vt 0.71920613 4.4759732e-2
vt 0.72521991 0.64089207
vt 0.73291502 0.59822600
vt 0.74235195 0.95312580
vt 0.74238222 0.91278119
vt 0.74243263 0.92452782
vt 0.74352921 0.85360398
vt 0.74383104 0.90496343
vt 0.74429201 0.89061377
vt 0.74442655 0.86949292
vt 0.74479232 0.82791367
vt 0.74490811 0.84155084
vt 0.74508005 0.95182349
vt 0.74548877 0.89264152
vt 0.74556794 0.82991308
vt 0.74570623 0.90659273
vt 0.74589278 0.84169564
vt 0.74606853 0.64240151
vt 0.74629879 0.82965807
vt 0.74695059 0.86145340
vt 0.74700607 0.64730459
vt 0.74722442 0.41004498
vt 0.74741890 0.91660492
vt 0.74769752 0.71388874
vt 0.74816069 0.40249066
vt 0.74914312 0.66291373
vt 0.74935922 0.65674092
vt 0.75160786 2.0110444e-2
vt 0.75328937 3.3973219e-2
vt 0.75974281 0.73169245
vt 0.76153270 0.61456092
vt 0.76167267 0.60825721
vt 0.76175447 0.67083024
vt 0.76254343 0.66264737
vt 0.76295130 0.35357607
vt 0.76364088 0.54970841
vt 0.76776368 0.23335259
vt 0.77524494 0.83233462
vt 0.77626324 0.83070882
vt 0.77893583 0.54984952
vt 0.78013697 0.40482583
vt 0.78563240 0.39018186
vt 0.78617789 0.40201774
vt 0.78929258 3.1954731e-2
vt 0.79091848 0.60574664
vt 0.79091925 1.7051279e-2
vt 0.79198227 0.70696851
vt 0.79208564 0.69591254
vt 0.79383304 0.55605608
vt 0.79386484 0.74038148
vt 0.79416428 0.61398844
vt 0.80397297 0.92425271
vt 0.80462350 0.90590713
vt 0.80484277 0.95383822
vt 0.80485012 0.85429546
vt 0.80501258 0.84324092
vt 0.80509916 0.86936073
vt 0.80511072 0.91289231
vt 0.80540994 0.84069385
vt 0.80559567 0.91460102
vt 0.80570506 0.90523343
vt 0.80576958 0.74815679
vt 0.80579050 0.89254276
vt 0.80580263 0.82998906
vt 0.80581088 0.86135546
vt 0.80586507 0.89131944
vt 0.80633317 0.94969445
vt 0.80644526 0.83021890
vt 0.80684920 0.83019014
vt 0.80762267 0.41084337
vt 0.80859940 0.72321748
vt 0.80899749 0.72986682
vt 0.81028651 0.40617321
vt 0.81991029 0.75507539
vt 0.82260765 0.55108163
vt 0.82506663 0.73446584
vt 0.82599048 0.60084535
vt 0.82603332 0.72983946
vt 0.82866559 0.60664027
vt 0.82919433 0.52762096
vt 0.85156042 0.73957905
vt 0.85194423 0.68851585
vt 0.85227836 0.37031234
vt 0.85306774 0.70063665
vt 0.85525120 0.37700987
vt 0.85601211 0.65590926
vt 0.85618207 0.55450771
vt 0.85756476 0.60653551
vt 0.85765891 4.3592105e-2
vt 0.85779798 0.61473139
vt 0.86040259 0.38875496
vt 0.86128091 0.65466433
vt 0.86285013 3.2586826e-2
vt 0.86356715 0.66876787
vt 0.86439833 0.91471090
vt 0.86449606 0.90562544
vt 0.86481700 0.94968024
vt 0.86512961 0.95330992
vt 0.86522059 0.89342919
vt 0.86544975 0.83098939
vt 0.86556906 0.86184164
vt 0.86565024 0.84116422
vt 0.86578767 0.82940695
vt 0.86592143 0.89149036
vt 0.86625242 0.87019304
vt 0.86629301 0.85451349
vt 0.86631912 0.92417267
vt 0.86641403 0.67458291
vt 0.86658379 0.91231705
vt 0.86667384 0.90474566
vt 0.86671347 0.82968064
vt 0.86704469 0.84286585
vt 0.86726694 0.71914972
vt 0.86819897 0.41254567
vt 0.86862032 0.65495319
vt 0.87092058 0.40527388
vt 0.88047614 0.60305578
vt 0.89551116 0.83128928
vt 0.89630376 0.83015984
vt 0.89631878 0.63982557
vt 0.90164664 0.40604615
vt 0.91357003 0.33766585
vt 0.91566825 8.4937030e-2
vt 0.92382464 0.90860700
vt 0.92403723 0.34684734
vt 0.92435552 0.95151443
vt 0.92493095 0.91675577
vt 0.92506617 0.89440799
vt 0.92517258 0.84248550
vt 0.92544982 7.5693074e-2
vt 0.92592453 0.95465551
vt 0.92595064 0.83133606
vt 0.92617166 0.86230345
vt 0.92643815 0.92572785
vt 0.92649718 0.91459748
vt 0.92739274 0.90584717
vt 0.92750285 0.85422383
vt 0.92816704 0.89367850
vt 0.92817900 0.86942114
vt 0.92835620 0.84333576
vt 0.92924345 0.82847255
vt 0.93049054 0.41201241
vt 0.93275520 0.40740011
vt 0.93649092 0.11103308
vt 0.95354729 0.28061956
vt 0.95452880 0.14284294
vt 0.96425260 0.28392941
vt 0.96755586 0.21194314
vt 0.96770997 0.13947201
vt 0.97993175 0.21210431
vt 0.98245389 0.95475711
vt 0.98412379 0.92135596
vt 0.98563368 0.86373015
vt 0.98632069 0.89600800
vt 0.98639935 0.95652302
vt 0.98700647 0.90962457
vt 0.98765103 0.92933999
vt 0.98869710 0.84388860
vt 0.98885970 0.89387600
vt 0.98950848 0.83222012
vt 0.99004834 0.90776140
vt 0.99005611 0.91665714
vt 0.99014334 0.87203973
vt 0.99070181 0.82921794
vt 0.99127076 0.85595201
vt 0.99161771 0.84384647
vt 0.99228808 0.40845024
vt 0.99292676 0.41136697
vt 0.99302987 0.46690204
vn 0.93788838 -0.34408319 -4.4408889e-2
vn 0.92012067 -0.30671228 0.24352725
vn 0.79270752 -0.44209379 0.41972356
vn 0.67636817 -0.23385451 0.69845413
vn 0.44624818 -0.43006448 0.78479749
vn 0.23519487 -0.30118819 0.92410446
vn -3.0240424e-2 -0.39746491 0.91711894
vn -0.35002959 -0.40087343 0.84662848
vn -0.66611301 -0.36288253 0.65162085
vn -0.85695832 -0.37340340 0.35523561
vn -0.90736696 -0.42033789 -1.1220032e-3
vn -0.83897801 -0.41894570 -0.34727569
vn -0.64986146 -0.39349737 -0.65026141
vn -0.35522205 -0.37464966 -0.85641983
vn 3.3382323e-3 -0.36702560 -0.93020485
vn 0.35325357 -0.37379620 -0.85760615
vn 0.64602012 -0.38392943 -0.65973950
vn 0.86679940 -0.34767030 -0.35746911
vn 0.58570804 -0.80999137 -2.9327066e-2
vn 0.52645070 -0.84471156 9.6498862e-2
vn 0.30775656 -0.93819118 0.15837682
vn 0.16651480 -0.95643375 0.23980678
vn 0.10566032 -0.88925317 0.44504460
vn -1.4362347e-2 -0.98263351 0.18500027
vn -0.18764829 -0.87209409 0.45192922
vn -0.38848468 -0.84257882 0.37301554
vn -0.24133540 -0.96080324 0.13643443
vn -0.53834975 -0.81425130 0.21719663
vn -0.33660709 -0.94162706 5.8441616e-3
vn -0.44681330 -0.87502547 -0.18624794
vn -0.18313764 -0.96767045 -0.17342003
vn -0.18878293 -0.86316643 -0.46829981
vn 6.9932131e-3 -0.95124522 -0.30835634
vn 0.19497244 -0.85825281 -0.47475032
vn 0.17681494 -0.96715599 -0.18260823
vn 0.50950101 -0.83308001 -0.21537506
vn 0.25604623 -0.96568759 -4.3448815e-2
vn 0.94570390 0.32502941 -1.1084823e-4
vn 0.97531466 -0.22081683 1.1104859e-3
vn 0.87509567 0.32339758 0.36002996
vn 0.89754985 -0.22924367 0.37663193
vn 0.66635308 0.31920342 0.67385662
vn 0.68825224 -0.24165332 0.68404132
vn 0.36559186 0.33540381 0.86824356
vn 0.37449531 -0.23849532 0.89603194
vn 1.1847437e-2 0.34656643 0.93795061
vn 7.3605331e-3 -0.25489938 0.96693957
vn -0.35703794 0.34181162 0.86930359
vn -0.36586437 -0.26694904 0.89156125
vn -0.67807899 0.29849663 0.67164623
vn -0.68043957 -0.28765210 0.67398684
vn -0.89163629 0.25742321 0.37244869
vn -0.87959834 -0.30580779 0.36440135
vn -0.96452066 0.26400703 -4.4068605e-4
vn -0.95763662 -0.28795964 3.3691401e-3
vn -0.88439813 0.28316967 -0.37101872
vn -0.89224912 -0.26564251 -0.36513773
vn -0.67166233 0.29904020 -0.67782348
vn -0.68172643 -0.25981333 -0.68391967
vn -0.36381949 0.30336073 -0.88068590
vn -0.36301607 -0.25421249 -0.89643479
vn 7.1819360e-3 0.28915928 -0.95725406
vn 2.1527381e-3 -0.25257959 -0.96757373
vn 0.36616634 0.26722711 -0.89135396
vn 0.36715819 -0.24865627 -0.89630627
vn 0.68186201 0.22149586 -0.69713971
vn 0.67309668 -0.29606464 -0.67770686
vn 0.89807915 0.25237972 -0.36021982
vn 0.88346602 -0.28995970 -0.36798255
vn 0.98285717 0.18434803 2.7529476e-3
vn 0.97419037 -0.22572626 8.7981710e-4
vn 0.90521081 0.19905095 0.37546251
vn 0.91341152 -0.17150025 0.36914369
vn 0.69096332 0.23873676 0.68233016
vn 0.70371175 -0.15399792 0.69359528
vn 0.37804019 0.21703296 0.89999017
vn 0.37552031 -0.19551166 0.90595788
vn -8.3959276e-3 0.18629281 0.98245839
vn -3.8561621e-3 -0.25060052 0.96808290
vn -0.37887292 0.21961575 0.89901292
vn -0.36673507 -0.22980309 0.90149649
vn -0.68695730 0.23783825 0.68667506
vn -0.69734294 -0.18586791 0.69221814
vn -0.90154542 0.20730944 0.37978764
vn -0.90322963 -0.21934768 0.36886695
vn -0.98110739 0.19338861 5.3979654e-3
vn -0.96179574 -0.27372435 4.8921196e-3
vn -0.90356869 0.19781909 -0.38004110
vn -0.88675223 -0.28036220 -0.36751533
vn -0.68965968 0.21079156 -0.69277446
vn -0.68158891 -0.26695694 -0.68130063
vn -0.37644173 0.21136067 -0.90200792
vn -0.37441004 -0.24787221 -0.89351916
vn -1.5269692e-4 0.20024969 -0.97974488
vn 1.7106434e-3 -0.22196606 -0.97505289
vn 0.37906855 0.19452040 -0.90469268
vn 0.37530783 -0.22742687 -0.89856611
vn 0.69166567 0.20195516 -0.69340660
vn 0.68006540 -0.24446128 -0.69119442
vn 0.90280748 0.21041347 -0.37505310
vn 0.89320781 -0.25618419 -0.36952600
vn -0.99955835 -1.2827726e-3 2.9689275e-2
vn -0.96032113 -3.2171713e-3 -0.27887805
vn -0.89873993 -1.0996358e-2 -0.43834417
vn -0.80734647 -1.1090460e-2 -0.58997345
vn -0.67956781 -3.2918806e-3 -0.73360531
vn -0.43060296 -6.9987090e-3 -0.90251433
vn -0.27340920 -1.1314707e-2 -0.96183127
vn 2.8510659e-2 -8.1096643e-4 -0.99959316
vn 0.37751864 -8.2599751e-4 -0.92600161
vn 0.55744898 -2.7110141e-3 -0.83020677
vn 0.71553564 -3.1437292e-3 -0.69856915
vn 0.84334081 -3.4434014e-3 -0.53736806
vn 0.92730455 -2.1215429e-3 -0.37430170
vn 0.99992074 -6.5105665e-4 -1.2573188e-2
vn 0.92090725 -1.7352680e-3 0.38977791
vn 0.70411765 -3.8928636e-3 0.71007266
vn 0.57901944 -4.8500851e-3 0.81529931
vn 0.39441981 -3.3136194e-3 0.91892439
vn 0.19214325 -1.6286455e-3 0.98136554
vn 4.9214234e-3 -1.5218830e-3 0.99998673
vn -0.18247461 -1.3612478e-3 0.98320962
vn -0.37969954 -2.3137419e-3 0.92510697
vn -0.56087286 -3.1684238e-3 0.82789588
vn -0.71231762 -3.6188667e-3 0.70184792
vn -0.83610750 -3.9288115e-3 0.54855156
vn -0.92745024 -2.2169777e-3 0.37394001
vn -0.98385592 -0.17895098 2.0194555e-3
vn -0.91957869 -0.10757944 -0.37789112
vn -0.70192101 -0.12141845 -0.70182936
vn -0.37884194 -0.17226264 -0.90928783
vn -7.3819102e-3 -0.16449347 -0.98635055
vn 0.37450772 -0.11555216 -0.91999547
vn 0.70630068 -0.10705802 -0.69976991
vn 0.91320641 -0.15186505 -0.37814158
vn 0.98386074 -0.17891390 -2.8031456e-3
vn 0.91217378 -0.17008870 0.37283889
vn 0.69839451 -0.16187038 0.69716791
vn 0.37075763 -0.13005474 0.91957846
vn -4.0365128e-3 -0.10942508 0.99398685
vn -0.37500139 -0.14687333 0.91531535
vn -0.69185963 -0.19288706 0.69579080
vn -0.90347089 -0.21970320 0.36806364
vn -0.99219084 0.12454291 -6.8112980e-3
vn -0.92049378 0.10902765 -0.37523883
vn -0.70144327 0.15883164 -0.69480202
vn -0.37035562 0.15798650 -0.91535620
vn -5.1174639e-3 0.11397000 -0.99347101
vn 0.37810359 0.11787887 -0.91822778
vn 0.69957358 0.15655830 -0.69719890
vn 0.90573335 0.20238774 -0.37240609
vn 0.98257930 0.18581928 3.0208281e-3
vn 0.91014965 0.17540878 0.37531237
vn 0.69830894 0.18514815 0.69143675
vn 0.38406441 0.15039215 0.91097570
vn 7.0291268e-3 0.13282972 0.99111395
vn -0.38752779 0.11138878 0.91510368
vn -0.70630556 8.6583917e-2 0.70259212
vn -0.91724463 0.11954748 0.37996143
vn 0.95181216 0.30667990 -1.0250804e-3
vn 0.97115144 -0.23844731 -2.7852110e-3
vn 0.87539831 0.32479953 0.35802663
vn 0.89978671 -0.21685194 0.37862793
vn 0.67154709 0.31344980 0.67139685
vn 0.68900708 -0.23299380 0.68628211
vn 0.36660506 0.30528539 0.87886379
vn 0.37182250 -0.24775526 0.89463141
vn 4.7192097e-3 0.32001459 0.94740086
vn 7.6331025e-5 -0.25266796 0.96755305
vn -0.35941456 0.31989041 0.87663635
vn -0.36708594 -0.27654102 0.88812892
vn -0.67231952 0.31960081 0.66771385
vn -0.67964430 -0.27569570 0.67976136
vn -0.87367040 0.32223581 0.36450529
vn -0.89635793 -0.24578840 0.36895870
vn -0.95203939 0.30596701 2.2788611e-3
vn -0.97178204 -0.23584943 3.8364777e-3
vn -0.88068225 0.29031948 -0.37431721
vn -0.89653414 -0.25386981 -0.36301056
vn -0.67315281 0.29119459 -0.67975805
vn -0.68140901 -0.26640066 -0.68169821
vn -0.36822725 0.30256565 -0.87912611
vn -0.36937660 -0.25117221 -0.89469182
vn 2.6651834e-3 0.29808443 -0.95453579
vn -1.5564844e-3 -0.24627662 -0.96919833
vn 0.36386598 0.28002856 -0.88836116
vn 0.37133675 -0.25064766 -0.89402727
vn 0.67309360 0.29624480 -0.67763119
vn 0.69080534 -0.23158898 -0.68494856
vn 0.88263969 0.30621592 -0.35662163
vn 0.89602282 -0.23560883 -0.37633973
vn 0.98138647 0.19203891 -1.2843824e-3
vn 0.98557605 -0.16923076 8.8994906e-4
vn 0.97653642 -0.12265917 0.17700666
vn 0.90801523 0.17487691 0.38069202
vn 0.88546586 -0.16623849 0.43395274
vn 0.81010160 -0.15464899 0.56552550
vn 0.69417160 0.18745956 0.69497101
vn 0.70230696 -0.20566232 0.68151885
vn 0.60231700 -0.12789318 0.78794515
vn 0.37888665 0.21125774 0.90100781
vn 0.34610247 -0.16645838 0.92331180
vn 0.18082353 -0.15065551 0.97190831
vn -5.8768961e-3 0.21506296 0.97658250
vn 7.5077048e-3 -0.18821315 0.98209951
vn -0.38088943 0.20225360 0.90222876
vn -0.36402377 -0.24505507 0.89857371
vn -0.69007799 0.19753660 0.69625546
vn -0.68950820 -0.22223272 0.68934103
vn -0.90152523 0.21044763 0.37810587
vn -0.90475315 -0.22429207 0.36209778
vn -0.97240922 0.23326314 2.9351395e-3
vn -0.96908617 -0.24672114 -8.1833326e-4
vn -0.89917954 0.22888796 -0.37294296
vn -0.89625047 -0.25013458 -0.36628920
vn -0.68987018 0.21201509 -0.69219126
vn -0.68425555 -0.25627030 -0.68272972
vn -0.37942668 0.20358463 -0.90254567
vn -0.37441465 -0.25691338 -0.89095970
vn -3.3109873e-4 0.19010559 -0.98176360
vn 1.6361280e-3 -0.24014715 -0.97073512
vn 0.38153014 0.18152232 -0.90635777
vn 0.37213086 -0.23983515 -0.89665920
vn 0.69659088 0.18724145 -0.69260507
vn 0.67637519 -0.25594727 -0.69065737
vn 0.90503688 0.20298989 -0.37376912
vn 0.89383183 -0.25637103 -0.36788390
vn -0.86368143 3.3574578e-2 -0.50291861
vn -0.49183157 0.33753083 -0.80260491
vn -0.80095674 0.20366721 -0.56301684
vn 0.45704264 -0.34746306 0.81876825
vn 0.15316282 -0.66006081 0.73543244
vn 0.92170755 -0.37436678 -0.10151211
vn -0.92063795 2.1907890e-2 -0.38980227
vn -0.80890587 -8.1413512e-2 -0.58227411
vn -0.34812205 1.3858287e-2 -0.93734678
vn 0.93401080 -2.6975758e-2 0.35622484
vn 0.78277636 -9.0806990e-2 0.61564215
vn 0.61386707 -0.26583816 0.74330161
vn 0.52793121 -0.10961677 0.84218335
vn 0.30940426 -1.8013789e-2 0.95075996
vn -0.81468861 9.1567848e-2 -0.57262361
vn -0.66294809 0.19378010 -0.72315220
vn -0.59156641 0.10674888 -0.79915822
vn -0.97422719 -8.3691406e-3 -0.22541371
vn -0.98853316 -6.1060332e-2 0.13810804
vn 0.49379685 1.1080865e-2 0.86950669
vn 0.98876911 8.2296624e-2 0.12475139
vn 0.78324249 -0.59851540 -0.16825732
vn 0.80454494 0.23347577 0.54607371
vn 0.54406708 -0.81208395 0.21097550
vn 0.62775868 0.21906230 0.74694762
vn 0.32232551 -0.40696148 0.85468627
vn 0.72293600 0.20517786 0.65974661
vn 0.62660023 -0.39172423 0.67373903
vn 0.75741050 0.17723471 0.62842437
vn -0.82665820 -0.19527830 -0.52773346
vn -0.64640513 0.25394509 -0.71949447
vn -0.65473615 -0.11366117 -0.74726282
vn -0.69589808 0.39591887 -0.59914448
vn -0.75628286 -6.3827297e-2 -0.65112388
vn -0.61489962 0.16963436 -0.77014456
vn -0.90190934 4.8481928e-3 -0.43189817
vn -0.84132303 6.9615418e-2 -0.53603102
vn -5.7990244e-2 -0.51166038 0.85722855
vn -0.82702624 -0.51734227 -0.21996495
vn 0.38325704 -0.35130550 -0.85422391
vn 0.61284950 -0.21850758 0.75938787
vn 0.66610942 -0.29208566 0.68628289
vn 0.69806397 -0.17724801 0.69375056
vn 0.77242662 -0.13292107 0.62103874
vn -0.53423931 -2.1950337e-2 -0.84504825
vn -0.52903817 -9.5266093e-2 -0.84323365
vn -0.66081372 -0.13079808 -0.73906501
vn -0.75635960 -0.17003065 -0.63167218
vn -0.84307258 -0.11374899 -0.52563275
vn -0.80966417 -3.2501760e-2 -0.58599281
vn 0.59188269 0.10562414 0.79907348
vn 0.62245960 0.12452415 0.77268220
vn 0.74617352 0.12931017 0.65307270
vn 0.83533593 0.11857519 0.53679961
vn -0.65127803 0.16932883 -0.73970580
vn -0.66127745 0.21641168 -0.71824656
vn -0.64369317 0.20891292 -0.73621634
vn -0.81898806 0.13256360 -0.55828797
vn 0.81456357 2.6204053e-2 0.57948213
vn 0.55306043 3.3053301e-2 0.83248522
vn -3.1890554e-3 1.9696704e-2 0.99980092
vn -0.50560843 -0.81184267 0.29201301
vn -0.82932879 -0.53748951 0.15270489
vn -0.55518741 -0.33557489 -0.76102328
vn -4.2553169e-2 -0.25586343 -0.96577592
vn 0.65665042 5.8360825e-2 0.75193366
vn 0.52990726 0.31023227 0.78927450
vn -0.12323562 0.99237715 7.5906277e-4
vn -0.11577427 0.98986012 8.2299880e-2
vn -0.19115925 0.58453982 0.78852478
vn -0.78663843 0.55622816 -0.26797427
vn 0.18545086 0.98060210 -6.3462662e-2
vn 0.17752996 0.92587851 0.33351476
vn -9.5625675e-2 0.94846293 0.30211553
vn -0.16192131 0.97080631 0.17696496
vn -4.1682407e-2 0.99735216 5.9592312e-2
vn 0.49952481 0.82416069 -0.26689721
vn 0.20659466 0.97664588 -5.9003953e-2
vn -0.72311158 0.66024948 -0.20292921
vn -0.86969581 0.34207650 -0.35582703
vn -0.55734936 0.70769137 -0.43420573
vn -0.40440520 0.69930772 -0.58942781
vn 0.11413197 0.97367373 -0.19731539
vn 0.27936736 0.95968719 3.0893026e-2
vn 0.28027591 0.95069689 0.13274350
vn 0.21751113 0.97513907 4.2340346e-2
vn 0.24940414 0.96119240 -0.11792690
vn -0.10400619 0.91379427 -0.39263564
vn -0.17159459 0.98488750 2.3492883e-2
vn -0.50090320 0.83765361 -0.21778986
vn -0.16311944 0.95790280 0.23625045
vn -5.4282798e-2 0.98574994 -0.15921818
vn 0.29415506 0.91176051 -0.28664537
vn 0.35402301 0.93485984 2.6547732e-2
vn 0.34818955 0.93699236 2.8449192e-2
vn 0.21773217 0.95986162 0.17680038
vn 0.10193688 0.98368545 0.14822887
vn -0.28117433 0.93985652 -0.19393485
vn -0.20286319 0.97588995 8.0531499e-2
vn -0.20371903 0.97538015 -8.4451897e-2
vn 1.8992558e-3 0.99875160 -4.9916293e-2
vn 0.22249857 0.97392284 4.4369995e-2
vn -8.0514738e-2 0.99436973 6.8892745e-2
vn -3.1242902e-2 0.99860541 4.2557211e-2
vn 9.6509891e-2 0.97268738 0.21110448
vn 0.13260245 0.98063441 0.14412756
vn 0.99987654 -1.5711709e-2 -2.2373655e-4
vn 0.99987654 -1.5711709e-2 -2.2373655e-4
vn -0.11834948 0.99275663 2.0680508e-2
vn -0.11834948 0.99275663 2.0680508e-2
vn 0.92464521 -2.2783284e-2 0.38014755
vn 0.92464521 -2.2783284e-2 0.38014755
vn -4.9071554e-2 0.99839534 -2.8261619e-2
vn -4.9071554e-2 0.99839534 -2.8261619e-2
vn 0.71221947 -3.8102311e-2 0.70092199
vn 0.71221947 -3.8102311e-2 0.70092199
vn -0.16562928 0.96048551 -0.22368400
vn -0.16562928 0.96048551 -0.22368400
vn 0.38128310 -4.0697332e-2 0.92356209
vn 0.38128310 -4.0697332e-2 0.92356209
vn -0.17321279 0.88026571 -0.44173478
vn -0.17321279 0.88026571 -0.44173478
vn -2.6333907e-3 -3.9859599e-2 0.99920182
vn -2.6333907e-3 -3.9859599e-2 0.99920182
vn -2.0234145e-2 0.90550871 -0.42384497
vn -2.0234145e-2 0.90550871 -0.42384497
vn -0.37862860 -2.7219495e-2 0.92514836
vn -0.37862860 -2.7219495e-2 0.92514836
vn 0.15438050 0.92139572 -0.35664630
vn 0.15438050 0.92139572 -0.35664630
vn -0.70833164 9.6249074e-3 0.70581418
vn -0.70833164 9.6249074e-3 0.70581418
vn 0.34305157 0.88246007 -0.32183822
vn 0.34305157 0.88246007 -0.32183822
vn -0.92246445 2.5034768e-2 0.38526953
vn -0.92246445 2.5034768e-2 0.38526953
vn 0.46225890 0.86539414 -0.19341585
vn 0.46225890 0.86539414 -0.19341585
vn -0.99994342 9.1904570e-3 5.3562435e-3
vn -0.99994342 9.1904570e-3 5.3562435e-3
vn 0.43640372 0.89971549 -7.9890819e-3
vn 0.43640372 0.89971549 -7.9890819e-3
vn -0.91962375 -9.7371077e-3 -0.39267970
vn -0.91962375 -9.7371077e-3 -0.39267970
vn 0.31831711 0.94053502 0.11860901
vn 0.31831711 0.94053502 0.11860901
vn -0.70482709 -2.1152081e-2 -0.70906372
vn -0.70482709 -2.1152081e-2 -0.70906372
vn 0.21539597 0.95250312 0.21527281
vn 0.21539597 0.95250312 0.21527281
vn -0.38571730 -6.0926785e-3 -0.92259690
vn -0.38571730 -6.0926785e-3 -0.92259690
vn 0.12508341 0.95330401 0.27489199
vn 0.12508341 0.95330401 0.27489199
vn -2.1111342e-3 1.8876040e-2 -0.99981960
vn -2.1111342e-3 1.8876040e-2 -0.99981960
vn 8.9301127e-3 0.97554453 0.21962041
vn 8.9301127e-3 0.97554453 0.21962041
vn 0.37729022 2.9267043e-2 -0.92563250
vn 0.37729022 2.9267043e-2 -0.92563250
vn -6.6063273e-2 0.98730743 0.14442880
vn -6.6063273e-2 0.98730743 0.14442880
vn 0.70939282 1.8492650e-2 -0.70457068
vn 0.70939282 1.8492650e-2 -0.70457068
vn -0.15574804 0.97812748 0.13787375
vn -0.15574804 0.97812748 0.13787375
vn 0.92459742 -6.5688503e-3 -0.38088904
vn 0.92459742 -6.5688503e-3 -0.38088904
vn -0.22444848 0.96902071 0.10306183
vn -0.22444848 0.96902071 0.10306183
vn -0.99999677 2.4499389e-3 6.7236110e-4
vn -0.99999677 2.4499389e-3 6.7236110e-4
vn -0.11834948 0.99275663 2.0680508e-2
vn -0.11834948 0.99275663 2.0680508e-2
vn -0.92464884 -1.1157872e-3 -0.38081921
vn -0.92464884 -1.1157872e-3 -0.38081921
vn -4.9071554e-2 0.99839534 -2.8261619e-2
vn -4.9071554e-2 0.99839534 -2.8261619e-2
vn -0.70585599 -1.2279691e-3 -0.70835430
vn -0.70585599 -1.2279691e-3 -0.70835430
vn -0.16562928 0.96048551 -0.22368400
vn -0.16562928 0.96048551 -0.22368400
vn -0.38581448 2.9453648e-3 -0.92257168
vn -0.38581448 2.9453648e-3 -0.92257168
vn -0.17321279 0.88026571 -0.44173478
vn -0.17321279 0.88026571 -0.44173478
vn 1.3122674e-3 1.1058683e-2 -0.99993799
vn 1.3122674e-3 1.1058683e-2 -0.99993799
vn -2.0234145e-2 0.90550871 -0.42384497
vn -2.0234145e-2 0.90550871 -0.42384497
vn 0.38138413 2.7686928e-2 -0.92400194
vn 0.38138413 2.7686928e-2 -0.92400194
vn 0.15438050 0.92139572 -0.35664630
vn 0.15438050 0.92139572 -0.35664630
vn 0.70176045 3.0301133e-2 -0.71176830
vn 0.70176045 3.0301133e-2 -0.71176830
vn 0.34305157 0.88246007 -0.32183822
vn 0.34305157 0.88246007 -0.32183822
vn 0.92810298 2.7615464e-2 -0.37129806
vn 0.92810298 2.7615464e-2 -0.37129806
vn 0.46225890 0.86539414 -0.19341585
vn 0.46225890 0.86539414 -0.19341585
vn 0.99983372 1.6465291e-2 7.8369002e-3
vn 0.99983372 1.6465291e-2 7.8369002e-3
vn 0.43640372 0.89971549 -7.9890819e-3
vn 0.43640372 0.89971549 -7.9890819e-3
vn 0.92640064 4.0043942e-3 0.37651801
vn 0.92640064 4.0043942e-3 0.37651801
vn 0.31831711 0.94053502 0.11860901
vn 0.31831711 0.94053502 0.11860901
vn 0.70923518 5.7622105e-3 0.70494841
vn 0.70923518 5.7622105e-3 0.70494841
vn 0.21539597 0.95250312 0.21527281
vn 0.21539597 0.95250312 0.21527281
vn 0.39512126 -1.7444334e-3 0.91862732
vn 0.39512126 -1.7444334e-3 0.91862732
vn 0.12508341 0.95330401 0.27489199
vn 0.12508341 0.95330401 0.27489199
vn 4.1935170e-3 -2.7861273e-3 0.99998733
vn 4.1935170e-3 -2.7861273e-3 0.99998733
vn 8.9301127e-3 0.97554453 0.21962041
vn 8.9301127e-3 0.97554453 0.21962041
vn -0.39335027 1.1280131e-2 0.91931949
vn -0.39335027 1.1280131e-2 0.91931949
vn -6.6063273e-2 0.98730743 0.14442880
vn -6.6063273e-2 0.98730743 0.14442880
vn -0.70741904 5.9285974e-3 0.70676952
vn -0.70741904 5.9285974e-3 0.70676952
vn -0.15574804 0.97812748 0.13787375
vn -0.15574804 0.97812748 0.13787375
vn -0.92364967 -2.6235338e-3 0.38322891
vn -0.92364967 -2.6235338e-3 0.38322891
vn -0.22444848 0.96902071 0.10306183
vn -0.22444848 0.96902071 0.10306183
vn -0.66050437 -0.75082117 1.2443625e-3
vn -0.99999677 2.4499389e-3 6.7236110e-4
vn -0.66050437 -0.75082117 1.2443625e-3
vn -0.99999677 2.4499389e-3 6.7236110e-4
vn -0.99995433 -1.1656045e-3 -9.4858951e-3
vn -0.99995433 -1.1656045e-3 -9.4858951e-3
vn -0.87880495 0.47717731 1.9163318e-3
vn -0.87880495 0.47717731 1.9163318e-3
vn -0.63078776 -0.72943251 -0.26464129
vn -0.92464884 -1.1157872e-3 -0.38081921
vn -0.63078776 -0.72943251 -0.26464129
vn -0.92464884 -1.1157872e-3 -0.38081921
vn -0.92095694 -4.9732890e-2 -0.38647762
vn -0.92095694 -4.9732890e-2 -0.38647762
vn -0.76396705 0.56672133 -0.30851464
vn -0.76396705 0.56672133 -0.30851464
vn -0.47071357 -0.74381992 -0.47451097
vn -0.70585599 -1.2279691e-3 -0.70835430
vn -0.47071357 -0.74381992 -0.47451097
vn -0.70585599 -1.2279691e-3 -0.70835430
vn -0.71032497 -3.8308526e-2 -0.70283063
vn -0.71032497 -3.8308526e-2 -0.70283063
vn -0.58507188 0.56568679 -0.58111044
vn -0.58507188 0.56568679 -0.58111044
vn -0.25838327 -0.75820346 -0.59863645
vn -0.38581448 2.9453648e-3 -0.92257168
vn -0.25838327 -0.75820346 -0.59863645
vn -0.38581448 2.9453648e-3 -0.92257168
vn -0.38017670 2.0848495e-3 -0.92491153
vn -0.38017670 2.0848495e-3 -0.92491153
vn -0.32572309 0.49826887 -0.80351267
vn -0.32572309 0.49826887 -0.80351267
vn -6.2546143e-3 -0.74086032 -0.67163001
vn 1.3122674e-3 1.1058683e-2 -0.99993799
vn -6.2546143e-3 -0.74086032 -0.67163001
vn 1.3122674e-3 1.1058683e-2 -0.99993799
vn 8.8958693e-3 1.8146493e-2 -0.99979576
vn 8.8958693e-3 1.8146493e-2 -0.99979576
vn -5.3093303e-3 0.48558981 -0.87417066
vn -5.3093303e-3 0.48558981 -0.87417066
vn 0.25586375 -0.74079948 -0.62108765
vn 0.38138413 2.7686928e-2 -0.92400194
vn 0.25586375 -0.74079948 -0.62108765
vn 0.38138413 2.7686928e-2 -0.92400194
vn 0.38431719 -2.4225455e-4 -0.92320108
vn 0.38431719 -2.4225455e-4 -0.92320108
vn 0.30658654 0.57219892 -0.76065306
vn 0.30658654 0.57219892 -0.76065306
vn 0.46130854 -0.75754231 -0.46187020
vn 0.70176045 3.0301133e-2 -0.71176830
vn 0.46130854 -0.75754231 -0.46187020
vn 0.70176045 3.0301133e-2 -0.71176830
vn 0.70244048 -2.1303226e-2 -0.71142361
vn 0.70244048 -2.1303226e-2 -0.71142361
vn 0.56848708 0.60417660 -0.55838433
vn 0.56848708 0.60417660 -0.55838433
vn 0.57564241 -0.78186140 -0.23943385
vn 0.92810298 2.7615464e-2 -0.37129806
vn 0.57564241 -0.78186140 -0.23943385
vn 0.92810298 2.7615464e-2 -0.37129806
vn 0.92311634 -1.8783444e-2 -0.38406173
vn 0.92311634 -1.8783444e-2 -0.38406173
vn 0.76451756 0.56211653 -0.31549628
vn 0.76451756 0.56211653 -0.31549628
vn 0.62051021 -0.78419836 1.0410133e-4
vn 0.99983372 1.6465291e-2 7.8369002e-3
vn 0.62051021 -0.78419836 1.0410133e-4
vn 0.99983372 1.6465291e-2 7.8369002e-3
vn 0.99995909 -6.5688735e-3 -6.2175794e-3
vn 0.99995909 -6.5688735e-3 -6.2175794e-3
vn 0.85328299 0.52143024 -4.3177370e-3
vn 0.85328299 0.52143024 -4.3177370e-3
vn 0.59136558 -0.77123225 0.23555801
vn 0.92640064 4.0043942e-3 0.37651801
vn 0.59136558 -0.77123225 0.23555801
vn 0.92640064 4.0043942e-3 0.37651801
vn 0.92458041 -1.0521523e-2 0.38084165
vn 0.92458041 -1.0521523e-2 0.38084165
vn 0.78916208 0.51878672 0.32876062
vn 0.78916208 0.51878672 0.32876062
vn 0.43700533 -0.78948995 0.43096630
vn 0.70923518 5.7622105e-3 0.70494841
vn 0.43700533 -0.78948995 0.43096630
vn 0.70923518 5.7622105e-3 0.70494841
vn 0.70275618 -1.5901299e-2 0.71125305
vn 0.70275618 -1.5901299e-2 0.71125305
vn 0.58580983 0.55555079 0.59007640
vn 0.58580983 0.55555079 0.59007640
vn 0.24274843 -0.75229278 0.61247757
vn 0.39512126 -1.7444334e-3 0.91862732
vn 0.24274843 -0.75229278 0.61247757
vn 0.39512126 -1.7444334e-3 0.91862732
vn 0.38197487 -1.6930600e-3 0.92417116
vn 0.38197487 -1.6930600e-3 0.92417116
vn 0.31367879 0.55894769 0.76758263
vn 0.31367879 0.55894769 0.76758263
vn -2.0169784e-3 -0.68925452 0.72451649
vn 4.1935170e-3 -2.7861273e-3 0.99998733
vn -2.0169784e-3 -0.68925452 0.72451649
vn 4.1935170e-3 -2.7861273e-3 0.99998733
vn 1.5741869e-3 1.2927086e-2 0.99991520
vn 1.5741869e-3 1.2927086e-2 0.99991520
vn -4.4040842e-3 0.51684407 0.85606823
vn -4.4040842e-3 0.51684407 0.85606823
vn -0.25849860 -0.72580778 0.63748062
vn -0.39335027 1.1280131e-2 0.91931949
vn -0.25849860 -0.72580778 0.63748062
vn -0.39335027 1.1280131e-2 0.91931949
vn -0.37935109 1.3886296e-2 0.92514859
vn -0.37935109 1.3886296e-2 0.92514859
vn -0.33116697 0.49749288 0.80176634
vn -0.33116697 0.49749288 0.80176634
vn -0.44761824 -0.77565749 0.44496445
vn -0.70741904 5.9285974e-3 0.70676952
vn -0.44761824 -0.77565749 0.44496445
vn -0.70741904 5.9285974e-3 0.70676952
vn -0.70174073 1.7491990e-2 0.71221765
vn -0.70174073 1.7491990e-2 0.71221765
vn -0.61481674 0.48291259 0.62353492
vn -0.61481674 0.48291259 0.62353492
vn -0.58622473 -0.77588914 0.23310215
vn -0.92364967 -2.6235338e-3 0.38322891
vn -0.58622473 -0.77588914 0.23310215
vn -0.92364967 -2.6235338e-3 0.38322891
vn -0.92134165 3.0504970e-2 0.38755516
vn -0.92134165 3.0504970e-2 0.38755516
vn -0.83036216 0.43831544 0.34406141
vn -0.83036216 0.43831544 0.34406141
vn -0.99995433 -1.1656045e-3 -9.4858951e-3
vn -0.99995433 -1.1656045e-3 -9.4858951e-3
vn -0.95032503 -0.31125710 -1.1684225e-3
vn -0.95032503 -0.31125710 -1.1684225e-3
vn -0.84519013 0.53434988 -1.1129188e-2
vn -0.99984097 7.2866419e-4 -1.7818451e-2
vn -0.84519013 0.53434988 -1.1129188e-2
vn -0.99984097 7.2866419e-4 -1.7818451e-2
vn -0.99984097 7.2866419e-4 -1.7818451e-2
vn -0.86447035 0.47598134 -0.16165638
vn -0.97570071 5.4029865e-3 -0.21904095
vn -0.97570071 5.4029865e-3 -0.21904095
vn -0.92095694 -4.9732890e-2 -0.38647762
vn -0.92095694 -4.9732890e-2 -0.38647762
vn -0.88245417 -0.29526769 -0.36618525
vn -0.88245417 -0.29526769 -0.36618525
vn -0.80709031 0.49452343 -0.32257063
vn -0.80709031 0.49452343 -0.32257063
vn -0.90148729 2.0696498e-2 -0.43231044
vn -0.90148729 2.0696498e-2 -0.43231044
vn -0.90148729 2.0696498e-2 -0.43231044
vn -0.72587716 0.49846240 -0.47395947
vn -0.78709120 4.1540923e-2 -0.61543627
vn -0.78709120 4.1540923e-2 -0.61543627
vn -0.71032497 -3.8308526e-2 -0.70283063
vn -0.71032497 -3.8308526e-2 -0.70283063
vn -0.67206246 -0.29592150 -0.67879490
vn -0.67206246 -0.29592150 -0.67879490
vn -0.58528571 0.57993698 -0.56666898
vn -0.58528571 0.57993698 -0.56666898
vn -0.68627348 3.6134144e-2 -0.72644548
vn -0.68627348 3.6134144e-2 -0.72644548
vn -0.68627348 3.6134144e-2 -0.72644548
vn -0.38017670 2.0848495e-3 -0.92491153
vn -0.38017670 2.0848495e-3 -0.92491153
vn -0.35967094 -0.31266342 -0.87913503
vn -0.35967094 -0.31266342 -0.87913503
vn -0.29865231 0.59278914 -0.74793572
vn -0.29865231 0.59278914 -0.74793572
vn -0.46610958 4.3933031e-3 -0.88471609
vn -0.46610958 4.3933031e-3 -0.88471609
vn -0.46610958 4.3933031e-3 -0.88471609
vn -0.19815632 5.7705720e-3 -0.98015344
vn -0.16418054 0.52677017 -0.83400116
vn -0.19815632 5.7705720e-3 -0.98015344
vn 8.8958693e-3 1.8146493e-2 -0.99979576
vn 8.8958693e-3 1.8146493e-2 -0.99979576
vn -4.8186936e-3 -0.35843278 -0.93354310
vn -4.8186936e-3 -0.35843278 -0.93354310
vn -4.2611555e-3 0.55900598 -0.82915267
vn -3.2389972e-2 1.6996124e-3 -0.99947386
vn -3.2389972e-2 1.6996124e-3 -0.99947386
vn -4.2611555e-3 0.55900598 -0.82915267
vn -3.2389972e-2 1.6996124e-3 -0.99947386
vn 0.38431719 -2.4225455e-4 -0.92320108
vn 0.38431719 -2.4225455e-4 -0.92320108
vn 0.35288328 -0.36884392 -0.85989973
vn 0.35288328 -0.36884392 -0.85989973
vn 0.31264742 0.57460820 -0.75635773
vn 0.37751864 -8.2599751e-4 -0.92600161
vn 0.31264742 0.57460820 -0.75635773
vn 0.37751864 -8.2599751e-4 -0.92600161
vn 0.70244048 -2.1303226e-2 -0.71142361
vn 0.70244048 -2.1303226e-2 -0.71142361
vn 0.67157778 -0.32353695 -0.66656367
vn 0.67157778 -0.32353695 -0.66656367
vn 0.56620785 0.59825712 -0.56700714
vn 0.71553564 -3.1437292e-3 -0.69856915
vn 0.56620785 0.59825712 -0.56700714
vn 0.71553564 -3.1437292e-3 -0.69856915
vn 0.92311634 -1.8783444e-2 -0.38406173
vn 0.92311634 -1.8783444e-2 -0.38406173
vn 0.88468454 -0.29162979 -0.36371051
vn 0.88468454 -0.29162979 -0.36371051
vn 0.70721755 0.64441034 -0.29082408
vn 0.92730455 -2.1215429e-3 -0.37430170
vn 0.70721755 0.64441034 -0.29082408
vn 0.92730455 -2.1215429e-3 -0.37430170
vn 0.99995909 -6.5688735e-3 -6.2175794e-3
vn 0.99995909 -6.5688735e-3 -6.2175794e-3
vn 0.95741261 -0.28872312 -2.5136075e-4
vn 0.95741261 -0.28872312 -2.5136075e-4
vn 0.78731734 0.61652253 5.6006922e-3
vn 0.99992074 -6.5105665e-4 -1.2573188e-2
vn 0.78731734 0.61652253 5.6006922e-3
vn 0.99992074 -6.5105665e-4 -1.2573188e-2
vn 0.92458041 -1.0521523e-2 0.38084165
vn 0.92458041 -1.0521523e-2 0.38084165
vn 0.89010023 -0.27470270 0.36367568
vn 0.89010023 -0.27470270 0.36367568
vn 0.74607699 0.58876079 0.31101424
vn 0.92090725 -1.7352680e-3 0.38977791
vn 0.74607699 0.58876079 0.31101424
vn 0.92090725 -1.7352680e-3 0.38977791
vn 0.70275618 -1.5901299e-2 0.71125305
vn 0.70275618 -1.5901299e-2 0.71125305
vn 0.67807249 -0.29586991 0.67281401
vn 0.67807249 -0.29586991 0.67281401
vn 0.55869467 0.61917841 0.55179558
vn 0.70411765 -3.8928636e-3 0.71007266
vn 0.55869467 0.61917841 0.55179558
vn 0.70411765 -3.8928636e-3 0.71007266
vn 0.38197487 -1.6930600e-3 0.92417116
vn 0.38197487 -1.6930600e-3 0.92417116
vn 0.36149967 -0.35599097 0.86173570
vn 0.36149967 -0.35599097 0.86173570
vn 0.30734326 0.61669421 0.72472641
vn 0.39441981 -3.3136194e-3 0.91892439
vn 0.30734326 0.61669421 0.72472641
vn 0.39441981 -3.3136194e-3 0.91892439
vn 1.5741869e-3 1.2927086e-2 0.99991520
vn 1.5741869e-3 1.2927086e-2 0.99991520
vn 8.2880664e-3 -0.39492461 0.91867614
vn 8.2880664e-3 -0.39492461 0.91867614
vn 3.7928954e-3 0.62104448 0.78376614
vn 4.9214234e-3 -1.5218830e-3 0.99998673
vn 3.7928954e-3 0.62104448 0.78376614
vn 4.9214234e-3 -1.5218830e-3 0.99998673
vn -0.37935109 1.3886296e-2 0.92514859
vn -0.37935109 1.3886296e-2 0.92514859
vn -0.35362102 -0.38974548 0.85032384
vn -0.35362102 -0.38974548 0.85032384
vn -0.32224214 0.58320332 0.74567680
vn -0.37969954 -2.3137419e-3 0.92510697
vn -0.32224214 0.58320332 0.74567680
vn -0.37969954 -2.3137419e-3 0.92510697
vn -0.70174073 1.7491990e-2 0.71221765
vn -0.70174073 1.7491990e-2 0.71221765
vn -0.66533243 -0.35270343 0.65797648
vn -0.66533243 -0.35270343 0.65797648
vn -0.60896621 0.50748020 0.60960971
vn -0.71231762 -3.6188667e-3 0.70184792
vn -0.60896621 0.50748020 0.60960971
vn -0.71231762 -3.6188667e-3 0.70184792
vn -0.92134165 3.0504970e-2 0.38755516
vn -0.92134165 3.0504970e-2 0.38755516
vn -0.87189861 -0.32915007 0.36256454
vn -0.87189861 -0.32915007 0.36256454
vn -0.77559636 0.54416589 0.31989649
vn -0.92745024 -2.2169777e-3 0.37394001
vn -0.77559636 0.54416589 0.31989649
vn -0.92745024 -2.2169777e-3 0.37394001
g Barell_default
usemtl default
f 1/158/335 2/123/339 261/129/162 259/157/160
f 1/211/336 118/194/400 119/184/404 2/185/340
f 2/123/338 3/88/343 263/90/164 261/129/162
f 2/185/341 119/184/405 120/217/408 3/218/344
f 3/88/342 4/55/347 265/53/166 263/90/164
f 3/218/345 120/217/409 121/220/412 4/223/348
f 4/55/346 5/36/351 267/31/168 265/53/166
f 4/223/349 121/220/413 122/242/416 5/243/352
f 5/36/350 6/19/355 269/18/170 267/31/168
f 5/243/353 122/242/417 123/212/420 6/209/356
f 6/507/354 7/483/359 271/486/172 269/509/170
f 6/209/357 123/212/421 124/156/424 7/154/360
f 7/483/358 8/450/363 273/459/174 271/486/172
f 7/154/361 124/156/425 125/183/428 8/182/364
f 8/450/362 9/406/367 275/404/176 273/459/174
f 8/182/365 125/183/429 126/176/432 9/174/368
f 9/406/366 10/356/371 277/358/178 275/404/176
f 9/174/369 126/176/433 127/181/436 10/178/372
f 10/356/370 11/332/375 279/334/180 277/358/178
f 10/178/373 127/181/437 128/216/440 11/213/376
f 11/332/374 12/301/379 281/302/182 279/334/180
f 11/213/377 128/216/441 129/245/444 12/244/380
f 12/301/378 13/277/383 283/274/184 281/302/182
f 12/131/381 129/137/445 130/177/448 13/175/384
f 13/277/382 14/255/387 285/254/186 283/274/184
f 13/175/385 130/177/449 131/221/452 14/222/388
f 14/255/386 15/226/391 287/228/188 285/254/186
f 14/222/389 131/221/453 132/247/456 15/248/392
f 15/226/390 16/187/395 289/190/190 287/228/188
f 15/248/393 132/247/457 133/198/460 16/214/396
f 16/214/397 133/198/461 118/194/401 1/211/337
f 17/292/1 35/295/19 53/298/37 52/304/36 34/296/18
f 17/168/1 292/164/193 336/151/237 18/153/2
f 18/294/2 36/299/20 35/295/19 17/292/1
f 19/297/3 20/321/4 21/348/5 38/353/22 37/310/21
f 22/43/6 340/44/241 304/26/205 23/29/7
f 22/43/6 386/45/287 340/44/241
f 23/398/7 40/396/24 39/381/23 22/380/6
f 23/29/7 304/26/205 306/8/207 24/13/8
f 24/445/8 41/441/25 40/396/24 23/398/7
f 24/520/8 306/516/207 308/493/209 25/494/9
f 25/482/9 42/475/26 41/441/25 24/445/8
f 25/494/9 308/493/209 310/455/211 26/466/10
f 26/501/10 44/498/28 43/496/27 42/475/26 25/482/9
f 26/466/10 310/455/211 312/416/213 27/422/11
f 27/502/11 45/500/29 44/498/28 26/501/10
f 27/422/11 312/416/213 314/363/215 28/374/12
f 28/499/12 46/497/30 45/500/29 27/502/11
f 28/374/12 314/363/215 316/331/217 29/338/13
f 29/477/13 47/474/31 46/497/30 28/499/12
f 29/338/13 316/331/217 318/307/219 30/311/14
f 30/443/14 48/437/32 47/474/31 29/477/13
f 30/311/14 318/307/219 320/276/221 31/283/15
f 31/395/15 49/394/33 48/437/32 30/443/14
f 31/283/15 320/276/221 322/259/223 32/264/16
f 32/347/16 50/352/34 49/394/33 31/395/15
f 32/264/16 322/259/223 324/232/225 33/241/17
f 33/320/17 51/322/35 50/352/34 32/347/16
f 33/241/17 324/232/225 326/196/227 34/208/18
f 34/296/18 52/304/36 51/322/35 33/320/17
f 34/208/18 326/196/227 292/164/193 17/168/1
f 36/299/20 18/294/2 19/297/3 37/310/21
f 36/299/20 37/310/21 53/298/37 35/295/19
f 38/353/22 21/348/5 22/380/6 39/381/23
f 39/381/23 40/396/24 38/353/22
f 40/396/24 43/496/27 45/500/29 47/474/31
f 40/396/24 51/322/35 53/298/37 37/310/21 38/353/22
f 41/441/25 42/475/26 43/496/27 40/396/24
f 44/498/28 45/500/29 43/496/27
f 47/474/31 45/500/29 46/497/30
f 48/437/32 49/394/33 47/474/31
f 49/394/33 51/322/35 40/396/24 47/474/31
f 51/322/35 49/394/33 50/352/34
f 52/304/36 53/298/37 51/322/35
f 54/155/38 56/125/40 57/124/41 55/161/39
f 54/155/38 259/157/160 261/129/162 56/125/40
f 55/161/39 85/189/69 84/191/68 54/155/38
f 55/161/39 260/159/161 290/192/191 85/189/69
f 56/125/40 58/92/42 59/89/43 57/124/41
f 56/125/40 261/129/162 263/90/164 58/92/42
f 57/124/41 262/127/163 260/159/161 55/161/39
f 58/92/42 60/50/44 61/58/45 59/89/43
f 58/92/42 263/90/164 265/53/166 60/50/44
f 59/89/43 264/94/165 262/127/163 57/124/41
f 60/50/44 62/33/46 63/23/47 61/58/45
f 60/50/44 265/53/166 267/31/168 62/33/46
f 61/58/45 266/52/167 264/94/165 59/89/43
f 62/33/46 64/10/48 65/9/49 63/23/47
f 62/33/46 267/31/168 269/18/170 64/10/48
f 63/23/47 268/24/169 266/52/167 61/58/45
f 64/514/48 66/487/50 67/488/51 65/513/49
f 64/514/48 269/509/170 271/486/172 66/487/50
f 65/9/49 270/14/171 268/24/169 63/23/47
f 66/487/50 68/461/52 69/462/53 67/488/51
f 66/487/50 271/486/172 273/459/174 68/461/52
f 67/488/51 272/490/173 270/511/171 65/513/49
f 68/461/52 70/410/54 71/405/55 69/462/53
f 68/461/52 273/459/174 275/404/176 70/410/54
f 69/462/53 274/456/175 272/490/173 67/488/51
f 70/410/54 72/357/56 73/360/57 71/405/55
f 70/410/54 275/404/176 277/358/178 72/357/56
f 71/405/55 276/418/177 274/456/175 69/462/53
f 72/357/56 74/328/58 75/329/59 73/360/57
f 72/357/56 277/358/178 279/334/180 74/328/58
f 73/360/57 278/361/179 276/418/177 71/405/55
f 74/328/58 76/300/60 77/303/61 75/329/59
f 74/328/58 279/334/180 281/302/182 76/300/60
f 75/329/59 280/330/181 278/361/179 73/360/57
f 76/300/60 78/280/62 79/281/63 77/303/61
f 76/300/60 281/302/182 283/274/184 78/280/62
f 77/303/61 282/306/183 280/330/181 75/329/59
f 78/280/62 80/252/64 81/256/65 79/281/63
f 78/280/62 283/274/184 285/254/186 80/252/64
f 79/281/63 284/278/185 282/306/183 77/303/61
f 80/252/64 82/224/66 83/231/67 81/256/65
f 80/252/64 285/254/186 287/228/188 82/224/66
f 81/256/65 286/250/187 284/278/185 79/281/63
f 82/224/66 84/191/68 85/189/69 83/231/67
f 82/224/66 287/228/188 289/190/190 84/191/68
f 83/231/67 288/229/189 286/250/187 81/256/65
f 84/191/68 289/190/190 259/157/160 54/155/38
f 85/189/69 290/192/191 288/229/189 83/231/67
f 86/162/70 88/133/72 89/132/73 87/163/71
f 86/162/70 291/160/192 294/128/195 88/133/72
f 87/163/71 117/199/101 116/193/100 86/162/70
f 87/163/71 292/164/193 326/196/227 117/199/101
f 88/133/72 90/93/74 91/97/75 89/132/73
f 88/133/72 294/128/195 297/95/198 90/93/74
f 89/132/73 295/134/196 293/152/194 292/164/193 87/163/71
f 90/93/74 92/48/76 93/54/77 91/97/75
f 90/93/74 297/95/198 300/49/201 92/48/76
f 91/97/75 298/91/199 296/114/197 295/134/196 89/132/73
f 92/48/76 94/25/78 95/32/79 93/54/77
f 92/48/76 300/49/201 303/27/204 94/25/78
f 93/54/77 301/56/202 299/79/200 298/91/199 91/97/75
f 94/25/78 96/5/80 97/4/81 95/32/79
f 94/25/78 303/27/204 305/15/206 96/5/80
f 95/32/79 304/26/205 302/41/203 301/56/202 93/54/77
f 96/517/80 98/489/82 99/492/83 97/518/81
f 96/517/80 305/515/206 307/491/208 98/489/82
f 97/4/81 306/8/207 304/26/205 95/32/79
f 98/489/82 100/458/84 101/464/85 99/492/83
f 98/489/82 307/491/208 309/457/210 100/458/84
f 99/492/83 308/493/209 306/516/207 97/518/81
f 100/458/84 102/407/86 103/408/87 101/464/85
f 100/458/84 309/457/210 311/409/212 102/407/86
f 101/464/85 310/455/211 308/493/209 99/492/83
f 102/407/86 104/359/88 105/364/89 103/408/87
f 102/407/86 311/409/212 313/362/214 104/359/88
f 103/408/87 312/416/213 310/455/211 101/464/85
f 104/359/88 106/326/90 107/327/91 105/364/89
f 104/359/88 313/362/214 315/333/216 106/326/90
f 105/364/89 314/363/215 312/416/213 103/408/87
f 106/326/90 108/309/92 109/308/93 107/327/91
f 106/326/90 315/333/216 317/305/218 108/309/92
f 107/327/91 316/331/217 314/363/215 105/364/89
f 108/309/92 110/279/94 111/273/95 109/308/93
f 108/309/92 317/305/218 319/275/220 110/279/94
f 109/308/93 318/307/219 316/331/217 107/327/91
f 110/279/94 112/251/96 113/253/97 111/273/95
f 110/279/94 319/275/220 321/249/222 112/251/96
f 111/273/95 320/276/221 318/307/219 109/308/93
f 112/251/96 114/225/98 115/230/99 113/253/97
f 112/251/96 321/249/222 323/227/224 114/225/98
f 113/253/97 322/259/223 320/276/221 111/273/95
f 114/225/98 116/193/100 117/199/101 115/230/99
f 114/225/98 323/227/224 325/188/226 116/193/100
f 115/230/99 324/232/225 322/259/223 113/253/97
f 116/193/100 325/188/226 291/160/192 86/162/70
f 117/199/101 326/196/227 324/232/225 115/230/99
f 118/340/398 133/318/458 190/315/583 160/339/463
f 134/343/102 193/337/595 226/312/729 159/319/127
f 135/351/103 333/354/234 193/337/597 134/343/102
f 135/351/103 376/355/277 333/354/234
f 137/393/105 138/425/106 373/427/274 374/401/275 334/392/235
f 141/495/109 142/519/110 206/512/651 204/484/640
f 141/495/109 204/484/643 335/472/236 140/473/108
f 143/20/111 144/22/112 208/37/659 206/12/649 142/2/110
f 145/42/113 146/51/114 210/62/667 208/37/657 144/22/112
f 147/96/115 212/98/675 210/62/665 146/51/114
f 148/141/116 149/167/117 216/172/691 214/147/681
f 148/141/116 214/147/683 212/98/673 147/96/115
f 151/207/119 218/210/699 216/172/689 149/167/117 150/180/118
f 152/219/120 153/235/121 220/238/707 218/210/697 151/207/119
f 155/266/123 222/260/715 220/238/705 153/235/121 154/246/122
f 157/289/125 224/282/723 222/260/713 155/266/123 156/270/124
f 159/319/127 226/312/731 224/282/721 157/289/125 158/293/126
f 160/339/465 162/375/473 119/365/403 118/340/399
f 160/339/462 190/315/582 242/313/143 227/341/128
f 161/335/466 191/317/586 225/314/724 192/342/590
f 161/335/468 227/341/128 242/313/143 191/317/588
f 162/375/471 164/412/481 120/419/407 119/365/402
f 163/366/477 228/368/129 227/341/128 161/335/469
f 164/412/479 166/447/489 121/449/411 120/419/406
f 165/415/485 229/413/130 228/368/129 163/366/476
f 166/447/487 168/479/497 122/478/415 121/449/410
f 167/451/493 230/448/131 229/413/130 165/415/484
f 168/479/495 170/504/505 123/503/419 122/478/414
f 169/480/501 231/476/132 230/448/131 167/451/492
f 170/11/503 172/34/513 124/39/423 123/17/418
f 171/506/509 232/508/133 231/476/132 169/480/500
f 172/34/511 174/63/521 125/67/427 124/39/422
f 173/35/517 233/38/134 232/7/133 171/16/508
f 174/63/519 176/101/529 126/105/431 125/67/426
f 175/60/525 234/65/135 233/38/134 173/35/516
f 176/101/527 178/138/537 127/142/435 126/105/430
f 177/99/533 235/104/136 234/65/135 175/60/524
f 178/138/535 180/166/545 128/169/439 127/142/434
f 179/145/541 236/144/137 235/104/136 177/99/532
f 180/166/543 182/201/553 129/200/443 128/169/438
f 181/165/549 237/171/138 236/144/137 179/145/540
f 182/201/551 184/234/561 130/236/447 129/200/442
f 183/202/557 238/205/139 237/171/138 181/165/548
f 184/234/559 186/261/569 131/258/451 130/236/446
f 185/240/565 239/233/140 238/205/139 183/202/556
f 186/261/567 188/288/577 132/287/455 131/258/450
f 187/265/573 240/263/141 239/233/140 185/240/564
f 188/288/575 190/315/585 133/318/459 132/287/454
f 189/284/581 241/290/142 240/263/141 187/265/572
f 191/317/589 242/313/143 241/290/142 189/284/580
f 192/342/591 195/372/603 163/366/475 161/335/467
f 192/342/593 243/336/144 244/369/145 195/372/605
f 193/337/594 243/336/144 258/316/159 226/312/728
f 193/337/598 333/354/234 194/350/600
f 194/349/599 196/367/607 244/369/145 243/336/144 193/337/596
f 195/372/602 198/417/615 165/415/483 163/366/474
f 195/372/604 244/369/145 245/411/146 198/417/617
f 196/367/606 197/390/611 199/420/619 245/411/146 244/369/145
f 198/417/614 200/453/624 167/451/491 165/415/482
f 198/417/616 245/411/146 246/454/147 200/453/626
f 199/421/622 197/391/612 342/414/243
f 199/420/618 201/452/628 246/454/147 245/411/146
f 200/453/623 203/485/636 169/480/499 167/451/490
f 200/453/625 246/454/147 247/481/148 203/485/638
f 201/463/630 381/433/282 343/465/244
f 202/471/634 201/463/629 343/465/244 335/472/236
f 202/471/632 335/472/236 204/484/641
f 203/485/635 205/505/645 171/506/507 169/480/498
f 203/485/637 247/481/148 248/510/149 205/505/647
f 204/484/642 247/481/148 246/454/147 201/452/627 202/470/633
f 205/6/644 207/28/653 173/35/515 171/16/506
f 205/6/646 248/3/149 249/30/150 207/28/655
f 206/512/650 248/510/149 247/481/148 204/484/639
f 207/28/652 209/61/661 175/60/523 173/35/514
f 207/28/654 249/30/150 250/59/151 209/61/663
f 208/37/658 249/30/150 248/3/149 206/12/648
f 209/61/660 211/106/669 177/99/531 175/60/522
f 209/61/662 250/59/151 251/103/152 211/106/671
f 210/62/666 250/59/151 249/30/150 208/37/656
f 211/106/668 213/146/677 179/145/539 177/99/530
f 211/106/670 251/103/152 252/140/153 213/146/679
f 212/98/674 251/103/152 250/59/151 210/62/664
f 213/146/676 215/170/685 181/165/547 179/145/538
f 213/146/678 252/140/153 253/173/154 215/170/687
f 214/147/682 252/140/153 251/103/152 212/98/672
f 215/170/684 217/204/693 183/202/555 181/165/546
f 215/170/686 253/173/154 254/206/155 217/204/695
f 216/172/690 253/173/154 252/140/153 214/147/680
f 217/204/692 219/239/701 185/240/563 183/202/554
f 217/204/694 254/206/155 255/237/156 219/239/703
f 218/210/698 254/206/155 253/173/154 216/172/688
f 219/239/700 221/257/709 187/265/571 185/240/562
f 219/239/702 255/237/156 256/262/157 221/257/711
f 220/238/706 255/237/156 254/206/155 218/210/696
f 221/257/708 223/286/717 189/284/579 187/265/570
f 221/257/710 256/262/157 257/285/158 223/286/719
f 222/260/714 256/262/157 255/237/156 220/238/704
f 223/286/716 225/314/725 191/317/587 189/284/578
f 223/286/718 257/285/158 258/316/159 225/314/727
f 224/282/722 257/285/158 256/262/157 222/260/712
f 225/314/726 258/316/159 243/336/144 192/342/592
f 226/312/730 258/316/159 257/285/158 224/282/720
f 227/341/128 228/368/129 162/375/472 160/339/464
f 228/368/129 229/413/130 164/412/480 162/375/470
f 229/413/130 230/448/131 166/447/488 164/412/478
f 230/448/131 231/476/132 168/479/496 166/447/486
f 231/476/132 232/508/133 170/504/504 168/479/494
f 232/7/133 233/38/134 172/34/512 170/11/502
f 233/38/134 234/65/135 174/63/520 172/34/510
f 234/65/135 235/104/136 176/101/528 174/63/518
f 235/104/136 236/144/137 178/138/536 176/101/526
f 236/144/137 237/171/138 180/166/544 178/138/534
f 237/171/138 238/205/139 182/201/552 180/166/542
f 238/205/139 239/233/140 184/234/560 182/201/550
f 239/233/140 240/263/141 186/261/568 184/234/558
f 240/263/141 241/290/142 188/288/576 186/261/566
f 241/290/142 242/313/143 190/315/584 188/288/574
f 259/157/160 289/190/190 16/187/394 1/158/334
f 260/159/161 262/127/163 294/128/195 291/160/192
f 262/127/163 264/94/165 297/95/198 294/128/195
f 264/94/165 266/52/167 300/49/201 297/95/198
f 266/52/167 268/24/169 303/27/204 300/49/201
f 268/24/169 270/14/171 305/15/206 303/27/204
f 270/511/171 272/490/173 307/491/208 305/515/206
f 272/490/173 274/456/175 309/457/210 307/491/208
f 274/456/175 276/418/177 311/409/212 309/457/210
f 276/418/177 278/361/179 313/362/214 311/409/212
f 278/361/179 280/330/181 315/333/216 313/362/214
f 280/330/181 282/306/183 317/305/218 315/333/216
f 282/306/183 284/278/185 319/275/220 317/305/218
f 284/278/185 286/250/187 321/249/222 319/275/220
f 286/250/187 288/229/189 323/227/224 321/249/222
f 288/229/189 290/192/191 325/188/226 323/227/224
f 291/160/192 325/188/226 290/192/191 260/159/161
f 293/152/194 295/134/196 337/126/238 336/151/237
f 295/134/196 370/115/271 337/126/238
f 298/91/199 299/79/200 368/83/269 338/100/239
f 301/56/202 302/41/203 340/44/241 339/57/240
f 302/41/203 304/26/205 340/44/241
f 327/378/228 364/379/265 388/386/289 363/385/264
f 328/424/229 365/423/266 390/430/291 359/428/260
f 329/460/230 366/446/267 392/444/293 345/467/246
f 330/135/231 337/126/238 370/115/271 354/121/255
f 330/135/231 364/130/265 387/136/288 346/148/247
f 331/87/232 338/100/239 368/83/269 350/85/251
f 332/64/233 339/57/240 340/44/241 386/45/287 347/47/248
f 333/354/234 341/376/242 196/371/610 194/350/601
f 334/392/235 374/401/275 360/397/261 362/384/263 375/388/276
f 334/392/235 375/388/276 136/377/104 137/393/105
f 335/472/236 371/469/272 140/473/108
f 336/151/237 292/164/193 293/152/194
f 336/151/237 385/150/286 18/153/2
f 338/100/239 331/87/232 352/111/253 369/112/270
f 338/100/239 369/112/270 296/114/197 298/91/199
f 339/57/240 332/64/233 348/74/249 367/72/268
f 339/57/240 367/72/268 301/56/202
f 341/376/242 384/382/285 196/371/608
f 342/414/243 197/391/613 196/371/609 384/382/285 383/402/284
f 342/414/243 382/426/283 199/421/620
f 342/414/243 383/402/284 361/399/262 328/424/229
f 343/465/244 381/433/282 357/436/258 329/460/230
f 344/370/245 376/355/277 375/388/276 362/384/263
f 344/370/245 387/373/288 364/379/265 327/378/228
f 345/467/246 371/469/272 335/472/236 343/465/244 329/460/230
f 345/467/246 392/444/293 393/442/294 356/440/257
f 346/148/247 385/150/286 336/151/237 337/126/238 330/135/231
f 346/148/247 387/136/288 396/120/297 355/122/256
f 347/47/248 386/45/287 377/77/278 349/71/250
f 347/47/248 392/68/293 366/69/267 332/64/233
f 348/74/249 391/75/292 390/84/291 350/85/251
f 349/71/250 377/77/278 378/82/279 351/81/252
f 349/71/250 393/73/294 392/68/293 347/47/248
f 350/85/251 368/83/269 367/72/268 348/74/249
f 350/85/251 390/84/291 365/86/266 331/87/232
f 351/81/252 378/82/279 379/113/280 353/108/254
f 351/81/252 394/80/295 393/73/294 349/71/250
f 352/111/253 389/110/290 388/118/289 354/121/255
f 353/108/254 379/113/280 380/119/281 355/122/256
f 353/108/254 395/109/296 394/80/295 351/81/252
f 354/121/255 370/115/271 369/112/270 352/111/253
f 354/121/255 388/118/289 364/130/265 330/135/231
f 355/122/256 380/119/281 385/150/286 346/148/247
f 355/122/256 396/120/297 395/109/296 353/108/254
f 356/440/257 393/442/294 394/431/295 358/429/259
f 357/436/258 381/433/282 382/426/283 359/428/260
f 357/436/258 391/434/292 366/446/267 329/460/230
f 358/429/259 373/427/274 372/439/273 356/440/257
f 358/429/259 394/431/295 395/403/296 360/397/261
f 359/428/260 382/426/283 342/414/243 328/424/229
f 359/428/260 390/430/291 391/434/292 357/436/258
f 360/397/261 374/401/275 373/427/274 358/429/259
f 360/397/261 395/403/296 396/383/297 362/384/263
f 361/399/262 383/402/284 384/382/285 363/385/264
f 361/399/262 389/400/290 365/423/266 328/424/229
f 362/384/263 396/383/297 387/373/288 344/370/245
f 363/385/264 384/382/285 341/376/242 327/378/228
f 363/385/264 388/386/289 389/400/290 361/399/262
f 365/86/266 389/110/290 352/111/253 331/87/232
f 366/69/267 391/75/292 348/74/249 332/64/233
f 368/83/269 299/79/200 301/56/202 367/72/268
f 370/115/271 295/134/196 296/114/197 369/112/270
f 371/469/272 345/467/246 356/440/257 372/439/273
f 372/439/273 139/468/107 140/473/108 371/469/272
f 373/427/274 138/425/106 139/468/107 372/439/273
f 376/355/277 135/351/103 136/377/104 375/388/276
f 376/355/277 344/370/245 327/378/228 341/376/242 333/354/234
f 377/77/278 21/66/5 20/102/4 378/82/279
f 378/82/279 20/102/4 379/113/280
f 379/113/280 20/102/4 19/143/3 380/119/281
f 380/119/281 19/143/3 18/153/2 385/150/286
f 381/433/282 201/463/631 199/421/621 382/426/283
f 386/45/287 22/43/6 21/66/5 377/77/278
g Barell_garbage
usemtl garbage
f 397/521/298 414/432/315 413/387/314 398/435/299
f 398/435/299 413/387/314 399/389/300
f 399/389/300 417/323/318 400/324/301
f 400/324/301 417/323/318 425/268/326 401/269/302
f 401/269/302 425/268/326 429/203/330 402/179/303
f 402/179/303 429/203/330 421/116/322 403/70/304
f 403/70/304 421/116/322 404/40/305
f 404/40/305 415/46/316 405/21/306
f 404/40/305 421/116/322 422/117/323 415/46/316
f 405/21/306 415/46/316 416/78/317 406/1/307
f 406/1/307 416/78/317 407/76/308
f 407/76/308 424/149/325 408/107/309
f 408/107/309 424/149/325 432/195/333 409/186/310
f 409/186/310 432/195/333 428/272/329 410/291/311
f 410/291/311 428/272/329 420/345/321 411/346/312
f 411/346/312 420/345/321 412/438/313
f 412/438/313 414/432/315 397/521/298
f 412/438/313 420/345/321 419/344/320 414/432/315
f 413/387/314 418/325/319 417/323/318 399/389/300
f 414/432/315 419/344/320 418/325/319 413/387/314
f 415/46/316 422/117/323 423/139/324 416/78/317
f 416/78/317 423/139/324 424/149/325 407/76/308
f 418/325/319 426/267/327 425/268/326 417/323/318
f 419/344/320 427/271/328 426/267/327 418/325/319
f 420/345/321 428/272/329 427/271/328 419/344/320
f 421/116/322 429/203/330 430/197/331 422/117/323
f 422/117/323 430/197/331 431/215/332 423/139/324
f 423/139/324 431/215/332 432/195/333 424/149/325
f 426/267/327 430/197/331 429/203/330 425/268/326
f 427/271/328 431/215/332 430/197/331 426/267/327
f 428/272/329 432/195/333 431/215/332 427/271/328
