# Exported from Wings 3D 1.0.2
mtllib Barrel2.mtl
o Barell2
#289 vertices, 274 faces
v 0.96857404 1.41643528 -7.5270753e-3
v 0.89854300 1.40178355 0.36739726
v 0.68039292 1.40580531 0.66157514
v 0.36972995 1.40791553 0.89790436
v -1.3826987e-2 1.42085276 0.98138567
v -0.37770590 1.42370229 0.89324493
v -0.69785269 1.42521663 0.67377881
v -0.90169889 1.43511182 0.36671880
v -0.96126620 1.41668738 4.6353503e-3
v -0.91962655 1.42026010 -0.37923437
v -0.68437156 1.41401718 -0.69880652
v -0.36445742 1.40927079 -0.90553709
v -3.7487587e-3 1.41255714 -0.98214457
v 0.37167451 1.42701484 -0.90826378
v 0.70086709 1.42594943 -0.71044113
v 0.87924138 1.42198777 -0.39802419
v 0.95279897 -1.44485369 -3.7489931e-3
v 0.89457271 -1.45183791 0.37264381
v 0.68142415 -1.42548842 0.68833117
v 0.37123285 -1.43059773 0.89496787
v 4.2222467e-3 -1.44042981 0.97536634
v -0.36403155 -1.44179615 0.90905939
v -0.70250530 -1.44440200 0.69784501
v -0.91358724 -1.43623854 0.36805779
v -0.99381956 -1.43974110 -2.3186931e-2
v -0.91058290 -1.43596040 -0.37208554
v -0.68047580 -1.43825384 -0.71053737
v -0.37233588 -1.42087804 -0.89937168
v 2.7719691e-3 -1.41919800 -0.98424274
v 0.36100472 -1.43049866 -0.90162902
v 0.68572973 -1.43118659 -0.69006820
v 0.89805961 -1.44528174 -0.37961863
v 0.97930818 0.32249563 -1.2047747e-2
v 0.98669801 0.68255928 -4.7276516e-3
v 0.99219175 -0.33350008 -2.4731315e-2
v 0.97108715 -0.72463968 -1.7968804e-2
v 0.91636599 0.31500262 0.37947997
v 0.90504750 0.72172547 0.38198002
v 0.90555769 -0.32581358 0.36800911
v 0.92264186 -0.71341703 0.37470876
v 0.69614167 0.30732455 0.69342448
v 0.68323283 0.68293638 0.68900842
v 0.68700002 -0.32698641 0.68294705
v 0.70983488 -0.74116852 0.70253157
v 0.36693141 0.70735603 0.91553339
v 0.38311192 0.33992434 0.91780267
v 0.37438996 -0.33407282 0.90475818
v 0.37291526 -0.72279788 0.91712787
v -6.9502167e-3 0.32403292 0.97853725
v -1.6650926e-2 0.70255818 0.98478994
v -9.6643691e-3 -0.32853275 0.98455548
v -8.8453920e-3 -0.70434917 0.97555903
v -0.37145831 0.72006542 0.90724803
v -0.39315775 0.31367000 0.92305753
v -0.39212038 -0.32513811 0.89258780
v -0.37990890 -0.72502506 0.92112868
v -0.69958926 0.31466335 0.68012973
v -0.70904039 0.70593967 0.69099691
v -0.71623286 -0.33256590 0.69113825
v -0.69571342 -0.71728906 0.70044750
v -0.91501629 0.31645601 0.37282344
v -0.93319739 0.71226793 0.36229197
v -0.91792594 -0.31759052 0.36781275
v -0.93782305 -0.70904565 0.36353549
v -0.98545464 0.70669529 -5.7450943e-3
v -0.99481184 0.32884690 1.9584434e-2
v -1.00067541 -0.33646034 -1.5746478e-2
v -0.99144288 -0.71965153 -5.1157289e-3
v -0.91739946 0.70049558 -0.38686152
v -0.91615847 0.31148653 -0.38458481
v -0.92048060 -0.32948525 -0.38801115
v -0.90315572 -0.72937486 -0.38627880
v -0.70452674 0.29168484 -0.71006453
v -0.71180089 0.70369519 -0.68853141
v -0.71371941 -0.33403600 -0.70211387
v -0.69307316 -0.72036079 -0.69353915
v -0.39400685 0.70428050 -0.92834270
v -0.39384008 0.32724175 -0.92112557
v -0.40178885 -0.32419475 -0.91129851
v -0.38647094 -0.72131914 -0.92028533
v -1.0606837e-2 0.32279864 -1.00178185
v 1.1324799e-2 0.71180224 -1.00634730
v 1.0039301e-2 -0.32460503 -0.98658814
v -1.1086648e-2 -0.70892403 -0.97798505
v 0.36257583 0.69987271 -0.92755834
v 0.36880059 0.31104744 -0.91483681
v 0.37289094 -0.33108665 -0.90844816
v 0.37478887 -0.70898393 -0.92425103
v 0.68294589 0.30720224 -0.70037526
v 0.69968733 0.69641426 -0.70558623
v 0.71468339 -0.33284024 -0.69893001
v 0.69023747 -0.71827728 -0.72783750
v 0.92078342 0.31817050 -0.38041160
v 0.91298803 0.70535374 -0.38133867
v 0.90118609 -0.34212318 -0.39153087
v 0.90245549 -0.72336235 -0.38310741
v 0.87812581 1.54507430 0.35513325
v 0.93895294 1.55621828 -2.7412562e-3
v 0.89268628 1.56312633 -0.36469595
v 0.67866503 1.56758025 -0.67585456
v 0.35819977 1.55963156 -0.89551018
v -8.8424117e-3 1.56471119 -0.96350785
v -0.35914014 1.55481748 -0.89587306
v -0.68193686 1.54209883 -0.68732472
v -0.89344817 1.55281725 -0.37386971
v -0.97220671 1.54931123 -2.8028883e-3
v -0.90291745 1.54973756 0.36597977
v -0.68869500 1.55750984 0.67432602
v -0.37337272 1.54677991 0.89118342
v -2.5165352e-3 1.56413371 0.94738139
v 0.34974950 1.55959181 0.87527761
v 0.67133144 1.55992941 0.68715689
v 0.95191211 -1.55951531 8.4002331e-3
v 0.88301276 -1.57133694 0.35281824
v 0.67639660 -1.56283995 0.66974481
v 0.37533802 -1.56544703 0.88868167
v -1.3332443e-3 -1.57128924 0.96669089
v -0.37417971 -1.56854175 0.86357736
v -0.68943892 -1.57436018 0.67701689
v -0.89474072 -1.57371284 0.37110573
v -0.96720330 -1.56196356 -2.6238265e-2
v -0.90050266 -1.56020542 -0.38588887
v -0.69588617 -1.55968028 -0.69261555
v -0.36689990 -1.56215014 -0.89687973
v 5.0766956e-3 -1.56595523 -0.96219127
v 0.35813511 -1.56088171 -0.89050668
v 0.69433613 -1.56304674 -0.68163804
v 0.88532287 -1.57323163 -0.36994329
v 1.00175643 0.58337187 7.0225998e-4
v 1.00654018 -0.45155242 -3.5987241e-3
v 0.92823639 0.57950856 0.38687623
v 0.92610873 -0.46409670 0.37919941
v 0.70750395 0.57660759 0.70871491
v 0.69268531 -0.45887843 0.69186065
v 0.38712890 0.56986046 0.91824031
v 0.38597349 -0.45951036 0.92884626
v 1.6163268e-4 0.57562445 1.00234053
v -8.5883882e-4 -0.44743661 1.01483226
v -0.38729392 0.56176182 0.93562589
v -0.38069325 -0.45978771 0.93384832
v -0.73235819 0.56875616 0.70554986
v -0.74123264 -0.46423693 0.69912769
v -0.94734410 0.58489424 0.37310454
v -0.95127960 -0.45252525 0.38921501
v -1.01495585 0.56152202 6.1400397e-4
v -1.02307802 -0.45883457 -2.8849675e-3
v -0.95794216 0.58204609 -0.40473071
v -0.94063933 -0.45303496 -0.38888749
v -0.71972793 0.58415837 -0.72860995
v -0.72769352 -0.45434827 -0.72249386
v -0.38110359 0.58763745 -0.94437139
v -0.39821375 -0.45632083 -0.92971987
v -1.1967987e-3 0.57507134 -1.00481040
v -1.7300283e-2 -0.44666117 -1.00381271
v 0.38507546 0.57636886 -0.93854144
v 0.38994928 -0.45546206 -0.94415393
v 0.69441449 0.57402986 -0.72319095
v 0.70964951 -0.44910181 -0.71514695
v 0.93034542 0.57569328 -0.39084073
v 0.91241442 -0.46370774 -0.38876781
v 1.02862045 0.50306930 -1.3797601e-2
v 0.99738735 0.42853060 1.3156498e-2
v 1.03167486 -0.52256905 -8.2666746e-4
v 0.99534653 -0.57613846 -2.4669031e-2
v 0.96346386 0.51423496 0.39511537
v 0.92803698 0.42101935 0.38586720
v 0.93903497 -0.52057609 0.39131486
v 0.91686400 -0.58520270 0.37367220
v 0.72495721 0.50961785 0.72381979
v 0.70885251 0.46527828 0.70653652
v 0.72504950 -0.51863332 0.73827432
v 0.70336898 -0.58333840 0.70416670
v 0.37924049 0.49540656 0.96035997
v 0.37635135 0.42619452 0.92631868
v 0.39159292 -0.52241606 0.93993491
v 0.39099495 -0.58986139 0.92188162
v -1.0510969e-2 0.49704528 1.04061813
v 6.6810860e-3 0.43384726 1.01031883
v 4.1074066e-3 -0.51504471 1.02668780
v -3.5380107e-3 -0.56980852 0.99877122
v -0.41144546 0.51417085 0.94855375
v -0.39345452 0.43719537 0.92171622
v -0.40190608 -0.53513881 0.95791582
v -0.40921403 -0.56374576 0.92671595
v -0.72887937 0.49518649 0.71860210
v -0.71952848 0.43074581 0.70817549
v -0.72561170 -0.51574910 0.72244748
v -0.71823105 -0.58503767 0.69245632
v -0.96941860 0.51269369 0.38773916
v -0.93052033 0.44627675 0.37028215
v -0.95985815 -0.51884738 0.39831744
v -0.93657285 -0.59331390 0.38924785
v -1.04920470 0.50089672 -2.0476475e-2
v -1.01962551 0.43670856 -1.1191347e-3
v -1.03066851 -0.51993786 -1.2082652e-2
v -1.01742109 -0.60041587 -5.5466782e-3
v -0.95366866 0.51371530 -0.39105069
v -0.94991294 0.45862441 -0.40589538
v -0.96389639 -0.53132541 -0.40140108
v -0.93345603 -0.58283419 -0.39562398
v -0.73298537 0.50118582 -0.74799803
v -0.72371431 0.42560782 -0.72685644
v -0.74073419 -0.51500088 -0.74945678
v -0.71439545 -0.58702485 -0.72122416
v -0.39352539 0.51471218 -0.96319999
v -0.39653141 0.44930711 -0.93307546
v -0.41115291 -0.50653484 -0.96362644
v -0.39621108 -0.58794242 -0.93948155
v -1.3060093e-2 0.50509053 -1.02678368
v -7.2816638e-4 0.44575003 -1.01654215
v 7.0489210e-3 -0.52776882 -1.05140788
v 9.3582272e-3 -0.59595506 -1.00202310
v 0.38797403 0.51016538 -0.96287063
v 0.38294535 0.44902911 -0.93026260
v 0.38965393 -0.52663713 -0.96472822
v 0.37546364 -0.59634578 -0.93992301
v 0.72498369 0.52400587 -0.75535881
v 0.71068962 0.44248557 -0.72064914
v 0.72221890 -0.52701566 -0.73319833
v 0.70901034 -0.58055985 -0.70859387
v 0.94972420 0.50863444 -0.41046318
v 0.91170342 0.44187756 -0.39425490
v 0.95291442 -0.52853092 -0.39402478
v 0.92234652 -0.58407580 -0.39001784
v -1.5145461e-2 -1.58438653 -9.3816278e-3
v 0.97892939 1.56908179 -7.3860315e-4
v 0.91350145 1.57045683 0.37691182
v 0.69067054 1.58426555 0.70664601
v 0.37617927 1.56818138 0.89777785
v -4.7716297e-3 1.56857852 0.99493086
v -0.38131833 1.57519632 0.91405679
v -0.71232395 1.57061017 0.69348721
v -0.92546272 1.57615625 0.37551166
v -0.99910629 1.56609406 -5.1953310e-4
v -0.91328253 1.56869429 -0.38687621
v -0.69689090 1.58048082 -0.70798008
v -0.38195202 1.56525641 -0.91660337
v -5.7517846e-3 1.57531628 -0.99598692
v 0.38000781 1.57112746 -0.91585109
v 0.70791303 1.57890662 -0.70382939
v 0.91641666 1.56601723 -0.37971877
v 0.99039993 1.52900400 -3.3070095e-3
v 0.90864548 1.52472083 0.38012875
v 0.70659846 1.52020110 0.69831408
v 0.37082048 1.53380063 0.91230592
v 5.7444338e-4 1.51664291 0.98850689
v -0.37887246 1.52382903 0.91318979
v -0.70355204 1.52727099 0.70927351
v -0.91040632 1.52391333 0.38052674
v -0.98977507 1.51739578 -6.8531559e-3
v -0.91943331 1.53068233 -0.37707229
v -0.69339870 1.52656323 -0.70819890
v -0.37601650 1.52257179 -0.92014784
v -4.7304164e-3 1.51990882 -1.00293061
v 0.38106300 1.52091832 -0.91923590
v 0.69311362 1.52884244 -0.70560337
v 0.91411113 1.53097053 -0.37860960
v 0.95035044 1.58261865 -1.3376614e-2
v 0.87438739 1.56536694 -0.36491715
v 0.66826711 1.57249895 -0.67563563
v 0.37168015 1.56114731 -0.88581556
v 4.2041062e-3 1.57296047 -0.96255896
v -0.35813882 1.57088603 -0.88179142
v -0.67941083 1.56924420 -0.68391841
v -0.87767502 1.57345113 -0.37338872
v -0.95897103 1.56720685 -1.0441167e-2
v -0.89011496 1.56208808 0.36608149
v -0.67880579 1.56830377 0.66702407
v -0.36989070 1.56492620 0.87647443
v -4.3388697e-4 1.57514118 0.95167221
v 0.36164786 1.56451323 0.88304695
v 0.67094109 1.56440670 0.68438686
v 0.87451173 1.57145924 0.35352285
v 0.82545051 1.54556701 2.5172349e-3
v 0.76645983 1.54839133 -0.32665359
v 0.57335812 1.54271391 -0.60293602
v 0.31361433 1.55615443 -0.77863326
v -8.5112159e-3 1.55931138 -0.83050561
v -0.31874090 1.55120115 -0.77030343
v -0.58737003 1.55510713 -0.59370137
v -0.76936781 1.55458500 -0.32114592
v -0.84075898 1.55263621 -4.8270057e-3
v -0.77980194 1.54697514 0.31992619
v -0.59890497 1.55627745 0.59087816
v -0.31715140 1.56149554 0.76508507
v -1.9077877e-3 1.56230021 0.83146885
v 0.31163099 1.54541409 0.77337392
v 0.58476358 1.54949884 0.58800336
v 0.77185911 1.54249193 0.30720876
vt 1.1152535e-2 0.41692631
vt 1.2776568e-2 0.43072466
vt 1.3935783e-2 0.40591512
vt 1.4540011e-2 0.37550719
vt 1.4807386e-2 0.45576931
vt 1.5491552e-2 0.41989439
vt 1.5670549e-2 0.59774468
vt 1.7067791e-2 0.22500704
vt 1.7265392e-2 0.20889800
vt 1.7328185e-2 0.17656574
vt 1.8060110e-2 0.20187957
vt 1.8094381e-2 0.40045230
vt 1.8224126e-2 0.24945912
vt 1.8290467e-2 0.22730695
vt 1.8300447e-2 0.43423921
vt 1.8406204e-2 0.62431705
vt 1.8478899e-2 0.37960666
vt 1.8503316e-2 0.25474167
vt 1.8933616e-2 0.21572598
vt 2.0003110e-2 0.19749040
vt 2.0571402e-2 0.46240557
vt 2.0628783e-2 8.8182562e-3
vt 2.1247880e-2 0.59610427
vt 2.1748029e-2 0.62461588
vt 2.2107005e-2 3.2585773e-2
vt 2.2999085e-2 0.16848715
vt 2.4413761e-2 3.0987235e-2
vt 2.8536515e-2 6.9190885e-3
vt 7.3865899e-2 0.73766395
vt 7.6878226e-2 0.72518379
vt 8.6840059e-2 0.45546552
vt 9.0769334e-2 0.39991085
vt 9.1255117e-2 0.43125098
vt 9.1425271e-2 0.37330311
vt 9.1856018e-2 0.25059783
vt 9.2217330e-2 0.41487909
vt 9.2794993e-2 0.17156555
vt 9.2981234e-2 0.62045280
vt 9.3054567e-2 0.25516923
vt 9.3134080e-2 0.37837789
vt 9.3252688e-2 0.40909706
vt 9.3315401e-2 0.22700625
vt 9.3386530e-2 0.59589274
vt 9.3409074e-2 0.41863677
vt 9.3429548e-2 0.22994010
vt 9.3635659e-2 0.20135448
vt 9.3785559e-2 0.59510710
vt 9.3863268e-2 0.43208671
vt 9.4672646e-2 1.1991158e-2
vt 9.4731925e-2 0.45359459
vt 9.5257636e-2 0.21509897
vt 9.5492595e-2 0.17273306
vt 9.5509040e-2 0.21460201
vt 9.5592447e-2 0.19935893
vt 9.6238484e-2 3.9032890e-2
vt 9.8664372e-2 0.62645514
vt 0.10029157 9.3927208e-3
vt 0.10398007 3.3148181e-2
vt 0.12359921 0.71499428
vt 0.12588152 0.69748910
vt 0.13239724 0.72115361
vt 0.13623959 0.70242248
vt 0.15004810 0.71159702
vt 0.15085963 0.72993541
vt 0.16478810 0.45540604
vt 0.16501326 0.38123785
vt 0.16511338 0.25411882
vt 0.16513390 0.40495749
vt 0.16637017 0.20218563
vt 0.16730494 0.21562642
vt 0.16731559 0.43105663
vt 0.16750249 0.22798476
vt 0.16761291 0.22846574
vt 0.16764247 0.41838365
vt 0.16767604 1.1935632e-2
vt 0.16780729 0.38433483
vt 0.16784843 0.25302250
vt 0.16790405 0.21685118
vt 0.16841501 0.43283115
vt 0.16864206 0.59346022
vt 0.16883235 3.8381235e-2
vt 0.16902270 0.62226641
vt 0.16905311 0.20069527
vt 0.16960939 0.17621615
vt 0.16965945 0.40100290
vt 0.16978456 0.17466119
vt 0.17018792 0.59494700
vt 0.17067298 0.45774623
vt 0.17164491 0.41542009
vt 0.17274547 0.62563889
vt 0.17403410 3.8786597e-2
vt 0.17459397 0.72292779
vt 0.17558977 1.1279333e-2
vt 0.17609832 0.73924613
vt 0.23151916 0.72627512
vt 0.23184302 0.71660125
vt 0.23972730 0.62433750
vt 0.24072479 0.41692934
vt 0.24091012 0.59413717
vt 0.24135578 0.23190442
vt 0.24143939 0.38140979
vt 0.24163100 0.40263372
vt 0.24226349 0.21753042
vt 0.24228911 3.6539805e-2
vt 0.24280603 0.43104874
vt 0.24284671 0.43178780
vt 0.24311373 0.23038923
vt 0.24314242 0.40541260
vt 0.24316430 0.17763430
vt 0.24337224 1.0757690e-2
vt 0.24357699 0.20594666
vt 0.24416723 0.38078670
vt 0.24452611 0.17967300
vt 0.24473122 0.25391180
vt 0.24484193 0.41557973
vt 0.24488848 0.45755214
vt 0.24502499 0.62502899
vt 0.24609499 0.21482203
vt 0.24622559 0.45636927
vt 0.24639368 0.25544294
vt 0.24670209 0.19954431
vt 0.24684894 0.59611212
vt 0.24737791 0.71435182
vt 0.24810808 0.71018108
vt 0.24829629 4.0740249e-2
vt 0.24927144 1.2087454e-2
vt 0.25000048 0.72419443
vt 0.25090619 0.72737395
vt 0.27500871 0.73977763
vt 0.27689466 0.72199273
vt 0.30727412 0.72469863
vt 0.30898823 0.71054512
vt 0.31400572 0.62415452
vt 0.31463534 0.45617948
vt 0.31504453 3.6830086e-2
vt 0.31572777 0.59774060
vt 0.31635924 0.22841599
vt 0.31679308 0.45917657
vt 0.31697316 0.20112587
vt 0.31708171 0.17563160
vt 0.31719360 0.41901950
vt 0.31731396 0.42807242
vt 0.31735654 0.37916109
vt 0.31744611 0.21527000
vt 0.31814003 0.43222284
vt 0.31816649 0.17930956
vt 0.31817833 0.21344113
vt 0.31850636 0.25410419
vt 0.31864549 0.40605577
vt 0.31889882 0.22906218
vt 0.31920884 3.9714792e-2
vt 0.31936332 0.62045876
vt 0.31940143 0.40263320
vt 0.31940874 0.37901410
vt 0.31974915 0.59627260
vt 0.31975761 1.4287867e-2
vt 0.32005049 1.0883516e-2
vt 0.32041060 0.41826705
vt 0.32134479 0.25496086
vt 0.32177524 0.20643075
vt 0.34430244 0.72600708
vt 0.34634543 0.70911620
vt 0.34748224 0.72682607
vt 0.34848583 0.70736075
vt 0.37327057 0.72658300
vt 0.37672854 0.71179677
vt 0.38975980 0.42122431
vt 0.38980294 0.43344983
vt 0.38980952 0.17801139
vt 0.39045649 0.59811819
vt 0.39145148 0.37831368
vt 0.39166013 0.17705945
vt 0.39176574 0.62693499
vt 0.39246917 0.40498374
vt 0.39247547 3.5802413e-2
vt 0.39263834 0.45683367
vt 0.39274502 0.21697932
vt 0.39325683 0.21591081
vt 0.39338468 9.8014004e-3
vt 0.39392758 0.23127917
vt 0.39392772 0.41533914
vt 0.39411632 0.40274585
vt 0.39416240 0.62182761
vt 0.39430206 3.9889451e-2
vt 0.39460165 0.45630696
vt 0.39482769 0.20454352
vt 0.39535676 0.37924966
vt 0.39537824 0.59609414
vt 0.39570152 0.20278099
vt 0.39573492 0.25265773
vt 0.39598925 0.42940166
vt 0.39647956 0.25381375
vt 0.39660948 1.4220646e-2
vt 0.39784632 0.22685539
vt 0.39951268 0.72348821
vt 0.40103668 0.70726175
vt 0.43241605 0.73322198
vt 0.43306760 0.71959574
vt 0.46054295 0.59866516
vt 0.46544501 0.41988763
vt 0.46581531 0.40502072
vt 0.46620573 0.25273202
vt 0.46670935 9.7195664e-3
vt 0.46687361 0.62054040
vt 0.46690537 0.59835467
vt 0.46700327 0.62674484
vt 0.46716646 3.6828592e-2
vt 0.46743370 0.43343109
vt 0.46759664 0.22939084
vt 0.46774030 0.45874903
vt 0.46780810 1.1855415e-2
vt 0.46784601 0.20111109
vt 0.46796223 0.21597802
vt 0.46797233 0.17663033
vt 0.46820555 0.20356895
vt 0.46874951 0.37961940
vt 0.46879886 3.6967418e-2
vt 0.46895024 0.22861749
vt 0.46905131 0.38107618
vt 0.46965350 0.21527113
vt 0.47012666 0.41946071
vt 0.47033623 0.25561760
vt 0.47034371 0.40476553
vt 0.47091298 0.43375594
vt 0.47145188 0.45825255
vt 0.47248489 0.17871051
vt 0.47507393 0.70178464
vt 0.47571608 0.71867130
vt 0.49918138 0.74919758
vt 0.50209630 0.73126723
vt 0.53814647 0.59607277
vt 0.53889014 0.59865501
vt 0.53907409 0.20498333
vt 0.53910865 0.62185465
vt 0.53924224 0.62665247
vt 0.53945246 0.38275919
vt 0.53951013 0.25404188
vt 0.54008511 0.17594817
vt 0.54086170 3.5853066e-2
vt 0.54166395 0.41925150
vt 0.54201045 0.38249141
vt 0.54232687 0.43023674
vt 0.54277449 0.45515763
vt 0.54279754 1.3480617e-2
vt 0.54302788 0.40416176
vt 0.54316972 0.45853114
vt 0.54325516 0.23112886
vt 0.54363965 0.21705244
vt 0.54416675 0.43555829
vt 0.54523671 0.22786190
vt 0.54561035 0.17616533
vt 0.54579335 0.20018020
vt 0.54648578 0.41739727
vt 0.54664365 3.5207105e-2
vt 0.54670524 1.0690792e-2
vt 0.54673513 0.40368737
vt 0.54704496 0.21597439
vt 0.54752575 0.25218823
vt 0.56642776 0.77373445
vt 0.56724566 0.77687236
vt 0.57512002 0.77591965
vt 0.58304628 0.69201553
vt 0.58391778 0.85750544
vt 0.58391853 0.85774378
vt 0.58467408 0.69410512
vt 0.59113997 0.69460584
vt 0.59175141 0.85465288
vt 0.60097855 0.77499788
vt 0.61095571 0.62677345
vt 0.61111238 9.7161700e-3
vt 0.61226221 0.62455105
vt 0.61295573 0.59843736
vt 0.61358808 0.59822622
vt 0.61490863 0.70501396
vt 0.61495792 3.3086396e-2
vt 0.61572318 0.84350591
vt 0.61688652 3.4109380e-2
vt 0.61723542 0.17697834
vt 0.61760975 0.20210256
vt 0.61815266 0.45918759
vt 0.61823929 0.25482824
vt 0.61895864 0.22723499
vt 0.61896993 0.42133164
vt 0.61925291 9.3176164e-3
vt 0.62003213 0.46497587
vt 0.62005352 0.38072992
vt 0.62011411 0.38105187
vt 0.62036814 0.21569093
vt 0.62079443 0.43478575
vt 0.62089071 0.43662146
vt 0.62098961 0.40213908
vt 0.62151058 0.42191597
vt 0.62215361 0.41058188
vt 0.62226854 0.23015889
vt 0.62245988 0.25474090
vt 0.62266762 0.17271223
vt 0.62388495 0.20215406
vt 0.62392531 0.21398676
vt 0.62533622 0.24479831
vt 0.62759641 0.62478691
vt 0.63014840 0.62489823
vt 0.63016041 0.92787654
vt 0.63180113 0.92803986
vt 0.63427210 0.92235415
vt 0.63728881 0.63053731
vt 0.63807120 0.31743567
vt 0.63823353 0.17939735
vt 0.65434614 0.64692241
vt 0.65450958 0.90275781
vt 0.67482223 0.37723779
vt 0.67707710 0.11844036
vt 0.69793480 0.97330429
vt 0.69920584 0.97395984
vt 0.70020115 0.57830053
vt 0.70133103 0.57674679
vt 0.70324504 0.96579616
vt 0.70395139 0.58528055
vt 0.71222004 0.94151111
vt 0.71538743 0.60980451
vt 0.73481762 7.6060645e-2
vt 0.73942310 0.41679137
vt 0.77910778 0.95531816
vt 0.77947419 0.99185155
vt 0.78014972 0.56091948
vt 0.78169249 0.98448612
vt 0.78256857 0.99190983
vt 0.78318585 0.56056091
vt 0.78327635 0.59587893
vt 0.78396196 0.56988779
vt 0.80684174 0.43014610
vt 0.80727802 6.0918823e-2
vt 0.81029109 0.24774292
vt 0.84896180 0.94535232
vt 0.85076044 0.60902790
vt 0.86110382 0.96837248
vt 0.86165625 0.58496475
vt 0.86231534 0.57728739
vt 0.86282810 0.97404993
vt 0.86287485 0.97515346
vt 0.86485626 0.58171258
vt 0.87773844 0.41755281
vt 0.87887874 8.0612271e-2
vt 0.90512313 0.90749136
vt 0.90945201 0.64956965
vt 0.92602333 0.92415516
vt 0.92829928 0.62865315
vt 0.93140415 0.92828796
vt 0.93306644 0.62115038
vt 0.93353302 0.62294138
vt 0.93467431 0.93046487
vt 0.93915453 0.11630441
vt 0.94081235 0.37873883
vt 0.94767453 0.84806351
vt 0.94962779 0.71066181
vt 0.96067666 0.77672015
vt 0.97129344 0.85667064
vt 0.97269548 0.70030448
vt 0.97787485 0.69250230
vt 0.97844883 0.17464520
vt 0.98012974 0.31980065
vt 0.98040034 0.85999879
vt 0.98046513 0.85673978
vt 0.98122240 0.69518571
vt 0.98874386 0.78059345
vt 0.99291966 0.25035518
vt 0.99539377 0.77640843
vt 0.99562620 0.77792293
vn 0.99690960 7.8527935e-2 -2.1474842e-3
vn 0.91783495 7.0547836e-2 0.39064308
vn 0.70666725 3.8151704e-2 0.70651670
vn 0.39785774 7.0253278e-2 0.91475335
vn -3.8500442e-3 9.1823125e-2 0.99576789
vn -0.39152910 5.3326309e-2 0.91861922
vn -0.70622193 2.8383216e-2 0.70742136
vn -0.92890819 1.2996731e-2 0.37008196
vn -0.99983586 1.6886120e-2 6.5658502e-3
vn -0.92606230 5.4442025e-2 -0.37342292
vn -0.69679407 6.3482237e-2 -0.71445645
vn -0.38569398 6.0688387e-2 -0.92062863
vn -1.9172230e-3 7.0923721e-2 -0.99747990
vn 0.36999755 9.3258322e-2 -0.92434014
vn 0.70767422 9.7483663e-2 -0.69978149
vn 0.92863721 7.0227129e-2 -0.36428160
vn 0.99901045 -4.4372514e-2 -3.0343952e-3
vn 0.92965071 -6.7478932e-2 0.36221008
vn 0.70653966 -7.2807829e-2 0.70391813
vn 0.38421878 -4.5967437e-2 0.92209703
vn 2.8667285e-3 -6.8833028e-2 0.99762408
vn -0.36702955 -0.11059969 0.92361086
vn -0.69606260 -9.6846214e-2 0.71141947
vn -0.92345176 -8.4465999e-2 0.37430247
vn -0.99668432 -7.9032608e-2 -1.9344619e-2
vn -0.91737445 -2.9631785e-2 -0.39692073
vn -0.69906123 -1.3354565e-2 -0.71493709
vn -0.37353703 -4.1128880e-2 -0.92670303
vn 1.7141547e-3 -5.8741441e-2 -0.99827176
vn 0.37211287 -5.6327738e-2 -0.92647677
vn 0.70311514 -4.2355961e-2 -0.70981341
vn 0.93194031 -4.0653607e-2 -0.36032560
vn 0.99874917 -4.9424694e-2 -7.5693579e-3
vn 0.99589987 9.0449814e-2 -1.5101648e-3
vn 0.99814260 5.9895901e-2 -1.1128200e-2
vn 0.99760749 -6.7708280e-2 -1.3960281e-2
vn 0.92037052 -7.7694148e-2 0.38325152
vn 0.91171670 0.10588712 0.39693900
vn 0.91567568 6.5224417e-2 0.39659025
vn 0.93402435 -2.4676906e-2 0.35635595
vn 0.70595576 -6.3232191e-2 0.70542764
vn 0.69982079 0.11008892 0.70578417
vn 0.71005481 5.5336354e-2 0.70196870
vn 0.70746106 -2.0099336e-2 0.70646646
vn 0.39558292 8.1401834e-2 0.91481577
vn 0.38716669 -8.2033000e-2 0.91835317
vn 0.40043049 8.7804287e-2 0.91211065
vn 0.36913296 -5.2275011e-2 0.92790527
vn -5.4307297e-4 -8.8387282e-2 0.99608604
vn -5.7155186e-3 7.2262427e-2 0.99736928
vn -4.3501906e-3 0.11651614 0.99317927
vn 7.2193021e-3 -6.3591730e-2 0.99794989
vn -0.38364180 9.6408523e-2 0.91843583
vn -0.39001692 -7.1661274e-2 0.91801496
vn -0.38775312 0.10397678 0.91588009
vn -0.37310427 -5.8614270e-2 0.92593605
vn -0.71757838 -7.7366282e-2 0.69216741
vn -0.70017846 0.10454770 0.70627183
vn -0.70496749 0.10933306 0.70076181
vn -0.70424292 -5.8078681e-2 0.70757952
vn -0.91743546 -7.6772851e-2 0.39040760
vn -0.92657609 0.10280365 0.36178469
vn -0.91625873 0.12377983 0.38098358
vn -0.92170581 -6.6133215e-2 0.38221042
vn -0.99254872 0.12180787 3.1424244e-3
vn -0.99519140 -9.6606408e-2 1.6164139e-2
vn -0.99466430 0.10314954 -1.7590069e-3
vn -0.99588776 -8.7249194e-2 -2.4395521e-2
vn -0.91751802 0.15124701 -0.36781112
vn -0.92000835 -0.11631646 -0.37423939
vn -0.92082640 8.6849028e-2 -0.38017889
vn -0.91086792 -0.10893873 -0.39806027
vn -0.70395509 -9.2914732e-2 -0.70414067
vn -0.69763787 0.13205714 -0.70417491
vn -0.70739971 8.0692877e-2 -0.70219250
vn -0.70556369 -0.11303406 -0.69957357
vn -0.38574880 7.7130066e-2 -0.91937414
vn -0.38013483 -6.7347601e-2 -0.92247591
vn -0.37760413 7.1152346e-2 -0.92322937
vn -0.37616178 -0.10219955 -0.92090041
vn 9.2645618e-3 -6.7823237e-2 -0.99765434
vn 7.0337036e-3 4.1895445e-2 -0.99909724
vn 4.0874340e-3 8.1974082e-2 -0.99662608
vn -1.5243064e-3 -9.5348225e-2 -0.99544281
vn 0.37920144 5.4179469e-2 -0.92372661
vn 0.38663339 -8.2566705e-2 -0.91853000
vn 0.37770033 0.10253681 -0.92023294
vn 0.36242793 -6.8927895e-2 -0.92945949
vn 0.69926978 -7.6864155e-2 -0.71071350
vn 0.70667930 6.4032803e-2 -0.70463052
vn 0.70852050 7.0986959e-2 -0.70211079
vn 0.70669286 -4.7813072e-2 -0.70590305
vn 0.92302772 -3.8654067e-2 -0.38278674
vn 0.92377986 7.2544380e-2 -0.37598947
vn 0.92160150 3.5940615e-2 -0.38646985
vn 0.92765074 -7.3781260e-2 -0.36608801
vn 0.91820800 0.11906640 0.37777939
vn 0.99147388 0.13029301 1.8089803e-3
vn 0.92662287 0.11837046 -0.35687320
vn 0.69888667 0.18578736 -0.69068117
vn 0.36268479 0.16828041 -0.91659230
vn -7.5025417e-3 0.10826051 -0.99409425
vn -0.37712540 8.7959186e-2 -0.92197593
vn -0.68764613 0.10485047 -0.71843523
vn -0.92211414 9.3166329e-2 -0.37553367
vn -0.99993798 6.5139719e-3 9.0332707e-3
vn -0.92629632 -7.9724709e-3 0.37671151
vn -0.70830327 3.1429032e-2 0.70520826
vn -0.38776469 9.0735292e-2 0.91728166
vn 7.1014827e-3 0.17006558 0.98540716
vn 0.39005404 0.12003155 0.91293498
vn 0.70488818 5.1847328e-2 0.70742102
vn 0.68880658 -0.72492058 5.9709884e-3
vn 0.62207602 -0.74341487 0.24567409
vn 0.47421809 -0.74198207 0.47389853
vn 0.27943758 -0.73023727 0.62343257
vn -9.9912406e-4 -0.75303465 0.65798011
vn -0.23444479 -0.77469007 0.58727416
vn -0.43876102 -0.77231298 0.45937069
vn -0.60496363 -0.76125476 0.23347417
vn -0.65328691 -0.75689258 -1.8161246e-2
vn -0.63146420 -0.72666441 -0.27057678
vn -0.48711707 -0.71269364 -0.50476206
vn -0.25663816 -0.72785633 -0.63589466
vn 5.9193275e-3 -0.74297267 -0.66929558
vn 0.26108781 -0.73321058 -0.62788168
vn 0.47616835 -0.72491736 -0.49775347
vn 0.63736263 -0.73144612 -0.24239523
vn 0.96568914 0.25966816 -4.1157783e-3
vn 0.96810496 0.25046036 -6.5105954e-3
vn 0.88019282 0.29423374 0.37240718
vn 0.88008966 0.28335577 0.38098780
vn 0.66656961 0.28765492 0.68770604
vn 0.67080482 0.32818328 0.66506889
vn 0.37442654 0.27451745 0.88568896
vn 0.38773086 0.26930716 0.88155455
vn 4.7359388e-3 0.28557409 0.95834493
vn 5.0778201e-3 0.23625083 0.97167884
vn -0.37346585 0.26174903 0.88994983
vn -0.37432369 0.25578562 0.89132233
vn -0.68990600 0.21161496 0.69227799
vn -0.68613350 0.21502513 0.69497123
vn -0.90079781 0.23690728 0.36392067
vn -0.90978683 0.17917392 0.37441239
vn -0.96464146 0.26352319 -4.7304138e-3
vn -0.98142141 0.19166515 -8.7456070e-3
vn -0.90331103 0.21977662 -0.36841202
vn -0.90224376 0.23164163 -0.36372839
vn -0.68669001 0.21114056 -0.69561231
vn -0.67903129 0.30191552 -0.66915135
vn -0.35940702 0.20893150 -0.90949119
vn -0.35101683 0.34170368 -0.87179458
vn 7.0667367e-3 0.17964142 -0.98370678
vn -7.8882000e-4 0.33122374 -0.94355191
vn 0.35570729 0.25343155 -0.89958033
vn 0.36956817 0.27642466 -0.88713515
vn 0.66544637 0.32234544 -0.67325667
vn 0.70165236 0.22567782 -0.67583540
vn 0.88885800 0.28148043 -0.36152486
vn 0.89465184 0.23957870 -0.37709432
vn 0.99941507 -3.1450888e-2 -1.3429722e-2
vn 0.96476506 -0.26286527 -1.1412114e-2
vn 0.99746491 -7.0801171e-2 7.1379859e-3
vn 0.95035277 -0.31116498 -2.4417233e-3
vn 0.92196946 1.1232497e-2 0.38709965
vn 0.89064421 -0.26112131 0.37224798
vn 0.92321830 -3.2649968e-2 0.38288635
vn 0.89959299 -0.25173150 0.35688053
vn 0.69788740 -1.6937760e-2 0.71600719
vn 0.67997885 -0.25886983 0.68601397
vn 0.70862793 4.8921026e-2 0.70388435
vn 0.69335868 -0.22020483 0.68612213
vn 0.39627455 -1.2373539e-2 0.91804868
vn 0.37828259 -0.28998625 0.87909627
vn 0.38268861 -1.9259611e-2 0.92367662
vn 0.36213773 -0.23305963 0.90251841
vn -3.0486027e-3 6.6743191e-3 0.99997308
vn -3.9206227e-3 -0.29521178 0.95542380
vn 2.0160136e-2 -0.12762972 0.99161697
vn 1.3927365e-2 -0.29450322 0.95554900
vn -0.40170331 -1.3240868e-2 0.91567414
vn -0.38502795 -0.25185623 0.88787495
vn -0.38793277 -0.12028113 0.91380557
vn -0.36937444 -0.31816227 0.87311814
vn -0.70795921 -6.1075292e-2 0.70360753
vn -0.69197066 -0.25962764 0.67362459
vn -0.70567429 -9.0557233e-2 0.70272554
vn -0.68832001 -0.24871015 0.68143879
vn -0.91877261 -7.0127979e-2 0.38850863
vn -0.87792598 -0.29714019 0.37543799
vn -0.91802784 -8.1366989e-2 0.38807770
vn -0.90125949 -0.19948294 0.38462696
vn -0.99949779 -3.0269588e-2 -9.3768782e-3
vn -0.95812914 -0.28618296 9.3731014e-3
vn -0.99876841 -4.9510611e-2 -3.2179308e-3
vn -0.97413015 -0.22575790 -1.0189260e-2
vn -0.92204566 -1.9974923e-2 -0.38656540
vn -0.90199438 -0.21742951 -0.37300207
vn -0.92759162 -5.6426666e-2 -0.36930991
vn -0.87548514 -0.31401902 -0.36731161
vn -0.70138121 -1.8953247e-2 -0.71253433
vn -0.68668647 -0.20293904 -0.69805260
vn -0.71015905 -3.7383487e-3 -0.70403135
vn -0.66878279 -0.33179743 -0.66531199
vn -0.35845265 -1.4386850e-2 -0.93343704
vn -0.36110436 -0.22219323 -0.90566761
vn -0.37836454 4.8681031e-2 -0.92437570
vn -0.36023904 -0.31378076 -0.87850411
vn 1.8247131e-3 -8.3518247e-3 -0.99996346
vn 2.9597869e-3 -0.22228549 -0.97497713
vn 3.2458360e-4 1.7346929e-3 -0.99999844
vn -9.6938211e-4 -0.32789496 -0.94471369
vn 0.35759871 1.5207898e-2 -0.93375151
vn 0.36388080 -0.27308952 -0.89051270
vn 0.39673704 -6.0505595e-2 -0.91593602
vn 0.36306722 -0.28809608 -0.88610544
vn 0.70106535 4.2023417e-2 -0.71185771
vn 0.66964083 -0.30471654 -0.67729534
vn 0.71511169 -6.1241653e-2 -0.69632229
vn 0.68912672 -0.25152275 -0.67958860
vn 0.92558883 -1.8805544e-2 -0.37806305
vn 0.88728636 -0.27891312 -0.36732871
vn 0.92096674 -3.5382161e-2 -0.38803141
vn 0.88159466 -0.30453791 -0.36062101
vn 1.2745244e-4 -0.99999167 -4.0787398e-3
vn -3.3932671e-2 0.99940786 -5.7014236e-3
vn -6.5637451e-2 0.99720162 3.5786298e-2
vn -0.10897284 0.98728838 0.11570034
vn -5.8132236e-2 0.98860637 0.13884552
vn -5.8450649e-3 0.99568345 9.2629916e-2
vn 3.0778911e-2 0.99724438 6.7500340e-2
vn 8.1438256e-2 0.99381133 7.5543752e-2
vn 6.2755654e-2 0.99713776 4.2166551e-2
vn 8.6811978e-2 0.99622262 -2.0442405e-3
vn 0.13630762 0.98869589 -6.2455357e-2
vn 9.4887999e-2 0.99056517 -9.8878305e-2
vn 3.1242973e-2 0.99657624 -7.6548556e-2
vn 1.0518655e-2 0.99855198 -5.2757014e-2
vn -7.2015331e-2 0.98730960 -0.14153992
vn -0.17091958 0.96935925 -0.17643453
vn -0.11337220 0.99192576 -5.6833398e-2
vn -0.16464728 0.98634690 -3.3260785e-3
vn -0.12718676 0.99082414 4.5728100e-2
vn -8.0164421e-2 0.99366014 7.8823791e-2
vn -2.3074830e-2 0.99746607 6.7297845e-2
vn 8.3940854e-3 0.99742444 7.1232248e-2
vn 3.1946698e-2 0.99601026 8.3324440e-2
vn 6.5835334e-2 0.99594227 6.1357165e-2
vn 8.5215597e-2 0.99568097 3.6847146e-2
vn 8.9481686e-2 0.99592551 1.1198875e-2
vn 7.3102105e-2 0.99682044 -3.1703105e-2
vn 4.2042382e-2 0.99795225 -4.8205175e-2
vn 1.2747790e-2 0.99899599 -4.2947701e-2
vn 5.9039641e-3 0.99748402 -7.0645378e-2
vn -2.0260845e-2 0.99624265 -8.4202649e-2
vn -7.6476436e-2 0.99460379 -7.0104544e-2
vn -0.14218652 0.98885581 -4.4126753e-2
vn 0.99482324 0.10149803 4.9875839e-3
vn 0.99482324 0.10149803 4.9875839e-3
vn 0.18174288 0.98332505 -6.4314265e-3
vn 0.18174288 0.98332505 -6.4314265e-3
vn 0.92434535 6.9108765e-2 0.37524612
vn 0.92434535 6.9108765e-2 0.37524612
vn -8.4908768e-3 0.99884699 -4.7250300e-2
vn -8.4908768e-3 0.99884699 -4.7250300e-2
vn 0.69670407 8.6161510e-2 0.71216545
vn 0.69670407 8.6161510e-2 0.71216545
vn -0.22365931 0.94281184 -0.24714841
vn -0.22365931 0.94281184 -0.24714841
vn 0.37881874 0.10169821 0.91986621
vn 0.37881874 0.10169821 0.91986621
vn -0.11208920 0.98114998 -0.15741893
vn -0.11208920 0.98114998 -0.15741893
vn 9.7143741e-3 3.5665427e-3 0.99994645
vn 9.7143741e-3 3.5665427e-3 0.99994645
vn 1.4786593e-2 0.99989064 2.6950885e-4
vn 1.4786593e-2 0.99989064 2.6950885e-4
vn -0.38023159 -8.4046404e-3 0.92485313
vn -0.38023159 -8.4046404e-3 0.92485313
vn 4.6007734e-2 0.99497367 -8.8942024e-2
vn 4.6007734e-2 0.99497367 -8.8942024e-2
vn -0.70654599 -1.1572047e-2 0.70757250
vn -0.70654599 -1.1572047e-2 0.70757250
vn 0.12921656 0.98363324 -0.12557358
vn 0.12921656 0.98363324 -0.12557358
vn -0.91169971 -0.16468298 0.37640822
vn -0.91169971 -0.16468298 0.37640822
vn 0.16554981 0.98314490 -7.7584546e-2
vn 0.16554981 0.98314490 -7.7584546e-2
vn -0.98988039 -0.14186072 -3.5143865e-3
vn -0.98988039 -0.14186072 -3.5143865e-3
vn 4.1737711e-2 0.99890295 -2.1233292e-2
vn 4.1737711e-2 0.99890295 -2.1233292e-2
vn -0.92014590 -4.0071142e-2 -0.38952001
vn -0.92014590 -4.0071142e-2 -0.38952001
vn 8.3166882e-5 0.99958805 2.8700551e-2
vn 8.3166882e-5 0.99958805 2.8700551e-2
vn -0.70364301 -2.8672270e-2 -0.70997494
vn -0.70364301 -2.8672270e-2 -0.70997494
vn 6.6883373e-2 0.99601892 5.8931486e-2
vn 6.6883373e-2 0.99601892 5.8931486e-2
vn -0.39042719 3.4324815e-2 -0.91999370
vn -0.39042719 3.4324815e-2 -0.91999370
vn 1.6217357e-2 0.99982174 9.6692767e-3
vn 1.6217357e-2 0.99982174 9.6692767e-3
vn -2.5275241e-3 9.6273730e-2 -0.99535169
vn -2.5275241e-3 9.6273730e-2 -0.99535169
vn -2.1737960e-2 0.99670413 7.8155922e-2
vn -2.1737960e-2 0.99670413 7.8155922e-2
vn 0.38831794 3.3721994e-2 -0.92090825
vn 0.38831794 3.3721994e-2 -0.92090825
vn -7.8964204e-2 0.98115415 0.17635528
vn -7.8964204e-2 0.98115415 0.17635528
vn 0.70350914 -9.9246907e-2 -0.70372220
vn 0.70350914 -9.9246907e-2 -0.70372220
vn -9.5410922e-2 0.98897373 0.11325948
vn -9.5410922e-2 0.98897373 0.11325948
vn 0.92729017 -1.9847171e-2 -0.37381684
vn 0.92729017 -1.9847171e-2 -0.37381684
vn 6.3361389e-2 0.99798830 2.1669494e-3
vn 6.3361389e-2 0.99798830 2.1669494e-3
vn 1.5663044e-3 -0.99999877 -1.1116616e-4
vn 0.99482324 0.10149803 4.9875839e-3
vn 0.99482324 0.10149803 4.9875839e-3
vn 1.5663044e-3 -0.99999877 -1.1116616e-4
vn 0.92434535 6.9108765e-2 0.37524612
vn 0.92434535 6.9108765e-2 0.37524612
vn 1.5663044e-3 -0.99999877 -1.1116616e-4
vn 0.69670407 8.6161510e-2 0.71216545
vn 0.69670407 8.6161510e-2 0.71216545
vn 1.5663044e-3 -0.99999877 -1.1116616e-4
vn 0.37881874 0.10169821 0.91986621
vn 0.37881874 0.10169821 0.91986621
vn 1.5663044e-3 -0.99999877 -1.1116616e-4
vn 9.7143741e-3 3.5665427e-3 0.99994645
vn 9.7143741e-3 3.5665427e-3 0.99994645
vn 1.5663044e-3 -0.99999877 -1.1116616e-4
vn -0.38023159 -8.4046404e-3 0.92485313
vn -0.38023159 -8.4046404e-3 0.92485313
vn 1.5663044e-3 -0.99999877 -1.1116616e-4
vn -0.70654599 -1.1572047e-2 0.70757250
vn -0.70654599 -1.1572047e-2 0.70757250
vn 1.5663044e-3 -0.99999877 -1.1116616e-4
vn -0.91169971 -0.16468298 0.37640822
vn -0.91169971 -0.16468298 0.37640822
vn 1.5663044e-3 -0.99999877 -1.1116616e-4
vn -0.98988039 -0.14186072 -3.5143865e-3
vn -0.98988039 -0.14186072 -3.5143865e-3
vn 1.5663044e-3 -0.99999877 -1.1116616e-4
vn -0.92014590 -4.0071142e-2 -0.38952001
vn -0.92014590 -4.0071142e-2 -0.38952001
vn 1.5663044e-3 -0.99999877 -1.1116616e-4
vn -0.70364301 -2.8672270e-2 -0.70997494
vn -0.70364301 -2.8672270e-2 -0.70997494
vn 1.5663044e-3 -0.99999877 -1.1116616e-4
vn -0.39042719 3.4324815e-2 -0.91999370
vn -0.39042719 3.4324815e-2 -0.91999370
vn 1.5663044e-3 -0.99999877 -1.1116616e-4
vn -2.5275241e-3 9.6273730e-2 -0.99535169
vn -2.5275241e-3 9.6273730e-2 -0.99535169
vn 1.5663044e-3 -0.99999877 -1.1116616e-4
vn 0.38831794 3.3721994e-2 -0.92090825
vn 0.38831794 3.3721994e-2 -0.92090825
vn 1.5663044e-3 -0.99999877 -1.1116616e-4
vn 0.70350914 -9.9246907e-2 -0.70372220
vn 0.70350914 -9.9246907e-2 -0.70372220
vn 1.5663044e-3 -0.99999877 -1.1116616e-4
vn 0.92729017 -1.9847171e-2 -0.37381684
vn 0.92729017 -1.9847171e-2 -0.37381684
g Barell2_default
usemtl default
f 1/232/1 2/273/2 38/285/38 34/243/34
f 1/232/1 16/199/16 99/206/99 98/235/98
f 2/273/2 1/232/1 98/235/98 97/269/97
f 2/23/2 3/43/3 42/50/42 38/21/38
f 3/43/3 4/87/4 45/88/45 42/50/42
f 4/87/4 3/43/3 112/56/112 111/90/111
f 4/87/4 5/122/5 50/119/50 45/88/45
f 5/122/5 4/87/4 111/90/111 110/117/110
f 5/122/5 6/155/6 53/138/53 50/119/50
f 6/155/6 5/122/5 110/117/110 109/152/109
f 6/155/6 7/188/7 58/185/58 53/138/53
f 7/188/7 6/155/6 109/152/109 108/183/108
f 7/188/7 8/205/8 62/225/62 58/185/58
f 8/205/8 7/188/7 108/183/108 107/204/107
f 8/205/8 9/231/9 65/246/65 62/225/62
f 9/231/9 8/205/8 107/204/107 106/234/106
f 9/231/9 10/272/10 69/280/69 65/246/65
f 10/272/10 9/231/9 106/234/106 105/271/105
f 10/7/10 11/47/11 74/31/74 69/5/69
f 11/47/11 10/7/10 105/16/105 104/38/104
f 11/47/11 12/80/12 77/65/77 74/31/74
f 12/80/12 11/47/11 104/38/104 103/82/103
f 12/80/12 13/99/13 82/116/82 77/65/77
f 13/99/13 12/80/12 103/82/103 102/97/102
f 13/99/13 14/136/14 85/134/85 82/116/82
f 14/136/14 13/99/13 102/97/102 101/133/101
f 14/136/14 15/170/15 90/176/90 85/134/85
f 15/170/15 14/136/14 101/133/101 100/173/100
f 15/170/15 16/199/16 94/210/94 90/176/90
f 16/199/16 15/170/15 100/173/100 99/206/99
f 17/239/17 18/275/18 114/270/114 113/244/113
f 17/239/17 36/238/36 40/278/40 18/275/18
f 18/25/18 19/55/19 115/49/115 114/22/114
f 18/25/18 40/10/40 44/37/44 19/55/19
f 19/55/19 20/81/20 116/75/116 115/49/115
f 19/55/19 44/37/44 48/84/48 20/81/20
f 20/81/20 21/104/21 117/110/117 116/75/116
f 20/81/20 48/84/48 52/113/52 21/104/21
f 21/104/21 22/135/22 118/157/118 117/110/117
f 21/104/21 52/113/52 56/140/56 22/135/22
f 22/135/22 23/175/23 119/179/119 118/157/118
f 22/135/22 56/140/56 60/172/60 23/175/23
f 23/175/23 24/217/24 120/203/120 119/179/119
f 23/175/23 60/172/60 64/226/64 24/217/24
f 24/217/24 25/254/25 121/255/121 120/203/120
f 24/217/24 64/226/64 68/251/68 25/254/25
f 25/254/25 26/277/26 122/284/122 121/255/121
f 25/254/25 68/251/68 72/296/72 26/277/26
f 26/27/26 27/58/27 123/57/123 122/28/122
f 26/27/26 72/26/72 76/52/76 27/58/27
f 27/58/27 28/91/28 124/93/124 123/57/123
f 27/58/27 76/52/76 80/86/80 28/91/28
f 28/91/28 29/125/29 125/126/125 124/93/124
f 28/91/28 80/86/80 84/109/84 29/125/29
f 29/125/29 30/151/30 126/156/126 125/126/125
f 29/125/29 84/109/84 88/146/88 30/151/30
f 30/151/30 31/184/31 127/193/127 126/156/126
f 30/151/30 88/146/88 92/169/92 31/184/31
f 31/184/31 32/207/32 128/211/128 127/193/127
f 31/184/31 92/169/92 96/214/96 32/207/32
f 32/207/32 96/214/96 36/238/36 17/239/17
f 33/241/33 37/287/37 39/281/39 35/237/35
f 33/241/33 162/256/162 166/291/166 37/287/37
f 34/243/34 38/285/38 131/290/131 129/249/129
f 34/243/34 94/210/94 16/199/16 1/232/1
f 35/237/35 39/281/39 132/282/132 130/247/130
f 35/237/35 95/202/95 93/219/93 33/241/33
f 36/238/36 164/233/164 168/279/168 40/278/40
f 37/17/37 41/40/41 43/39/43 39/18/39
f 37/17/37 166/12/166 170/41/170 41/40/41
f 38/21/38 42/50/42 133/48/133 131/15/131
f 39/18/39 43/39/43 134/45/134 132/14/132
f 40/10/40 168/11/168 172/46/172 44/37/44
f 41/40/41 46/76/46 47/77/47 43/39/43
f 41/40/41 170/41/170 174/85/174 46/76/46
f 42/50/42 45/88/45 135/71/135 133/48/133
f 43/39/43 47/77/47 136/72/136 134/45/134
f 44/37/44 172/46/172 176/69/176 48/84/48
f 45/88/45 50/119/50 137/106/137 135/71/135
f 46/76/46 49/112/49 51/114/51 47/77/47
f 46/76/46 174/85/174 178/102/178 49/112/49
f 47/77/47 51/114/51 138/107/138 136/72/136
f 48/84/48 176/69/176 180/111/180 52/113/52
f 49/112/49 54/154/54 55/159/55 51/114/51
f 49/112/49 178/102/178 182/153/182 54/154/54
f 50/119/50 53/138/53 139/142/139 137/106/137
f 51/114/51 55/159/55 140/137/140 138/107/138
f 52/113/52 180/111/180 184/160/184 56/140/56
f 53/138/53 58/185/58 141/191/141 139/142/139
f 54/154/54 57/187/57 59/190/59 55/159/55
f 54/154/54 182/153/182 186/182/186 57/187/57
f 55/159/55 59/190/59 142/194/142 140/137/140
f 56/140/56 184/160/184 188/189/188 60/172/60
f 57/187/57 61/216/61 63/222/63 59/190/59
f 57/187/57 186/182/186 190/223/190 61/216/61
f 58/185/58 62/225/62 143/224/143 141/191/141
f 59/190/59 63/222/63 144/218/144 142/194/142
f 60/172/60 188/189/188 192/212/192 64/226/64
f 61/216/61 66/236/66 67/258/67 63/222/63
f 61/216/61 190/223/190 194/245/194 66/236/66
f 62/225/62 65/246/65 145/242/145 143/224/143
f 63/222/63 67/258/67 146/250/146 144/218/144
f 64/226/64 192/212/192 196/252/196 68/251/68
f 65/246/65 69/280/69 147/289/147 145/242/145
f 66/236/66 70/286/70 71/295/71 67/258/67
f 66/236/66 194/245/194 198/293/198 70/286/70
f 67/258/67 71/295/71 148/294/148 146/250/146
f 68/251/68 196/252/196 200/297/200 72/296/72
f 69/5/69 74/31/74 149/33/149 147/2/147
f 70/4/70 73/34/73 75/35/75 71/13/71
f 70/4/70 198/3/198 202/32/202 73/34/73
f 71/13/71 75/35/75 150/42/150 148/8/148
f 72/26/72 200/20/200 204/54/204 76/52/76
f 73/34/73 78/66/78 79/67/79 75/35/75
f 73/34/73 202/32/202 206/68/206 78/66/78
f 74/31/74 77/65/77 151/79/151 149/33/149
f 75/35/75 79/67/79 152/73/152 150/42/150
f 76/52/76 204/54/204 208/83/208 80/86/80
f 77/65/77 82/116/82 153/105/153 151/79/151
f 78/66/78 81/101/81 83/120/83 79/67/79
f 78/66/78 206/68/206 210/108/210 81/101/81
f 79/67/79 83/120/83 154/100/154 152/73/152
f 80/86/80 208/83/208 212/121/212 84/109/84
f 81/101/81 86/143/86 87/148/87 83/120/83
f 81/101/81 210/108/210 214/149/214 86/143/86
f 82/116/82 85/134/85 155/145/155 153/105/153
f 83/120/83 87/148/87 156/150/156 154/100/154
f 84/109/84 212/121/212 216/139/216 88/146/88
f 85/134/85 90/176/90 157/168/157 155/145/155
f 86/143/86 89/171/89 91/192/91 87/148/87
f 86/143/86 214/149/214 218/174/218 89/171/89
f 87/148/87 91/192/91 158/180/158 156/150/156
f 88/146/88 216/139/216 220/186/220 92/169/92
f 89/171/89 93/219/93 95/202/95 91/192/91
f 89/171/89 218/174/218 222/201/222 93/219/93
f 90/176/90 94/210/94 159/208/159 157/168/157
f 91/192/91 95/202/95 160/209/160 158/180/158
f 92/169/92 220/186/220 224/215/224 96/214/96
f 93/219/93 222/201/222 162/256/162 33/241/33
f 96/214/96 224/215/224 164/233/164 36/238/36
f 97/24/97 112/56/112 3/43/3 2/23/2
f 113/244/113 128/211/128 32/207/32 17/239/17
f 113/299/113 225/332/225 128/306/128
f 114/307/114 225/332/225 113/299/113
f 115/311/115 225/332/225 114/307/114
f 116/320/116 225/332/225 115/311/115
f 117/331/117 225/332/225 116/320/116
f 118/342/118 225/332/225 117/331/117
f 119/351/119 225/332/225 118/342/118
f 120/359/120 225/332/225 119/351/119
f 121/365/121 225/332/225 120/359/120
f 122/360/122 225/332/225 121/365/121
f 123/352/123 225/332/225 122/360/122
f 124/341/124 225/332/225 123/352/123
f 125/330/125 225/332/225 124/341/124
f 126/321/126 225/332/225 125/330/125
f 127/310/127 225/332/225 126/321/126
f 128/306/128 225/332/225 127/310/127
f 129/249/129 131/290/131 165/292/165 161/240/161
f 129/249/129 159/208/159 94/210/94 34/243/34
f 130/247/130 132/282/132 167/288/167 163/248/163
f 130/247/130 160/209/160 95/202/95 35/237/35
f 131/15/131 133/48/133 169/44/169 165/6/165
f 132/14/132 134/45/134 171/51/171 167/19/167
f 133/48/133 135/71/135 173/89/173 169/44/169
f 134/45/134 136/72/136 175/70/175 171/51/171
f 135/71/135 137/106/137 177/115/177 173/89/173
f 136/72/136 138/107/138 179/103/179 175/70/175
f 137/106/137 139/142/139 181/158/181 177/115/177
f 138/107/138 140/137/140 183/147/183 179/103/179
f 139/142/139 141/191/141 185/181/185 181/158/181
f 140/137/140 142/194/142 187/177/187 183/147/183
f 141/191/141 143/224/143 189/221/189 185/181/185
f 142/194/142 144/218/144 191/213/191 187/177/187
f 143/224/143 145/242/145 193/253/193 189/221/189
f 144/218/144 146/250/146 195/257/195 191/213/191
f 145/242/145 147/289/147 197/283/197 193/253/193
f 146/250/146 148/294/148 199/298/199 195/257/195
f 147/2/147 149/33/149 201/36/201 197/1/197
f 148/8/148 150/42/150 203/53/203 199/9/199
f 149/33/149 151/79/151 205/74/205 201/36/201
f 150/42/150 152/73/152 207/78/207 203/53/203
f 151/79/151 153/105/153 209/98/209 205/74/205
f 152/73/152 154/100/154 211/118/211 207/78/207
f 153/105/153 155/145/155 213/141/213 209/98/209
f 154/100/154 156/150/156 215/144/215 211/118/211
f 155/145/155 157/168/157 217/167/217 213/141/213
f 156/150/156 158/180/158 219/178/219 215/144/215
f 157/168/157 159/208/159 221/200/221 217/167/217
f 158/180/158 160/209/160 223/220/223 219/178/219
f 161/240/161 165/292/165 166/291/166 162/256/162
f 161/240/161 221/200/221 159/208/159 129/249/129
f 162/256/162 222/201/222 221/200/221 161/240/161
f 163/248/163 167/288/167 168/279/168 164/233/164
f 163/248/163 223/220/223 160/209/160 130/247/130
f 164/233/164 224/215/224 223/220/223 163/248/163
f 165/6/165 169/44/169 170/41/170 166/12/166
f 167/19/167 171/51/171 172/46/172 168/11/168
f 169/44/169 173/89/173 174/85/174 170/41/170
f 171/51/171 175/70/175 176/69/176 172/46/172
f 173/89/173 177/115/177 178/102/178 174/85/174
f 175/70/175 179/103/179 180/111/180 176/69/176
f 177/115/177 181/158/181 182/153/182 178/102/178
f 179/103/179 183/147/183 184/160/184 180/111/180
f 181/158/181 185/181/185 186/182/186 182/153/182
f 183/147/183 187/177/187 188/189/188 184/160/184
f 185/181/185 189/221/189 190/223/190 186/182/186
f 187/177/187 191/213/191 192/212/192 188/189/188
f 189/221/189 193/253/193 194/245/194 190/223/190
f 191/213/191 195/257/195 196/252/196 192/212/192
f 193/253/193 197/283/197 198/293/198 194/245/194
f 195/257/195 199/298/199 200/297/200 196/252/196
f 197/1/197 201/36/201 202/32/202 198/3/198
f 199/9/199 203/53/203 204/54/204 200/20/200
f 201/36/201 205/74/205 206/68/206 202/32/202
f 203/53/203 207/78/207 208/83/208 204/54/204
f 205/74/205 209/98/209 210/108/210 206/68/206
f 207/78/207 211/118/211 212/121/212 208/83/208
f 209/98/209 213/141/213 214/149/214 210/108/210
f 211/118/211 215/144/215 216/139/216 212/121/212
f 213/141/213 217/167/217 218/174/218 214/149/214
f 215/144/215 219/178/219 220/186/220 216/139/216
f 217/167/217 221/200/221 222/201/222 218/174/218
f 219/178/219 223/220/223 224/215/224 220/186/220
f 226/59/259 227/197/263 243/198/327 242/60/324
f 226/367/261 258/364/226 273/357/241 227/363/265
f 227/197/262 228/161/267 244/164/330 243/198/326
f 227/363/264 273/357/241 272/346/240 228/349/269
f 228/161/266 229/128/271 245/123/333 244/164/329
f 228/349/268 272/346/240 271/336/239 229/340/273
f 229/128/270 230/61/275 246/62/336 245/123/332
f 229/340/272 271/336/239 270/329/238 230/327/277
f 230/61/274 231/228/279 247/227/339 246/62/335
f 230/327/276 270/329/238 269/317/237 231/315/281
f 231/228/278 232/165/283 248/166/342 247/227/338
f 231/315/280 269/317/237 268/305/236 232/301/285
f 232/165/282 233/129/287 249/130/345 248/166/341
f 232/301/284 268/305/236 267/266/235 233/262/289
f 233/129/286 234/94/291 250/92/348 249/130/344
f 233/262/288 267/266/235 266/261/234 234/259/293
f 234/94/290 235/29/295 251/30/351 250/92/347
f 234/259/292 266/261/234 265/267/233 235/263/297
f 235/29/294 236/163/299 252/162/354 251/30/350
f 235/263/296 265/267/233 264/304/232 236/302/301
f 236/163/298 237/127/303 253/124/357 252/162/353
f 236/302/300 264/304/232 263/316/231 237/312/305
f 237/127/302 238/64/307 254/63/360 253/124/356
f 237/312/304 263/316/231 262/325/230 238/323/309
f 238/229/306 239/195/311 255/196/363 254/230/359
f 238/323/308 262/325/230 261/335/229 239/339/313
f 239/195/310 240/131/315 256/132/366 255/196/362
f 239/339/312 261/335/229 260/345/228 240/350/317
f 240/131/314 241/95/319 257/96/369 256/132/365
f 240/350/316 260/345/228 259/356/227 241/361/321
f 241/361/320 259/356/227 258/364/226 226/367/260
f 242/60/323 257/96/368 241/95/318 226/59/258
f 243/265/325 244/300/328 245/314/331 246/324/334 247/337/337 248/348/340 249/358/343 250/366/346 251/362/349 252/347/352 253/338/355 254/326/358 255/313/361 256/303/364 257/264/367 242/260/322
f 258/364/226 274/355/242 289/354/257 273/357/241
f 259/356/227 275/353/243 274/355/242 258/364/226
f 260/345/228 276/343/244 275/353/243 259/356/227
f 261/335/229 277/333/245 276/343/244 260/345/228
f 262/325/230 278/322/246 277/333/245 261/335/229
f 263/316/231 279/318/247 278/322/246 262/325/230
f 264/304/232 280/309/248 279/318/247 263/316/231
f 265/267/233 281/276/249 280/309/248 264/304/232
f 266/261/234 282/268/250 281/276/249 265/267/233
f 267/266/235 283/274/251 282/268/250 266/261/234
f 268/305/236 284/308/252 283/274/251 267/266/235
f 269/317/237 285/319/253 284/308/252 268/305/236
f 270/329/238 286/328/254 285/319/253 269/317/237
f 271/336/239 287/334/255 286/328/254 270/329/238
f 272/346/240 288/344/256 287/334/255 271/336/239
f 273/357/241 289/354/257 288/344/256 272/346/240
f 275/353/243 276/343/244 277/333/245 278/322/246 279/318/247 280/309/248 281/276/249 282/268/250 283/274/251 284/308/252 285/319/253 286/328/254 287/334/255 288/344/256 289/354/257 274/355/242
