# Exported from Wings 3D 1.0.2
mtllib Bathtub.mtl
o cube1
#468 vertices, 442 faces
v 4.32172123 -3.05968579 3.24601412
v 4.26453286 -2.83523435 3.23950416
v 5.45412043 -2.84627895 3.24875832
v 5.47218003 -3.09267491 3.27248375
v 4.28974817 -3.08530179 2.90795780
v 4.32169274 -2.85866262 2.92625461
v 5.48755701 -2.83765485 2.89772480
v 5.44970004 -3.07702680 2.88777622
v 4.46565971 -2.76792832 3.25217316
v 5.35479428 -2.76454278 3.18737889
v 4.46534103 -2.77938776 2.91497283
v 5.34486566 -2.73595169 2.93479362
v 5.31330474 -1.38873859 2.64166483
v 5.34311671 -1.55641131 2.34281878
v 4.44507175 -1.55025437 2.37202826
v 4.43839778 -1.40336238 2.63253351
v 5.49590333 -1.19850384 2.67678318
v 5.50772554 -1.40519762 2.18792299
v 4.25302486 -1.40952466 2.19051780
v 4.28120549 -1.21332277 2.66359288
v 5.49776943 -0.88237261 2.51663006
v 5.52088104 -1.13884006 2.05709126
v 4.25101206 -1.13984461 2.03501703
v 4.24875329 -0.92176320 2.52143588
v 4.79818486 -2.79087193 3.21450375
v 4.96189790 -2.73844212 3.22254956
v 4.99541940 -1.39162845 2.67562954
v 4.78761308 -1.40031016 2.68341309
v 4.84912441 -2.78050956 3.22352621
v 4.92854548 -2.77016245 3.23098533
v 4.91300283 -1.37254430 2.68885431
v 4.87084865 -1.36333977 2.68739519
v 5.00085713 -1.20884916 2.66434835
v 4.84858822 -1.22353715 2.68696974
v -7.91169545 2.33062996 5.1685013e-3
v -7.83211186 2.19732841 0.29613064
v -7.65802851 1.85694125 0.41728104
v -7.51119285 1.60532206 0.17515317
v -7.53737569 1.61268295 -0.22018454
v -7.69439817 1.84003739 -0.44399500
v -7.82673771 2.20091900 -0.39194520
v -7.17588497 2.74395608 1.7200053e-2
v -7.11484629 2.57077513 0.36556856
v -6.90632189 2.25055296 0.44028171
v -6.77977357 1.96810323 0.16992957
v -6.75141933 2.00319420 -0.20034103
v -6.91659543 2.25148756 -0.45763563
v -7.08564931 2.62659608 -0.38673421
v -7.91260179 2.23128149 1.1286364e-2
v -7.88772645 2.14622152 -0.29905390
v -7.76895601 1.85318395 -0.36573513
v -7.64281164 1.62160082 -0.18531458
v -7.61369233 1.61560106 0.12980024
v -7.72163357 1.84316598 0.38223804
v -7.87278566 2.12941150 0.30446982
v -7.07457016 2.71834974 -1.5421239e-2
v -7.00543159 2.56973265 0.27921115
v -6.86263134 2.31873235 0.36675239
v -6.74586982 2.06128664 0.15040015
v -6.73509828 2.05835153 -0.16443244
v -6.86479193 2.30173513 -0.38869826
v -6.99141463 2.55212728 -0.30961713
v -3.33629501 -3.10310862 -3.27962385
v -3.34852756 -2.84656147 -3.24772981
v -4.48943917 -2.83876883 -3.25366518
v -4.51029687 -3.07962544 -3.23205958
v -3.38480118 -3.10228949 -2.86787784
v -3.36142634 -2.85536682 -2.92685851
v -4.47105161 -2.79694414 -2.90835440
v -4.49927728 -3.09802206 -2.88074872
v -3.47898387 -2.77657328 -3.24532545
v -4.36041456 -2.77837232 -3.24136194
v -3.46175472 -2.78047649 -2.95854542
v -4.35885233 -2.72269857 -2.94228929
v -4.36412407 -1.36465634 -2.68768351
v -4.35781125 -1.53727963 -2.37504971
v -3.47552624 -1.53879298 -2.36254829
v -3.52230164 -1.39669773 -2.68278477
v -4.55414746 -1.18450020 -2.67268767
v -4.54447141 -1.39621399 -2.21982562
v -3.29723420 -1.45380090 -2.21472767
v -3.28500605 -1.17483767 -2.69745961
v -4.57190733 -0.90545614 -2.50722979
v -4.53104197 -1.11094511 -2.08220358
v -3.28662003 -1.12321250 -2.05851840
v -3.31499831 -0.92249770 -2.49895586
v -3.82184991 -2.78066730 -3.24782951
v -3.98200547 -2.74882076 -3.24246899
v -4.00127821 -1.40091093 -2.68958168
v -3.85355212 -1.40594520 -2.69271452
v -3.91039384 -2.76315653 -3.23980251
v -3.95538666 -2.79635834 -3.22070367
v -3.89822443 -1.36799559 -2.67850305
v -3.89265538 -1.35308002 -2.71390364
v -4.01174931 -1.18974726 -2.67342686
v -3.83511313 -1.19451874 -2.67680692
v 4.32403085 -3.07644146 -3.27110581
v 4.29520512 -2.83515050 -3.24156168
v 5.45504727 -2.80545749 -3.25285633
v 5.48149931 -3.11001237 -3.25064006
v 4.30176219 -3.09786215 -2.90280086
v 4.33122926 -2.85075201 -2.93684192
v 5.45441813 -2.83393620 -2.90225919
v 5.45144055 -3.12302750 -2.90370821
v 4.46714549 -2.76142909 -3.24522130
v 5.33918989 -2.74987546 -3.23331603
v 4.44514594 -2.75988987 -2.91371659
v 5.33705719 -2.80540308 -2.92993201
v 5.30450510 -1.40477858 -2.65642201
v 5.36685946 -1.56976981 -2.37165484
v 4.45307909 -1.55104675 -2.37394802
v 4.46296122 -1.37720044 -2.67470622
v 5.51711270 -1.18967044 -2.65531459
v 5.52401720 -1.40447334 -2.20143949
v 4.27471342 -1.45329239 -2.21975408
v 4.25348088 -1.20118043 -2.64993362
v 5.55061767 -0.90637874 -2.51574295
v 5.49185755 -1.12162723 -2.10306500
v 4.23931513 -1.10812308 -2.07004112
v 4.24495189 -0.87862777 -2.53010595
v 4.79629525 -2.75938618 -3.25531672
v 4.99557216 -2.79783277 -3.24592774
v 4.97879650 -1.38220284 -2.65433767
v 4.79029437 -1.40992974 -2.65405197
v 4.84656114 -2.76998346 -3.21396004
v 4.90571849 -2.74106823 -3.27722473
v 4.90150759 -1.32432324 -2.68853309
v 4.86480406 -1.35314582 -2.73883150
v 5.00062245 -1.18286842 -2.66555235
v 4.82168506 -1.22369184 -2.65689853
v -4.86970544 -0.87087383 2.84312106
v 5.24329594 -0.87331086 2.73641933
v -4.81288306 -0.87037501 -2.88855400
v 5.27141371 -0.87748116 -2.74902747
v -6.49747187 -0.85685256 1.86793739
v -6.50543945 -0.89692237 -1.87042405
v -6.87880105 3.55875245 2.64493523
v -6.91178810 3.57239544 -2.67258546
v -4.15241873 -0.44549195 1.85092590
v 5.67954451 -0.42028166 2.26219507
v 5.70139357 -0.44003169 -2.27463415
v -4.12888983 -0.43476266 -1.84708666
v -5.50473680 -0.15802859 3.01798815
v -2.93827064 -1.06550348 2.78556727
v -5.42361535 -1.06787885 2.65111787
v 7.04101758 3.72140719 3.57382794
v 5.92773938 -1.04034399 2.37480783
v -5.48637551 -0.16337094 -3.02766225
v -2.92722874 -1.10170148 -2.76440508
v 7.04347673 3.69042693 -3.59723364
v -6.18161511 -1.04120002 1.16851047
v -6.12089804 -1.10246082 -2.13146830
v -6.95038497 -0.15994440 2.05790249
v -6.96747882 -0.14002844 -2.12215225
v -8.21484840 3.82778377 2.57189597
v -6.67302041 3.86872185 3.53667572
v 6.94348374 3.85928707 3.41040815
v 6.94514551 3.86235477 -3.47240262
v -6.68500590 3.84695608 -3.52519055
v -8.21773950 3.85032738 -2.53201275
v 6.40032775 -0.63633615 -1.99256079
v -2.20897593 -0.62229417 -2.03481225
v -4.47174261 -0.64366451 1.12494062
v -6.78155912 3.45475902 3.74490001
v 7.04022040 3.45060234 3.50470487
v -6.80384625 3.46229267 -3.70949157
v 7.02366332 3.40231460 -3.54358203
v -8.49938170 3.47146470 2.51471199
v -8.50162993 3.47215429 -2.60390644
v -6.55846133 3.66448639 3.42675654
v -6.54480889 3.62556779 -3.41309113
v -8.16349432 3.60103475 2.32089566
v -8.16642454 3.62141559 -2.38998368
v 6.46754317 2.32297360 3.08159529
v 6.47494769 2.32105573 -3.10065746
v -6.14367450 2.34478886 3.19236194
v -6.12333547 -1.07480542 2.12374288
v 7.06266898 3.47572810 3.62165737
v -6.15174964 2.30364337 -3.23127873
v 7.08020604 3.43858919 -3.62305257
v -6.18776539 -1.07455575 -1.16137656
v -5.37668760 -1.11784749 -2.63188644
v 5.89118439 -1.04432981 -2.37209086
v -7.69141489 2.31763584 2.17553659
v -7.67363234 2.31759161 -2.24350070
v -7.85971812 3.79684356 2.57919477
v -6.63572188 3.83339063 3.11518672
v 6.83217724 3.82424128 3.15256309
v 6.83312174 3.80216842 -3.12182999
v -6.64394989 3.83409982 -3.17455220
v -7.83158313 3.87303902 -2.54856859
v -2.17206308 -0.62704759 2.01491951
v 6.38656966 -0.64223235 1.96581136
v -4.49863352 -0.64788648 -1.13012578
v -6.74902395 3.73563766 3.68953900
v 6.86351840 3.63345837 3.28553141
v -6.75867251 3.71638368 -3.72434324
v 6.86009013 3.63853508 -3.32173293
v -8.38868728 3.69383766 2.55222107
v -8.42846000 3.68463614 -2.55890583
v -6.69920574 3.40990704 3.64311687
v -6.75341366 3.40736906 -3.66795015
v -8.42017040 3.39881297 2.49810748
v -8.43546199 3.42057761 -2.52567690
v 5.88594417 -0.12894959 2.90023700
v 5.85701261 -0.13533727 -2.95451332
v -3.11453567 -0.17593024 3.03481274
v -3.47252011 2.28893971 3.24243793
v 8.50492017 3.46704367 3.23153200
v 8.47158137 3.69034617 3.20265913
v -3.81683284 3.73617424 -3.77688904
v -3.82225522 3.48850188 -3.80385073
v -8.30336025 3.40317298 3.05252297
v -7.96825745 3.42642835 3.51253127
v -7.73426778 3.63436593 3.27721292
v -8.10776297 3.64115426 2.88721561
v 6.97436539 -0.15924349 -2.60980081
v 7.80312250 2.30510161 -2.75397309
v -6.96291410 -0.18291676 1.16179937
v -6.96229358 -0.15378338 -1.16119868
v -7.70080435 2.30239796 -1.25188269
v -7.71326641 2.27944645 1.24376886
v -7.96141476 3.71122371 -3.57341684
v -8.30653706 3.66861941 -3.17814143
v -8.43168380 3.47331939 -3.16461764
v -8.00176719 3.45095189 -3.61949845
v -2.97861000 -1.42333326 2.12465064
v -2.94712617 -1.40410384 -2.15326837
v -4.89216408 -1.38625547 -1.24429783
v -4.86810435 -1.45295938 1.22047635
v -1.76193136 -0.96297874 1.13875414
v -1.77006882 -0.97354747 -1.17578689
v -7.86834845 3.84046798 3.44243222
v -8.20967544 3.84330789 3.10159526
v -7.81018097 3.82791059 3.08481405
v -3.75558428 3.81009721 3.54347146
v -3.75959324 3.79856116 3.18695707
v 8.35505694 3.86595852 3.00323904
v 8.17607937 3.78757518 2.78863013
v 8.33803332 3.80522163 -3.08618392
v 8.18105769 3.81631497 -2.83975364
v -3.76318760 3.85630395 -3.57317745
v -3.74004722 3.77611985 -3.20290132
v -8.18027525 3.84094277 -3.09549719
v -7.87395023 3.82046967 -3.41092595
v -7.84627573 3.87139058 -3.09495767
v -8.20787873 3.86088675 1.43855896
v -8.26162728 3.81720916 -1.44959748
v -7.93969790 3.84506501 -1.42892074
v -7.94885843 3.79681591 1.42431333
v -3.81005468 3.71396634 3.76302070
v -3.86896660 3.46655817 3.79613967
v 7.02556368 -0.20451527 2.56646141
v 7.77568953 2.29424988 2.74760772
v -3.81553382 3.41744366 -3.72119400
v -3.70135831 3.63710785 -3.46532734
v -8.34998399 3.68093380 3.09034743
v -7.94071561 3.72235464 3.57398098
v -8.03734560 3.48863241 3.59603784
v -8.43239640 3.46667140 3.14064814
v 8.45440727 3.73577746 -3.24033087
v 8.51819683 3.48992551 -3.22693355
v -8.48518684 3.71643579 -1.41063126
v -8.44500500 3.72419557 1.42809929
v -8.54327579 3.48104607 1.45719057
v -8.53404391 3.46145112 -1.43698279
v -6.52324493 -0.14233316 -2.90113775
v -7.25265389 2.29618834 -3.08974826
v -7.60329791 2.31087742 -2.71015829
v -6.85043476 -0.16243469 -2.50408230
v -3.68599142 3.63129648 3.48443532
v -3.82844234 3.41983421 3.73246823
v -7.30621549 2.32251891 3.08849015
v -6.47216983 -0.19714867 2.88586488
v -6.84080702 -0.15453212 2.49996929
v -7.59860133 2.27984113 2.69272212
v 8.46437286 3.39443006 -3.14201030
v 8.20158679 3.63414911 -2.93374053
v -8.46563997 3.40755678 -1.37617510
v -8.46664755 3.40433275 1.39662713
v -8.23952656 3.62999751 1.33738283
v -8.18892807 3.66396768 -1.32212683
v 8.21982820 3.67324586 2.93493103
v 8.45049983 3.43062660 3.11465922
v -3.45212063 2.30234632 -3.30005099
v -3.10700931 -0.16520610 -3.05092091
v -7.96031708 3.38934670 -3.51935466
v -8.35184546 3.41255962 -3.07309769
v -8.06808499 3.64188746 -2.86768586
v -7.72366400 3.63955793 -3.28709882
v 7.40561552 -1.00392963 -1.22403155
v -6.44949443 3.11748947 2.47161944
v 7.67072435 -0.53517633 1.06588256
v 6.67142249 3.06431858 2.86868559
v 7.73603080 -0.54272821 -0.80516340
v 6.67023387 3.08026555 -2.89390049
v -6.40119771 3.10406303 -2.52763319
v 1.79610326 -1.09657679 2.66409317
v -5.27627346 0.77018977 2.14417188
v 6.30870817 0.82291398 2.57134314
v 7.51028142 -0.67884929 0.26139744
v 6.33393729 0.81239455 -2.59529259
v -5.32425874 0.77790240 -2.18756013
v 7.18910737 -1.13704869 0.34040091
v 2.48170013 -0.71887098 2.15753015
v 7.36277764 -0.97188049 1.23656586
v 4.53208547 -0.98548621 -2.77278857
v 7.45526063 -1.00420549 -0.92265862
v -4.55082357 -0.17867740 1.95683108
v 5.93283384 -0.21588440 2.34369947
v 7.61843432 -0.57456238 -1.05393304
v 4.99179531 -0.56586544 -2.29455027
v 5.95317540 -0.21143322 -2.41210896
v -4.56618869 -0.21820906 -1.97431058
v 1.98361375 2.27232925 3.25057905
v 1.81961427 -0.17738505 3.05733524
v 9.49144301 3.71838195 1.75792069
v 9.58277908 3.45572472 1.74830521
v 5.65116653 3.71925818 -3.72527760
v 5.75633017 3.48566712 -3.72474371
v 9.76362951 3.74626556 0.38652711
v 9.71471844 3.72146985 -1.12100556
v 9.79106205 3.50977657 -1.13067754
v 9.86571815 3.46951266 0.36357678
v 7.98234681 -0.16498913 -1.42603876
v 8.71636477 2.30169984 -1.56374890
v 1.92182622 -1.47478299 1.85770902
v 4.88067259 -1.30604706 -2.21266098
v 3.13840649 -0.99885538 1.44102005
v 5.54312044 -0.87787760 -1.84712970
v 2.07972411 3.83656479 3.59650955
v 2.07476696 3.79338336 3.20926019
v 9.33248863 3.85632773 1.70158028
v 9.11632151 3.79470036 1.55509415
v 9.55354646 3.83271163 -1.09060822
v 9.59778802 3.84223023 0.31769732
v 9.35216931 3.82093912 0.33029314
v 9.28835224 3.80099685 -1.02150646
v 9.35840339 3.82684861 -1.67971448
v 9.12243095 3.80639682 -1.56343342
v 5.64053506 3.83369120 -3.51039514
v 5.53012851 3.80322744 -3.18932776
v -3.54062759 3.06067639 2.86599407
v -2.42343418 -0.24957996 2.28359042
v -2.86903886 0.76282663 2.57658720
v 7.97773412 3.05567445 2.56455957
v 6.91886783 -0.28476874 2.10570853
v 7.47841146 0.76998830 2.26278194
v 7.95455216 3.07507940 -2.60941567
v 6.91200933 -0.27807855 -2.12238296
v 7.46748082 0.77500196 -2.26916976
v -3.54848256 3.09185838 -2.87652599
v -2.42925747 -0.26164395 -2.27320373
v -2.84456699 0.75668373 -2.56213943
v -7.36882733 3.09331727 1.37703990
v -7.36711291 3.08210917 -1.38773174
v -5.31290887 -0.28875016 -1.19934817
v -6.28782576 0.80050559 -1.24047859
v -5.30268003 -0.25062806 1.15675625
v -6.26938364 0.77640640 1.25035214
v 2.12980961 3.73055494 3.73593571
v 2.16109867 3.47398170 3.80511121
v 7.98337306 -0.16165952 1.40029736
v 8.77068769 2.32047840 1.53518689
v 5.54324636 3.63168280 -3.42579435
v 5.67803736 3.42115798 -3.65607975
v 8.12571954 -0.14845099 -0.88996566
v 8.15043607 -0.17343626 0.28104714
v 8.99973382 2.29762964 0.34222927
v 8.93793651 2.31389386 -0.95373853
v 9.57447305 3.46916863 -1.76829455
v 9.51289821 3.70413056 -1.77341740
v 2.11765463 3.41748580 3.67390949
v 2.08136130 3.62814903 3.45502478
v 9.27077936 3.61672322 -1.62622264
v 9.53114985 3.42296247 -1.76469502
v 9.50715473 3.38231395 1.75175539
v 9.26658591 3.64329614 1.59848461
v 4.81217877 -0.16167740 -3.02692615
v 5.26404290 2.31011031 -3.20529260
v 9.52122476 3.61394447 0.34687547
v 9.75658800 3.40923952 0.35272117
v 9.71883922 3.43149588 -1.10791641
v 9.44848583 3.63766255 -0.99382586
v 6.32961520 -1.34419098 0.38771806
v 7.00306968 -1.20979916 -1.02462313
v 7.38520711 -0.76619268 -0.85646434
v 6.93248485 -0.87234484 0.29684848
v 2.04711680 3.09929947 2.98441191
v 2.33138154 -0.27321471 2.38927836
v 2.17367030 0.75575886 2.65053818
v 8.84175415 3.08950701 1.47815882
v 7.86459873 -0.24582512 1.16781269
v 8.22554978 0.78340135 1.32604555
v 8.98093856 3.08017385 -0.89407143
v 9.04247358 3.06433491 0.30599802
v 7.95895338 -0.25511361 0.26514863
v 8.39334289 0.78921769 0.29878802
v 8.01695162 -0.21844964 -0.79009794
v 8.37940828 0.78540653 -0.86061043
v 8.83899785 3.06461708 -1.48255811
v 7.86171322 -0.23580226 -1.21511919
v 8.20989033 0.78798997 -1.33539373
v 5.40476567 3.09283156 -2.95428883
v 5.01063465 -0.20191397 -2.44770717
v 5.21612391 0.77384710 -2.60520185
v -3.09988563 -1.54340845 5.1685013e-3
v -2.94511713 -1.53333133 0.29613064
v -2.56283153 -1.52911726 0.41728104
v -2.27219268 -1.51259645 0.17515317
v -2.29039953 -1.52924522 -0.22018454
v -2.56380579 -1.56215486 -0.44399500
v -2.94595267 -1.52805029 -0.39194520
v -3.14411627 -0.84894743 1.7200053e-2
v -2.96182512 -0.86713704 0.36556856
v -2.58234343 -0.83011834 0.44028171
v -2.27306526 -0.83984520 0.16992957
v -2.29194660 -0.80608297 -0.20034103
v -2.58773626 -0.83736469 -0.45763563
v -2.99891372 -0.82517871 -0.38673421
v -3.01123831 -1.58037466 1.1286364e-2
v -2.92396702 -1.59307883 -0.29905390
v -2.60864723 -1.61241852 -0.36573513
v -2.34514152 -1.60385969 -0.18531458
v -2.32685271 -1.58454483 0.12980024
v -2.57868579 -1.58112728 0.38223804
v -2.90227516 -1.58818542 0.30446982
v -3.07624312 -0.78347385 -1.5421239e-2
v -2.91237797 -0.78670670 0.27921115
v -2.62408308 -0.77294025 0.36675239
v -2.34155612 -0.78076024 0.15040015
v -2.33414936 -0.77387696 -0.16443244
v -2.60980591 -0.78074592 -0.38869826
v -2.89038282 -0.78278618 -0.30961713
v -3.35097002 -3.08075448 3.24031571
v -3.35365114 -2.86003044 3.23247394
v -4.50258517 -2.81416266 3.24824526
v -4.52875815 -3.06419948 3.20654740
v -3.33936304 -3.11410033 2.90857154
v -3.35010384 -2.86116217 2.91688551
v -4.49798348 -2.83892189 2.90798543
v -4.52877615 -3.12400617 2.88236983
v -3.49958179 -2.78358471 3.24212195
v -4.37029112 -2.78197025 3.23234707
v -3.47428597 -2.76088667 2.87661072
v -4.36238046 -2.75580336 2.92042258
v -4.39523330 -1.41594033 2.64616002
v -4.35563655 -1.53533176 2.38207920
v -3.47464219 -1.55120998 2.34525808
v -3.49043168 -1.41935723 2.63213193
v -4.55755349 -1.21235627 2.66245540
v -4.56569013 -1.41433247 2.17902498
v -3.29483722 -1.43444399 2.20284968
v -3.28741653 -1.16590393 2.65964339
v -4.58630599 -0.93148031 2.51400170
v -4.55063329 -1.10065537 2.08002878
v -3.31572321 -1.12701657 2.06154457
v -3.25524461 -0.87844530 2.50087899
v -3.83283507 -2.73855334 3.25085699
v -4.02011722 -2.76206284 3.21345096
v -4.00050479 -1.42704314 2.66330993
v -3.82583348 -1.40964167 2.64237902
v -3.86303001 -2.73228983 3.23522678
v -3.97031555 -2.75398338 3.21281407
v -3.96022943 -1.35943732 2.69647186
v -3.92955936 -1.36479852 2.69884734
v -4.00170707 -1.17489702 2.65133823
v -3.80789490 -1.21043188 2.64828262
vt 1.1767103e-2 0.86168136
vt 1.2534143e-2 0.60873579
vt 1.3170760e-2 0.89127623
vt 1.7693867e-2 0.63589556
vt 1.8490327e-2 0.80657691
vt 1.9904902e-2 0.57846448
vt 2.1606228e-2 0.67861279
vt 2.3359448e-2 0.86052909
vt 2.3388035e-2 0.60957839
vt 2.4515296e-2 0.14411875
vt 2.4889851e-2 0.89125014
vt 2.6278079e-2 0.10418049
vt 2.8215260e-2 0.63259289
vt 2.8572424e-2 0.92170608
vt 3.0084138e-2 0.80582004
vt 3.2480294e-2 0.58177450
vt 3.2488070e-2 0.20296907
vt 3.2957909e-2 0.60729554
vt 3.3091916e-2 0.67991532
vt 3.5363465e-2 0.88708435
vt 3.7670888e-2 0.86063146
vt 3.8137261e-2 0.32069555
vt 3.8745253e-2 0.91205762
vt 3.9166382e-2 0.62968189
vt 4.0866099e-2 0.58750657
vt 4.1189095e-2 0.80790931
vt 4.4144175e-2 0.37943955
vt 4.4598431e-2 6.4869574e-2
vt 4.5322996e-2 0.67948347
vt 4.6090074e-2 0.90428730
vt 4.6240884e-2 0.15364472
vt 4.6863328e-2 0.20480211
vt 4.8135676e-2 0.11489615
vt 5.0134199e-2 0.41177245
vt 5.0346576e-2 0.60208226
vt 5.1004546e-2 0.88978223
vt 5.4358239e-2 0.31718730
vt 5.5629121e-2 0.62609008
vt 5.6042875e-2 0.80725074
vt 5.6166145e-2 0.86369954
vt 5.7575795e-2 0.68022846
vt 6.1717862e-2 0.37023365
vt 6.9618119e-2 8.0164177e-2
vt 7.0721842e-2 0.39838822
vt 7.1992615e-2 0.44015747
vt 8.5112597e-2 0.53236303
vt 8.8555940e-2 0.94830642
vt 9.0425108e-2 0.42479642
vt 9.2075186e-2 0.54841768
vt 9.4645036e-2 0.93637437
vt 9.9552742e-2 0.55851432
vt 9.9861504e-2 0.68434240
vt 9.9957485e-2 0.80393225
vt 0.10172073 0.92526983
vt 0.10415082 0.87656453
vt 0.10576216 0.61181195
vt 0.10834187 0.58020721
vt 0.10873834 0.90880637
vt 0.10965133 0.20984466
vt 0.11379866 0.30668995
vt 0.11525540 0.17002993
vt 0.12420557 0.34602350
vt 0.12473649 2.9657670e-2
vt 0.12538413 0.14798374
vt 0.13312304 0.36461362
vt 0.13339143 0.46337304
vt 0.13571828 0.62349006
vt 0.13764421 0.12788600
vt 0.13771897 4.5999759e-2
vt 0.13832437 0.86724435
vt 0.14751336 0.45159200
vt 0.14796926 0.38134860
vt 0.18054366 9.8536453e-2
vt 0.18556240 0.40603894
vt 0.19403886 0.78359014
vt 0.19506860 0.70536031
vt 0.19592576 0.22214349
vt 0.19648840 0.28932683
vt 0.19971965 0.19837474
vt 0.20123160 0.31426341
vt 0.20403176 0.18749082
vt 0.20607231 0.32324954
vt 0.21360578 0.17742144
vt 0.21386406 0.33316897
vt 0.21936925 0.20652353
vt 0.22094192 0.30370900
vt 0.22103215 0.81500400
vt 0.22167534 0.67559358
vt 0.22701560 0.22412791
vt 0.22816599 0.28599080
vt 0.22982084 0.20134849
vt 0.23034153 0.97886705
vt 0.23127048 0.30847351
vt 0.23188693 0.96857541
vt 0.23410991 0.71311597
vt 0.23473248 0.77707950
vt 0.23532071 0.95903894
vt 0.23584514 0.16482528
vt 0.23606067 0.51614917
vt 0.23783791 0.34427507
vt 0.23840121 0.94397197
vt 0.23862213 0.52654514
vt 0.24108329 0.53589600
vt 0.24183701 0.54964937
vt 0.24544526 0.18780663
vt 0.24796483 0.32100016
vt 0.25145793 0.91558955
vt 0.25192856 0.69068572
vt 0.25231358 0.79775126
vt 0.25326472 0.57876879
vt 0.25745066 0.77424429
vt 0.25756590 0.71509591
vt 0.25760917 0.17845639
vt 0.25769439 0.49431518
vt 0.25988745 0.33158041
vt 0.26174709 1.1276230e-2
vt 0.26180513 0.28716681
vt 0.26201318 0.22295251
vt 0.26326393 0.48228768
vt 0.26378784 0.69544383
vt 0.26512914 0.79421141
vt 0.26784480 2.3392736e-2
vt 0.27913332 0.43549242
vt 0.28023292 7.2813712e-2
vt 0.28919057 0.64949553
vt 0.29220185 0.84177367
vt 0.30203051 0.35944710
vt 0.30222665 0.14990913
vt 0.30730631 0.67682541
vt 0.30890815 0.81245297
vt 0.31023795 0.17601422
vt 0.31035450 0.33196162
vt 0.31078547 0.19695603
vt 0.31148012 0.31296202
vt 0.31558382 0.68871756
vt 0.31655717 0.80102263
vt 0.32841564 0.71349791
vt 0.32967722 0.77519964
vt 0.43496301 0.64113003
vt 0.43651020 0.57400559
vt 0.43836807 0.66942778
vt 0.43990525 0.55254152
vt 0.44175209 0.54092383
vt 0.44213312 0.68240701
vt 0.44417597 0.53499772
vt 0.44645965 0.52709407
vt 0.44849992 0.17725889
vt 0.45094425 0.20291352
vt 0.45104122 0.14827814
vt 0.45849087 0.70182999
vt 0.46397211 7.2779530e-2
vt 0.47350895 2.6947883e-2
vt 0.47641420 1.6609088e-2
vt 0.51645110 0.78921739
vt 0.51877020 0.67986768
vt 0.52034753 0.79862697
vt 0.52501210 0.67579561
vt 0.52553076 0.77324166
vt 0.52603506 0.32661337
vt 0.53257280 0.30872546
vt 0.53291202 0.68899691
vt 0.53380948 0.78550293
vt 0.53594577 0.82171155
vt 0.53909930 0.34808438
vt 0.53919120 0.65457623
vt 0.54177762 0.18268049
vt 0.54201465 0.78893050
vt 0.54462372 0.68370876
vt 0.54536271 0.32434487
vt 0.54600834 0.77250721
vt 0.54636070 0.72234470
vt 0.55682417 0.19502715
vt 0.55865923 0.72109000
vt 0.55870609 0.31135473
vt 0.55932396 0.70455652
vt 0.55972211 0.77440392
vt 0.55996606 0.74429335
vt 0.56300001 0.16857996
vt 0.56392547 0.80794222
vt 0.56448339 0.24322659
vt 0.56448639 0.66736780
vt 0.56493940 0.70066466
vt 0.56612009 0.74733801
vt 0.56657397 0.59982001
vt 0.56663738 0.33881607
vt 0.56765033 0.74204093
vt 0.57123625 0.71849542
vt 0.57245832 0.89061484
vt 0.57462923 0.75039492
vt 0.57589532 0.41974883
vt 0.57622192 0.74097885
vt 0.57720751 0.57687442
vt 0.58170259 0.56974495
vt 0.58189720 0.27623000
vt 0.58498307 0.68756864
vt 0.58567829 0.56377519
vt 0.58602540 0.24361786
vt 0.58684599 0.91615409
vt 0.58704521 0.78496693
vt 0.58808673 0.55654171
vt 0.58868434 0.18442587
vt 0.59022724 0.22238238
vt 0.59241482 0.28072880
vt 0.59295662 0.32234445
vt 0.59348316 0.27364983
vt 0.59481347 0.92718678
vt 0.59611949 0.71139285
vt 0.59800134 0.93668927
vt 0.59896214 0.46675064
vt 0.59979686 0.75473276
vt 0.60114218 0.74132115
vt 0.60480955 0.94446738
vt 0.60566588 0.61602576
vt 0.60651981 0.47812647
vt 0.60810281 0.10688670
vt 0.61343784 0.21384309
vt 0.61637047 0.28857516
vt 0.61673945 0.86712939
vt 0.61929483 0.40287058
vt 0.61974825 0.59267247
vt 0.62003125 0.24278816
vt 0.62036493 0.27439237
vt 0.62481757 0.58453042
vt 0.62816250 0.57615318
vt 0.63143254 0.56986946
vt 0.63906299 0.89394118
vt 0.63953351 6.5023430e-2
vt 0.64373561 0.64632079
vt 0.64891760 5.4796653e-2
vt 0.64961625 0.90807528
vt 0.65116092 0.13308967
vt 0.65691895 0.45098310
vt 0.65747982 0.91639754
vt 0.66132363 0.82767342
vt 0.66375693 0.92764035
vt 0.66619554 0.62724024
vt 0.66634317 0.36995741
vt 0.66708147 0.68568066
vt 0.66788362 0.46508730
vt 0.67205788 0.61844937
vt 0.67829177 0.61233404
vt 0.68220745 0.73437083
vt 0.68290328 0.76208313
vt 0.68708053 0.60513771
vt 0.69239027 0.18140156
vt 0.69775636 0.66962274
vt 0.69815821 8.9949138e-2
vt 0.69952679 0.85162838
vt 0.70086547 0.31375868
vt 0.70695156 0.23031246
vt 0.70771480 0.66527780
vt 0.70845068 0.28597836
vt 0.71190411 7.7920947e-2
vt 0.71377495 0.86275654
vt 0.71395316 0.65845939
vt 0.72079267 0.73136877
vt 0.72346535 0.41278126
vt 0.72410893 0.76164073
vt 0.72418809 0.86953964
vt 0.72624341 0.65261959
vt 0.73488605 0.72896194
vt 0.73875807 0.76214248
vt 0.73912272 0.87508229
vt 0.74492759 0.42497204
vt 0.74546842 0.72613449
vt 0.75259977 0.76286157
vt 0.75429216 0.15663702
vt 0.75721773 0.72231594
vt 0.76723603 0.76026925
vt 0.77094024 0.14514847
vt 0.77207888 0.32692114
vt 0.77426578 0.22007274
vt 0.77818632 0.29076971
vt 0.79093427 0.21764924
vt 0.79100267 0.33363576
vt 0.79709528 0.29572577
vt 0.80421544 0.35704736
vt 0.80573404 0.35842949
vt 0.81300927 0.42123530
vt 0.81364640 0.42052376
vt 0.81911514 0.36453886
vt 0.82001338 0.36589141
vt 0.83146115 0.41484373
vt 0.83188281 0.40847026
vt 0.83279265 0.74875558
vt 0.83346324 0.74499159
vt 0.83455541 0.72122502
vt 0.83549817 0.72100391
vt 0.83635003 0.71785386
vt 0.83668426 0.49789659
vt 0.83699207 0.50286242
vt 0.83711200 0.49903060
vt 0.83711939 0.74897113
vt 0.83726238 0.46864064
vt 0.83736573 0.74924071
vt 0.83767774 0.46964796
vt 0.83802830 0.74496862
vt 0.83810856 0.71680604
vt 0.83860848 0.74756804
vt 0.83869978 0.57098595
vt 0.83871569 0.72050416
vt 0.83910245 0.74548967
vt 0.83919565 0.50124245
vt 0.83932438 0.71984087
vt 0.83964064 0.74734583
vt 0.83966906 0.46960506
vt 0.83973816 0.71706853
vt 0.84049407 0.58074543
vt 0.84063428 0.31179647
vt 0.84111019 0.72063729
vt 0.84111480 0.46797002
vt 0.84167195 0.55980588
vt 0.84189992 0.56073191
vt 0.84196592 0.55918906
vt 0.84218458 0.55288868
vt 0.84245301 0.58123764
vt 0.84388705 0.55097741
vt 0.84408839 0.58189500
vt 0.84412723 0.55255044
vt 0.84412849 0.56052427
vt 0.84417078 0.57381440
vt 0.84436302 0.58480292
vt 0.84452716 0.57247917
vt 0.84565696 0.57560278
vt 0.84647548 0.55035870
vt 0.84774148 0.30681132
vt 0.84846534 0.78595777
vt 0.84884701 0.32660172
vt 0.85027586 0.80780601
vt 0.85036432 0.70066012
vt 0.85056878 0.82034465
vt 0.85167560 0.78592829
vt 0.85245292 0.81786766
vt 0.85266823 0.32136357
vt 0.85267623 0.58978717
vt 0.85273575 0.81953589
vt 0.85324369 0.78474154
vt 0.85335807 0.70157431
vt 0.85340939 0.82057250
vt 0.85351844 0.70431321
vt 0.85356512 0.58965008
vt 0.85363181 0.70151278
vt 0.85375066 0.80522148
vt 0.85382337 0.81733664
vt 0.85382512 0.80373161
vt 0.85396345 0.80260001
vt 0.85412567 0.58934036
vt 0.85415968 0.59129999
vt 0.85431459 0.70154196
vt 0.85437634 0.80402295
vt 0.85441676 0.70263452
vt 0.85441764 0.81054166
vt 0.85464603 0.78302254
vt 0.85471778 0.70147928
vt 0.85472459 0.80670914
vt 0.85476450 0.58129222
vt 0.85489026 0.78532126
vt 0.85511516 0.80720446
vt 0.85520216 0.57629458
vt 0.85528579 0.57850662
vt 0.85535079 0.57765810
vt 0.85570213 0.70238869
vt 0.85611031 0.81876564
vt 0.85668646 0.78486676
vt 0.85698012 0.82121918
vt 0.85798352 0.78340668
vt 0.85963166 0.81772712
vt 0.86021688 0.78624414
vt 0.86971943 0.23781295
vt 0.87094336 0.44962026
vt 0.87150430 7.5711998e-3
vt 0.87203840 0.27276974
vt 0.87312031 8.6465813e-2
vt 0.87358900 0.16026333
vt 0.87366770 4.6132699e-2
vt 0.87433785 0.12611485
vt 0.87486068 0.81884220
vt 0.87501108 0.20135487
vt 0.87642562 0.43385654
vt 0.87748489 0.80822214
vt 0.87848742 0.44397659
vt 0.87910683 0.42801597
vt 0.87923184 0.82167118
vt 0.87965209 0.80682793
vt 0.88079416 0.80579864
vt 0.88086285 0.81926030
vt 0.88098589 0.82045599
vt 0.88106145 0.80561499
vt 0.88121796 0.72042935
vt 0.88122537 0.70362099
vt 0.88194863 0.81966871
vt 0.88254301 0.82073484
vt 0.88258340 0.78231727
vt 0.88271064 0.81710889
vt 0.88274313 0.57870244
vt 0.88279324 0.81046722
vt 0.88284846 0.72015898
vt 0.88312812 0.78425974
vt 0.88333372 0.70326026
vt 0.88333617 0.70194639
vt 0.88336593 0.69990498
vt 0.88351074 0.81934135
vt 0.88355065 0.78749607
vt 0.88376510 0.57676367
vt 0.88382878 0.57878815
vt 0.88388579 0.80670701
vt 0.88399711 0.80730851
vt 0.88430573 0.78520194
vt 0.88455793 0.80572623
vt 0.88461523 0.57871023
vt 0.88462693 0.72139689
vt 0.88574881 0.78645493
vt 0.88650745 0.78500856
vt 0.88654656 0.78723788
vt 0.88779865 0.70552499
vt 0.88796232 0.78326355
vt 0.88820458 0.57737571
vt 0.88872093 0.71816891
vt 0.88876447 0.70712170
vt 0.88880888 0.57939752
vt 0.88890387 0.70438970
vt 0.89058834 0.70611809
vt 0.89089026 0.70525110
vt 0.89097120 0.58203080
vt 0.89119434 0.58045438
vt 0.89148462 0.70392285
vt 0.89302872 0.70354771
vt 0.89419967 0.70534610
vt 0.89498334 0.57811994
vt 0.89558198 0.57821395
vt 0.89649905 0.32318537
vt 0.89763894 0.71687387
vt 0.89782674 0.58088590
vt 0.89803514 0.58059574
vt 0.89807571 0.58086722
vt 0.89861858 0.72058849
vt 0.89906744 0.58153706
vt 0.89929689 0.70245692
vt 0.90071575 0.32001381
vt 0.90084199 0.58025328
vt 0.90141888 0.70418309
vt 0.90163338 0.72008127
vt 0.90180208 0.70210130
vt 0.90193880 0.71899276
vt 0.90253199 0.93639940
vt 0.90264156 0.93605638
vt 0.90279227 0.70154906
vt 0.90315878 0.93595594
vt 0.90334311 0.58087432
vt 0.90345283 0.93501591
vt 0.90401981 0.93490215
vt 0.90536626 0.95723440
vt 0.90558210 0.93619881
vt 0.90561151 0.95604197
vt 0.90571354 0.93269599
vt 0.90586405 0.95733808
vt 0.90648228 0.30803935
vt 0.90673217 0.93398641
vt 0.90716532 0.31207844
vt 0.90739004 0.95808427
vt 0.90749967 0.96024221
vt 0.90956741 0.96069047
vt 0.90980965 0.95818431
vt 0.91015603 0.96173345
vt 0.91605167 0.98094518
vt 0.91697369 0.98226196
vt 0.92114509 0.98314303
vt 0.92168357 0.98432347
vt 0.92169498 0.98479139
vt 0.92216068 0.40687211
vt 0.92219649 0.98129095
vt 0.92365461 0.41187523
vt 0.92395846 0.98333397
vt 0.92722412 0.58675793
vt 0.92765900 0.92380879
vt 0.92791573 0.92099221
vt 0.92797900 0.92236324
vt 0.92829883 0.70146547
vt 0.92846180 0.70490006
vt 0.92860875 0.57672504
vt 0.92861904 0.42262907
vt 0.92880165 0.92137365
vt 0.92884037 0.58852765
vt 0.92917146 0.70286263
vt 0.92919452 0.92356742
vt 0.92946190 0.70056724
vt 0.92951633 0.70571078
vt 0.92959421 0.98092285
vt 0.92959660 0.92100606
vt 0.92967812 0.58531291
vt 0.92989004 0.92118814
vt 0.92996834 0.70407116
vt 0.92997768 0.70169005
vt 0.93015934 0.58617465
vt 0.93019792 0.92155820
vt 0.93030424 0.58093101
vt 0.93038384 0.57943610
vt 0.93121421 0.57981884
vt 0.93212449 0.70016545
vt 0.93472592 0.47070725
vt 0.93507164 0.36426654
vt 0.93525676 0.50090514
vt 0.93538759 0.42526807
vt 0.93541555 0.36127499
vt 0.93556280 0.46905158
vt 0.93638116 0.55778227
vt 0.93650505 0.49886424
vt 0.93713822 0.46963479
vt 0.93741955 0.49941687
vt 0.93745922 0.50021105
vt 0.93747519 0.47228354
vt 0.93864068 0.57926260
vt 0.93927552 0.55828450
vt 0.93954168 0.58025150
vt 0.93986022 0.58276648
vt 0.94019769 0.58121641
vt 0.94053505 0.57227362
vt 0.94065915 0.55165922
vt 0.94075554 0.57014765
vt 0.94110578 0.57445960
vt 0.94141003 0.55140929
vt 0.94161363 0.55521028
vt 0.94236129 0.55693877
vt 0.94239782 0.56101339
vt 0.94263741 0.55445323
vt 0.94320325 0.74554742
vt 0.94334017 0.75045890
vt 0.94341088 0.72122290
vt 0.94360798 0.74968680
vt 0.94418995 0.57486580
vt 0.94444172 0.71713367
vt 0.94479231 0.93448828
vt 0.94507365 0.93872805
vt 0.94508981 0.74811676
vt 0.94552048 0.93638500
vt 0.94559741 0.74649512
vt 0.94560369 0.72012603
vt 0.94560721 0.72014900
vt 0.94561858 0.72188140
vt 0.94575728 0.93854975
vt 0.94581523 0.94148121
vt 0.94599872 0.93714869
vt 0.94611408 0.72124551
vt 0.94651753 0.35822004
vt 0.94679149 0.72366887
vt 0.94735142 0.71958875
vt 0.94766939 0.93302353
vt 0.94788058 0.74946386
vt 0.94791418 0.94270153
vt 0.94832780 0.74958296
vt 0.94890744 0.75184394
vt 0.94948825 0.35994965
vt 0.95083045 4.4803523e-2
vt 0.95091064 0.12139666
vt 0.95289592 0.23883857
vt 0.95332878 8.4435522e-2
vt 0.95335449 0.15870646
vt 0.95402149 0.96989747
vt 0.95446735 9.0730075e-3
vt 0.95487718 0.27755101
vt 0.95577068 0.19934952
vt 0.95696463 0.96139338
vt 0.95765530 0.96245919
vt 0.95847938 0.96458350
vt 0.95850349 0.96199503
vt 0.95856655 0.95891889
vt 0.95936261 0.96297252
vt 0.96439188 0.95910857
vn -0.79890971 0.59909053 5.3233628e-2
vn -0.53025563 0.38113364 0.75734147
vn -0.13945105 -0.29702470 0.94463206
vn 0.10559952 -0.92305147 0.36989827
vn 6.4681735e-2 -0.91840235 -0.39032474
vn -0.28546907 -0.40043388 -0.87072390
vn -0.67857366 0.30803923 -0.66682053
vn -2.9276359e-2 0.99646343 7.8762521e-2
vn 6.4565937e-2 0.68186484 0.72862307
vn 0.44601012 6.2893177e-3 0.89500582
vn 0.73976326 -0.55785812 0.37622418
vn 0.75036045 -0.53547615 -0.38758803
vn 0.51526678 3.4033632e-4 -0.85702977
vn 0.19273445 0.70897956 -0.67838147
vn -0.99891353 2.3359242e-2 4.0324998e-2
vn -0.94576918 -0.13186442 -0.29687107
vn -0.76544337 -0.49093499 -0.41602799
vn -0.53946799 -0.81986776 -0.19181016
vn -0.48710039 -0.83981792 0.23966452
vn -0.62302486 -0.43897886 0.64740836
vn -0.86266155 -2.0643901e-2 0.50536015
vn 0.61369153 0.78775975 5.3078013e-2
vn 0.62815069 0.67275169 0.39093717
vn 0.83030120 0.32150808 0.45522793
vn 0.97815919 1.2110356e-2 0.20750408
vn 0.98238897 4.2655212e-2 -0.18191327
vn 0.85776322 0.32040992 -0.40196982
vn 0.72485928 0.62502724 -0.28968945
vn -5.9172668e-2 -0.51427663 0.85558059
vn 0.11479695 -0.59979716 0.79187438
vn -6.1781060e-2 -0.51982190 -0.85203773
vn 0.16852359 -0.57115171 -0.80335890
vn -0.64526318 -0.75991440 7.8520898e-2
vn -0.64025581 -0.76359303 -8.3655126e-2
vn 0.25702580 0.81461027 -0.51994985
vn 0.29213450 0.81170394 0.50576096
vn 0.22109483 0.81920781 -0.52916504
vn -7.5918333e-2 0.64268496 -0.76235979
vn -0.11864540 0.59476656 0.79509497
vn 0.19813610 0.83253076 0.51733415
vn -6.5666209e-2 -0.20784853 0.97595437
vn -3.7780252e-3 -0.62139813 0.78348586
vn -0.20643489 -0.76910497 0.60486543
vn 0.12753274 0.53258936 0.83671021
vn 0.25313540 -0.80836068 0.53148422
vn -7.4242513e-2 -0.21448148 -0.97390233
vn -2.8440224e-4 -0.60875570 -0.79335768
vn 0.14627648 0.47294788 -0.86886333
vn -0.56116862 -0.82740719 -2.2070919e-2
vn -0.42141213 -0.86154386 -0.28311481
vn -0.87442709 -0.47097904 0.11643028
vn -0.88095289 -0.45835442 -0.11761477
vn -0.27783314 0.96060971 6.1423370e-3
vn -1.5713060e-2 0.96063943 0.27735355
vn 3.6331762e-2 0.96978019 0.24125999
vn 4.7349264e-2 0.96149436 -0.27071507
vn -1.9205344e-2 0.96595248 -0.25800575
vn -0.35504002 0.93432447 -3.1374810e-2
vn -0.26258138 0.75751113 0.59768546
vn 7.5633907e-2 0.77109534 0.63221158
vn 0.26754171 0.94426563 -0.19179117
vn -6.2298924e-2 -0.43938548 0.89613573
vn -3.2908389e-2 -0.97615709 -0.21455621
vn -5.2727798e-2 -0.38593221 -0.92101906
vn -1.7989250e-2 -0.99721391 7.2393415e-2
vn -0.96644331 -0.24497032 7.7310182e-2
vn -0.95156550 -0.29389964 -9.0255732e-2
vn -1.4001129e-2 -0.95268346 0.30364155
vn -2.3342294e-2 -0.93881237 -0.34363713
vn -0.23744692 -0.97112285 2.3224504e-2
vn -0.27185408 -0.96188920 -2.9402672e-2
vn 0.14475491 -0.14916702 0.97815910
vn 0.17257558 -0.15611031 -0.97254678
vn -6.1240214e-2 -0.13921035 0.98836740
vn -0.44202806 -0.85136360 0.28247339
vn 0.12293948 -0.51685416 0.84719990
vn -6.9872801e-2 -0.13027506 -0.98901274
vn 0.15271379 -0.43689704 -0.88645331
vn -0.55709897 -0.83008446 2.4505660e-2
vn -0.20561996 -0.77934468 -0.59189721
vn 0.30307153 -0.75520134 -0.58122163
vn -0.93988838 -0.32703595 9.8271693e-2
vn -0.94222329 -0.31963689 -0.10023736
vn 0.21719039 0.95928760 -0.18054264
vn 5.9345010e-2 0.93932616 -0.33785283
vn -8.5409698e-2 0.77207467 -0.62976654
vn -7.8310881e-2 0.78424715 0.61548664
vn 7.5131166e-2 0.94810069 0.30896665
vn 0.15459420 0.97361929 0.16782765
vn 7.9426911e-2 0.79251584 -0.60465693
vn -0.20836521 0.82456438 -0.52600145
vn 0.25257553 0.94959150 0.18569218
vn -5.1432399e-2 0.52975817 0.84658785
vn 4.8423990e-2 -0.94615164 0.32008154
vn -5.8744883e-2 0.50780642 -0.85946593
vn 4.8472011e-2 -0.95171636 -0.30312774
vn -0.78924274 0.61190984 5.1596992e-2
vn -0.80018063 0.59389263 -8.3680939e-2
vn 6.3024978e-3 -0.99040912 -0.13802197
vn 8.7967698e-3 -0.99992948 -7.9777088e-3
vn 3.6222620e-2 -0.99932265 -6.4938245e-3
vn 1.7683066e-2 -0.99982119 6.7005529e-3
vn 0.14660213 -0.26023866 0.95434986
vn 0.17972651 -0.26738460 -0.94668044
vn -3.1336066e-3 -0.18936348 0.98190206
vn -9.4744094e-3 -0.12645917 0.99192657
vn 0.51761112 -0.47706706 0.71027160
vn 0.47902488 0.54514560 0.68800541
vn -7.5515646e-3 0.51417541 -0.85765181
vn -7.2446763e-3 -0.37589418 -0.92663427
vn 9.2850008e-2 -0.99541785 -2.2851137e-2
vn 5.1294893e-2 -0.99448216 -9.1509892e-2
vn -0.12046997 -0.96046498 0.25098607
vn -0.21475765 -0.96837138 0.12702766
vn 0.48071182 -0.41265817 -0.77371143
vn 0.52852164 -0.24843931 -0.81175291
vn -0.88101039 -0.47295168 -1.1721732e-2
vn -0.88657398 -0.46223964 1.7919070e-2
vn -0.94817661 -0.31745592 -1.3522474e-2
vn -0.94655856 -0.32222723 1.4018061e-2
vn -0.38850637 0.55907207 -0.73246244
vn -0.73195191 0.58457298 -0.35002976
vn -0.85940169 -0.32315810 -0.39622920
vn -0.40021694 -0.40967272 -0.81975281
vn -3.0152453e-2 -0.95020093 0.31017578
vn -2.5404276e-2 -0.95109788 -0.30784323
vn -0.16294817 -0.98561706 -4.4798473e-2
vn -0.18098227 -0.98242520 4.5674281e-2
vn 6.2146259e-2 0.98485977 -0.16183037
vn 6.1907154e-2 0.97763265 0.20100227
vn -0.17125225 0.94219396 0.28799862
vn -0.32443624 0.93780106 0.12357303
vn 5.1156662e-2 0.99168409 -0.11809176
vn 4.1239378e-3 0.97291627 0.23112101
vn 3.6167582e-2 0.84117325 -0.53955488
vn 0.12165681 0.97795179 0.16973483
vn -0.35007924 0.77207104 -0.53042514
vn 0.13552134 0.97043097 -0.19974410
vn -0.29229040 0.82737917 0.47959361
vn 1.6434010e-4 0.98113750 -0.19331110
vn 2.9229705e-2 0.82489940 0.56452335
vn -0.35685493 0.91544262 -0.18606280
vn -0.17159453 0.93652639 -0.30573460
vn 3.4379448e-3 0.99988580 1.4716526e-2
vn -0.20945866 0.97774832 1.1631646e-2
vn -0.25630606 0.96659567 -1.3359909e-4
vn 0.36570996 0.92495051 0.10355085
vn 0.40544917 0.91016631 -8.4901510e-2
vn -5.3385003e-3 0.57396934 0.81885939
vn -7.9528740e-3 -0.43157857 0.90204029
vn 0.47631351 -0.41155357 0.77701293
vn 0.52290711 -0.24586267 0.81616157
vn 8.6852471e-4 -0.99974486 -2.2571196e-2
vn -1.6192896e-3 -0.93623116 -0.35138099
vn -0.76003849 0.56852653 0.31483181
vn -0.40163004 0.53956232 0.73997690
vn -0.41634283 -0.42728709 0.80254868
vn -0.86435254 -0.34061517 0.36996755
vn 0.45772086 0.56263829 -0.68842557
vn 0.53988866 -0.37052684 -0.75579766
vn -0.78637448 0.61754189 -1.6037081e-2
vn -0.76621749 0.64215293 2.3460065e-2
vn -0.97177744 -0.23473456 2.3415761e-2
vn -0.95412266 -0.29889390 -1.7674435e-2
vn -0.39935792 -0.38614887 -0.83150604
vn -0.44983653 -0.23896045 -0.86054925
vn -0.85031630 -0.32131411 -0.41679664
vn -0.74721168 -0.48322396 -0.45625575
vn -5.6509344e-3 -0.94926513 0.31442612
vn 1.1417954e-3 -0.99126487 -0.13188125
vn -0.44403214 -0.24675495 0.86136372
vn -0.39666450 -0.39060509 0.83071351
vn -0.75344505 -0.49270610 0.43538634
vn -0.85417166 -0.33077509 0.40122141
vn 4.0342842e-2 -0.99917944 3.5916139e-3
vn 0.16714966 -0.95570815 -0.24224560
vn 1.9116791e-2 -0.99981658 1.1631281e-3
vn -5.3616582e-3 -0.99995134 -8.2812134e-3
vn -0.23513811 -0.97193934 -6.6329886e-3
vn -0.24202407 -0.97026620 -2.8029060e-3
vn 0.13739310 -0.96037075 0.24251013
vn -6.4782513e-2 -0.98863748 -0.13564350
vn -6.2233824e-3 -0.11499602 -0.99334646
vn 4.5413422e-4 -0.18110630 -0.98346342
vn 2.0105508e-2 -0.99913445 3.6416014e-2
vn 1.8210821e-2 -0.99939588 2.9601328e-2
vn -0.26138750 -0.95696637 -0.12606324
vn -0.15023762 -0.95556985 -0.25360386
vn 0.51619135 -0.80624232 -0.28899795
vn 0.39006206 0.53082875 -0.75237785
vn -0.43461641 0.87416486 -0.21666652
vn -0.12494454 0.25331081 -0.95928228
vn -0.61432612 0.78427714 8.6676345e-2
vn -0.12937751 0.24600068 0.96059623
vn 0.39898561 0.52438522 0.75221714
vn 2.2894185e-2 -0.65996235 0.75094977
vn 0.40575527 0.38645016 -0.82826260
vn -0.12504350 0.20436645 -0.97087511
vn -0.56051548 0.82655884 -5.1214016e-2
vn -0.13933968 0.19125800 0.97159911
vn 0.40659145 0.38241377 0.82972471
vn 0.52825618 -0.84700972 5.9329086e-2
vn 3.6253796e-4 0.73266442 -0.68058998
vn 0.43209224 -0.87098616 0.23383628
vn 5.8280064e-2 -0.61823230 -0.78383178
vn 0.58534884 -0.80911946 -5.1888743e-2
vn 0.32862862 0.60693649 -0.72362375
vn -0.10652242 0.37792169 -0.91968917
vn -0.51630115 0.79460132 0.31943992
vn -3.4553534e-2 0.66144601 0.74919639
vn -0.13388467 0.38080098 0.91491284
vn 0.31231390 0.62380097 0.71647217
vn 1.8625285e-2 -0.12127092 0.99244469
vn 1.6839461e-2 -0.20745905 0.97809876
vn 0.74736567 0.57324785 0.33590396
vn 0.85841692 -0.34857882 0.37631528
vn 3.8188548e-2 0.49452867 -0.86832196
vn 3.4502456e-2 -0.41169811 -0.91066693
vn 0.78294797 0.61883965 6.3481983e-2
vn 0.77754245 0.61101207 -0.14863377
vn 0.95033197 -0.25818682 -0.17380656
vn 0.95376862 -0.29298524 6.6970665e-2
vn 0.77433849 -0.47215726 -0.42126883
vn 0.83578053 -0.32008917 -0.44610966
vn 4.4340577e-2 -0.96260462 0.26725691
vn 9.7322008e-2 -0.93210721 -0.34886183
vn -3.6032613e-2 0.96726031 -0.25121532
vn -9.5336315e-2 0.91777005 0.38549854
vn 1.8315826e-3 0.96964148 0.24452412
vn -4.9034988e-3 0.79149231 -0.61115946
vn 0.19264854 0.97749726 8.5939751e-2
vn -0.57961553 0.77142397 -0.26258503
vn 0.23291266 0.97116865 -5.0824569e-2
vn 0.21826722 0.97579617 1.3463326e-2
vn -0.60822663 0.79248867 -4.4967562e-2
vn -0.58416753 0.80673741 8.9011450e-2
vn 0.21148541 0.97111698 -0.11047955
vn -0.51549546 0.81984785 0.24922667
vn 7.3841861e-3 0.97415285 -0.22576915
vn -1.7297984e-2 0.77682710 0.62947632
vn 7.1610939e-2 0.32073925 -0.94445657
vn 8.6254084e-2 0.43472016 -0.89642546
vn 8.8156705e-2 0.23057414 -0.96905313
vn -0.51676994 0.30115207 -0.80140893
vn -0.40634582 0.51032624 -0.75792494
vn -0.50104371 0.28494871 -0.81716548
vn -0.51228306 0.30141083 0.80418752
vn -0.41918636 0.51396657 0.74841243
vn -0.50984904 0.28021155 0.81334829
vn 6.0040963e-2 0.33002563 0.94206060
vn 7.7295609e-2 0.41887157 0.90474969
vn 7.3808706e-2 0.21724759 0.97332202
vn 0.76310839 0.59247096 -0.25815450
vn 0.77356041 0.57832397 0.25912483
vn 0.54772169 0.79490618 0.26100787
vn 0.77354717 0.54508848 0.32326975
vn 0.55634621 0.78431753 -0.27445383
vn 0.76569882 0.54955648 -0.33420501
vn 1.4103233e-2 0.56235157 0.82677797
vn 1.7026780e-2 -0.45775845 0.88891354
vn 0.78367835 -0.50834210 0.35698256
vn 0.85812453 -0.32262226 0.39942105
vn 1.4161139e-2 -0.94500993 -0.32673489
vn -1.1143186e-2 -0.99902806 4.2646916e-2
vn 0.86847062 -0.48149600 -0.11798470
vn 0.86223935 -0.50356176 5.4487165e-2
vn 0.93766876 -0.34122214 6.5914737e-2
vn 0.92607151 -0.33999306 -0.16369570
vn 0.86227284 -0.25858391 -0.43545369
vn 0.71606792 0.59457500 -0.36568743
vn -2.6035311e-3 -0.98624948 -0.16524282
vn 6.7832503e-3 -0.94293692 0.33290232
vn 0.26341164 -0.95478484 -0.13784126
vn 0.10033323 -0.99437761 -3.3858735e-2
vn -6.3285576e-2 -0.99763132 -2.6957144e-2
vn 0.20518673 -0.97138916 0.11958894
vn 4.1469976e-2 -0.19678491 -0.97956926
vn 4.4091443e-2 -0.12454158 -0.99123425
vn 0.23704110 -0.97145800 8.9926885e-3
vn -3.6934143e-2 -0.99915800 -1.7865171e-2
vn 4.3773086e-2 -0.99892016 -1.5570363e-2
vn 0.26737598 -0.96174914 -5.9570727e-2
vn 0.16623317 -0.98335646 7.3325353e-2
vn 0.24599259 -0.96425114 -9.8526083e-2
vn -0.31699073 0.94047915 0.12253918
vn -0.21828661 0.97324894 -7.1676115e-2
vn -2.9542345e-3 0.24221031 -0.97021927
vn 3.2678278e-3 0.36945352 -0.92924347
vn -1.4865343e-3 0.19351842 -0.98109552
vn -0.86502276 0.32172991 -0.38500064
vn -0.74775378 0.57069053 -0.33937679
vn -0.86052541 0.33000097 -0.38806621
vn -0.93282833 0.32891189 0.14713351
vn -0.94319935 0.32618109 -6.3094292e-2
vn -0.84341623 0.53460435 -5.3359624e-2
vn -0.94624695 0.31634318 -6.7407040e-2
vn -0.84127777 0.52422674 0.13205314
vn -0.93836380 0.31032337 0.15222613
vn -0.84455245 0.32477829 0.42573492
vn -0.71947676 0.53777293 0.43949228
vn -0.83116270 0.31310368 0.45949392
vn -1.6771598e-2 0.24498831 0.96938096
vn -1.3065558e-2 0.33805921 0.94103415
vn -8.8717211e-3 0.17001408 0.98540170
vn -0.86451066 -0.49988906 5.2270921e-2
vn -0.56138285 -0.34802457 0.75081835
vn 0.19528787 -0.29775402 0.93445449
vn 0.85908846 -0.36130118 0.36253064
vn 0.83650984 -0.39431230 -0.38048533
vn 0.22814769 -0.47836586 -0.84800633
vn -0.55787710 -0.51932623 -0.64735879
vn -0.88728954 0.45445997 7.8634655e-2
vn -0.57165108 0.40175636 0.71540678
vn 0.18799155 0.44684317 0.87463727
vn 0.80789576 0.46205146 0.36580443
vn 0.79168621 0.48055602 -0.37722520
vn 0.22380293 0.50456095 -0.83386479
vn -0.53548938 0.52586516 -0.66084564
vn -0.40682292 -0.91283534 3.5024961e-2
vn -0.26207911 -0.92954272 -0.25935473
vn 8.9572768e-2 -0.92705334 -0.36407256
vn 0.44832996 -0.87763207 -0.16959421
vn 0.49059661 -0.84433724 0.21542885
vn 0.10136938 -0.78688637 0.60871511
vn -0.33005872 -0.81416840 0.47769348
vn -0.37941520 0.92387680 4.9957657e-2
vn -0.28791630 0.89247987 0.34725192
vn 6.9850588e-2 0.91332100 0.40120524
vn 0.37273800 0.90980009 0.18256556
vn 0.34852852 0.92391011 -0.15785430
vn 8.2132893e-2 0.93371659 -0.34846452
vn -0.20512222 0.94641093 -0.24946189
vn -1.0734830e-2 -0.99983582 1.4597849e-2
vn -0.99789489 -5.4943657e-2 -3.4452527e-2
vn -7.9212994e-2 0.20929864 0.97463808
vn -7.9212994e-2 0.20929864 0.97463808
vn -7.9212994e-2 0.20929864 0.97463808
vn -0.84715594 0.52646267 -7.1860063e-2
vn 5.0562646e-2 -4.6005824e-2 0.99766071
vn -0.84715594 0.52646267 -7.1860063e-2
vn 0.90232535 0.42830464 4.8622106e-2
vn 3.7540626e-3 0.25231130 0.96763883
vn 0.90232535 0.42830464 4.8622106e-2
vn 9.1065142e-3 0.18899993 0.98193487
vn -1.0734830e-2 -0.99983582 1.4597849e-2
vn 9.1065142e-3 0.18899993 0.98193487
vn 9.1065142e-3 0.18899993 0.98193487
vn 0.99909442 -4.0333670e-2 1.3547811e-2
vn -1.0734830e-2 -0.99983582 1.4597849e-2
vn -1.8366605e-2 8.3612872e-2 -0.99632904
vn -0.99789489 -5.4943657e-2 -3.4452527e-2
vn -1.8366605e-2 8.3612872e-2 -0.99632904
vn -0.84715594 0.52646267 -7.1860063e-2
vn -0.84715594 0.52646267 -7.1860063e-2
vn -1.8366605e-2 8.3612872e-2 -0.99632904
vn 0.90232535 0.42830464 4.8622106e-2
vn 0.90232535 0.42830464 4.8622106e-2
vn -1.0734830e-2 -0.99983582 1.4597849e-2
vn -1.8366605e-2 8.3612872e-2 -0.99632904
vn 0.99909442 -4.0333670e-2 1.3547811e-2
vn -0.99977373 -2.0635855e-2 -5.1632843e-3
vn 2.2517862e-2 0.17394671 0.98449758
vn 2.2517862e-2 0.17394671 0.98449758
vn -0.38961535 0.91720797 -8.3243128e-2
vn 0.59782625 0.79834023 7.2502799e-2
vn 0.99915323 2.9620318e-2 2.8556355e-2
vn 5.2995327e-2 0.31254050 0.94842498
vn 5.2995327e-2 0.31254050 0.94842498
vn -7.3545973e-3 -0.17735734 -0.98411904
vn -7.3545973e-3 -0.17735734 -0.98411904
vn -0.99977373 -2.0635855e-2 -5.1632843e-3
vn -0.38961535 0.91720797 -8.3243128e-2
vn -7.3545973e-3 -0.17735734 -0.98411904
vn 0.59782625 0.79834023 7.2502799e-2
vn 0.99915323 2.9620318e-2 2.8556355e-2
vn -7.3545973e-3 -0.17735734 -0.98411904
vn 0.99915323 2.9620318e-2 2.8556355e-2
vn 0.10189628 0.37076273 0.92312087
vn 0.71734261 -0.61380829 0.32963460
vn 2.7658031e-2 -7.7629229e-2 0.99659858
vn 0.99915323 2.9620318e-2 2.8556355e-2
vn 4.1602872e-3 -0.42620060 -0.90461912
vn 0.71734261 -0.61380829 0.32963460
vn -1.0317941e-2 -0.75563033 -0.65491705
vn 4.1602872e-3 -0.42620060 -0.90461912
vn -0.99977373 -2.0635855e-2 -5.1632843e-3
vn -1.0317941e-2 -0.75563033 -0.65491705
vn -0.72074198 -0.61957267 0.31090304
vn -0.99977373 -2.0635855e-2 -5.1632843e-3
vn -0.72074198 -0.61957267 0.31090304
vn -6.6379291e-3 0.38531690 0.92276044
vn -8.1105987e-2 -0.11470846 0.99008272
vn 0.92188521 -0.33283964 0.19835682
vn 0.92188521 -0.33283964 0.19835682
vn -1.2655356e-2 0.44513989 0.89537161
vn 2.7658031e-2 -7.7629229e-2 0.99659858
vn 0.92188521 -0.33283964 0.19835682
vn -1.0317941e-2 -0.75563033 -0.65491705
vn 0.92188521 -0.33283964 0.19835682
vn 7.8003695e-3 -0.47127104 -0.88195394
vn -1.0317941e-2 -0.75563033 -0.65491705
vn -0.91711219 -0.35094191 0.18906349
vn 7.8003695e-3 -0.47127104 -0.88195394
vn -0.91711219 -0.35094191 0.18906349
vn -0.91711219 -0.35094191 0.18906349
vn -0.91711219 -0.35094191 0.18906349
vn -1.2655356e-2 0.44513989 0.89537161
vn -8.1105987e-2 -0.11470846 0.99008272
vn 0.99919391 -5.9341504e-3 3.9702833e-2
vn -1.2655356e-2 0.44513989 0.89537161
vn 0.99919391 -5.9341504e-3 3.9702833e-2
vn 7.8003695e-3 -0.47127104 -0.88195394
vn 7.8003695e-3 -0.47127104 -0.88195394
vn -0.99832189 -3.8243859e-2 4.3483497e-2
vn -0.99832189 -3.8243859e-2 4.3483497e-2
vn -1.2655356e-2 0.44513989 0.89537161
vn -0.10866280 0.31814787 0.94179314
vn -0.10866280 0.31814787 0.94179314
vn -0.10866280 0.31814787 0.94179314
vn -0.10866280 0.31814787 0.94179314
vn 7.2102724e-2 0.30025561 0.95112973
vn 7.2102724e-2 0.30025561 0.95112973
vn 7.2102724e-2 0.30025561 0.95112973
vn 7.2102724e-2 0.30025561 0.95112973
vn 0.10189628 0.37076273 0.92312087
vn 0.15362274 0.21293958 0.96491284
vn 2.7658031e-2 -7.7629229e-2 0.99659858
vn 0.15362274 0.21293958 0.96491284
vn -0.13122495 0.17538826 0.97571460
vn -6.6379291e-3 0.38531690 0.92276044
vn -0.13122495 0.17538826 0.97571460
vn -8.1105987e-2 -0.11470846 0.99008272
vn -0.14286978 0.34428574 0.92793079
vn -0.14286978 0.34428574 0.92793079
vn -0.14286978 0.34428574 0.92793079
vn -0.14286978 0.34428574 0.92793079
vn 2.1307522e-2 0.26122212 0.96504352
vn 2.1307522e-2 0.26122212 0.96504352
vn 2.1307522e-2 0.26122212 0.96504352
vn 2.1307522e-2 0.26122212 0.96504352
vn 1.7633368e-2 0.21105259 0.97731564
vn 0.15362274 0.21293958 0.96491284
vn 1.7633368e-2 0.21105259 0.97731564
vn 0.15362274 0.21293958 0.96491284
vn -0.13122495 0.17538826 0.97571460
vn 1.7633368e-2 0.21105259 0.97731564
vn -0.13122495 0.17538826 0.97571460
vn 1.7633368e-2 0.21105259 0.97731564
vn -1.2655356e-2 0.44513989 0.89537161
vn 2.7658031e-2 -7.7629229e-2 0.99659858
vn 0.10638976 5.8545375e-2 0.99259944
vn 0.17073742 5.5637524e-2 0.98374448
vn -1.2655356e-2 0.44513989 0.89537161
vn -4.5894828e-2 -4.2677580e-3 0.99893716
vn -8.1105987e-2 -0.11470846 0.99008272
vn 0.10638976 5.8545375e-2 0.99259944
vn -1.2480289e-2 -0.99964262 -2.3640499e-2
vn 0.99636798 -1.7568016e-2 8.3319933e-2
vn -4.6854842e-2 4.6046870e-2 -0.99783982
vn -4.6854842e-2 4.6046870e-2 -0.99783982
vn -4.6854842e-2 4.6046870e-2 -0.99783982
vn 0.87716791 0.47692069 5.5884740e-2
vn 1.5694424e-2 0.11123064 -0.99367069
vn 0.87716791 0.47692069 5.5884740e-2
vn -0.84020500 0.54054368 -4.3221386e-2
vn 3.0156004e-2 -4.5835868e-2 -0.99849371
vn -0.84020500 0.54054368 -4.3221386e-2
vn 5.3951637e-2 -9.7995182e-2 -0.99372338
vn -1.2480289e-2 -0.99964262 -2.3640499e-2
vn 5.3951637e-2 -9.7995182e-2 -0.99372338
vn 5.3951637e-2 -9.7995182e-2 -0.99372338
vn -0.99484872 9.3631719e-2 3.8847555e-2
vn -1.2480289e-2 -0.99964262 -2.3640499e-2
vn 1.3697240e-2 0.20783008 0.97806904
vn 0.99636798 -1.7568016e-2 8.3319933e-2
vn 1.3697240e-2 0.20783008 0.97806904
vn 0.87716791 0.47692069 5.5884740e-2
vn 0.87716791 0.47692069 5.5884740e-2
vn 1.3697240e-2 0.20783008 0.97806904
vn -0.84020500 0.54054368 -4.3221386e-2
vn -0.84020500 0.54054368 -4.3221386e-2
vn -1.2480289e-2 -0.99964262 -2.3640499e-2
vn 1.3697240e-2 0.20783008 0.97806904
vn -0.99484872 9.3631719e-2 3.8847555e-2
vn 0.99404175 6.1436585e-2 -9.0036346e-2
vn 1.2789178e-2 0.24601524 -0.96918158
vn 1.2789178e-2 0.24601524 -0.96918158
vn 0.53035994 0.84765782 1.3948551e-2
vn -0.49199462 0.86292503 -0.11533297
vn -0.99991296 -6.0770856e-3 1.1710911e-2
vn 1.5225331e-2 0.16685965 -0.98586310
vn 1.5225331e-2 0.16685965 -0.98586310
vn 6.3279791e-4 -0.11852805 0.99295050
vn 6.3279791e-4 -0.11852805 0.99295050
vn 0.99404175 6.1436585e-2 -9.0036346e-2
vn 0.53035994 0.84765782 1.3948551e-2
vn 6.3279791e-4 -0.11852805 0.99295050
vn -0.49199462 0.86292503 -0.11533297
vn -0.99991296 -6.0770856e-3 1.1710911e-2
vn 6.3279791e-4 -0.11852805 0.99295050
vn -0.99991296 -6.0770856e-3 1.1710911e-2
vn -3.9995054e-4 0.37194273 -0.92825559
vn -0.69415004 -0.64901039 -0.31135386
vn 7.5139463e-4 7.9735608e-2 -0.99681576
vn -0.99991296 -6.0770856e-3 1.1710911e-2
vn -1.2499291e-2 -0.43221531 0.90168381
vn -0.69415004 -0.64901039 -0.31135386
vn -2.7182839e-2 -0.80161700 0.59721963
vn -1.2499291e-2 -0.43221531 0.90168381
vn 0.99404175 6.1436585e-2 -9.0036346e-2
vn -2.7182839e-2 -0.80161700 0.59721963
vn 0.62493983 -0.68000303 -0.38346589
vn 0.99404175 6.1436585e-2 -9.0036346e-2
vn 0.62493983 -0.68000303 -0.38346589
vn 9.6438156e-3 0.37618090 -0.92649605
vn -1.2500357e-2 1.0222745e-2 -0.99986961
vn -0.91809325 -0.36865347 -0.14560014
vn -0.91809325 -0.36865347 -0.14560014
vn -4.0754931e-3 0.54256221 -0.84000574
vn 7.5139463e-4 7.9735608e-2 -0.99681576
vn -0.91809325 -0.36865347 -0.14560014
vn -2.7182839e-2 -0.80161700 0.59721963
vn -0.91809325 -0.36865347 -0.14560014
vn -2.2476392e-2 -0.42978582 0.90265107
vn -2.7182839e-2 -0.80161700 0.59721963
vn 0.90749285 -0.36127802 -0.21432434
vn -2.2476392e-2 -0.42978582 0.90265107
vn 0.90749285 -0.36127802 -0.21432434
vn 0.90749285 -0.36127802 -0.21432434
vn 0.90749285 -0.36127802 -0.21432434
vn -4.0754931e-3 0.54256221 -0.84000574
vn -1.2500357e-2 1.0222745e-2 -0.99986961
vn -0.99860747 -3.0703720e-2 4.2899938e-2
vn -4.0754931e-3 0.54256221 -0.84000574
vn -0.99860747 -3.0703720e-2 4.2899938e-2
vn -2.2476392e-2 -0.42978582 0.90265107
vn -2.2476392e-2 -0.42978582 0.90265107
vn 0.99944450 3.3326467e-2 -1.6810125e-4
vn 0.99944450 3.3326467e-2 -1.6810125e-4
vn -4.0754931e-3 0.54256221 -0.84000574
vn 5.3636678e-2 0.20091629 -0.97813892
vn 5.3636678e-2 0.20091629 -0.97813892
vn 5.3636678e-2 0.20091629 -0.97813892
vn 5.3636678e-2 0.20091629 -0.97813892
vn 0.12636822 9.3200223e-2 -0.98759546
vn 0.12636822 9.3200223e-2 -0.98759546
vn 0.12636822 9.3200223e-2 -0.98759546
vn 0.12636822 9.3200223e-2 -0.98759546
vn -3.9995054e-4 0.37194273 -0.92825559
vn 0.17666871 0.21846225 -0.95971996
vn 7.5139463e-4 7.9735608e-2 -0.99681576
vn 0.17666871 0.21846225 -0.95971996
vn 0.39918622 0.18859760 -0.89726323
vn 9.6438156e-3 0.37618090 -0.92649605
vn 0.39918622 0.18859760 -0.89726323
vn -1.2500357e-2 1.0222745e-2 -0.99986961
vn -0.19098512 0.16964791 -0.96682174
vn -0.19098512 0.16964791 -0.96682174
vn -0.19098512 0.16964791 -0.96682174
vn -0.19098512 0.16964791 -0.96682174
vn -0.12032633 9.8301013e-2 -0.98785550
vn -0.12032633 9.8301013e-2 -0.98785550
vn -0.12032633 9.8301013e-2 -0.98785550
vn -0.12032633 9.8301013e-2 -0.98785550
vn -0.54825491 0.16901523 -0.81905458
vn 0.17666871 0.21846225 -0.95971996
vn -0.54825491 0.16901523 -0.81905458
vn 0.17666871 0.21846225 -0.95971996
vn 0.39918622 0.18859760 -0.89726323
vn -0.54825491 0.16901523 -0.81905458
vn 0.39918622 0.18859760 -0.89726323
vn -0.54825491 0.16901523 -0.81905458
vn -4.0754931e-3 0.54256221 -0.84000574
vn 7.5139463e-4 7.9735608e-2 -0.99681576
vn -0.21200697 8.6646063e-2 -0.97341949
vn 8.1239491e-2 8.0033138e-2 -0.99347614
vn -4.0754931e-3 0.54256221 -0.84000574
vn 0.49881942 2.1686825e-2 -0.86643457
vn -1.2500357e-2 1.0222745e-2 -0.99986961
vn -0.21200697 8.6646063e-2 -0.97341949
vn -2.4995705e-2 -0.99844140 -4.9899698e-2
vn -0.99978839 1.5017625e-3 2.0516575e-2
vn 0.12820286 -0.16841226 -0.97734402
vn 0.12820286 -0.16841226 -0.97734402
vn 0.12820286 -0.16841226 -0.97734402
vn -0.86546064 0.50012322 2.9234435e-2
vn -4.2557321e-2 0.10100916 -0.99397486
vn -0.86546064 0.50012322 2.9234435e-2
vn 0.80272492 0.58770377 0.10117796
vn -1.4360959e-2 4.2381035e-2 -0.99899830
vn 0.80272492 0.58770377 0.10117796
vn 0.21546916 0.40648804 -0.88788542
vn -2.4995705e-2 -0.99844140 -4.9899698e-2
vn 0.21546916 0.40648804 -0.88788542
vn 0.21546916 0.40648804 -0.88788542
vn 0.99814677 3.9529359e-2 4.6265116e-2
vn -2.4995705e-2 -0.99844140 -4.9899698e-2
vn -1.3574903e-2 5.7638666e-2 0.99824521
vn -0.99978839 1.5017625e-3 2.0516575e-2
vn -1.3574903e-2 5.7638666e-2 0.99824521
vn -0.86546064 0.50012322 2.9234435e-2
vn -0.86546064 0.50012322 2.9234435e-2
vn -1.3574903e-2 5.7638666e-2 0.99824521
vn 0.80272492 0.58770377 0.10117796
vn 0.80272492 0.58770377 0.10117796
vn -2.4995705e-2 -0.99844140 -4.9899698e-2
vn -1.3574903e-2 5.7638666e-2 0.99824521
vn 0.99814677 3.9529359e-2 4.6265116e-2
vn -0.99878579 2.0604042e-2 -4.4748406e-2
vn -4.7442405e-3 0.25049828 -0.96810542
vn -4.7442405e-3 0.25049828 -0.96810542
vn -0.50027706 0.86534015 3.0154205e-2
vn 0.33301172 0.93505963 0.12151826
vn 0.99541081 4.0101350e-2 -8.6886142e-2
vn -7.4477497e-3 0.21959012 -0.97556379
vn -7.4477497e-3 0.21959012 -0.97556379
vn -1.0868410e-2 -0.18119148 0.98338778
vn -1.0868410e-2 -0.18119148 0.98338778
vn -0.99878579 2.0604042e-2 -4.4748406e-2
vn -0.50027706 0.86534015 3.0154205e-2
vn -1.0868410e-2 -0.18119148 0.98338778
vn 0.33301172 0.93505963 0.12151826
vn 0.99541081 4.0101350e-2 -8.6886142e-2
vn -1.0868410e-2 -0.18119148 0.98338778
vn 0.99541081 4.0101350e-2 -8.6886142e-2
vn -2.9621174e-4 0.38977231 -0.92091121
vn 0.74488722 -0.56236986 -0.35900303
vn 8.6555208e-3 -2.9272299e-2 -0.99953400
vn 0.99541081 4.0101350e-2 -8.6886142e-2
vn -7.5395060e-3 -0.40964517 0.91221378
vn 0.74488722 -0.56236986 -0.35900303
vn 4.8027311e-3 -0.77657413 0.63000759
vn -7.5395060e-3 -0.40964517 0.91221378
vn -0.99878579 2.0604042e-2 -4.4748406e-2
vn 4.8027311e-3 -0.77657413 0.63000759
vn -0.64394167 -0.66532919 -0.37772502
vn -0.99878579 2.0604042e-2 -4.4748406e-2
vn -0.64394167 -0.66532919 -0.37772502
vn 3.3184818e-2 0.39386371 -0.91856962
vn 1.9562638e-2 6.9983249e-2 -0.99735633
vn 0.93480135 -0.31372521 -0.16650203
vn 0.93480135 -0.31372521 -0.16650203
vn 4.9430920e-3 0.39986752 -0.91655962
vn 8.6555208e-3 -2.9272299e-2 -0.99953400
vn 0.93480135 -0.31372521 -0.16650203
vn 4.8027311e-3 -0.77657413 0.63000759
vn 0.93480135 -0.31372521 -0.16650203
vn 1.0642014e-2 -0.36639436 0.93039880
vn 4.8027311e-3 -0.77657413 0.63000759
vn -0.89367908 -0.39458699 -0.21363241
vn 1.0642014e-2 -0.36639436 0.93039880
vn -0.89367908 -0.39458699 -0.21363241
vn -0.89367908 -0.39458699 -0.21363241
vn -0.89367908 -0.39458699 -0.21363241
vn 4.9430920e-3 0.39986752 -0.91655962
vn 1.9562638e-2 6.9983249e-2 -0.99735633
vn 0.99856575 -2.2743917e-2 4.8468117e-2
vn 4.9430920e-3 0.39986752 -0.91655962
vn 0.99856575 -2.2743917e-2 4.8468117e-2
vn 1.0642014e-2 -0.36639436 0.93039880
vn 1.0642014e-2 -0.36639436 0.93039880
vn -0.99810740 -5.9686336e-2 -1.4803925e-2
vn -0.99810740 -5.9686336e-2 -1.4803925e-2
vn 4.9430920e-3 0.39986752 -0.91655962
vn 2.2252038e-4 6.4877736e-2 -0.99789320
vn 2.2252038e-4 6.4877736e-2 -0.99789320
vn 2.2252038e-4 6.4877736e-2 -0.99789320
vn 2.2252038e-4 6.4877736e-2 -0.99789320
vn 0.31708868 0.48069252 -0.81755090
vn 0.31708868 0.48069252 -0.81755090
vn 0.31708868 0.48069252 -0.81755090
vn 0.31708868 0.48069252 -0.81755090
vn -2.9621174e-4 0.38977231 -0.92091121
vn 0.45200044 0.12304147 -0.88349103
vn 8.6555208e-3 -2.9272299e-2 -0.99953400
vn 0.45200044 0.12304147 -0.88349103
vn -0.61950602 0.23408801 -0.74927638
vn 3.3184818e-2 0.39386371 -0.91856962
vn -0.61950602 0.23408801 -0.74927638
vn 1.9562638e-2 6.9983249e-2 -0.99735633
vn -0.10105523 3.0660652e-2 -0.99440825
vn -0.10105523 3.0660652e-2 -0.99440825
vn -0.10105523 3.0660652e-2 -0.99440825
vn -0.10105523 3.0660652e-2 -0.99440825
vn 0.22470245 0.48576817 -0.84471184
vn 0.22470245 0.48576817 -0.84471184
vn 0.22470245 0.48576817 -0.84471184
vn 0.22470245 0.48576817 -0.84471184
vn -0.12901111 0.34789928 -0.92861307
vn 0.45200044 0.12304147 -0.88349103
vn -0.12901111 0.34789928 -0.92861307
vn 0.45200044 0.12304147 -0.88349103
vn -0.61950602 0.23408801 -0.74927638
vn -0.12901111 0.34789928 -0.92861307
vn -0.61950602 0.23408801 -0.74927638
vn -0.12901111 0.34789928 -0.92861307
vn 4.9430920e-3 0.39986752 -0.91655962
vn 8.6555208e-3 -2.9272299e-2 -0.99953400
vn 6.8172834e-2 0.34800639 -0.93501017
vn 0.34556216 -9.0386270e-2 -0.93403272
vn 4.9430920e-3 0.39986752 -0.91655962
vn -0.78483323 0.12300143 -0.60737751
vn 1.9562638e-2 6.9983249e-2 -0.99735633
vn 6.8172834e-2 0.34800639 -0.93501017
vn -6.3401966e-3 -0.99006119 0.14049426
vn 0.99935990 2.8296523e-2 2.1888265e-2
vn -0.16613834 -0.23404548 0.95792524
vn -0.16613834 -0.23404548 0.95792524
vn -0.16613834 -0.23404548 0.95792524
vn 0.87107328 0.48949357 4.0340811e-2
vn 4.2126210e-2 1.4994868e-2 0.99899977
vn 0.87107328 0.48949357 4.0340811e-2
vn -0.80408149 0.59432484 -1.5196590e-2
vn 8.6111765e-2 -0.13853980 0.98660605
vn -0.80408149 0.59432484 -1.5196590e-2
vn 2.1758440e-2 -6.6260761e-2 0.99756508
vn -6.3401966e-3 -0.99006119 0.14049426
vn 2.1758440e-2 -6.6260761e-2 0.99756508
vn 2.1758440e-2 -6.6260761e-2 0.99756508
vn -0.99389262 0.10840160 -2.0653239e-2
vn -6.3401966e-3 -0.99006119 0.14049426
vn 7.4407838e-3 1.3680242e-2 -0.99987874
vn 0.99935990 2.8296523e-2 2.1888265e-2
vn 7.4407838e-3 1.3680242e-2 -0.99987874
vn 0.87107328 0.48949357 4.0340811e-2
vn 0.87107328 0.48949357 4.0340811e-2
vn 7.4407838e-3 1.3680242e-2 -0.99987874
vn -0.80408149 0.59432484 -1.5196590e-2
vn -0.80408149 0.59432484 -1.5196590e-2
vn -6.3401966e-3 -0.99006119 0.14049426
vn 7.4407838e-3 1.3680242e-2 -0.99987874
vn -0.99389262 0.10840160 -2.0653239e-2
vn 0.99799582 2.2770736e-2 5.9040952e-2
vn 5.1890565e-2 0.21763140 0.97465068
vn 5.1890565e-2 0.21763140 0.97465068
vn 0.54287475 0.83835152 4.9535114e-2
vn -0.39541593 0.91848508 -5.6037409e-3
vn -0.99632997 -3.9927513e-2 -7.5712570e-2
vn 4.3443666e-2 0.12937976 0.99064299
vn 4.3443666e-2 0.12937976 0.99064299
vn -1.9962600e-2 -0.19894024 -0.97980829
vn -1.9962600e-2 -0.19894024 -0.97980829
vn 0.99799582 2.2770736e-2 5.9040952e-2
vn 0.54287475 0.83835152 4.9535114e-2
vn -1.9962600e-2 -0.19894024 -0.97980829
vn -0.39541593 0.91848508 -5.6037409e-3
vn -0.99632997 -3.9927513e-2 -7.5712570e-2
vn -1.9962600e-2 -0.19894024 -0.97980829
vn -0.99632997 -3.9927513e-2 -7.5712570e-2
vn -2.4226580e-3 0.38777468 0.92175101
vn -0.70485699 -0.66195998 0.25492275
vn -6.0229102e-3 -1.1647665e-2 0.99991402
vn -0.99632997 -3.9927513e-2 -7.5712570e-2
vn -4.6440493e-2 -0.40233760 -0.91431271
vn -0.70485699 -0.66195998 0.25492275
vn -1.7204513e-2 -0.82433369 -0.56584272
vn -4.6440493e-2 -0.40233760 -0.91431271
vn 0.99799582 2.2770736e-2 5.9040952e-2
vn -1.7204513e-2 -0.82433369 -0.56584272
vn 0.70420228 -0.62181123 0.34270969
vn 0.99799582 2.2770736e-2 5.9040952e-2
vn 0.70420228 -0.62181123 0.34270969
vn 5.9488500e-2 0.41118187 0.90961013
vn 1.7309679e-3 -7.4458724e-2 0.99722259
vn -0.91885728 -0.37328671 0.12789973
vn -0.91885728 -0.37328671 0.12789973
vn -1.2672688e-2 0.45766136 0.88903627
vn -6.0229102e-3 -1.1647665e-2 0.99991402
vn -0.91885728 -0.37328671 0.12789973
vn -1.7204513e-2 -0.82433369 -0.56584272
vn -0.91885728 -0.37328671 0.12789973
vn -4.7050500e-3 -0.36086363 -0.93260672
vn -1.7204513e-2 -0.82433369 -0.56584272
vn 0.91952789 -0.35982709 0.15809149
vn -4.7050500e-3 -0.36086363 -0.93260672
vn 0.91952789 -0.35982709 0.15809149
vn 0.91952789 -0.35982709 0.15809149
vn 0.91952789 -0.35982709 0.15809149
vn -1.2672688e-2 0.45766136 0.88903627
vn 1.7309679e-3 -7.4458724e-2 0.99722259
vn -0.99938139 -3.0388610e-2 -1.7702424e-2
vn -1.2672688e-2 0.45766136 0.88903627
vn -0.99938139 -3.0388610e-2 -1.7702424e-2
vn -4.7050500e-3 -0.36086363 -0.93260672
vn -4.7050500e-3 -0.36086363 -0.93260672
vn 0.99776597 -4.4198235e-2 -5.0095727e-2
vn 0.99776597 -4.4198235e-2 -5.0095727e-2
vn -1.2672688e-2 0.45766136 0.88903627
vn 1.4141015e-2 4.1404208e-2 0.99904240
vn 1.4141015e-2 4.1404208e-2 0.99904240
vn 1.4141015e-2 4.1404208e-2 0.99904240
vn 1.4141015e-2 4.1404208e-2 0.99904240
vn -0.11653542 0.13323986 0.98420863
vn -0.11653542 0.13323986 0.98420863
vn -0.11653542 0.13323986 0.98420863
vn -0.11653542 0.13323986 0.98420863
vn -2.4226580e-3 0.38777468 0.92175101
vn -0.61214141 0.17351739 0.77147561
vn -6.0229102e-3 -1.1647665e-2 0.99991402
vn -0.61214141 0.17351739 0.77147561
vn 0.43614168 0.15322277 0.88673740
vn 5.9488500e-2 0.41118187 0.90961013
vn 0.43614168 0.15322277 0.88673740
vn 1.7309679e-3 -7.4458724e-2 0.99722259
vn -8.9701493e-2 1.7520815e-2 0.99581457
vn -8.9701493e-2 1.7520815e-2 0.99581457
vn -8.9701493e-2 1.7520815e-2 0.99581457
vn -8.9701493e-2 1.7520815e-2 0.99581457
vn -0.20142578 0.15605887 0.96699188
vn -0.20142578 0.15605887 0.96699188
vn -0.20142578 0.15605887 0.96699188
vn -0.20142578 0.15605887 0.96699188
vn -7.8260473e-2 0.30549203 0.94897309
vn -0.61214141 0.17351739 0.77147561
vn -7.8260473e-2 0.30549203 0.94897309
vn -0.61214141 0.17351739 0.77147561
vn 0.43614168 0.15322277 0.88673740
vn -7.8260473e-2 0.30549203 0.94897309
vn 0.43614168 0.15322277 0.88673740
vn -7.8260473e-2 0.30549203 0.94897309
vn -1.2672688e-2 0.45766136 0.88903627
vn -6.0229102e-3 -1.1647665e-2 0.99991402
vn 5.0351974e-2 0.26035112 0.96420017
vn -0.66693371 3.2164515e-2 0.74442251
vn -1.2672688e-2 0.45766136 0.88903627
vn 0.45447317 -6.7247128e-2 0.88821842
vn 1.7309679e-3 -7.4458724e-2 0.99722259
vn 5.0351974e-2 0.26035112 0.96420017
g cube1_default
usemtl default
f 1/500/333 5/509/349 8/303/358 4/294/345
f 1/319/335 25/404/419 9/361/363 2/300/339
f 2/346/338 6/385/353 5/414/351 1/366/334
f 3/355/341 7/409/356 12/387/374 10/367/365
f 3/517/342 10/498/368 26/433/424 4/521/346
f 4/332/348 8/408/360 7/409/357 3/355/343
f 4/521/347 30/429/440 29/417/435 1/319/336
f 6/514/352 11/474/369 12/335/373 7/308/355 8/320/359 5/524/350
f 9/339/364 11/391/372 6/385/354 2/346/340
f 9/339/361 16/453/389 15/475/386 11/391/371
f 11/474/370 15/486/385 14/338/382 12/335/376
f 12/387/375 14/489/381 13/451/377 10/367/366
f 13/479/380 17/528/396 33/442/450 27/441/427
f 13/479/378 27/441/425 26/433/422 10/498/367
f 14/489/383 18/542/397 17/456/393 13/451/379
f 15/486/387 19/537/401 18/304/398 14/338/384
f 16/453/390 20/452/405 19/541/402 15/475/388
f 16/340/392 28/399/432 34/418/455 20/310/408
f 17/528/395 21/527/410 24/299/416 20/310/407 34/418/453 33/442/449
f 18/542/399 22/566/411 21/467/409 17/456/394
f 19/537/403 23/536/413 22/297/412 18/304/400
f 20/452/406 24/466/415 23/564/414 19/541/404
f 25/404/420 1/319/337 29/417/436
f 25/404/418 28/399/430 16/340/391 9/361/362
f 27/441/428 33/442/452 31/428/444
f 29/417/433 32/422/445 28/399/429 25/404/417
f 30/429/437 4/521/344 26/433/421
f 30/429/438 31/428/441 32/422/446 29/417/434
f 31/428/442 30/429/439 26/433/423 27/441/426
f 31/428/443 33/442/451 34/418/456 32/422/448
f 32/422/447 34/418/454 28/399/431
f 35/374/1 36/376/2 43/554/9 42/557/8
f 35/381/1 49/382/15 55/472/21 36/481/2
f 36/376/2 37/373/3 44/556/10 43/554/9
f 36/481/2 55/472/21 54/504/20 37/544/3
f 37/373/3 38/375/4 45/553/11 44/556/10
f 37/544/3 54/504/20 53/431/19 38/457/4
f 38/375/4 39/371/5 46/559/12 45/553/11
f 38/457/4 53/431/19 52/328/18 39/309/5
f 39/372/5 40/369/6 47/555/13 46/560/12
f 39/309/5 52/328/18 51/282/17 40/278/6
f 40/369/6 41/378/7 48/561/14 47/555/13
f 40/278/6 51/282/17 50/283/16 41/279/7
f 41/279/7 50/283/16 49/382/15 35/381/1
f 42/557/8 48/561/14 41/378/7 35/374/1
f 42/370/8 56/379/22 62/470/28 48/503/14
f 43/280/9 57/284/23 56/379/22 42/370/8
f 44/277/10 58/281/24 57/284/23 43/280/9
f 45/326/11 59/334/25 58/281/24 44/277/10
f 46/459/12 60/439/26 59/334/25 45/326/11
f 47/552/13 61/501/27 60/439/26 46/459/12
f 48/503/14 62/470/28 61/501/27 47/552/13
f 50/283/16 51/282/17 52/328/18 53/431/19 54/504/20 55/472/21 49/382/15
f 57/284/23 58/281/24 59/334/25 60/439/26 61/501/27 62/470/28 56/379/22
f 63/291/457 67/311/473 70/505/482 66/507/469
f 63/317/459 87/405/543 71/360/487 64/323/463
f 64/329/462 68/380/477 67/403/475 63/327/458
f 65/343/465 69/396/480 74/383/498 72/344/489
f 65/520/466 72/497/492 88/437/548 66/525/470
f 66/364/472 70/413/484 69/396/481 65/343/467
f 66/525/471 92/430/564 91/425/559 63/317/460
f 68/512/476 73/494/493 74/348/497 69/322/479 70/314/483 67/506/474
f 71/331/488 73/377/496 68/380/478 64/329/464
f 71/331/485 78/450/513 77/495/510 73/377/495
f 73/494/494 77/484/509 76/351/506 74/348/500
f 74/383/499 76/482/505 75/445/501 72/344/490
f 75/487/504 79/543/520 95/436/574 89/438/551
f 75/487/502 89/438/549 88/437/546 72/497/491
f 76/482/507 80/533/521 79/460/517 75/445/503
f 77/484/511 81/531/525 80/301/522 76/351/508
f 78/450/514 82/464/529 81/547/526 77/495/512
f 78/362/516 90/400/556 96/397/579 82/287/532
f 79/543/519 83/548/534 86/295/540 82/287/531 96/397/577 95/436/573
f 80/533/523 84/563/535 83/471/533 79/460/518
f 81/531/527 85/534/537 84/305/536 80/301/524
f 82/464/530 86/488/539 85/568/538 81/547/528
f 87/405/544 63/317/461 91/425/560
f 87/405/542 90/400/554 78/362/515 71/360/486
f 89/438/552 95/436/576 93/423/568
f 91/425/557 94/415/569 90/400/553 87/405/541
f 92/430/561 66/525/468 88/437/545
f 92/430/562 93/423/565 94/415/570 91/425/558
f 93/423/566 92/430/563 88/437/547 89/438/550
f 93/423/567 95/436/575 96/397/580 94/415/572
f 94/415/571 96/397/578 90/400/555
f 97/353/582 101/412/599 102/384/601 98/345/586
f 97/522/584 125/434/683 126/424/688 100/325/595
f 98/345/588 102/384/602 107/386/620 105/336/612
f 98/530/587 105/496/611 121/449/667 97/522/583
f 99/352/591 103/406/605 104/393/608 100/337/596
f 100/292/593 104/306/606 101/508/597 97/502/581
f 100/325/594 122/395/672 106/356/616 99/324/590
f 101/313/598 104/513/607 103/515/603 108/490/621 107/347/617 102/318/600
f 105/496/610 112/492/639 124/447/678 121/449/666
f 106/365/613 108/394/622 103/406/604 99/352/589
f 106/365/614 109/448/625 110/477/629 108/394/623
f 106/356/615 122/395/670 123/390/673 109/349/626
f 107/386/619 111/476/634 112/446/637 105/336/609
f 108/490/624 110/499/630 111/354/633 107/347/618
f 109/448/627 113/462/641 114/540/645 110/477/631
f 110/499/632 114/538/646 115/307/649 111/354/635
f 111/476/636 115/532/650 116/463/653 112/446/638
f 113/462/642 117/473/657 118/562/659 114/540/647
f 114/538/648 118/526/660 119/293/661 115/307/651
f 115/532/652 119/567/662 120/469/663 116/463/654
f 116/546/656 130/432/703 124/447/680 112/492/640
f 121/449/665 124/447/677 128/427/693 125/434/681
f 122/395/669 100/325/592 126/424/685
f 123/390/674 122/395/671 126/424/687 127/419/690
f 123/390/675 129/389/698 113/288/644 109/349/628
f 124/447/679 130/432/702 128/427/695
f 125/434/684 97/522/585 121/449/668
f 125/434/682 128/427/694 127/419/689 126/424/686
f 127/419/692 129/389/700 123/390/676
f 128/427/696 130/432/704 129/389/699 127/419/691
f 129/389/697 130/432/701 116/546/655 120/550/664 117/285/658 113/288/643
f 131/113/29 144/131/42 207/128/105 143/98/41
f 131/113/29 145/105/43 227/133/125 144/131/42
f 132/166/30 205/178/103 316/149/214 298/147/196
f 132/166/30 298/147/196 327/148/225 147/172/45
f 133/115/31 182/106/80 267/84/165 148/100/46
f 134/169/32 206/185/104 217/204/115 183/174/81
f 135/85/33 153/79/51 219/77/117 151/89/49
f 135/85/33 177/91/75 275/81/173 153/79/51
f 136/86/34 154/80/52 270/82/168 152/93/50
f 136/86/34 181/90/79 220/78/118 154/80/52
f 137/56/35 187/57/85 237/104/135 343/110/241 292/67/190
f 138/55/36 191/40/89 249/39/147 356/53/254 297/70/195
f 139/120/37 192/135/90 231/137/129 163/112/61
f 140/155/38 193/161/91 329/150/227 305/144/203
f 141/162/39 313/167/211 405/156/303 312/154/210
f 142/121/40 194/111/92 232/138/130 162/136/60
f 143/98/41 207/128/105 208/124/106 176/73/74
f 143/98/41 274/83/172 145/105/43 131/113/29
f 144/131/42 227/133/125 327/148/225 298/147/196
f 145/105/43 274/83/172 275/81/173 177/91/75
f 146/196/44 210/224/108 238/223/136 157/193/55
f 146/196/44 361/145/259 362/146/260 178/200/76
f 147/172/45 253/201/151 205/178/103 132/166/30
f 147/172/45 327/148/225 385/180/283 306/202/204
f 148/100/46 267/84/165 268/72/166 179/74/77
f 148/100/46 286/127/184 149/132/47 133/115/31
f 149/132/47 228/134/126 182/106/80 133/115/31
f 149/132/47 286/127/184 379/164/277 307/159/205
f 150/233/48 180/235/78 320/212/218 319/208/217
f 150/233/48 261/259/159 262/263/160 180/235/78
f 151/89/49 219/77/117 220/78/118 181/90/79
f 151/89/49 230/118/128 177/91/75 135/85/33
f 152/93/50 229/117/127 181/90/79 136/86/34
f 152/93/50 270/82/168 267/84/165 182/106/80
f 153/79/51 275/81/173 276/64/174 184/61/82
f 154/80/52 220/78/118 221/60/119 185/62/83
f 155/24/53 234/18/132 235/35/133 186/38/84
f 155/24/53 247/29/145 264/19/162 199/13/97
f 156/51/54 233/25/131 258/16/156 195/49/93
f 156/51/54 236/103/134 237/104/135 187/57/85
f 157/193/55 238/223/136 239/220/137 188/192/86
f 157/193/55 331/143/229 361/145/259 146/196/44
f 158/230/56 240/254/138 261/259/159 150/233/48
f 159/54/57 242/97/140 211/94/109 197/50/95
f 159/54/57 245/30/143 246/36/144 190/58/88
f 160/21/58 244/20/142 224/11/122 200/8/98
f 160/21/58 248/26/146 249/39/147 191/40/89
f 161/170/59 141/162/39 312/154/210 330/158/228
f 161/170/59 311/183/209 402/189/300 350/176/248
f 162/136/60 232/138/130 330/158/228 312/154/210
f 162/136/60 312/154/210 405/156/303 353/130/251
f 163/112/61 231/137/129 232/138/130 194/111/92
f 164/46/62 252/99/150 251/102/149 195/49/93
f 164/46/62 259/6/157 214/28/112 201/63/99
f 165/229/63 284/253/182 209/225/107 178/200/76
f 165/229/63 373/153/271 374/152/272 196/227/94
f 166/47/64 212/92/110 255/114/153 202/66/100
f 166/47/64 226/14/124 223/23/121 197/50/95
f 167/239/65 277/264/175 278/257/176 198/232/96
f 168/4/66 260/2/158 257/9/155 199/13/97
f 168/4/66 265/7/163 280/17/178 203/10/101
f 169/1/67 225/3/123 288/34/186 204/27/102
f 169/1/67 266/5/164 263/15/161 200/8/98
f 170/69/68 215/43/113 273/68/171 176/73/74
f 170/69/68 271/122/169 272/116/170 201/63/99
f 171/71/69 256/119/154 285/123/183 179/74/77
f 171/71/69 290/48/188 287/45/185 202/66/100
f 172/31/70 216/33/114 213/12/111 203/10/101
f 172/31/70 281/32/179 222/59/120 184/61/82
f 173/42/71 282/37/180 279/22/177 204/27/102
f 173/42/71 289/44/187 269/65/167 185/62/83
f 174/215/72 254/231/152 283/247/181 196/227/94
f 174/215/72 315/151/213 316/149/214 205/178/103
f 175/219/73 218/237/116 217/204/115 206/185/104
f 176/73/74 208/124/106 271/122/169 170/69/68
f 176/73/74 273/68/171 274/83/172 143/98/41
f 177/91/75 230/118/128 227/133/125 145/105/43
f 178/200/76 209/225/107 210/224/108 146/196/44
f 178/200/76 362/146/260 373/153/271 165/229/63
f 179/74/77 268/72/166 290/48/188 171/71/69
f 179/74/77 285/123/183 286/127/184 148/100/46
f 180/235/78 167/239/65 366/214/264 320/212/218
f 180/235/78 262/263/160 277/264/175 167/239/65
f 181/90/79 229/117/127 230/118/128 151/89/49
f 182/106/80 228/134/126 229/117/127 152/93/50
f 183/174/81 217/204/115 325/217/223 291/203/189
f 183/174/81 291/203/189 386/194/284 328/160/226
f 184/61/82 222/59/120 219/77/117 153/79/51
f 184/61/82 276/64/174 216/33/114 172/31/70
f 185/62/83 221/60/119 282/37/180 173/42/71
f 185/62/83 269/65/167 270/82/168 154/80/52
f 186/38/84 235/35/133 187/57/85 137/56/35
f 186/38/84 250/41/148 247/29/145 155/24/53
f 187/57/85 235/35/133 233/25/131 156/51/54
f 188/192/86 239/220/137 346/213/244 294/184/192
f 188/192/86 332/142/230 331/143/229 157/193/55
f 189/226/87 241/248/139 240/254/138 158/230/56
f 190/58/88 243/101/141 242/97/140 159/54/57
f 190/58/88 246/36/144 191/40/89 138/55/36
f 191/40/89 246/36/144 244/20/142 160/21/58
f 192/135/90 139/120/37 309/108/207 344/129/242
f 193/161/91 140/155/38 310/157/208 347/168/245
f 194/111/92 142/121/40 314/109/212 357/96/255
f 195/49/93 251/102/149 236/103/134 156/51/54
f 195/49/93 258/16/156 259/6/157 164/46/62
f 196/227/94 283/247/181 284/253/182 165/229/63
f 196/227/94 374/152/272 315/151/213 174/215/72
f 197/50/95 211/94/109 212/92/110 166/47/64
f 197/50/95 223/23/121 245/30/143 159/54/57
f 198/232/96 175/219/73 380/190/278 365/209/263
f 198/232/96 278/257/176 218/237/116 175/219/73
f 199/13/97 257/9/155 234/18/132 155/24/53
f 199/13/97 264/19/162 265/7/163 168/4/66
f 200/8/98 224/11/122 225/3/123 169/1/67
f 200/8/98 263/15/161 248/26/146 160/21/58
f 201/63/99 214/28/112 215/43/113 170/69/68
f 201/63/99 272/116/170 252/99/150 164/46/62
f 202/66/100 255/114/153 256/119/154 171/71/69
f 202/66/100 287/45/185 226/14/124 166/47/64
f 203/10/101 213/12/111 260/2/158 168/4/66
f 203/10/101 280/17/178 281/32/179 172/31/70
f 204/27/102 279/22/177 266/5/164 169/1/67
f 204/27/102 288/34/186 289/44/187 173/42/71
f 205/178/103 253/201/151 254/231/152 174/215/72
f 206/185/104 134/169/32 307/159/205 379/164/277
f 209/225/107 284/253/182 377/270/275 318/244/216
f 209/225/107 318/244/216 317/241/215 210/224/108
f 211/94/109 242/97/140 341/206/239 319/208/217
f 213/12/111 216/33/114 215/43/113 214/28/112
f 214/28/112 259/6/157 260/2/158 213/12/111
f 216/33/114 276/64/174 273/68/171 215/43/113
f 217/204/115 218/237/116 326/249/224 325/217/223
f 218/237/116 278/257/176 375/271/273 326/249/224
f 219/77/117 222/59/120 221/60/119 220/78/118
f 222/59/120 281/32/179 282/37/180 221/60/119
f 223/23/121 226/14/124 225/3/123 224/11/122
f 224/11/122 244/20/142 245/30/143 223/23/121
f 226/14/124 287/45/185 288/34/186 225/3/123
f 227/133/125 230/118/128 229/117/127 228/134/126 328/160/226 386/194/284 385/180/283 327/148/225
f 233/25/131 235/35/133 234/18/132
f 234/18/132 257/9/155 258/16/156 233/25/131
f 236/103/134 251/102/149 361/145/259 331/143/229
f 237/104/135 332/142/230 389/140/287 343/110/241
f 239/220/137 334/236/232 392/228/290 346/213/244
f 240/254/138 241/248/139 340/258/238 339/262/237
f 241/248/139 349/234/247 401/243/299 340/258/238
f 242/97/140 243/101/141 342/198/240 341/206/239
f 243/101/141 352/107/250 404/188/302 342/198/240
f 244/20/142 246/36/144 245/30/143
f 247/29/145 250/41/148 249/39/147 248/26/146
f 248/26/146 263/15/161 264/19/162 247/29/145
f 249/39/147 250/41/148 355/52/253 356/53/254
f 251/102/149 252/99/150 362/146/260 361/145/259
f 252/99/150 272/116/170 373/153/271 362/146/260
f 257/9/155 260/2/158 259/6/157 258/16/156
f 261/259/159 372/266/270 371/269/269 262/263/160
f 263/15/161 266/5/164 265/7/163 264/19/162
f 266/5/164 279/22/177 280/17/178 265/7/163
f 267/84/165 270/82/168 269/65/167 268/72/166
f 269/65/167 289/44/187 290/48/188 268/72/166
f 273/68/171 276/64/174 275/81/173 274/83/172
f 277/264/175 376/275/274 375/271/273 278/257/176
f 279/22/177 282/37/180 281/32/179 280/17/178
f 283/247/181 378/267/276 377/270/275 284/253/182
f 285/123/183 380/190/278 379/164/277 286/127/184
f 287/45/185 290/48/188 289/44/187 288/34/186
f 292/67/190 343/110/241 345/125/243 299/88/197
f 292/67/190 355/52/253 250/41/148 186/38/84 137/56/35
f 293/175/191 388/171/286 329/150/227 193/161/91
f 293/175/191 393/182/291 397/187/295 301/173/199
f 294/184/192 346/213/244 348/181/246 300/165/198
f 294/184/192 389/140/287 332/142/230 188/192/86
f 295/186/193 387/177/285 388/171/286 301/173/199
f 295/186/193 399/191/297 402/189/300 311/183/209
f 296/218/194 349/234/247 241/248/139 189/226/87
f 296/218/194 404/188/302 406/163/304 302/179/200
f 297/70/195 352/107/250 243/101/141 190/58/88 138/55/36
f 297/70/195 356/53/254 358/75/256 303/87/201
f 298/147/196 316/149/214 207/128/105 144/131/42
f 299/88/197 345/125/243 344/129/242 309/108/207
f 299/88/197 360/76/258 355/52/253 292/67/190
f 300/165/198 348/181/246 347/168/245 310/157/208
f 300/165/198 391/139/289 389/140/287 294/184/192
f 301/173/199 388/171/286 293/175/191
f 301/173/199 397/187/295 399/191/297 295/186/193
f 302/179/200 351/199/249 349/234/247 296/218/194
f 302/179/200 406/163/304 405/156/303 313/167/211
f 303/87/201 354/126/252 352/107/250 297/70/195
f 303/87/201 358/75/256 357/96/255 314/109/212
f 304/197/202 368/221/266 363/216/261 306/202/204
f 304/197/202 385/180/283 386/194/284 308/205/206
f 305/144/203 329/150/227 231/137/129 192/135/90
f 305/144/203 390/141/288 310/157/208 140/155/38
f 306/202/204 363/216/261 253/201/151 147/172/45
f 306/202/204 385/180/283 304/197/202
f 307/159/205 328/160/226 228/134/126 149/132/47
f 308/205/206 367/222/265 368/221/266 304/197/202
f 308/205/206 386/194/284 291/203/189
f 309/108/207 359/95/257 360/76/258 299/88/197
f 310/157/208 390/141/288 391/139/289 300/165/198
f 311/183/209 387/177/285 295/186/193
f 313/167/211 350/176/248 351/199/249 302/179/200
f 314/109/212 353/130/251 354/126/252 303/87/201
f 315/151/213 374/152/272 271/122/169 208/124/106
f 316/149/214 315/151/213 208/124/106 207/128/105
f 317/241/215 318/244/216 324/260/222 321/255/219
f 317/241/215 333/240/231 238/223/136 210/224/108
f 318/244/216 377/270/275 382/274/280 324/260/222
f 319/208/217 320/212/218 212/92/110 211/94/109
f 319/208/217 341/206/239 158/230/56 150/233/48
f 320/212/218 366/214/264 255/114/153 212/92/110
f 321/255/219 324/260/222 323/268/221 322/265/220
f 321/255/219 336/251/234 333/240/231 317/241/215
f 322/265/220 335/261/233 336/251/234 321/255/219
f 323/268/221 383/276/281 376/275/274 371/269/269
f 324/260/222 382/274/280 383/276/281 323/268/221
f 325/217/223 326/249/224 370/252/268 367/222/265
f 326/249/224 375/271/273 384/273/282 370/252/268
f 328/160/226 307/159/205 134/169/32 183/174/81
f 329/150/227 388/171/286 387/177/285 330/158/228 232/138/130 231/137/129
f 330/158/228 387/177/285 311/183/209 161/170/59
f 331/143/229 332/142/230 237/104/135 236/103/134
f 333/240/231 334/236/232 239/220/137 238/223/136
f 335/261/233 322/265/220 372/266/270 339/262/237
f 335/261/233 338/256/236 337/246/235 336/251/234
f 336/251/234 337/246/235 334/236/232 333/240/231
f 337/246/235 396/238/294 392/228/290 334/236/232
f 338/256/236 395/242/293 396/238/294 337/246/235
f 339/262/237 340/258/238 338/256/236 335/261/233
f 339/262/237 372/266/270 261/259/159 240/254/138
f 340/258/238 401/243/299 395/242/293 338/256/236
f 341/206/239 342/198/240 189/226/87 158/230/56
f 342/198/240 404/188/302 296/218/194 189/226/87
f 343/110/241 389/140/287 391/139/289 345/125/243
f 344/129/242 390/141/288 305/144/203 192/135/90
f 345/125/243 391/139/289 390/141/288 344/129/242
f 346/213/244 392/228/290 394/195/292 348/181/246
f 347/168/245 393/182/291 293/175/191 193/161/91
f 348/181/246 394/195/292 393/182/291 347/168/245
f 350/176/248 313/167/211 141/162/39 161/170/59
f 350/176/248 402/189/300 403/210/301 351/199/249
f 351/199/249 403/210/301 401/243/299 349/234/247
f 353/130/251 314/109/212 142/121/40 162/136/60
f 353/130/251 405/156/303 406/163/304 354/126/252
f 354/126/252 406/163/304 404/188/302 352/107/250
f 357/96/255 359/95/257 163/112/61 194/111/92
f 358/75/256 360/76/258 359/95/257 357/96/255
f 359/95/257 309/108/207 139/120/37 163/112/61
f 360/76/258 358/75/256 356/53/254 355/52/253
f 363/216/261 364/245/262 254/231/152 253/201/151
f 364/245/262 378/267/276 283/247/181 254/231/152
f 365/209/263 366/214/264 167/239/65 198/232/96
f 365/209/263 380/190/278 285/123/183 256/119/154
f 366/214/264 365/209/263 256/119/154 255/114/153
f 367/222/265 308/205/206 291/203/189 325/217/223
f 367/222/265 370/252/268 369/250/267 368/221/266
f 368/221/266 369/250/267 364/245/262 363/216/261
f 369/250/267 381/272/279 378/267/276 364/245/262
f 370/252/268 384/273/282 381/272/279 369/250/267
f 371/269/269 372/266/270 322/265/220 323/268/221
f 371/269/269 376/275/274 277/264/175 262/263/160
f 374/152/272 373/153/271 272/116/170 271/122/169
f 379/164/277 380/190/278 175/219/73 206/185/104
f 381/272/279 382/274/280 377/270/275 378/267/276
f 382/274/280 381/272/279 384/273/282 383/276/281
f 383/276/281 384/273/282 375/271/273 376/275/274
f 392/228/290 396/238/294 398/207/296 394/195/292
f 394/195/292 398/207/296 397/187/295 393/182/291
f 395/242/293 400/211/298 398/207/296 396/238/294
f 395/242/293 401/243/299 403/210/301 400/211/298
f 398/207/296 400/211/298 399/191/297 397/187/295
f 400/211/298 403/210/301 402/189/300 399/191/297
f 407/374/305 408/376/306 415/554/313 414/557/312
f 407/381/305 421/382/319 427/472/325 408/481/306
f 408/376/306 409/373/307 416/556/314 415/554/313
f 408/481/306 427/472/325 426/504/324 409/544/307
f 409/373/307 410/375/308 417/553/315 416/556/314
f 409/544/307 426/504/324 425/431/323 410/457/308
f 410/375/308 411/371/309 418/559/316 417/553/315
f 410/457/308 425/431/323 424/328/322 411/309/309
f 411/372/309 412/369/310 419/555/317 418/560/316
f 411/309/309 424/328/322 423/282/321 412/278/310
f 412/369/310 413/378/311 420/561/318 419/555/317
f 412/278/310 423/282/321 422/283/320 413/279/311
f 413/279/311 422/283/320 421/382/319 407/381/305
f 414/557/312 420/561/318 413/378/311 407/374/305
f 414/370/312 428/379/326 434/470/332 420/503/318
f 415/280/313 429/284/327 428/379/326 414/370/312
f 416/277/314 430/281/328 429/284/327 415/280/313
f 417/326/315 431/334/329 430/281/328 416/277/314
f 418/459/316 432/439/330 431/334/329 417/326/315
f 419/552/317 433/501/331 432/439/330 418/459/316
f 420/503/318 434/470/332 433/501/331 419/552/317
f 422/283/320 423/282/321 424/328/322 425/431/323 426/504/324 427/472/325 421/382/319
f 429/284/327 430/281/328 431/334/329 432/439/330 433/501/331 434/470/332 428/379/326
f 435/357/706 439/398/723 440/388/725 436/350/710
f 435/518/708 463/435/807 464/420/812 438/315/719
f 436/350/712 440/388/726 445/402/744 443/333/736
f 436/519/711 443/480/735 459/440/791 435/518/707
f 437/358/715 441/407/729 442/416/732 438/368/720
f 438/511/717 442/510/730 439/290/721 435/296/705
f 438/315/718 460/410/796 444/359/740 437/321/714
f 439/312/722 442/523/731 441/516/727 446/483/745 445/341/741 440/316/724
f 443/480/734 450/493/763 462/443/802 459/440/790
f 444/363/737 446/392/746 441/407/728 437/358/713
f 444/363/738 447/458/749 448/485/753 446/392/747
f 444/359/739 460/410/794 461/401/797 447/330/750
f 445/402/743 449/491/758 450/455/761 443/333/733
f 446/483/748 448/478/754 449/342/757 445/341/742
f 447/458/751 451/454/765 452/549/769 448/485/755
f 448/478/756 452/539/770 453/298/773 449/342/759
f 449/491/760 453/535/774 454/461/777 450/455/762
f 451/454/766 455/465/781 456/558/783 452/549/771
f 452/539/772 456/529/784 457/302/785 453/298/775
f 453/535/776 457/565/786 458/468/787 454/461/778
f 454/545/780 468/444/827 462/443/804 450/493/764
f 459/440/789 462/443/801 466/426/817 463/435/805
f 460/410/793 438/315/716 464/420/809
f 461/401/798 460/410/795 464/420/811 465/421/814
f 461/401/799 467/411/822 451/289/768 447/330/752
f 462/443/803 468/444/826 466/426/819
f 463/435/808 435/518/709 459/440/792
f 463/435/806 466/426/818 465/421/813 464/420/810
f 465/421/816 467/411/824 461/401/800
f 466/426/820 468/444/828 467/411/823 465/421/815
f 467/411/821 468/444/825 454/545/779 458/551/788 455/286/782 451/289/767
