# Exported from Wings 3D 1.0.2
mtllib Bed.mtl
o bed1
#435 vertices, 414 faces
v -7.35120821 1.95644351 19.05893709
v -7.44030399 1.95644351 19.27403331
v -7.65540021 1.95644351 19.36312909
v -7.87049644 1.95644351 19.27403331
v -7.95959221 1.95644351 19.05893709
v -7.87049644 1.95644351 18.84384086
v -7.65540021 1.95644351 18.75474509
v -7.44030399 1.95644351 18.84384086
v -7.35120821 -4.98701875 19.05893709
v -7.44030399 -4.98701875 19.27403331
v -7.65540021 -4.98701875 19.36312909
v -7.87049644 -4.98701875 19.27403331
v -7.95959221 -4.98701875 19.05893709
v -7.87049644 -4.98701875 18.84384086
v -7.65540021 -4.98701875 18.75474509
v -7.44030399 -4.98701875 18.84384086
v -7.15516673 -5.14215429 19.05893709
v -7.30168173 -5.14215429 19.41265557
v -7.65540021 -5.14215429 19.55917057
v -8.00911870 -5.14215429 19.41265557
v -8.15563369 -5.14215429 19.05893709
v -8.00911870 -5.14215429 18.70521860
v -7.65540021 -5.14215429 18.55870361
v -7.30168173 -5.14215429 18.70521860
v -7.15516673 -5.49459536 19.05893709
v -7.30168173 -5.49459536 19.41265557
v -7.65540021 -5.49459536 19.55917057
v -8.00911870 -5.49459536 19.41265557
v -8.15563369 -5.49459536 19.05893709
v -8.00911870 -5.49459536 18.70521860
v -7.65540021 -5.49459536 18.55870361
v -7.30168173 -5.49459536 18.70521860
v -7.35526013 -5.61549340 19.05893709
v -7.44316912 -5.61549340 19.27116818
v -7.65540021 -5.61549340 19.35907717
v -7.86763131 -5.61549340 19.27116818
v -7.95554030 -5.61549340 19.05893709
v -7.86763131 -5.61549340 18.84670599
v -7.65540021 -5.61549340 18.75879700
v -7.44316912 -5.61549340 18.84670599
v 10.17303207 1.95644351 -18.27234196
v 10.08393629 1.95644351 -18.05724573
v 9.86884007 1.95644351 -17.96814996
v 9.65374384 1.95644351 -18.05724573
v 9.56464807 1.95644351 -18.27234196
v 9.65374384 1.95644351 -18.48743818
v 9.86884007 1.95644351 -18.57653396
v 10.08393629 1.95644351 -18.48743818
v 10.17303207 -4.98701875 -18.27234196
v 10.08393629 -4.98701875 -18.05724573
v 9.86884007 -4.98701875 -17.96814996
v 9.65374384 -4.98701875 -18.05724573
v 9.56464807 -4.98701875 -18.27234196
v 9.65374384 -4.98701875 -18.48743818
v 9.86884007 -4.98701875 -18.57653396
v 10.08393629 -4.98701875 -18.48743818
v 10.36907355 -5.14215429 -18.27234196
v 10.22255855 -5.14215429 -17.91862347
v 9.86884007 -5.14215429 -17.77210848
v 9.51512158 -5.14215429 -17.91862347
v 9.36860659 -5.14215429 -18.27234196
v 9.51512158 -5.14215429 -18.62606044
v 9.86884007 -5.14215429 -18.77257544
v 10.22255855 -5.14215429 -18.62606044
v 10.36907355 -5.49459536 -18.27234196
v 10.22255855 -5.49459536 -17.91862347
v 9.86884007 -5.49459536 -17.77210848
v 9.51512158 -5.49459536 -17.91862347
v 9.36860659 -5.49459536 -18.27234196
v 9.51512158 -5.49459536 -18.62606044
v 9.86884007 -5.49459536 -18.77257544
v 10.22255855 -5.49459536 -18.62606044
v 10.16898015 -5.61549340 -18.27234196
v 10.08107116 -5.61549340 -18.06011087
v 9.86884007 -5.61549340 -17.97220187
v 9.65660897 -5.61549340 -18.06011087
v 9.56869998 -5.61549340 -18.27234196
v 9.65660897 -5.61549340 -18.48457305
v 9.86884007 -5.61549340 -18.57248204
v 10.08107116 -5.61549340 -18.48457305
v -7.37367708 1.95644351 -18.29974301
v -7.46277285 1.95644351 -18.08464678
v -7.67786908 1.95644351 -17.99555101
v -7.89296530 1.95644351 -18.08464678
v -7.98206108 1.95644351 -18.29974301
v -7.89296530 1.95644351 -18.51483923
v -7.67786908 1.95644351 -18.60393501
v -7.46277285 1.95644351 -18.51483923
v -7.37367708 -4.98701875 -18.29974301
v -7.46277285 -4.98701875 -18.08464678
v -7.67786908 -4.98701875 -17.99555101
v -7.89296530 -4.98701875 -18.08464678
v -7.98206108 -4.98701875 -18.29974301
v -7.89296530 -4.98701875 -18.51483923
v -7.67786908 -4.98701875 -18.60393501
v -7.46277285 -4.98701875 -18.51483923
v -7.17763560 -5.14215429 -18.29974301
v -7.32415059 -5.14215429 -17.94602452
v -7.67786908 -5.14215429 -17.79950953
v -8.03158756 -5.14215429 -17.94602452
v -8.17810256 -5.14215429 -18.29974301
v -8.03158756 -5.14215429 -18.65346149
v -7.67786908 -5.14215429 -18.79997649
v -7.32415059 -5.14215429 -18.65346149
v -7.17763560 -5.49459536 -18.29974301
v -7.32415059 -5.49459536 -17.94602452
v -7.67786908 -5.49459536 -17.79950953
v -8.03158756 -5.49459536 -17.94602452
v -8.17810256 -5.49459536 -18.29974301
v -8.03158756 -5.49459536 -18.65346149
v -7.67786908 -5.49459536 -18.79997649
v -7.32415059 -5.49459536 -18.65346149
v -7.37772899 -5.61549340 -18.29974301
v -7.46563798 -5.61549340 -18.08751192
v -7.67786908 -5.61549340 -17.99960292
v -7.89010017 -5.61549340 -18.08751192
v -7.97800916 -5.61549340 -18.29974301
v -7.89010017 -5.61549340 -18.51197410
v -7.67786908 -5.61549340 -18.59988310
v -7.46563798 -5.61549340 -18.51197410
v 10.25523522 1.95644351 19.05893709
v 10.16613945 1.95644351 19.27403331
v 9.95104322 1.95644351 19.36312909
v 9.73594699 1.95644351 19.27403331
v 9.64685122 1.95644351 19.05893709
v 9.73594699 1.95644351 18.84384086
v 9.95104322 1.95644351 18.75474509
v 10.16613945 1.95644351 18.84384086
v 10.25523522 -4.98701875 19.05893709
v 10.16613945 -4.98701875 19.27403331
v 9.95104322 -4.98701875 19.36312909
v 9.73594699 -4.98701875 19.27403331
v 9.64685122 -4.98701875 19.05893709
v 9.73594699 -4.98701875 18.84384086
v 9.95104322 -4.98701875 18.75474509
v 10.16613945 -4.98701875 18.84384086
v 10.45127670 -5.14215429 19.05893709
v 10.30476171 -5.14215429 19.41265557
v 9.95104322 -5.14215429 19.55917057
v 9.59732473 -5.14215429 19.41265557
v 9.45080974 -5.14215429 19.05893709
v 9.59732473 -5.14215429 18.70521860
v 9.95104322 -5.14215429 18.55870361
v 10.30476171 -5.14215429 18.70521860
v 10.45127670 -5.49459536 19.05893709
v 10.30476171 -5.49459536 19.41265557
v 9.95104322 -5.49459536 19.55917057
v 9.59732473 -5.49459536 19.41265557
v 9.45080974 -5.49459536 19.05893709
v 9.59732473 -5.49459536 18.70521860
v 9.95104322 -5.49459536 18.55870361
v 10.30476171 -5.49459536 18.70521860
v 10.25118331 -5.61549340 19.05893709
v 10.16327431 -5.61549340 19.27116818
v 9.95104322 -5.61549340 19.35907717
v 9.73881213 -5.61549340 19.27116818
v 9.65090313 -5.61549340 19.05893709
v 9.73881213 -5.61549340 18.84670599
v 9.95104322 -5.61549340 18.75879700
v 10.16327431 -5.61549340 18.84670599
v -8.21374494 1.56554669 19.66476473
v -8.21374494 2.22242669 19.66476473
v 10.37638612 2.22242669 19.66476473
v 10.37638612 1.56554669 19.66476473
v -8.21374494 1.56554669 -18.87224757
v -8.21374494 2.22242669 -18.87224757
v 10.37638612 2.22242669 -18.87224757
v 10.37638612 1.56554669 -18.87224757
v 9.61435523 1.56554669 18.90273384
v -7.45171406 1.56554669 18.90273384
v -7.45171406 1.56554669 -18.11021668
v 9.61435523 1.56554669 -18.11021668
v -7.45171406 2.22242669 18.90273384
v 9.61435523 2.22242669 18.90273384
v 9.61435523 2.22242669 -18.11021668
v -7.45171406 2.22242669 -18.11021668
v -6.84002269 2.22669826 19.29574215
v -5.85117469 2.22669826 19.29574215
v -6.84002269 2.22669826 -18.46078483
v -5.85117469 2.22669826 -18.46078483
v -6.84002269 2.22669826 17.76031005
v -6.84002269 2.22669826 -16.92535273
v -5.85117469 2.22669826 17.76031005
v -5.85117469 2.22669826 -16.92535273
v -5.09479593 2.22669826 19.29574215
v -4.10594793 2.22669826 19.29574215
v -5.09479593 2.22669826 -18.46078483
v -4.10594793 2.22669826 -18.46078483
v -5.09479593 2.22669826 17.76031005
v -5.09479593 2.22669826 -16.92535273
v -4.10594793 2.22669826 17.76031005
v -4.10594793 2.22669826 -16.92535273
v -5.09479593 2.02450405 9.08889435
v -5.09479593 1.85179649 0.41747866
v -5.09479593 2.02450405 -8.25393704
v -4.10594793 2.02450405 9.08889435
v -4.10594793 1.85179649 0.41747866
v -4.10594793 2.02450405 -8.25393704
v -3.23697389 2.22669826 19.29574215
v -2.24812589 2.22669826 19.29574215
v -3.23697389 2.22669826 -18.46078483
v -2.24812589 2.22669826 -18.46078483
v -3.23697389 2.22669826 17.76031005
v -3.23697389 2.22669826 -16.92535273
v -2.24812589 2.22669826 17.76031005
v -2.24812589 2.22669826 -16.92535273
v -3.23697389 1.98659263 10.82317749
v -3.23697389 1.88970790 3.88604494
v -3.23697389 1.88970790 -3.05108762
v -3.23697389 1.98659263 -9.98822018
v -2.24812589 1.98659263 10.82317749
v -2.24812589 1.88970790 3.88604494
v -2.24812589 1.88970790 -3.05108762
v -2.24812589 1.98659263 -9.98822018
v -1.42137509 2.22669826 19.29574215
v -0.43252709 2.22669826 19.29574215
v -1.42137509 2.22669826 -18.46078483
v -0.43252709 2.22669826 -18.46078483
v -1.42137509 2.22669826 17.76031005
v -1.42137509 2.22669826 -16.92535273
v -0.43252709 2.22669826 17.76031005
v -0.43252709 2.22669826 -16.92535273
v -1.42137509 1.85600887 10.82317749
v -1.42137509 1.64960227 3.88604494
v -1.42137509 1.64960227 -3.05108762
v -1.42137509 1.85600887 -9.98822018
v -0.43252709 1.85600887 10.82317749
v -0.43252709 1.64960227 3.88604494
v -0.43252709 1.64960227 -3.05108762
v -0.43252709 1.85600887 -9.98822018
v 0.43644694 2.22669826 19.29574215
v 1.42529494 2.22669826 19.29574215
v 0.43644694 2.22669826 -18.46078483
v 1.42529494 2.22669826 -18.46078483
v 0.43644694 2.22669826 17.76031005
v 0.43644694 2.22669826 -16.92535273
v 1.42529494 2.22669826 17.76031005
v 1.42529494 2.22669826 -16.92535273
v 0.43644694 1.81388507 10.82317749
v 0.43644694 1.46846995 3.88604494
v 0.43644694 1.46846995 -3.05108762
v 0.43644694 1.81388507 -9.98822018
v 1.42529494 1.81388507 10.82317749
v 1.42529494 1.46846995 3.88604494
v 1.42529494 1.46846995 -3.05108762
v 1.42529494 1.81388507 -9.98822018
v 2.30834339 2.22669826 19.29574215
v 3.29719139 2.22669826 19.29574215
v 2.30834339 2.22669826 -18.46078483
v 3.29719139 2.22669826 -18.46078483
v 2.30834339 2.22669826 17.76031005
v 2.30834339 2.22669826 -16.92535273
v 3.29719139 2.22669826 17.76031005
v 3.29719139 2.22669826 -16.92535273
v 2.30834339 1.85600887 10.82317749
v 2.30834339 1.64960227 3.88604494
v 2.30834339 1.64960227 -3.05108762
v 2.30834339 1.85600887 -9.98822018
v 3.29719139 1.85600887 10.82317749
v 3.29719139 1.64960227 3.88604494
v 3.29719139 1.64960227 -3.05108762
v 3.29719139 1.85600887 -9.98822018
v 4.16616542 2.22669826 19.29574215
v 5.15501342 2.22669826 19.29574215
v 4.16616542 2.22669826 -18.46078483
v 5.15501342 2.22669826 -18.46078483
v 4.16616542 2.22669826 17.76031005
v 4.16616542 2.22669826 -16.92535273
v 5.15501342 2.22669826 17.76031005
v 5.15501342 2.22669826 -16.92535273
v 4.16616542 1.98659263 10.82317749
v 4.16616542 1.88970790 3.88604494
v 4.16616542 1.88970790 -3.05108762
v 4.16616542 1.98659263 -9.98822018
v 5.15501342 1.98659263 10.82317749
v 5.15501342 1.88970790 3.88604494
v 5.15501342 1.88970790 -3.05108762
v 5.15501342 1.98659263 -9.98822018
v 5.98176423 2.22669826 19.29574215
v 6.97061223 2.22669826 19.29574215
v 5.98176423 2.22669826 -18.46078483
v 6.97061223 2.22669826 -18.46078483
v 5.98176423 2.22669826 17.76031005
v 5.98176423 2.22669826 -16.92535273
v 6.97061223 2.22669826 17.76031005
v 6.97061223 2.22669826 -16.92535273
v 5.98176423 2.02450405 9.08889435
v 5.98176423 1.85179649 0.41747866
v 5.98176423 2.02450405 -8.25393704
v 6.97061223 2.02450405 9.08889435
v 6.97061223 1.85179649 0.41747866
v 6.97061223 2.02450405 -8.25393704
v 7.83958626 2.22669826 19.29574215
v 8.82843426 2.22669826 19.29574215
v 7.83958626 2.22669826 -18.46078483
v 8.82843426 2.22669826 -18.46078483
v 7.83958626 2.22669826 17.76031005
v 7.83958626 2.22669826 -16.92535273
v 8.82843426 2.22669826 17.76031005
v 8.82843426 2.22669826 -16.92535273
v -9.41850874 -2.21405993 -3.46755116
v -9.56312233 -2.23337290 -3.46964329
v -10.09198956 -0.94312338 8.40075854
v -9.94737597 -0.92381042 8.40285068
v 7.02726231 -1.47730078 -9.64559172
v 7.17250932 -1.46321273 -9.64559172
v 7.25113018 -2.27378963 2.25077434
v 7.10588316 -2.28787768 2.25077434
v 5.19403702 2.93692446 -7.72508539
v 5.19403702 3.08285310 -7.72508539
v 4.06436630 3.08285310 3.98795786
v 4.06436630 2.96375532 3.98795786
v -9.19850514 2.48017529 -4.29605170
v -8.62817553 2.93692446 -4.59317478
v 6.63873434 2.28268499 -8.83169403
v 6.95216648 2.18262678 -9.15434019
v -9.28899063 2.59457085 -4.29924712
v -8.62817553 3.08285310 -4.59317478
v 6.63873434 2.42861363 -8.83169403
v 7.08369038 2.24584245 -9.15478470
v -10.19804928 2.61995408 8.49653974
v -9.59670804 3.08285310 8.17201947
v 7.02024457 2.41263956 3.64286699
v 7.16649546 2.22366106 3.59388963
v -10.12209199 2.52391400 8.49922425
v -9.59670804 2.96375532 8.17201947
v 7.02055943 2.26955788 3.64279427
v 7.03497155 2.16044539 3.59433414
v -2.50778950 3.08285310 5.25529092
v -2.50778950 2.96375532 5.25529092
v 4.88111823 3.08285310 -4.48057241
v -8.89645904 3.08285310 -1.05721597
v -2.00767040 3.08285310 -2.76889419
v -6.58265542 3.08285310 -3.39446466
v 2.85791576 3.08285310 -5.53355961
v -4.02077135 3.87279156 -5.63714498
v 0.58663284 3.87279156 -6.68111519
v -1.86236983 3.77755075 -4.46401214
v -2.69374483 2.84695599 -7.45326131
v -2.69374483 2.77399167 -7.45326131
v -9.87477587 1.21377518 16.66107316
v -10.30344653 1.73987168 16.69702721
v 3.59337707 2.79920654 17.55906106
v 3.59337707 2.11962670 17.55906106
v -7.74689584 2.11962670 -19.73792510
v -7.74689584 2.79920654 -19.73792510
v 0.48539541 2.85569259 -14.63718173
v 0.44723036 3.59744065 -14.53829190
v -7.61258082 2.11962670 16.83833216
v -9.05853644 2.11962670 0.65558106
v -7.61258082 2.79920654 16.83833216
v -8.58906079 1.93091062 16.73414017
v -8.72138103 2.59748037 16.73635020
v -9.01491831 2.79920654 -2.2597541e-2
v -9.06096043 2.78255060 1.33182853
v 4.56286018 2.79920654 0.53925004
v 4.47662624 2.79920654 1.89563642
v -8.44633427 2.79920654 -8.86299342
v -8.35909801 2.79920654 -10.21935062
v 4.81088553 2.79920654 -8.18612217
v 4.90683294 2.79920654 -9.54189100
v 4.85885924 2.73015922 -8.86400658
v -8.40271614 2.73015922 -9.54117202
v 4.51974321 2.73015922 1.21744323
v -9.03793937 2.72183125 0.65461550
v -8.82539030 2.95387253 -2.96939617
v -8.63586228 2.95387253 -5.91619479
v 4.76766203 2.95387253 -2.35466846
v 4.60608368 2.95387253 -5.29220366
v -8.15503062 2.95387253 -13.39220878
v -7.95096323 2.95387253 -16.56506694
v 3.68080506 2.85930721 -12.03695580
v -9.76456913 2.43777752 8.01690711
v -9.70328879 1.73639773 8.68965660
v -9.80876047 2.38310097 9.36640413
v 4.07326189 2.79920654 9.04884678
v 3.99674142 2.79920654 10.40585070
v -8.39997141 2.79015178 8.40844611
v -8.27356984 2.79160536 9.76171458
v -8.33677063 2.64608335 9.08508035
v 4.03500166 2.65441132 9.72734874
v -9.78666480 2.26564402 8.69165562
v -10.13855117 2.14714868 14.25348618
v -9.97365582 2.36155845 11.80994516
v 3.72783186 2.99207378 15.17465761
v 3.86228664 2.99207378 12.79025415
v -7.83291049 2.98954005 14.47945963
v -8.05324017 2.98700633 12.12058711
v -9.08384085 2.71888781 14.27970151
v -9.44630066 2.64742801 11.82305282
v -9.53003290 2.74556912 5.78854759
v -9.29549666 2.86049348 3.56018806
v 4.20771667 2.99207378 6.66444332
v 4.34217146 2.99207378 4.28003987
v -8.62030108 2.98048529 6.04957358
v -8.84063076 2.97795156 3.69070106
v 4.29913021 2.18074479 9.64942234
v 4.95224754 2.18947594 1.14159766
v 5.10385767 2.18074479 -8.60268200
v -8.40271614 2.11962670 -9.54117202
v -10.25966821 1.47682343 16.92019107
v 3.83329471 2.45941662 17.81604214
v -7.84718639 2.45941662 -20.15228978
v -0.17313307 3.18175940 -14.28210879
v -7.70884192 2.45941662 17.08234011
v -9.17571287 2.45941662 0.26310659
v -8.78276121 2.26419550 16.97739757
v -9.19942456 2.45108865 0.95250946
v -9.89383051 2.08708762 8.44455891
v -9.91658905 2.05974935 9.13145289
v -9.90520978 2.00102087 8.78800590
v 5.01019156 2.45981758 1.14166979
v 5.27390694 2.45545201 -8.94884141
v 4.42419423 2.41757805 9.80369445
v -8.52268130 2.42489296 -9.77199514
v 3.05293048 3.10738529 -13.27972010
v 0.24227011 3.02910773 -17.68989181
v 0.15977310 3.57297027 -18.05984946
v 4.05550990 3.65183397 -13.43661555
v -0.52544950 3.31464311 -17.98191353
v 3.38359777 3.45605701 -13.15970457
v 3.58994705 2.94862838 -12.98376519
v 3.31828763 3.03564357 -13.38076586
v 4.79132584 2.94862838 -11.43859565
v 3.80039120 3.07794583 -12.78649040
v -1.73456964 2.78085117 -18.85535056
v -8.9693216e-2 2.74355173 -18.39586922
v -1.87601036 2.13623943 -19.27315629
v 0.33995803 2.74522939 -19.20660775
v 4.72805420 2.12735283 -10.44312102
v 4.97889039 2.53123417 -12.86451774
v -1.69219196 2.50499411 -19.98509078
v -0.36638087 3.00106488 -19.09838700
v 5.13347981 2.45615398 -11.09651289
v 4.38217176 3.06602661 -12.73215784
vt -2.40550908 -4.1002940e-2
vt -2.40550908 -2.7150595e-2
vt -2.40550908 5.4855285e-2
vt -2.40550908 6.8707629e-2
vt -2.31037601 0.79937374
vt -2.31037601 0.89523196
vt -2.31037601 0.90908431
vt -2.31037601 0.81322608
vt -1.16040986 0.82707843
vt -1.16040986 0.92293665
vt -1.16040986 3.24588576
vt -1.16040986 -2.37780439
vt -1.06527679 0.93678900
vt -1.06527679 0.84093077
vt -1.04920701 3.13468291
vt -1.04920701 -2.26660154
vt -0.96454983 0.84100046
vt -0.94054993 0.79611287
vt -0.93905740 0.88505496
vt -0.76837950 0.82707843
vt -0.76837950 0.92293665
vt -0.76837950 3.24588576
vt -0.76837950 -2.37780439
vt -0.70538598 0.84093077
vt -0.70538598 0.93678900
vt -0.68998231 0.89961910
vt -0.65717665 -2.26660154
vt -0.65717665 3.13468291
vt -0.61068205 1.28370638
vt -0.60481133 1.27022591
vt -0.58299679 0.32767340
vt -0.56921246 1.2740593e-2
vt -0.56759550 -0.86146322
vt -0.55601071 -1.67497941
vt -0.54350283 0.79693421
vt -0.53842510 1.04923819
vt -0.52844736 0.81613268
vt -0.51011151 1.00941808
vt -0.50672308 0.82153210
vt -0.50180700 1.26777543
vt -0.48852936 0.78418091
vt -0.46842121 1.44705610
vt -0.45738610 1.19453960
vt -0.45681238 0.10277435
vt -0.45137788 0.62073095
vt -0.45086998 0.61883543
vt -0.44841019 2.1650849e-2
vt -0.44135136 0.89705481
vt -0.43226079 0.57143911
vt -0.43163198 0.67729895
vt -0.41091369 -3.4962256e-2
vt -0.41073610 2.04170544
vt -0.41067483 7.8103740e-2
vt -0.39240534 0.60840677
vt -0.38768967 4.2078432e-2
vt -0.38750692 0.16457371
vt -0.37961247 1.03358941
vt -0.37252300 0.57818675
vt -0.35394388 0.58018197
vt -0.33024205 -0.39513584
vt -0.32183391 -0.39286536
vt -0.31722839 0.54864627
vt -0.29550804 8.8650776e-2
vt -0.24114303 0.28186350
vt -0.24011769 0.18063817
vt -0.22306217 0.23652070
vt -0.22261636 0.23388076
vt -0.18735944 1.5701196e-2
vt -0.16954893 -1.40980975
vt -0.16498883 0.24497017
vt -0.15621616 -1.16220106
vt -0.14605611 -0.91656400
vt -0.14149934 -0.60676624
vt -0.13965020 -0.53917461
vt -0.13787022 -0.67362704
vt -0.12830418 0.82165464
vt -0.12793279 0.30399034
vt -0.12596149 -0.31619052
vt -0.11382395 0.79326494
vt -0.11285767 -9.3257580e-2
vt -0.10243275 0.26383070
vt -0.10119387 0.19625490
vt -9.9968894e-2 0.12888485
vt -9.9093387e-2 0.55711130
vt -9.5593622e-2 0.85015401
vt -9.3983441e-2 2.82378362
vt -9.1965437e-2 1.14372145
vt -9.1129459e-2 1.21161774
vt -9.0286786e-2 1.27955292
vt -8.9655915e-2 2.28355293
vt -8.6510752e-2 -0.91516002
vt -8.6243142e-2 1.59620157
vt -8.1787736e-2 1.91267516
vt -7.8595694e-2 2.23011340
vt -6.5768756e-2 -0.10404664
vt -6.3643762e-2 2.91990736
vt -5.5994093e-2 0.30652878
vt -5.2955870e-2 -0.52308351
vt -4.0945532e-2 3.52860127
vt -3.7126513e-2 -1.15622902
vt -3.1768934e-2 -0.33592166
vt 1.5898866e-3 -0.56855008
vt 8.7775395e-3 -7.04636039
vt 8.7775395e-3 -7.04636039
vt 8.7775395e-3 -7.04636039
vt 8.7775395e-3 -7.04989981
vt 8.7775395e-3 -7.04989981
vt 8.7775395e-3 8.05333600
vt 8.7775395e-3 -7.05333600
vt 8.7775395e-3 5.03029398
vt 8.7775395e-3 8.05333600
vt 8.7775395e-3 -7.05333600
vt 8.7775395e-3 -7.04989981
vt 8.7775395e-3 -7.04989981
vt 8.7775395e-3 5.03029398
vt 8.7775395e-3 -7.04425909
vt 8.7775395e-3 8.04989981
vt 8.7775395e-3 8.04989981
vt 8.7775395e-3 2.00885182
vt 8.7775395e-3 -7.04425909
vt 8.7775395e-3 -4.02789094
vt 8.7775395e-3 -4.02789094
vt 8.7775395e-3 -1.00885182
vt 8.7775395e-3 -1.00885182
vt 8.7775395e-3 0.50000000
vt 8.7775395e-3 0.50000000
vt 8.7775395e-3 8.04603249
vt 8.7775395e-3 8.04603249
vt 8.7775395e-3 4.27287764
vt 8.7775395e-3 4.27287764
vt 8.7775395e-3 2.00885182
vt 8.7775395e-3 2.00885182
vt 8.7775395e-3 0.50000000
vt 8.7775395e-3 0.50000000
vt 8.7775395e-3 4.27287764
vt 8.7775395e-3 8.04989981
vt 8.7775395e-3 8.04989981
vt 8.7775395e-3 8.04603249
vt 8.7775395e-3 8.04603249
vt 8.7775395e-3 2.00885182
vt 8.7775395e-3 8.04425909
vt 8.7775395e-3 8.04425909
vt 8.7775395e-3 -7.04425909
vt 8.7775395e-3 -7.04425909
vt 8.7775395e-3 -3.27287764
vt 8.7775395e-3 -7.04603249
vt 8.7775395e-3 -7.04603249
vt 8.7775395e-3 -3.27287764
vt 8.7775395e-3 -3.27287764
vt 8.7775395e-3 -3.27287764
vt 8.7775395e-3 2.00885182
vt 8.7775395e-3 2.00885182
vt 8.7775395e-3 8.04425909
vt 8.7775395e-3 -1.00885182
vt 8.7775395e-3 -1.00885182
vt 8.7775395e-3 -7.04603249
vt 8.7775395e-3 -7.04603249
vt 8.7775395e-3 8.04425909
vt 8.7775395e-3 -4.02789094
vt 8.7775395e-3 -4.02789094
vt 8.7775395e-3 -1.00885182
vt 8.7775395e-3 -1.00885182
vt 8.7775395e-3 8.04636039
vt 8.7775395e-3 8.04636039
vt 8.7775395e-3 8.04636039
vt 8.7775395e-3 8.04636039
vt 8.7775395e-3 -1.00885182
vt 8.7775395e-3 -1.00885182
vt 8.7775395e-3 -1.00885182
vt 8.7775395e-3 -1.00885182
vt 8.7775395e-3 5.02684974
vt 8.7775395e-3 5.02684974
vt 8.7775395e-3 5.02684974
vt 8.7775395e-3 2.00885182
vt 8.7775395e-3 2.00885182
vt 8.7775395e-3 5.02684974
vt 8.7775395e-3 2.00885182
vt 8.7775395e-3 2.00885182
vt 8.7775395e-3 -4.02684974
vt 8.7775395e-3 -4.02684974
vt 8.7775395e-3 -4.02684974
vt 8.7775395e-3 -4.02684974
vt 8.7775395e-3 5.02789094
vt 8.7775395e-3 5.02789094
vt 8.7775395e-3 5.02789094
vt 8.7775395e-3 5.02789094
vt 8.7775395e-3 -4.03029398
vt 8.7775395e-3 -4.03029398
vt 1.0003051e-2 -1.39876646
vt 1.0902490e-2 -0.63687618
vt 2.1178963e-2 -0.70510071
vt 4.9883949e-2 2.06360202
vt 5.5946358e-2 -0.93757979
vt 6.2703332e-2 0.50454370
vt 6.3995271e-2 0.55989244
vt 7.5381020e-2 -1.08620152
vt 7.8990199e-2 -0.26700314
vt 8.9882649e-2 -1.16901584
vt 9.0199701e-2 -1.07669194
vt 0.10539646 0.0000000e+0
vt 0.10539646 1.00000000
vt 0.10539646 1.00000000
vt 0.10539646 0.0000000e+0
vt 0.10539646 1.00000000
vt 0.10539646 0.0000000e+0
vt 0.10539646 1.00000000
vt 0.11759340 -1.18562893
vt 0.12327017 -1.40183386
vt 0.12810478 -1.17190773
vt 0.15157111 0.19166942
vt 0.18955080 1.45925500
vt 0.19120711 0.88991287
vt 0.19173435 -1.75406769
vt 0.19645429 -1.74227260
vt 0.20457282 0.11197328
vt 0.23030968 -0.82832850
vt 0.23855582 3.6852860e-2
vt 0.25848311 0.12108601
vt 0.26082188 0.80099275
vt 0.26904834 2.12801335
vt 0.28432436 0.30891635
vt 0.28454552 2.04527965
vt 0.29732040 -0.27720685
vt 0.29997178 -8.4645771e-2
vt 0.31666544 0.78815391
vt 0.31845611 0.62335431
vt 0.33420406 1.43266740
vt 0.34199824 0.80826808
vt 0.36426284 0.68821530
vt 0.38995066 0.67690903
vt 0.40433997 -0.12257756
vt 0.43512878 0.88796082
vt 0.43572853 0.78784454
vt 0.44189163 0.49258378
vt 0.45228296 2.7510878e-2
vt 0.47125519 0.10341853
vt 0.49354872 0.36363957
vt 0.49625482 0.83948561
vt 0.51198624 0.83245383
vt 0.51358020 -1.10335997
vt 0.52549860 2.29194723
vt 0.52594044 2.17201676
vt 0.53213219 5.4945685e-2
vt 0.55858580 2.06214132
vt 0.58810283 0.92131730
vt 0.59436606 -1.68708531
vt 0.60898469 0.88867723
vt 0.64771157 0.91566608
vt 0.65103268 0.80442346
vt 0.65568048 0.79877513
vt 0.66152796 2.19834090
vt 0.66184797 4.6458168e-2
vt 0.67430155 -4.9420709e-2
vt 0.67635394 2.00064472
vt 0.68243154 1.10861239
vt 0.68318278 0.68025125
vt 0.68796696 1.10281145
vt 0.68796696 0.93120625
vt 0.68963315 0.78259521
vt 0.69016151 0.86042888
vt 0.69117564 0.19388361
vt 0.69145313 2.13665651
vt 0.69677814 -1.68427916
vt 0.69734127 0.28270943
vt 0.69774813 -0.15619380
vt 0.69774813 1.5411399e-2
vt 0.70180756 1.18913891
vt 0.70450960 0.11038764
vt 0.70645652 0.12344355
vt 0.71474616 -0.21729162
vt 0.71474616 -4.5686416e-2
vt 0.72393290 0.76841803
vt 0.72442813 1.10313942
vt 0.72442813 0.93153422
vt 0.73379479 -0.15393474
vt 0.73379479 1.7670465e-2
vt 0.74207720 0.92578508
vt 0.74545552 -0.63784054
vt 0.74821364 0.85676040
vt 0.74953571 2.21300911
vt 0.75012566 1.25115001
vt 0.75508064 -0.18445349
vt 0.75508064 -1.2848291e-2
vt 0.75775776 0.78361747
vt 0.75794607 0.44953176
vt 0.75840794 0.81146084
vt 0.75901762 -0.16152701
vt 0.76086116 1.10346406
vt 0.76086116 0.93185885
vt 0.76445309 1.13669636
vt 0.76810380 -0.15148381
vt 0.76810380 2.0121387e-2
vt 0.77509629 0.51058704
vt 0.77641756 -0.22251158
vt 0.77800608 -0.25502261
vt 0.77800608 -8.3417407e-2
vt 0.77853543 0.92635310
vt 0.78000447 0.55588466
vt 0.78191577 -0.63825936
vt 0.78253397 -0.17079784
vt 0.78253397 8.0736352e-4
vt 0.78761102 0.16446748
vt 0.78863644 -0.20887860
vt 0.78863644 -3.7273398e-2
vt 0.79398700 0.44718289
vt 0.79504864 -0.15903066
vt 0.79729942 1.10378128
vt 0.79729942 0.93217608
vt 0.80081102 -0.18916039
vt 0.80081102 -1.7555188e-2
vt 0.80120049 -0.14980106
vt 0.80120049 2.1804146e-2
vt 0.80808525 -0.16486681
vt 0.80808525 6.7383914e-3
vt 0.81333799 0.20407157
vt 0.81350598 -0.19928935
vt 0.81350598 -2.7684148e-2
vt 0.81424507 -0.21638716
vt 0.81424507 -4.4781953e-2
vt 0.81496553 0.92691760
vt 0.81534882 0.47764851
vt 0.81632316 -0.18029976
vt 0.81632316 -8.6945618e-3
vt 0.81653496 -0.18940861
vt 0.81834788 -0.63867477
vt 0.82050200 0.51072816
vt 0.82194014 -0.18951064
vt 0.82194014 -1.7905435e-2
vt 0.82553284 0.89345562
vt 0.82828979 0.44464649
vt 0.82934076 -0.15635390
vt 0.83373703 -0.23898793
vt 0.83373703 -0.18645140
vt 0.83373703 -0.17798399
vt 0.83373703 -0.16323615
vt 0.83373703 -0.14919504
vt 0.83373703 -6.7382731e-2
vt 0.83373703 -1.4846200e-2
vt 0.83373703 -6.3787912e-3
vt 0.83373703 2.2410161e-2
vt 0.83373703 8.3690526e-3
vt 0.83373703 1.10409059
vt 0.83373703 0.93248539
vt 0.83674604 1.8514113e-2
vt 0.83845003 0.54816029
vt 0.83992453 -0.25982525
vt 0.84038308 -6.9798781e-3
vt 0.84276804 0.46392450
vt 0.84389778 -0.17557249
vt 0.84427150 4.2166688e-2
vt 0.84553391 -0.18951064
vt 0.84553391 -1.7905435e-2
vt 0.84769782 -1.68960649
vt 0.84896538 0.50198994
vt 0.85025085 -0.21361225
vt 0.85115090 -0.18029976
vt 0.85115090 -8.6945618e-3
vt 0.85140091 0.92747473
vt 0.85322898 -0.21638716
vt 0.85322898 -4.4781953e-2
vt 0.85396808 -0.19928935
vt 0.85396808 -2.7684148e-2
vt 0.85478523 -0.63908279
vt 0.85938881 -0.16486681
vt 0.85938881 6.7383914e-3
vt 0.86109079 0.48224145
vt 0.86138219 0.44288127
vt 0.86229534 -0.19381431
vt 0.86242566 -0.15445327
vt 0.86592634 -4.4832053e-2
vt 0.86627356 -0.14980106
vt 0.86627356 2.1804146e-2
vt 0.86666303 -0.18916039
vt 0.86666303 -1.7555188e-2
vt 0.86830446 0.45792982
vt 0.86940946 -0.16947337
vt 0.87017463 1.10378128
vt 0.87017463 0.93217608
vt 0.87304354 0.16374950
vt 0.87381095 0.49233875
vt 0.87459264 0.50943466
vt 0.87505671 -0.20385947
vt 0.87568550 -0.87146045
vt 0.87590836 -0.22095204
vt 0.87599658 1.42618265
vt 0.87658080 0.47334220
vt 0.87693496 1.00192498
vt 0.87774880 -0.18485175
vt 0.87883762 -0.20887860
vt 0.87883762 -3.7273398e-2
vt 0.87941421 1.44120081
vt 0.88095541 0.57514623
vt 0.88222072 0.48253905
vt 0.88342631 -0.19402544
vt 0.88494009 -0.17079784
vt 0.88494009 8.0736352e-4
vt 0.88750878 2.04884728
vt 0.88783569 0.92802394
vt 0.88946797 -0.25502261
vt 0.88946797 -8.3417407e-2
vt 0.89122196 -0.63948289
vt 0.89391712 0.44219419
vt 0.89395210 0.45623525
vt 0.89398885 0.47098305
vt 0.89400995 0.47945043
vt 0.89414085 0.53198680
vt 0.89460354 0.0000000e+0
vt 0.89460354 1.00000000
vt 0.89460354 0.0000000e+0
vt 0.89460354 1.00000000
vt 0.89460354 0.0000000e+0
vt 0.89460354 1.7763568e-15
vt 0.89460354 1.00000000
vt 0.89495750 -0.15363304
vt 0.89504995 -0.16767385
vt 0.89514705 -0.18242137
vt 0.89520280 -0.19088860
vt 0.89554870 -0.24342399
vt 0.89937026 -0.15148381
vt 0.89937026 2.0121387e-2
vt 0.90065407 2.10324334
vt 0.90581442 0.48248027
vt 0.90661289 1.10346406
vt 0.90661289 0.93185885
vt 0.90701957 -0.19387009
vt 0.91140843 0.47325542
vt 0.91239342 -0.18445349
vt 0.91239342 -1.2848291e-2
vt 0.91257579 -0.18462244
vt 0.91357643 0.50933753
vt 0.91427292 0.49223793
vt 0.91489143 -0.22069537
vt 0.91551793 -0.20359306
vt 0.91960786 0.45780199
vt 0.92071191 -0.16913558
vt 0.92242757 0.18956862
vt 0.92427454 0.92795454
vt 0.92645506 0.44271913
vt 0.92694260 0.48207737
vt 0.92749732 -0.15402482
vt 0.92766022 -0.63926436
vt 0.92814592 -0.19338074
vt 0.93212107 0.63537956
vt 0.93367926 -0.15393474
vt 0.93367926 1.7670465e-2
vt 0.93470721 0.52301730
vt 0.93911821 0.29909860
vt 0.93916627 0.50176519
vt 0.94045007 -0.21301837
vt 0.94304592 1.10313942
vt 0.94304592 0.93153422
vt 0.94517384 0.46366934
vt 0.94630168 -0.17489825
vt 0.94991157 0.54788257
vt 0.95138401 -0.25909138
vt 0.95272789 -0.21729162
vt 0.95272789 -4.5686416e-2
vt 0.95955585 0.44431942
vt 0.96060438 -0.15548964
vt 0.96071410 0.92787724
vt 0.96409916 -0.63903793
vt 0.96972593 -0.15619380
vt 0.96972593 1.5411399e-2
vt 0.97266111 0.47725655
vt 0.97384433 -0.18837286
vt 0.97950710 1.10281145
vt 0.97950710 0.93120625
vt 0.99122246 5.03029398
vt 0.99122246 5.03029398
vt 0.99122246 -4.02789094
vt 0.99122246 -4.02789094
vt 0.99122246 2.00885182
vt 0.99122246 -4.02789094
vt 0.99122246 -4.02789094
vt 0.99122246 2.00885182
vt 0.99122246 -7.04425909
vt 0.99122246 -7.04425909
vt 0.99122246 8.04603249
vt 0.99122246 8.04603249
vt 0.99122246 0.50000000
vt 0.99122246 0.50000000
vt 0.99122246 0.50000000
vt 0.99122246 0.50000000
vt 0.99122246 -7.04603249
vt 0.99122246 4.27287764
vt 0.99122246 4.27287764
vt 0.99122246 -7.04603249
vt 0.99122246 8.04425909
vt 0.99122246 8.04425909
vt 0.99122246 4.27287764
vt 0.99122246 4.27287764
vt 0.99122246 -1.00885182
vt 0.99122246 8.04603249
vt 0.99122246 8.04603249
vt 0.99122246 -7.04425909
vt 0.99122246 -7.04425909
vt 0.99122246 -7.04603249
vt 0.99122246 -7.04603249
vt 0.99122246 -3.27287764
vt 0.99122246 -3.27287764
vt 0.99122246 -3.27287764
vt 0.99122246 -3.27287764
vt 0.99122246 5.02789094
vt 0.99122246 5.02789094
vt 0.99122246 8.04425909
vt 0.99122246 8.04989981
vt 0.99122246 8.04989981
vt 0.99122246 -1.00885182
vt 0.99122246 -7.04989981
vt 0.99122246 -7.04989981
vt 0.99122246 -1.00885182
vt 0.99122246 -1.00885182
vt 0.99122246 8.04425909
vt 0.99122246 2.00885182
vt 0.99122246 2.00885182
vt 0.99122246 2.00885182
vt 0.99122246 2.00885182
vt 0.99122246 5.02684974
vt 0.99122246 5.02789094
vt 0.99122246 5.02789094
vt 0.99122246 5.02684974
vt 0.99122246 5.02684974
vt 0.99122246 2.00885182
vt 0.99122246 5.02684974
vt 0.99122246 2.00885182
vt 0.99122246 2.00885182
vt 0.99122246 -1.00885182
vt 0.99122246 -1.00885182
vt 0.99122246 -1.00885182
vt 0.99122246 2.00885182
vt 0.99122246 -1.00885182
vt 0.99122246 -7.04636039
vt 0.99122246 8.04636039
vt 0.99122246 -7.04636039
vt 0.99122246 8.04636039
vt 0.99122246 -7.04636039
vt 0.99122246 8.04636039
vt 0.99122246 8.04636039
vt 0.99122246 -1.00885182
vt 0.99122246 -1.00885182
vt 0.99122246 -4.03029398
vt 0.99122246 -7.04989981
vt 0.99122246 -7.04989981
vt 0.99122246 8.04989981
vt 0.99122246 8.04989981
vt 0.99122246 -4.02684974
vt 0.99122246 -4.02684974
vt 0.99122246 -4.02684974
vt 0.99122246 -4.02684974
vt 0.99122246 -7.05333600
vt 0.99122246 8.05333600
vt 0.99122246 -4.03029398
vt 0.99122246 8.05333600
vt 0.99122246 -7.05333600
vt 0.99387085 0.44668485
vt 0.99492877 -0.15771462
vt 0.99714848 0.92779248
vt 1.00053288 -0.63880407
vt 1.01307729 0.50999407
vt 1.01421624 0.26590837
vt 1.01439414 -0.22094471
vt 1.02992303 0.44885409
vt 1.03098953 -0.15973630
vt 1.03361103 0.92770458
vt 1.03699476 -0.63856696
vt 1.06507120 1.66654859
vt 1.06667979 0.87689676
vt 1.07276457 0.85656012
vt 1.08128363 1.61338716
vt 1.08192110 0.87479669
vt 1.08809989 0.88426963
vt 1.09476013 1.51957458
vt 1.10283130 0.10523039
vt 1.10558612 0.87060239
vt 1.10576247 1.27414428
vt 1.11145393 0.22633431
vt 1.11823110 0.47679389
vt 1.13274179 0.48037767
vt 1.13486336 0.18741062
vt 1.14955613 0.18189871
vt 1.20450748 8.4158531e-2
vt 1.20835950 1.46644059
vt 1.21432898 2.12525311
vt 1.21925262 0.85501323
vt 1.22546455 1.14278135
vt 1.22717820 1.21067287
vt 1.22845800 1.27845182
vt 1.23131301 0.17125885
vt 1.23378527 -0.70536161
vt 1.23445253 -0.56866112
vt 1.23481722 -1.41527399
vt 1.23580958 -1.17808550
vt 1.23676397 -0.94163367
vt 1.23876198 -0.63707109
vt 1.23967437 -0.33217225
vt 1.24091963 -9.5398579e-2
vt 1.24250788 0.14190739
vt 1.24335884 0.20996338
vt 1.24388521 0.27795067
vt 1.24966547 0.56520472
vt 1.25418612 2.1530495e-2
vt 1.27558228 -0.33049648
vt 1.27701825 1.22163699
vt 1.28393024 -0.64270461
vt 1.28938012 -0.32640209
vt 1.29917487 0.22001194
vt 1.30882742 0.10381076
vt 1.31902363 -4.1034876e-2
vt 1.31995434 7.2377940e-2
vt 1.34683224 4.7859136e-2
vt 1.34683224 0.15851294
vt 1.37095296 1.9049473e-2
vt 1.39384466 -1.1216748e-2
vt 1.39448234 2.9741462e-2
vt 1.39820427 0.87878792
vt 1.40660662 9.1219461e-3
vt 1.42516759 0.84093077
vt 1.42516759 0.93678900
vt 1.44123737 3.13468291
vt 1.44123737 -2.26660154
vt 1.48595711 3.57820592
vt 1.52732757 3.05272415
vt 1.55244022 3.24588576
vt 1.55244022 0.82707843
vt 1.55244022 0.92293665
vt 1.55244022 -2.37780439
vt 1.56165923 3.14335636
vt 1.59981030 -1.68804958
vt 1.60403428 -1.70129888
vt 1.61127092 -1.18433649
vt 1.62476756 -1.18019368
vt 1.64648023 -1.27362489
vt 1.65441201 -1.28461523
vt 1.72743887 0.76754484
vt 1.76269837 0.79879487
vt 1.78505840 0.84093077
vt 1.78505840 0.93678900
vt 1.83326773 -2.26660154
vt 1.83326773 3.13468291
vt 1.94447058 -2.37780439
vt 1.94447058 3.24588576
vt 1.94447058 0.82707843
vt 1.94447058 0.92293665
vt 3.09090844 0.90908431
vt 3.09090844 0.81322608
vt 3.09090844 0.79937374
vt 3.09090844 0.89523196
vt 3.21818107 -4.1002940e-2
vt 3.21818107 -2.7150595e-2
vt 3.21818107 5.4855285e-2
vt 3.21818107 6.8707629e-2
vn 0.89512156 0.44582215 -2.5253745e-16
vn 0.63294653 0.44582215 0.63294653
vn -1.3278582e-15 0.44582215 0.89512156
vn -0.63294653 0.44582215 0.63294653
vn -0.89512156 0.44582215 -8.1463694e-17
vn -0.63294653 0.44582215 -0.63294653
vn -7.5761235e-16 0.44582215 -0.89512156
vn 0.63294653 0.44582215 -0.63294653
vn 0.89512156 0.44582215 -2.6068382e-16
vn 0.63294653 0.44582215 0.63294653
vn -1.2382481e-15 0.44582215 0.89512156
vn -0.63294653 0.44582215 0.63294653
vn -0.89512156 0.44582215 -8.1463694e-17
vn -0.63294653 0.44582215 -0.63294653
vn -9.9385706e-16 0.44582215 -0.89512156
vn 0.63294653 0.44582215 -0.63294653
vn 0.86298692 -0.50522627 -7.1210500e-16
vn 0.61022390 -0.50522627 0.61022390
vn 3.3510824e-17 -0.50522627 0.86298692
vn -0.61022390 -0.50522627 0.61022390
vn -0.86298692 -0.50522627 -4.1888529e-16
vn -0.61022390 -0.50522627 -0.61022390
vn -4.0212988e-16 -0.50522627 -0.86298692
vn 0.61022390 -0.50522627 -0.61022390
vn 0.35377639 -0.93533003 -2.1942694e-15
vn 0.25015768 -0.93533003 0.25015768
vn 4.4662121e-16 -0.93533003 0.35377639
vn -0.25015768 -0.93533003 0.25015768
vn -0.35377639 -0.93533003 -1.8544489e-15
vn -0.25015768 -0.93533003 -0.25015768
vn 3.4952964e-16 -0.93533003 -0.35377639
vn 0.25015768 -0.93533003 -0.25015768
vn 0.89512156 0.44582215 1.4500537e-15
vn 0.63294653 0.44582215 0.63294653
vn 4.3175758e-16 0.44582215 0.89512156
vn -0.63294653 0.44582215 0.63294653
vn -0.89512156 0.44582215 9.9385706e-16
vn -0.63294653 0.44582215 -0.63294653
vn 7.3317324e-16 0.44582215 -0.89512156
vn 0.63294653 0.44582215 -0.63294653
vn 0.89512156 0.44582215 1.6129811e-15
vn 0.63294653 0.44582215 0.63294653
vn 1.8084940e-15 0.44582215 0.89512156
vn -0.63294653 0.44582215 0.63294653
vn -0.89512156 0.44582215 1.0753208e-15
vn -0.63294653 0.44582215 -0.63294653
vn 2.1017633e-15 0.44582215 -0.89512156
vn 0.63294653 0.44582215 -0.63294653
vn 0.86298692 -0.50522627 -9.2154765e-17
vn 0.61022390 -0.50522627 0.61022390
vn 1.8430953e-15 -0.50522627 0.86298692
vn -0.61022390 -0.50522627 0.61022390
vn -0.86298692 -0.50522627 2.6808659e-16
vn -0.61022390 -0.50522627 -0.61022390
vn 2.4379124e-15 -0.50522627 -0.86298692
vn 0.61022390 -0.50522627 -0.61022390
vn 0.35377639 -0.93533003 -3.0098386e-16
vn 0.25015768 -0.93533003 0.25015768
vn 5.0487615e-16 -0.93533003 0.35377639
vn -0.25015768 -0.93533003 0.25015768
vn -0.35377639 -0.93533003 2.1360145e-16
vn -0.25015768 -0.93533003 -0.25015768
vn 1.1942263e-15 -0.93533003 -0.35377639
vn 0.25015768 -0.93533003 -0.25015768
vn 0.89512156 0.44582215 -8.0160275e-15
vn 0.63294653 0.44582215 0.63294653
vn -7.5761235e-16 0.44582215 0.89512156
vn -0.63294653 0.44582215 0.63294653
vn -0.89512156 0.44582215 -8.1219303e-15
vn -0.63294653 0.44582215 -0.63294653
vn -3.0141567e-16 0.44582215 -0.89512156
vn 0.63294653 0.44582215 -0.63294653
vn 0.89512156 0.44582215 -3.3400114e-15
vn 0.63294653 0.44582215 0.63294653
vn -3.0956204e-16 0.44582215 0.89512156
vn -0.63294653 0.44582215 0.63294653
vn -0.89512156 0.44582215 -3.4866461e-15
vn -0.63294653 0.44582215 -0.63294653
vn 1.6292739e-16 0.44582215 -0.89512156
vn 0.63294653 0.44582215 -0.63294653
vn 0.86298692 -0.50522627 -3.3259492e-15
vn 0.61022390 -0.50522627 0.61022390
vn -1.5079871e-16 -0.50522627 0.86298692
vn -0.61022390 -0.50522627 0.61022390
vn -0.86298692 -0.50522627 -3.3762155e-15
vn -0.61022390 -0.50522627 -0.61022390
vn 1.0053247e-16 -0.50522627 -0.86298692
vn 0.61022390 -0.50522627 -0.61022390
vn 0.35377639 -0.93533003 -1.8932856e-15
vn 0.25015768 -0.93533003 0.25015768
vn -1.7476482e-16 -0.93533003 0.35377639
vn -0.25015768 -0.93533003 0.25015768
vn -0.35377639 -0.93533003 -1.8738672e-15
vn -0.25015768 -0.93533003 -0.25015768
vn 1.1650988e-16 -0.93533003 -0.35377639
vn 0.25015768 -0.93533003 -0.25015768
vn 0.89512156 0.44582215 -8.1463694e-17
vn 0.63294653 0.44582215 0.63294653
vn 6.4356318e-16 0.44582215 0.89512156
vn -0.63294653 0.44582215 0.63294653
vn -0.89512156 0.44582215 -2.4439108e-16
vn -0.63294653 0.44582215 -0.63294653
vn 8.7980789e-16 0.44582215 -0.89512156
vn 0.63294653 0.44582215 -0.63294653
vn 0.89512156 0.44582215 3.0956204e-16
vn 0.63294653 0.44582215 0.63294653
vn 1.6618594e-15 0.44582215 0.89512156
vn -0.63294653 0.44582215 0.63294653
vn -0.89512156 0.44582215 -2.4439108e-16
vn -0.63294653 0.44582215 -0.63294653
vn 1.5803957e-15 0.44582215 -0.89512156
vn 0.63294653 0.44582215 -0.63294653
vn 0.86298692 -0.50522627 -6.5346106e-16
vn 0.61022390 -0.50522627 0.61022390
vn 1.6001418e-15 -0.50522627 0.86298692
vn -0.61022390 -0.50522627 0.61022390
vn -0.86298692 -0.50522627 -1.1477457e-15
vn -0.61022390 -0.50522627 -0.61022390
vn 8.7128141e-16 -0.50522627 -0.86298692
vn 0.61022390 -0.50522627 -0.61022390
vn 0.35377639 -0.93533003 -2.5146716e-15
vn 0.25015768 -0.93533003 0.25015768
vn 6.5051350e-16 -0.93533003 0.35377639
vn -0.25015768 -0.93533003 0.25015768
vn -0.35377639 -0.93533003 -2.6214723e-15
vn -0.25015768 -0.93533003 -0.25015768
vn 1.7476482e-16 -0.93533003 -0.35377639
vn 0.25015768 -0.93533003 -0.25015768
vn 0.59829624 -0.65942363 -0.45519456
vn -0.53598509 -0.64864998 -0.54034543
vn -0.80380096 -0.42106024 0.42025265
vn 0.79638801 -0.38187495 0.46897512
vn -0.56559896 -0.52924149 -0.63245653
vn 0.61513615 -0.48812882 -0.61914277
vn 0.60881045 -0.64949743 0.45552489
vn -0.46277468 -0.73039628 0.50235531
vn -0.32645352 -0.69580408 -0.63975369
vn -2.9616488e-2 0.84204477 -0.53859397
vn 0.18504800 0.69096691 0.69880037
vn 6.3143375e-3 -0.82996988 0.55777247
vn 0.74207794 -0.34559064 -0.57435828
vn -4.0474921e-2 -0.85302938 -0.52029094
vn -0.67576840 -0.50350279 -0.53835120
vn -0.76048315 -0.14476738 -0.63301484
vn -0.82298932 0.29615896 -0.48474576
vn -0.39877006 0.75941407 -0.51407461
vn -0.10057146 0.79826117 -0.59385561
vn 0.39405414 0.55205658 -0.73481621
vn -0.53013456 0.37542227 0.76027328
vn 6.2130711e-2 0.73467411 0.67556919
vn 0.41488835 0.72654774 0.54771894
vn 0.69570304 0.15536289 0.70132706
vn 0.69092523 -0.20108944 0.69439568
vn 0.50086871 -0.56208551 0.65817203
vn -0.15877034 -0.70298967 0.69325140
vn -0.45318227 -0.50502867 0.73455556
vn 0.20197393 0.70887247 0.67580052
vn 0.19872042 -0.70628495 0.67946432
vn 0.11548242 0.99330046 4.2441657e-3
vn -0.25813262 0.96591447 -1.9411155e-2
vn 2.8614292e-2 0.99115901 0.12955706
vn -5.2485917e-2 0.98472338 0.16602740
vn 0.12866087 0.97558863 0.17796966
vn -0.12806730 0.98101614 -0.14562311
vn 5.6776302e-2 0.98481544 -0.16405792
vn 5.9141624e-2 0.96167349 0.26774309
vn -0.20127354 0.50034091 -0.84210922
vn -0.16381123 -0.71856110 -0.67589632
vn -0.15209287 -0.97796475 0.14301297
vn -0.22822781 0.95477449 0.19057215
vn 5.1662340e-2 -0.93152009 0.36000184
vn -0.12259994 0.86765686 0.48180996
vn -0.32620636 0.82280388 0.46538499
vn 0.17799425 0.98026400 8.6026396e-2
vn 0.16962120 0.98253558 -7.6501573e-2
vn 0.20691543 0.97671084 -5.6762163e-2
vn 0.26325346 0.96219326 6.9869480e-2
vn 0.30327385 0.95243155 2.9985155e-2
vn 0.26274395 0.96475857 1.4370760e-2
vn 0.33610212 0.94099876 3.9455055e-2
vn 0.35568528 0.93448331 -1.5130467e-2
vn -6.5559513e-2 0.99586391 6.2904919e-2
vn -0.68255587 0.72440649 9.6709503e-2
vn -0.61308902 0.78438793 -9.4113911e-2
vn 0.20431410 0.96830721 0.14365549
vn 0.22428617 0.96709296 -0.12011215
vn -0.15100452 0.97607533 0.15644358
vn -0.10711126 0.98499602 -0.13531452
vn -0.13192648 0.99119463 1.1340821e-2
vn 0.32766597 0.94461112 1.8569889e-2
vn -0.65425684 0.75622911 8.0944839e-3
vn -0.79769998 0.60260961 -2.3160120e-2
vn 0.46340626 0.88369760 6.5826979e-2
vn 0.41392499 0.91007463 -2.0742662e-2
vn -0.11044819 0.99284127 4.5468671e-2
vn -0.11491298 0.99280053 -3.3795061e-2
vn -0.35018886 0.93439580 6.5362448e-2
vn -0.35658126 0.93423048 -7.9502983e-3
vn 0.37275871 0.92535896 6.9005327e-2
vn 0.34186543 0.93953193 -2.0193296e-2
vn -0.13587202 0.98936180 5.1980915e-2
vn -0.12318950 0.99193835 -2.9709661e-2
vn -0.99585900 8.0329955e-2 -4.2567127e-2
vn -0.99469516 6.7799426e-2 -7.7361339e-2
vn -0.99415446 8.6355043e-2 -6.4805181e-2
vn -0.30909654 -0.71331096 0.62900461
vn -0.38716527 -0.90779626 0.16127310
vn 4.2959015e-2 0.96221838 -0.26886859
vn -0.20334452 0.96811200 0.14632214
vn -0.77276352 -0.20307386 0.60132981
vn -0.54718735 0.36255328 0.75441442
vn -5.6424725e-2 0.99652428 -6.1283107e-2
vn -0.75363327 0.26819031 0.60009237
vn 0.13150765 -0.94981431 -0.28382831
vn 0.29893442 -0.95206760 -6.4849833e-2
vn 1.00000000 3.7168186e-17 0.0000000e+0
vn 1.00000000 3.7168186e-17 0.0000000e+0
vn 0.70710678 3.7168186e-17 0.70710678
vn 0.70710678 3.7168186e-17 0.70710678
vn -8.1114530e-16 0.0000000e+0 1.00000000
vn -8.1114530e-16 0.0000000e+0 1.00000000
vn -0.70710678 -3.7168186e-17 0.70710678
vn -0.70710678 -3.7168186e-17 0.70710678
vn -1.00000000 -3.7168186e-17 0.0000000e+0
vn -1.00000000 -3.7168186e-17 0.0000000e+0
vn -0.70710678 0.0000000e+0 -0.70710678
vn -0.70710678 0.0000000e+0 -0.70710678
vn -8.1114530e-16 0.0000000e+0 -1.00000000
vn -8.1114530e-16 0.0000000e+0 -1.00000000
vn 0.70710678 0.0000000e+0 -0.70710678
vn 0.70710678 0.0000000e+0 -0.70710678
vn 1.00000000 -7.4336372e-17 0.0000000e+0
vn 1.00000000 -7.4336372e-17 0.0000000e+0
vn 0.70710678 3.7168186e-17 0.70710678
vn 0.70710678 3.7168186e-17 0.70710678
vn 0.0000000e+0 1.4867274e-16 1.00000000
vn 0.0000000e+0 1.4867274e-16 1.00000000
vn -0.70710678 3.7168186e-17 0.70710678
vn -0.70710678 3.7168186e-17 0.70710678
vn -1.00000000 -7.4336372e-17 0.0000000e+0
vn -1.00000000 -7.4336372e-17 0.0000000e+0
vn -0.70710678 -1.1150456e-16 -0.70710678
vn -0.70710678 -1.1150456e-16 -0.70710678
vn 0.0000000e+0 -1.4867274e-16 -1.00000000
vn 0.0000000e+0 -1.4867274e-16 -1.00000000
vn 0.70710678 -1.1150456e-16 -0.70710678
vn 0.70710678 -1.1150456e-16 -0.70710678
vn 1.00000000 -3.7168186e-17 -1.1656458e-14
vn 1.00000000 -3.7168186e-17 -1.1656458e-14
vn 0.70710678 -1.1150456e-16 0.70710678
vn 0.70710678 -1.1150456e-16 0.70710678
vn -8.1114530e-16 -7.4336372e-17 1.00000000
vn -8.1114530e-16 -7.4336372e-17 1.00000000
vn -0.70710678 0.0000000e+0 0.70710678
vn -0.70710678 0.0000000e+0 0.70710678
vn -1.00000000 3.7168186e-17 -1.1686501e-14
vn -1.00000000 3.7168186e-17 -1.1686501e-14
vn -0.70710678 -1.1150456e-16 -0.70710678
vn -0.70710678 -1.1150456e-16 -0.70710678
vn -8.4118772e-16 -1.4867274e-16 -1.00000000
vn -8.4118772e-16 -1.4867274e-16 -1.00000000
vn 0.70710678 0.0000000e+0 -0.70710678
vn 0.70710678 0.0000000e+0 -0.70710678
vn 1.00000000 -3.7168186e-17 0.0000000e+0
vn 1.00000000 -3.7168186e-17 0.0000000e+0
vn 0.70710678 -3.7168186e-17 0.70710678
vn 0.70710678 -3.7168186e-17 0.70710678
vn 0.0000000e+0 0.0000000e+0 1.00000000
vn 0.0000000e+0 0.0000000e+0 1.00000000
vn -0.70710678 -3.7168186e-17 0.70710678
vn -0.70710678 -3.7168186e-17 0.70710678
vn -1.00000000 -3.7168186e-17 0.0000000e+0
vn -1.00000000 -3.7168186e-17 0.0000000e+0
vn -0.70710678 0.0000000e+0 -0.70710678
vn -0.70710678 0.0000000e+0 -0.70710678
vn 0.0000000e+0 0.0000000e+0 -1.00000000
vn 0.0000000e+0 0.0000000e+0 -1.00000000
vn 0.70710678 0.0000000e+0 -0.70710678
vn 0.70710678 0.0000000e+0 -0.70710678
vn 0.0000000e+0 0.0000000e+0 1.00000000
vn -1.00000000 0.0000000e+0 0.0000000e+0
vn 6.1709692e-17 -1.00000000 0.0000000e+0
vn 6.1709692e-17 -1.00000000 0.0000000e+0
vn 0.0000000e+0 0.0000000e+0 1.00000000
vn -1.00000000 0.0000000e+0 0.0000000e+0
vn 0.0000000e+0 1.00000000 0.0000000e+0
vn 0.0000000e+0 1.00000000 0.0000000e+0
vn 0.0000000e+0 0.0000000e+0 1.00000000
vn 1.00000000 0.0000000e+0 0.0000000e+0
vn 0.0000000e+0 1.00000000 0.0000000e+0
vn 0.0000000e+0 1.00000000 0.0000000e+0
vn 0.0000000e+0 0.0000000e+0 1.00000000
vn 1.00000000 0.0000000e+0 0.0000000e+0
vn -6.1709692e-17 -1.00000000 0.0000000e+0
vn -6.1709692e-17 -1.00000000 0.0000000e+0
vn 0.0000000e+0 0.0000000e+0 -1.00000000
vn -1.00000000 0.0000000e+0 0.0000000e+0
vn 6.1709692e-17 -1.00000000 0.0000000e+0
vn 6.1709692e-17 -1.00000000 0.0000000e+0
vn 0.0000000e+0 0.0000000e+0 -1.00000000
vn -1.00000000 0.0000000e+0 0.0000000e+0
vn 0.0000000e+0 1.00000000 0.0000000e+0
vn 0.0000000e+0 1.00000000 0.0000000e+0
vn 1.00000000 0.0000000e+0 0.0000000e+0
vn 0.0000000e+0 0.0000000e+0 -1.00000000
vn 0.0000000e+0 1.00000000 0.0000000e+0
vn 0.0000000e+0 1.00000000 0.0000000e+0
vn 1.00000000 0.0000000e+0 0.0000000e+0
vn 0.0000000e+0 0.0000000e+0 -1.00000000
vn -6.1709692e-17 -1.00000000 0.0000000e+0
vn -6.1709692e-17 -1.00000000 0.0000000e+0
vn -6.1709692e-17 -1.00000000 0.0000000e+0
vn -6.1709692e-17 -1.00000000 0.0000000e+0
vn 0.0000000e+0 0.0000000e+0 -1.00000000
vn -1.00000000 0.0000000e+0 0.0000000e+0
vn 6.1709692e-17 -1.00000000 0.0000000e+0
vn 6.1709692e-17 -1.00000000 0.0000000e+0
vn 0.0000000e+0 0.0000000e+0 -1.00000000
vn 1.00000000 0.0000000e+0 0.0000000e+0
vn 6.1709692e-17 -1.00000000 0.0000000e+0
vn 6.1709692e-17 -1.00000000 0.0000000e+0
vn 0.0000000e+0 0.0000000e+0 1.00000000
vn 1.00000000 0.0000000e+0 0.0000000e+0
vn -6.1709692e-17 -1.00000000 0.0000000e+0
vn -6.1709692e-17 -1.00000000 0.0000000e+0
vn -1.00000000 0.0000000e+0 0.0000000e+0
vn 0.0000000e+0 0.0000000e+0 1.00000000
vn 0.0000000e+0 1.00000000 0.0000000e+0
vn 0.0000000e+0 1.00000000 0.0000000e+0
vn 0.0000000e+0 0.0000000e+0 -1.00000000
vn 1.00000000 0.0000000e+0 0.0000000e+0
vn 0.0000000e+0 1.00000000 0.0000000e+0
vn 0.0000000e+0 1.00000000 0.0000000e+0
vn 0.0000000e+0 0.0000000e+0 -1.00000000
vn -1.00000000 0.0000000e+0 0.0000000e+0
vn 0.0000000e+0 1.00000000 0.0000000e+0
vn 0.0000000e+0 1.00000000 0.0000000e+0
vn -1.00000000 0.0000000e+0 0.0000000e+0
vn 0.0000000e+0 0.0000000e+0 1.00000000
vn 0.0000000e+0 1.00000000 0.0000000e+0
vn 0.0000000e+0 1.00000000 0.0000000e+0
vn 0.0000000e+0 0.0000000e+0 1.00000000
vn 1.00000000 0.0000000e+0 0.0000000e+0
vn 0.0000000e+0 1.00000000 0.0000000e+0
vn 0.0000000e+0 -1.00000000 0.0000000e+0
vn 0.0000000e+0 1.00000000 0.0000000e+0
vn 0.0000000e+0 -1.00000000 0.0000000e+0
vn 0.0000000e+0 1.00000000 0.0000000e+0
vn 0.0000000e+0 -1.00000000 0.0000000e+0
vn 0.0000000e+0 1.00000000 0.0000000e+0
vn 0.0000000e+0 -1.00000000 0.0000000e+0
vn 0.0000000e+0 1.00000000 0.0000000e+0
vn 0.0000000e+0 -1.00000000 0.0000000e+0
vn 0.0000000e+0 1.00000000 0.0000000e+0
vn 0.0000000e+0 -1.00000000 0.0000000e+0
vn 0.0000000e+0 1.00000000 0.0000000e+0
vn 0.0000000e+0 1.00000000 0.0000000e+0
vn 0.0000000e+0 -1.00000000 0.0000000e+0
vn 0.0000000e+0 -1.00000000 0.0000000e+0
vn 0.0000000e+0 1.00000000 0.0000000e+0
vn 0.0000000e+0 -1.00000000 0.0000000e+0
vn 0.0000000e+0 1.00000000 0.0000000e+0
vn 0.0000000e+0 -1.00000000 0.0000000e+0
vn 0.0000000e+0 1.00000000 0.0000000e+0
vn 0.0000000e+0 1.00000000 0.0000000e+0
vn 0.0000000e+0 -1.00000000 0.0000000e+0
vn 0.0000000e+0 -1.00000000 0.0000000e+0
vn 0.0000000e+0 1.00000000 0.0000000e+0
vn 0.0000000e+0 -1.00000000 0.0000000e+0
vn 0.0000000e+0 1.00000000 0.0000000e+0
vn 0.0000000e+0 -1.00000000 0.0000000e+0
vn 0.0000000e+0 1.00000000 0.0000000e+0
vn 0.0000000e+0 -1.00000000 0.0000000e+0
vn 0.0000000e+0 1.00000000 0.0000000e+0
vn 0.0000000e+0 -1.00000000 0.0000000e+0
vn 0.0000000e+0 1.00000000 0.0000000e+0
vn 0.0000000e+0 -1.00000000 0.0000000e+0
vn 0.0000000e+0 0.99972826 -2.3310989e-2
vn 0.0000000e+0 -0.99972826 2.3310989e-2
vn 0.0000000e+0 0.99972826 2.3310989e-2
vn 0.0000000e+0 1.00000000 0.0000000e+0
vn 0.0000000e+0 -0.99972826 -2.3310989e-2
vn 0.0000000e+0 -1.00000000 0.0000000e+0
vn 0.0000000e+0 1.00000000 0.0000000e+0
vn 0.0000000e+0 -1.00000000 0.0000000e+0
vn 0.0000000e+0 0.99972826 -2.3310989e-2
vn 0.0000000e+0 -0.99972826 2.3310989e-2
vn 0.0000000e+0 0.99972826 2.3310989e-2
vn 0.0000000e+0 1.00000000 0.0000000e+0
vn 0.0000000e+0 -0.99972826 -2.3310989e-2
vn 0.0000000e+0 -1.00000000 0.0000000e+0
vn 0.0000000e+0 0.99980172 -1.9912932e-2
vn 0.0000000e+0 0.99972826 -2.3310989e-2
vn 0.0000000e+0 -0.99980172 1.9912932e-2
vn 0.0000000e+0 -0.99972826 2.3310989e-2
vn 0.0000000e+0 0.99980172 1.9912932e-2
vn 0.0000000e+0 0.99980172 -1.9912932e-2
vn 0.0000000e+0 -0.99980172 -1.9912932e-2
vn 0.0000000e+0 -0.99980172 1.9912932e-2
vn 0.0000000e+0 0.99972826 2.3310989e-2
vn 0.0000000e+0 -0.99972826 -2.3310989e-2
vn 0.0000000e+0 0.99980172 1.9912932e-2
vn 0.0000000e+0 -0.99980172 -1.9912932e-2
vn 0.0000000e+0 0.99980172 -1.9912932e-2
vn 0.0000000e+0 0.99972826 -2.3310989e-2
vn 0.0000000e+0 -0.99980172 1.9912932e-2
vn 0.0000000e+0 -0.99972826 2.3310989e-2
vn 0.0000000e+0 0.99980172 1.9912932e-2
vn 0.0000000e+0 0.99980172 -1.9912932e-2
vn 0.0000000e+0 -0.99980172 -1.9912932e-2
vn 0.0000000e+0 -0.99980172 1.9912932e-2
vn 0.0000000e+0 0.99972826 2.3310989e-2
vn 0.0000000e+0 -0.99972826 -2.3310989e-2
vn 0.0000000e+0 0.99980172 1.9912932e-2
vn 0.0000000e+0 -0.99980172 -1.9912932e-2
vn 0.0000000e+0 1.00000000 0.0000000e+0
vn 0.0000000e+0 -1.00000000 0.0000000e+0
vn 0.0000000e+0 1.00000000 0.0000000e+0
vn 0.0000000e+0 -1.00000000 0.0000000e+0
vn 0.0000000e+0 1.00000000 0.0000000e+0
vn 0.0000000e+0 -1.00000000 0.0000000e+0
vn 0.0000000e+0 1.00000000 0.0000000e+0
vn 0.0000000e+0 -1.00000000 0.0000000e+0
vn 0.0000000e+0 1.00000000 0.0000000e+0
vn 0.0000000e+0 -1.00000000 0.0000000e+0
vn 1.2939894e-16 0.99940155 -3.4590941e-2
vn -1.2939894e-16 -0.99940155 3.4590941e-2
vn 0.0000000e+0 0.99940155 3.4590941e-2
vn 0.0000000e+0 1.00000000 0.0000000e+0
vn 0.0000000e+0 -0.99940155 -3.4590941e-2
vn 0.0000000e+0 -1.00000000 0.0000000e+0
vn 0.0000000e+0 1.00000000 0.0000000e+0
vn 0.0000000e+0 -1.00000000 0.0000000e+0
vn 1.2939894e-16 0.99940155 -3.4590941e-2
vn -1.2939894e-16 -0.99940155 3.4590941e-2
vn 0.0000000e+0 0.99940155 3.4590941e-2
vn 0.0000000e+0 1.00000000 0.0000000e+0
vn 0.0000000e+0 -0.99940155 -3.4590941e-2
vn 0.0000000e+0 -1.00000000 0.0000000e+0
vn 0.0000000e+0 0.99990249 -1.3964744e-2
vn 1.2939894e-16 0.99940155 -3.4590941e-2
vn 0.0000000e+0 -0.99990249 1.3964744e-2
vn -1.2939894e-16 -0.99940155 3.4590941e-2
vn 0.0000000e+0 1.00000000 0.0000000e+0
vn 0.0000000e+0 0.99990249 -1.3964744e-2
vn 0.0000000e+0 -1.00000000 0.0000000e+0
vn 0.0000000e+0 -0.99990249 1.3964744e-2
vn 0.0000000e+0 0.99990249 1.3964744e-2
vn 0.0000000e+0 1.00000000 0.0000000e+0
vn 0.0000000e+0 -0.99990249 -1.3964744e-2
vn 0.0000000e+0 -1.00000000 0.0000000e+0
vn 0.0000000e+0 0.99940155 3.4590941e-2
vn 0.0000000e+0 -0.99940155 -3.4590941e-2
vn 0.0000000e+0 0.99990249 1.3964744e-2
vn 0.0000000e+0 -0.99990249 -1.3964744e-2
vn 0.0000000e+0 0.99990249 -1.3964744e-2
vn 1.2939894e-16 0.99940155 -3.4590941e-2
vn 0.0000000e+0 -0.99990249 1.3964744e-2
vn -1.2939894e-16 -0.99940155 3.4590941e-2
vn 0.0000000e+0 1.00000000 0.0000000e+0
vn 0.0000000e+0 0.99990249 -1.3964744e-2
vn 0.0000000e+0 -1.00000000 0.0000000e+0
vn 0.0000000e+0 -0.99990249 1.3964744e-2
vn 0.0000000e+0 0.99990249 1.3964744e-2
vn 0.0000000e+0 1.00000000 0.0000000e+0
vn 0.0000000e+0 -0.99990249 -1.3964744e-2
vn 0.0000000e+0 -1.00000000 0.0000000e+0
vn 0.0000000e+0 0.99940155 3.4590941e-2
vn 0.0000000e+0 -0.99940155 -3.4590941e-2
vn 0.0000000e+0 0.99990249 1.3964744e-2
vn 0.0000000e+0 -0.99990249 -1.3964744e-2
vn 0.0000000e+0 1.00000000 0.0000000e+0
vn 0.0000000e+0 -1.00000000 0.0000000e+0
vn 0.0000000e+0 1.00000000 0.0000000e+0
vn 0.0000000e+0 -1.00000000 0.0000000e+0
vn 0.0000000e+0 1.00000000 0.0000000e+0
vn 0.0000000e+0 -1.00000000 0.0000000e+0
vn 0.0000000e+0 1.00000000 0.0000000e+0
vn 0.0000000e+0 -1.00000000 0.0000000e+0
vn 0.0000000e+0 1.00000000 0.0000000e+0
vn 0.0000000e+0 -1.00000000 0.0000000e+0
vn 0.0000000e+0 0.99857537 -5.3359410e-2
vn 0.0000000e+0 -0.99857537 5.3359410e-2
vn 0.0000000e+0 0.99857537 5.3359410e-2
vn 0.0000000e+0 1.00000000 0.0000000e+0
vn 0.0000000e+0 -0.99857537 -5.3359410e-2
vn 0.0000000e+0 -1.00000000 0.0000000e+0
vn 0.0000000e+0 1.00000000 0.0000000e+0
vn 0.0000000e+0 -1.00000000 0.0000000e+0
vn 0.0000000e+0 0.99857537 -5.3359410e-2
vn 0.0000000e+0 -0.99857537 5.3359410e-2
vn 0.0000000e+0 0.99857537 5.3359410e-2
vn 0.0000000e+0 1.00000000 0.0000000e+0
vn 0.0000000e+0 -0.99857537 -5.3359410e-2
vn 0.0000000e+0 -1.00000000 0.0000000e+0
vn -1.2941915e-16 0.99955765 -2.9740716e-2
vn 0.0000000e+0 0.99857537 -5.3359410e-2
vn 1.2941915e-16 -0.99955765 2.9740716e-2
vn 0.0000000e+0 -0.99857537 5.3359410e-2
vn 0.0000000e+0 1.00000000 0.0000000e+0
vn -1.2941915e-16 0.99955765 -2.9740716e-2
vn 0.0000000e+0 -1.00000000 0.0000000e+0
vn 1.2941915e-16 -0.99955765 2.9740716e-2
vn -1.2941915e-16 0.99955765 2.9740716e-2
vn 0.0000000e+0 1.00000000 0.0000000e+0
vn 1.2941915e-16 -0.99955765 -2.9740716e-2
vn 0.0000000e+0 -1.00000000 0.0000000e+0
vn 0.0000000e+0 0.99857537 5.3359410e-2
vn 0.0000000e+0 -0.99857537 -5.3359410e-2
vn -1.2941915e-16 0.99955765 2.9740716e-2
vn 1.2941915e-16 -0.99955765 -2.9740716e-2
vn -1.2941915e-16 0.99955765 -2.9740716e-2
vn 0.0000000e+0 0.99857537 -5.3359410e-2
vn 1.2941915e-16 -0.99955765 2.9740716e-2
vn 0.0000000e+0 -0.99857537 5.3359410e-2
vn 0.0000000e+0 1.00000000 0.0000000e+0
vn -1.2941915e-16 0.99955765 -2.9740716e-2
vn 0.0000000e+0 -1.00000000 0.0000000e+0
vn 1.2941915e-16 -0.99955765 2.9740716e-2
vn -1.2941915e-16 0.99955765 2.9740716e-2
vn 0.0000000e+0 1.00000000 0.0000000e+0
vn 1.2941915e-16 -0.99955765 -2.9740716e-2
vn 0.0000000e+0 -1.00000000 0.0000000e+0
vn 0.0000000e+0 0.99857537 5.3359410e-2
vn 0.0000000e+0 -0.99857537 -5.3359410e-2
vn -1.2941915e-16 0.99955765 2.9740716e-2
vn 1.2941915e-16 -0.99955765 -2.9740716e-2
vn 0.0000000e+0 1.00000000 0.0000000e+0
vn 0.0000000e+0 -1.00000000 0.0000000e+0
vn 0.0000000e+0 1.00000000 0.0000000e+0
vn 0.0000000e+0 -1.00000000 0.0000000e+0
vn 0.0000000e+0 1.00000000 0.0000000e+0
vn 0.0000000e+0 -1.00000000 0.0000000e+0
vn 0.0000000e+0 1.00000000 0.0000000e+0
vn 0.0000000e+0 -1.00000000 0.0000000e+0
vn 0.0000000e+0 1.00000000 0.0000000e+0
vn 0.0000000e+0 -1.00000000 0.0000000e+0
vn 0.0000000e+0 0.99823410 -5.9402672e-2
vn 0.0000000e+0 -0.99823410 5.9402672e-2
vn 0.0000000e+0 0.99823410 5.9402672e-2
vn 0.0000000e+0 1.00000000 0.0000000e+0
vn 0.0000000e+0 -0.99823410 -5.9402672e-2
vn 0.0000000e+0 -1.00000000 0.0000000e+0
vn 0.0000000e+0 1.00000000 0.0000000e+0
vn 0.0000000e+0 -1.00000000 0.0000000e+0
vn 0.0000000e+0 0.99823410 -5.9402672e-2
vn 0.0000000e+0 -0.99823410 5.9402672e-2
vn 0.0000000e+0 0.99823410 5.9402672e-2
vn 0.0000000e+0 1.00000000 0.0000000e+0
vn 0.0000000e+0 -0.99823410 -5.9402672e-2
vn 0.0000000e+0 -1.00000000 0.0000000e+0
vn -1.2931622e-16 0.99876267 -4.9730595e-2
vn 0.0000000e+0 0.99823410 -5.9402672e-2
vn 1.2931622e-16 -0.99876267 4.9730595e-2
vn 0.0000000e+0 -0.99823410 5.9402672e-2
vn 0.0000000e+0 1.00000000 0.0000000e+0
vn -1.2931622e-16 0.99876267 -4.9730595e-2
vn 0.0000000e+0 -1.00000000 0.0000000e+0
vn 1.2931622e-16 -0.99876267 4.9730595e-2
vn -1.2931622e-16 0.99876267 4.9730595e-2
vn 0.0000000e+0 1.00000000 0.0000000e+0
vn 1.2931622e-16 -0.99876267 -4.9730595e-2
vn 0.0000000e+0 -1.00000000 0.0000000e+0
vn 0.0000000e+0 0.99823410 5.9402672e-2
vn 0.0000000e+0 -0.99823410 -5.9402672e-2
vn -1.2931622e-16 0.99876267 4.9730595e-2
vn 1.2931622e-16 -0.99876267 -4.9730595e-2
vn -1.2931622e-16 0.99876267 -4.9730595e-2
vn 0.0000000e+0 0.99823410 -5.9402672e-2
vn 1.2931622e-16 -0.99876267 4.9730595e-2
vn 0.0000000e+0 -0.99823410 5.9402672e-2
vn 0.0000000e+0 1.00000000 0.0000000e+0
vn -1.2931622e-16 0.99876267 -4.9730595e-2
vn 0.0000000e+0 -1.00000000 0.0000000e+0
vn 1.2931622e-16 -0.99876267 4.9730595e-2
vn -1.2931622e-16 0.99876267 4.9730595e-2
vn 0.0000000e+0 1.00000000 0.0000000e+0
vn 1.2931622e-16 -0.99876267 -4.9730595e-2
vn 0.0000000e+0 -1.00000000 0.0000000e+0
vn 0.0000000e+0 0.99823410 5.9402672e-2
vn 0.0000000e+0 -0.99823410 -5.9402672e-2
vn -1.2931622e-16 0.99876267 4.9730595e-2
vn 1.2931622e-16 -0.99876267 -4.9730595e-2
vn 0.0000000e+0 1.00000000 0.0000000e+0
vn 0.0000000e+0 -1.00000000 0.0000000e+0
vn 0.0000000e+0 1.00000000 0.0000000e+0
vn 0.0000000e+0 -1.00000000 0.0000000e+0
vn 0.0000000e+0 1.00000000 0.0000000e+0
vn 0.0000000e+0 -1.00000000 0.0000000e+0
vn 0.0000000e+0 1.00000000 0.0000000e+0
vn 0.0000000e+0 -1.00000000 0.0000000e+0
vn 0.0000000e+0 1.00000000 0.0000000e+0
vn 0.0000000e+0 -1.00000000 0.0000000e+0
vn 0.0000000e+0 0.99857537 -5.3359410e-2
vn 0.0000000e+0 -0.99857537 5.3359410e-2
vn 0.0000000e+0 0.99857537 5.3359410e-2
vn 0.0000000e+0 1.00000000 0.0000000e+0
vn 0.0000000e+0 -0.99857537 -5.3359410e-2
vn 0.0000000e+0 -1.00000000 0.0000000e+0
vn 0.0000000e+0 1.00000000 0.0000000e+0
vn 0.0000000e+0 -1.00000000 0.0000000e+0
vn 0.0000000e+0 0.99857537 -5.3359410e-2
vn 0.0000000e+0 -0.99857537 5.3359410e-2
vn 0.0000000e+0 0.99857537 5.3359410e-2
vn 0.0000000e+0 1.00000000 0.0000000e+0
vn 0.0000000e+0 -0.99857537 -5.3359410e-2
vn 0.0000000e+0 -1.00000000 0.0000000e+0
vn -1.2941915e-16 0.99955765 -2.9740716e-2
vn 0.0000000e+0 0.99857537 -5.3359410e-2
vn 1.2941915e-16 -0.99955765 2.9740716e-2
vn 0.0000000e+0 -0.99857537 5.3359410e-2
vn 0.0000000e+0 1.00000000 0.0000000e+0
vn -1.2941915e-16 0.99955765 -2.9740716e-2
vn 0.0000000e+0 -1.00000000 0.0000000e+0
vn 1.2941915e-16 -0.99955765 2.9740716e-2
vn -1.2941915e-16 0.99955765 2.9740716e-2
vn 0.0000000e+0 1.00000000 0.0000000e+0
vn 1.2941915e-16 -0.99955765 -2.9740716e-2
vn 0.0000000e+0 -1.00000000 0.0000000e+0
vn 0.0000000e+0 0.99857537 5.3359410e-2
vn 0.0000000e+0 -0.99857537 -5.3359410e-2
vn -1.2941915e-16 0.99955765 2.9740716e-2
vn 1.2941915e-16 -0.99955765 -2.9740716e-2
vn -1.2941915e-16 0.99955765 -2.9740716e-2
vn 0.0000000e+0 0.99857537 -5.3359410e-2
vn 1.2941915e-16 -0.99955765 2.9740716e-2
vn 0.0000000e+0 -0.99857537 5.3359410e-2
vn 0.0000000e+0 1.00000000 0.0000000e+0
vn -1.2941915e-16 0.99955765 -2.9740716e-2
vn 0.0000000e+0 -1.00000000 0.0000000e+0
vn 1.2941915e-16 -0.99955765 2.9740716e-2
vn -1.2941915e-16 0.99955765 2.9740716e-2
vn 0.0000000e+0 1.00000000 0.0000000e+0
vn 1.2941915e-16 -0.99955765 -2.9740716e-2
vn 0.0000000e+0 -1.00000000 0.0000000e+0
vn 0.0000000e+0 0.99857537 5.3359410e-2
vn 0.0000000e+0 -0.99857537 -5.3359410e-2
vn -1.2941915e-16 0.99955765 2.9740716e-2
vn 1.2941915e-16 -0.99955765 -2.9740716e-2
vn 0.0000000e+0 1.00000000 0.0000000e+0
vn 0.0000000e+0 -1.00000000 0.0000000e+0
vn 0.0000000e+0 1.00000000 0.0000000e+0
vn 0.0000000e+0 -1.00000000 0.0000000e+0
vn 0.0000000e+0 1.00000000 0.0000000e+0
vn 0.0000000e+0 -1.00000000 0.0000000e+0
vn 0.0000000e+0 1.00000000 0.0000000e+0
vn 0.0000000e+0 -1.00000000 0.0000000e+0
vn 0.0000000e+0 1.00000000 0.0000000e+0
vn 0.0000000e+0 -1.00000000 0.0000000e+0
vn 1.2939894e-16 0.99940155 -3.4590941e-2
vn -1.2939894e-16 -0.99940155 3.4590941e-2
vn 0.0000000e+0 0.99940155 3.4590941e-2
vn 0.0000000e+0 1.00000000 0.0000000e+0
vn 0.0000000e+0 -0.99940155 -3.4590941e-2
vn 0.0000000e+0 -1.00000000 0.0000000e+0
vn 0.0000000e+0 1.00000000 0.0000000e+0
vn 0.0000000e+0 -1.00000000 0.0000000e+0
vn 1.2939894e-16 0.99940155 -3.4590941e-2
vn -1.2939894e-16 -0.99940155 3.4590941e-2
vn 0.0000000e+0 0.99940155 3.4590941e-2
vn 0.0000000e+0 1.00000000 0.0000000e+0
vn 0.0000000e+0 -0.99940155 -3.4590941e-2
vn 0.0000000e+0 -1.00000000 0.0000000e+0
vn 0.0000000e+0 0.99990249 -1.3964744e-2
vn 1.2939894e-16 0.99940155 -3.4590941e-2
vn 0.0000000e+0 -0.99990249 1.3964744e-2
vn -1.2939894e-16 -0.99940155 3.4590941e-2
vn 0.0000000e+0 1.00000000 0.0000000e+0
vn 0.0000000e+0 0.99990249 -1.3964744e-2
vn 0.0000000e+0 -1.00000000 0.0000000e+0
vn 0.0000000e+0 -0.99990249 1.3964744e-2
vn 0.0000000e+0 0.99990249 1.3964744e-2
vn 0.0000000e+0 1.00000000 0.0000000e+0
vn 0.0000000e+0 -0.99990249 -1.3964744e-2
vn 0.0000000e+0 -1.00000000 0.0000000e+0
vn 0.0000000e+0 0.99940155 3.4590941e-2
vn 0.0000000e+0 -0.99940155 -3.4590941e-2
vn 0.0000000e+0 0.99990249 1.3964744e-2
vn 0.0000000e+0 -0.99990249 -1.3964744e-2
vn 0.0000000e+0 0.99990249 -1.3964744e-2
vn 1.2939894e-16 0.99940155 -3.4590941e-2
vn 0.0000000e+0 -0.99990249 1.3964744e-2
vn -1.2939894e-16 -0.99940155 3.4590941e-2
vn 0.0000000e+0 1.00000000 0.0000000e+0
vn 0.0000000e+0 0.99990249 -1.3964744e-2
vn 0.0000000e+0 -1.00000000 0.0000000e+0
vn 0.0000000e+0 -0.99990249 1.3964744e-2
vn 0.0000000e+0 0.99990249 1.3964744e-2
vn 0.0000000e+0 1.00000000 0.0000000e+0
vn 0.0000000e+0 -0.99990249 -1.3964744e-2
vn 0.0000000e+0 -1.00000000 0.0000000e+0
vn 0.0000000e+0 0.99940155 3.4590941e-2
vn 0.0000000e+0 -0.99940155 -3.4590941e-2
vn 0.0000000e+0 0.99990249 1.3964744e-2
vn 0.0000000e+0 -0.99990249 -1.3964744e-2
vn 0.0000000e+0 1.00000000 0.0000000e+0
vn 0.0000000e+0 -1.00000000 0.0000000e+0
vn 0.0000000e+0 1.00000000 0.0000000e+0
vn 0.0000000e+0 -1.00000000 0.0000000e+0
vn 0.0000000e+0 1.00000000 0.0000000e+0
vn 0.0000000e+0 -1.00000000 0.0000000e+0
vn 0.0000000e+0 1.00000000 0.0000000e+0
vn 0.0000000e+0 -1.00000000 0.0000000e+0
vn 0.0000000e+0 1.00000000 0.0000000e+0
vn 0.0000000e+0 -1.00000000 0.0000000e+0
vn 0.0000000e+0 0.99972826 -2.3310989e-2
vn 0.0000000e+0 -0.99972826 2.3310989e-2
vn 0.0000000e+0 0.99972826 2.3310989e-2
vn 0.0000000e+0 1.00000000 0.0000000e+0
vn 0.0000000e+0 -0.99972826 -2.3310989e-2
vn 0.0000000e+0 -1.00000000 0.0000000e+0
vn 0.0000000e+0 1.00000000 0.0000000e+0
vn 0.0000000e+0 -1.00000000 0.0000000e+0
vn 0.0000000e+0 0.99972826 -2.3310989e-2
vn 0.0000000e+0 -0.99972826 2.3310989e-2
vn 0.0000000e+0 0.99972826 2.3310989e-2
vn 0.0000000e+0 1.00000000 0.0000000e+0
vn 0.0000000e+0 -0.99972826 -2.3310989e-2
vn 0.0000000e+0 -1.00000000 0.0000000e+0
vn 0.0000000e+0 0.99980172 -1.9912932e-2
vn 0.0000000e+0 0.99972826 -2.3310989e-2
vn 0.0000000e+0 -0.99980172 1.9912932e-2
vn 0.0000000e+0 -0.99972826 2.3310989e-2
vn 0.0000000e+0 0.99980172 1.9912932e-2
vn 0.0000000e+0 0.99980172 -1.9912932e-2
vn 0.0000000e+0 -0.99980172 -1.9912932e-2
vn 0.0000000e+0 -0.99980172 1.9912932e-2
vn 0.0000000e+0 0.99972826 2.3310989e-2
vn 0.0000000e+0 -0.99972826 -2.3310989e-2
vn 0.0000000e+0 0.99980172 1.9912932e-2
vn 0.0000000e+0 -0.99980172 -1.9912932e-2
vn 0.0000000e+0 0.99980172 -1.9912932e-2
vn 0.0000000e+0 0.99972826 -2.3310989e-2
vn 0.0000000e+0 -0.99980172 1.9912932e-2
vn 0.0000000e+0 -0.99972826 2.3310989e-2
vn 0.0000000e+0 0.99980172 1.9912932e-2
vn 0.0000000e+0 0.99980172 -1.9912932e-2
vn 0.0000000e+0 -0.99980172 -1.9912932e-2
vn 0.0000000e+0 -0.99980172 1.9912932e-2
vn 0.0000000e+0 0.99972826 2.3310989e-2
vn 0.0000000e+0 -0.99972826 -2.3310989e-2
vn 0.0000000e+0 0.99980172 1.9912932e-2
vn 0.0000000e+0 -0.99980172 -1.9912932e-2
vn 0.0000000e+0 1.00000000 0.0000000e+0
vn 0.0000000e+0 -1.00000000 0.0000000e+0
vn 0.0000000e+0 1.00000000 0.0000000e+0
vn 0.0000000e+0 -1.00000000 0.0000000e+0
vn 0.0000000e+0 1.00000000 0.0000000e+0
vn 0.0000000e+0 -1.00000000 0.0000000e+0
vn 0.0000000e+0 1.00000000 0.0000000e+0
vn 0.0000000e+0 -1.00000000 0.0000000e+0
vn 0.0000000e+0 1.00000000 0.0000000e+0
vn 0.0000000e+0 -1.00000000 0.0000000e+0
vn 0.0000000e+0 1.00000000 0.0000000e+0
vn 0.0000000e+0 -1.00000000 0.0000000e+0
vn 0.0000000e+0 1.00000000 0.0000000e+0
vn 0.0000000e+0 1.00000000 0.0000000e+0
vn 0.0000000e+0 -1.00000000 0.0000000e+0
vn 0.0000000e+0 -1.00000000 0.0000000e+0
vn 0.0000000e+0 1.00000000 0.0000000e+0
vn 0.0000000e+0 -1.00000000 0.0000000e+0
vn 0.0000000e+0 1.00000000 0.0000000e+0
vn 0.0000000e+0 -1.00000000 0.0000000e+0
vn 0.0000000e+0 1.00000000 0.0000000e+0
vn 0.0000000e+0 1.00000000 0.0000000e+0
vn 0.0000000e+0 -1.00000000 0.0000000e+0
vn 0.0000000e+0 -1.00000000 0.0000000e+0
vn 0.22679167 -0.48935627 0.84207837
vn 0.48861076 -0.87125601 -4.6609985e-2
vn -0.73950254 -0.66938825 -7.1101091e-2
vn -0.43419784 0.77776298 0.45448540
vn -0.43419784 0.77776298 0.45448540
vn -0.96217584 -0.25066100 -0.10670858
vn 0.28651266 0.87481392 0.39065472
vn 0.28651266 0.87481392 0.39065472
vn 0.28651266 0.87481392 0.39065472
vn 0.31487404 -0.88031790 0.35481649
vn 0.31487404 -0.88031790 0.35481649
vn 0.31487404 -0.88031790 0.35481649
vn -0.92457967 -0.37616243 -6.0450532e-2
vn 1.7437371e-2 -0.96087865 -0.27642025
vn 1.7437371e-2 -0.96087865 -0.27642025
vn 2.1352862e-2 0.97750654 -0.20982141
vn -0.92657409 0.36803379 -7.7534466e-2
vn 2.1352862e-2 0.97750654 -0.20982141
vn 8.7212583e-2 -0.99617027 -6.2259083e-3
vn -0.93123151 -0.35910643 -6.2052014e-2
vn -0.93123151 -0.35910643 -6.2052014e-2
vn 8.7212583e-2 -0.99617027 -6.2259083e-3
vn -0.93123151 -0.35910643 -6.2052014e-2
vn 8.7212583e-2 -0.99617027 -6.2259083e-3
vn 0.28640819 -0.84042415 0.46006259
vn 0.28640819 -0.84042415 0.46006259
vn 0.28640819 -0.84042415 0.46006259
vn 0.28640819 -0.84042415 0.46006259
vn -3.5166263e-3 0.99679000 7.9983292e-2
vn -3.5166263e-3 0.99679000 7.9983292e-2
vn -0.90069225 0.43402302 -1.9428931e-2
vn -0.90069225 0.43402302 -1.9428931e-2
vn -0.45139517 0.88733219 -9.4254875e-2
vn -0.45139517 0.88733219 -9.4254875e-2
vn -0.45139517 0.88733219 -9.4254875e-2
vn -0.45139517 0.88733219 -9.4254875e-2
vn -0.45139517 0.88733219 -9.4254875e-2
vn 3.8726032e-3 0.99703426 -7.6861477e-2
vn 3.8726032e-3 0.99703426 -7.6861477e-2
vn -0.91760103 0.38873907 -8.3007761e-2
vn -2.2246574e-3 0.99758740 6.9386053e-2
vn -2.2246574e-3 0.99758740 6.9386053e-2
vn -0.93188164 0.36066168 -3.8983989e-2
vn -2.7371215e-7 1.00000000 -1.8441051e-8
vn -2.7371215e-7 1.00000000 -1.8441051e-8
vn -0.92508025 0.37483770 -6.1018229e-2
vn -0.92508025 0.37483770 -6.1018229e-2
vn -8.5857891e-4 0.99998139 6.0393385e-3
vn -8.5857891e-4 0.99998139 6.0393385e-3
vn -0.88744842 0.45950464 -3.5927473e-2
vn -0.88744842 0.45950464 -3.5927473e-2
vn -1.1421501e-3 0.99965144 2.6375846e-2
vn -1.1421501e-3 0.99965144 2.6375846e-2
vn -0.94177585 0.33240569 -5.0642895e-2
vn -0.94177585 0.33240569 -5.0642895e-2
vn 1.2943046e-3 0.99965153 -2.6365580e-2
vn 1.2943046e-3 0.99965153 -2.6365580e-2
vn -0.94254143 0.32595441 -7.3276046e-2
vn -0.94254143 0.32595441 -7.3276046e-2
vn 2.0079366e-4 0.99955874 2.9703427e-2
vn -0.95115193 0.30454069 -5.0645618e-2
vn -0.95115193 0.30454069 -5.0645618e-2
vn 2.0079366e-4 0.99955874 2.9703427e-2
vn -0.94871091 0.30830422 -6.9972217e-2
vn 5.9244657e-3 0.99992817 -1.0418820e-2
vn -0.94871091 0.30830422 -6.9972217e-2
vn 5.9244657e-3 0.99992817 -1.0418820e-2
vn 0.37253517 -0.92743416 -3.2915322e-2
vn 0.37253517 -0.92743416 -3.2915322e-2
vn -0.83392642 -0.54725197 -7.1288205e-2
vn -0.83392642 -0.54725197 -7.1288205e-2
vn -0.83392642 -0.54725197 -7.1288205e-2
vn -0.83392642 -0.54725197 -7.1288205e-2
vn -0.83392642 -0.54725197 -7.1288205e-2
vn -0.88074107 0.47359325 2.1452009e-3
vn -0.88074107 0.47359325 2.1452009e-3
vn -0.88074107 0.47359325 2.1452009e-3
vn -0.88074107 0.47359325 2.1452009e-3
vn -0.71012241 0.70405995 -5.0734526e-3
vn -0.71012241 0.70405995 -5.0734526e-3
vn -0.71012241 0.70405995 -5.0734526e-3
vn -0.71012241 0.70405995 -5.0734526e-3
vn -0.65645851 0.75169019 -6.3435692e-2
vn -0.65645851 0.75169019 -6.3435692e-2
vn -0.65645851 0.75169019 -6.3435692e-2
vn -0.65645851 0.75169019 -6.3435692e-2
vn 0.51512257 -0.85634414 3.6379145e-2
vn 0.51512257 -0.85634414 3.6379145e-2
vn 0.51512257 -0.85634414 3.6379145e-2
vn 0.51512257 -0.85634414 3.6379145e-2
vn 0.92965376 -0.36592350 4.2940404e-2
vn 0.92965376 -0.36592350 4.2940404e-2
vn 4.8233672e-3 -0.99998837 5.8817422e-5
vn 4.8233672e-3 -0.99998837 5.8817422e-5
vn 0.45358271 -0.89118259 -7.5049161e-3
vn 0.45358271 -0.89118259 -7.5049161e-3
vn 0.45358271 -0.89118259 -7.5049161e-3
vn 0.45358271 -0.89118259 -7.5049161e-3
vn -0.92097051 -0.38505278 -5.9562442e-2
vn -0.92097051 -0.38505278 -5.9562442e-2
vn 2.8443470e-3 -0.99995162 9.4165281e-3
vn 2.8443470e-3 -0.99995162 9.4165281e-3
vn 2.8443470e-3 -0.99995162 9.4165281e-3
vn 0.22679167 -0.48935627 0.84207837
vn -0.33754999 0.58439850 0.73792845
vn -0.95048946 -0.30074545 -7.8242909e-2
vn -0.95048946 -0.30074545 -7.8242909e-2
vn -0.95048946 -0.30074545 -7.8242909e-2
vn -5.1726486e-2 0.58548612 0.80903051
vn 0.82294898 0.56296057 7.6356883e-2
vn -5.1726486e-2 -0.58548612 0.80903051
vn 0.82110283 -0.56693036 6.6182384e-2
vn 0.82294898 0.56296057 7.6356883e-2
vn 2.9946450e-2 0.92808645 -0.37115866
vn -0.99393298 8.4357008e-2 -7.0577038e-2
vn -0.99393298 8.4357008e-2 -7.0577038e-2
vn 3.2258362e-2 -0.84707437 -0.53049449
vn -0.99393298 8.4357008e-2 -7.0577038e-2
vn -0.33172049 0.89905554 0.28576328
vn -0.34807241 -0.73911163 0.57667981
vn -0.34807241 -0.73911163 0.57667981
vn -0.33172049 0.89905554 0.28576328
vn -0.34807241 -0.73911163 0.57667981
vn -0.11775142 0.59545234 0.79471448
vn -0.11775142 0.59545234 0.79471448
vn -1.3219527e-2 -0.58270111 0.81257902
vn -1.3219527e-2 -0.58270111 0.81257902
vn -0.26122754 0.59543231 0.75975031
vn 0.12683477 -0.53752626 0.83365368
vn 0.12683477 -0.53752626 0.83365368
vn -0.26122754 0.59543231 0.75975031
vn -0.99672557 -3.1638887e-2 -7.4411780e-2
vn -0.99672557 -3.1638887e-2 -7.4411780e-2
vn -0.99672557 -3.1638887e-2 -7.4411780e-2
vn -0.99672557 -3.1638887e-2 -7.4411780e-2
vn -0.99672557 -3.1638887e-2 -7.4411780e-2
vn -0.99271948 -0.11244566 -4.3174128e-2
vn -0.99271948 -0.11244566 -4.3174128e-2
vn -0.99271948 -0.11244566 -4.3174128e-2
vn -0.99271948 -0.11244566 -4.3174128e-2
vn -0.99271948 -0.11244566 -4.3174128e-2
vn -0.91417180 0.40524615 -8.0918175e-3
vn -0.80194908 -0.59581764 -4.3347623e-2
vn -0.80194908 -0.59581764 -4.3347623e-2
vn -0.91417180 0.40524615 -8.0918175e-3
vn 0.88620648 0.46173369 3.7948300e-2
vn 0.88620648 0.46173369 3.7948300e-2
vn 0.88620648 0.46173369 3.7948300e-2
vn 0.88620648 0.46173369 3.7948300e-2
vn 0.88620648 0.46173369 3.7948300e-2
vn 0.88620648 0.46173369 3.7948300e-2
vn 0.81469699 -0.57918519 -2.8518970e-2
vn 0.81469699 -0.57918519 -2.8518970e-2
vn 0.67255288 0.73967181 2.3627182e-2
vn 0.67255288 0.73967181 2.3627182e-2
vn 0.67255288 0.73967181 2.3627182e-2
vn 0.67255288 0.73967181 2.3627182e-2
vn 0.93177987 0.35745345 6.3350603e-2
vn 0.93177987 0.35745345 6.3350603e-2
vn 0.93177987 0.35745345 6.3350603e-2
vn 0.93177987 0.35745345 6.3350603e-2
vn 0.93177987 0.35745345 6.3350603e-2
vn 0.93177987 0.35745345 6.3350603e-2
vn 0.28549778 0.93485560 0.21103560
vn 0.28549778 0.93485560 0.21103560
vn 0.28549778 0.93485560 0.21103560
vn 0.28549778 0.93485560 0.21103560
vn 0.28549778 0.93485560 0.21103560
vn -0.26911172 0.93924366 -0.21307328
vn -0.53346082 -0.83299291 0.14677317
vn -0.26911172 0.93924366 -0.21307328
vn -0.53346082 -0.83299291 0.14677317
vn -0.21579310 0.55883714 0.80070868
vn -0.21579310 0.55883714 0.80070868
vn -0.21579310 0.55883714 0.80070868
vn -0.21579310 0.55883714 0.80070868
vn 0.14553983 0.98020421 0.13423066
vn 0.14553983 0.98020421 0.13423066
vn 0.14553983 0.98020421 0.13423066
vn 0.14553983 0.98020421 0.13423066
vn 0.14553983 0.98020421 0.13423066
vn 0.14553983 0.98020421 0.13423066
vn 0.27530449 0.76650038 -0.58024530
vn 0.27530449 0.76650038 -0.58024530
vn 0.24021347 -0.92718920 -0.28743289
vn 0.27530449 0.76650038 -0.58024530
vn 0.24021347 -0.92718920 -0.28743289
vn 0.67120327 0.53233022 -0.51585920
vn 0.38935086 -0.91141471 -0.13315080
vn 0.67714104 0.72630135 0.11817930
vn 0.38935086 -0.91141471 -0.13315080
vn 0.67714104 0.72630135 0.11817930
vn -1.4354203e-4 0.89960691 -0.43670058
vn 0.14475352 -0.87319173 -0.46538439
vn -1.4354203e-4 0.89960691 -0.43670058
vn 0.14475352 -0.87319173 -0.46538439
vn -1.4354203e-4 0.89960691 -0.43670058
vn -0.27464700 0.93348440 -0.23059900
vn -0.27464700 0.93348440 -0.23059900
vn -0.27464700 0.93348440 -0.23059900
vn -0.27464700 0.93348440 -0.23059900
vn -0.27464700 0.93348440 -0.23059900
vn 0.60162205 -0.79484097 -7.9238538e-2
vn 0.78200023 0.61567226 -9.7073689e-2
vn 0.60162205 -0.79484097 -7.9238538e-2
vn 0.78200023 0.61567226 -9.7073689e-2
vn 0.78200023 0.61567226 -9.7073689e-2
vn 0.40205339 0.85706370 0.32217212
vn 0.40205339 0.85706370 0.32217212
vn 0.40205339 0.85706370 0.32217212
vn 0.40205339 0.85706370 0.32217212
vn 0.40205339 0.85706370 0.32217212
vn 0.40205339 0.85706370 0.32217212
g bed1_MetaL
usemtl MetaL
f 1/557/216 9/556/1 16/563/8 8/564/230
f 2/460/219 10/459/2 9/556/1 1/557/217
f 3/437/221 11/440/3 10/459/2 2/460/218
f 4/398/223 12/414/4 11/440/3 3/437/220
f 5/358/225 13/369/5 12/414/4 4/398/222
f 6/320/227 14/331/6 13/369/5 5/358/224
f 7/297/229 15/306/7 14/331/6 6/320/226
f 8/277/231 16/287/8 15/306/7 7/297/228
f 9/556/1 17/465/9 24/561/16 16/563/8
f 10/459/2 18/453/10 17/465/9 9/556/1
f 11/440/3 19/435/11 18/453/10 10/459/2
f 12/414/4 20/415/12 19/435/11 11/440/3
f 13/369/5 21/376/13 20/415/12 12/414/4
f 14/331/6 22/349/14 21/376/13 13/369/5
f 15/306/7 23/324/15 22/349/14 14/331/6
f 16/287/8 24/294/16 23/324/15 15/306/7
f 17/465/9 25/449/17 32/455/24 24/561/16
f 18/453/10 26/442/18 25/449/17 17/465/9
f 19/435/11 27/429/19 26/442/18 18/453/10
f 20/415/12 28/416/20 27/429/19 19/435/11
f 21/376/13 29/388/21 28/416/20 20/415/12
f 22/349/14 30/368/22 29/388/21 21/376/13
f 23/324/15 31/355/23 30/368/22 22/349/14
f 24/294/16 32/346/24 31/355/23 23/324/15
f 25/449/17 33/432/25 40/418/32 32/455/24
f 26/442/18 34/433/26 33/432/25 25/449/17
f 27/429/19 35/425/27 34/433/26 26/442/18
f 28/416/20 36/417/28 35/425/27 27/429/19
f 29/388/21 37/394/29 36/417/28 28/416/20
f 30/368/22 38/382/30 37/394/29 29/388/21
f 31/355/23 39/384/31 38/382/30 30/368/22
f 32/346/24 40/418/32 39/384/31 31/355/23
f 34/433/26 35/425/27 36/417/28 37/394/29 38/382/30 39/384/31 40/418/32 33/432/25
f 41/308/232 49/311/33 56/336/40 48/343/246
f 42/289/235 50/291/34 49/311/33 41/308/233
f 43/274/237 51/275/35 50/291/34 42/289/234
f 44/258/239 52/265/36 51/275/35 43/274/236
f 45/451/241 53/444/37 52/462/36 44/467/238
f 46/424/243 54/419/38 53/444/37 45/451/240
f 47/378/245 55/371/39 54/419/38 46/424/242
f 48/343/247 56/336/40 55/371/39 47/378/244
f 49/311/33 57/313/41 64/335/48 56/336/40
f 50/291/34 58/300/42 57/313/41 49/311/33
f 51/275/35 59/282/43 58/300/42 50/291/34
f 52/265/36 60/270/44 59/282/43 51/275/35
f 53/444/37 61/427/45 60/456/44 52/462/36
f 54/419/38 62/395/46 61/427/45 53/444/37
f 55/371/39 63/364/47 62/395/46 54/419/38
f 56/336/40 64/335/48 63/364/47 55/371/39
f 57/313/41 65/322/49 72/334/56 64/335/48
f 58/300/42 66/309/50 65/322/49 57/313/41
f 59/282/43 67/303/51 66/309/50 58/300/42
f 60/270/44 68/295/52 67/303/51 59/282/43
f 61/427/45 69/389/53 68/399/52 60/456/44
f 62/395/46 70/373/54 69/389/53 61/427/45
f 63/364/47 71/356/55 70/373/54 62/395/46
f 64/335/48 72/334/56 71/356/55 63/364/47
f 65/322/49 73/327/57 80/333/64 72/334/56
f 66/309/50 74/316/58 73/327/57 65/322/49
f 67/303/51 75/318/59 74/316/58 66/309/50
f 68/295/52 76/332/60 75/318/59 67/303/51
f 69/389/53 77/359/61 76/332/60 68/399/52
f 70/373/54 78/361/62 77/359/61 69/389/53
f 71/356/55 79/351/63 78/361/62 70/373/54
f 72/334/56 80/333/64 79/351/63 71/356/55
f 74/316/58 75/318/59 76/332/60 77/359/61 78/361/62 79/351/63 80/333/64 73/327/57
f 81/288/248 89/292/65 96/312/72 88/307/262
f 82/273/251 90/276/66 89/292/65 81/288/249
f 83/257/253 91/266/67 90/276/66 82/273/250
f 84/450/255 92/445/68 91/463/67 83/466/252
f 85/423/257 93/420/69 92/445/68 84/450/254
f 86/377/259 94/372/70 93/420/69 85/423/256
f 87/342/261 95/340/71 94/372/70 86/377/258
f 88/307/263 96/312/72 95/340/71 87/342/260
f 89/292/65 97/301/73 104/314/80 96/312/72
f 90/276/66 98/283/74 97/301/73 89/292/65
f 91/266/67 99/271/75 98/283/74 90/276/66
f 92/445/68 100/428/76 99/457/75 91/463/67
f 93/420/69 101/396/77 100/428/76 92/445/68
f 94/372/70 102/365/78 101/396/77 93/420/69
f 95/340/71 103/341/79 102/365/78 94/372/70
f 96/312/72 104/314/80 103/341/79 95/340/71
f 97/301/73 105/310/81 112/323/88 104/314/80
f 98/283/74 106/304/82 105/310/81 97/301/73
f 99/271/75 107/296/83 106/304/82 98/283/74
f 100/428/76 108/390/84 107/400/83 99/457/75
f 101/396/77 109/374/85 108/390/84 100/428/76
f 102/365/78 110/357/86 109/374/85 101/396/77
f 103/341/79 111/339/87 110/357/86 102/365/78
f 104/314/80 112/323/88 111/339/87 103/341/79
f 105/310/81 113/317/89 120/328/96 112/323/88
f 106/304/82 114/319/90 113/317/89 105/310/81
f 107/296/83 115/337/91 114/319/90 106/304/82
f 108/390/84 116/360/92 115/337/91 107/400/83
f 109/374/85 117/362/93 116/360/92 108/390/84
f 110/357/86 118/352/94 117/362/93 109/374/85
f 111/339/87 119/338/95 118/352/94 110/357/86
f 112/323/88 120/328/96 119/338/95 111/339/87
f 114/319/90 115/337/91 116/360/92 117/362/93 118/352/94 119/338/95 120/328/96 113/317/89
f 121/363/264 129/367/97 136/330/104 128/325/278
f 122/401/267 130/402/98 129/367/97 121/363/265
f 123/441/269 131/438/99 130/402/98 122/401/266
f 124/461/271 132/458/100 131/438/99 123/441/268
f 125/558/273 133/555/101 132/458/100 124/461/270
f 126/565/275 134/562/102 133/555/101 125/558/272
f 127/299/277 135/305/103 134/285/102 126/278/274
f 128/325/279 136/330/104 135/305/103 127/299/276
f 129/367/97 137/375/105 144/348/112 136/330/104
f 130/402/98 138/403/106 137/375/105 129/367/97
f 131/438/99 139/434/107 138/403/106 130/402/98
f 132/458/100 140/452/108 139/434/107 131/438/99
f 133/555/101 141/464/109 140/452/108 132/458/100
f 134/562/102 142/559/110 141/464/109 133/555/101
f 135/305/103 143/321/111 142/293/110 134/285/102
f 136/330/104 144/348/112 143/321/111 135/305/103
f 137/375/105 145/386/113 152/366/120 144/348/112
f 138/403/106 146/404/114 145/386/113 137/375/105
f 139/434/107 147/426/115 146/404/114 138/403/106
f 140/452/108 148/439/116 147/426/115 139/434/107
f 141/464/109 149/448/117 148/439/116 140/452/108
f 142/559/110 150/454/118 149/448/117 141/464/109
f 143/321/111 151/354/119 150/345/118 142/293/110
f 144/348/112 152/366/120 151/354/119 143/321/111
f 145/386/113 153/393/121 160/380/128 152/366/120
f 146/404/114 154/405/122 153/393/121 145/386/113
f 147/426/115 155/422/123 154/405/122 146/404/114
f 148/439/116 156/431/124 155/422/123 147/426/115
f 149/448/117 157/430/125 156/431/124 148/439/116
f 150/454/118 158/406/126 157/430/125 149/448/117
f 151/354/119 159/381/127 158/406/126 150/345/118
f 152/366/120 160/380/128 159/381/127 151/354/119
f 154/405/122 155/422/123 156/431/124 157/430/125 158/406/126 159/381/127 160/380/128 153/393/121
f 161/20/280 164/642/292 163/643/288 162/21/284
f 161/640/282 170/638/316 169/27/312 164/23/294
f 162/651/285 166/4/301 165/2/297 161/649/281
f 162/12/287 173/16/329 176/15/341 166/11/303
f 163/626/290 174/620/332 173/16/328 162/12/286
f 164/1/293 168/648/308 167/650/304 163/3/289
f 164/23/295 169/27/313 172/28/325 168/22/311
f 165/641/298 171/639/320 170/638/317 161/640/283
f 166/625/300 167/10/305 168/9/309 165/624/296
f 166/11/302 176/15/340 175/619/337 167/623/307
f 167/623/306 175/619/336 174/620/333 163/626/291
f 168/22/310 172/28/324 171/639/321 165/641/299
f 169/646/315 174/647/335 175/6/338 172/5/326
f 170/636/318 173/637/330 174/25/334 169/24/314
f 171/645/323 176/644/343 173/7/331 170/8/319
f 172/617/327 175/618/339 176/13/342 171/14/322
g bed1_Midlle
usemtl Midlle
f 181/120/354 183/477/362 184/505/364 182/153/356
f 182/488/358 184/141/366 183/144/363 181/496/355
f 189/157/378 191/484/386 196/500/405 193/145/393
f 190/128/380 195/130/400 198/490/412 192/478/388
f 192/138/390 198/135/413 195/486/401 190/494/382
f 193/502/395 196/150/407 191/147/387 189/498/379
f 193/145/392 196/500/404 197/483/409 194/126/397
f 194/482/399 197/134/411 196/150/406 193/502/394
f 194/126/396 197/483/408 198/490/414 195/130/402
f 195/486/403 198/135/415 197/134/410 194/482/398
f 203/105/426 205/536/434 211/549/457 207/182/441
f 204/164/428 210/173/452 214/522/468 206/538/436
f 206/165/438 214/171/469 210/518/453 204/533/430
f 207/546/443 211/179/459 205/103/435 203/532/427
f 207/182/440 211/549/456 212/528/461 208/168/445
f 208/529/447 212/169/463 211/179/458 207/546/442
f 208/168/444 212/528/460 213/526/465 209/177/449
f 209/530/451 213/174/467 212/169/462 208/529/446
f 209/177/448 213/526/464 214/522/470 210/173/454
f 210/518/455 214/171/471 213/174/466 209/530/450
f 219/113/482 221/509/490 227/470/513 223/121/497
f 220/136/484 226/185/508 230/519/524 222/506/492
f 222/118/494 230/184/525 226/504/509 220/545/486
f 223/474/499 227/160/515 221/107/491 219/543/483
f 223/121/496 227/470/512 228/511/517 224/123/501
f 224/539/503 228/155/519 227/160/514 223/474/498
f 224/123/500 228/511/516 229/515/521 225/131/505
f 225/516/507 229/152/523 228/155/518 224/539/502
f 225/131/504 229/515/520 230/519/526 226/185/510
f 226/504/511 230/184/527 229/152/522 225/516/506
f 235/112/538 237/550/546 243/552/569 239/188/553
f 236/111/540 242/110/564 246/468/580 238/551/548
f 238/108/550 246/115/581 242/469/565 236/553/542
f 239/541/555 243/187/571 237/109/547 235/554/539
f 239/188/552 243/552/568 244/492/573 240/162/557
f 240/508/559 244/161/575 243/187/570 239/541/554
f 240/162/556 244/492/572 245/472/577 241/140/561
f 241/475/563 245/119/579 244/161/574 240/508/558
f 241/140/560 245/472/576 246/468/582 242/110/566
f 242/469/567 246/115/583 245/119/578 241/475/562
f 251/114/594 253/510/602 259/471/625 255/122/609
f 252/137/596 258/186/620 262/520/636 254/507/604
f 254/117/606 262/183/637 258/503/621 252/544/598
f 255/473/611 259/159/627 253/106/603 251/542/595
f 255/122/608 259/471/624 260/512/629 256/124/613
f 256/540/615 260/154/631 259/159/626 255/473/610
f 256/124/612 260/512/628 261/517/633 257/132/617
f 257/514/619 261/151/635 260/154/630 256/540/614
f 257/132/616 261/517/632 262/520/638 258/186/622
f 258/503/623 262/183/639 261/151/634 257/514/618
f 267/105/650 269/536/658 275/548/681 271/181/665
f 268/163/652 274/172/676 278/521/692 270/537/660
f 270/166/662 278/176/693 274/524/677 268/535/654
f 271/547/667 275/180/683 269/104/659 267/534/651
f 271/181/664 275/548/680 276/527/685 272/167/669
f 272/531/671 276/170/687 275/180/682 271/547/666
f 272/167/668 276/527/684 277/525/689 273/178/673
f 273/523/675 277/175/691 276/170/686 272/531/670
f 273/178/672 277/525/688 278/521/694 274/172/678
f 274/524/679 278/176/695 277/175/690 273/523/674
f 283/156/706 285/487/714 290/499/733 287/148/721
f 284/127/708 289/129/728 292/491/740 286/479/716
f 286/139/718 292/135/741 289/485/729 284/493/710
f 287/501/723 290/149/735 285/146/715 283/497/707
f 287/148/720 290/499/732 291/480/737 288/125/725
f 288/481/727 291/133/739 290/149/734 287/501/722
f 288/125/724 291/480/736 292/491/742 289/129/730
f 289/485/731 292/135/743 291/133/738 288/481/726
f 297/116/754 299/476/762 300/513/764 298/158/756
f 298/489/758 300/142/766 299/143/763 297/495/755
g bed1_Tkanina2
usemtl Tkanina2
f 341/224/768 352/253/793 407/252/896 401/217/871
f 341/353/769 374/383/836 352/263/794
f 342/218/772 401/217/872 407/252/898 353/269/173
f 343/614/774 351/350/172 405/344/892 402/616/876
f 344/613/777 402/616/878 405/344/894 349/347/171
f 345/55/780 400/610/867 415/607/205 403/44/883
f 346/94/785 371/93/832 422/569/209 426/242/212
f 346/56/784 403/44/882 371/210/831
f 347/243/169 416/302/206 404/236/887
f 347/249/169 417/255/207 416/230/206
f 348/227/170 418/254/208 420/244/936 404/211/886
f 348/227/170 419/279/931 418/254/208
f 349/246/171 352/263/792 374/383/835 350/370/786
f 349/246/171 397/33/857 344/34/779
f 349/347/171 405/344/893 407/252/897 352/253/795
f 350/370/791 398/32/861 397/33/856 349/246/171
f 350/608/788 406/601/203 415/47/205 400/51/866
f 350/608/787 408/612/204 406/601/203
f 351/350/172 353/269/173 407/252/895 405/344/891
f 353/189/173 389/100/197 383/71/842 342/69/771
f 354/81/796 356/599/174 368/600/180 366/84/819
f 354/81/797 365/82/816 364/598/179 356/599/174
f 354/581/798 406/601/203 408/612/204 365/609/817
f 355/83/800 396/95/202 394/596/200 357/597/175
f 355/326/803 408/392/204 392/234/852
f 356/599/174 364/598/179 412/606/914 368/600/180
f 357/597/175 364/598/179 365/82/815 355/83/801
f 357/597/175 394/596/200 412/606/918 364/598/179
f 358/87/806 367/85/824 369/584/181 360/585/176
f 359/89/809 361/587/177 372/572/182 370/92/827
f 360/585/176 362/586/178 363/88/811 358/87/805
f 360/585/176 369/584/181 413/603/923 362/586/178
f 361/587/177 424/582/949 372/572/182
f 362/586/178 413/603/921 361/587/177
f 363/88/812 362/586/178 361/587/177 359/89/808
f 363/53/813 415/47/205 367/215/825 358/63/807
f 365/446/818 408/392/204 355/326/804
f 366/84/820 368/600/180 369/584/181 367/85/823
f 366/268/822 406/601/203 354/581/799
f 367/215/826 415/47/205 406/601/203 366/268/821
f 368/574/180 412/286/916 413/635/922 369/615/181
f 370/92/830 372/572/182 422/569/209 371/93/834
f 370/261/829 415/607/205 363/611/814 359/588/810
f 371/210/833 403/44/885 415/607/205 370/261/828
f 373/74/183 378/102/187 395/101/201 391/78/846
f 373/74/183 382/73/191 380/190/189 378/102/187
f 374/50/841 408/392/204 350/443/790
f 375/75/184 390/91/198 388/193/196 379/191/188
f 375/77/184 410/70/904 384/221/192
f 376/590/185 381/594/190 414/604/926 393/595/199
f 377/589/186 386/593/194 414/604/929 381/594/190
f 378/102/187 380/190/189 381/594/190 376/590/185
f 379/191/188 377/589/186 381/594/190 380/190/189
f 379/191/188 388/193/196 386/593/194 377/589/186
f 380/190/189 382/73/191 375/75/184 379/191/188
f 382/64/191 411/67/909 410/70/905 375/77/184
f 383/71/843 389/100/197 390/91/198 384/72/192
f 383/264/845 401/580/875 342/576/773
f 384/72/192 390/91/198 375/75/184
f 384/221/192 410/70/908 401/580/874 383/264/844
f 385/592/193 387/198/195 351/208/172 343/591/775
f 385/26/193 402/17/880 414/76/928 386/48/194
f 386/593/194 388/193/196 387/198/195 385/592/193
f 387/198/195 389/100/197 353/189/173 351/208/172
f 388/193/196 390/91/198 389/100/197 387/198/195
f 391/78/847 395/101/201 396/95/202 392/80/850
f 391/194/849 409/54/903 373/62/183
f 392/80/851 396/95/202 355/83/802
f 392/234/853 408/392/204 409/54/902 391/194/848
f 393/595/199 395/101/201 378/102/187 376/590/185
f 393/212/199 414/76/930 412/286/917 394/232/200
f 394/596/200 396/95/202 395/101/201 393/595/199
f 397/79/855 414/76/927 402/17/879 344/18/778
f 398/284/858 412/286/913 414/76/925 397/79/854
f 399/38/865 400/387/870 430/43/215
f 399/634/863 413/635/920 412/286/915 398/284/859
f 400/387/868 399/38/864 398/32/860 350/370/789
f 401/580/873 410/70/906 374/65/839 341/573/770
f 402/17/877 385/26/193 343/19/776
f 403/421/884 432/220/961 428/222/214 345/397/781
f 404/236/890 416/302/206 421/315/943
f 404/272/888 420/290/937 417/255/207 347/249/169
f 404/211/889 421/247/940 419/279/932 348/227/170
f 409/54/899 408/392/204 374/50/837
f 409/54/901 411/46/912 382/49/191 373/62/183
f 410/70/907 411/66/911 374/65/840
f 411/45/910 409/54/900 374/50/838
f 416/302/206 425/379/211 435/436/976 421/315/942
f 417/255/207 427/267/213 423/229/210 416/230/206
f 418/254/208 429/280/950 433/251/965 420/244/938
f 419/235/933 431/231/955 429/579/951 418/560/208
f 419/279/935 435/256/980 431/298/959
f 420/290/939 433/281/966 427/267/213 417/255/207
f 421/247/941 435/256/975 419/279/934
f 422/225/209 424/239/945 425/228/211 423/219/210
f 423/229/210 425/226/211 416/230/206
f 423/566/210 427/262/213 426/242/212 422/569/209
f 424/582/944 422/569/209 372/572/182
f 424/259/946 435/248/978 425/245/211
f 426/242/212 432/241/960 403/90/881 346/94/783
f 427/262/213 433/251/967 426/242/212
f 428/222/214 430/43/215 400/387/869 345/397/782
f 428/222/214 432/220/963 429/192/954
f 429/192/952 431/42/956 430/43/215 428/222/214
f 430/43/215 434/40/970 413/36/919 399/38/862
f 431/42/958 434/40/972 430/43/215
f 432/241/964 426/242/212 433/251/969
f 433/251/968 429/280/953 432/241/962
f 434/250/974 424/260/948 361/238/177 413/233/924
f 434/237/971 431/298/957 435/256/977
f 435/329/979 424/260/947 434/250/973
g bed1_start
usemtl start
f 177/412/345 181/413/353 183/202/361 178/200/347
f 178/412/346 183/413/360 181/202/352 177/200/344
f 179/203/348 182/204/357 184/410/365 180/409/350
f 180/203/351 184/204/367 182/410/359 179/409/349
f 185/411/369 189/413/377 191/201/385 186/200/371
f 186/412/370 191/413/384 189/201/376 185/200/368
f 187/203/372 190/204/381 192/410/389 188/409/374
f 188/203/375 192/204/391 190/410/383 187/409/373
f 199/412/417 203/413/425 205/201/433 200/200/419
f 200/411/418 205/413/432 203/202/424 199/200/416
f 201/203/420 204/204/429 206/410/437 202/409/422
f 202/203/423 206/204/439 204/410/431 201/409/421
f 215/412/473 219/413/481 221/201/489 216/200/475
f 216/411/474 221/413/488 219/202/480 215/200/472
f 217/203/476 220/206/485 222/410/493 218/407/478
f 218/205/479 222/204/495 220/408/487 217/409/477
f 231/411/529 235/413/537 237/202/545 232/200/531
f 232/411/530 237/413/544 235/202/536 231/200/528
f 233/203/532 236/206/541 238/410/549 234/407/534
f 234/205/535 238/204/551 236/408/543 233/409/533
f 247/411/585 251/413/593 253/202/601 248/200/587
f 248/411/586 253/413/600 251/202/592 247/200/584
f 249/200/588 252/204/597 254/413/605 250/409/590
f 250/205/591 254/204/607 252/408/599 249/409/589
f 263/412/641 267/413/649 269/201/657 264/200/643
f 264/411/642 269/413/656 267/202/648 263/200/640
f 265/203/644 268/204/653 270/410/661 266/409/646
f 266/203/647 270/204/663 268/410/655 265/409/645
f 279/412/697 283/413/705 285/201/713 280/200/699
f 280/411/698 285/413/712 283/202/704 279/200/696
f 281/203/700 284/206/709 286/410/717 282/407/702
f 282/205/703 286/204/719 284/408/711 281/409/701
f 293/412/745 297/413/753 299/201/761 294/200/747
f 294/411/746 299/413/760 297/202/752 293/200/744
f 295/203/748 298/204/757 300/410/765 296/409/750
f 296/203/751 300/204/767 298/410/759 295/409/749
g bed1_tkanina
usemtl tkanina
f 301/213/129 304/629/132 303/628/131 302/214/130
f 301/99/129 313/96/141 304/621/132
f 302/214/130 317/209/145 313/207/141 301/213/129
f 303/628/131 317/209/145 302/214/130
f 304/621/132 313/96/141 325/627/153
f 304/629/132 325/633/153 321/632/149 303/628/131
f 305/29/133 316/35/144 320/37/148 306/30/134
f 306/30/134 307/385/135 308/391/136 305/29/133
f 306/30/134 320/37/148 324/567/152 307/385/135
f 307/385/135 324/567/152 328/570/156 308/391/136
f 308/447/136 328/570/156 316/35/144 305/31/133
f 309/58/137 310/59/138 319/41/147 315/39/143
f 310/59/138 331/195/159 323/568/151 319/41/147
f 310/59/138 335/97/163 331/195/159
f 310/59/138 337/68/165 335/97/163
f 310/59/138 339/61/167 337/68/165
f 311/577/139 312/578/140 327/571/155 323/568/151
f 311/577/139 329/602/157 330/605/158 312/578/140
f 311/577/139 331/195/159 333/223/161 329/602/157
f 312/575/140 340/52/168 309/57/137
f 313/207/141 317/209/145 318/199/146 314/196/142
f 314/196/142 318/199/146 339/61/167 340/60/168
f 314/86/142 326/622/154 325/627/153 313/96/141
f 315/39/143 319/41/147 320/37/148 316/35/144
f 315/39/143 327/571/155 312/575/140 309/57/137
f 316/35/144 328/570/156 327/571/155 315/39/143
f 317/209/145 332/240/160 318/199/146
f 318/199/146 334/216/162 336/98/164
f 319/41/147 323/568/151 324/567/152 320/37/148
f 321/632/149 317/209/145 303/628/131
f 321/632/149 325/633/153 326/631/154 322/630/150
f 322/630/150 326/631/154 330/605/158 329/602/157
f 322/630/150 332/240/160 317/209/145 321/632/149
f 323/568/151 327/571/155 328/570/156 324/567/152
f 323/568/151 331/195/159 311/577/139
f 326/622/154 314/86/142 330/583/158
f 329/602/157 333/223/161 332/240/160 322/630/150
f 331/195/159 335/97/163 333/223/161
f 332/240/160 334/216/162 318/199/146
f 333/223/161 334/216/162 332/240/160
f 333/223/161 338/197/166 334/216/162
f 334/216/162 338/197/166 336/98/164
f 335/97/163 338/197/166 333/223/161
f 336/98/164 338/197/166 337/68/165
f 336/98/164 339/61/167 318/199/146
f 337/68/165 338/197/166 335/97/163
f 337/68/165 339/61/167 336/98/164
f 340/52/168 312/575/140 330/583/158 314/86/142
f 340/60/168 339/61/167 310/59/138 309/58/137
