# Exported from Wings 3D 1.0.2
mtllib Bed2.mtl
o bed2
#395 vertices, 365 faces
v -7.35120821 1.95644351 19.05893709
v -7.44030399 1.95644351 19.27403331
v -7.65540021 1.95644351 19.36312909
v -7.87049644 1.95644351 19.27403331
v -7.95959221 1.95644351 19.05893709
v -7.87049644 1.95644351 18.84384086
v -7.65540021 1.95644351 18.75474509
v -7.44030399 1.95644351 18.84384086
v -7.35120821 -4.98701875 19.05893709
v -7.44030399 -4.98701875 19.27403331
v -7.65540021 -4.98701875 19.36312909
v -7.87049644 -4.98701875 19.27403331
v -7.95959221 -4.98701875 19.05893709
v -7.87049644 -4.98701875 18.84384086
v -7.65540021 -4.98701875 18.75474509
v -7.44030399 -4.98701875 18.84384086
v -7.15516673 -5.14215429 19.05893709
v -7.30168173 -5.14215429 19.41265557
v -7.65540021 -5.14215429 19.55917057
v -8.00911870 -5.14215429 19.41265557
v -8.15563369 -5.14215429 19.05893709
v -8.00911870 -5.14215429 18.70521860
v -7.65540021 -5.14215429 18.55870361
v -7.30168173 -5.14215429 18.70521860
v -7.15516673 -5.49459536 19.05893709
v -7.30168173 -5.49459536 19.41265557
v -7.65540021 -5.49459536 19.55917057
v -8.00911870 -5.49459536 19.41265557
v -8.15563369 -5.49459536 19.05893709
v -8.00911870 -5.49459536 18.70521860
v -7.65540021 -5.49459536 18.55870361
v -7.30168173 -5.49459536 18.70521860
v -7.35526013 -5.61549340 19.05893709
v -7.44316912 -5.61549340 19.27116818
v -7.65540021 -5.61549340 19.35907717
v -7.86763131 -5.61549340 19.27116818
v -7.95554030 -5.61549340 19.05893709
v -7.86763131 -5.61549340 18.84670599
v -7.65540021 -5.61549340 18.75879700
v -7.44316912 -5.61549340 18.84670599
v 10.25523522 1.95644351 19.05893709
v 10.16613945 1.95644351 19.27403331
v 9.95104322 1.95644351 19.36312909
v 9.73594699 1.95644351 19.27403331
v 9.64685122 1.95644351 19.05893709
v 9.73594699 1.95644351 18.84384086
v 9.95104322 1.95644351 18.75474509
v 10.16613945 1.95644351 18.84384086
v 10.25523522 -4.98701875 19.05893709
v 10.16613945 -4.98701875 19.27403331
v 9.95104322 -4.98701875 19.36312909
v 9.73594699 -4.98701875 19.27403331
v 9.64685122 -4.98701875 19.05893709
v 9.73594699 -4.98701875 18.84384086
v 9.95104322 -4.98701875 18.75474509
v 10.16613945 -4.98701875 18.84384086
v 10.45127670 -5.14215429 19.05893709
v 10.30476171 -5.14215429 19.41265557
v 9.95104322 -5.14215429 19.55917057
v 9.59732473 -5.14215429 19.41265557
v 9.45080974 -5.14215429 19.05893709
v 9.59732473 -5.14215429 18.70521860
v 9.95104322 -5.14215429 18.55870361
v 10.30476171 -5.14215429 18.70521860
v 10.45127670 -5.49459536 19.05893709
v 10.30476171 -5.49459536 19.41265557
v 9.95104322 -5.49459536 19.55917057
v 9.59732473 -5.49459536 19.41265557
v 9.45080974 -5.49459536 19.05893709
v 9.59732473 -5.49459536 18.70521860
v 9.95104322 -5.49459536 18.55870361
v 10.30476171 -5.49459536 18.70521860
v 10.25118331 -5.61549340 19.05893709
v 10.16327431 -5.61549340 19.27116818
v 9.95104322 -5.61549340 19.35907717
v 9.73881213 -5.61549340 19.27116818
v 9.65090313 -5.61549340 19.05893709
v 9.73881213 -5.61549340 18.84670599
v 9.95104322 -5.61549340 18.75879700
v 10.16327431 -5.61549340 18.84670599
v -9.87477587 1.21377518 16.66107316
v -10.30344653 1.73987168 16.69702721
v 3.59337707 2.79920654 17.55906106
v 3.59337707 2.11962670 17.55906106
v -7.74689584 2.11962670 -19.73792510
v -7.74689584 2.79920654 -19.73792510
v 0.48539541 2.85569259 -14.63718173
v 0.44723036 3.59744065 -14.53829190
v -7.61258082 2.11962670 16.83833216
v -9.05853644 2.11962670 0.65558106
v -7.61258082 2.79920654 16.83833216
v -8.58906079 1.93091062 16.73414017
v -8.72138103 2.59748037 16.73635020
v -9.01491831 2.79920654 -2.2597541e-2
v -9.06096043 2.78255060 1.33182853
v 4.56286018 2.79920654 0.53925004
v 4.47662624 2.79920654 1.89563642
v -8.44633427 2.79920654 -8.86299342
v -8.35909801 2.79920654 -10.21935062
v 4.81088553 2.79920654 -8.18612217
v 4.90683294 2.79920654 -9.54189100
v 4.85885924 2.73015922 -8.86400658
v -8.40271614 2.73015922 -9.54117202
v 4.51974321 2.73015922 1.21744323
v -9.03793937 2.72183125 0.65461550
v -8.82539030 2.95387253 -2.96939617
v -8.63586228 2.95387253 -5.91619479
v 4.76766203 2.95387253 -2.35466846
v 4.60608368 2.95387253 -5.29220366
v -8.15503062 2.95387253 -13.39220878
v -7.95096323 2.95387253 -16.56506694
v 3.68080506 2.85930721 -12.03695580
v -9.76456913 2.43777752 8.01690711
v -9.70328879 1.73639773 8.68965660
v -9.80876047 2.38310097 9.36640413
v 4.07326189 2.79920654 9.04884678
v 3.99674142 2.79920654 10.40585070
v -8.39997141 2.79015178 8.40844611
v -8.27356984 2.79160536 9.76171458
v -8.33677063 2.64608335 9.08508035
v 4.03500166 2.65441132 9.72734874
v -9.78666480 2.26564402 8.69165562
v -10.13855117 2.14714868 14.25348618
v -9.97365582 2.36155845 11.80994516
v 3.72783186 2.99207378 15.17465761
v 3.86228664 2.99207378 12.79025415
v -7.83291049 2.98954005 14.47945963
v -8.05324017 2.98700633 12.12058711
v -9.08384085 2.71888781 14.27970151
v -9.44630066 2.64742801 11.82305282
v -9.53003290 2.74556912 5.78854759
v -9.29549666 2.86049348 3.56018806
v 4.20771667 2.99207378 6.66444332
v 4.34217146 2.99207378 4.28003987
v -8.62030108 2.98048529 6.04957358
v -8.84063076 2.97795156 3.69070106
v 4.29913021 2.18074479 9.64942234
v 4.95224754 2.18947594 1.14159766
v 5.10385767 2.18074479 -8.60268200
v -8.40271614 2.11962670 -9.54117202
v -10.25966821 1.47682343 16.92019107
v 3.83329471 2.45941662 17.81604214
v -7.84718639 2.45941662 -20.15228978
v -0.17313307 3.18175940 -14.28210879
v -7.70884192 2.45941662 17.08234011
v -9.17571287 2.45941662 0.26310659
v -8.78276121 2.26419550 16.97739757
v -9.19942456 2.45108865 0.95250946
v -9.89383051 2.08708762 8.44455891
v -9.91658905 2.05974935 9.13145289
v -9.90520978 2.00102087 8.78800590
v 5.01019156 2.45981758 1.14166979
v 5.27390694 2.45545201 -8.94884141
v 4.42419423 2.41757805 9.80369445
v -8.52268130 2.42489296 -9.77199514
v 3.05293048 3.10738529 -13.27972010
v 0.24227011 3.02910773 -17.68989181
v 0.15977310 3.57297027 -18.05984946
v 4.05550990 3.65183397 -13.43661555
v -0.52544950 3.31464311 -17.98191353
v 3.38359777 3.45605701 -13.15970457
v 3.58994705 2.94862838 -12.98376519
v 3.31828763 3.03564357 -13.38076586
v 4.79132584 2.94862838 -11.43859565
v 3.80039120 3.07794583 -12.78649040
v -1.73456964 2.78085117 -18.85535056
v -8.9693216e-2 2.74355173 -18.39586922
v -1.87601036 2.13623943 -19.27315629
v 0.33995803 2.74522939 -19.20660775
v 4.72805420 2.12735283 -10.44312102
v 4.97889039 2.53123417 -12.86451774
v -1.69219196 2.50499411 -19.98509078
v -0.36638087 3.00106488 -19.09838700
v 5.13347981 2.45615398 -11.09651289
v 4.38217176 3.06602661 -12.73215784
v 7.83958626 2.22669826 19.29574215
v 8.82843426 2.22669826 19.29574215
v 7.83958626 2.22669826 -18.46078483
v 8.82843426 2.22669826 -18.46078483
v 7.83958626 2.22669826 17.76031005
v 7.83958626 2.22669826 -16.92535273
v 8.82843426 2.22669826 17.76031005
v 8.82843426 2.22669826 -16.92535273
v 5.98176423 2.22669826 19.29574215
v 6.97061223 2.22669826 19.29574215
v 5.98176423 2.22669826 -18.46078483
v 6.97061223 2.22669826 -18.46078483
v 5.98176423 2.22669826 17.76031005
v 5.98176423 2.22669826 -16.92535273
v 6.97061223 2.22669826 17.76031005
v 6.97061223 2.22669826 -16.92535273
v 5.98176423 2.02450405 9.08889435
v 5.98176423 1.85179649 0.41747866
v 5.98176423 2.02450405 -8.25393704
v 6.97061223 2.02450405 9.08889435
v 6.97061223 1.85179649 0.41747866
v 6.97061223 2.02450405 -8.25393704
v 4.16616542 2.22669826 19.29574215
v 5.15501342 2.22669826 19.29574215
v 4.16616542 2.22669826 -18.46078483
v 5.15501342 2.22669826 -18.46078483
v 4.16616542 2.22669826 17.76031005
v 4.16616542 2.22669826 -16.92535273
v 5.15501342 2.22669826 17.76031005
v 5.15501342 2.22669826 -16.92535273
v 4.16616542 1.98659263 10.82317749
v 4.16616542 1.88970790 3.88604494
v 4.16616542 1.88970790 -3.05108762
v 4.16616542 1.98659263 -9.98822018
v 5.15501342 1.98659263 10.82317749
v 5.15501342 1.88970790 3.88604494
v 5.15501342 1.88970790 -3.05108762
v 5.15501342 1.98659263 -9.98822018
v 2.30834339 2.22669826 19.29574215
v 3.29719139 2.22669826 19.29574215
v 2.30834339 2.22669826 -18.46078483
v 3.29719139 2.22669826 -18.46078483
v 2.30834339 2.22669826 17.76031005
v 2.30834339 2.22669826 -16.92535273
v 3.29719139 2.22669826 17.76031005
v 3.29719139 2.22669826 -16.92535273
v 2.30834339 1.85600887 10.82317749
v 2.30834339 1.64960227 3.88604494
v 2.30834339 1.64960227 -3.05108762
v 2.30834339 1.85600887 -9.98822018
v 3.29719139 1.85600887 10.82317749
v 3.29719139 1.64960227 3.88604494
v 3.29719139 1.64960227 -3.05108762
v 3.29719139 1.85600887 -9.98822018
v 0.43644694 2.22669826 19.29574215
v 1.42529494 2.22669826 19.29574215
v 0.43644694 2.22669826 -18.46078483
v 1.42529494 2.22669826 -18.46078483
v 0.43644694 2.22669826 17.76031005
v 0.43644694 2.22669826 -16.92535273
v 1.42529494 2.22669826 17.76031005
v 1.42529494 2.22669826 -16.92535273
v 0.43644694 1.81388507 10.82317749
v 0.43644694 1.46846995 3.88604494
v 0.43644694 1.46846995 -3.05108762
v 0.43644694 1.81388507 -9.98822018
v 1.42529494 1.81388507 10.82317749
v 1.42529494 1.46846995 3.88604494
v 1.42529494 1.46846995 -3.05108762
v 1.42529494 1.81388507 -9.98822018
v -1.42137509 2.22669826 19.29574215
v -0.43252709 2.22669826 19.29574215
v -1.42137509 2.22669826 -18.46078483
v -0.43252709 2.22669826 -18.46078483
v -1.42137509 2.22669826 17.76031005
v -1.42137509 2.22669826 -16.92535273
v -0.43252709 2.22669826 17.76031005
v -0.43252709 2.22669826 -16.92535273
v -1.42137509 1.85600887 10.82317749
v -1.42137509 1.64960227 3.88604494
v -1.42137509 1.64960227 -3.05108762
v -1.42137509 1.85600887 -9.98822018
v -0.43252709 1.85600887 10.82317749
v -0.43252709 1.64960227 3.88604494
v -0.43252709 1.64960227 -3.05108762
v -0.43252709 1.85600887 -9.98822018
v -3.23697389 2.22669826 19.29574215
v -2.24812589 2.22669826 19.29574215
v -3.23697389 2.22669826 -18.46078483
v -2.24812589 2.22669826 -18.46078483
v -3.23697389 2.22669826 17.76031005
v -3.23697389 2.22669826 -16.92535273
v -2.24812589 2.22669826 17.76031005
v -2.24812589 2.22669826 -16.92535273
v -3.23697389 1.98659263 10.82317749
v -3.23697389 1.88970790 3.88604494
v -3.23697389 1.88970790 -3.05108762
v -3.23697389 1.98659263 -9.98822018
v -2.24812589 1.98659263 10.82317749
v -2.24812589 1.88970790 3.88604494
v -2.24812589 1.88970790 -3.05108762
v -2.24812589 1.98659263 -9.98822018
v -5.09479593 2.22669826 19.29574215
v -4.10594793 2.22669826 19.29574215
v -5.09479593 2.22669826 -18.46078483
v -4.10594793 2.22669826 -18.46078483
v -5.09479593 2.22669826 17.76031005
v -5.09479593 2.22669826 -16.92535273
v -4.10594793 2.22669826 17.76031005
v -4.10594793 2.22669826 -16.92535273
v -5.09479593 2.02450405 9.08889435
v -5.09479593 1.85179649 0.41747866
v -5.09479593 2.02450405 -8.25393704
v -4.10594793 2.02450405 9.08889435
v -4.10594793 1.85179649 0.41747866
v -4.10594793 2.02450405 -8.25393704
v -6.84002269 2.22669826 19.29574215
v -5.85117469 2.22669826 19.29574215
v -6.84002269 2.22669826 -18.46078483
v -5.85117469 2.22669826 -18.46078483
v -6.84002269 2.22669826 17.76031005
v -6.84002269 2.22669826 -16.92535273
v -5.85117469 2.22669826 17.76031005
v -5.85117469 2.22669826 -16.92535273
v -8.21374494 1.56554669 19.66476473
v -8.21374494 2.22242669 19.66476473
v 10.37638612 2.22242669 19.66476473
v 10.37638612 1.56554669 19.66476473
v -8.21374494 1.56554669 -18.87224757
v -8.21374494 2.22242669 -18.87224757
v 10.37638612 2.22242669 -18.87224757
v 10.37638612 1.56554669 -18.87224757
v 9.61435523 1.56554669 18.90273384
v -7.45171406 1.56554669 18.90273384
v -7.45171406 1.56554669 -18.11021668
v 9.61435523 1.56554669 -18.11021668
v -7.45171406 2.22242669 18.90273384
v 9.61435523 2.22242669 18.90273384
v 9.61435523 2.22242669 -18.11021668
v -7.45171406 2.22242669 -18.11021668
v -7.37367708 1.95644351 -18.29974301
v -7.46277285 1.95644351 -18.08464678
v -7.67786908 1.95644351 -17.99555101
v -7.89296530 1.95644351 -18.08464678
v -7.98206108 1.95644351 -18.29974301
v -7.89296530 1.95644351 -18.51483923
v -7.67786908 1.95644351 -18.60393501
v -7.46277285 1.95644351 -18.51483923
v -7.37367708 -4.98701875 -18.29974301
v -7.46277285 -4.98701875 -18.08464678
v -7.67786908 -4.98701875 -17.99555101
v -7.89296530 -4.98701875 -18.08464678
v -7.98206108 -4.98701875 -18.29974301
v -7.89296530 -4.98701875 -18.51483923
v -7.67786908 -4.98701875 -18.60393501
v -7.46277285 -4.98701875 -18.51483923
v -7.17763560 -5.14215429 -18.29974301
v -7.32415059 -5.14215429 -17.94602452
v -7.67786908 -5.14215429 -17.79950953
v -8.03158756 -5.14215429 -17.94602452
v -8.17810256 -5.14215429 -18.29974301
v -8.03158756 -5.14215429 -18.65346149
v -7.67786908 -5.14215429 -18.79997649
v -7.32415059 -5.14215429 -18.65346149
v -7.17763560 -5.49459536 -18.29974301
v -7.32415059 -5.49459536 -17.94602452
v -7.67786908 -5.49459536 -17.79950953
v -8.03158756 -5.49459536 -17.94602452
v -8.17810256 -5.49459536 -18.29974301
v -8.03158756 -5.49459536 -18.65346149
v -7.67786908 -5.49459536 -18.79997649
v -7.32415059 -5.49459536 -18.65346149
v -7.37772899 -5.61549340 -18.29974301
v -7.46563798 -5.61549340 -18.08751192
v -7.67786908 -5.61549340 -17.99960292
v -7.89010017 -5.61549340 -18.08751192
v -7.97800916 -5.61549340 -18.29974301
v -7.89010017 -5.61549340 -18.51197410
v -7.67786908 -5.61549340 -18.59988310
v -7.46563798 -5.61549340 -18.51197410
v 10.17303207 1.95644351 -18.27234196
v 10.08393629 1.95644351 -18.05724573
v 9.86884007 1.95644351 -17.96814996
v 9.65374384 1.95644351 -18.05724573
v 9.56464807 1.95644351 -18.27234196
v 9.65374384 1.95644351 -18.48743818
v 9.86884007 1.95644351 -18.57653396
v 10.08393629 1.95644351 -18.48743818
v 10.17303207 -4.98701875 -18.27234196
v 10.08393629 -4.98701875 -18.05724573
v 9.86884007 -4.98701875 -17.96814996
v 9.65374384 -4.98701875 -18.05724573
v 9.56464807 -4.98701875 -18.27234196
v 9.65374384 -4.98701875 -18.48743818
v 9.86884007 -4.98701875 -18.57653396
v 10.08393629 -4.98701875 -18.48743818
v 10.36907355 -5.14215429 -18.27234196
v 10.22255855 -5.14215429 -17.91862347
v 9.86884007 -5.14215429 -17.77210848
v 9.51512158 -5.14215429 -17.91862347
v 9.36860659 -5.14215429 -18.27234196
v 9.51512158 -5.14215429 -18.62606044
v 9.86884007 -5.14215429 -18.77257544
v 10.22255855 -5.14215429 -18.62606044
v 10.36907355 -5.49459536 -18.27234196
v 10.22255855 -5.49459536 -17.91862347
v 9.86884007 -5.49459536 -17.77210848
v 9.51512158 -5.49459536 -17.91862347
v 9.36860659 -5.49459536 -18.27234196
v 9.51512158 -5.49459536 -18.62606044
v 9.86884007 -5.49459536 -18.77257544
v 10.22255855 -5.49459536 -18.62606044
v 10.16898015 -5.61549340 -18.27234196
v 10.08107116 -5.61549340 -18.06011087
v 9.86884007 -5.61549340 -17.97220187
v 9.65660897 -5.61549340 -18.06011087
v 9.56869998 -5.61549340 -18.27234196
v 9.65660897 -5.61549340 -18.48457305
v 9.86884007 -5.61549340 -18.57248204
v 10.08107116 -5.61549340 -18.48457305
vt -2.40550908 -4.1002940e-2
vt -2.40550908 -2.7150595e-2
vt -2.40550908 5.4855285e-2
vt -2.40550908 6.8707629e-2
vt -2.31037601 0.79937374
vt -2.31037601 0.89523196
vt -2.31037601 0.90908431
vt -2.31037601 0.81322608
vt -1.16040986 0.82707843
vt -1.16040986 0.92293665
vt -1.16040986 3.24588576
vt -1.16040986 -2.37780439
vt -1.06527679 0.93678900
vt -1.06527679 0.84093077
vt -1.04920701 3.13468291
vt -1.04920701 -2.26660154
vt -0.96454983 0.84100046
vt -0.94054993 0.79611287
vt -0.93905740 0.88505496
vt -0.76837950 0.82707843
vt -0.76837950 0.92293665
vt -0.76837950 3.24588576
vt -0.76837950 -2.37780439
vt -0.70538598 0.84093077
vt -0.70538598 0.93678900
vt -0.68998231 0.89961910
vt -0.65717665 -2.26660154
vt -0.65717665 3.13468291
vt -0.56921246 1.2740593e-2
vt -0.56759550 -0.86146322
vt -0.55601071 -1.67497941
vt -0.53842510 1.04923819
vt -0.51011151 1.00941808
vt -0.50180700 1.26777543
vt -0.46842121 1.44705610
vt -0.45738610 1.19453960
vt -0.45681238 0.10277435
vt -0.45137788 0.62073095
vt -0.45086998 0.61883543
vt -0.44841019 2.1650849e-2
vt -0.44135136 0.89705481
vt -0.43226079 0.57143911
vt -0.43163198 0.67729895
vt -0.41091369 -3.4962256e-2
vt -0.41067483 7.8103740e-2
vt -0.39240534 0.60840677
vt -0.38768967 4.2078432e-2
vt -0.38750692 0.16457371
vt -0.31722839 0.54864627
vt -0.29550804 8.8650776e-2
vt -0.24114303 0.28186350
vt -0.24011769 0.18063817
vt -0.22306217 0.23652070
vt -0.22261636 0.23388076
vt -0.16954893 -1.40980975
vt -0.16498883 0.24497017
vt -0.15621616 -1.16220106
vt -0.14605611 -0.91656400
vt -0.14149934 -0.60676624
vt -0.13965020 -0.53917461
vt -0.13787022 -0.67362704
vt -0.12830418 0.82165464
vt -0.12793279 0.30399034
vt -0.12596149 -0.31619052
vt -0.11382395 0.79326494
vt -0.11285767 -9.3257580e-2
vt -0.10243275 0.26383070
vt -0.10119387 0.19625490
vt -9.9968894e-2 0.12888485
vt -9.9093387e-2 0.55711130
vt -9.5593622e-2 0.85015401
vt -9.1965437e-2 1.14372145
vt -9.1129459e-2 1.21161774
vt -9.0286786e-2 1.27955292
vt -8.9655915e-2 2.28355293
vt -8.6510752e-2 -0.91516002
vt -8.6243142e-2 1.59620157
vt -8.1787736e-2 1.91267516
vt -7.8595694e-2 2.23011340
vt -6.5768756e-2 -0.10404664
vt -3.7126513e-2 -1.15622902
vt -3.1768934e-2 -0.33592166
vt 1.5898866e-3 -0.56855008
vt 8.7775395e-3 -7.04636039
vt 8.7775395e-3 -7.04636039
vt 8.7775395e-3 -7.04636039
vt 8.7775395e-3 -7.04989981
vt 8.7775395e-3 -7.04989981
vt 8.7775395e-3 8.05333600
vt 8.7775395e-3 -7.05333600
vt 8.7775395e-3 5.03029398
vt 8.7775395e-3 8.05333600
vt 8.7775395e-3 -7.05333600
vt 8.7775395e-3 -7.04989981
vt 8.7775395e-3 -7.04989981
vt 8.7775395e-3 5.03029398
vt 8.7775395e-3 -7.04425909
vt 8.7775395e-3 8.04989981
vt 8.7775395e-3 8.04989981
vt 8.7775395e-3 2.00885182
vt 8.7775395e-3 -7.04425909
vt 8.7775395e-3 -4.02789094
vt 8.7775395e-3 -4.02789094
vt 8.7775395e-3 -1.00885182
vt 8.7775395e-3 -1.00885182
vt 8.7775395e-3 0.50000000
vt 8.7775395e-3 0.50000000
vt 8.7775395e-3 8.04603249
vt 8.7775395e-3 8.04603249
vt 8.7775395e-3 4.27287764
vt 8.7775395e-3 4.27287764
vt 8.7775395e-3 2.00885182
vt 8.7775395e-3 2.00885182
vt 8.7775395e-3 0.50000000
vt 8.7775395e-3 0.50000000
vt 8.7775395e-3 4.27287764
vt 8.7775395e-3 8.04989981
vt 8.7775395e-3 8.04989981
vt 8.7775395e-3 8.04603249
vt 8.7775395e-3 8.04603249
vt 8.7775395e-3 2.00885182
vt 8.7775395e-3 8.04425909
vt 8.7775395e-3 8.04425909
vt 8.7775395e-3 -7.04425909
vt 8.7775395e-3 -7.04425909
vt 8.7775395e-3 -3.27287764
vt 8.7775395e-3 -7.04603249
vt 8.7775395e-3 -7.04603249
vt 8.7775395e-3 -3.27287764
vt 8.7775395e-3 -3.27287764
vt 8.7775395e-3 -3.27287764
vt 8.7775395e-3 2.00885182
vt 8.7775395e-3 2.00885182
vt 8.7775395e-3 8.04425909
vt 8.7775395e-3 -1.00885182
vt 8.7775395e-3 -1.00885182
vt 8.7775395e-3 -7.04603249
vt 8.7775395e-3 -7.04603249
vt 8.7775395e-3 8.04425909
vt 8.7775395e-3 -4.02789094
vt 8.7775395e-3 -4.02789094
vt 8.7775395e-3 -1.00885182
vt 8.7775395e-3 -1.00885182
vt 8.7775395e-3 8.04636039
vt 8.7775395e-3 8.04636039
vt 8.7775395e-3 8.04636039
vt 8.7775395e-3 8.04636039
vt 8.7775395e-3 -1.00885182
vt 8.7775395e-3 -1.00885182
vt 8.7775395e-3 -1.00885182
vt 8.7775395e-3 -1.00885182
vt 8.7775395e-3 5.02684974
vt 8.7775395e-3 5.02684974
vt 8.7775395e-3 5.02684974
vt 8.7775395e-3 2.00885182
vt 8.7775395e-3 2.00885182
vt 8.7775395e-3 5.02684974
vt 8.7775395e-3 2.00885182
vt 8.7775395e-3 2.00885182
vt 8.7775395e-3 -4.02684974
vt 8.7775395e-3 -4.02684974
vt 8.7775395e-3 -4.02684974
vt 8.7775395e-3 -4.02684974
vt 8.7775395e-3 5.02789094
vt 8.7775395e-3 5.02789094
vt 8.7775395e-3 5.02789094
vt 8.7775395e-3 5.02789094
vt 8.7775395e-3 -4.03029398
vt 8.7775395e-3 -4.03029398
vt 1.0003051e-2 -1.39876646
vt 1.0902490e-2 -0.63687618
vt 2.1178963e-2 -0.70510071
vt 4.9883949e-2 2.06360202
vt 5.5946358e-2 -0.93757979
vt 6.2703332e-2 0.50454370
vt 8.9882649e-2 -1.16901584
vt 0.10539646 0.0000000e+0
vt 0.10539646 1.00000000
vt 0.10539646 1.00000000
vt 0.10539646 0.0000000e+0
vt 0.10539646 1.00000000
vt 0.10539646 0.0000000e+0
vt 0.10539646 1.00000000
vt 0.12327017 -1.40183386
vt 0.15157111 0.19166942
vt 0.18955080 1.45925500
vt 0.19120711 0.88991287
vt 0.20457282 0.11197328
vt 0.23855582 3.6852860e-2
vt 0.25848311 0.12108601
vt 0.26082188 0.80099275
vt 0.26904834 2.12801335
vt 0.28432436 0.30891635
vt 0.28454552 2.04527965
vt 0.29997178 -8.4645771e-2
vt 0.31666544 0.78815391
vt 0.31845611 0.62335431
vt 0.33420406 1.43266740
vt 0.34199824 0.80826808
vt 0.36426284 0.68821530
vt 0.38995066 0.67690903
vt 0.40433997 -0.12257756
vt 0.43512878 0.88796082
vt 0.43572853 0.78784454
vt 0.44189163 0.49258378
vt 0.45228296 2.7510878e-2
vt 0.47125519 0.10341853
vt 0.49354872 0.36363957
vt 0.49625482 0.83948561
vt 0.51198624 0.83245383
vt 0.52549860 2.29194723
vt 0.52594044 2.17201676
vt 0.53213219 5.4945685e-2
vt 0.55858580 2.06214132
vt 0.58810283 0.92131730
vt 0.59436606 -1.68708531
vt 0.60898469 0.88867723
vt 0.64771157 0.91566608
vt 0.65103268 0.80442346
vt 0.65568048 0.79877513
vt 0.66152796 2.19834090
vt 0.66184797 4.6458168e-2
vt 0.67430155 -4.9420709e-2
vt 0.67635394 2.00064472
vt 0.68243154 1.10861239
vt 0.68318278 0.68025125
vt 0.68796696 1.10281145
vt 0.68796696 0.93120625
vt 0.68963315 0.78259521
vt 0.69016151 0.86042888
vt 0.69117564 0.19388361
vt 0.69145313 2.13665651
vt 0.69677814 -1.68427916
vt 0.69734127 0.28270943
vt 0.69774813 -0.15619380
vt 0.69774813 1.5411399e-2
vt 0.70180756 1.18913891
vt 0.70450960 0.11038764
vt 0.70645652 0.12344355
vt 0.71474616 -0.21729162
vt 0.71474616 -4.5686416e-2
vt 0.72393290 0.76841803
vt 0.72442813 1.10313942
vt 0.72442813 0.93153422
vt 0.73379479 -0.15393474
vt 0.73379479 1.7670465e-2
vt 0.74207720 0.92578508
vt 0.74545552 -0.63784054
vt 0.74821364 0.85676040
vt 0.74953571 2.21300911
vt 0.75012566 1.25115001
vt 0.75508064 -0.18445349
vt 0.75508064 -1.2848291e-2
vt 0.75775776 0.78361747
vt 0.75794607 0.44953176
vt 0.75840794 0.81146084
vt 0.75901762 -0.16152701
vt 0.76086116 1.10346406
vt 0.76086116 0.93185885
vt 0.76445309 1.13669636
vt 0.76810380 -0.15148381
vt 0.76810380 2.0121387e-2
vt 0.77509629 0.51058704
vt 0.77641756 -0.22251158
vt 0.77800608 -0.25502261
vt 0.77800608 -8.3417407e-2
vt 0.77853543 0.92635310
vt 0.78000447 0.55588466
vt 0.78191577 -0.63825936
vt 0.78253397 -0.17079784
vt 0.78253397 8.0736352e-4
vt 0.78761102 0.16446748
vt 0.78863644 -0.20887860
vt 0.78863644 -3.7273398e-2
vt 0.79398700 0.44718289
vt 0.79504864 -0.15903066
vt 0.79729942 1.10378128
vt 0.79729942 0.93217608
vt 0.80081102 -0.18916039
vt 0.80081102 -1.7555188e-2
vt 0.80120049 -0.14980106
vt 0.80120049 2.1804146e-2
vt 0.80808525 -0.16486681
vt 0.80808525 6.7383914e-3
vt 0.81333799 0.20407157
vt 0.81350598 -0.19928935
vt 0.81350598 -2.7684148e-2
vt 0.81424507 -0.21638716
vt 0.81424507 -4.4781953e-2
vt 0.81496553 0.92691760
vt 0.81534882 0.47764851
vt 0.81632316 -0.18029976
vt 0.81632316 -8.6945618e-3
vt 0.81653496 -0.18940861
vt 0.81834788 -0.63867477
vt 0.82050200 0.51072816
vt 0.82194014 -0.18951064
vt 0.82194014 -1.7905435e-2
vt 0.82553284 0.89345562
vt 0.82828979 0.44464649
vt 0.82934076 -0.15635390
vt 0.83373703 -0.23898793
vt 0.83373703 -0.18645140
vt 0.83373703 -0.17798399
vt 0.83373703 -0.16323615
vt 0.83373703 -0.14919504
vt 0.83373703 -6.7382731e-2
vt 0.83373703 -1.4846200e-2
vt 0.83373703 -6.3787912e-3
vt 0.83373703 2.2410161e-2
vt 0.83373703 8.3690526e-3
vt 0.83373703 1.10409059
vt 0.83373703 0.93248539
vt 0.83674604 1.8514113e-2
vt 0.83845003 0.54816029
vt 0.83992453 -0.25982525
vt 0.84038308 -6.9798781e-3
vt 0.84276804 0.46392450
vt 0.84389778 -0.17557249
vt 0.84427150 4.2166688e-2
vt 0.84553391 -0.18951064
vt 0.84553391 -1.7905435e-2
vt 0.84769782 -1.68960649
vt 0.84896538 0.50198994
vt 0.85025085 -0.21361225
vt 0.85115090 -0.18029976
vt 0.85115090 -8.6945618e-3
vt 0.85140091 0.92747473
vt 0.85322898 -0.21638716
vt 0.85322898 -4.4781953e-2
vt 0.85396808 -0.19928935
vt 0.85396808 -2.7684148e-2
vt 0.85478523 -0.63908279
vt 0.85938881 -0.16486681
vt 0.85938881 6.7383914e-3
vt 0.86109079 0.48224145
vt 0.86138219 0.44288127
vt 0.86229534 -0.19381431
vt 0.86242566 -0.15445327
vt 0.86592634 -4.4832053e-2
vt 0.86627356 -0.14980106
vt 0.86627356 2.1804146e-2
vt 0.86666303 -0.18916039
vt 0.86666303 -1.7555188e-2
vt 0.86830446 0.45792982
vt 0.86940946 -0.16947337
vt 0.87017463 1.10378128
vt 0.87017463 0.93217608
vt 0.87304354 0.16374950
vt 0.87381095 0.49233875
vt 0.87459264 0.50943466
vt 0.87505671 -0.20385947
vt 0.87568550 -0.87146045
vt 0.87590836 -0.22095204
vt 0.87658080 0.47334220
vt 0.87693496 1.00192498
vt 0.87774880 -0.18485175
vt 0.87883762 -0.20887860
vt 0.87883762 -3.7273398e-2
vt 0.88095541 0.57514623
vt 0.88222072 0.48253905
vt 0.88342631 -0.19402544
vt 0.88494009 -0.17079784
vt 0.88494009 8.0736352e-4
vt 0.88750878 2.04884728
vt 0.88783569 0.92802394
vt 0.88946797 -0.25502261
vt 0.88946797 -8.3417407e-2
vt 0.89122196 -0.63948289
vt 0.89391712 0.44219419
vt 0.89395210 0.45623525
vt 0.89398885 0.47098305
vt 0.89400995 0.47945043
vt 0.89414085 0.53198680
vt 0.89460354 0.0000000e+0
vt 0.89460354 1.00000000
vt 0.89460354 0.0000000e+0
vt 0.89460354 1.00000000
vt 0.89460354 0.0000000e+0
vt 0.89460354 1.7763568e-15
vt 0.89460354 1.00000000
vt 0.89495750 -0.15363304
vt 0.89504995 -0.16767385
vt 0.89514705 -0.18242137
vt 0.89520280 -0.19088860
vt 0.89554870 -0.24342399
vt 0.89937026 -0.15148381
vt 0.89937026 2.0121387e-2
vt 0.90065407 2.10324334
vt 0.90581442 0.48248027
vt 0.90661289 1.10346406
vt 0.90661289 0.93185885
vt 0.90701957 -0.19387009
vt 0.91140843 0.47325542
vt 0.91239342 -0.18445349
vt 0.91239342 -1.2848291e-2
vt 0.91257579 -0.18462244
vt 0.91357643 0.50933753
vt 0.91427292 0.49223793
vt 0.91489143 -0.22069537
vt 0.91551793 -0.20359306
vt 0.91960786 0.45780199
vt 0.92071191 -0.16913558
vt 0.92242757 0.18956862
vt 0.92427454 0.92795454
vt 0.92645506 0.44271913
vt 0.92694260 0.48207737
vt 0.92749732 -0.15402482
vt 0.92766022 -0.63926436
vt 0.92814592 -0.19338074
vt 0.93212107 0.63537956
vt 0.93367926 -0.15393474
vt 0.93367926 1.7670465e-2
vt 0.93470721 0.52301730
vt 0.93916627 0.50176519
vt 0.94045007 -0.21301837
vt 0.94304592 1.10313942
vt 0.94304592 0.93153422
vt 0.94517384 0.46366934
vt 0.94630168 -0.17489825
vt 0.94991157 0.54788257
vt 0.95138401 -0.25909138
vt 0.95272789 -0.21729162
vt 0.95272789 -4.5686416e-2
vt 0.95955585 0.44431942
vt 0.96060438 -0.15548964
vt 0.96071410 0.92787724
vt 0.96409916 -0.63903793
vt 0.96972593 -0.15619380
vt 0.96972593 1.5411399e-2
vt 0.97266111 0.47725655
vt 0.97384433 -0.18837286
vt 0.97950710 1.10281145
vt 0.97950710 0.93120625
vt 0.99122246 5.03029398
vt 0.99122246 5.03029398
vt 0.99122246 -4.02789094
vt 0.99122246 -4.02789094
vt 0.99122246 2.00885182
vt 0.99122246 -4.02789094
vt 0.99122246 -4.02789094
vt 0.99122246 2.00885182
vt 0.99122246 -7.04425909
vt 0.99122246 -7.04425909
vt 0.99122246 8.04603249
vt 0.99122246 8.04603249
vt 0.99122246 0.50000000
vt 0.99122246 0.50000000
vt 0.99122246 0.50000000
vt 0.99122246 0.50000000
vt 0.99122246 -7.04603249
vt 0.99122246 4.27287764
vt 0.99122246 4.27287764
vt 0.99122246 -7.04603249
vt 0.99122246 8.04425909
vt 0.99122246 8.04425909
vt 0.99122246 4.27287764
vt 0.99122246 4.27287764
vt 0.99122246 -1.00885182
vt 0.99122246 8.04603249
vt 0.99122246 8.04603249
vt 0.99122246 -7.04425909
vt 0.99122246 -7.04425909
vt 0.99122246 -7.04603249
vt 0.99122246 -7.04603249
vt 0.99122246 -3.27287764
vt 0.99122246 -3.27287764
vt 0.99122246 -3.27287764
vt 0.99122246 -3.27287764
vt 0.99122246 5.02789094
vt 0.99122246 5.02789094
vt 0.99122246 8.04425909
vt 0.99122246 8.04989981
vt 0.99122246 8.04989981
vt 0.99122246 -1.00885182
vt 0.99122246 -7.04989981
vt 0.99122246 -7.04989981
vt 0.99122246 -1.00885182
vt 0.99122246 -1.00885182
vt 0.99122246 8.04425909
vt 0.99122246 2.00885182
vt 0.99122246 2.00885182
vt 0.99122246 2.00885182
vt 0.99122246 2.00885182
vt 0.99122246 5.02684974
vt 0.99122246 5.02789094
vt 0.99122246 5.02789094
vt 0.99122246 5.02684974
vt 0.99122246 5.02684974
vt 0.99122246 2.00885182
vt 0.99122246 5.02684974
vt 0.99122246 2.00885182
vt 0.99122246 2.00885182
vt 0.99122246 -1.00885182
vt 0.99122246 -1.00885182
vt 0.99122246 -1.00885182
vt 0.99122246 2.00885182
vt 0.99122246 -1.00885182
vt 0.99122246 -7.04636039
vt 0.99122246 8.04636039
vt 0.99122246 -7.04636039
vt 0.99122246 8.04636039
vt 0.99122246 -7.04636039
vt 0.99122246 8.04636039
vt 0.99122246 8.04636039
vt 0.99122246 -1.00885182
vt 0.99122246 -1.00885182
vt 0.99122246 -4.03029398
vt 0.99122246 -7.04989981
vt 0.99122246 -7.04989981
vt 0.99122246 8.04989981
vt 0.99122246 8.04989981
vt 0.99122246 -4.02684974
vt 0.99122246 -4.02684974
vt 0.99122246 -4.02684974
vt 0.99122246 -4.02684974
vt 0.99122246 -7.05333600
vt 0.99122246 8.05333600
vt 0.99122246 -4.03029398
vt 0.99122246 8.05333600
vt 0.99122246 -7.05333600
vt 0.99387085 0.44668485
vt 0.99492877 -0.15771462
vt 0.99714848 0.92779248
vt 1.00053288 -0.63880407
vt 1.01307729 0.50999407
vt 1.01421624 0.26590837
vt 1.01439414 -0.22094471
vt 1.02992303 0.44885409
vt 1.03098953 -0.15973630
vt 1.03361103 0.92770458
vt 1.03699476 -0.63856696
vt 1.06507120 1.66654859
vt 1.08128363 1.61338716
vt 1.09476013 1.51957458
vt 1.10283130 0.10523039
vt 1.10558612 0.87060239
vt 1.11145393 0.22633431
vt 1.13486336 0.18741062
vt 1.14955613 0.18189871
vt 1.20450748 8.4158531e-2
vt 1.20835950 1.46644059
vt 1.21925262 0.85501323
vt 1.22546455 1.14278135
vt 1.22717820 1.21067287
vt 1.22845800 1.27845182
vt 1.23131301 0.17125885
vt 1.23378527 -0.70536161
vt 1.23445253 -0.56866112
vt 1.23481722 -1.41527399
vt 1.23580958 -1.17808550
vt 1.23676397 -0.94163367
vt 1.23876198 -0.63707109
vt 1.23967437 -0.33217225
vt 1.24091963 -9.5398579e-2
vt 1.24250788 0.14190739
vt 1.24335884 0.20996338
vt 1.24388521 0.27795067
vt 1.24966547 0.56520472
vt 1.25418612 2.1530495e-2
vt 1.27701825 1.22163699
vt 1.28393024 -0.64270461
vt 1.29917487 0.22001194
vt 1.30882742 0.10381076
vt 1.31902363 -4.1034876e-2
vt 1.31995434 7.2377940e-2
vt 1.34683224 4.7859136e-2
vt 1.34683224 0.15851294
vt 1.37095296 1.9049473e-2
vt 1.39384466 -1.1216748e-2
vt 1.39448234 2.9741462e-2
vt 1.39820427 0.87878792
vt 1.40660662 9.1219461e-3
vt 1.42516759 0.84093077
vt 1.42516759 0.93678900
vt 1.44123737 3.13468291
vt 1.44123737 -2.26660154
vt 1.55244022 3.24588576
vt 1.55244022 0.82707843
vt 1.55244022 0.92293665
vt 1.55244022 -2.37780439
vt 1.72743887 0.76754484
vt 1.76269837 0.79879487
vt 1.78505840 0.84093077
vt 1.78505840 0.93678900
vt 1.83326773 -2.26660154
vt 1.83326773 3.13468291
vt 1.94447058 -2.37780439
vt 1.94447058 3.24588576
vt 1.94447058 0.82707843
vt 1.94447058 0.92293665
vt 3.09090844 0.90908431
vt 3.09090844 0.81322608
vt 3.09090844 0.79937374
vt 3.09090844 0.89523196
vt 3.21818107 -4.1002940e-2
vt 3.21818107 -2.7150595e-2
vt 3.21818107 5.4855285e-2
vt 3.21818107 6.8707629e-2
vn 0.89512156 0.44582215 -2.5253745e-16
vn 0.63294653 0.44582215 0.63294653
vn -1.3278582e-15 0.44582215 0.89512156
vn -0.63294653 0.44582215 0.63294653
vn -0.89512156 0.44582215 -8.1463694e-17
vn -0.63294653 0.44582215 -0.63294653
vn -7.5761235e-16 0.44582215 -0.89512156
vn 0.63294653 0.44582215 -0.63294653
vn 0.89512156 0.44582215 -2.6068382e-16
vn 0.63294653 0.44582215 0.63294653
vn -1.2382481e-15 0.44582215 0.89512156
vn -0.63294653 0.44582215 0.63294653
vn -0.89512156 0.44582215 -8.1463694e-17
vn -0.63294653 0.44582215 -0.63294653
vn -9.9385706e-16 0.44582215 -0.89512156
vn 0.63294653 0.44582215 -0.63294653
vn 0.86298692 -0.50522627 -7.1210500e-16
vn 0.61022390 -0.50522627 0.61022390
vn 3.3510824e-17 -0.50522627 0.86298692
vn -0.61022390 -0.50522627 0.61022390
vn -0.86298692 -0.50522627 -4.1888529e-16
vn -0.61022390 -0.50522627 -0.61022390
vn -4.0212988e-16 -0.50522627 -0.86298692
vn 0.61022390 -0.50522627 -0.61022390
vn 0.35377639 -0.93533003 -2.1942694e-15
vn 0.25015768 -0.93533003 0.25015768
vn 4.4662121e-16 -0.93533003 0.35377639
vn -0.25015768 -0.93533003 0.25015768
vn -0.35377639 -0.93533003 -1.8544489e-15
vn -0.25015768 -0.93533003 -0.25015768
vn 3.4952964e-16 -0.93533003 -0.35377639
vn 0.25015768 -0.93533003 -0.25015768
vn 0.89512156 0.44582215 -8.1463694e-17
vn 0.63294653 0.44582215 0.63294653
vn 6.4356318e-16 0.44582215 0.89512156
vn -0.63294653 0.44582215 0.63294653
vn -0.89512156 0.44582215 -2.4439108e-16
vn -0.63294653 0.44582215 -0.63294653
vn 8.7980789e-16 0.44582215 -0.89512156
vn 0.63294653 0.44582215 -0.63294653
vn 0.89512156 0.44582215 3.0956204e-16
vn 0.63294653 0.44582215 0.63294653
vn 1.6618594e-15 0.44582215 0.89512156
vn -0.63294653 0.44582215 0.63294653
vn -0.89512156 0.44582215 -2.4439108e-16
vn -0.63294653 0.44582215 -0.63294653
vn 1.5803957e-15 0.44582215 -0.89512156
vn 0.63294653 0.44582215 -0.63294653
vn 0.86298692 -0.50522627 -6.5346106e-16
vn 0.61022390 -0.50522627 0.61022390
vn 1.6001418e-15 -0.50522627 0.86298692
vn -0.61022390 -0.50522627 0.61022390
vn -0.86298692 -0.50522627 -1.1477457e-15
vn -0.61022390 -0.50522627 -0.61022390
vn 8.7128141e-16 -0.50522627 -0.86298692
vn 0.61022390 -0.50522627 -0.61022390
vn 0.35377639 -0.93533003 -2.5146716e-15
vn 0.25015768 -0.93533003 0.25015768
vn 6.5051350e-16 -0.93533003 0.35377639
vn -0.25015768 -0.93533003 0.25015768
vn -0.35377639 -0.93533003 -2.6214723e-15
vn -0.25015768 -0.93533003 -0.25015768
vn 1.7476482e-16 -0.93533003 -0.35377639
vn 0.25015768 -0.93533003 -0.25015768
vn -0.15209287 -0.97796475 0.14301297
vn -0.22822781 0.95477449 0.19057215
vn 5.1662340e-2 -0.93152009 0.36000184
vn -0.12259994 0.86765686 0.48180996
vn -0.32620636 0.82280388 0.46538499
vn 0.17799425 0.98026400 8.6026396e-2
vn 0.16962120 0.98253558 -7.6501573e-2
vn 0.20691543 0.97671084 -5.6762163e-2
vn 0.26325346 0.96219326 6.9869480e-2
vn 0.30327385 0.95243155 2.9985155e-2
vn 0.26274395 0.96475857 1.4370760e-2
vn 0.33610212 0.94099876 3.9455055e-2
vn 0.35568528 0.93448331 -1.5130467e-2
vn -6.5559513e-2 0.99586391 6.2904919e-2
vn -0.68255587 0.72440649 9.6709503e-2
vn -0.61308902 0.78438793 -9.4113911e-2
vn 0.20431410 0.96830721 0.14365549
vn 0.22428617 0.96709296 -0.12011215
vn -0.15100452 0.97607533 0.15644358
vn -0.10711126 0.98499602 -0.13531452
vn -0.13192648 0.99119463 1.1340821e-2
vn 0.32766597 0.94461112 1.8569889e-2
vn -0.65425684 0.75622911 8.0944839e-3
vn -0.79769998 0.60260961 -2.3160120e-2
vn 0.46340626 0.88369760 6.5826979e-2
vn 0.41392499 0.91007463 -2.0742662e-2
vn -0.11044819 0.99284127 4.5468671e-2
vn -0.11491298 0.99280053 -3.3795061e-2
vn -0.35018886 0.93439580 6.5362448e-2
vn -0.35658126 0.93423048 -7.9502983e-3
vn 0.37275871 0.92535896 6.9005327e-2
vn 0.34186543 0.93953193 -2.0193296e-2
vn -0.13587202 0.98936180 5.1980915e-2
vn -0.12318950 0.99193835 -2.9709661e-2
vn -0.99585900 8.0329955e-2 -4.2567127e-2
vn -0.99469516 6.7799426e-2 -7.7361339e-2
vn -0.99415446 8.6355043e-2 -6.4805181e-2
vn -0.30909654 -0.71331096 0.62900461
vn -0.38716527 -0.90779626 0.16127310
vn 4.2959015e-2 0.96221838 -0.26886859
vn -0.20334452 0.96811200 0.14632214
vn -0.77276352 -0.20307386 0.60132981
vn -0.54718735 0.36255328 0.75441442
vn -5.6424725e-2 0.99652428 -6.1283107e-2
vn -0.75363327 0.26819031 0.60009237
vn 0.13150765 -0.94981431 -0.28382831
vn 0.29893442 -0.95206760 -6.4849833e-2
vn 0.89512156 0.44582215 -8.0160275e-15
vn 0.63294653 0.44582215 0.63294653
vn -7.5761235e-16 0.44582215 0.89512156
vn -0.63294653 0.44582215 0.63294653
vn -0.89512156 0.44582215 -8.1219303e-15
vn -0.63294653 0.44582215 -0.63294653
vn -3.0141567e-16 0.44582215 -0.89512156
vn 0.63294653 0.44582215 -0.63294653
vn 0.89512156 0.44582215 -3.3400114e-15
vn 0.63294653 0.44582215 0.63294653
vn -3.0956204e-16 0.44582215 0.89512156
vn -0.63294653 0.44582215 0.63294653
vn -0.89512156 0.44582215 -3.4866461e-15
vn -0.63294653 0.44582215 -0.63294653
vn 1.6292739e-16 0.44582215 -0.89512156
vn 0.63294653 0.44582215 -0.63294653
vn 0.86298692 -0.50522627 -3.3259492e-15
vn 0.61022390 -0.50522627 0.61022390
vn -1.5079871e-16 -0.50522627 0.86298692
vn -0.61022390 -0.50522627 0.61022390
vn -0.86298692 -0.50522627 -3.3762155e-15
vn -0.61022390 -0.50522627 -0.61022390
vn 1.0053247e-16 -0.50522627 -0.86298692
vn 0.61022390 -0.50522627 -0.61022390
vn 0.35377639 -0.93533003 -1.8932856e-15
vn 0.25015768 -0.93533003 0.25015768
vn -1.7476482e-16 -0.93533003 0.35377639
vn -0.25015768 -0.93533003 0.25015768
vn -0.35377639 -0.93533003 -1.8738672e-15
vn -0.25015768 -0.93533003 -0.25015768
vn 1.1650988e-16 -0.93533003 -0.35377639
vn 0.25015768 -0.93533003 -0.25015768
vn 0.89512156 0.44582215 1.4500537e-15
vn 0.63294653 0.44582215 0.63294653
vn 4.3175758e-16 0.44582215 0.89512156
vn -0.63294653 0.44582215 0.63294653
vn -0.89512156 0.44582215 9.9385706e-16
vn -0.63294653 0.44582215 -0.63294653
vn 7.3317324e-16 0.44582215 -0.89512156
vn 0.63294653 0.44582215 -0.63294653
vn 0.89512156 0.44582215 1.6129811e-15
vn 0.63294653 0.44582215 0.63294653
vn 1.8084940e-15 0.44582215 0.89512156
vn -0.63294653 0.44582215 0.63294653
vn -0.89512156 0.44582215 1.0753208e-15
vn -0.63294653 0.44582215 -0.63294653
vn 2.1017633e-15 0.44582215 -0.89512156
vn 0.63294653 0.44582215 -0.63294653
vn 0.86298692 -0.50522627 -9.2154765e-17
vn 0.61022390 -0.50522627 0.61022390
vn 1.8430953e-15 -0.50522627 0.86298692
vn -0.61022390 -0.50522627 0.61022390
vn -0.86298692 -0.50522627 2.6808659e-16
vn -0.61022390 -0.50522627 -0.61022390
vn 2.4379124e-15 -0.50522627 -0.86298692
vn 0.61022390 -0.50522627 -0.61022390
vn 0.35377639 -0.93533003 -3.0098386e-16
vn 0.25015768 -0.93533003 0.25015768
vn 5.0487615e-16 -0.93533003 0.35377639
vn -0.25015768 -0.93533003 0.25015768
vn -0.35377639 -0.93533003 2.1360145e-16
vn -0.25015768 -0.93533003 -0.25015768
vn 1.1942263e-15 -0.93533003 -0.35377639
vn 0.25015768 -0.93533003 -0.25015768
vn 1.00000000 3.7168186e-17 0.0000000e+0
vn 1.00000000 3.7168186e-17 0.0000000e+0
vn 0.70710678 3.7168186e-17 0.70710678
vn 0.70710678 3.7168186e-17 0.70710678
vn -8.1114530e-16 0.0000000e+0 1.00000000
vn -8.1114530e-16 0.0000000e+0 1.00000000
vn -0.70710678 -3.7168186e-17 0.70710678
vn -0.70710678 -3.7168186e-17 0.70710678
vn -1.00000000 -3.7168186e-17 0.0000000e+0
vn -1.00000000 -3.7168186e-17 0.0000000e+0
vn -0.70710678 0.0000000e+0 -0.70710678
vn -0.70710678 0.0000000e+0 -0.70710678
vn -8.1114530e-16 0.0000000e+0 -1.00000000
vn -8.1114530e-16 0.0000000e+0 -1.00000000
vn 0.70710678 0.0000000e+0 -0.70710678
vn 0.70710678 0.0000000e+0 -0.70710678
vn 1.00000000 -3.7168186e-17 0.0000000e+0
vn 1.00000000 -3.7168186e-17 0.0000000e+0
vn 0.70710678 -3.7168186e-17 0.70710678
vn 0.70710678 -3.7168186e-17 0.70710678
vn 0.0000000e+0 0.0000000e+0 1.00000000
vn 0.0000000e+0 0.0000000e+0 1.00000000
vn -0.70710678 -3.7168186e-17 0.70710678
vn -0.70710678 -3.7168186e-17 0.70710678
vn -1.00000000 -3.7168186e-17 0.0000000e+0
vn -1.00000000 -3.7168186e-17 0.0000000e+0
vn -0.70710678 0.0000000e+0 -0.70710678
vn -0.70710678 0.0000000e+0 -0.70710678
vn 0.0000000e+0 0.0000000e+0 -1.00000000
vn 0.0000000e+0 0.0000000e+0 -1.00000000
vn 0.70710678 0.0000000e+0 -0.70710678
vn 0.70710678 0.0000000e+0 -0.70710678
vn 0.22679167 -0.48935627 0.84207837
vn 0.48861076 -0.87125601 -4.6609985e-2
vn -0.73950254 -0.66938825 -7.1101091e-2
vn -0.43419784 0.77776298 0.45448540
vn -0.43419784 0.77776298 0.45448540
vn -0.96217584 -0.25066100 -0.10670858
vn 0.28651266 0.87481392 0.39065472
vn 0.28651266 0.87481392 0.39065472
vn 0.28651266 0.87481392 0.39065472
vn 0.31487404 -0.88031790 0.35481649
vn 0.31487404 -0.88031790 0.35481649
vn 0.31487404 -0.88031790 0.35481649
vn -0.92457967 -0.37616243 -6.0450532e-2
vn 1.7437371e-2 -0.96087865 -0.27642025
vn 1.7437371e-2 -0.96087865 -0.27642025
vn 2.1352862e-2 0.97750654 -0.20982141
vn -0.92657409 0.36803379 -7.7534466e-2
vn 2.1352862e-2 0.97750654 -0.20982141
vn 8.7212583e-2 -0.99617027 -6.2259083e-3
vn -0.93123151 -0.35910643 -6.2052014e-2
vn -0.93123151 -0.35910643 -6.2052014e-2
vn 8.7212583e-2 -0.99617027 -6.2259083e-3
vn -0.93123151 -0.35910643 -6.2052014e-2
vn 8.7212583e-2 -0.99617027 -6.2259083e-3
vn 0.28640819 -0.84042415 0.46006259
vn 0.28640819 -0.84042415 0.46006259
vn 0.28640819 -0.84042415 0.46006259
vn 0.28640819 -0.84042415 0.46006259
vn -3.5166263e-3 0.99679000 7.9983292e-2
vn -3.5166263e-3 0.99679000 7.9983292e-2
vn -0.90069225 0.43402302 -1.9428931e-2
vn -0.90069225 0.43402302 -1.9428931e-2
vn -0.45139517 0.88733219 -9.4254875e-2
vn -0.45139517 0.88733219 -9.4254875e-2
vn -0.45139517 0.88733219 -9.4254875e-2
vn -0.45139517 0.88733219 -9.4254875e-2
vn -0.45139517 0.88733219 -9.4254875e-2
vn 3.8726032e-3 0.99703426 -7.6861477e-2
vn 3.8726032e-3 0.99703426 -7.6861477e-2
vn -0.91760103 0.38873907 -8.3007761e-2
vn -2.2246574e-3 0.99758740 6.9386053e-2
vn -2.2246574e-3 0.99758740 6.9386053e-2
vn -0.93188164 0.36066168 -3.8983989e-2
vn -2.7371215e-7 1.00000000 -1.8441051e-8
vn -2.7371215e-7 1.00000000 -1.8441051e-8
vn -0.92508025 0.37483770 -6.1018229e-2
vn -0.92508025 0.37483770 -6.1018229e-2
vn -8.5857891e-4 0.99998139 6.0393385e-3
vn -8.5857891e-4 0.99998139 6.0393385e-3
vn -0.88744842 0.45950464 -3.5927473e-2
vn -0.88744842 0.45950464 -3.5927473e-2
vn -1.1421501e-3 0.99965144 2.6375846e-2
vn -1.1421501e-3 0.99965144 2.6375846e-2
vn -0.94177585 0.33240569 -5.0642895e-2
vn -0.94177585 0.33240569 -5.0642895e-2
vn 1.2943046e-3 0.99965153 -2.6365580e-2
vn 1.2943046e-3 0.99965153 -2.6365580e-2
vn -0.94254143 0.32595441 -7.3276046e-2
vn -0.94254143 0.32595441 -7.3276046e-2
vn 2.0079366e-4 0.99955874 2.9703427e-2
vn -0.95115193 0.30454069 -5.0645618e-2
vn -0.95115193 0.30454069 -5.0645618e-2
vn 2.0079366e-4 0.99955874 2.9703427e-2
vn -0.94871091 0.30830422 -6.9972217e-2
vn 5.9244657e-3 0.99992817 -1.0418820e-2
vn -0.94871091 0.30830422 -6.9972217e-2
vn 5.9244657e-3 0.99992817 -1.0418820e-2
vn 0.37253517 -0.92743416 -3.2915322e-2
vn 0.37253517 -0.92743416 -3.2915322e-2
vn -0.83392642 -0.54725197 -7.1288205e-2
vn -0.83392642 -0.54725197 -7.1288205e-2
vn -0.83392642 -0.54725197 -7.1288205e-2
vn -0.83392642 -0.54725197 -7.1288205e-2
vn -0.83392642 -0.54725197 -7.1288205e-2
vn -0.88074107 0.47359325 2.1452009e-3
vn -0.88074107 0.47359325 2.1452009e-3
vn -0.88074107 0.47359325 2.1452009e-3
vn -0.88074107 0.47359325 2.1452009e-3
vn -0.71012241 0.70405995 -5.0734526e-3
vn -0.71012241 0.70405995 -5.0734526e-3
vn -0.71012241 0.70405995 -5.0734526e-3
vn -0.71012241 0.70405995 -5.0734526e-3
vn -0.65645851 0.75169019 -6.3435692e-2
vn -0.65645851 0.75169019 -6.3435692e-2
vn -0.65645851 0.75169019 -6.3435692e-2
vn -0.65645851 0.75169019 -6.3435692e-2
vn 0.51512257 -0.85634414 3.6379145e-2
vn 0.51512257 -0.85634414 3.6379145e-2
vn 0.51512257 -0.85634414 3.6379145e-2
vn 0.51512257 -0.85634414 3.6379145e-2
vn 0.92965376 -0.36592350 4.2940404e-2
vn 0.92965376 -0.36592350 4.2940404e-2
vn 4.8233672e-3 -0.99998837 5.8817422e-5
vn 4.8233672e-3 -0.99998837 5.8817422e-5
vn 0.45358271 -0.89118259 -7.5049161e-3
vn 0.45358271 -0.89118259 -7.5049161e-3
vn 0.45358271 -0.89118259 -7.5049161e-3
vn 0.45358271 -0.89118259 -7.5049161e-3
vn -0.92097051 -0.38505278 -5.9562442e-2
vn -0.92097051 -0.38505278 -5.9562442e-2
vn 2.8443470e-3 -0.99995162 9.4165281e-3
vn 2.8443470e-3 -0.99995162 9.4165281e-3
vn 2.8443470e-3 -0.99995162 9.4165281e-3
vn 0.22679167 -0.48935627 0.84207837
vn -0.33754999 0.58439850 0.73792845
vn -0.95048946 -0.30074545 -7.8242909e-2
vn -0.95048946 -0.30074545 -7.8242909e-2
vn -0.95048946 -0.30074545 -7.8242909e-2
vn -5.1726486e-2 0.58548612 0.80903051
vn 0.82294898 0.56296057 7.6356883e-2
vn -5.1726486e-2 -0.58548612 0.80903051
vn 0.82110283 -0.56693036 6.6182384e-2
vn 0.82294898 0.56296057 7.6356883e-2
vn 2.9946450e-2 0.92808645 -0.37115866
vn -0.99393298 8.4357008e-2 -7.0577038e-2
vn -0.99393298 8.4357008e-2 -7.0577038e-2
vn 3.2258362e-2 -0.84707437 -0.53049449
vn -0.99393298 8.4357008e-2 -7.0577038e-2
vn -0.33172049 0.89905554 0.28576328
vn -0.34807241 -0.73911163 0.57667981
vn -0.34807241 -0.73911163 0.57667981
vn -0.33172049 0.89905554 0.28576328
vn -0.34807241 -0.73911163 0.57667981
vn -0.11775142 0.59545234 0.79471448
vn -0.11775142 0.59545234 0.79471448
vn -1.3219527e-2 -0.58270111 0.81257902
vn -1.3219527e-2 -0.58270111 0.81257902
vn -0.26122754 0.59543231 0.75975031
vn 0.12683477 -0.53752626 0.83365368
vn 0.12683477 -0.53752626 0.83365368
vn -0.26122754 0.59543231 0.75975031
vn -0.99672557 -3.1638887e-2 -7.4411780e-2
vn -0.99672557 -3.1638887e-2 -7.4411780e-2
vn -0.99672557 -3.1638887e-2 -7.4411780e-2
vn -0.99672557 -3.1638887e-2 -7.4411780e-2
vn -0.99672557 -3.1638887e-2 -7.4411780e-2
vn -0.99271948 -0.11244566 -4.3174128e-2
vn -0.99271948 -0.11244566 -4.3174128e-2
vn -0.99271948 -0.11244566 -4.3174128e-2
vn -0.99271948 -0.11244566 -4.3174128e-2
vn -0.99271948 -0.11244566 -4.3174128e-2
vn -0.91417180 0.40524615 -8.0918175e-3
vn -0.80194908 -0.59581764 -4.3347623e-2
vn -0.80194908 -0.59581764 -4.3347623e-2
vn -0.91417180 0.40524615 -8.0918175e-3
vn 0.88620648 0.46173369 3.7948300e-2
vn 0.88620648 0.46173369 3.7948300e-2
vn 0.88620648 0.46173369 3.7948300e-2
vn 0.88620648 0.46173369 3.7948300e-2
vn 0.88620648 0.46173369 3.7948300e-2
vn 0.88620648 0.46173369 3.7948300e-2
vn 0.81469699 -0.57918519 -2.8518970e-2
vn 0.81469699 -0.57918519 -2.8518970e-2
vn 0.67255288 0.73967181 2.3627182e-2
vn 0.67255288 0.73967181 2.3627182e-2
vn 0.67255288 0.73967181 2.3627182e-2
vn 0.67255288 0.73967181 2.3627182e-2
vn 0.93177987 0.35745345 6.3350603e-2
vn 0.93177987 0.35745345 6.3350603e-2
vn 0.93177987 0.35745345 6.3350603e-2
vn 0.93177987 0.35745345 6.3350603e-2
vn 0.93177987 0.35745345 6.3350603e-2
vn 0.93177987 0.35745345 6.3350603e-2
vn 0.28549778 0.93485560 0.21103560
vn 0.28549778 0.93485560 0.21103560
vn 0.28549778 0.93485560 0.21103560
vn 0.28549778 0.93485560 0.21103560
vn 0.28549778 0.93485560 0.21103560
vn -0.26911172 0.93924366 -0.21307328
vn -0.53346082 -0.83299291 0.14677317
vn -0.26911172 0.93924366 -0.21307328
vn -0.53346082 -0.83299291 0.14677317
vn -0.21579310 0.55883714 0.80070868
vn -0.21579310 0.55883714 0.80070868
vn -0.21579310 0.55883714 0.80070868
vn -0.21579310 0.55883714 0.80070868
vn 0.14553983 0.98020421 0.13423066
vn 0.14553983 0.98020421 0.13423066
vn 0.14553983 0.98020421 0.13423066
vn 0.14553983 0.98020421 0.13423066
vn 0.14553983 0.98020421 0.13423066
vn 0.14553983 0.98020421 0.13423066
vn 0.27530449 0.76650038 -0.58024530
vn 0.27530449 0.76650038 -0.58024530
vn 0.24021347 -0.92718920 -0.28743289
vn 0.27530449 0.76650038 -0.58024530
vn 0.24021347 -0.92718920 -0.28743289
vn 0.67120327 0.53233022 -0.51585920
vn 0.38935086 -0.91141471 -0.13315080
vn 0.67714104 0.72630135 0.11817930
vn 0.38935086 -0.91141471 -0.13315080
vn 0.67714104 0.72630135 0.11817930
vn -1.4354203e-4 0.89960691 -0.43670058
vn 0.14475352 -0.87319173 -0.46538439
vn -1.4354203e-4 0.89960691 -0.43670058
vn 0.14475352 -0.87319173 -0.46538439
vn -1.4354203e-4 0.89960691 -0.43670058
vn -0.27464700 0.93348440 -0.23059900
vn -0.27464700 0.93348440 -0.23059900
vn -0.27464700 0.93348440 -0.23059900
vn -0.27464700 0.93348440 -0.23059900
vn -0.27464700 0.93348440 -0.23059900
vn 0.60162205 -0.79484097 -7.9238538e-2
vn 0.78200023 0.61567226 -9.7073689e-2
vn 0.60162205 -0.79484097 -7.9238538e-2
vn 0.78200023 0.61567226 -9.7073689e-2
vn 0.78200023 0.61567226 -9.7073689e-2
vn 0.40205339 0.85706370 0.32217212
vn 0.40205339 0.85706370 0.32217212
vn 0.40205339 0.85706370 0.32217212
vn 0.40205339 0.85706370 0.32217212
vn 0.40205339 0.85706370 0.32217212
vn 0.40205339 0.85706370 0.32217212
vn 0.0000000e+0 1.00000000 0.0000000e+0
vn 0.0000000e+0 -1.00000000 0.0000000e+0
vn 0.0000000e+0 1.00000000 0.0000000e+0
vn 0.0000000e+0 -1.00000000 0.0000000e+0
vn 0.0000000e+0 1.00000000 0.0000000e+0
vn 0.0000000e+0 -1.00000000 0.0000000e+0
vn 0.0000000e+0 1.00000000 0.0000000e+0
vn 0.0000000e+0 -1.00000000 0.0000000e+0
vn 0.0000000e+0 1.00000000 0.0000000e+0
vn 0.0000000e+0 -1.00000000 0.0000000e+0
vn 0.0000000e+0 1.00000000 0.0000000e+0
vn 0.0000000e+0 -1.00000000 0.0000000e+0
vn 0.0000000e+0 1.00000000 0.0000000e+0
vn 0.0000000e+0 1.00000000 0.0000000e+0
vn 0.0000000e+0 -1.00000000 0.0000000e+0
vn 0.0000000e+0 -1.00000000 0.0000000e+0
vn 0.0000000e+0 1.00000000 0.0000000e+0
vn 0.0000000e+0 -1.00000000 0.0000000e+0
vn 0.0000000e+0 1.00000000 0.0000000e+0
vn 0.0000000e+0 -1.00000000 0.0000000e+0
vn 0.0000000e+0 1.00000000 0.0000000e+0
vn 0.0000000e+0 1.00000000 0.0000000e+0
vn 0.0000000e+0 -1.00000000 0.0000000e+0
vn 0.0000000e+0 -1.00000000 0.0000000e+0
vn 0.0000000e+0 1.00000000 0.0000000e+0
vn 0.0000000e+0 -1.00000000 0.0000000e+0
vn 0.0000000e+0 1.00000000 0.0000000e+0
vn 0.0000000e+0 -1.00000000 0.0000000e+0
vn 0.0000000e+0 1.00000000 0.0000000e+0
vn 0.0000000e+0 -1.00000000 0.0000000e+0
vn 0.0000000e+0 1.00000000 0.0000000e+0
vn 0.0000000e+0 -1.00000000 0.0000000e+0
vn 0.0000000e+0 1.00000000 0.0000000e+0
vn 0.0000000e+0 -1.00000000 0.0000000e+0
vn 0.0000000e+0 0.99972826 -2.3310989e-2
vn 0.0000000e+0 -0.99972826 2.3310989e-2
vn 0.0000000e+0 0.99972826 2.3310989e-2
vn 0.0000000e+0 1.00000000 0.0000000e+0
vn 0.0000000e+0 -0.99972826 -2.3310989e-2
vn 0.0000000e+0 -1.00000000 0.0000000e+0
vn 0.0000000e+0 1.00000000 0.0000000e+0
vn 0.0000000e+0 -1.00000000 0.0000000e+0
vn 0.0000000e+0 0.99972826 -2.3310989e-2
vn 0.0000000e+0 -0.99972826 2.3310989e-2
vn 0.0000000e+0 0.99972826 2.3310989e-2
vn 0.0000000e+0 1.00000000 0.0000000e+0
vn 0.0000000e+0 -0.99972826 -2.3310989e-2
vn 0.0000000e+0 -1.00000000 0.0000000e+0
vn 0.0000000e+0 0.99980172 -1.9912932e-2
vn 0.0000000e+0 0.99972826 -2.3310989e-2
vn 0.0000000e+0 -0.99980172 1.9912932e-2
vn 0.0000000e+0 -0.99972826 2.3310989e-2
vn 0.0000000e+0 0.99980172 1.9912932e-2
vn 0.0000000e+0 0.99980172 -1.9912932e-2
vn 0.0000000e+0 -0.99980172 -1.9912932e-2
vn 0.0000000e+0 -0.99980172 1.9912932e-2
vn 0.0000000e+0 0.99972826 2.3310989e-2
vn 0.0000000e+0 -0.99972826 -2.3310989e-2
vn 0.0000000e+0 0.99980172 1.9912932e-2
vn 0.0000000e+0 -0.99980172 -1.9912932e-2
vn 0.0000000e+0 0.99980172 -1.9912932e-2
vn 0.0000000e+0 0.99972826 -2.3310989e-2
vn 0.0000000e+0 -0.99980172 1.9912932e-2
vn 0.0000000e+0 -0.99972826 2.3310989e-2
vn 0.0000000e+0 0.99980172 1.9912932e-2
vn 0.0000000e+0 0.99980172 -1.9912932e-2
vn 0.0000000e+0 -0.99980172 -1.9912932e-2
vn 0.0000000e+0 -0.99980172 1.9912932e-2
vn 0.0000000e+0 0.99972826 2.3310989e-2
vn 0.0000000e+0 -0.99972826 -2.3310989e-2
vn 0.0000000e+0 0.99980172 1.9912932e-2
vn 0.0000000e+0 -0.99980172 -1.9912932e-2
vn 0.0000000e+0 1.00000000 0.0000000e+0
vn 0.0000000e+0 -1.00000000 0.0000000e+0
vn 0.0000000e+0 1.00000000 0.0000000e+0
vn 0.0000000e+0 -1.00000000 0.0000000e+0
vn 0.0000000e+0 1.00000000 0.0000000e+0
vn 0.0000000e+0 -1.00000000 0.0000000e+0
vn 0.0000000e+0 1.00000000 0.0000000e+0
vn 0.0000000e+0 -1.00000000 0.0000000e+0
vn 0.0000000e+0 1.00000000 0.0000000e+0
vn 0.0000000e+0 -1.00000000 0.0000000e+0
vn 1.2939894e-16 0.99940155 -3.4590941e-2
vn -1.2939894e-16 -0.99940155 3.4590941e-2
vn 0.0000000e+0 0.99940155 3.4590941e-2
vn 0.0000000e+0 1.00000000 0.0000000e+0
vn 0.0000000e+0 -0.99940155 -3.4590941e-2
vn 0.0000000e+0 -1.00000000 0.0000000e+0
vn 0.0000000e+0 1.00000000 0.0000000e+0
vn 0.0000000e+0 -1.00000000 0.0000000e+0
vn 1.2939894e-16 0.99940155 -3.4590941e-2
vn -1.2939894e-16 -0.99940155 3.4590941e-2
vn 0.0000000e+0 0.99940155 3.4590941e-2
vn 0.0000000e+0 1.00000000 0.0000000e+0
vn 0.0000000e+0 -0.99940155 -3.4590941e-2
vn 0.0000000e+0 -1.00000000 0.0000000e+0
vn 0.0000000e+0 0.99990249 -1.3964744e-2
vn 1.2939894e-16 0.99940155 -3.4590941e-2
vn 0.0000000e+0 -0.99990249 1.3964744e-2
vn -1.2939894e-16 -0.99940155 3.4590941e-2
vn 0.0000000e+0 1.00000000 0.0000000e+0
vn 0.0000000e+0 0.99990249 -1.3964744e-2
vn 0.0000000e+0 -1.00000000 0.0000000e+0
vn 0.0000000e+0 -0.99990249 1.3964744e-2
vn 0.0000000e+0 0.99990249 1.3964744e-2
vn 0.0000000e+0 1.00000000 0.0000000e+0
vn 0.0000000e+0 -0.99990249 -1.3964744e-2
vn 0.0000000e+0 -1.00000000 0.0000000e+0
vn 0.0000000e+0 0.99940155 3.4590941e-2
vn 0.0000000e+0 -0.99940155 -3.4590941e-2
vn 0.0000000e+0 0.99990249 1.3964744e-2
vn 0.0000000e+0 -0.99990249 -1.3964744e-2
vn 0.0000000e+0 0.99990249 -1.3964744e-2
vn 1.2939894e-16 0.99940155 -3.4590941e-2
vn 0.0000000e+0 -0.99990249 1.3964744e-2
vn -1.2939894e-16 -0.99940155 3.4590941e-2
vn 0.0000000e+0 1.00000000 0.0000000e+0
vn 0.0000000e+0 0.99990249 -1.3964744e-2
vn 0.0000000e+0 -1.00000000 0.0000000e+0
vn 0.0000000e+0 -0.99990249 1.3964744e-2
vn 0.0000000e+0 0.99990249 1.3964744e-2
vn 0.0000000e+0 1.00000000 0.0000000e+0
vn 0.0000000e+0 -0.99990249 -1.3964744e-2
vn 0.0000000e+0 -1.00000000 0.0000000e+0
vn 0.0000000e+0 0.99940155 3.4590941e-2
vn 0.0000000e+0 -0.99940155 -3.4590941e-2
vn 0.0000000e+0 0.99990249 1.3964744e-2
vn 0.0000000e+0 -0.99990249 -1.3964744e-2
vn 0.0000000e+0 1.00000000 0.0000000e+0
vn 0.0000000e+0 -1.00000000 0.0000000e+0
vn 0.0000000e+0 1.00000000 0.0000000e+0
vn 0.0000000e+0 -1.00000000 0.0000000e+0
vn 0.0000000e+0 1.00000000 0.0000000e+0
vn 0.0000000e+0 -1.00000000 0.0000000e+0
vn 0.0000000e+0 1.00000000 0.0000000e+0
vn 0.0000000e+0 -1.00000000 0.0000000e+0
vn 0.0000000e+0 1.00000000 0.0000000e+0
vn 0.0000000e+0 -1.00000000 0.0000000e+0
vn 0.0000000e+0 0.99857537 -5.3359410e-2
vn 0.0000000e+0 -0.99857537 5.3359410e-2
vn 0.0000000e+0 0.99857537 5.3359410e-2
vn 0.0000000e+0 1.00000000 0.0000000e+0
vn 0.0000000e+0 -0.99857537 -5.3359410e-2
vn 0.0000000e+0 -1.00000000 0.0000000e+0
vn 0.0000000e+0 1.00000000 0.0000000e+0
vn 0.0000000e+0 -1.00000000 0.0000000e+0
vn 0.0000000e+0 0.99857537 -5.3359410e-2
vn 0.0000000e+0 -0.99857537 5.3359410e-2
vn 0.0000000e+0 0.99857537 5.3359410e-2
vn 0.0000000e+0 1.00000000 0.0000000e+0
vn 0.0000000e+0 -0.99857537 -5.3359410e-2
vn 0.0000000e+0 -1.00000000 0.0000000e+0
vn -1.2941915e-16 0.99955765 -2.9740716e-2
vn 0.0000000e+0 0.99857537 -5.3359410e-2
vn 1.2941915e-16 -0.99955765 2.9740716e-2
vn 0.0000000e+0 -0.99857537 5.3359410e-2
vn 0.0000000e+0 1.00000000 0.0000000e+0
vn -1.2941915e-16 0.99955765 -2.9740716e-2
vn 0.0000000e+0 -1.00000000 0.0000000e+0
vn 1.2941915e-16 -0.99955765 2.9740716e-2
vn -1.2941915e-16 0.99955765 2.9740716e-2
vn 0.0000000e+0 1.00000000 0.0000000e+0
vn 1.2941915e-16 -0.99955765 -2.9740716e-2
vn 0.0000000e+0 -1.00000000 0.0000000e+0
vn 0.0000000e+0 0.99857537 5.3359410e-2
vn 0.0000000e+0 -0.99857537 -5.3359410e-2
vn -1.2941915e-16 0.99955765 2.9740716e-2
vn 1.2941915e-16 -0.99955765 -2.9740716e-2
vn -1.2941915e-16 0.99955765 -2.9740716e-2
vn 0.0000000e+0 0.99857537 -5.3359410e-2
vn 1.2941915e-16 -0.99955765 2.9740716e-2
vn 0.0000000e+0 -0.99857537 5.3359410e-2
vn 0.0000000e+0 1.00000000 0.0000000e+0
vn -1.2941915e-16 0.99955765 -2.9740716e-2
vn 0.0000000e+0 -1.00000000 0.0000000e+0
vn 1.2941915e-16 -0.99955765 2.9740716e-2
vn -1.2941915e-16 0.99955765 2.9740716e-2
vn 0.0000000e+0 1.00000000 0.0000000e+0
vn 1.2941915e-16 -0.99955765 -2.9740716e-2
vn 0.0000000e+0 -1.00000000 0.0000000e+0
vn 0.0000000e+0 0.99857537 5.3359410e-2
vn 0.0000000e+0 -0.99857537 -5.3359410e-2
vn -1.2941915e-16 0.99955765 2.9740716e-2
vn 1.2941915e-16 -0.99955765 -2.9740716e-2
vn 0.0000000e+0 1.00000000 0.0000000e+0
vn 0.0000000e+0 -1.00000000 0.0000000e+0
vn 0.0000000e+0 1.00000000 0.0000000e+0
vn 0.0000000e+0 -1.00000000 0.0000000e+0
vn 0.0000000e+0 1.00000000 0.0000000e+0
vn 0.0000000e+0 -1.00000000 0.0000000e+0
vn 0.0000000e+0 1.00000000 0.0000000e+0
vn 0.0000000e+0 -1.00000000 0.0000000e+0
vn 0.0000000e+0 1.00000000 0.0000000e+0
vn 0.0000000e+0 -1.00000000 0.0000000e+0
vn 0.0000000e+0 0.99823410 -5.9402672e-2
vn 0.0000000e+0 -0.99823410 5.9402672e-2
vn 0.0000000e+0 0.99823410 5.9402672e-2
vn 0.0000000e+0 1.00000000 0.0000000e+0
vn 0.0000000e+0 -0.99823410 -5.9402672e-2
vn 0.0000000e+0 -1.00000000 0.0000000e+0
vn 0.0000000e+0 1.00000000 0.0000000e+0
vn 0.0000000e+0 -1.00000000 0.0000000e+0
vn 0.0000000e+0 0.99823410 -5.9402672e-2
vn 0.0000000e+0 -0.99823410 5.9402672e-2
vn 0.0000000e+0 0.99823410 5.9402672e-2
vn 0.0000000e+0 1.00000000 0.0000000e+0
vn 0.0000000e+0 -0.99823410 -5.9402672e-2
vn 0.0000000e+0 -1.00000000 0.0000000e+0
vn -1.2931622e-16 0.99876267 -4.9730595e-2
vn 0.0000000e+0 0.99823410 -5.9402672e-2
vn 1.2931622e-16 -0.99876267 4.9730595e-2
vn 0.0000000e+0 -0.99823410 5.9402672e-2
vn 0.0000000e+0 1.00000000 0.0000000e+0
vn -1.2931622e-16 0.99876267 -4.9730595e-2
vn 0.0000000e+0 -1.00000000 0.0000000e+0
vn 1.2931622e-16 -0.99876267 4.9730595e-2
vn -1.2931622e-16 0.99876267 4.9730595e-2
vn 0.0000000e+0 1.00000000 0.0000000e+0
vn 1.2931622e-16 -0.99876267 -4.9730595e-2
vn 0.0000000e+0 -1.00000000 0.0000000e+0
vn 0.0000000e+0 0.99823410 5.9402672e-2
vn 0.0000000e+0 -0.99823410 -5.9402672e-2
vn -1.2931622e-16 0.99876267 4.9730595e-2
vn 1.2931622e-16 -0.99876267 -4.9730595e-2
vn -1.2931622e-16 0.99876267 -4.9730595e-2
vn 0.0000000e+0 0.99823410 -5.9402672e-2
vn 1.2931622e-16 -0.99876267 4.9730595e-2
vn 0.0000000e+0 -0.99823410 5.9402672e-2
vn 0.0000000e+0 1.00000000 0.0000000e+0
vn -1.2931622e-16 0.99876267 -4.9730595e-2
vn 0.0000000e+0 -1.00000000 0.0000000e+0
vn 1.2931622e-16 -0.99876267 4.9730595e-2
vn -1.2931622e-16 0.99876267 4.9730595e-2
vn 0.0000000e+0 1.00000000 0.0000000e+0
vn 1.2931622e-16 -0.99876267 -4.9730595e-2
vn 0.0000000e+0 -1.00000000 0.0000000e+0
vn 0.0000000e+0 0.99823410 5.9402672e-2
vn 0.0000000e+0 -0.99823410 -5.9402672e-2
vn -1.2931622e-16 0.99876267 4.9730595e-2
vn 1.2931622e-16 -0.99876267 -4.9730595e-2
vn 0.0000000e+0 1.00000000 0.0000000e+0
vn 0.0000000e+0 -1.00000000 0.0000000e+0
vn 0.0000000e+0 1.00000000 0.0000000e+0
vn 0.0000000e+0 -1.00000000 0.0000000e+0
vn 0.0000000e+0 1.00000000 0.0000000e+0
vn 0.0000000e+0 -1.00000000 0.0000000e+0
vn 0.0000000e+0 1.00000000 0.0000000e+0
vn 0.0000000e+0 -1.00000000 0.0000000e+0
vn 0.0000000e+0 1.00000000 0.0000000e+0
vn 0.0000000e+0 -1.00000000 0.0000000e+0
vn 0.0000000e+0 0.99857537 -5.3359410e-2
vn 0.0000000e+0 -0.99857537 5.3359410e-2
vn 0.0000000e+0 0.99857537 5.3359410e-2
vn 0.0000000e+0 1.00000000 0.0000000e+0
vn 0.0000000e+0 -0.99857537 -5.3359410e-2
vn 0.0000000e+0 -1.00000000 0.0000000e+0
vn 0.0000000e+0 1.00000000 0.0000000e+0
vn 0.0000000e+0 -1.00000000 0.0000000e+0
vn 0.0000000e+0 0.99857537 -5.3359410e-2
vn 0.0000000e+0 -0.99857537 5.3359410e-2
vn 0.0000000e+0 0.99857537 5.3359410e-2
vn 0.0000000e+0 1.00000000 0.0000000e+0
vn 0.0000000e+0 -0.99857537 -5.3359410e-2
vn 0.0000000e+0 -1.00000000 0.0000000e+0
vn -1.2941915e-16 0.99955765 -2.9740716e-2
vn 0.0000000e+0 0.99857537 -5.3359410e-2
vn 1.2941915e-16 -0.99955765 2.9740716e-2
vn 0.0000000e+0 -0.99857537 5.3359410e-2
vn 0.0000000e+0 1.00000000 0.0000000e+0
vn -1.2941915e-16 0.99955765 -2.9740716e-2
vn 0.0000000e+0 -1.00000000 0.0000000e+0
vn 1.2941915e-16 -0.99955765 2.9740716e-2
vn -1.2941915e-16 0.99955765 2.9740716e-2
vn 0.0000000e+0 1.00000000 0.0000000e+0
vn 1.2941915e-16 -0.99955765 -2.9740716e-2
vn 0.0000000e+0 -1.00000000 0.0000000e+0
vn 0.0000000e+0 0.99857537 5.3359410e-2
vn 0.0000000e+0 -0.99857537 -5.3359410e-2
vn -1.2941915e-16 0.99955765 2.9740716e-2
vn 1.2941915e-16 -0.99955765 -2.9740716e-2
vn -1.2941915e-16 0.99955765 -2.9740716e-2
vn 0.0000000e+0 0.99857537 -5.3359410e-2
vn 1.2941915e-16 -0.99955765 2.9740716e-2
vn 0.0000000e+0 -0.99857537 5.3359410e-2
vn 0.0000000e+0 1.00000000 0.0000000e+0
vn -1.2941915e-16 0.99955765 -2.9740716e-2
vn 0.0000000e+0 -1.00000000 0.0000000e+0
vn 1.2941915e-16 -0.99955765 2.9740716e-2
vn -1.2941915e-16 0.99955765 2.9740716e-2
vn 0.0000000e+0 1.00000000 0.0000000e+0
vn 1.2941915e-16 -0.99955765 -2.9740716e-2
vn 0.0000000e+0 -1.00000000 0.0000000e+0
vn 0.0000000e+0 0.99857537 5.3359410e-2
vn 0.0000000e+0 -0.99857537 -5.3359410e-2
vn -1.2941915e-16 0.99955765 2.9740716e-2
vn 1.2941915e-16 -0.99955765 -2.9740716e-2
vn 0.0000000e+0 1.00000000 0.0000000e+0
vn 0.0000000e+0 -1.00000000 0.0000000e+0
vn 0.0000000e+0 1.00000000 0.0000000e+0
vn 0.0000000e+0 -1.00000000 0.0000000e+0
vn 0.0000000e+0 1.00000000 0.0000000e+0
vn 0.0000000e+0 -1.00000000 0.0000000e+0
vn 0.0000000e+0 1.00000000 0.0000000e+0
vn 0.0000000e+0 -1.00000000 0.0000000e+0
vn 0.0000000e+0 1.00000000 0.0000000e+0
vn 0.0000000e+0 -1.00000000 0.0000000e+0
vn 1.2939894e-16 0.99940155 -3.4590941e-2
vn -1.2939894e-16 -0.99940155 3.4590941e-2
vn 0.0000000e+0 0.99940155 3.4590941e-2
vn 0.0000000e+0 1.00000000 0.0000000e+0
vn 0.0000000e+0 -0.99940155 -3.4590941e-2
vn 0.0000000e+0 -1.00000000 0.0000000e+0
vn 0.0000000e+0 1.00000000 0.0000000e+0
vn 0.0000000e+0 -1.00000000 0.0000000e+0
vn 1.2939894e-16 0.99940155 -3.4590941e-2
vn -1.2939894e-16 -0.99940155 3.4590941e-2
vn 0.0000000e+0 0.99940155 3.4590941e-2
vn 0.0000000e+0 1.00000000 0.0000000e+0
vn 0.0000000e+0 -0.99940155 -3.4590941e-2
vn 0.0000000e+0 -1.00000000 0.0000000e+0
vn 0.0000000e+0 0.99990249 -1.3964744e-2
vn 1.2939894e-16 0.99940155 -3.4590941e-2
vn 0.0000000e+0 -0.99990249 1.3964744e-2
vn -1.2939894e-16 -0.99940155 3.4590941e-2
vn 0.0000000e+0 1.00000000 0.0000000e+0
vn 0.0000000e+0 0.99990249 -1.3964744e-2
vn 0.0000000e+0 -1.00000000 0.0000000e+0
vn 0.0000000e+0 -0.99990249 1.3964744e-2
vn 0.0000000e+0 0.99990249 1.3964744e-2
vn 0.0000000e+0 1.00000000 0.0000000e+0
vn 0.0000000e+0 -0.99990249 -1.3964744e-2
vn 0.0000000e+0 -1.00000000 0.0000000e+0
vn 0.0000000e+0 0.99940155 3.4590941e-2
vn 0.0000000e+0 -0.99940155 -3.4590941e-2
vn 0.0000000e+0 0.99990249 1.3964744e-2
vn 0.0000000e+0 -0.99990249 -1.3964744e-2
vn 0.0000000e+0 0.99990249 -1.3964744e-2
vn 1.2939894e-16 0.99940155 -3.4590941e-2
vn 0.0000000e+0 -0.99990249 1.3964744e-2
vn -1.2939894e-16 -0.99940155 3.4590941e-2
vn 0.0000000e+0 1.00000000 0.0000000e+0
vn 0.0000000e+0 0.99990249 -1.3964744e-2
vn 0.0000000e+0 -1.00000000 0.0000000e+0
vn 0.0000000e+0 -0.99990249 1.3964744e-2
vn 0.0000000e+0 0.99990249 1.3964744e-2
vn 0.0000000e+0 1.00000000 0.0000000e+0
vn 0.0000000e+0 -0.99990249 -1.3964744e-2
vn 0.0000000e+0 -1.00000000 0.0000000e+0
vn 0.0000000e+0 0.99940155 3.4590941e-2
vn 0.0000000e+0 -0.99940155 -3.4590941e-2
vn 0.0000000e+0 0.99990249 1.3964744e-2
vn 0.0000000e+0 -0.99990249 -1.3964744e-2
vn 0.0000000e+0 1.00000000 0.0000000e+0
vn 0.0000000e+0 -1.00000000 0.0000000e+0
vn 0.0000000e+0 1.00000000 0.0000000e+0
vn 0.0000000e+0 -1.00000000 0.0000000e+0
vn 0.0000000e+0 1.00000000 0.0000000e+0
vn 0.0000000e+0 -1.00000000 0.0000000e+0
vn 0.0000000e+0 1.00000000 0.0000000e+0
vn 0.0000000e+0 -1.00000000 0.0000000e+0
vn 0.0000000e+0 1.00000000 0.0000000e+0
vn 0.0000000e+0 -1.00000000 0.0000000e+0
vn 0.0000000e+0 0.99972826 -2.3310989e-2
vn 0.0000000e+0 -0.99972826 2.3310989e-2
vn 0.0000000e+0 0.99972826 2.3310989e-2
vn 0.0000000e+0 1.00000000 0.0000000e+0
vn 0.0000000e+0 -0.99972826 -2.3310989e-2
vn 0.0000000e+0 -1.00000000 0.0000000e+0
vn 0.0000000e+0 1.00000000 0.0000000e+0
vn 0.0000000e+0 -1.00000000 0.0000000e+0
vn 0.0000000e+0 0.99972826 -2.3310989e-2
vn 0.0000000e+0 -0.99972826 2.3310989e-2
vn 0.0000000e+0 0.99972826 2.3310989e-2
vn 0.0000000e+0 1.00000000 0.0000000e+0
vn 0.0000000e+0 -0.99972826 -2.3310989e-2
vn 0.0000000e+0 -1.00000000 0.0000000e+0
vn 0.0000000e+0 0.99980172 -1.9912932e-2
vn 0.0000000e+0 0.99972826 -2.3310989e-2
vn 0.0000000e+0 -0.99980172 1.9912932e-2
vn 0.0000000e+0 -0.99972826 2.3310989e-2
vn 0.0000000e+0 0.99980172 1.9912932e-2
vn 0.0000000e+0 0.99980172 -1.9912932e-2
vn 0.0000000e+0 -0.99980172 -1.9912932e-2
vn 0.0000000e+0 -0.99980172 1.9912932e-2
vn 0.0000000e+0 0.99972826 2.3310989e-2
vn 0.0000000e+0 -0.99972826 -2.3310989e-2
vn 0.0000000e+0 0.99980172 1.9912932e-2
vn 0.0000000e+0 -0.99980172 -1.9912932e-2
vn 0.0000000e+0 0.99980172 -1.9912932e-2
vn 0.0000000e+0 0.99972826 -2.3310989e-2
vn 0.0000000e+0 -0.99980172 1.9912932e-2
vn 0.0000000e+0 -0.99972826 2.3310989e-2
vn 0.0000000e+0 0.99980172 1.9912932e-2
vn 0.0000000e+0 0.99980172 -1.9912932e-2
vn 0.0000000e+0 -0.99980172 -1.9912932e-2
vn 0.0000000e+0 -0.99980172 1.9912932e-2
vn 0.0000000e+0 0.99972826 2.3310989e-2
vn 0.0000000e+0 -0.99972826 -2.3310989e-2
vn 0.0000000e+0 0.99980172 1.9912932e-2
vn 0.0000000e+0 -0.99980172 -1.9912932e-2
vn 0.0000000e+0 1.00000000 0.0000000e+0
vn 0.0000000e+0 -1.00000000 0.0000000e+0
vn 0.0000000e+0 1.00000000 0.0000000e+0
vn 0.0000000e+0 -1.00000000 0.0000000e+0
vn 0.0000000e+0 1.00000000 0.0000000e+0
vn 0.0000000e+0 -1.00000000 0.0000000e+0
vn 0.0000000e+0 1.00000000 0.0000000e+0
vn 0.0000000e+0 -1.00000000 0.0000000e+0
vn 0.0000000e+0 1.00000000 0.0000000e+0
vn 0.0000000e+0 -1.00000000 0.0000000e+0
vn 0.0000000e+0 1.00000000 0.0000000e+0
vn 0.0000000e+0 -1.00000000 0.0000000e+0
vn 0.0000000e+0 1.00000000 0.0000000e+0
vn 0.0000000e+0 1.00000000 0.0000000e+0
vn 0.0000000e+0 -1.00000000 0.0000000e+0
vn 0.0000000e+0 -1.00000000 0.0000000e+0
vn 0.0000000e+0 1.00000000 0.0000000e+0
vn 0.0000000e+0 -1.00000000 0.0000000e+0
vn 0.0000000e+0 1.00000000 0.0000000e+0
vn 0.0000000e+0 -1.00000000 0.0000000e+0
vn 0.0000000e+0 1.00000000 0.0000000e+0
vn 0.0000000e+0 1.00000000 0.0000000e+0
vn 0.0000000e+0 -1.00000000 0.0000000e+0
vn 0.0000000e+0 -1.00000000 0.0000000e+0
vn 0.0000000e+0 0.0000000e+0 1.00000000
vn -1.00000000 0.0000000e+0 0.0000000e+0
vn 6.1709692e-17 -1.00000000 0.0000000e+0
vn 6.1709692e-17 -1.00000000 0.0000000e+0
vn 0.0000000e+0 0.0000000e+0 1.00000000
vn -1.00000000 0.0000000e+0 0.0000000e+0
vn 0.0000000e+0 1.00000000 0.0000000e+0
vn 0.0000000e+0 1.00000000 0.0000000e+0
vn 0.0000000e+0 0.0000000e+0 1.00000000
vn 1.00000000 0.0000000e+0 0.0000000e+0
vn 0.0000000e+0 1.00000000 0.0000000e+0
vn 0.0000000e+0 1.00000000 0.0000000e+0
vn 0.0000000e+0 0.0000000e+0 1.00000000
vn 1.00000000 0.0000000e+0 0.0000000e+0
vn -6.1709692e-17 -1.00000000 0.0000000e+0
vn -6.1709692e-17 -1.00000000 0.0000000e+0
vn 0.0000000e+0 0.0000000e+0 -1.00000000
vn -1.00000000 0.0000000e+0 0.0000000e+0
vn 6.1709692e-17 -1.00000000 0.0000000e+0
vn 6.1709692e-17 -1.00000000 0.0000000e+0
vn 0.0000000e+0 0.0000000e+0 -1.00000000
vn -1.00000000 0.0000000e+0 0.0000000e+0
vn 0.0000000e+0 1.00000000 0.0000000e+0
vn 0.0000000e+0 1.00000000 0.0000000e+0
vn 1.00000000 0.0000000e+0 0.0000000e+0
vn 0.0000000e+0 0.0000000e+0 -1.00000000
vn 0.0000000e+0 1.00000000 0.0000000e+0
vn 0.0000000e+0 1.00000000 0.0000000e+0
vn 1.00000000 0.0000000e+0 0.0000000e+0
vn 0.0000000e+0 0.0000000e+0 -1.00000000
vn -6.1709692e-17 -1.00000000 0.0000000e+0
vn -6.1709692e-17 -1.00000000 0.0000000e+0
vn -6.1709692e-17 -1.00000000 0.0000000e+0
vn -6.1709692e-17 -1.00000000 0.0000000e+0
vn 0.0000000e+0 0.0000000e+0 -1.00000000
vn -1.00000000 0.0000000e+0 0.0000000e+0
vn 6.1709692e-17 -1.00000000 0.0000000e+0
vn 6.1709692e-17 -1.00000000 0.0000000e+0
vn 0.0000000e+0 0.0000000e+0 -1.00000000
vn 1.00000000 0.0000000e+0 0.0000000e+0
vn 6.1709692e-17 -1.00000000 0.0000000e+0
vn 6.1709692e-17 -1.00000000 0.0000000e+0
vn 0.0000000e+0 0.0000000e+0 1.00000000
vn 1.00000000 0.0000000e+0 0.0000000e+0
vn -6.1709692e-17 -1.00000000 0.0000000e+0
vn -6.1709692e-17 -1.00000000 0.0000000e+0
vn -1.00000000 0.0000000e+0 0.0000000e+0
vn 0.0000000e+0 0.0000000e+0 1.00000000
vn 0.0000000e+0 1.00000000 0.0000000e+0
vn 0.0000000e+0 1.00000000 0.0000000e+0
vn 0.0000000e+0 0.0000000e+0 -1.00000000
vn 1.00000000 0.0000000e+0 0.0000000e+0
vn 0.0000000e+0 1.00000000 0.0000000e+0
vn 0.0000000e+0 1.00000000 0.0000000e+0
vn 0.0000000e+0 0.0000000e+0 -1.00000000
vn -1.00000000 0.0000000e+0 0.0000000e+0
vn 0.0000000e+0 1.00000000 0.0000000e+0
vn 0.0000000e+0 1.00000000 0.0000000e+0
vn -1.00000000 0.0000000e+0 0.0000000e+0
vn 0.0000000e+0 0.0000000e+0 1.00000000
vn 0.0000000e+0 1.00000000 0.0000000e+0
vn 0.0000000e+0 1.00000000 0.0000000e+0
vn 0.0000000e+0 0.0000000e+0 1.00000000
vn 1.00000000 0.0000000e+0 0.0000000e+0
vn 1.00000000 -3.7168186e-17 -1.1656458e-14
vn 1.00000000 -3.7168186e-17 -1.1656458e-14
vn 0.70710678 -1.1150456e-16 0.70710678
vn 0.70710678 -1.1150456e-16 0.70710678
vn -8.1114530e-16 -7.4336372e-17 1.00000000
vn -8.1114530e-16 -7.4336372e-17 1.00000000
vn -0.70710678 0.0000000e+0 0.70710678
vn -0.70710678 0.0000000e+0 0.70710678
vn -1.00000000 3.7168186e-17 -1.1686501e-14
vn -1.00000000 3.7168186e-17 -1.1686501e-14
vn -0.70710678 -1.1150456e-16 -0.70710678
vn -0.70710678 -1.1150456e-16 -0.70710678
vn -8.4118772e-16 -1.4867274e-16 -1.00000000
vn -8.4118772e-16 -1.4867274e-16 -1.00000000
vn 0.70710678 0.0000000e+0 -0.70710678
vn 0.70710678 0.0000000e+0 -0.70710678
vn 1.00000000 -7.4336372e-17 0.0000000e+0
vn 1.00000000 -7.4336372e-17 0.0000000e+0
vn 0.70710678 3.7168186e-17 0.70710678
vn 0.70710678 3.7168186e-17 0.70710678
vn 0.0000000e+0 1.4867274e-16 1.00000000
vn 0.0000000e+0 1.4867274e-16 1.00000000
vn -0.70710678 3.7168186e-17 0.70710678
vn -0.70710678 3.7168186e-17 0.70710678
vn -1.00000000 -7.4336372e-17 0.0000000e+0
vn -1.00000000 -7.4336372e-17 0.0000000e+0
vn -0.70710678 -1.1150456e-16 -0.70710678
vn -0.70710678 -1.1150456e-16 -0.70710678
vn 0.0000000e+0 -1.4867274e-16 -1.00000000
vn 0.0000000e+0 -1.4867274e-16 -1.00000000
vn 0.70710678 -1.1150456e-16 -0.70710678
vn 0.70710678 -1.1150456e-16 -0.70710678
g bed2_MetaL
usemtl MetaL
f 1/524/176 9/523/1 16/530/8 8/531/190
f 2/427/179 10/426/2 9/523/1 1/524/177
f 3/405/181 11/408/3 10/426/2 2/427/178
f 4/366/183 12/382/4 11/408/3 3/405/180
f 5/328/185 13/339/5 12/382/4 4/366/182
f 6/290/187 14/301/6 13/339/5 5/328/184
f 7/267/189 15/276/7 14/301/6 6/290/186
f 8/247/191 16/257/8 15/276/7 7/267/188
f 9/523/1 17/432/9 24/528/16 16/530/8
f 10/426/2 18/420/10 17/432/9 9/523/1
f 11/408/3 19/403/11 18/420/10 10/426/2
f 12/382/4 20/383/12 19/403/11 11/408/3
f 13/339/5 21/346/13 20/383/12 12/382/4
f 14/301/6 22/319/14 21/346/13 13/339/5
f 15/276/7 23/294/15 22/319/14 14/301/6
f 16/257/8 24/264/16 23/294/15 15/276/7
f 17/432/9 25/416/17 32/422/24 24/528/16
f 18/420/10 26/410/18 25/416/17 17/432/9
f 19/403/11 27/397/19 26/410/18 18/420/10
f 20/383/12 28/384/20 27/397/19 19/403/11
f 21/346/13 29/357/21 28/384/20 20/383/12
f 22/319/14 30/338/22 29/357/21 21/346/13
f 23/294/15 31/325/23 30/338/22 22/319/14
f 24/264/16 32/316/24 31/325/23 23/294/15
f 25/416/17 33/400/25 40/386/32 32/422/24
f 26/410/18 34/401/26 33/400/25 25/416/17
f 27/397/19 35/393/27 34/401/26 26/410/18
f 28/384/20 36/385/28 35/393/27 27/397/19
f 29/357/21 37/362/29 36/385/28 28/384/20
f 30/338/22 38/352/30 37/362/29 29/357/21
f 31/325/23 39/354/31 38/352/30 30/338/22
f 32/316/24 40/386/32 39/354/31 31/325/23
f 34/401/26 35/393/27 36/385/28 37/362/29 38/352/30 39/354/31 40/386/32 33/400/25
f 41/333/192 49/337/33 56/300/40 48/295/206
f 42/369/195 50/370/34 49/337/33 41/333/193
f 43/409/197 51/406/35 50/370/34 42/369/194
f 44/428/199 52/425/36 51/406/35 43/409/196
f 45/525/201 53/522/37 52/425/36 44/428/198
f 46/532/203 54/529/38 53/522/37 45/525/200
f 47/269/205 55/275/39 54/255/38 46/248/202
f 48/295/207 56/300/40 55/275/39 47/269/204
f 49/337/33 57/345/41 64/318/48 56/300/40
f 50/370/34 58/371/42 57/345/41 49/337/33
f 51/406/35 59/402/43 58/371/42 50/370/34
f 52/425/36 60/419/44 59/402/43 51/406/35
f 53/522/37 61/431/45 60/419/44 52/425/36
f 54/529/38 62/526/46 61/431/45 53/522/37
f 55/275/39 63/291/47 62/263/46 54/255/38
f 56/300/40 64/318/48 63/291/47 55/275/39
f 57/345/41 65/355/49 72/336/56 64/318/48
f 58/371/42 66/372/50 65/355/49 57/345/41
f 59/402/43 67/394/51 66/372/50 58/371/42
f 60/419/44 68/407/52 67/394/51 59/402/43
f 61/431/45 69/415/53 68/407/52 60/419/44
f 62/526/46 70/421/54 69/415/53 61/431/45
f 63/291/47 71/324/55 70/315/54 62/263/46
f 64/318/48 72/336/56 71/324/55 63/291/47
f 65/355/49 73/361/57 80/350/64 72/336/56
f 66/372/50 74/373/58 73/361/57 65/355/49
f 67/394/51 75/390/59 74/373/58 66/372/50
f 68/407/52 76/399/60 75/390/59 67/394/51
f 69/415/53 77/398/61 76/399/60 68/407/52
f 70/421/54 78/374/62 77/398/61 69/415/53
f 71/324/55 79/351/63 78/374/62 70/315/54
f 72/336/56 80/350/64 79/351/63 71/324/55
f 74/373/58 75/390/59 76/399/60 77/398/61 78/374/62 79/351/63 80/350/64 73/361/57
f 300/20/845 303/590/857 302/591/853 301/21/849
f 300/588/847 309/586/881 308/27/877 303/23/859
f 301/599/850 305/4/866 304/2/862 300/597/846
f 301/12/852 312/16/894 315/15/906 305/11/868
f 302/581/855 313/577/897 312/16/893 301/12/851
f 303/1/858 307/596/873 306/598/869 302/3/854
f 303/23/860 308/27/878 311/28/890 307/22/876
f 304/589/863 310/587/885 309/586/882 300/588/848
f 305/580/865 306/10/870 307/9/874 304/579/861
f 305/11/867 315/15/905 314/576/902 306/578/872
f 306/578/871 314/576/901 313/577/898 302/581/856
f 307/22/875 311/28/889 310/587/886 304/589/864
f 308/594/880 313/595/900 314/6/903 311/5/891
f 309/584/883 312/585/895 313/25/899 308/24/879
f 310/593/888 315/592/908 312/7/896 309/8/884
f 311/574/892 314/575/904 315/13/907 310/14/887
f 316/258/909 324/262/112 331/282/119 323/277/923
f 317/243/912 325/246/113 324/262/112 316/258/910
f 318/227/914 326/236/114 325/246/113 317/243/911
f 319/417/916 327/413/115 326/430/114 318/433/913
f 320/391/918 328/388/116 327/413/115 319/417/915
f 321/347/920 329/342/117 328/388/116 320/391/917
f 322/312/922 330/310/118 329/342/117 321/347/919
f 323/277/924 331/282/119 330/310/118 322/312/921
f 324/262/112 332/271/120 339/284/127 331/282/119
f 325/246/113 333/253/121 332/271/120 324/262/112
f 326/236/114 334/241/122 333/253/121 325/246/113
f 327/413/115 335/396/123 334/424/122 326/430/114
f 328/388/116 336/364/124 335/396/123 327/413/115
f 329/342/117 337/335/125 336/364/124 328/388/116
f 330/310/118 338/311/126 337/335/125 329/342/117
f 331/282/119 339/284/127 338/311/126 330/310/118
f 332/271/120 340/280/128 347/293/135 339/284/127
f 333/253/121 341/274/129 340/280/128 332/271/120
f 334/241/122 342/266/130 341/274/129 333/253/121
f 335/396/123 343/359/131 342/368/130 334/424/122
f 336/364/124 344/344/132 343/359/131 335/396/123
f 337/335/125 345/327/133 344/344/132 336/364/124
f 338/311/126 346/309/134 345/327/133 337/335/125
f 339/284/127 347/293/135 346/309/134 338/311/126
f 340/280/128 348/287/136 355/298/143 347/293/135
f 341/274/129 349/289/137 348/287/136 340/280/128
f 342/266/130 350/307/138 349/289/137 341/274/129
f 343/359/131 351/330/139 350/307/138 342/368/130
f 344/344/132 352/332/140 351/330/139 343/359/131
f 345/327/133 353/322/141 352/332/140 344/344/132
f 346/309/134 354/308/142 353/322/141 345/327/133
f 347/293/135 355/298/143 354/308/142 346/309/134
f 349/289/137 350/307/138 351/330/139 352/332/140 353/322/141 354/308/142 355/298/143 348/287/136
f 356/278/925 364/281/144 371/306/151 363/313/939
f 357/259/928 365/261/145 364/281/144 356/278/926
f 358/244/930 366/245/146 365/261/145 357/259/927
f 359/228/932 367/235/147 366/245/146 358/244/929
f 360/418/934 368/412/148 367/429/147 359/434/931
f 361/392/936 369/387/149 368/412/148 360/418/933
f 362/348/938 370/341/150 369/387/149 361/392/935
f 363/313/940 371/306/151 370/341/150 362/348/937
f 364/281/144 372/283/152 379/305/159 371/306/151
f 365/261/145 373/270/153 372/283/152 364/281/144
f 366/245/146 374/252/154 373/270/153 365/261/145
f 367/235/147 375/240/155 374/252/154 366/245/146
f 368/412/148 376/395/156 375/423/155 367/429/147
f 369/387/149 377/363/157 376/395/156 368/412/148
f 370/341/150 378/334/158 377/363/157 369/387/149
f 371/306/151 379/305/159 378/334/158 370/341/150
f 372/283/152 380/292/160 387/304/167 379/305/159
f 373/270/153 381/279/161 380/292/160 372/283/152
f 374/252/154 382/273/162 381/279/161 373/270/153
f 375/240/155 383/265/163 382/273/162 374/252/154
f 376/395/156 384/358/164 383/367/163 375/423/155
f 377/363/157 385/343/165 384/358/164 376/395/156
f 378/334/158 386/326/166 385/343/165 377/363/157
f 379/305/159 387/304/167 386/326/166 378/334/158
f 380/292/160 388/297/168 395/303/175 387/304/167
f 381/279/161 389/286/169 388/297/168 380/292/160
f 382/273/162 390/288/170 389/286/169 381/279/161
f 383/265/163 391/302/171 390/288/170 382/273/162
f 384/358/164 392/329/172 391/302/171 383/367/163
f 385/343/165 393/331/173 392/329/172 384/358/164
f 386/326/166 394/321/174 393/331/173 385/343/165
f 387/304/167 395/303/175 394/321/174 386/326/166
f 389/286/169 390/288/170 391/302/171 392/329/172 393/331/173 394/321/174 395/303/175 388/297/168
g bed2_Midlle
usemtl Midlle
f 180/97/431 182/443/439 183/480/441 181/139/433
f 181/456/435 183/123/443 182/124/440 180/462/432
f 188/137/455 190/454/463 195/466/482 192/129/470
f 189/108/457 194/110/477 197/458/489 191/446/465
f 191/120/467 197/116/490 194/452/478 189/460/459
f 192/468/472 195/130/484 190/127/464 188/464/456
f 192/129/469 195/466/481 196/447/486 193/106/474
f 193/448/476 196/114/488 195/130/483 192/468/471
f 193/106/473 196/447/485 197/458/491 194/110/479
f 194/452/480 197/116/492 196/114/487 193/448/475
f 202/86/503 204/503/511 210/515/534 206/162/518
f 203/144/505 209/153/529 213/488/545 205/504/513
f 205/147/515 213/157/546 209/491/530 203/502/507
f 206/514/520 210/161/536 204/85/512 202/501/504
f 206/162/517 210/515/533 211/494/538 207/148/522
f 207/498/524 211/151/540 210/161/535 206/514/519
f 207/148/521 211/494/537 212/492/542 208/159/526
f 208/490/528 212/156/544 211/151/539 207/498/523
f 208/159/525 212/492/541 213/488/547 209/153/531
f 209/491/532 213/157/548 212/156/543 208/490/527
f 218/95/559 220/477/567 226/438/590 222/103/574
f 219/118/561 225/167/585 229/487/601 221/474/569
f 221/98/571 229/164/602 225/470/586 219/511/563
f 222/440/576 226/140/592 220/87/568 218/509/560
f 222/103/573 226/438/589 227/479/594 223/105/578
f 223/507/580 227/135/596 226/140/591 222/440/575
f 223/105/577 227/479/593 228/484/598 224/113/582
f 224/481/584 228/132/600 227/135/595 223/507/579
f 224/113/581 228/484/597 229/487/603 225/167/587
f 225/470/588 229/164/604 228/132/599 224/481/583
f 234/93/615 236/517/623 242/519/646 238/169/630
f 235/92/617 241/91/641 245/435/657 237/518/625
f 237/89/627 245/96/658 241/436/642 235/520/619
f 238/508/632 242/168/648 236/90/624 234/521/616
f 238/169/629 242/519/645 243/459/650 239/143/634
f 239/475/636 243/142/652 242/168/647 238/508/631
f 239/143/633 243/459/649 244/439/654 240/121/638
f 240/442/640 244/100/656 243/142/651 239/475/635
f 240/121/637 244/439/653 245/435/659 241/91/643
f 241/436/644 245/96/660 244/100/655 240/442/639
f 250/94/671 252/476/679 258/437/702 254/102/686
f 251/117/673 257/166/697 261/486/713 253/473/681
f 253/99/683 261/165/714 257/471/698 251/512/675
f 254/441/688 258/141/704 252/88/680 250/510/672
f 254/102/685 258/437/701 259/478/706 255/104/690
f 255/506/692 259/136/708 258/141/703 254/441/687
f 255/104/689 259/478/705 260/482/710 256/112/694
f 256/483/696 260/133/712 259/136/707 255/506/691
f 256/112/693 260/482/709 261/486/715 257/166/699
f 257/471/700 261/165/716 260/133/711 256/483/695
f 266/86/727 268/503/735 274/516/758 270/163/742
f 267/145/729 273/154/753 277/489/769 269/505/737
f 269/146/739 277/152/770 273/485/754 267/500/731
f 270/513/744 274/160/760 268/84/736 266/499/728
f 270/163/741 274/516/757 275/495/762 271/149/746
f 271/496/748 275/150/764 274/160/759 270/513/743
f 271/149/745 275/495/761 276/493/766 272/158/750
f 272/497/752 276/155/768 275/150/763 271/496/747
f 272/158/749 276/493/765 277/489/771 273/154/755
f 273/485/756 277/152/772 276/155/767 272/497/751
f 282/138/783 284/451/791 289/467/810 286/126/798
f 283/109/785 288/111/805 291/457/817 285/445/793
f 285/119/795 291/116/818 288/453/806 283/461/787
f 286/469/800 289/131/812 284/128/792 282/465/784
f 286/126/797 289/467/809 290/450/814 287/107/802
f 287/449/804 290/115/816 289/131/811 286/469/799
f 287/107/801 290/450/813 291/457/819 288/111/807
f 288/453/808 291/116/820 290/115/815 287/449/803
f 296/101/831 298/444/839 299/472/841 297/134/833
f 297/455/835 299/122/843 298/125/840 296/463/832
g bed2_Tkanina2
usemtl Tkanina2
f 81/195/208 92/223/233 147/222/336 141/189/311
f 81/323/209 114/353/276 92/233/234
f 82/190/212 141/189/312 147/222/338 93/239/69
f 83/571/214 91/320/68 145/314/332 142/573/316
f 84/570/217 142/573/318 145/314/334 89/317/67
f 85/47/220 140/567/307 155/564/101 143/37/323
f 86/79/225 111/78/272 162/534/105 166/212/108
f 86/48/224 143/37/322 111/185/271
f 87/213/65 156/272/102 144/207/327
f 87/219/65 157/225/103 156/201/102
f 88/198/66 158/224/104 160/214/376 144/186/326
f 88/198/66 159/249/371 158/224/104
f 89/216/67 92/233/232 114/353/275 90/340/226
f 89/216/67 137/30/297 84/31/219
f 89/317/67 145/314/333 147/222/337 92/223/235
f 90/340/231 138/29/301 137/30/296 89/216/67
f 90/565/228 146/560/99 155/40/101 140/44/306
f 90/565/227 148/569/100 146/560/99
f 91/320/68 93/239/69 147/222/335 145/314/331
f 93/170/69 129/81/93 123/57/282 82/55/211
f 94/67/236 96/558/70 108/559/76 106/70/259
f 94/67/237 105/68/256 104/557/75 96/558/70
f 94/541/238 146/560/99 148/569/100 105/566/257
f 95/69/240 136/80/98 134/555/96 97/556/71
f 95/296/243 148/360/100 132/205/292
f 96/558/70 104/557/75 152/563/354 108/559/76
f 97/556/71 104/557/75 105/68/255 95/69/241
f 97/556/71 134/555/96 152/563/358 104/557/75
f 98/72/246 107/71/264 109/543/77 100/544/72
f 99/74/249 101/546/73 112/535/78 110/77/267
f 100/544/72 102/545/74 103/73/251 98/72/245
f 100/544/72 109/543/77 153/561/363 102/545/74
f 101/546/73 164/542/389 112/535/78
f 102/545/74 153/561/361 101/546/73
f 103/73/252 102/545/74 101/546/73 99/74/248
f 103/45/253 155/40/101 107/188/265 98/50/247
f 105/414/258 148/360/100 95/296/244
f 106/70/260 108/559/76 109/543/77 107/71/263
f 106/238/262 146/560/99 94/541/239
f 107/188/266 155/40/101 146/560/99 106/238/261
f 108/537/76 152/256/356 153/583/362 109/572/77
f 110/77/270 112/535/78 162/534/105 111/78/274
f 110/231/269 155/564/101 103/568/254 99/547/250
f 111/185/273 143/37/325 155/564/101 110/231/268
f 113/60/79 118/83/83 135/82/97 131/64/286
f 113/60/79 122/59/87 120/171/85 118/83/83
f 114/43/281 148/360/100 90/411/230
f 115/61/80 130/76/94 128/174/92 119/172/84
f 115/63/80 150/56/344 124/193/88
f 116/549/81 121/553/86 154/562/366 133/554/95
f 117/548/82 126/552/90 154/562/369 121/553/86
f 118/83/83 120/171/85 121/553/86 116/549/81
f 119/172/84 117/548/82 121/553/86 120/171/85
f 119/172/84 128/174/92 126/552/90 117/548/82
f 120/171/85 122/59/87 115/61/80 119/172/84
f 122/51/87 151/54/349 150/56/345 115/63/80
f 123/57/283 129/81/93 130/76/94 124/58/88
f 123/234/285 141/540/315 82/538/213
f 124/58/88 130/76/94 115/61/80
f 124/193/88 150/56/348 141/540/314 123/234/284
f 125/551/89 127/176/91 91/184/68 83/550/215
f 125/26/89 142/17/320 154/62/368 126/41/90
f 126/552/90 128/174/92 127/176/91 125/551/89
f 127/176/91 129/81/93 93/170/69 91/184/68
f 128/174/92 130/76/94 129/81/93 127/176/91
f 131/64/287 135/82/97 136/80/98 132/66/290
f 131/175/289 149/46/343 113/49/79
f 132/66/291 136/80/98 95/69/242
f 132/205/293 148/360/100 149/46/342 131/175/288
f 133/554/95 135/82/97 118/83/83 116/549/81
f 133/187/95 154/62/370 152/256/357 134/203/96
f 134/555/96 136/80/98 135/82/97 133/554/95
f 137/65/295 154/62/367 142/17/319 84/18/218
f 138/254/298 152/256/353 154/62/365 137/65/294
f 139/33/305 140/356/310 170/36/111
f 139/582/303 153/583/360 152/256/355 138/254/299
f 140/356/308 139/33/304 138/29/300 90/340/229
f 141/540/313 150/56/346 114/52/279 81/536/210
f 142/17/317 125/26/89 83/19/216
f 143/389/324 172/192/401 168/194/110 85/365/221
f 144/207/330 156/272/102 161/285/383
f 144/242/328 160/260/377 157/225/103 87/219/65
f 144/186/329 161/217/380 159/249/372 88/198/66
f 149/46/339 148/360/100 114/43/277
f 149/46/341 151/39/352 122/42/87 113/49/79
f 150/56/347 151/53/351 114/52/280
f 151/38/350 149/46/340 114/43/278
f 156/272/102 165/349/107 175/404/416 161/285/382
f 157/225/103 167/237/109 163/200/106 156/201/102
f 158/224/104 169/250/390 173/221/405 160/214/378
f 159/206/373 171/202/395 169/539/391 158/527/104
f 159/249/375 175/226/420 171/268/399
f 160/260/379 173/251/406 167/237/109 157/225/103
f 161/217/381 175/226/415 159/249/374
f 162/196/105 164/210/385 165/199/107 163/191/106
f 163/200/106 165/197/107 156/201/102
f 163/533/106 167/232/109 166/212/108 162/534/105
f 164/542/384 162/534/105 112/535/78
f 164/229/386 175/218/418 165/215/107
f 166/212/108 172/211/400 143/75/321 86/79/223
f 167/232/109 173/221/407 166/212/108
f 168/194/110 170/36/111 140/356/309 85/365/222
f 168/194/110 172/192/403 169/173/394
f 169/173/392 171/35/396 170/36/111 168/194/110
f 170/36/111 174/34/410 153/32/359 139/33/302
f 171/35/398 174/34/412 170/36/111
f 172/211/404 166/212/108 173/221/409
f 173/221/408 169/250/393 172/211/402
f 174/220/414 164/230/388 101/209/73 153/204/364
f 174/208/411 171/268/397 175/226/417
f 175/299/419 164/230/387 174/220/413
g bed2_start
usemtl start
f 176/380/422 180/381/430 182/178/438 177/177/424
f 177/379/423 182/381/437 180/179/429 176/177/421
f 178/180/425 181/181/434 183/378/442 179/377/427
f 179/180/428 183/181/444 181/378/436 178/377/426
f 184/380/446 188/381/454 190/178/462 185/177/448
f 185/379/447 190/381/461 188/179/453 184/177/445
f 186/180/449 189/183/458 191/378/466 187/375/451
f 187/182/452 191/181/468 189/376/460 186/377/450
f 198/380/494 202/381/502 204/178/510 199/177/496
f 199/379/495 204/381/509 202/179/501 198/177/493
f 200/180/497 203/181/506 205/378/514 201/377/499
f 201/180/500 205/181/516 203/378/508 200/377/498
f 214/379/550 218/381/558 220/179/566 215/177/552
f 215/379/551 220/381/565 218/179/557 214/177/549
f 216/177/553 219/181/562 221/381/570 217/377/555
f 217/182/556 221/181/572 219/376/564 216/377/554
f 230/379/606 234/381/614 236/179/622 231/177/608
f 231/379/607 236/381/621 234/179/613 230/177/605
f 232/180/609 235/183/618 237/378/626 233/375/611
f 233/182/612 237/181/628 235/376/620 232/377/610
f 246/380/662 250/381/670 252/178/678 247/177/664
f 247/379/663 252/381/677 250/179/669 246/177/661
f 248/180/665 251/183/674 253/378/682 249/375/667
f 249/182/668 253/181/684 251/376/676 248/377/666
f 262/380/718 266/381/726 268/178/734 263/177/720
f 263/379/719 268/381/733 266/179/725 262/177/717
f 264/180/721 267/181/730 269/378/738 265/377/723
f 265/180/724 269/181/740 267/378/732 264/377/722
f 278/379/774 282/381/782 284/178/790 279/177/776
f 279/380/775 284/381/789 282/178/781 278/177/773
f 280/180/777 283/181/786 285/378/794 281/377/779
f 281/180/780 285/181/796 283/378/788 280/377/778
f 292/380/822 296/381/830 298/179/838 293/177/824
f 293/380/823 298/381/837 296/179/829 292/177/821
f 294/180/825 297/181/834 299/378/842 295/377/827
f 295/180/828 299/181/844 297/378/836 294/377/826
