# Exported from Wings 3D 1.0.2
mtllib Bed3.mtl
o Bed3
#300 vertices, 254 faces
v -7.35120821 1.95644351 19.05893709
v -7.44030399 1.95644351 19.27403331
v -7.65540021 1.95644351 19.36312909
v -7.87049644 1.95644351 19.27403331
v -7.95959221 1.95644351 19.05893709
v -7.87049644 1.95644351 18.84384086
v -7.65540021 1.95644351 18.75474509
v -7.44030399 1.95644351 18.84384086
v -7.35120821 -4.98701875 19.05893709
v -7.44030399 -4.98701875 19.27403331
v -7.65540021 -4.98701875 19.36312909
v -7.87049644 -4.98701875 19.27403331
v -7.95959221 -4.98701875 19.05893709
v -7.87049644 -4.98701875 18.84384086
v -7.65540021 -4.98701875 18.75474509
v -7.44030399 -4.98701875 18.84384086
v -7.15516673 -5.14215429 19.05893709
v -7.30168173 -5.14215429 19.41265557
v -7.65540021 -5.14215429 19.55917057
v -8.00911870 -5.14215429 19.41265557
v -8.15563369 -5.14215429 19.05893709
v -8.00911870 -5.14215429 18.70521860
v -7.65540021 -5.14215429 18.55870361
v -7.30168173 -5.14215429 18.70521860
v -7.15516673 -5.49459536 19.05893709
v -7.30168173 -5.49459536 19.41265557
v -7.65540021 -5.49459536 19.55917057
v -8.00911870 -5.49459536 19.41265557
v -8.15563369 -5.49459536 19.05893709
v -8.00911870 -5.49459536 18.70521860
v -7.65540021 -5.49459536 18.55870361
v -7.30168173 -5.49459536 18.70521860
v -7.35526013 -5.61549340 19.05893709
v -7.44316912 -5.61549340 19.27116818
v -7.65540021 -5.61549340 19.35907717
v -7.86763131 -5.61549340 19.27116818
v -7.95554030 -5.61549340 19.05893709
v -7.86763131 -5.61549340 18.84670599
v -7.65540021 -5.61549340 18.75879700
v -7.44316912 -5.61549340 18.84670599
v 10.25523522 1.95644351 19.05893709
v 10.16613945 1.95644351 19.27403331
v 9.95104322 1.95644351 19.36312909
v 9.73594699 1.95644351 19.27403331
v 9.64685122 1.95644351 19.05893709
v 9.73594699 1.95644351 18.84384086
v 9.95104322 1.95644351 18.75474509
v 10.16613945 1.95644351 18.84384086
v 10.25523522 -4.98701875 19.05893709
v 10.16613945 -4.98701875 19.27403331
v 9.95104322 -4.98701875 19.36312909
v 9.73594699 -4.98701875 19.27403331
v 9.64685122 -4.98701875 19.05893709
v 9.73594699 -4.98701875 18.84384086
v 9.95104322 -4.98701875 18.75474509
v 10.16613945 -4.98701875 18.84384086
v 10.45127670 -5.14215429 19.05893709
v 10.30476171 -5.14215429 19.41265557
v 9.95104322 -5.14215429 19.55917057
v 9.59732473 -5.14215429 19.41265557
v 9.45080974 -5.14215429 19.05893709
v 9.59732473 -5.14215429 18.70521860
v 9.95104322 -5.14215429 18.55870361
v 10.30476171 -5.14215429 18.70521860
v 10.45127670 -5.49459536 19.05893709
v 10.30476171 -5.49459536 19.41265557
v 9.95104322 -5.49459536 19.55917057
v 9.59732473 -5.49459536 19.41265557
v 9.45080974 -5.49459536 19.05893709
v 9.59732473 -5.49459536 18.70521860
v 9.95104322 -5.49459536 18.55870361
v 10.30476171 -5.49459536 18.70521860
v 10.25118331 -5.61549340 19.05893709
v 10.16327431 -5.61549340 19.27116818
v 9.95104322 -5.61549340 19.35907717
v 9.73881213 -5.61549340 19.27116818
v 9.65090313 -5.61549340 19.05893709
v 9.73881213 -5.61549340 18.84670599
v 9.95104322 -5.61549340 18.75879700
v 10.16327431 -5.61549340 18.84670599
v 7.83958626 2.22669826 19.29574215
v 8.82843426 2.22669826 19.29574215
v 7.83958626 2.22669826 -18.46078483
v 8.82843426 2.22669826 -18.46078483
v 7.83958626 2.22669826 17.76031005
v 7.83958626 2.22669826 -16.92535273
v 8.82843426 2.22669826 17.76031005
v 8.82843426 2.22669826 -16.92535273
v 5.98176423 2.22669826 19.29574215
v 6.97061223 2.22669826 19.29574215
v 5.98176423 2.22669826 -18.46078483
v 6.97061223 2.22669826 -18.46078483
v 5.98176423 2.22669826 17.76031005
v 5.98176423 2.22669826 -16.92535273
v 6.97061223 2.22669826 17.76031005
v 6.97061223 2.22669826 -16.92535273
v 5.98176423 2.02450405 9.08889435
v 5.98176423 1.85179649 0.41747866
v 5.98176423 2.02450405 -8.25393704
v 6.97061223 2.02450405 9.08889435
v 6.97061223 1.85179649 0.41747866
v 6.97061223 2.02450405 -8.25393704
v 4.16616542 2.22669826 19.29574215
v 5.15501342 2.22669826 19.29574215
v 4.16616542 2.22669826 -18.46078483
v 5.15501342 2.22669826 -18.46078483
v 4.16616542 2.22669826 17.76031005
v 4.16616542 2.22669826 -16.92535273
v 5.15501342 2.22669826 17.76031005
v 5.15501342 2.22669826 -16.92535273
v 4.16616542 1.98659263 10.82317749
v 4.16616542 1.88970790 3.88604494
v 4.16616542 1.88970790 -3.05108762
v 4.16616542 1.98659263 -9.98822018
v 5.15501342 1.98659263 10.82317749
v 5.15501342 1.88970790 3.88604494
v 5.15501342 1.88970790 -3.05108762
v 5.15501342 1.98659263 -9.98822018
v 2.30834339 2.22669826 19.29574215
v 3.29719139 2.22669826 19.29574215
v 2.30834339 2.22669826 -18.46078483
v 3.29719139 2.22669826 -18.46078483
v 2.30834339 2.22669826 17.76031005
v 2.30834339 2.22669826 -16.92535273
v 3.29719139 2.22669826 17.76031005
v 3.29719139 2.22669826 -16.92535273
v 2.30834339 1.85600887 10.82317749
v 2.30834339 1.64960227 3.88604494
v 2.30834339 1.64960227 -3.05108762
v 2.30834339 1.85600887 -9.98822018
v 3.29719139 1.85600887 10.82317749
v 3.29719139 1.64960227 3.88604494
v 3.29719139 1.64960227 -3.05108762
v 3.29719139 1.85600887 -9.98822018
v 0.43644694 2.22669826 19.29574215
v 1.42529494 2.22669826 19.29574215
v 0.43644694 2.22669826 -18.46078483
v 1.42529494 2.22669826 -18.46078483
v 0.43644694 2.22669826 17.76031005
v 0.43644694 2.22669826 -16.92535273
v 1.42529494 2.22669826 17.76031005
v 1.42529494 2.22669826 -16.92535273
v 0.43644694 1.81388507 10.82317749
v 0.43644694 1.46846995 3.88604494
v 0.43644694 1.46846995 -3.05108762
v 0.43644694 1.81388507 -9.98822018
v 1.42529494 1.81388507 10.82317749
v 1.42529494 1.46846995 3.88604494
v 1.42529494 1.46846995 -3.05108762
v 1.42529494 1.81388507 -9.98822018
v -1.42137509 2.22669826 19.29574215
v -0.43252709 2.22669826 19.29574215
v -1.42137509 2.22669826 -18.46078483
v -0.43252709 2.22669826 -18.46078483
v -1.42137509 2.22669826 17.76031005
v -1.42137509 2.22669826 -16.92535273
v -0.43252709 2.22669826 17.76031005
v -0.43252709 2.22669826 -16.92535273
v -1.42137509 1.85600887 10.82317749
v -1.42137509 1.64960227 3.88604494
v -1.42137509 1.64960227 -3.05108762
v -1.42137509 1.85600887 -9.98822018
v -0.43252709 1.85600887 10.82317749
v -0.43252709 1.64960227 3.88604494
v -0.43252709 1.64960227 -3.05108762
v -0.43252709 1.85600887 -9.98822018
v -3.23697389 2.22669826 19.29574215
v -2.24812589 2.22669826 19.29574215
v -3.23697389 2.22669826 -18.46078483
v -2.24812589 2.22669826 -18.46078483
v -3.23697389 2.22669826 17.76031005
v -3.23697389 2.22669826 -16.92535273
v -2.24812589 2.22669826 17.76031005
v -2.24812589 2.22669826 -16.92535273
v -3.23697389 1.98659263 10.82317749
v -3.23697389 1.88970790 3.88604494
v -3.23697389 1.88970790 -3.05108762
v -3.23697389 1.98659263 -9.98822018
v -2.24812589 1.98659263 10.82317749
v -2.24812589 1.88970790 3.88604494
v -2.24812589 1.88970790 -3.05108762
v -2.24812589 1.98659263 -9.98822018
v -5.09479593 2.22669826 19.29574215
v -4.10594793 2.22669826 19.29574215
v -5.09479593 2.22669826 -18.46078483
v -4.10594793 2.22669826 -18.46078483
v -5.09479593 2.22669826 17.76031005
v -5.09479593 2.22669826 -16.92535273
v -4.10594793 2.22669826 17.76031005
v -4.10594793 2.22669826 -16.92535273
v -5.09479593 2.02450405 9.08889435
v -5.09479593 1.85179649 0.41747866
v -5.09479593 2.02450405 -8.25393704
v -4.10594793 2.02450405 9.08889435
v -4.10594793 1.85179649 0.41747866
v -4.10594793 2.02450405 -8.25393704
v -6.84002269 2.22669826 19.29574215
v -5.85117469 2.22669826 19.29574215
v -6.84002269 2.22669826 -18.46078483
v -5.85117469 2.22669826 -18.46078483
v -6.84002269 2.22669826 17.76031005
v -6.84002269 2.22669826 -16.92535273
v -5.85117469 2.22669826 17.76031005
v -5.85117469 2.22669826 -16.92535273
v -8.21374494 1.56554669 19.66476473
v -8.21374494 2.22242669 19.66476473
v 10.37638612 2.22242669 19.66476473
v 10.37638612 1.56554669 19.66476473
v -8.21374494 1.56554669 -18.87224757
v -8.21374494 2.22242669 -18.87224757
v 10.37638612 2.22242669 -18.87224757
v 10.37638612 1.56554669 -18.87224757
v 9.61435523 1.56554669 18.90273384
v -7.45171406 1.56554669 18.90273384
v -7.45171406 1.56554669 -18.11021668
v 9.61435523 1.56554669 -18.11021668
v -7.45171406 2.22242669 18.90273384
v 9.61435523 2.22242669 18.90273384
v 9.61435523 2.22242669 -18.11021668
v -7.45171406 2.22242669 -18.11021668
v -7.37367708 1.95644351 -18.29974301
v -7.46277285 1.95644351 -18.08464678
v -7.67786908 1.95644351 -17.99555101
v -7.89296530 1.95644351 -18.08464678
v -7.98206108 1.95644351 -18.29974301
v -7.89296530 1.95644351 -18.51483923
v -7.67786908 1.95644351 -18.60393501
v -7.46277285 1.95644351 -18.51483923
v -7.37367708 -4.98701875 -18.29974301
v -7.46277285 -4.98701875 -18.08464678
v -7.67786908 -4.98701875 -17.99555101
v -7.89296530 -4.98701875 -18.08464678
v -7.98206108 -4.98701875 -18.29974301
v -7.89296530 -4.98701875 -18.51483923
v -7.67786908 -4.98701875 -18.60393501
v -7.46277285 -4.98701875 -18.51483923
v -7.17763560 -5.14215429 -18.29974301
v -7.32415059 -5.14215429 -17.94602452
v -7.67786908 -5.14215429 -17.79950953
v -8.03158756 -5.14215429 -17.94602452
v -8.17810256 -5.14215429 -18.29974301
v -8.03158756 -5.14215429 -18.65346149
v -7.67786908 -5.14215429 -18.79997649
v -7.32415059 -5.14215429 -18.65346149
v -7.17763560 -5.49459536 -18.29974301
v -7.32415059 -5.49459536 -17.94602452
v -7.67786908 -5.49459536 -17.79950953
v -8.03158756 -5.49459536 -17.94602452
v -8.17810256 -5.49459536 -18.29974301
v -8.03158756 -5.49459536 -18.65346149
v -7.67786908 -5.49459536 -18.79997649
v -7.32415059 -5.49459536 -18.65346149
v -7.37772899 -5.61549340 -18.29974301
v -7.46563798 -5.61549340 -18.08751192
v -7.67786908 -5.61549340 -17.99960292
v -7.89010017 -5.61549340 -18.08751192
v -7.97800916 -5.61549340 -18.29974301
v -7.89010017 -5.61549340 -18.51197410
v -7.67786908 -5.61549340 -18.59988310
v -7.46563798 -5.61549340 -18.51197410
v 10.17303207 1.95644351 -18.27234196
v 10.08393629 1.95644351 -18.05724573
v 9.86884007 1.95644351 -17.96814996
v 9.65374384 1.95644351 -18.05724573
v 9.56464807 1.95644351 -18.27234196
v 9.65374384 1.95644351 -18.48743818
v 9.86884007 1.95644351 -18.57653396
v 10.08393629 1.95644351 -18.48743818
v 10.17303207 -4.98701875 -18.27234196
v 10.08393629 -4.98701875 -18.05724573
v 9.86884007 -4.98701875 -17.96814996
v 9.65374384 -4.98701875 -18.05724573
v 9.56464807 -4.98701875 -18.27234196
v 9.65374384 -4.98701875 -18.48743818
v 9.86884007 -4.98701875 -18.57653396
v 10.08393629 -4.98701875 -18.48743818
v 10.36907355 -5.14215429 -18.27234196
v 10.22255855 -5.14215429 -17.91862347
v 9.86884007 -5.14215429 -17.77210848
v 9.51512158 -5.14215429 -17.91862347
v 9.36860659 -5.14215429 -18.27234196
v 9.51512158 -5.14215429 -18.62606044
v 9.86884007 -5.14215429 -18.77257544
v 10.22255855 -5.14215429 -18.62606044
v 10.36907355 -5.49459536 -18.27234196
v 10.22255855 -5.49459536 -17.91862347
v 9.86884007 -5.49459536 -17.77210848
v 9.51512158 -5.49459536 -17.91862347
v 9.36860659 -5.49459536 -18.27234196
v 9.51512158 -5.49459536 -18.62606044
v 9.86884007 -5.49459536 -18.77257544
v 10.22255855 -5.49459536 -18.62606044
v 10.16898015 -5.61549340 -18.27234196
v 10.08107116 -5.61549340 -18.06011087
v 9.86884007 -5.61549340 -17.97220187
v 9.65660897 -5.61549340 -18.06011087
v 9.56869998 -5.61549340 -18.27234196
v 9.65660897 -5.61549340 -18.48457305
v 9.86884007 -5.61549340 -18.57248204
v 10.08107116 -5.61549340 -18.48457305
vt -2.40550908 -4.1002940e-2
vt -2.40550908 -2.7150595e-2
vt -2.40550908 5.4855285e-2
vt -2.40550908 6.8707629e-2
vt -2.31037601 0.79937374
vt -2.31037601 0.89523196
vt -2.31037601 0.90908431
vt -2.31037601 0.81322608
vt -1.16040986 0.82707843
vt -1.16040986 0.92293665
vt -1.16040986 3.24588576
vt -1.16040986 -2.37780439
vt -1.06527679 0.93678900
vt -1.06527679 0.84093077
vt -1.04920701 3.13468291
vt -1.04920701 -2.26660154
vt -0.76837950 0.82707843
vt -0.76837950 0.92293665
vt -0.76837950 3.24588576
vt -0.76837950 -2.37780439
vt -0.70538598 0.84093077
vt -0.70538598 0.93678900
vt -0.65717665 -2.26660154
vt -0.65717665 3.13468291
vt 8.7775395e-3 -7.04636039
vt 8.7775395e-3 -7.04636039
vt 8.7775395e-3 -7.04636039
vt 8.7775395e-3 -7.04989981
vt 8.7775395e-3 -7.04989981
vt 8.7775395e-3 8.05333600
vt 8.7775395e-3 -7.05333600
vt 8.7775395e-3 5.03029398
vt 8.7775395e-3 8.05333600
vt 8.7775395e-3 -7.05333600
vt 8.7775395e-3 -7.04989981
vt 8.7775395e-3 -7.04989981
vt 8.7775395e-3 5.03029398
vt 8.7775395e-3 -7.04425909
vt 8.7775395e-3 8.04989981
vt 8.7775395e-3 8.04989981
vt 8.7775395e-3 2.00885182
vt 8.7775395e-3 -7.04425909
vt 8.7775395e-3 -4.02789094
vt 8.7775395e-3 -4.02789094
vt 8.7775395e-3 -1.00885182
vt 8.7775395e-3 -1.00885182
vt 8.7775395e-3 0.50000000
vt 8.7775395e-3 0.50000000
vt 8.7775395e-3 8.04603249
vt 8.7775395e-3 8.04603249
vt 8.7775395e-3 4.27287764
vt 8.7775395e-3 4.27287764
vt 8.7775395e-3 2.00885182
vt 8.7775395e-3 2.00885182
vt 8.7775395e-3 0.50000000
vt 8.7775395e-3 0.50000000
vt 8.7775395e-3 4.27287764
vt 8.7775395e-3 8.04989981
vt 8.7775395e-3 8.04989981
vt 8.7775395e-3 8.04603249
vt 8.7775395e-3 8.04603249
vt 8.7775395e-3 2.00885182
vt 8.7775395e-3 8.04425909
vt 8.7775395e-3 8.04425909
vt 8.7775395e-3 -7.04425909
vt 8.7775395e-3 -7.04425909
vt 8.7775395e-3 -3.27287764
vt 8.7775395e-3 -7.04603249
vt 8.7775395e-3 -7.04603249
vt 8.7775395e-3 -3.27287764
vt 8.7775395e-3 -3.27287764
vt 8.7775395e-3 -3.27287764
vt 8.7775395e-3 2.00885182
vt 8.7775395e-3 2.00885182
vt 8.7775395e-3 8.04425909
vt 8.7775395e-3 -1.00885182
vt 8.7775395e-3 -1.00885182
vt 8.7775395e-3 -7.04603249
vt 8.7775395e-3 -7.04603249
vt 8.7775395e-3 8.04425909
vt 8.7775395e-3 -4.02789094
vt 8.7775395e-3 -4.02789094
vt 8.7775395e-3 -1.00885182
vt 8.7775395e-3 -1.00885182
vt 8.7775395e-3 8.04636039
vt 8.7775395e-3 8.04636039
vt 8.7775395e-3 8.04636039
vt 8.7775395e-3 8.04636039
vt 8.7775395e-3 -1.00885182
vt 8.7775395e-3 -1.00885182
vt 8.7775395e-3 -1.00885182
vt 8.7775395e-3 -1.00885182
vt 8.7775395e-3 5.02684974
vt 8.7775395e-3 5.02684974
vt 8.7775395e-3 5.02684974
vt 8.7775395e-3 2.00885182
vt 8.7775395e-3 2.00885182
vt 8.7775395e-3 5.02684974
vt 8.7775395e-3 2.00885182
vt 8.7775395e-3 2.00885182
vt 8.7775395e-3 -4.02684974
vt 8.7775395e-3 -4.02684974
vt 8.7775395e-3 -4.02684974
vt 8.7775395e-3 -4.02684974
vt 8.7775395e-3 5.02789094
vt 8.7775395e-3 5.02789094
vt 8.7775395e-3 5.02789094
vt 8.7775395e-3 5.02789094
vt 8.7775395e-3 -4.03029398
vt 8.7775395e-3 -4.03029398
vt 0.10539646 0.0000000e+0
vt 0.10539646 1.00000000
vt 0.10539646 1.00000000
vt 0.10539646 0.0000000e+0
vt 0.10539646 1.00000000
vt 0.10539646 0.0000000e+0
vt 0.10539646 1.00000000
vt 0.68796696 1.10281145
vt 0.68796696 0.93120625
vt 0.69774813 -0.15619380
vt 0.69774813 1.5411399e-2
vt 0.71474616 -0.21729162
vt 0.71474616 -4.5686416e-2
vt 0.72442813 1.10313942
vt 0.72442813 0.93153422
vt 0.73379479 -0.15393474
vt 0.73379479 1.7670465e-2
vt 0.74207720 0.92578508
vt 0.74545552 -0.63784054
vt 0.75508064 -0.18445349
vt 0.75508064 -1.2848291e-2
vt 0.75794607 0.44953176
vt 0.75901762 -0.16152701
vt 0.76086116 1.10346406
vt 0.76086116 0.93185885
vt 0.76810380 -0.15148381
vt 0.76810380 2.0121387e-2
vt 0.77509629 0.51058704
vt 0.77641756 -0.22251158
vt 0.77800608 -0.25502261
vt 0.77800608 -8.3417407e-2
vt 0.77853543 0.92635310
vt 0.78191577 -0.63825936
vt 0.78253397 -0.17079784
vt 0.78253397 8.0736352e-4
vt 0.78863644 -0.20887860
vt 0.78863644 -3.7273398e-2
vt 0.79398700 0.44718289
vt 0.79504864 -0.15903066
vt 0.79729942 1.10378128
vt 0.79729942 0.93217608
vt 0.80081102 -0.18916039
vt 0.80081102 -1.7555188e-2
vt 0.80120049 -0.14980106
vt 0.80120049 2.1804146e-2
vt 0.80808525 -0.16486681
vt 0.80808525 6.7383914e-3
vt 0.81350598 -0.19928935
vt 0.81350598 -2.7684148e-2
vt 0.81424507 -0.21638716
vt 0.81424507 -4.4781953e-2
vt 0.81496553 0.92691760
vt 0.81534882 0.47764851
vt 0.81632316 -0.18029976
vt 0.81632316 -8.6945618e-3
vt 0.81653496 -0.18940861
vt 0.81834788 -0.63867477
vt 0.82194014 -0.18951064
vt 0.82194014 -1.7905435e-2
vt 0.82828979 0.44464649
vt 0.82934076 -0.15635390
vt 0.83373703 -0.23898793
vt 0.83373703 -0.18645140
vt 0.83373703 -0.17798399
vt 0.83373703 -0.16323615
vt 0.83373703 -0.14919504
vt 0.83373703 -6.7382731e-2
vt 0.83373703 -1.4846200e-2
vt 0.83373703 -6.3787912e-3
vt 0.83373703 2.2410161e-2
vt 0.83373703 8.3690526e-3
vt 0.83373703 1.10409059
vt 0.83373703 0.93248539
vt 0.83845003 0.54816029
vt 0.83992453 -0.25982525
vt 0.84276804 0.46392450
vt 0.84389778 -0.17557249
vt 0.84553391 -0.18951064
vt 0.84553391 -1.7905435e-2
vt 0.84896538 0.50198994
vt 0.85025085 -0.21361225
vt 0.85115090 -0.18029976
vt 0.85115090 -8.6945618e-3
vt 0.85140091 0.92747473
vt 0.85322898 -0.21638716
vt 0.85322898 -4.4781953e-2
vt 0.85396808 -0.19928935
vt 0.85396808 -2.7684148e-2
vt 0.85478523 -0.63908279
vt 0.85938881 -0.16486681
vt 0.85938881 6.7383914e-3
vt 0.86109079 0.48224145
vt 0.86138219 0.44288127
vt 0.86229534 -0.19381431
vt 0.86242566 -0.15445327
vt 0.86627356 -0.14980106
vt 0.86627356 2.1804146e-2
vt 0.86666303 -0.18916039
vt 0.86666303 -1.7555188e-2
vt 0.86830446 0.45792982
vt 0.86940946 -0.16947337
vt 0.87017463 1.10378128
vt 0.87017463 0.93217608
vt 0.87381095 0.49233875
vt 0.87459264 0.50943466
vt 0.87505671 -0.20385947
vt 0.87590836 -0.22095204
vt 0.87658080 0.47334220
vt 0.87774880 -0.18485175
vt 0.87883762 -0.20887860
vt 0.87883762 -3.7273398e-2
vt 0.88222072 0.48253905
vt 0.88342631 -0.19402544
vt 0.88494009 -0.17079784
vt 0.88494009 8.0736352e-4
vt 0.88783569 0.92802394
vt 0.88946797 -0.25502261
vt 0.88946797 -8.3417407e-2
vt 0.89122196 -0.63948289
vt 0.89391712 0.44219419
vt 0.89395210 0.45623525
vt 0.89398885 0.47098305
vt 0.89400995 0.47945043
vt 0.89414085 0.53198680
vt 0.89460354 0.0000000e+0
vt 0.89460354 1.00000000
vt 0.89460354 0.0000000e+0
vt 0.89460354 1.00000000
vt 0.89460354 0.0000000e+0
vt 0.89460354 1.7763568e-15
vt 0.89460354 1.00000000
vt 0.89495750 -0.15363304
vt 0.89504995 -0.16767385
vt 0.89514705 -0.18242137
vt 0.89520280 -0.19088860
vt 0.89554870 -0.24342399
vt 0.89937026 -0.15148381
vt 0.89937026 2.0121387e-2
vt 0.90581442 0.48248027
vt 0.90661289 1.10346406
vt 0.90661289 0.93185885
vt 0.90701957 -0.19387009
vt 0.91140843 0.47325542
vt 0.91239342 -0.18445349
vt 0.91239342 -1.2848291e-2
vt 0.91257579 -0.18462244
vt 0.91357643 0.50933753
vt 0.91427292 0.49223793
vt 0.91489143 -0.22069537
vt 0.91551793 -0.20359306
vt 0.91960786 0.45780199
vt 0.92071191 -0.16913558
vt 0.92427454 0.92795454
vt 0.92645506 0.44271913
vt 0.92694260 0.48207737
vt 0.92749732 -0.15402482
vt 0.92766022 -0.63926436
vt 0.92814592 -0.19338074
vt 0.93367926 -0.15393474
vt 0.93367926 1.7670465e-2
vt 0.93916627 0.50176519
vt 0.94045007 -0.21301837
vt 0.94304592 1.10313942
vt 0.94304592 0.93153422
vt 0.94517384 0.46366934
vt 0.94630168 -0.17489825
vt 0.94991157 0.54788257
vt 0.95138401 -0.25909138
vt 0.95272789 -0.21729162
vt 0.95272789 -4.5686416e-2
vt 0.95955585 0.44431942
vt 0.96060438 -0.15548964
vt 0.96071410 0.92787724
vt 0.96409916 -0.63903793
vt 0.96972593 -0.15619380
vt 0.96972593 1.5411399e-2
vt 0.97266111 0.47725655
vt 0.97384433 -0.18837286
vt 0.97950710 1.10281145
vt 0.97950710 0.93120625
vt 0.99122246 5.03029398
vt 0.99122246 5.03029398
vt 0.99122246 -4.02789094
vt 0.99122246 -4.02789094
vt 0.99122246 2.00885182
vt 0.99122246 -4.02789094
vt 0.99122246 -4.02789094
vt 0.99122246 2.00885182
vt 0.99122246 -7.04425909
vt 0.99122246 -7.04425909
vt 0.99122246 8.04603249
vt 0.99122246 8.04603249
vt 0.99122246 0.50000000
vt 0.99122246 0.50000000
vt 0.99122246 0.50000000
vt 0.99122246 0.50000000
vt 0.99122246 -7.04603249
vt 0.99122246 4.27287764
vt 0.99122246 4.27287764
vt 0.99122246 -7.04603249
vt 0.99122246 8.04425909
vt 0.99122246 8.04425909
vt 0.99122246 4.27287764
vt 0.99122246 4.27287764
vt 0.99122246 -1.00885182
vt 0.99122246 8.04603249
vt 0.99122246 8.04603249
vt 0.99122246 -7.04425909
vt 0.99122246 -7.04425909
vt 0.99122246 -7.04603249
vt 0.99122246 -7.04603249
vt 0.99122246 -3.27287764
vt 0.99122246 -3.27287764
vt 0.99122246 -3.27287764
vt 0.99122246 -3.27287764
vt 0.99122246 5.02789094
vt 0.99122246 5.02789094
vt 0.99122246 8.04425909
vt 0.99122246 8.04989981
vt 0.99122246 8.04989981
vt 0.99122246 -1.00885182
vt 0.99122246 -7.04989981
vt 0.99122246 -7.04989981
vt 0.99122246 -1.00885182
vt 0.99122246 -1.00885182
vt 0.99122246 8.04425909
vt 0.99122246 2.00885182
vt 0.99122246 2.00885182
vt 0.99122246 2.00885182
vt 0.99122246 2.00885182
vt 0.99122246 5.02684974
vt 0.99122246 5.02789094
vt 0.99122246 5.02789094
vt 0.99122246 5.02684974
vt 0.99122246 5.02684974
vt 0.99122246 2.00885182
vt 0.99122246 5.02684974
vt 0.99122246 2.00885182
vt 0.99122246 2.00885182
vt 0.99122246 -1.00885182
vt 0.99122246 -1.00885182
vt 0.99122246 -1.00885182
vt 0.99122246 2.00885182
vt 0.99122246 -1.00885182
vt 0.99122246 -7.04636039
vt 0.99122246 8.04636039
vt 0.99122246 -7.04636039
vt 0.99122246 8.04636039
vt 0.99122246 -7.04636039
vt 0.99122246 8.04636039
vt 0.99122246 8.04636039
vt 0.99122246 -1.00885182
vt 0.99122246 -1.00885182
vt 0.99122246 -4.03029398
vt 0.99122246 -7.04989981
vt 0.99122246 -7.04989981
vt 0.99122246 8.04989981
vt 0.99122246 8.04989981
vt 0.99122246 -4.02684974
vt 0.99122246 -4.02684974
vt 0.99122246 -4.02684974
vt 0.99122246 -4.02684974
vt 0.99122246 -7.05333600
vt 0.99122246 8.05333600
vt 0.99122246 -4.03029398
vt 0.99122246 8.05333600
vt 0.99122246 -7.05333600
vt 0.99387085 0.44668485
vt 0.99492877 -0.15771462
vt 0.99714848 0.92779248
vt 1.00053288 -0.63880407
vt 1.01307729 0.50999407
vt 1.01439414 -0.22094471
vt 1.02992303 0.44885409
vt 1.03098953 -0.15973630
vt 1.03361103 0.92770458
vt 1.03699476 -0.63856696
vt 1.42516759 0.84093077
vt 1.42516759 0.93678900
vt 1.44123737 3.13468291
vt 1.44123737 -2.26660154
vt 1.55244022 3.24588576
vt 1.55244022 0.82707843
vt 1.55244022 0.92293665
vt 1.55244022 -2.37780439
vt 1.78505840 0.84093077
vt 1.78505840 0.93678900
vt 1.83326773 -2.26660154
vt 1.83326773 3.13468291
vt 1.94447058 -2.37780439
vt 1.94447058 3.24588576
vt 1.94447058 0.82707843
vt 1.94447058 0.92293665
vt 3.09090844 0.90908431
vt 3.09090844 0.81322608
vt 3.09090844 0.79937374
vt 3.09090844 0.89523196
vt 3.21818107 -4.1002940e-2
vt 3.21818107 -2.7150595e-2
vt 3.21818107 5.4855285e-2
vt 3.21818107 6.8707629e-2
vn 0.89512156 0.44582215 -2.5253745e-16
vn 0.63294653 0.44582215 0.63294653
vn -1.3278582e-15 0.44582215 0.89512156
vn -0.63294653 0.44582215 0.63294653
vn -0.89512156 0.44582215 -8.1463694e-17
vn -0.63294653 0.44582215 -0.63294653
vn -7.5761235e-16 0.44582215 -0.89512156
vn 0.63294653 0.44582215 -0.63294653
vn 0.89512156 0.44582215 -2.6068382e-16
vn 0.63294653 0.44582215 0.63294653
vn -1.2382481e-15 0.44582215 0.89512156
vn -0.63294653 0.44582215 0.63294653
vn -0.89512156 0.44582215 -8.1463694e-17
vn -0.63294653 0.44582215 -0.63294653
vn -9.9385706e-16 0.44582215 -0.89512156
vn 0.63294653 0.44582215 -0.63294653
vn 0.86298692 -0.50522627 -7.1210500e-16
vn 0.61022390 -0.50522627 0.61022390
vn 3.3510824e-17 -0.50522627 0.86298692
vn -0.61022390 -0.50522627 0.61022390
vn -0.86298692 -0.50522627 -4.1888529e-16
vn -0.61022390 -0.50522627 -0.61022390
vn -4.0212988e-16 -0.50522627 -0.86298692
vn 0.61022390 -0.50522627 -0.61022390
vn 0.35377639 -0.93533003 -2.1942694e-15
vn 0.25015768 -0.93533003 0.25015768
vn 4.4662121e-16 -0.93533003 0.35377639
vn -0.25015768 -0.93533003 0.25015768
vn -0.35377639 -0.93533003 -1.8544489e-15
vn -0.25015768 -0.93533003 -0.25015768
vn 3.4952964e-16 -0.93533003 -0.35377639
vn 0.25015768 -0.93533003 -0.25015768
vn 0.89512156 0.44582215 -8.1463694e-17
vn 0.63294653 0.44582215 0.63294653
vn 6.4356318e-16 0.44582215 0.89512156
vn -0.63294653 0.44582215 0.63294653
vn -0.89512156 0.44582215 -2.4439108e-16
vn -0.63294653 0.44582215 -0.63294653
vn 8.7980789e-16 0.44582215 -0.89512156
vn 0.63294653 0.44582215 -0.63294653
vn 0.89512156 0.44582215 3.0956204e-16
vn 0.63294653 0.44582215 0.63294653
vn 1.6618594e-15 0.44582215 0.89512156
vn -0.63294653 0.44582215 0.63294653
vn -0.89512156 0.44582215 -2.4439108e-16
vn -0.63294653 0.44582215 -0.63294653
vn 1.5803957e-15 0.44582215 -0.89512156
vn 0.63294653 0.44582215 -0.63294653
vn 0.86298692 -0.50522627 -6.5346106e-16
vn 0.61022390 -0.50522627 0.61022390
vn 1.6001418e-15 -0.50522627 0.86298692
vn -0.61022390 -0.50522627 0.61022390
vn -0.86298692 -0.50522627 -1.1477457e-15
vn -0.61022390 -0.50522627 -0.61022390
vn 8.7128141e-16 -0.50522627 -0.86298692
vn 0.61022390 -0.50522627 -0.61022390
vn 0.35377639 -0.93533003 -2.5146716e-15
vn 0.25015768 -0.93533003 0.25015768
vn 6.5051350e-16 -0.93533003 0.35377639
vn -0.25015768 -0.93533003 0.25015768
vn -0.35377639 -0.93533003 -2.6214723e-15
vn -0.25015768 -0.93533003 -0.25015768
vn 1.7476482e-16 -0.93533003 -0.35377639
vn 0.25015768 -0.93533003 -0.25015768
vn 0.89512156 0.44582215 -8.0160275e-15
vn 0.63294653 0.44582215 0.63294653
vn -7.5761235e-16 0.44582215 0.89512156
vn -0.63294653 0.44582215 0.63294653
vn -0.89512156 0.44582215 -8.1219303e-15
vn -0.63294653 0.44582215 -0.63294653
vn -3.0141567e-16 0.44582215 -0.89512156
vn 0.63294653 0.44582215 -0.63294653
vn 0.89512156 0.44582215 -3.3400114e-15
vn 0.63294653 0.44582215 0.63294653
vn -3.0956204e-16 0.44582215 0.89512156
vn -0.63294653 0.44582215 0.63294653
vn -0.89512156 0.44582215 -3.4866461e-15
vn -0.63294653 0.44582215 -0.63294653
vn 1.6292739e-16 0.44582215 -0.89512156
vn 0.63294653 0.44582215 -0.63294653
vn 0.86298692 -0.50522627 -3.3259492e-15
vn 0.61022390 -0.50522627 0.61022390
vn -1.5079871e-16 -0.50522627 0.86298692
vn -0.61022390 -0.50522627 0.61022390
vn -0.86298692 -0.50522627 -3.3762155e-15
vn -0.61022390 -0.50522627 -0.61022390
vn 1.0053247e-16 -0.50522627 -0.86298692
vn 0.61022390 -0.50522627 -0.61022390
vn 0.35377639 -0.93533003 -1.8932856e-15
vn 0.25015768 -0.93533003 0.25015768
vn -1.7476482e-16 -0.93533003 0.35377639
vn -0.25015768 -0.93533003 0.25015768
vn -0.35377639 -0.93533003 -1.8738672e-15
vn -0.25015768 -0.93533003 -0.25015768
vn 1.1650988e-16 -0.93533003 -0.35377639
vn 0.25015768 -0.93533003 -0.25015768
vn 0.89512156 0.44582215 1.4500537e-15
vn 0.63294653 0.44582215 0.63294653
vn 4.3175758e-16 0.44582215 0.89512156
vn -0.63294653 0.44582215 0.63294653
vn -0.89512156 0.44582215 9.9385706e-16
vn -0.63294653 0.44582215 -0.63294653
vn 7.3317324e-16 0.44582215 -0.89512156
vn 0.63294653 0.44582215 -0.63294653
vn 0.89512156 0.44582215 1.6129811e-15
vn 0.63294653 0.44582215 0.63294653
vn 1.8084940e-15 0.44582215 0.89512156
vn -0.63294653 0.44582215 0.63294653
vn -0.89512156 0.44582215 1.0753208e-15
vn -0.63294653 0.44582215 -0.63294653
vn 2.1017633e-15 0.44582215 -0.89512156
vn 0.63294653 0.44582215 -0.63294653
vn 0.86298692 -0.50522627 -9.2154765e-17
vn 0.61022390 -0.50522627 0.61022390
vn 1.8430953e-15 -0.50522627 0.86298692
vn -0.61022390 -0.50522627 0.61022390
vn -0.86298692 -0.50522627 2.6808659e-16
vn -0.61022390 -0.50522627 -0.61022390
vn 2.4379124e-15 -0.50522627 -0.86298692
vn 0.61022390 -0.50522627 -0.61022390
vn 0.35377639 -0.93533003 -3.0098386e-16
vn 0.25015768 -0.93533003 0.25015768
vn 5.0487615e-16 -0.93533003 0.35377639
vn -0.25015768 -0.93533003 0.25015768
vn -0.35377639 -0.93533003 2.1360145e-16
vn -0.25015768 -0.93533003 -0.25015768
vn 1.1942263e-15 -0.93533003 -0.35377639
vn 0.25015768 -0.93533003 -0.25015768
vn 1.00000000 3.7168186e-17 0.0000000e+0
vn 1.00000000 3.7168186e-17 0.0000000e+0
vn 0.70710678 3.7168186e-17 0.70710678
vn 0.70710678 3.7168186e-17 0.70710678
vn -8.1114530e-16 0.0000000e+0 1.00000000
vn -8.1114530e-16 0.0000000e+0 1.00000000
vn -0.70710678 -3.7168186e-17 0.70710678
vn -0.70710678 -3.7168186e-17 0.70710678
vn -1.00000000 -3.7168186e-17 0.0000000e+0
vn -1.00000000 -3.7168186e-17 0.0000000e+0
vn -0.70710678 0.0000000e+0 -0.70710678
vn -0.70710678 0.0000000e+0 -0.70710678
vn -8.1114530e-16 0.0000000e+0 -1.00000000
vn -8.1114530e-16 0.0000000e+0 -1.00000000
vn 0.70710678 0.0000000e+0 -0.70710678
vn 0.70710678 0.0000000e+0 -0.70710678
vn 1.00000000 -3.7168186e-17 0.0000000e+0
vn 1.00000000 -3.7168186e-17 0.0000000e+0
vn 0.70710678 -3.7168186e-17 0.70710678
vn 0.70710678 -3.7168186e-17 0.70710678
vn 0.0000000e+0 0.0000000e+0 1.00000000
vn 0.0000000e+0 0.0000000e+0 1.00000000
vn -0.70710678 -3.7168186e-17 0.70710678
vn -0.70710678 -3.7168186e-17 0.70710678
vn -1.00000000 -3.7168186e-17 0.0000000e+0
vn -1.00000000 -3.7168186e-17 0.0000000e+0
vn -0.70710678 0.0000000e+0 -0.70710678
vn -0.70710678 0.0000000e+0 -0.70710678
vn 0.0000000e+0 0.0000000e+0 -1.00000000
vn 0.0000000e+0 0.0000000e+0 -1.00000000
vn 0.70710678 0.0000000e+0 -0.70710678
vn 0.70710678 0.0000000e+0 -0.70710678
vn 0.0000000e+0 1.00000000 0.0000000e+0
vn 0.0000000e+0 -1.00000000 0.0000000e+0
vn 0.0000000e+0 1.00000000 0.0000000e+0
vn 0.0000000e+0 -1.00000000 0.0000000e+0
vn 0.0000000e+0 1.00000000 0.0000000e+0
vn 0.0000000e+0 -1.00000000 0.0000000e+0
vn 0.0000000e+0 1.00000000 0.0000000e+0
vn 0.0000000e+0 -1.00000000 0.0000000e+0
vn 0.0000000e+0 1.00000000 0.0000000e+0
vn 0.0000000e+0 -1.00000000 0.0000000e+0
vn 0.0000000e+0 1.00000000 0.0000000e+0
vn 0.0000000e+0 -1.00000000 0.0000000e+0
vn 0.0000000e+0 1.00000000 0.0000000e+0
vn 0.0000000e+0 1.00000000 0.0000000e+0
vn 0.0000000e+0 -1.00000000 0.0000000e+0
vn 0.0000000e+0 -1.00000000 0.0000000e+0
vn 0.0000000e+0 1.00000000 0.0000000e+0
vn 0.0000000e+0 -1.00000000 0.0000000e+0
vn 0.0000000e+0 1.00000000 0.0000000e+0
vn 0.0000000e+0 -1.00000000 0.0000000e+0
vn 0.0000000e+0 1.00000000 0.0000000e+0
vn 0.0000000e+0 1.00000000 0.0000000e+0
vn 0.0000000e+0 -1.00000000 0.0000000e+0
vn 0.0000000e+0 -1.00000000 0.0000000e+0
vn 0.0000000e+0 1.00000000 0.0000000e+0
vn 0.0000000e+0 -1.00000000 0.0000000e+0
vn 0.0000000e+0 1.00000000 0.0000000e+0
vn 0.0000000e+0 -1.00000000 0.0000000e+0
vn 0.0000000e+0 1.00000000 0.0000000e+0
vn 0.0000000e+0 -1.00000000 0.0000000e+0
vn 0.0000000e+0 1.00000000 0.0000000e+0
vn 0.0000000e+0 -1.00000000 0.0000000e+0
vn 0.0000000e+0 1.00000000 0.0000000e+0
vn 0.0000000e+0 -1.00000000 0.0000000e+0
vn 0.0000000e+0 0.99972826 -2.3310989e-2
vn 0.0000000e+0 -0.99972826 2.3310989e-2
vn 0.0000000e+0 0.99972826 2.3310989e-2
vn 0.0000000e+0 1.00000000 0.0000000e+0
vn 0.0000000e+0 -0.99972826 -2.3310989e-2
vn 0.0000000e+0 -1.00000000 0.0000000e+0
vn 0.0000000e+0 1.00000000 0.0000000e+0
vn 0.0000000e+0 -1.00000000 0.0000000e+0
vn 0.0000000e+0 0.99972826 -2.3310989e-2
vn 0.0000000e+0 -0.99972826 2.3310989e-2
vn 0.0000000e+0 0.99972826 2.3310989e-2
vn 0.0000000e+0 1.00000000 0.0000000e+0
vn 0.0000000e+0 -0.99972826 -2.3310989e-2
vn 0.0000000e+0 -1.00000000 0.0000000e+0
vn 0.0000000e+0 0.99980172 -1.9912932e-2
vn 0.0000000e+0 0.99972826 -2.3310989e-2
vn 0.0000000e+0 -0.99980172 1.9912932e-2
vn 0.0000000e+0 -0.99972826 2.3310989e-2
vn 0.0000000e+0 0.99980172 1.9912932e-2
vn 0.0000000e+0 0.99980172 -1.9912932e-2
vn 0.0000000e+0 -0.99980172 -1.9912932e-2
vn 0.0000000e+0 -0.99980172 1.9912932e-2
vn 0.0000000e+0 0.99972826 2.3310989e-2
vn 0.0000000e+0 -0.99972826 -2.3310989e-2
vn 0.0000000e+0 0.99980172 1.9912932e-2
vn 0.0000000e+0 -0.99980172 -1.9912932e-2
vn 0.0000000e+0 0.99980172 -1.9912932e-2
vn 0.0000000e+0 0.99972826 -2.3310989e-2
vn 0.0000000e+0 -0.99980172 1.9912932e-2
vn 0.0000000e+0 -0.99972826 2.3310989e-2
vn 0.0000000e+0 0.99980172 1.9912932e-2
vn 0.0000000e+0 0.99980172 -1.9912932e-2
vn 0.0000000e+0 -0.99980172 -1.9912932e-2
vn 0.0000000e+0 -0.99980172 1.9912932e-2
vn 0.0000000e+0 0.99972826 2.3310989e-2
vn 0.0000000e+0 -0.99972826 -2.3310989e-2
vn 0.0000000e+0 0.99980172 1.9912932e-2
vn 0.0000000e+0 -0.99980172 -1.9912932e-2
vn 0.0000000e+0 1.00000000 0.0000000e+0
vn 0.0000000e+0 -1.00000000 0.0000000e+0
vn 0.0000000e+0 1.00000000 0.0000000e+0
vn 0.0000000e+0 -1.00000000 0.0000000e+0
vn 0.0000000e+0 1.00000000 0.0000000e+0
vn 0.0000000e+0 -1.00000000 0.0000000e+0
vn 0.0000000e+0 1.00000000 0.0000000e+0
vn 0.0000000e+0 -1.00000000 0.0000000e+0
vn 0.0000000e+0 1.00000000 0.0000000e+0
vn 0.0000000e+0 -1.00000000 0.0000000e+0
vn 1.2939894e-16 0.99940155 -3.4590941e-2
vn -1.2939894e-16 -0.99940155 3.4590941e-2
vn 0.0000000e+0 0.99940155 3.4590941e-2
vn 0.0000000e+0 1.00000000 0.0000000e+0
vn 0.0000000e+0 -0.99940155 -3.4590941e-2
vn 0.0000000e+0 -1.00000000 0.0000000e+0
vn 0.0000000e+0 1.00000000 0.0000000e+0
vn 0.0000000e+0 -1.00000000 0.0000000e+0
vn 1.2939894e-16 0.99940155 -3.4590941e-2
vn -1.2939894e-16 -0.99940155 3.4590941e-2
vn 0.0000000e+0 0.99940155 3.4590941e-2
vn 0.0000000e+0 1.00000000 0.0000000e+0
vn 0.0000000e+0 -0.99940155 -3.4590941e-2
vn 0.0000000e+0 -1.00000000 0.0000000e+0
vn 0.0000000e+0 0.99990249 -1.3964744e-2
vn 1.2939894e-16 0.99940155 -3.4590941e-2
vn 0.0000000e+0 -0.99990249 1.3964744e-2
vn -1.2939894e-16 -0.99940155 3.4590941e-2
vn 0.0000000e+0 1.00000000 0.0000000e+0
vn 0.0000000e+0 0.99990249 -1.3964744e-2
vn 0.0000000e+0 -1.00000000 0.0000000e+0
vn 0.0000000e+0 -0.99990249 1.3964744e-2
vn 0.0000000e+0 0.99990249 1.3964744e-2
vn 0.0000000e+0 1.00000000 0.0000000e+0
vn 0.0000000e+0 -0.99990249 -1.3964744e-2
vn 0.0000000e+0 -1.00000000 0.0000000e+0
vn 0.0000000e+0 0.99940155 3.4590941e-2
vn 0.0000000e+0 -0.99940155 -3.4590941e-2
vn 0.0000000e+0 0.99990249 1.3964744e-2
vn 0.0000000e+0 -0.99990249 -1.3964744e-2
vn 0.0000000e+0 0.99990249 -1.3964744e-2
vn 1.2939894e-16 0.99940155 -3.4590941e-2
vn 0.0000000e+0 -0.99990249 1.3964744e-2
vn -1.2939894e-16 -0.99940155 3.4590941e-2
vn 0.0000000e+0 1.00000000 0.0000000e+0
vn 0.0000000e+0 0.99990249 -1.3964744e-2
vn 0.0000000e+0 -1.00000000 0.0000000e+0
vn 0.0000000e+0 -0.99990249 1.3964744e-2
vn 0.0000000e+0 0.99990249 1.3964744e-2
vn 0.0000000e+0 1.00000000 0.0000000e+0
vn 0.0000000e+0 -0.99990249 -1.3964744e-2
vn 0.0000000e+0 -1.00000000 0.0000000e+0
vn 0.0000000e+0 0.99940155 3.4590941e-2
vn 0.0000000e+0 -0.99940155 -3.4590941e-2
vn 0.0000000e+0 0.99990249 1.3964744e-2
vn 0.0000000e+0 -0.99990249 -1.3964744e-2
vn 0.0000000e+0 1.00000000 0.0000000e+0
vn 0.0000000e+0 -1.00000000 0.0000000e+0
vn 0.0000000e+0 1.00000000 0.0000000e+0
vn 0.0000000e+0 -1.00000000 0.0000000e+0
vn 0.0000000e+0 1.00000000 0.0000000e+0
vn 0.0000000e+0 -1.00000000 0.0000000e+0
vn 0.0000000e+0 1.00000000 0.0000000e+0
vn 0.0000000e+0 -1.00000000 0.0000000e+0
vn 0.0000000e+0 1.00000000 0.0000000e+0
vn 0.0000000e+0 -1.00000000 0.0000000e+0
vn 0.0000000e+0 0.99857537 -5.3359410e-2
vn 0.0000000e+0 -0.99857537 5.3359410e-2
vn 0.0000000e+0 0.99857537 5.3359410e-2
vn 0.0000000e+0 1.00000000 0.0000000e+0
vn 0.0000000e+0 -0.99857537 -5.3359410e-2
vn 0.0000000e+0 -1.00000000 0.0000000e+0
vn 0.0000000e+0 1.00000000 0.0000000e+0
vn 0.0000000e+0 -1.00000000 0.0000000e+0
vn 0.0000000e+0 0.99857537 -5.3359410e-2
vn 0.0000000e+0 -0.99857537 5.3359410e-2
vn 0.0000000e+0 0.99857537 5.3359410e-2
vn 0.0000000e+0 1.00000000 0.0000000e+0
vn 0.0000000e+0 -0.99857537 -5.3359410e-2
vn 0.0000000e+0 -1.00000000 0.0000000e+0
vn -1.2941915e-16 0.99955765 -2.9740716e-2
vn 0.0000000e+0 0.99857537 -5.3359410e-2
vn 1.2941915e-16 -0.99955765 2.9740716e-2
vn 0.0000000e+0 -0.99857537 5.3359410e-2
vn 0.0000000e+0 1.00000000 0.0000000e+0
vn -1.2941915e-16 0.99955765 -2.9740716e-2
vn 0.0000000e+0 -1.00000000 0.0000000e+0
vn 1.2941915e-16 -0.99955765 2.9740716e-2
vn -1.2941915e-16 0.99955765 2.9740716e-2
vn 0.0000000e+0 1.00000000 0.0000000e+0
vn 1.2941915e-16 -0.99955765 -2.9740716e-2
vn 0.0000000e+0 -1.00000000 0.0000000e+0
vn 0.0000000e+0 0.99857537 5.3359410e-2
vn 0.0000000e+0 -0.99857537 -5.3359410e-2
vn -1.2941915e-16 0.99955765 2.9740716e-2
vn 1.2941915e-16 -0.99955765 -2.9740716e-2
vn -1.2941915e-16 0.99955765 -2.9740716e-2
vn 0.0000000e+0 0.99857537 -5.3359410e-2
vn 1.2941915e-16 -0.99955765 2.9740716e-2
vn 0.0000000e+0 -0.99857537 5.3359410e-2
vn 0.0000000e+0 1.00000000 0.0000000e+0
vn -1.2941915e-16 0.99955765 -2.9740716e-2
vn 0.0000000e+0 -1.00000000 0.0000000e+0
vn 1.2941915e-16 -0.99955765 2.9740716e-2
vn -1.2941915e-16 0.99955765 2.9740716e-2
vn 0.0000000e+0 1.00000000 0.0000000e+0
vn 1.2941915e-16 -0.99955765 -2.9740716e-2
vn 0.0000000e+0 -1.00000000 0.0000000e+0
vn 0.0000000e+0 0.99857537 5.3359410e-2
vn 0.0000000e+0 -0.99857537 -5.3359410e-2
vn -1.2941915e-16 0.99955765 2.9740716e-2
vn 1.2941915e-16 -0.99955765 -2.9740716e-2
vn 0.0000000e+0 1.00000000 0.0000000e+0
vn 0.0000000e+0 -1.00000000 0.0000000e+0
vn 0.0000000e+0 1.00000000 0.0000000e+0
vn 0.0000000e+0 -1.00000000 0.0000000e+0
vn 0.0000000e+0 1.00000000 0.0000000e+0
vn 0.0000000e+0 -1.00000000 0.0000000e+0
vn 0.0000000e+0 1.00000000 0.0000000e+0
vn 0.0000000e+0 -1.00000000 0.0000000e+0
vn 0.0000000e+0 1.00000000 0.0000000e+0
vn 0.0000000e+0 -1.00000000 0.0000000e+0
vn 0.0000000e+0 0.99823410 -5.9402672e-2
vn 0.0000000e+0 -0.99823410 5.9402672e-2
vn 0.0000000e+0 0.99823410 5.9402672e-2
vn 0.0000000e+0 1.00000000 0.0000000e+0
vn 0.0000000e+0 -0.99823410 -5.9402672e-2
vn 0.0000000e+0 -1.00000000 0.0000000e+0
vn 0.0000000e+0 1.00000000 0.0000000e+0
vn 0.0000000e+0 -1.00000000 0.0000000e+0
vn 0.0000000e+0 0.99823410 -5.9402672e-2
vn 0.0000000e+0 -0.99823410 5.9402672e-2
vn 0.0000000e+0 0.99823410 5.9402672e-2
vn 0.0000000e+0 1.00000000 0.0000000e+0
vn 0.0000000e+0 -0.99823410 -5.9402672e-2
vn 0.0000000e+0 -1.00000000 0.0000000e+0
vn -1.2931622e-16 0.99876267 -4.9730595e-2
vn 0.0000000e+0 0.99823410 -5.9402672e-2
vn 1.2931622e-16 -0.99876267 4.9730595e-2
vn 0.0000000e+0 -0.99823410 5.9402672e-2
vn 0.0000000e+0 1.00000000 0.0000000e+0
vn -1.2931622e-16 0.99876267 -4.9730595e-2
vn 0.0000000e+0 -1.00000000 0.0000000e+0
vn 1.2931622e-16 -0.99876267 4.9730595e-2
vn -1.2931622e-16 0.99876267 4.9730595e-2
vn 0.0000000e+0 1.00000000 0.0000000e+0
vn 1.2931622e-16 -0.99876267 -4.9730595e-2
vn 0.0000000e+0 -1.00000000 0.0000000e+0
vn 0.0000000e+0 0.99823410 5.9402672e-2
vn 0.0000000e+0 -0.99823410 -5.9402672e-2
vn -1.2931622e-16 0.99876267 4.9730595e-2
vn 1.2931622e-16 -0.99876267 -4.9730595e-2
vn -1.2931622e-16 0.99876267 -4.9730595e-2
vn 0.0000000e+0 0.99823410 -5.9402672e-2
vn 1.2931622e-16 -0.99876267 4.9730595e-2
vn 0.0000000e+0 -0.99823410 5.9402672e-2
vn 0.0000000e+0 1.00000000 0.0000000e+0
vn -1.2931622e-16 0.99876267 -4.9730595e-2
vn 0.0000000e+0 -1.00000000 0.0000000e+0
vn 1.2931622e-16 -0.99876267 4.9730595e-2
vn -1.2931622e-16 0.99876267 4.9730595e-2
vn 0.0000000e+0 1.00000000 0.0000000e+0
vn 1.2931622e-16 -0.99876267 -4.9730595e-2
vn 0.0000000e+0 -1.00000000 0.0000000e+0
vn 0.0000000e+0 0.99823410 5.9402672e-2
vn 0.0000000e+0 -0.99823410 -5.9402672e-2
vn -1.2931622e-16 0.99876267 4.9730595e-2
vn 1.2931622e-16 -0.99876267 -4.9730595e-2
vn 0.0000000e+0 1.00000000 0.0000000e+0
vn 0.0000000e+0 -1.00000000 0.0000000e+0
vn 0.0000000e+0 1.00000000 0.0000000e+0
vn 0.0000000e+0 -1.00000000 0.0000000e+0
vn 0.0000000e+0 1.00000000 0.0000000e+0
vn 0.0000000e+0 -1.00000000 0.0000000e+0
vn 0.0000000e+0 1.00000000 0.0000000e+0
vn 0.0000000e+0 -1.00000000 0.0000000e+0
vn 0.0000000e+0 1.00000000 0.0000000e+0
vn 0.0000000e+0 -1.00000000 0.0000000e+0
vn 0.0000000e+0 0.99857537 -5.3359410e-2
vn 0.0000000e+0 -0.99857537 5.3359410e-2
vn 0.0000000e+0 0.99857537 5.3359410e-2
vn 0.0000000e+0 1.00000000 0.0000000e+0
vn 0.0000000e+0 -0.99857537 -5.3359410e-2
vn 0.0000000e+0 -1.00000000 0.0000000e+0
vn 0.0000000e+0 1.00000000 0.0000000e+0
vn 0.0000000e+0 -1.00000000 0.0000000e+0
vn 0.0000000e+0 0.99857537 -5.3359410e-2
vn 0.0000000e+0 -0.99857537 5.3359410e-2
vn 0.0000000e+0 0.99857537 5.3359410e-2
vn 0.0000000e+0 1.00000000 0.0000000e+0
vn 0.0000000e+0 -0.99857537 -5.3359410e-2
vn 0.0000000e+0 -1.00000000 0.0000000e+0
vn -1.2941915e-16 0.99955765 -2.9740716e-2
vn 0.0000000e+0 0.99857537 -5.3359410e-2
vn 1.2941915e-16 -0.99955765 2.9740716e-2
vn 0.0000000e+0 -0.99857537 5.3359410e-2
vn 0.0000000e+0 1.00000000 0.0000000e+0
vn -1.2941915e-16 0.99955765 -2.9740716e-2
vn 0.0000000e+0 -1.00000000 0.0000000e+0
vn 1.2941915e-16 -0.99955765 2.9740716e-2
vn -1.2941915e-16 0.99955765 2.9740716e-2
vn 0.0000000e+0 1.00000000 0.0000000e+0
vn 1.2941915e-16 -0.99955765 -2.9740716e-2
vn 0.0000000e+0 -1.00000000 0.0000000e+0
vn 0.0000000e+0 0.99857537 5.3359410e-2
vn 0.0000000e+0 -0.99857537 -5.3359410e-2
vn -1.2941915e-16 0.99955765 2.9740716e-2
vn 1.2941915e-16 -0.99955765 -2.9740716e-2
vn -1.2941915e-16 0.99955765 -2.9740716e-2
vn 0.0000000e+0 0.99857537 -5.3359410e-2
vn 1.2941915e-16 -0.99955765 2.9740716e-2
vn 0.0000000e+0 -0.99857537 5.3359410e-2
vn 0.0000000e+0 1.00000000 0.0000000e+0
vn -1.2941915e-16 0.99955765 -2.9740716e-2
vn 0.0000000e+0 -1.00000000 0.0000000e+0
vn 1.2941915e-16 -0.99955765 2.9740716e-2
vn -1.2941915e-16 0.99955765 2.9740716e-2
vn 0.0000000e+0 1.00000000 0.0000000e+0
vn 1.2941915e-16 -0.99955765 -2.9740716e-2
vn 0.0000000e+0 -1.00000000 0.0000000e+0
vn 0.0000000e+0 0.99857537 5.3359410e-2
vn 0.0000000e+0 -0.99857537 -5.3359410e-2
vn -1.2941915e-16 0.99955765 2.9740716e-2
vn 1.2941915e-16 -0.99955765 -2.9740716e-2
vn 0.0000000e+0 1.00000000 0.0000000e+0
vn 0.0000000e+0 -1.00000000 0.0000000e+0
vn 0.0000000e+0 1.00000000 0.0000000e+0
vn 0.0000000e+0 -1.00000000 0.0000000e+0
vn 0.0000000e+0 1.00000000 0.0000000e+0
vn 0.0000000e+0 -1.00000000 0.0000000e+0
vn 0.0000000e+0 1.00000000 0.0000000e+0
vn 0.0000000e+0 -1.00000000 0.0000000e+0
vn 0.0000000e+0 1.00000000 0.0000000e+0
vn 0.0000000e+0 -1.00000000 0.0000000e+0
vn 1.2939894e-16 0.99940155 -3.4590941e-2
vn -1.2939894e-16 -0.99940155 3.4590941e-2
vn 0.0000000e+0 0.99940155 3.4590941e-2
vn 0.0000000e+0 1.00000000 0.0000000e+0
vn 0.0000000e+0 -0.99940155 -3.4590941e-2
vn 0.0000000e+0 -1.00000000 0.0000000e+0
vn 0.0000000e+0 1.00000000 0.0000000e+0
vn 0.0000000e+0 -1.00000000 0.0000000e+0
vn 1.2939894e-16 0.99940155 -3.4590941e-2
vn -1.2939894e-16 -0.99940155 3.4590941e-2
vn 0.0000000e+0 0.99940155 3.4590941e-2
vn 0.0000000e+0 1.00000000 0.0000000e+0
vn 0.0000000e+0 -0.99940155 -3.4590941e-2
vn 0.0000000e+0 -1.00000000 0.0000000e+0
vn 0.0000000e+0 0.99990249 -1.3964744e-2
vn 1.2939894e-16 0.99940155 -3.4590941e-2
vn 0.0000000e+0 -0.99990249 1.3964744e-2
vn -1.2939894e-16 -0.99940155 3.4590941e-2
vn 0.0000000e+0 1.00000000 0.0000000e+0
vn 0.0000000e+0 0.99990249 -1.3964744e-2
vn 0.0000000e+0 -1.00000000 0.0000000e+0
vn 0.0000000e+0 -0.99990249 1.3964744e-2
vn 0.0000000e+0 0.99990249 1.3964744e-2
vn 0.0000000e+0 1.00000000 0.0000000e+0
vn 0.0000000e+0 -0.99990249 -1.3964744e-2
vn 0.0000000e+0 -1.00000000 0.0000000e+0
vn 0.0000000e+0 0.99940155 3.4590941e-2
vn 0.0000000e+0 -0.99940155 -3.4590941e-2
vn 0.0000000e+0 0.99990249 1.3964744e-2
vn 0.0000000e+0 -0.99990249 -1.3964744e-2
vn 0.0000000e+0 0.99990249 -1.3964744e-2
vn 1.2939894e-16 0.99940155 -3.4590941e-2
vn 0.0000000e+0 -0.99990249 1.3964744e-2
vn -1.2939894e-16 -0.99940155 3.4590941e-2
vn 0.0000000e+0 1.00000000 0.0000000e+0
vn 0.0000000e+0 0.99990249 -1.3964744e-2
vn 0.0000000e+0 -1.00000000 0.0000000e+0
vn 0.0000000e+0 -0.99990249 1.3964744e-2
vn 0.0000000e+0 0.99990249 1.3964744e-2
vn 0.0000000e+0 1.00000000 0.0000000e+0
vn 0.0000000e+0 -0.99990249 -1.3964744e-2
vn 0.0000000e+0 -1.00000000 0.0000000e+0
vn 0.0000000e+0 0.99940155 3.4590941e-2
vn 0.0000000e+0 -0.99940155 -3.4590941e-2
vn 0.0000000e+0 0.99990249 1.3964744e-2
vn 0.0000000e+0 -0.99990249 -1.3964744e-2
vn 0.0000000e+0 1.00000000 0.0000000e+0
vn 0.0000000e+0 -1.00000000 0.0000000e+0
vn 0.0000000e+0 1.00000000 0.0000000e+0
vn 0.0000000e+0 -1.00000000 0.0000000e+0
vn 0.0000000e+0 1.00000000 0.0000000e+0
vn 0.0000000e+0 -1.00000000 0.0000000e+0
vn 0.0000000e+0 1.00000000 0.0000000e+0
vn 0.0000000e+0 -1.00000000 0.0000000e+0
vn 0.0000000e+0 1.00000000 0.0000000e+0
vn 0.0000000e+0 -1.00000000 0.0000000e+0
vn 0.0000000e+0 0.99972826 -2.3310989e-2
vn 0.0000000e+0 -0.99972826 2.3310989e-2
vn 0.0000000e+0 0.99972826 2.3310989e-2
vn 0.0000000e+0 1.00000000 0.0000000e+0
vn 0.0000000e+0 -0.99972826 -2.3310989e-2
vn 0.0000000e+0 -1.00000000 0.0000000e+0
vn 0.0000000e+0 1.00000000 0.0000000e+0
vn 0.0000000e+0 -1.00000000 0.0000000e+0
vn 0.0000000e+0 0.99972826 -2.3310989e-2
vn 0.0000000e+0 -0.99972826 2.3310989e-2
vn 0.0000000e+0 0.99972826 2.3310989e-2
vn 0.0000000e+0 1.00000000 0.0000000e+0
vn 0.0000000e+0 -0.99972826 -2.3310989e-2
vn 0.0000000e+0 -1.00000000 0.0000000e+0
vn 0.0000000e+0 0.99980172 -1.9912932e-2
vn 0.0000000e+0 0.99972826 -2.3310989e-2
vn 0.0000000e+0 -0.99980172 1.9912932e-2
vn 0.0000000e+0 -0.99972826 2.3310989e-2
vn 0.0000000e+0 0.99980172 1.9912932e-2
vn 0.0000000e+0 0.99980172 -1.9912932e-2
vn 0.0000000e+0 -0.99980172 -1.9912932e-2
vn 0.0000000e+0 -0.99980172 1.9912932e-2
vn 0.0000000e+0 0.99972826 2.3310989e-2
vn 0.0000000e+0 -0.99972826 -2.3310989e-2
vn 0.0000000e+0 0.99980172 1.9912932e-2
vn 0.0000000e+0 -0.99980172 -1.9912932e-2
vn 0.0000000e+0 0.99980172 -1.9912932e-2
vn 0.0000000e+0 0.99972826 -2.3310989e-2
vn 0.0000000e+0 -0.99980172 1.9912932e-2
vn 0.0000000e+0 -0.99972826 2.3310989e-2
vn 0.0000000e+0 0.99980172 1.9912932e-2
vn 0.0000000e+0 0.99980172 -1.9912932e-2
vn 0.0000000e+0 -0.99980172 -1.9912932e-2
vn 0.0000000e+0 -0.99980172 1.9912932e-2
vn 0.0000000e+0 0.99972826 2.3310989e-2
vn 0.0000000e+0 -0.99972826 -2.3310989e-2
vn 0.0000000e+0 0.99980172 1.9912932e-2
vn 0.0000000e+0 -0.99980172 -1.9912932e-2
vn 0.0000000e+0 1.00000000 0.0000000e+0
vn 0.0000000e+0 -1.00000000 0.0000000e+0
vn 0.0000000e+0 1.00000000 0.0000000e+0
vn 0.0000000e+0 -1.00000000 0.0000000e+0
vn 0.0000000e+0 1.00000000 0.0000000e+0
vn 0.0000000e+0 -1.00000000 0.0000000e+0
vn 0.0000000e+0 1.00000000 0.0000000e+0
vn 0.0000000e+0 -1.00000000 0.0000000e+0
vn 0.0000000e+0 1.00000000 0.0000000e+0
vn 0.0000000e+0 -1.00000000 0.0000000e+0
vn 0.0000000e+0 1.00000000 0.0000000e+0
vn 0.0000000e+0 -1.00000000 0.0000000e+0
vn 0.0000000e+0 1.00000000 0.0000000e+0
vn 0.0000000e+0 1.00000000 0.0000000e+0
vn 0.0000000e+0 -1.00000000 0.0000000e+0
vn 0.0000000e+0 -1.00000000 0.0000000e+0
vn 0.0000000e+0 1.00000000 0.0000000e+0
vn 0.0000000e+0 -1.00000000 0.0000000e+0
vn 0.0000000e+0 1.00000000 0.0000000e+0
vn 0.0000000e+0 -1.00000000 0.0000000e+0
vn 0.0000000e+0 1.00000000 0.0000000e+0
vn 0.0000000e+0 1.00000000 0.0000000e+0
vn 0.0000000e+0 -1.00000000 0.0000000e+0
vn 0.0000000e+0 -1.00000000 0.0000000e+0
vn 0.0000000e+0 0.0000000e+0 1.00000000
vn -1.00000000 0.0000000e+0 0.0000000e+0
vn 6.1709692e-17 -1.00000000 0.0000000e+0
vn 6.1709692e-17 -1.00000000 0.0000000e+0
vn 0.0000000e+0 0.0000000e+0 1.00000000
vn -1.00000000 0.0000000e+0 0.0000000e+0
vn 0.0000000e+0 1.00000000 0.0000000e+0
vn 0.0000000e+0 1.00000000 0.0000000e+0
vn 0.0000000e+0 0.0000000e+0 1.00000000
vn 1.00000000 0.0000000e+0 0.0000000e+0
vn 0.0000000e+0 1.00000000 0.0000000e+0
vn 0.0000000e+0 1.00000000 0.0000000e+0
vn 0.0000000e+0 0.0000000e+0 1.00000000
vn 1.00000000 0.0000000e+0 0.0000000e+0
vn -6.1709692e-17 -1.00000000 0.0000000e+0
vn -6.1709692e-17 -1.00000000 0.0000000e+0
vn 0.0000000e+0 0.0000000e+0 -1.00000000
vn -1.00000000 0.0000000e+0 0.0000000e+0
vn 6.1709692e-17 -1.00000000 0.0000000e+0
vn 6.1709692e-17 -1.00000000 0.0000000e+0
vn 0.0000000e+0 0.0000000e+0 -1.00000000
vn -1.00000000 0.0000000e+0 0.0000000e+0
vn 0.0000000e+0 1.00000000 0.0000000e+0
vn 0.0000000e+0 1.00000000 0.0000000e+0
vn 1.00000000 0.0000000e+0 0.0000000e+0
vn 0.0000000e+0 0.0000000e+0 -1.00000000
vn 0.0000000e+0 1.00000000 0.0000000e+0
vn 0.0000000e+0 1.00000000 0.0000000e+0
vn 1.00000000 0.0000000e+0 0.0000000e+0
vn 0.0000000e+0 0.0000000e+0 -1.00000000
vn -6.1709692e-17 -1.00000000 0.0000000e+0
vn -6.1709692e-17 -1.00000000 0.0000000e+0
vn -6.1709692e-17 -1.00000000 0.0000000e+0
vn -6.1709692e-17 -1.00000000 0.0000000e+0
vn 0.0000000e+0 0.0000000e+0 -1.00000000
vn -1.00000000 0.0000000e+0 0.0000000e+0
vn 6.1709692e-17 -1.00000000 0.0000000e+0
vn 6.1709692e-17 -1.00000000 0.0000000e+0
vn 0.0000000e+0 0.0000000e+0 -1.00000000
vn 1.00000000 0.0000000e+0 0.0000000e+0
vn 6.1709692e-17 -1.00000000 0.0000000e+0
vn 6.1709692e-17 -1.00000000 0.0000000e+0
vn 0.0000000e+0 0.0000000e+0 1.00000000
vn 1.00000000 0.0000000e+0 0.0000000e+0
vn -6.1709692e-17 -1.00000000 0.0000000e+0
vn -6.1709692e-17 -1.00000000 0.0000000e+0
vn -1.00000000 0.0000000e+0 0.0000000e+0
vn 0.0000000e+0 0.0000000e+0 1.00000000
vn 0.0000000e+0 1.00000000 0.0000000e+0
vn 0.0000000e+0 1.00000000 0.0000000e+0
vn 0.0000000e+0 0.0000000e+0 -1.00000000
vn 1.00000000 0.0000000e+0 0.0000000e+0
vn 0.0000000e+0 1.00000000 0.0000000e+0
vn 0.0000000e+0 1.00000000 0.0000000e+0
vn 0.0000000e+0 0.0000000e+0 -1.00000000
vn -1.00000000 0.0000000e+0 0.0000000e+0
vn 0.0000000e+0 1.00000000 0.0000000e+0
vn 0.0000000e+0 1.00000000 0.0000000e+0
vn -1.00000000 0.0000000e+0 0.0000000e+0
vn 0.0000000e+0 0.0000000e+0 1.00000000
vn 0.0000000e+0 1.00000000 0.0000000e+0
vn 0.0000000e+0 1.00000000 0.0000000e+0
vn 0.0000000e+0 0.0000000e+0 1.00000000
vn 1.00000000 0.0000000e+0 0.0000000e+0
vn 1.00000000 -3.7168186e-17 -1.1656458e-14
vn 1.00000000 -3.7168186e-17 -1.1656458e-14
vn 0.70710678 -1.1150456e-16 0.70710678
vn 0.70710678 -1.1150456e-16 0.70710678
vn -8.1114530e-16 -7.4336372e-17 1.00000000
vn -8.1114530e-16 -7.4336372e-17 1.00000000
vn -0.70710678 0.0000000e+0 0.70710678
vn -0.70710678 0.0000000e+0 0.70710678
vn -1.00000000 3.7168186e-17 -1.1686501e-14
vn -1.00000000 3.7168186e-17 -1.1686501e-14
vn -0.70710678 -1.1150456e-16 -0.70710678
vn -0.70710678 -1.1150456e-16 -0.70710678
vn -8.4118772e-16 -1.4867274e-16 -1.00000000
vn -8.4118772e-16 -1.4867274e-16 -1.00000000
vn 0.70710678 0.0000000e+0 -0.70710678
vn 0.70710678 0.0000000e+0 -0.70710678
vn 1.00000000 -7.4336372e-17 0.0000000e+0
vn 1.00000000 -7.4336372e-17 0.0000000e+0
vn 0.70710678 3.7168186e-17 0.70710678
vn 0.70710678 3.7168186e-17 0.70710678
vn 0.0000000e+0 1.4867274e-16 1.00000000
vn 0.0000000e+0 1.4867274e-16 1.00000000
vn -0.70710678 3.7168186e-17 0.70710678
vn -0.70710678 3.7168186e-17 0.70710678
vn -1.00000000 -7.4336372e-17 0.0000000e+0
vn -1.00000000 -7.4336372e-17 0.0000000e+0
vn -0.70710678 -1.1150456e-16 -0.70710678
vn -0.70710678 -1.1150456e-16 -0.70710678
vn 0.0000000e+0 -1.4867274e-16 -1.00000000
vn 0.0000000e+0 -1.4867274e-16 -1.00000000
vn 0.70710678 -1.1150456e-16 -0.70710678
vn 0.70710678 -1.1150456e-16 -0.70710678
g Bed3_MetaL
usemtl MetaL
f 1/380/129 9/379/1 16/385/8 8/386/143
f 2/283/132 10/282/2 9/379/1 1/380/130
f 3/263/134 11/266/3 10/282/2 2/283/131
f 4/226/136 12/242/4 11/266/3 3/263/133
f 5/194/138 13/205/5 12/242/4 4/226/135
f 6/162/140 14/171/6 13/205/5 5/194/137
f 7/142/142 15/149/7 14/171/6 6/162/139
f 8/128/144 16/133/8 15/149/7 7/142/141
f 9/379/1 17/288/9 24/383/16 16/385/8
f 10/282/2 18/276/10 17/288/9 9/379/1
f 11/266/3 19/262/11 18/276/10 10/282/2
f 12/242/4 20/243/12 19/262/11 11/266/3
f 13/205/5 21/211/13 20/243/12 12/242/4
f 14/171/6 22/187/14 21/211/13 13/205/5
f 15/149/7 23/166/15 22/187/14 14/171/6
f 16/133/8 24/139/16 23/166/15 15/149/7
f 17/288/9 25/272/17 32/278/24 24/383/16
f 18/276/10 26/268/18 25/272/17 17/288/9
f 19/262/11 27/256/19 26/268/18 18/276/10
f 20/243/12 28/244/20 27/256/19 19/262/11
f 21/211/13 29/219/21 28/244/20 20/243/12
f 22/187/14 30/204/22 29/219/21 21/211/13
f 23/166/15 31/191/23 30/204/22 22/187/14
f 24/139/16 32/185/24 31/191/23 23/166/15
f 25/272/17 33/259/25 40/246/32 32/278/24
f 26/268/18 34/260/26 33/259/25 25/272/17
f 27/256/19 35/252/27 34/260/26 26/268/18
f 28/244/20 36/245/28 35/252/27 27/256/19
f 29/219/21 37/223/29 36/245/28 28/244/20
f 30/204/22 38/216/30 37/223/29 29/219/21
f 31/191/23 39/217/31 38/216/30 30/204/22
f 32/185/24 40/246/32 39/217/31 31/191/23
f 34/260/26 35/252/27 36/245/28 37/223/29 38/216/30 39/217/31 40/246/32 33/259/25
f 41/199/145 49/203/33 56/170/40 48/167/159
f 42/229/148 50/230/34 49/203/33 41/199/146
f 43/267/150 51/264/35 50/230/34 42/229/147
f 44/284/152 52/281/36 51/264/35 43/267/149
f 45/381/154 53/378/37 52/281/36 44/284/151
f 46/387/156 54/384/38 53/378/37 45/381/153
f 47/143/158 55/148/39 54/132/38 46/129/155
f 48/167/160 56/170/40 55/148/39 47/143/157
f 49/203/33 57/210/41 64/186/48 56/170/40
f 50/230/34 58/231/42 57/210/41 49/203/33
f 51/264/35 59/261/43 58/231/42 50/230/34
f 52/281/36 60/275/44 59/261/43 51/264/35
f 53/378/37 61/287/45 60/275/44 52/281/36
f 54/384/38 62/382/46 61/287/45 53/378/37
f 55/148/39 63/163/47 62/138/46 54/132/38
f 56/170/40 64/186/48 63/163/47 55/148/39
f 57/210/41 65/218/49 72/202/56 64/186/48
f 58/231/42 66/232/50 65/218/49 57/210/41
f 59/261/43 67/253/51 66/232/50 58/231/42
f 60/275/44 68/265/52 67/253/51 59/261/43
f 61/287/45 69/271/53 68/265/52 60/275/44
f 62/382/46 70/277/54 69/271/53 61/287/45
f 63/163/47 71/190/55 70/184/54 62/138/46
f 64/186/48 72/202/56 71/190/55 63/163/47
f 65/218/49 73/222/57 80/214/64 72/202/56
f 66/232/50 74/233/58 73/222/57 65/218/49
f 67/253/51 75/249/59 74/233/58 66/232/50
f 68/265/52 76/258/60 75/249/59 67/253/51
f 69/271/53 77/257/61 76/258/60 68/265/52
f 70/277/54 78/234/62 77/257/61 69/271/53
f 71/190/55 79/215/63 78/234/62 70/184/54
f 72/202/56 80/214/64 79/215/63 71/190/55
f 74/233/58 75/249/59 76/258/60 77/257/61 78/234/62 79/215/63 80/214/64 73/222/57
f 205/17/585 208/402/597 207/403/593 206/18/589
f 205/400/587 214/398/621 213/23/617 208/20/599
f 206/411/590 210/4/606 209/2/602 205/409/586
f 206/12/592 217/16/634 220/15/646 210/11/608
f 207/395/595 218/391/637 217/16/633 206/12/591
f 208/1/598 212/408/613 211/410/609 207/3/594
f 208/20/600 213/23/618 216/24/630 212/19/616
f 209/401/603 215/399/625 214/398/622 205/400/588
f 210/394/605 211/10/610 212/9/614 209/393/601
f 210/11/607 220/15/645 219/390/642 211/392/612
f 211/392/611 219/390/641 218/391/638 207/395/596
f 212/19/615 216/24/629 215/399/626 209/401/604
f 213/406/620 218/407/640 219/6/643 216/5/631
f 214/396/623 217/397/635 218/22/639 213/21/619
f 215/405/628 220/404/648 217/7/636 214/8/624
f 216/388/632 219/389/644 220/13/647 215/14/627
f 221/134/649 229/137/65 236/155/72 228/150/663
f 222/124/652 230/127/66 229/137/65 221/134/650
f 223/118/654 231/121/67 230/127/66 222/124/651
f 224/273/656 232/270/68 231/286/67 223/289/653
f 225/250/658 233/248/69 232/270/68 224/273/655
f 226/212/660 234/207/70 233/248/69 225/250/657
f 227/182/662 235/180/71 234/207/70 226/212/659
f 228/150/664 236/155/72 235/180/71 227/182/661
f 229/137/65 237/145/73 244/157/80 236/155/72
f 230/127/66 238/131/74 237/145/73 229/137/65
f 231/121/67 239/123/75 238/131/74 230/127/66
f 232/270/68 240/255/76 239/280/75 231/286/67
f 233/248/69 241/225/77 240/255/76 232/270/68
f 234/207/70 242/201/78 241/225/77 233/248/69
f 235/180/71 243/181/79 242/201/78 234/207/70
f 236/155/72 244/157/80 243/181/79 235/180/71
f 237/145/73 245/153/81 252/165/88 244/157/80
f 238/131/74 246/147/82 245/153/81 237/145/73
f 239/123/75 247/141/83 246/147/82 238/131/74
f 240/255/76 248/221/84 247/228/83 239/280/75
f 241/225/77 249/209/85 248/221/84 240/255/76
f 242/201/78 250/193/86 249/209/85 241/225/77
f 243/181/79 251/179/87 250/193/86 242/201/78
f 244/157/80 252/165/88 251/179/87 243/181/79
f 245/153/81 253/159/89 260/169/96 252/165/88
f 246/147/82 254/161/90 253/159/89 245/153/81
f 247/141/83 255/177/91 254/161/90 246/147/82
f 248/221/84 256/196/92 255/177/91 247/228/83
f 249/209/85 257/198/93 256/196/92 248/221/84
f 250/193/86 258/189/94 257/198/93 249/209/85
f 251/179/87 259/178/95 258/189/94 250/193/86
f 252/165/88 260/169/96 259/178/95 251/179/87
f 254/161/90 255/177/91 256/196/92 257/198/93 258/189/94 259/178/95 260/169/96 253/159/89
f 261/151/665 269/154/97 276/176/104 268/183/679
f 262/135/668 270/136/98 269/154/97 261/151/666
f 263/125/670 271/126/99 270/136/98 262/135/667
f 264/119/672 272/120/100 271/126/99 263/125/669
f 265/274/674 273/269/101 272/285/100 264/290/671
f 266/251/676 274/247/102 273/269/101 265/274/673
f 267/213/678 275/206/103 274/247/102 266/251/675
f 268/183/680 276/176/104 275/206/103 267/213/677
f 269/154/97 277/156/105 284/175/112 276/176/104
f 270/136/98 278/144/106 277/156/105 269/154/97
f 271/126/99 279/130/107 278/144/106 270/136/98
f 272/120/100 280/122/108 279/130/107 271/126/99
f 273/269/101 281/254/109 280/279/108 272/285/100
f 274/247/102 282/224/110 281/254/109 273/269/101
f 275/206/103 283/200/111 282/224/110 274/247/102
f 276/176/104 284/175/112 283/200/111 275/206/103
f 277/156/105 285/164/113 292/174/120 284/175/112
f 278/144/106 286/152/114 285/164/113 277/156/105
f 279/130/107 287/146/115 286/152/114 278/144/106
f 280/122/108 288/140/116 287/146/115 279/130/107
f 281/254/109 289/220/117 288/227/116 280/279/108
f 282/224/110 290/208/118 289/220/117 281/254/109
f 283/200/111 291/192/119 290/208/118 282/224/110
f 284/175/112 292/174/120 291/192/119 283/200/111
f 285/164/113 293/168/121 300/173/128 292/174/120
f 286/152/114 294/158/122 293/168/121 285/164/113
f 287/146/115 295/160/123 294/158/122 286/152/114
f 288/140/116 296/172/124 295/160/123 287/146/115
f 289/220/117 297/195/125 296/172/124 288/227/116
f 290/208/118 298/197/126 297/195/125 289/220/117
f 291/192/119 299/188/127 298/197/126 290/208/118
f 292/174/120 300/173/128 299/188/127 291/192/119
f 294/158/122 295/160/123 296/172/124 297/195/125 298/197/126 299/188/127 300/173/128 293/168/121
g Bed3_Midlle
usemtl Midlle
f 85/38/171 87/299/179 88/336/181 86/80/173
f 86/312/175 88/64/183 87/65/180 85/318/172
f 93/78/195 95/310/203 100/322/222 97/70/210
f 94/49/197 99/51/217 102/314/229 96/302/205
f 96/61/207 102/57/230 99/308/218 94/316/199
f 97/324/212 100/71/224 95/68/204 93/320/196
f 97/70/209 100/322/221 101/303/226 98/47/214
f 98/304/216 101/55/228 100/71/223 97/324/211
f 98/47/213 101/303/225 102/314/231 99/51/219
f 99/308/220 102/57/232 101/55/227 98/304/215
f 107/27/243 109/359/251 115/371/274 111/103/258
f 108/85/245 114/94/269 118/344/285 110/360/253
f 110/88/255 118/98/286 114/347/270 108/358/247
f 111/370/260 115/102/276 109/26/252 107/357/244
f 111/103/257 115/371/273 116/350/278 112/89/262
f 112/354/264 116/92/280 115/102/275 111/370/259
f 112/89/261 116/350/277 117/348/282 113/100/266
f 113/346/268 117/97/284 116/92/279 112/354/263
f 113/100/265 117/348/281 118/344/287 114/94/271
f 114/347/272 118/98/288 117/97/283 113/346/267
f 123/36/299 125/333/307 131/294/330 127/44/314
f 124/59/301 130/108/325 134/343/341 126/330/309
f 126/39/311 134/105/342 130/326/326 124/367/303
f 127/296/316 131/81/332 125/28/308 123/365/300
f 127/44/313 131/294/329 132/335/334 128/46/318
f 128/363/320 132/76/336 131/81/331 127/296/315
f 128/46/317 132/335/333 133/340/338 129/54/322
f 129/337/324 133/73/340 132/76/335 128/363/319
f 129/54/321 133/340/337 134/343/343 130/108/327
f 130/326/328 134/105/344 133/73/339 129/337/323
f 139/34/355 141/373/363 147/375/386 143/110/370
f 140/33/357 146/32/381 150/291/397 142/374/365
f 142/30/367 150/37/398 146/292/382 140/376/359
f 143/364/372 147/109/388 141/31/364 139/377/356
f 143/110/369 147/375/385 148/315/390 144/84/374
f 144/331/376 148/83/392 147/109/387 143/364/371
f 144/84/373 148/315/389 149/295/394 145/62/378
f 145/298/380 149/41/396 148/83/391 144/331/375
f 145/62/377 149/295/393 150/291/399 146/32/383
f 146/292/384 150/37/400 149/41/395 145/298/379
f 155/35/411 157/332/419 163/293/442 159/43/426
f 156/58/413 162/107/437 166/342/453 158/329/421
f 158/40/423 166/106/454 162/327/438 156/368/415
f 159/297/428 163/82/444 157/29/420 155/366/412
f 159/43/425 163/293/441 164/334/446 160/45/430
f 160/362/432 164/77/448 163/82/443 159/297/427
f 160/45/429 164/334/445 165/338/450 161/53/434
f 161/339/436 165/74/452 164/77/447 160/362/431
f 161/53/433 165/338/449 166/342/455 162/107/439
f 162/327/440 166/106/456 165/74/451 161/339/435
f 171/27/467 173/359/475 179/372/498 175/104/482
f 172/86/469 178/95/493 182/345/509 174/361/477
f 174/87/479 182/93/510 178/341/494 172/356/471
f 175/369/484 179/101/500 173/25/476 171/355/468
f 175/104/481 179/372/497 180/351/502 176/90/486
f 176/352/488 180/91/504 179/101/499 175/369/483
f 176/90/485 180/351/501 181/349/506 177/99/490
f 177/353/492 181/96/508 180/91/503 176/352/487
f 177/99/489 181/349/505 182/345/511 178/95/495
f 178/341/496 182/93/512 181/96/507 177/353/491
f 187/79/523 189/307/531 194/323/550 191/67/538
f 188/50/525 193/52/545 196/313/557 190/301/533
f 190/60/535 196/57/558 193/309/546 188/317/527
f 191/325/540 194/72/552 189/69/532 187/321/524
f 191/67/537 194/323/549 195/306/554 192/48/542
f 192/305/544 195/56/556 194/72/551 191/325/539
f 192/48/541 195/306/553 196/313/559 193/52/547
f 193/309/548 196/57/560 195/56/555 192/305/543
f 201/42/571 203/300/579 204/328/581 202/75/573
f 202/311/575 204/63/583 203/66/580 201/319/572
g Bed3_start
usemtl start
f 81/240/162 85/241/170 87/112/178 82/111/164
f 82/239/163 87/241/177 85/113/169 81/111/161
f 83/114/165 86/115/174 88/238/182 84/237/167
f 84/114/168 88/115/184 86/238/176 83/237/166
f 89/240/186 93/241/194 95/112/202 90/111/188
f 90/239/187 95/241/201 93/113/193 89/111/185
f 91/114/189 94/117/198 96/238/206 92/235/191
f 92/116/192 96/115/208 94/236/200 91/237/190
f 103/240/234 107/241/242 109/112/250 104/111/236
f 104/239/235 109/241/249 107/113/241 103/111/233
f 105/114/237 108/115/246 110/238/254 106/237/239
f 106/114/240 110/115/256 108/238/248 105/237/238
f 119/239/290 123/241/298 125/113/306 120/111/292
f 120/239/291 125/241/305 123/113/297 119/111/289
f 121/111/293 124/115/302 126/241/310 122/237/295
f 122/116/296 126/115/312 124/236/304 121/237/294
f 135/239/346 139/241/354 141/113/362 136/111/348
f 136/239/347 141/241/361 139/113/353 135/111/345
f 137/114/349 140/117/358 142/238/366 138/235/351
f 138/116/352 142/115/368 140/236/360 137/237/350
f 151/240/402 155/241/410 157/112/418 152/111/404
f 152/239/403 157/241/417 155/113/409 151/111/401
f 153/114/405 156/117/414 158/238/422 154/235/407
f 154/116/408 158/115/424 156/236/416 153/237/406
f 167/240/458 171/241/466 173/112/474 168/111/460
f 168/239/459 173/241/473 171/113/465 167/111/457
f 169/114/461 172/115/470 174/238/478 170/237/463
f 170/114/464 174/115/480 172/238/472 169/237/462
f 183/239/514 187/241/522 189/112/530 184/111/516
f 184/240/515 189/241/529 187/112/521 183/111/513
f 185/114/517 188/115/526 190/238/534 186/237/519
f 186/114/520 190/115/536 188/238/528 185/237/518
f 197/240/562 201/241/570 203/113/578 198/111/564
f 198/240/563 203/241/577 201/113/569 197/111/561
f 199/114/565 202/115/574 204/238/582 200/237/567
f 200/114/568 204/115/584 202/238/576 199/237/566
