# Exported from Wings 3D 1.0.2
mtllib BedCollider.mtl
o cube2
#40 vertices, 30 faces
v -8.51006801 1.39849972 19.76837551
v -8.51006801 2.31177220 19.76837551
v 10.56969186 2.31177220 19.76837551
v 10.56969186 1.39849972 19.76837551
v -8.51006801 1.39849972 -19.10770147
v -8.51006801 2.31177220 -19.10770147
v 10.56969186 2.31177220 -19.10770147
v 10.56969186 1.39849972 -19.10770147
v 9.48989563 -5.61433573 19.51029002
v 9.48989563 1.96126855 19.51029002
v 10.31760763 1.96126855 19.51029002
v 10.31760763 -5.61433573 19.51029002
v 9.48989563 -5.61433573 18.68257802
v 9.48989563 1.96126855 18.68257802
v 10.31760763 1.96126855 18.68257802
v 10.31760763 -5.61433573 18.68257802
v -8.09955669 -5.61433573 19.51029002
v -8.09955669 1.96126855 19.51029002
v -7.27184469 1.96126855 19.51029002
v -7.27184469 -5.61433573 19.51029002
v -8.09955669 -5.61433573 18.68257802
v -8.09955669 1.96126855 18.68257802
v -7.27184469 1.96126855 18.68257802
v -7.27184469 -5.61433573 18.68257802
v 9.48989563 -5.61433573 -17.86075940
v 9.48989563 1.96126855 -17.86075940
v 10.31760763 1.96126855 -17.86075940
v 10.31760763 -5.61433573 -17.86075940
v 9.48989563 -5.61433573 -18.68847140
v 9.48989563 1.96126855 -18.68847140
v 10.31760763 1.96126855 -18.68847140
v 10.31760763 -5.61433573 -18.68847140
v -8.09955669 -5.61433573 -17.86075940
v -8.09955669 1.96126855 -17.86075940
v -7.27184469 1.96126855 -17.86075940
v -7.27184469 -5.61433573 -17.86075940
v -8.09955669 -5.61433573 -18.68847140
v -8.09955669 1.96126855 -18.68847140
v -7.27184469 1.96126855 -18.68847140
v -7.27184469 -5.61433573 -18.68847140
vn -0.57735027 -0.57735027 0.57735027
vn -0.57735027 0.57735027 0.57735027
vn 0.57735027 0.57735027 0.57735027
vn 0.57735027 -0.57735027 0.57735027
vn -0.57735027 -0.57735027 -0.57735027
vn -0.57735027 0.57735027 -0.57735027
vn 0.57735027 0.57735027 -0.57735027
vn 0.57735027 -0.57735027 -0.57735027
vn -0.57735027 -0.57735027 0.57735027
vn -0.57735027 0.57735027 0.57735027
vn 0.57735027 0.57735027 0.57735027
vn 0.57735027 -0.57735027 0.57735027
vn -0.57735027 -0.57735027 -0.57735027
vn -0.57735027 0.57735027 -0.57735027
vn 0.57735027 0.57735027 -0.57735027
vn 0.57735027 -0.57735027 -0.57735027
vn -0.57735027 -0.57735027 0.57735027
vn -0.57735027 0.57735027 0.57735027
vn 0.57735027 0.57735027 0.57735027
vn 0.57735027 -0.57735027 0.57735027
vn -0.57735027 -0.57735027 -0.57735027
vn -0.57735027 0.57735027 -0.57735027
vn 0.57735027 0.57735027 -0.57735027
vn 0.57735027 -0.57735027 -0.57735027
vn -0.57735027 -0.57735027 0.57735027
vn -0.57735027 0.57735027 0.57735027
vn 0.57735027 0.57735027 0.57735027
vn 0.57735027 -0.57735027 0.57735027
vn -0.57735027 -0.57735027 -0.57735027
vn -0.57735027 0.57735027 -0.57735027
vn 0.57735027 0.57735027 -0.57735027
vn 0.57735027 -0.57735027 -0.57735027
vn -0.57735027 -0.57735027 0.57735027
vn -0.57735027 0.57735027 0.57735027
vn 0.57735027 0.57735027 0.57735027
vn 0.57735027 -0.57735027 0.57735027
vn -0.57735027 -0.57735027 -0.57735027
vn -0.57735027 0.57735027 -0.57735027
vn 0.57735027 0.57735027 -0.57735027
vn 0.57735027 -0.57735027 -0.57735027
g cube2_default
usemtl default
f 1//1 4//4 3//3 2//2
f 1//1 5//5 8//8 4//4
f 2//2 6//6 5//5 1//1
f 3//3 7//7 6//6 2//2
f 4//4 8//8 7//7 3//3
f 6//6 7//7 8//8 5//5
f 9//9 12//12 11//11 10//10
f 9//9 13//13 16//16 12//12
f 10//10 14//14 13//13 9//9
f 11//11 15//15 14//14 10//10
f 12//12 16//16 15//15 11//11
f 14//14 15//15 16//16 13//13
f 17//17 20//20 19//19 18//18
f 17//17 21//21 24//24 20//20
f 18//18 22//22 21//21 17//17
f 19//19 23//23 22//22 18//18
f 20//20 24//24 23//23 19//19
f 22//22 23//23 24//24 21//21
f 25//25 28//28 27//27 26//26
f 25//25 29//29 32//32 28//28
f 26//26 30//30 29//29 25//25
f 27//27 31//31 30//30 26//26
f 28//28 32//32 31//31 27//27
f 30//30 31//31 32//32 29//29
f 33//33 36//36 35//35 34//34
f 33//33 37//37 40//40 36//36
f 34//34 38//38 37//37 33//33
f 35//35 39//39 38//38 34//34
f 36//36 40//40 39//39 35//35
f 38//38 39//39 40//40 37//37
