# Exported from Wings 3D 1.0.2
mtllib CableRoller.mtl
o Cable Spool
#328 vertices, 254 faces
v 1.98748204 7.4952237e-2 -8.4983712e-3
v 1.94772243 9.0005071e-2 0.37010934
v 1.82802532 8.5891429e-2 0.72985525
v 1.57339871 7.9950981e-2 1.04732292
v 1.18818099 8.0913599e-2 1.24517286
v 1.08865912 6.7418822e-2 1.65753088
v 0.75073867 8.0913006e-2 1.84392967
v 0.37896472 7.7769451e-2 1.96302650
v 5.0185641e-3 8.0960760e-2 1.99029775
v -0.40434881 5.1089053e-2 1.92013336
v -0.77816110 7.5098937e-2 1.83080462
v -1.09763623 8.6142634e-2 1.65086355
v -1.39455990 7.8421872e-2 1.39453137
v -1.69464843 8.9502087e-2 1.09569959
v -1.86034118 6.7006672e-2 0.76761423
v -1.95137797 6.3994477e-2 0.40517007
v -2.01917483 8.4362350e-2 -1.2598812e-2
v -1.96033915 5.7475484e-2 -0.38594981
v -1.85147970 8.6966963e-2 -0.76268651
v -1.68803326 8.4990410e-2 -1.11227067
v -1.42593211 6.8884668e-2 -1.42737559
v -1.11710250 7.5096693e-2 -1.66457731
v -0.76725735 6.8610869e-2 -1.85418906
v -0.39427460 9.2510086e-2 -1.97565427
v -2.1532507e-2 8.8473177e-2 -2.01784241
v 0.37788947 5.4536129e-2 -1.96087830
v 0.76145348 0.10172737 -1.85846056
v 1.14943351 7.6040226e-2 -1.68178917
v 1.39378597 4.6507679e-2 -1.40483835
v 1.65097226 6.3785439e-2 -1.13606029
v 1.83995893 6.1548693e-2 -0.76634514
v 1.94488920 8.4597091e-2 -0.39456334
v 1.99297239 -9.7209186e-2 -2.2959477e-3
v 1.97100140 -8.9556489e-2 0.38296777
v 1.86390863 -9.3018963e-2 0.77241539
v 1.57489381 -7.5840811e-2 1.06831153
v 1.19166993 -0.11070221 1.25234817
v 1.10462081 -8.0871302e-2 1.65434442
v 0.75110148 -9.0277167e-2 1.85221289
v 0.38268597 -6.5700773e-2 1.94404156
v -2.3880901e-2 -8.4591315e-2 1.99199674
v -0.39744178 -7.9464346e-2 1.95472680
v -0.80320121 -7.6556416e-2 1.85021739
v -1.11781087 -8.0966729e-2 1.64859854
v -1.41468819 -9.8198983e-2 1.41556159
v -1.65958871 -8.6501378e-2 1.07965794
v -1.84250265 -8.0914459e-2 0.76618965
v -1.96696812 -9.7441039e-2 0.37980391
v -1.98940687 -0.11140422 -2.1849540e-2
v -1.95511875 -7.7785796e-2 -0.40917019
v -1.86250192 -7.9006618e-2 -0.76912188
v -1.65371440 -7.8792642e-2 -1.14193693
v -1.42384294 -0.10348481 -1.42625898
v -1.10687691 -8.6670610e-2 -1.68108424
v -0.75866528 -8.5667655e-2 -1.86224245
v -0.40101386 -9.1863195e-2 -1.97613522
v 2.2386695e-5 -8.1084705e-2 -1.99304976
v 0.38001999 -9.3602591e-2 -1.97469936
v 0.76224814 -0.10405067 -1.84916675
v 1.09719271 -5.1334863e-2 -1.68956014
v 1.37147974 -8.2832443e-2 -1.40694329
v 1.64945704 -6.5802783e-2 -1.11450746
v 1.84937211 -9.6067630e-2 -0.77770203
v 1.95669336 -7.9146743e-2 -0.36006962
v 0.31959668 -2.15885510 7.8904899e-3
v 0.31959668 -2.20660869 7.8904899e-3
v 0.43999655 -2.20660869 0.24790479
v 0.43999655 -2.15885510 0.24790479
v 0.55961098 -2.15885510 -0.11250937
v 0.55961098 -2.20660869 -0.11250937
v 0.68001085 -2.20660869 0.12750493
v 0.68001085 -2.15885510 0.12750493
v -1.01670970 -2.15885510 0.18361774
v -1.01670970 -2.20660869 0.18361774
v -0.80738315 -2.20660869 0.35180034
v -0.80738315 -2.15885510 0.35180034
v -0.84852710 -2.15885510 -2.5708811e-2
v -0.84852710 -2.20660869 -2.5708811e-2
v -0.63920055 -2.20660869 0.14247379
v -0.63920055 -2.15885510 0.14247379
v 9.3278312e-2 -2.22716801 0.68536171
v 4.9614912e-2 -2.22716801 0.73205409
v -1.2653580e-2 -2.22716801 0.71758667
v -3.1258672e-2 -2.22716801 0.65642687
v 1.2404728e-2 -2.22716801 0.60973448
v 7.4673220e-2 -2.22716801 0.62420190
v 9.3278312e-2 -2.18344189 0.68536171
v 4.9614912e-2 -2.18344189 0.73205409
v -1.2653580e-2 -2.18344189 0.71758667
v -3.1258672e-2 -2.18344189 0.65642687
v 1.2404728e-2 -2.18344189 0.60973448
v 7.4673220e-2 -2.18344189 0.62420190
v -7.6978013e-2 -2.23763892 -0.67376150
v -6.6316974e-2 -2.23763892 -0.61072966
v -0.11557363 -2.23763892 -0.56998100
v -0.17549133 -2.23763892 -0.59226420
v -0.18615237 -2.23763892 -0.65529604
v -0.13689571 -2.23763892 -0.69604470
v -7.6978013e-2 -2.19391280 -0.67376150
v -6.6316974e-2 -2.19391280 -0.61072966
v -0.11557363 -2.19391280 -0.56998100
v -0.17549133 -2.19391280 -0.59226420
v -0.18615237 -2.19391280 -0.65529604
v -0.13689571 -2.19391280 -0.69604470
v -2.6149093e-2 -2.14838418 0.48982979
v -2.6149093e-2 -2.19613778 0.48982979
v -0.15005468 -2.19613778 0.72805320
v -0.15005468 -2.14838418 0.72805320
v 0.21207432 -2.14838418 0.61373538
v 0.21207432 -2.19613778 0.61373538
v 8.8168732e-2 -2.19613778 0.85195879
v 8.8168732e-2 -2.14838418 0.85195879
v -0.76896275 -2.23763892 0.18767443
v -0.81978799 -2.23763892 0.22644899
v -0.87878037 -2.23763892 0.20182032
v -0.88694750 -2.23763892 0.13841710
v -0.83612226 -2.23763892 9.9642535e-2
v -0.77712989 -2.23763892 0.12427120
v -0.76896275 -2.19391280 0.18767443
v -0.81978799 -2.19391280 0.22644899
v -0.87878037 -2.19391280 0.20182032
v -0.88694750 -2.19391280 0.13841710
v -0.83612226 -2.19391280 9.9642535e-2
v -0.77712989 -2.19391280 0.12427120
v 0.54427541 -2.23763892 0.11362095
v 0.48226889 -2.23763892 0.12917290
v 0.43779725 -2.23763892 8.3249661e-2
v 0.45533212 -2.23763892 2.1774467e-2
v 0.51733864 -2.23763892 6.2225140e-3
v 0.56181028 -2.23763892 5.2145756e-2
v 0.54427541 -2.19391280 0.11362095
v 0.48226889 -2.19391280 0.12917290
v 0.43779725 -2.19391280 8.3249661e-2
v 0.45533212 -2.19391280 2.1774467e-2
v 0.51733864 -2.19391280 6.2225140e-3
v 0.56181028 -2.19391280 5.2145756e-2
v -0.26446402 -2.15885510 -0.50284318
v -0.26446402 -2.20660869 -0.50284318
v 3.9350005e-3 -2.20660869 -0.49478351
v 3.9350005e-3 -2.15885510 -0.49478351
v -0.25640435 -2.15885510 -0.77124219
v -0.25640435 -2.20660869 -0.77124219
v 1.1994670e-2 -2.20660869 -0.76318252
v 1.1994670e-2 -2.15885510 -0.76318252
v 0.14402018 3.5813733e-2 -0.28224342
v 0.14402018 8.3567330e-2 -0.28224342
v 0.40099819 8.3567330e-2 -0.20436346
v 0.40099819 3.5813733e-2 -0.20436346
v 0.22190015 3.5813733e-2 -0.53922144
v 0.22190015 8.3567330e-2 -0.53922144
v 0.47887816 8.3567330e-2 -0.46134147
v 0.47887816 3.5813733e-2 -0.46134147
v -0.64836439 3.5813733e-2 0.80804164
v -0.64836439 8.3567330e-2 0.80804164
v -0.38227816 8.3567330e-2 0.77197078
v -0.38227816 3.5813733e-2 0.77197078
v -0.68443525 3.5813733e-2 0.54195540
v -0.68443525 8.3567330e-2 0.54195540
v -0.41834901 8.3567330e-2 0.50588455
v -0.41834901 3.5813733e-2 0.50588455
v 0.47965315 0.10412665 0.34826254
v 0.48346671 0.10412665 0.41207577
v 0.43010961 0.10412665 0.44728502
v 0.37293895 0.10412665 0.41868104
v 0.36912540 0.10412665 0.35486782
v 0.42248249 0.10412665 0.31965856
v 0.47965315 6.0400525e-2 0.34826254
v 0.48346671 6.0400525e-2 0.41207577
v 0.43010961 6.0400525e-2 0.44728502
v 0.37293895 6.0400525e-2 0.41868104
v 0.36912540 6.0400525e-2 0.35486782
v 0.42248249 6.0400525e-2 0.31965856
v -0.62341672 0.11459756 -0.46379657
v -0.57035645 0.11459756 -0.42814155
v -0.57470447 0.11459756 -0.36436251
v -0.63211275 0.11459756 -0.33623849
v -0.68517301 0.11459756 -0.37189350
v -0.68082499 0.11459756 -0.43567254
v -0.62341672 7.0871436e-2 -0.46379657
v -0.57035645 7.0871436e-2 -0.42814155
v -0.57470447 7.0871436e-2 -0.36436251
v -0.63211275 7.0871436e-2 -0.33623849
v -0.68517301 7.0871436e-2 -0.37189350
v -0.68082499 7.0871436e-2 -0.43567254
v 0.25561090 2.5342822e-2 0.30029682
v 0.25561090 7.3096419e-2 0.30029682
v 0.34312108 7.3096419e-2 0.55415694
v 0.34312108 2.5342822e-2 0.55415694
v 0.50947102 2.5342822e-2 0.21278664
v 0.50947102 7.3096419e-2 0.21278664
v 0.59698120 7.3096419e-2 0.46664676
v 0.59698120 2.5342822e-2 0.46664676
v -0.47488403 0.11459756 0.63112479
v -0.48174374 0.11459756 0.69468277
v -0.54021642 0.11459756 0.72052106
v -0.59182938 0.11459756 0.68280139
v -0.58496967 0.11459756 0.61924342
v -0.52649699 0.11459756 0.59340512
v -0.47488403 7.0871436e-2 0.63112479
v -0.48174374 7.0871436e-2 0.69468277
v -0.54021642 7.0871436e-2 0.72052106
v -0.59182938 7.0871436e-2 0.68280139
v -0.58496967 7.0871436e-2 0.61924342
v -0.52649699 7.0871436e-2 0.59340512
v 0.37537297 0.11459756 -0.37243956
v 0.34397149 0.11459756 -0.31675637
v 0.28004769 0.11459756 -0.31610925
v 0.24752537 0.11459756 -0.37114533
v 0.27892685 0.11459756 -0.42682853
v 0.34285065 0.11459756 -0.42747564
v 0.37537297 7.0871436e-2 -0.37243956
v 0.34397149 7.0871436e-2 -0.31675637
v 0.28004769 7.0871436e-2 -0.31610925
v 0.24752537 7.0871436e-2 -0.37114533
v 0.27892685 7.0871436e-2 -0.42682853
v 0.34285065 7.0871436e-2 -0.42747564
v -0.62849379 3.5813733e-2 -0.21014662
v -0.62849379 8.3567330e-2 -0.21014662
v -0.43789382 8.3567330e-2 -0.39928847
v -0.43789382 3.5813733e-2 -0.39928847
v -0.81763565 3.5813733e-2 -0.40074658
v -0.81763565 8.3567330e-2 -0.40074658
v -0.62703568 8.3567330e-2 -0.58988844
v -0.62703568 3.5813733e-2 -0.58988844
v 2.00311811 -1.99209886 -1.6061073e-3
v 1.71703661 -2.01013264 0.32550628
v 1.81995419 -1.97780913 0.76993902
v 1.66568019 -2.00463570 1.10321085
v 1.41232895 -2.00972921 1.41327880
v 1.10841038 -1.99762494 1.64680599
v 0.76411143 -1.99865330 1.83374146
v 0.38640713 -2.03291768 1.94231443
v -5.7290974e-3 -2.01308419 1.96920084
v -0.39137014 -2.02705357 1.94437268
v -0.75778758 -2.02318352 1.84398999
v -1.11651994 -1.98489567 1.66416476
v -1.42385458 -2.00845129 1.40411747
v -1.65993996 -2.00477717 1.08156051
v -1.84991833 -2.02060337 0.77110144
v -1.98165991 -2.03959809 0.38018187
v -1.97881675 -2.00035135 -2.5672475e-2
v -1.98807107 -2.00200443 -0.39161515
v -1.84991621 -2.00389870 -0.77441302
v -1.65923325 -2.00973805 -1.11656351
v -1.41560467 -2.02278463 -1.40417022
v -1.10435604 -2.00106512 -1.65165472
v -0.77450069 -1.98644814 -1.85247659
v -0.38132294 -2.02275154 -1.98410718
v 2.8647167e-3 -2.00437941 -2.02052936
v 0.40887226 -2.03504830 -1.95752256
v 0.75349808 -1.99124021 -1.86744917
v 1.11059188 -2.01099911 -1.65866869
v 1.39611519 -1.99499325 -1.42444067
v 1.63546838 -1.99672739 -1.11635209
v 1.82269899 -2.00233251 -0.76323265
v 1.96306611 -2.02242118 -0.40918763
v 1.99522893 -2.18375285 8.2887609e-4
v 1.70753210 -2.17913752 0.34702659
v 1.84077209 -2.17115526 0.76047705
v 1.66456379 -2.16872146 1.12310016
v 1.40530816 -2.17838531 1.40176290
v 1.11204636 -2.19105040 1.65393092
v 0.75525894 -2.18718725 1.84588191
v 0.36490082 -2.18803061 1.95212986
v 1.6521459e-2 -2.19641018 1.96746015
v -0.38765045 -2.17320375 1.97434243
v -0.76413320 -2.15278671 1.81809825
v -1.10460773 -2.17130004 1.63447215
v -1.43868923 -2.15568496 1.39968409
v -1.66085787 -2.17236396 1.11863852
v -1.86817217 -2.19354774 0.75386572
v -1.94440471 -2.18539806 0.38564366
v -2.00339446 -2.17284501 -1.5658152e-2
v -1.96230602 -2.14809436 -0.38443515
v -1.85522890 -2.17235471 -0.77370780
v -1.68716050 -2.17512380 -1.10303127
v -1.42176436 -2.17084647 -1.41638007
v -1.12538111 -2.14932954 -1.66591470
v -0.76967435 -2.18455622 -1.85691965
v -0.38215152 -2.17718825 -1.96975164
v 2.8615618e-4 -2.16730709 -1.97389834
v 0.38088321 -2.17431876 -1.97460876
v 0.75982218 -2.18293452 -1.85034699
v 1.09058396 -2.18095445 -1.66313204
v 1.39764209 -2.18007366 -1.43730908
v 1.65200875 -2.17943272 -1.11117746
v 1.83680343 -2.15708960 -0.78494002
v 1.95637589 -2.16422189 -0.39265281
v 0.97064965 -1.9799548e-3 -1.9384646e-2
v 0.79361560 -1.9799548e-3 0.29650894
v 0.71438505 -1.9799548e-3 0.46019660
v 0.55006051 -1.9799548e-3 0.74038224
v 0.28626770 -1.9799548e-3 0.87881536
v -5.0329159e-2 -1.9799548e-3 0.91140993
v -0.30102737 -1.9799548e-3 0.87774968
v -0.54067516 -1.9799548e-3 0.67967281
v -0.78780766 -1.9799548e-3 0.47471072
v -0.93674491 -1.9799548e-3 0.19368233
v -0.92575254 -1.9799548e-3 -2.1407015e-2
v -0.93095948 -1.9799548e-3 -0.32497037
v -0.70924192 -1.9799548e-3 -0.54196750
v -0.64332462 -1.9799548e-3 -0.73800674
v -0.31141953 -1.9799548e-3 -0.84128244
v -1.2146721e-2 -1.9799548e-3 -1.02863784
v 0.25393629 -1.9799548e-3 -0.87078615
v 0.53547069 -1.9799548e-3 -0.77601214
v 0.79677062 -1.9799548e-3 -0.61657075
v 0.90702142 -1.9799548e-3 -0.33522292
v 0.93604668 -2.12791008 -0.10574399
v 0.86035628 -2.12791008 0.26314173
v 0.70417955 -2.12791008 0.56318922
v 0.45475879 -2.12791008 0.74036684
v 0.25011418 -2.12791008 0.88601224
v 6.4559141e-2 -2.12791008 0.86968229
v -0.33373276 -2.12791008 0.84423449
v -0.56739452 -2.12791008 0.67884912
v -0.74494113 -2.12791008 0.51875283
v -0.90421417 -2.12791008 0.30049472
v -0.88367780 -2.12791008 -2.6393059e-2
v -1.00007994 -2.12791008 -0.30273578
v -0.72268442 -2.12791008 -0.54796130
v -0.56989054 -2.12791008 -0.78813629
v -0.30114941 -2.12791008 -0.84650947
v -4.0355149e-2 -2.12791008 -0.92319137
v 0.28454059 -2.12791008 -0.92400446
v 0.55322498 -2.12791008 -0.68443289
v 0.67681714 -2.12791008 -0.56753524
v 0.87774321 -2.12791008 -0.27694159
vt 1.7143622e-2 0.59401393
vt 1.8845170e-2 0.58355290
vt 1.9827956e-2 0.62075904
vt 2.0073110e-2 0.55996470
vt 2.0342749e-2 0.63759892
vt 2.1294351e-2 0.52135516
vt 2.1623725e-2 0.53781039
vt 2.2066155e-2 0.52564195
vt 2.2162448e-2 0.92904741
vt 2.2238402e-2 0.58262403
vt 2.3204623e-2 0.88657002
vt 2.4306152e-2 0.63734133
vt 2.8321498e-2 0.65382574
vt 3.1874268e-2 0.50885848
vt 3.3335789e-2 0.68012936
vt 3.7813491e-2 0.46702630
vt 3.8718503e-2 0.48125398
vt 3.9756701e-2 0.70028595
vt 4.0591831e-2 0.69530328
vt 4.2315139e-2 0.46296301
vt 4.3976056e-2 0.71185641
vt 4.6795204e-2 0.44986048
vt 5.8156057e-2 0.73275656
vt 6.5485740e-2 0.42774427
vt 6.8040850e-2 0.91398492
vt 6.8093679e-2 0.87352776
vt 6.8783049e-2 0.74698322
vt 7.0495939e-2 0.75067760
vt 7.1442005e-2 0.41660549
vt 7.3403741e-2 0.76893993
vt 8.1209870e-2 0.42243926
vt 8.2670244e-2 0.93991612
vt 8.4323952e-2 0.40131897
vt 8.8118706e-2 0.78154397
vt 8.8706692e-2 0.89462868
vt 9.9418439e-2 0.38005210
vt 0.10505173 0.79054295
vt 0.10726989 0.36839799
vt 0.11243633 0.79456745
vt 0.11686860 0.80372772
vt 0.11939929 0.91136400
vt 0.12081947 0.94713782
vt 0.12201132 0.92339775
vt 0.12456107 0.88100593
vt 0.12508767 0.35975344
vt 0.13360150 0.82155428
vt 0.13914097 0.39501759
vt 0.14063364 0.17392366
vt 0.14068848 0.18701738
vt 0.14156871 0.17228827
vt 0.14163723 0.18864487
vt 0.14177337 0.94744572
vt 0.14377235 0.90472816
vt 0.14538583 0.33897293
vt 0.14969328 8.5653639e-2
vt 0.15023840 8.5728364e-2
vt 0.15096963 0.14761918
vt 0.15153638 0.14769346
vt 0.15172976 0.82797597
vt 0.15198097 0.33441582
vt 0.15237377 0.83846868
vt 0.15288079 0.16569391
vt 0.15292685 0.32854375
vt 0.15300415 0.19514424
vt 0.15476461 0.16568602
vt 0.15488797 0.19513635
vt 0.15852818 0.84109028
vt 0.16613153 0.17218538
vt 0.16620005 0.18854198
vt 0.16708028 0.17381288
vt 0.16713512 0.18690660
vt 0.16816197 0.91543349
vt 0.16829419 0.89704742
vt 0.16921980 0.94966028
vt 0.17118550 0.94475692
vt 0.17232226 0.32048090
vt 0.17425218 0.89702370
vt 0.17805613 0.93778000
vt 0.17988991 0.17914711
vt 0.18114812 0.17333258
vt 0.18273145 0.18800277
vt 0.18709916 5.3556243e-2
vt 0.18709916 6.3648927e-2
vt 0.18709916 5.3556243e-2
vt 0.18709916 5.3556243e-2
vt 0.18709916 5.3556243e-2
vt 0.18709916 6.3648927e-2
vt 0.18709916 6.3648927e-2
vt 0.18709916 6.3648927e-2
vt 0.18713787 0.19199967
vt 0.18739658 0.16644391
vt 0.19306121 0.16462628
vt 0.19622787 0.19396666
vt 0.19684246 0.95129396
vt 0.19709324 0.31264708
vt 0.19765873 0.91776828
vt 0.19880883 0.81879572
vt 0.20037598 6.4113729e-2
vt 0.20037598 5.3091440e-2
vt 0.20037598 6.4113729e-2
vt 0.20037598 6.4113729e-2
vt 0.20037598 5.3091440e-2
vt 0.20037598 5.3091440e-2
vt 0.20037598 6.4113729e-2
vt 0.20092412 0.85883787
vt 0.20185455 5.3556243e-2
vt 0.20185455 6.3648927e-2
vt 0.20185455 5.3556243e-2
vt 0.20185455 5.3556243e-2
vt 0.20185455 5.3556243e-2
vt 0.20185455 6.3648927e-2
vt 0.20185455 6.3648927e-2
vt 0.20185455 6.3648927e-2
vt 0.20189250 0.19214904
vt 0.20215121 0.16659327
vt 0.20389126 0.86114899
vt 0.20508779 0.30465974
vt 0.20655764 0.17059017
vt 0.20786339 0.30300526
vt 0.20814097 0.18526036
vt 0.20939917 0.17944584
vt 0.21165882 8.4377285e-2
vt 0.21220349 8.4430381e-2
vt 0.21293517 0.14634283
vt 0.21350147 0.14639547
vt 0.21487621 0.86796984
vt 0.21647574 0.95158395
vt 0.21660994 5.3556243e-2
vt 0.21660994 6.3648927e-2
vt 0.21660994 5.3556243e-2
vt 0.21660994 6.3648927e-2
vt 0.21660994 5.3556243e-2
vt 0.21660994 5.3556243e-2
vt 0.21660994 6.3648927e-2
vt 0.21660994 6.3648927e-2
vt 0.21696150 0.90986961
vt 0.22210916 0.29984147
vt 0.23009314 0.94489808
vt 0.23136532 5.3556243e-2
vt 0.23136532 6.3648927e-2
vt 0.23136532 5.3556243e-2
vt 0.23136532 5.3556243e-2
vt 0.23136532 5.3556243e-2
vt 0.23136532 6.3648927e-2
vt 0.23136532 6.3648927e-2
vt 0.23136532 6.3648927e-2
vt 0.23159590 0.90554657
vt 0.23747056 0.87437546
vt 0.23910020 0.90128725
vt 0.23927927 0.95267016
vt 0.24011620 0.95000489
vt 0.24121189 0.91456380
vt 0.24612071 5.3556243e-2
vt 0.24612071 6.3648927e-2
vt 0.24612071 5.3556243e-2
vt 0.24612071 5.3556243e-2
vt 0.24612071 5.3556243e-2
vt 0.24612071 6.3648927e-2
vt 0.24612071 6.3648927e-2
vt 0.24612071 6.3648927e-2
vt 0.25342651 0.29472435
vt 0.26003139 0.87935790
vt 0.26050690 0.29064078
vt 0.26087609 5.3556243e-2
vt 0.26087609 6.3648927e-2
vt 0.26087609 5.3556243e-2
vt 0.26087609 6.3648927e-2
vt 0.26087609 5.3556243e-2
vt 0.26087609 5.3556243e-2
vt 0.26087609 6.3648927e-2
vt 0.26087609 6.3648927e-2
vt 0.26136139 0.87988140
vt 0.26235466 5.3091440e-2
vt 0.26235466 6.4113729e-2
vt 0.26235466 5.3091440e-2
vt 0.26235466 6.4113729e-2
vt 0.26235466 5.3091440e-2
vt 0.26235466 6.4113729e-2
vt 0.26235466 6.4113729e-2
vt 0.26303062 0.28833239
vt 0.26470935 0.90738324
vt 0.26821652 0.94688901
vt 0.27074534 0.14770604
vt 0.27134311 0.14731342
vt 0.27141378 0.88165739
vt 0.27212984 8.5742817e-2
vt 0.27378719 8.5382941e-2
vt 0.27563148 5.3556243e-2
vt 0.27563148 6.3648927e-2
vt 0.27563148 5.3556243e-2
vt 0.27563148 5.3556243e-2
vt 0.27563148 5.3556243e-2
vt 0.27563148 6.3648927e-2
vt 0.27563148 6.3648927e-2
vt 0.27563148 6.3648927e-2
vt 0.27960234 0.91337302
vt 0.28153078 0.94431164
vt 0.28330123 0.28418840
vt 0.28445137 0.94123102
vt 0.28561815 0.91197960
vt 0.29583295 0.90900876
vt 0.29606994 0.88482450
vt 0.29814274 0.94207786
vt 0.30923440 0.28341363
vt 0.31758630 0.91213903
vt 0.31770730 0.88592647
vt 0.31849757 0.88248395
vt 0.31863869 0.94739657
vt 0.32105505 0.28516066
vt 0.32166708 0.28361248
vt 0.32665302 0.91002250
vt 0.32785586 0.91035161
vt 0.32840612 0.95388591
vt 0.32909855 0.94431182
vt 0.32962057 0.88641690
vt 0.33270856 0.14909054
vt 0.33327358 0.14975750
vt 0.33409306 8.7127319e-2
vt 0.33571766 8.7827021e-2
vt 0.33968499 0.28816476
vt 0.34276833 0.93991946
vt 0.34346820 0.90991138
vt 0.35769736 0.88345273
vt 0.36993569 0.94966012
vt 0.37011051 0.89327459
vt 0.37231457 0.29221466
vt 0.37271768 0.94232001
vt 0.37402385 0.91526715
vt 0.37668721 0.91429903
vt 0.37780620 0.28914828
vt 0.37878438 0.87587549
vt 0.37878669 0.88000098
vt 0.37977601 0.90420511
vt 0.38002669 0.94945117
vt 0.38007506 0.28907012
vt 0.38182664 0.93536221
vt 0.38631773 0.87830746
vt 0.40023539 0.29559699
vt 0.41231586 0.86923277
vt 0.41583345 0.92176710
vt 0.41668301 0.95291323
vt 0.41799377 0.93349777
vt 0.41855453 0.90119206
vt 0.42181041 0.92315758
vt 0.42538083 0.95053788
vt 0.42601580 0.91770994
vt 0.42727881 0.30384799
vt 0.42738754 0.89210709
vt 0.43139320 0.86395684
vt 0.43248520 0.86274284
vt 0.43697503 0.30569089
vt 0.43877980 0.30480406
vt 0.43977335 0.85854145
vt 0.45213539 0.31637237
vt 0.45501454 0.93333322
vt 0.45783370 0.89992366
vt 0.46436718 0.92158090
vt 0.46464250 0.96172640
vt 0.46978120 0.84546184
vt 0.47128691 0.95608033
vt 0.47170824 0.91529991
vt 0.47292001 0.93064568
vt 0.47565950 0.90122188
vt 0.47743105 0.32724452
vt 0.48460418 0.83169347
vt 0.48479193 0.83550024
vt 0.48605692 0.33504954
vt 0.48622155 0.81873606
vt 0.48814291 0.33481097
vt 0.50324484 0.90155924
vt 0.50337932 0.94475384
vt 0.50442253 0.34738678
vt 0.50677918 1.1323101e-2
vt 0.51002138 0.92516719
vt 0.51248927 0.95279990
vt 0.51403868 0.75986484
vt 0.51432177 0.32534043
vt 0.51482509 0.81001981
vt 0.52237379 0.90250986
vt 0.52295401 0.93117322
vt 0.52370849 0.37100863
vt 0.52505902 0.90793026
vt 0.52527780 0.94925356
vt 0.52790473 0.79687471
vt 0.53093737 0.36982431
vt 0.53290147 0.79776028
vt 0.53375857 0.37000942
vt 0.54516230 7.6276312e-3
vt 0.54532080 0.38502584
vt 0.54740354 1.0534814e-2
vt 0.55105946 0.94201178
vt 0.55108301 0.32249855
vt 0.55521181 0.76963240
vt 0.55697826 0.90751082
vt 0.55747506 0.94591206
vt 0.55775673 0.91374950
vt 0.56387369 0.41420022
vt 0.56408773 0.75074535
vt 0.56567047 0.32438154
vt 0.56686916 0.75444930
vt 0.56758799 0.42042866
vt 0.56902355 0.94721161
vt 0.57155268 0.41683983
vt 0.57209163 0.91395377
vt 0.57448422 0.91280486
vt 0.57551456 0.74285209
vt 0.57634412 0.95220441
vt 0.57801696 0.53416111
vt 0.57993193 0.43612961
vt 0.58838111 0.71971901
vt 0.58945314 9.7052488e-3
vt 0.59044332 8.4474751e-3
vt 0.59242708 0.46136464
vt 0.59260575 0.69789307
vt 0.59416082 0.46735884
vt 0.59526275 0.46744140
vt 0.59622188 0.32374312
vt 0.59819494 0.69841697
vt 0.59908758 0.32325475
vt 0.60202643 0.69121236
vt 0.60353747 0.66451418
vt 0.60441683 0.48907093
vt 0.60482024 0.94829125
vt 0.60734425 0.90690346
vt 0.60755954 0.51723266
vt 0.61073438 0.96373671
vt 0.61209703 0.64432221
vt 0.61307018 0.91941596
vt 0.61391926 0.52554083
vt 0.61425634 0.64482448
vt 0.61728731 0.58591569
vt 0.61783204 0.91896053
vt 0.61818059 0.63479687
vt 0.61841300 0.54836749
vt 0.61871810 0.60905377
vt 0.61987975 0.95434898
vt 0.62048444 0.57848628
vt 0.62096018 0.58346057
vt 0.62413579 0.91601407
vt 0.62505621 0.95252385
vt 0.62596970 0.32370647
vt 0.64082108 9.7237234e-3
vt 0.64204553 0.32263868
vt 0.64414027 8.3592288e-3
vt 0.65289124 0.90702681
vt 0.65571813 0.94449318
vt 0.66232542 0.96673869
vt 0.66352606 0.92974247
vt 0.66778486 0.96345938
vt 0.66915172 0.92457092
vt 0.67589026 0.95421411
vt 0.67908207 0.92351009
vt 0.67931156 0.32486327
vt 0.68690213 0.32294846
vt 0.68844180 8.7865776e-3
vt 0.69673097 1.1705262e-2
vt 0.70955407 0.97259878
vt 0.70962534 0.93245151
vt 0.70982309 0.90888911
vt 0.71054747 0.95686400
vt 0.71872168 0.32321106
vt 0.72343614 0.92662458
vt 0.72344751 1.2213344e-2
vt 0.72399985 0.97226056
vt 0.72654992 0.93051961
vt 0.72668395 0.32516465
vt 0.72844895 0.96781698
vt 0.73683251 9.1966928e-3
vt 0.75697640 0.93398069
vt 0.76065424 0.97610621
vt 0.76571265 0.32355875
vt 0.76686491 0.96234370
vt 0.76827536 0.91337513
vt 0.77090714 0.32548220
vt 0.77172441 0.96704444
vt 0.77282692 0.93566986
vt 0.77440814 0.97254729
vt 0.77557420 1.2857587e-2
vt 0.77610751 0.94182507
vt 0.77675193 9.5182087e-3
vt 0.80053789 1.2662407e-2
vt 0.80912496 0.92441113
vt 0.81207326 9.7360989e-3
vt 0.81314887 0.32386237
vt 0.81382944 0.96020002
vt 0.81561262 0.32417297
vt 0.81565655 0.93255833
vt 0.81577201 0.96191359
vt 0.82013864 0.97436059
vt 0.82027600 0.93912703
vt 0.82070279 0.96418945
vt 0.82217185 0.92385616
vt 0.85330039 1.2209714e-2
vt 0.85436811 1.0034609e-2
vt 0.85881058 0.32323877
vt 0.85908443 0.32417868
vt 0.86413356 0.97303033
vt 0.86531006 0.90476374
vt 0.86621236 0.94311528
vt 0.87015527 0.94919230
vt 0.87066501 0.93069950
vt 0.87215256 0.96624930
vt 0.89645702 0.32426575
vt 0.90079695 1.1188957e-2
vt 0.90368947 0.32210530
vt 0.91169076 0.98201837
vt 0.91263051 0.94349894
vt 0.91333516 1.0096770e-2
vt 0.91392035 0.97152783
vt 0.91599316 0.93384862
vt 0.94051335 9.7919009e-3
vt 0.94085659 1.0141390e-2
vt 0.94642137 0.32424260
vt 0.95518994 0.31990524
vt 0.96126279 0.93815032
vt 0.96210790 0.97017340
vt 0.97796808 1.0023458e-2
vt 0.99043714 0.32419485
vn 3.5227609e-2 0.99935339 -7.1982320e-3
vn 0.99797111 6.2292740e-2 -1.3163779e-2
vn 0.99797111 6.2292740e-2 -1.3163779e-2
vn 3.5227609e-2 0.99935339 -7.1982320e-3
vn 0.97259921 0.14324245 0.18311849
vn 0.97259921 0.14324245 0.18311849
vn 3.3156585e-3 0.99997855 5.6486988e-3
vn 0.85444182 0.20636617 0.47680414
vn 0.85444182 0.20636617 0.47680414
vn 3.3156585e-3 0.99997855 5.6486988e-3
vn 3.3156585e-3 0.99997855 5.6486988e-3
vn 3.3156585e-3 0.99997855 5.6486988e-3
vn 0.59995759 0.14482427 0.78681435
vn 0.59995759 0.14482427 0.78681435
vn 2.0575114e-2 0.99916851 3.5198799e-2
vn 0.78276514 7.5890912e-2 0.61767249
vn 0.78276514 7.5890912e-2 0.61767249
vn 2.5212495e-3 0.99976847 2.1369500e-2
vn 2.5212495e-3 0.99976847 2.1369500e-2
vn 0.79861693 5.3122878e-2 0.59949058
vn 0.79861693 5.3122878e-2 0.59949058
vn -2.5771408e-2 0.99685667 -7.4917413e-2
vn -2.5771408e-2 0.99685667 -7.4917413e-2
vn 0.38212568 4.8287345e-3 0.92409775
vn 0.38212568 4.8287345e-3 0.92409775
vn -1.1236089e-2 0.99894751 -4.4470483e-2
vn -1.1236089e-2 0.99894751 -4.4470483e-2
vn 0.18585406 -4.6503896e-2 0.98147626
vn 0.18585406 -4.6503896e-2 0.98147626
vn 1.3508908e-2 0.99755965 6.8500094e-2
vn -2.1161589e-2 3.3981953e-2 0.99919839
vn -2.1161589e-2 3.3981953e-2 0.99919839
vn -1.1236089e-2 0.99894751 -4.4470483e-2
vn -1.1236089e-2 0.99894751 -4.4470483e-2
vn -0.18480419 0.16417316 0.96896573
vn -0.18480419 0.16417316 0.96896573
vn 6.2399501e-3 0.99875823 -4.9427295e-2
vn 6.2399501e-3 0.99875823 -4.9427295e-2
vn 6.2399501e-3 0.99875823 -4.9427295e-2
vn 6.2399501e-3 0.99875823 -4.9427295e-2
vn 6.2399501e-3 0.99875823 -4.9427295e-2
vn -0.37511072 0.15964081 0.91313020
vn -0.37511072 0.15964081 0.91313020
vn 8.5417082e-2 0.99220308 -9.0757733e-2
vn -0.57447069 0.11754138 0.81004163
vn -0.57447069 0.11754138 0.81004163
vn 5.4831410e-2 0.99760674 -4.2122621e-2
vn 5.4831410e-2 0.99760674 -4.2122621e-2
vn -0.70093380 4.6875219e-2 0.71168428
vn -0.70093380 4.6875219e-2 0.71168428
vn 1.5540766e-2 0.99978747 -1.3546478e-2
vn 1.5540766e-2 0.99978747 -1.3546478e-2
vn 1.5540766e-2 0.99978747 -1.3546478e-2
vn 1.5540766e-2 0.99978747 -1.3546478e-2
vn -0.81818415 -9.5592806e-2 0.56695389
vn -0.81818415 -9.5592806e-2 0.56695389
vn 5.0320129e-2 0.99718744 -5.5543653e-2
vn -0.92008472 -9.9694995e-2 0.37882056
vn -0.92008472 -9.9694995e-2 0.37882056
vn 5.0320129e-2 0.99718744 -5.5543653e-2
vn -0.98020419 -4.0624009e-2 0.19377678
vn -0.98020419 -4.0624009e-2 0.19377678
vn 0.12839570 0.99142863 -2.4162301e-2
vn 0.12839570 0.99142863 -2.4162301e-2
vn 0.12839570 0.99142863 -2.4162301e-2
vn -0.99740312 -7.1729094e-2 -6.4770378e-3
vn -0.99740312 -7.1729094e-2 -6.4770378e-3
vn 0.35319373 0.93547693 -1.1709224e-2
vn -0.98093572 -2.4192061e-2 -0.19282080
vn -0.98093572 -2.4192061e-2 -0.19282080
vn 0.13826530 0.99032094 1.2130205e-2
vn 0.13826530 0.99032094 1.2130205e-2
vn 0.13826530 0.99032094 1.2130205e-2
vn -0.93199569 1.5944422e-2 -0.36211851
vn -0.93199569 1.5944422e-2 -0.36211851
vn 0.10172532 0.99345088 5.2031714e-2
vn 0.10172532 0.99345088 5.2031714e-2
vn -0.83588514 -2.1466469e-2 -0.54848449
vn -0.83588514 -2.1466469e-2 -0.54848449
vn 0.12367185 0.99094824 5.2219360e-2
vn -0.70032077 -8.3680257e-3 -0.71377924
vn -0.70032077 -8.3680257e-3 -0.71377924
vn 0.10172532 0.99345088 5.2031714e-2
vn 0.10172532 0.99345088 5.2031714e-2
vn -0.54561234 2.7159922e-2 -0.83759747
vn -0.54561234 2.7159922e-2 -0.83759747
vn 1.9635345e-2 0.99977384 8.1684109e-3
vn 1.9635345e-2 0.99977384 8.1684109e-3
vn 1.9635345e-2 0.99977384 8.1684109e-3
vn 1.9635345e-2 0.99977384 8.1684109e-3
vn -0.38925396 3.1618386e-2 -0.92058766
vn -0.38925396 3.1618386e-2 -0.92058766
vn 2.6358605e-2 0.98889924 0.14623105
vn 2.6358605e-2 0.98889924 0.14623105
vn -0.19274230 -2.4787966e-2 -0.98093627
vn -0.19274230 -2.4787966e-2 -0.98093627
vn 4.1039770e-2 0.95224035 0.30257901
vn 9.6299215e-3 -4.9587611e-2 -0.99872335
vn 9.6299215e-3 -4.9587611e-2 -0.99872335
vn 4.1039770e-2 0.95224035 0.30257901
vn 0.19051265 -6.3842491e-3 -0.98166398
vn 0.19051265 -6.3842491e-3 -0.98166398
vn -1.8568718e-2 0.98843942 0.15047494
vn -1.8568718e-2 0.98843942 0.15047494
vn -1.8568718e-2 0.98843942 0.15047494
vn -1.8568718e-2 0.98843942 0.15047494
vn 0.35504919 -2.7509745e-2 -0.93444277
vn 0.35504919 -2.7509745e-2 -0.93444277
vn -0.13668560 0.94240998 0.30525476
vn 0.57782430 -0.12730063 -0.80617221
vn 0.57782430 -0.12730063 -0.80617221
vn -0.13668560 0.94240998 0.30525476
vn 0.71723756 -0.14913519 -0.68068273
vn 0.71723756 -0.14913519 -0.68068273
vn -2.2879928e-2 0.99831461 5.3333338e-2
vn -2.2879928e-2 0.99831461 5.3333338e-2
vn -2.2879928e-2 0.99831461 5.3333338e-2
vn -2.2879928e-2 0.99831461 5.3333338e-2
vn -2.2879928e-2 0.99831461 5.3333338e-2
vn 0.80722898 -5.5881985e-2 -0.58758708
vn 0.80722898 -5.5881985e-2 -0.58758708
vn 1.4903504e-2 0.99931223 -3.3955272e-2
vn 0.92688092 2.6096102e-2 -0.37444725
vn 0.92688092 2.6096102e-2 -0.37444725
vn 1.4903504e-2 0.99931223 -3.3955272e-2
vn 7.7092142e-3 0.99980754 -1.8040471e-2
vn 0.98216350 4.1837639e-2 -0.18331522
vn 0.98216350 4.1837639e-2 -0.18331522
vn 7.7092142e-3 0.99980754 -1.8040471e-2
vn 7.7092142e-3 0.99980754 -1.8040471e-2
vn 0.99797111 6.2292740e-2 -1.3163779e-2
vn 0.99797111 6.2292740e-2 -1.3163779e-2
vn 1.6819183e-2 -0.99984852 4.4781983e-3
vn 1.6819183e-2 -0.99984852 4.4781983e-3
vn 0.97259921 0.14324245 0.18311849
vn 0.97259921 0.14324245 0.18311849
vn -3.9399266e-3 -0.99994707 9.5045693e-3
vn -3.9399266e-3 -0.99994707 9.5045693e-3
vn 0.85444182 0.20636617 0.47680414
vn 0.85444182 0.20636617 0.47680414
vn -9.4907587e-2 -0.99487261 -3.4943432e-2
vn 0.59995759 0.14482427 0.78681435
vn 0.59995759 0.14482427 0.78681435
vn -3.9399266e-3 -0.99994707 9.5045693e-3
vn -3.9399266e-3 -0.99994707 9.5045693e-3
vn 1.0963907e-2 -0.99989636 9.3310469e-3
vn 0.78276514 7.5890912e-2 0.61767249
vn 0.78276514 7.5890912e-2 0.61767249
vn 1.0963907e-2 -0.99989636 9.3310469e-3
vn 1.0963907e-2 -0.99989636 9.3310469e-3
vn 1.0963907e-2 -0.99989636 9.3310469e-3
vn 1.0963907e-2 -0.99989636 9.3310469e-3
vn 1.0963907e-2 -0.99989636 9.3310469e-3
vn 1.0963907e-2 -0.99989636 9.3310469e-3
vn 1.0963907e-2 -0.99989636 9.3310469e-3
vn 1.0963907e-2 -0.99989636 9.3310469e-3
vn 1.0963907e-2 -0.99989636 9.3310469e-3
vn 1.0963907e-2 -0.99989636 9.3310469e-3
vn -1.0417732e-2 -0.99959758 2.6384452e-2
vn 0.79861693 5.3122878e-2 0.59949058
vn 0.79861693 5.3122878e-2 0.59949058
vn -1.0417732e-2 -0.99959758 2.6384452e-2
vn 0.38212568 4.8287345e-3 0.92409775
vn 0.38212568 4.8287345e-3 0.92409775
vn 2.5891711e-2 -0.99630909 8.1840191e-2
vn 0.18585406 -4.6503896e-2 0.98147626
vn 0.18585406 -4.6503896e-2 0.98147626
vn 2.5891711e-2 -0.99630909 8.1840191e-2
vn -2.1161589e-2 3.3981953e-2 0.99919839
vn -2.1161589e-2 3.3981953e-2 0.99919839
vn 2.6055390e-2 -0.99649741 7.9460842e-2
vn 2.6055390e-2 -0.99649741 7.9460842e-2
vn -0.18480419 0.16417316 0.96896573
vn -0.18480419 0.16417316 0.96896573
vn -1.5733974e-2 -0.99913852 3.8401242e-2
vn -1.5733974e-2 -0.99913852 3.8401242e-2
vn -0.37511072 0.15964081 0.91313020
vn -0.37511072 0.15964081 0.91313020
vn -2.1365168e-2 -0.99824810 5.5174774e-2
vn -0.57447069 0.11754138 0.81004163
vn -0.57447069 0.11754138 0.81004163
vn 3.8167974e-2 -0.99909719 -1.8655148e-2
vn 3.8167974e-2 -0.99909719 -1.8655148e-2
vn 3.8167974e-2 -0.99909719 -1.8655148e-2
vn 3.8167974e-2 -0.99909719 -1.8655148e-2
vn -0.70093380 4.6875219e-2 0.71168428
vn -0.70093380 4.6875219e-2 0.71168428
vn 0.19277209 -0.96566148 -0.17417469
vn -0.81818415 -9.5592806e-2 0.56695389
vn -0.81818415 -9.5592806e-2 0.56695389
vn 3.1109807e-2 -0.99899700 -3.2205304e-2
vn 3.1109807e-2 -0.99899700 -3.2205304e-2
vn 3.1109807e-2 -0.99899700 -3.2205304e-2
vn -0.92008472 -9.9694995e-2 0.37882056
vn -0.92008472 -9.9694995e-2 0.37882056
vn -9.0703539e-2 -0.99433691 5.5380276e-2
vn -0.98020419 -4.0624009e-2 0.19377678
vn -0.98020419 -4.0624009e-2 0.19377678
vn -9.0703539e-2 -0.99433691 5.5380276e-2
vn -0.99740312 -7.1729094e-2 -6.4770378e-3
vn -0.99740312 -7.1729094e-2 -6.4770378e-3
vn -2.2386702e-2 -0.99974815 -1.5729813e-3
vn -2.2386702e-2 -0.99974815 -1.5729813e-3
vn -2.2386702e-2 -0.99974815 -1.5729813e-3
vn -0.98093572 -2.4192061e-2 -0.19282080
vn -0.98093572 -2.4192061e-2 -0.19282080
vn 1.1946331e-2 -0.99959833 -2.5699475e-2
vn 1.1946331e-2 -0.99959833 -2.5699475e-2
vn 1.1946331e-2 -0.99959833 -2.5699475e-2
vn -0.93199569 1.5944422e-2 -0.36211851
vn -0.93199569 1.5944422e-2 -0.36211851
vn 1.3098119e-2 -0.99989136 6.7614509e-3
vn -0.83588514 -2.1466469e-2 -0.54848449
vn -0.83588514 -2.1466469e-2 -0.54848449
vn 0.10755119 -0.98752742 0.11498841
vn 0.10755119 -0.98752742 0.11498841
vn 0.10755119 -0.98752742 0.11498841
vn -0.70032077 -8.3680257e-3 -0.71377924
vn -0.70032077 -8.3680257e-3 -0.71377924
vn 0.31265134 -0.89065515 0.33012504
vn -0.54561234 2.7159922e-2 -0.83759747
vn -0.54561234 2.7159922e-2 -0.83759747
vn 0.10284627 -0.98856786 0.11025531
vn 0.10284627 -0.98856786 0.11025531
vn 0.10284627 -0.98856786 0.11025531
vn -0.38925396 3.1618386e-2 -0.92058766
vn -0.38925396 3.1618386e-2 -0.92058766
vn 1.1959695e-2 -0.99883129 4.6829672e-2
vn 1.1959695e-2 -0.99883129 4.6829672e-2
vn 1.1959695e-2 -0.99883129 4.6829672e-2
vn -0.19274230 -2.4787966e-2 -0.98093627
vn -0.19274230 -2.4787966e-2 -0.98093627
vn 3.3183863e-2 -0.98689883 0.15789086
vn 9.6299215e-3 -4.9587611e-2 -0.99872335
vn 9.6299215e-3 -4.9587611e-2 -0.99872335
vn -4.4124331e-3 -0.99639125 8.4764378e-2
vn -4.4124331e-3 -0.99639125 8.4764378e-2
vn -4.4124331e-3 -0.99639125 8.4764378e-2
vn 0.19051265 -6.3842491e-3 -0.98166398
vn 0.19051265 -6.3842491e-3 -0.98166398
vn -4.9941146e-2 -0.99310587 0.10605000
vn 0.35504919 -2.7509745e-2 -0.93444277
vn 0.35504919 -2.7509745e-2 -0.93444277
vn 0.14925151 -0.97504577 -0.16434635
vn 0.14925151 -0.97504577 -0.16434635
vn 0.57782430 -0.12730063 -0.80617221
vn 0.57782430 -0.12730063 -0.80617221
vn 0.33156113 -0.84669038 -0.41615216
vn 0.71723756 -0.14913519 -0.68068273
vn 0.71723756 -0.14913519 -0.68068273
vn 8.1482717e-2 -0.99293068 -8.6308971e-2
vn 8.1482717e-2 -0.99293068 -8.6308971e-2
vn 8.1482717e-2 -0.99293068 -8.6308971e-2
vn 8.1482717e-2 -0.99293068 -8.6308971e-2
vn 0.80722898 -5.5881985e-2 -0.58758708
vn 0.80722898 -5.5881985e-2 -0.58758708
vn -0.16788504 -0.98401017 5.9486199e-2
vn -0.16788504 -0.98401017 5.9486199e-2
vn 0.92688092 2.6096102e-2 -0.37444725
vn 0.92688092 2.6096102e-2 -0.37444725
vn -0.35815262 -0.92463865 0.12949928
vn 0.98216350 4.1837639e-2 -0.18331522
vn 0.98216350 4.1837639e-2 -0.18331522
vn -0.12955010 -0.99127703 2.4220241e-2
vn -0.12955010 -0.99127703 2.4220241e-2
vn -0.12955010 -0.99127703 2.4220241e-2
vn -0.89384142 0.0000000e+0 0.44838322
vn -0.44838322 0.0000000e+0 -0.89384142
vn -0.89384142 0.0000000e+0 0.44838322
vn 0.0000000e+0 -1.00000000 0.0000000e+0
vn -0.44838322 0.0000000e+0 -0.89384142
vn -0.89384142 0.0000000e+0 0.44838322
vn 0.44838322 0.0000000e+0 0.89384142
vn 0.0000000e+0 -1.00000000 0.0000000e+0
vn -0.89384142 0.0000000e+0 0.44838322
vn 0.44838322 0.0000000e+0 0.89384142
vn 0.89384142 0.0000000e+0 -0.44838322
vn -0.44838322 0.0000000e+0 -0.89384142
vn 0.0000000e+0 -1.00000000 0.0000000e+0
vn 0.89384142 0.0000000e+0 -0.44838322
vn -0.44838322 0.0000000e+0 -0.89384142
vn 0.44838322 0.0000000e+0 0.89384142
vn 0.0000000e+0 -1.00000000 0.0000000e+0
vn 0.89384142 0.0000000e+0 -0.44838322
vn 0.44838322 0.0000000e+0 0.89384142
vn 0.89384142 0.0000000e+0 -0.44838322
vn -0.62633173 0.0000000e+0 0.77955664
vn -0.77955664 0.0000000e+0 -0.62633173
vn -0.62633173 0.0000000e+0 0.77955664
vn 0.0000000e+0 -1.00000000 0.0000000e+0
vn -0.77955664 0.0000000e+0 -0.62633173
vn -0.62633173 0.0000000e+0 0.77955664
vn 0.77955664 0.0000000e+0 0.62633173
vn 0.0000000e+0 -1.00000000 0.0000000e+0
vn -0.62633173 0.0000000e+0 0.77955664
vn 0.77955664 0.0000000e+0 0.62633173
vn 0.62633173 0.0000000e+0 -0.77955664
vn -0.77955664 0.0000000e+0 -0.62633173
vn 0.0000000e+0 -1.00000000 0.0000000e+0
vn 0.62633173 0.0000000e+0 -0.77955664
vn -0.77955664 0.0000000e+0 -0.62633173
vn 0.77955664 0.0000000e+0 0.62633173
vn 0.0000000e+0 -1.00000000 0.0000000e+0
vn 0.62633173 0.0000000e+0 -0.77955664
vn 0.77955664 0.0000000e+0 0.62633173
vn 0.62633173 0.0000000e+0 -0.77955664
vn 0.0000000e+0 -1.00000000 1.3070694e-15
vn 0.95671205 3.1029476e-16 -0.29103617
vn 0.73040074 0.0000000e+0 0.68301886
vn 0.0000000e+0 -1.00000000 1.3070694e-15
vn -0.22631131 0.0000000e+0 0.97405502
vn 0.73040074 0.0000000e+0 0.68301886
vn 0.0000000e+0 -1.00000000 1.3070694e-15
vn -0.95671205 3.1029476e-16 0.29103617
vn -0.22631131 0.0000000e+0 0.97405502
vn 0.0000000e+0 -1.00000000 1.3070694e-15
vn -0.73040074 0.0000000e+0 -0.68301886
vn -0.95671205 3.1029476e-16 0.29103617
vn 0.0000000e+0 -1.00000000 1.3070694e-15
vn 0.22631131 -1.2411791e-15 -0.97405502
vn -0.73040074 0.0000000e+0 -0.68301886
vn 0.0000000e+0 -1.00000000 1.3070694e-15
vn 0.95671205 3.1029476e-16 -0.29103617
vn 0.22631131 -1.2411791e-15 -0.97405502
vn 0.95671205 3.1029476e-16 -0.29103617
vn 0.73040074 0.0000000e+0 0.68301886
vn -0.22631131 0.0000000e+0 0.97405502
vn 0.73040074 0.0000000e+0 0.68301886
vn -0.95671205 3.1029476e-16 0.29103617
vn -0.22631131 0.0000000e+0 0.97405502
vn -0.73040074 0.0000000e+0 -0.68301886
vn -0.95671205 3.1029476e-16 0.29103617
vn 0.22631131 -1.2411791e-15 -0.97405502
vn -0.73040074 0.0000000e+0 -0.68301886
vn 0.95671205 3.1029476e-16 -0.29103617
vn 0.22631131 -1.2411791e-15 -0.97405502
vn 0.0000000e+0 -1.00000000 6.5353470e-16
vn 0.34857205 0.0000000e+0 -0.93728199
vn 0.98599604 -1.5514738e-16 -0.16676875
vn 0.0000000e+0 -1.00000000 6.5353470e-16
vn 0.63742399 -6.2058953e-16 0.77051324
vn 0.98599604 -1.5514738e-16 -0.16676875
vn 0.0000000e+0 -1.00000000 6.5353470e-16
vn -0.34857205 -1.2411791e-15 0.93728199
vn 0.63742399 -6.2058953e-16 0.77051324
vn 0.0000000e+0 -1.00000000 6.5353470e-16
vn -0.98599604 1.5514738e-16 0.16676875
vn -0.34857205 -1.2411791e-15 0.93728199
vn 0.0000000e+0 -1.00000000 6.5353470e-16
vn -0.63742399 0.0000000e+0 -0.77051324
vn -0.98599604 1.5514738e-16 0.16676875
vn 0.0000000e+0 -1.00000000 6.5353470e-16
vn 0.34857205 0.0000000e+0 -0.93728199
vn -0.63742399 0.0000000e+0 -0.77051324
vn 0.34857205 0.0000000e+0 -0.93728199
vn 0.98599604 -1.5514738e-16 -0.16676875
vn 0.63742399 -6.2058953e-16 0.77051324
vn 0.98599604 -1.5514738e-16 -0.16676875
vn -0.34857205 -1.2411791e-15 0.93728199
vn 0.63742399 -6.2058953e-16 0.77051324
vn -0.98599604 1.5514738e-16 0.16676875
vn -0.34857205 -1.2411791e-15 0.93728199
vn -0.63742399 0.0000000e+0 -0.77051324
vn -0.98599604 1.5514738e-16 0.16676875
vn 0.34857205 0.0000000e+0 -0.93728199
vn -0.63742399 0.0000000e+0 -0.77051324
vn -0.88717196 0.0000000e+0 -0.46143896
vn 0.46143896 0.0000000e+0 -0.88717196
vn -0.88717196 0.0000000e+0 -0.46143896
vn 3.8494347e-16 -1.00000000 0.0000000e+0
vn 0.46143896 0.0000000e+0 -0.88717196
vn -0.88717196 0.0000000e+0 -0.46143896
vn -0.46143896 0.0000000e+0 0.88717196
vn 3.8494347e-16 -1.00000000 0.0000000e+0
vn -0.88717196 0.0000000e+0 -0.46143896
vn -0.46143896 0.0000000e+0 0.88717196
vn 0.88717196 0.0000000e+0 0.46143896
vn 0.46143896 0.0000000e+0 -0.88717196
vn 3.8494347e-16 -1.00000000 0.0000000e+0
vn 0.88717196 0.0000000e+0 0.46143896
vn 0.46143896 0.0000000e+0 -0.88717196
vn -0.46143896 0.0000000e+0 0.88717196
vn 3.8494347e-16 -1.00000000 0.0000000e+0
vn 0.88717196 0.0000000e+0 0.46143896
vn -0.46143896 0.0000000e+0 0.88717196
vn 0.88717196 0.0000000e+0 0.46143896
vn 0.0000000e+0 -1.00000000 0.0000000e+0
vn 0.99180549 0.0000000e+0 -0.12775705
vn 0.60654360 3.1029476e-16 0.79505023
vn 0.0000000e+0 -1.00000000 0.0000000e+0
vn -0.38526190 0.0000000e+0 0.92280728
vn 0.60654360 3.1029476e-16 0.79505023
vn 0.0000000e+0 -1.00000000 0.0000000e+0
vn -0.99180549 0.0000000e+0 0.12775705
vn -0.38526190 0.0000000e+0 0.92280728
vn 0.0000000e+0 -1.00000000 0.0000000e+0
vn -0.60654360 0.0000000e+0 -0.79505023
vn -0.99180549 0.0000000e+0 0.12775705
vn 0.0000000e+0 -1.00000000 0.0000000e+0
vn 0.38526190 0.0000000e+0 -0.92280728
vn -0.60654360 0.0000000e+0 -0.79505023
vn 0.0000000e+0 -1.00000000 0.0000000e+0
vn 0.99180549 0.0000000e+0 -0.12775705
vn 0.38526190 0.0000000e+0 -0.92280728
vn 0.99180549 0.0000000e+0 -0.12775705
vn 0.60654360 3.1029476e-16 0.79505023
vn -0.38526190 0.0000000e+0 0.92280728
vn 0.60654360 3.1029476e-16 0.79505023
vn -0.99180549 0.0000000e+0 0.12775705
vn -0.38526190 0.0000000e+0 0.92280728
vn -0.60654360 0.0000000e+0 -0.79505023
vn -0.99180549 0.0000000e+0 0.12775705
vn 0.38526190 0.0000000e+0 -0.92280728
vn -0.60654360 0.0000000e+0 -0.79505023
vn 0.99180549 0.0000000e+0 -0.12775705
vn 0.38526190 0.0000000e+0 -0.92280728
vn 0.0000000e+0 -1.00000000 -2.6141388e-15
vn 0.96164562 -1.9393423e-17 0.27429491
vn 0.24327645 1.5514738e-16 0.96995699
vn 0.0000000e+0 -1.00000000 -2.6141388e-15
vn -0.71836917 1.5514738e-16 0.69566208
vn 0.24327645 1.5514738e-16 0.96995699
vn 0.0000000e+0 -1.00000000 -2.6141388e-15
vn -0.96164562 0.0000000e+0 -0.27429491
vn -0.71836917 1.5514738e-16 0.69566208
vn 0.0000000e+0 -1.00000000 -2.6141388e-15
vn -0.24327645 0.0000000e+0 -0.96995699
vn -0.96164562 0.0000000e+0 -0.27429491
vn 0.0000000e+0 -1.00000000 -2.6141388e-15
vn 0.71836917 -9.6967114e-18 -0.69566208
vn -0.24327645 0.0000000e+0 -0.96995699
vn 0.0000000e+0 -1.00000000 -2.6141388e-15
vn 0.96164562 -1.9393423e-17 0.27429491
vn 0.71836917 -9.6967114e-18 -0.69566208
vn 0.96164562 -1.9393423e-17 0.27429491
vn 0.24327645 1.5514738e-16 0.96995699
vn -0.71836917 1.5514738e-16 0.69566208
vn 0.24327645 1.5514738e-16 0.96995699
vn -0.96164562 0.0000000e+0 -0.27429491
vn -0.71836917 1.5514738e-16 0.69566208
vn -0.24327645 0.0000000e+0 -0.96995699
vn -0.96164562 0.0000000e+0 -0.27429491
vn 0.71836917 -9.6967114e-18 -0.69566208
vn -0.24327645 0.0000000e+0 -0.96995699
vn 0.96164562 -1.9393423e-17 0.27429491
vn 0.71836917 -9.6967114e-18 -0.69566208
vn -3.0015154e-2 0.0000000e+0 0.99954944
vn -0.99954944 0.0000000e+0 -3.0015154e-2
vn -3.0015154e-2 0.0000000e+0 0.99954944
vn 0.0000000e+0 -1.00000000 0.0000000e+0
vn -0.99954944 0.0000000e+0 -3.0015154e-2
vn -3.0015154e-2 0.0000000e+0 0.99954944
vn 0.99954944 0.0000000e+0 3.0015154e-2
vn 0.0000000e+0 -1.00000000 0.0000000e+0
vn -3.0015154e-2 0.0000000e+0 0.99954944
vn 0.99954944 0.0000000e+0 3.0015154e-2
vn 3.0015154e-2 0.0000000e+0 -0.99954944
vn -0.99954944 0.0000000e+0 -3.0015154e-2
vn 0.0000000e+0 -1.00000000 0.0000000e+0
vn 3.0015154e-2 0.0000000e+0 -0.99954944
vn -0.99954944 0.0000000e+0 -3.0015154e-2
vn 0.99954944 0.0000000e+0 3.0015154e-2
vn 0.0000000e+0 -1.00000000 0.0000000e+0
vn 3.0015154e-2 0.0000000e+0 -0.99954944
vn 0.99954944 0.0000000e+0 3.0015154e-2
vn 3.0015154e-2 0.0000000e+0 -0.99954944
vn -0.29003414 0.0000000e+0 0.95701630
vn -0.95701630 0.0000000e+0 -0.29003414
vn -0.29003414 0.0000000e+0 0.95701630
vn 0.0000000e+0 1.00000000 0.0000000e+0
vn -0.95701630 0.0000000e+0 -0.29003414
vn -0.29003414 0.0000000e+0 0.95701630
vn 0.95701630 0.0000000e+0 0.29003414
vn 0.0000000e+0 1.00000000 0.0000000e+0
vn -0.29003414 0.0000000e+0 0.95701630
vn 0.95701630 0.0000000e+0 0.29003414
vn 0.29003414 0.0000000e+0 -0.95701630
vn -0.95701630 0.0000000e+0 -0.29003414
vn 0.0000000e+0 1.00000000 0.0000000e+0
vn 0.29003414 0.0000000e+0 -0.95701630
vn -0.95701630 0.0000000e+0 -0.29003414
vn 0.95701630 0.0000000e+0 0.29003414
vn 0.0000000e+0 1.00000000 0.0000000e+0
vn 0.29003414 0.0000000e+0 -0.95701630
vn 0.95701630 0.0000000e+0 0.29003414
vn 0.29003414 0.0000000e+0 -0.95701630
vn 0.13433210 0.0000000e+0 0.99093637
vn -0.99093637 0.0000000e+0 0.13433210
vn 0.13433210 0.0000000e+0 0.99093637
vn 0.0000000e+0 1.00000000 0.0000000e+0
vn -0.99093637 0.0000000e+0 0.13433210
vn 0.13433210 0.0000000e+0 0.99093637
vn 0.99093637 0.0000000e+0 -0.13433210
vn 0.0000000e+0 1.00000000 0.0000000e+0
vn 0.13433210 0.0000000e+0 0.99093637
vn 0.99093637 0.0000000e+0 -0.13433210
vn -0.13433210 0.0000000e+0 -0.99093637
vn -0.99093637 0.0000000e+0 0.13433210
vn 0.0000000e+0 1.00000000 0.0000000e+0
vn -0.13433210 0.0000000e+0 -0.99093637
vn -0.99093637 0.0000000e+0 0.13433210
vn 0.99093637 0.0000000e+0 -0.13433210
vn 0.0000000e+0 1.00000000 0.0000000e+0
vn -0.13433210 0.0000000e+0 -0.99093637
vn 0.99093637 0.0000000e+0 -0.13433210
vn -0.13433210 0.0000000e+0 -0.99093637
vn 0.0000000e+0 1.00000000 -6.6374618e-17
vn 0.44744694 0.0000000e+0 -0.89431048
vn 0.99821907 3.8786845e-17 -5.9654821e-2
vn 0.0000000e+0 1.00000000 -6.6374618e-17
vn 0.55077212 0.0000000e+0 0.83465566
vn 0.99821907 3.8786845e-17 -5.9654821e-2
vn 0.0000000e+0 1.00000000 -6.6374618e-17
vn -0.44744694 0.0000000e+0 0.89431048
vn 0.55077212 0.0000000e+0 0.83465566
vn 0.0000000e+0 1.00000000 -6.6374618e-17
vn -0.99821907 0.0000000e+0 5.9654821e-2
vn -0.44744694 0.0000000e+0 0.89431048
vn 0.0000000e+0 1.00000000 -6.6374618e-17
vn -0.55077212 6.2058953e-16 -0.83465566
vn -0.99821907 0.0000000e+0 5.9654821e-2
vn 0.0000000e+0 1.00000000 -6.6374618e-17
vn 0.44744694 0.0000000e+0 -0.89431048
vn -0.55077212 6.2058953e-16 -0.83465566
vn 0.44744694 0.0000000e+0 -0.89431048
vn 0.99821907 3.8786845e-17 -5.9654821e-2
vn 0.55077212 0.0000000e+0 0.83465566
vn 0.99821907 3.8786845e-17 -5.9654821e-2
vn -0.44744694 0.0000000e+0 0.89431048
vn 0.55077212 0.0000000e+0 0.83465566
vn -0.99821907 0.0000000e+0 5.9654821e-2
vn -0.44744694 0.0000000e+0 0.89431048
vn -0.55077212 6.2058953e-16 -0.83465566
vn -0.99821907 0.0000000e+0 5.9654821e-2
vn 0.44744694 0.0000000e+0 -0.89431048
vn -0.55077212 6.2058953e-16 -0.83465566
vn -1.2012369e-16 1.00000000 -8.1691837e-17
vn -0.43993917 -6.2058953e-16 -0.89802758
vn 0.55774511 0.0000000e+0 -0.83001229
vn -1.2012369e-16 1.00000000 -8.1691837e-17
vn 0.99768428 0.0000000e+0 6.8015291e-2
vn 0.55774511 0.0000000e+0 -0.83001229
vn -1.2012369e-16 1.00000000 -8.1691837e-17
vn 0.43993917 0.0000000e+0 0.89802758
vn 0.99768428 0.0000000e+0 6.8015291e-2
vn -1.2012369e-16 1.00000000 -8.1691837e-17
vn -0.55774511 -6.2058953e-16 0.83001229
vn 0.43993917 0.0000000e+0 0.89802758
vn -1.2012369e-16 1.00000000 -8.1691837e-17
vn -0.99768428 -3.8786845e-17 -6.8015291e-2
vn -0.55774511 -6.2058953e-16 0.83001229
vn -1.2012369e-16 1.00000000 -8.1691837e-17
vn -0.43993917 -6.2058953e-16 -0.89802758
vn -0.99768428 -3.8786845e-17 -6.8015291e-2
vn -0.43993917 -6.2058953e-16 -0.89802758
vn 0.55774511 0.0000000e+0 -0.83001229
vn 0.99768428 0.0000000e+0 6.8015291e-2
vn 0.55774511 0.0000000e+0 -0.83001229
vn 0.43993917 0.0000000e+0 0.89802758
vn 0.99768428 0.0000000e+0 6.8015291e-2
vn -0.55774511 -6.2058953e-16 0.83001229
vn 0.43993917 0.0000000e+0 0.89802758
vn -0.99768428 -3.8786845e-17 -6.8015291e-2
vn -0.55774511 -6.2058953e-16 0.83001229
vn -0.43993917 -6.2058953e-16 -0.89802758
vn -0.99768428 -3.8786845e-17 -6.8015291e-2
vn -0.94540487 0.0000000e+0 0.32589818
vn -0.32589818 0.0000000e+0 -0.94540487
vn -0.94540487 0.0000000e+0 0.32589818
vn 6.0147418e-17 1.00000000 3.2017661e-17
vn -0.32589818 0.0000000e+0 -0.94540487
vn -0.94540487 0.0000000e+0 0.32589818
vn 0.32589818 0.0000000e+0 0.94540487
vn 6.0147418e-17 1.00000000 3.2017661e-17
vn -0.94540487 0.0000000e+0 0.32589818
vn 0.32589818 0.0000000e+0 0.94540487
vn 0.94540487 0.0000000e+0 -0.32589818
vn -0.32589818 0.0000000e+0 -0.94540487
vn 6.0147418e-17 1.00000000 3.2017661e-17
vn 0.94540487 0.0000000e+0 -0.32589818
vn -0.32589818 0.0000000e+0 -0.94540487
vn 0.32589818 0.0000000e+0 0.94540487
vn 6.0147418e-17 1.00000000 3.2017661e-17
vn 0.94540487 0.0000000e+0 -0.32589818
vn 0.32589818 0.0000000e+0 0.94540487
vn 0.94540487 0.0000000e+0 -0.32589818
vn 0.0000000e+0 1.00000000 1.0211480e-17
vn 0.59004216 0.0000000e+0 -0.80737244
vn 0.99422612 -1.5514738e-16 0.10730528
vn 0.0000000e+0 1.00000000 1.0211480e-17
vn 0.40418396 1.2411791e-15 0.91467772
vn 0.99422612 -1.5514738e-16 0.10730528
vn 0.0000000e+0 1.00000000 1.0211480e-17
vn -0.59004216 1.2411791e-15 0.80737244
vn 0.40418396 1.2411791e-15 0.91467772
vn 0.0000000e+0 1.00000000 1.0211480e-17
vn -0.99422612 0.0000000e+0 -0.10730528
vn -0.59004216 1.2411791e-15 0.80737244
vn 0.0000000e+0 1.00000000 1.0211480e-17
vn -0.40418396 0.0000000e+0 -0.91467772
vn -0.99422612 0.0000000e+0 -0.10730528
vn 0.0000000e+0 1.00000000 1.0211480e-17
vn 0.59004216 0.0000000e+0 -0.80737244
vn -0.40418396 0.0000000e+0 -0.91467772
vn 0.59004216 0.0000000e+0 -0.80737244
vn 0.99422612 -1.5514738e-16 0.10730528
vn 0.40418396 1.2411791e-15 0.91467772
vn 0.99422612 -1.5514738e-16 0.10730528
vn -0.59004216 1.2411791e-15 0.80737244
vn 0.40418396 1.2411791e-15 0.91467772
vn -0.99422612 0.0000000e+0 -0.10730528
vn -0.59004216 1.2411791e-15 0.80737244
vn -0.40418396 0.0000000e+0 -0.91467772
vn -0.99422612 0.0000000e+0 -0.10730528
vn 0.59004216 0.0000000e+0 -0.80737244
vn -0.40418396 0.0000000e+0 -0.91467772
vn 1.0917270e-16 1.00000000 1.2253776e-16
vn 0.86091966 -3.1029476e-16 -0.50874093
vn 0.87104240 3.1029476e-16 0.49120783
vn 1.0917270e-16 1.00000000 1.2253776e-16
vn 1.0122737e-2 0.0000000e+0 0.99994876
vn 0.87104240 3.1029476e-16 0.49120783
vn 1.0917270e-16 1.00000000 1.2253776e-16
vn -0.86091966 3.1029476e-16 0.50874093
vn 1.0122737e-2 0.0000000e+0 0.99994876
vn 1.0917270e-16 1.00000000 1.2253776e-16
vn -0.87104240 0.0000000e+0 -0.49120783
vn -0.86091966 3.1029476e-16 0.50874093
vn 1.0917270e-16 1.00000000 1.2253776e-16
vn -1.0122737e-2 0.0000000e+0 -0.99994876
vn -0.87104240 0.0000000e+0 -0.49120783
vn 1.0917270e-16 1.00000000 1.2253776e-16
vn 0.86091966 -3.1029476e-16 -0.50874093
vn -1.0122737e-2 0.0000000e+0 -0.99994876
vn 0.86091966 -3.1029476e-16 -0.50874093
vn 0.87104240 3.1029476e-16 0.49120783
vn 1.0122737e-2 0.0000000e+0 0.99994876
vn 0.87104240 3.1029476e-16 0.49120783
vn -0.86091966 3.1029476e-16 0.50874093
vn 1.0122737e-2 0.0000000e+0 0.99994876
vn -0.87104240 0.0000000e+0 -0.49120783
vn -0.86091966 3.1029476e-16 0.50874093
vn -1.0122737e-2 0.0000000e+0 -0.99994876
vn -0.87104240 0.0000000e+0 -0.49120783
vn 0.86091966 -3.1029476e-16 -0.50874093
vn -1.0122737e-2 0.0000000e+0 -0.99994876
vn 0.70438648 0.0000000e+0 0.70981666
vn -0.70981666 0.0000000e+0 0.70438648
vn 0.70438648 0.0000000e+0 0.70981666
vn -4.8117934e-17 1.00000000 -7.3370214e-17
vn -0.70981666 0.0000000e+0 0.70438648
vn 0.70438648 0.0000000e+0 0.70981666
vn 0.70981666 0.0000000e+0 -0.70438648
vn -4.8117934e-17 1.00000000 -7.3370214e-17
vn 0.70438648 0.0000000e+0 0.70981666
vn 0.70981666 0.0000000e+0 -0.70438648
vn -0.70438648 0.0000000e+0 -0.70981666
vn -0.70981666 0.0000000e+0 0.70438648
vn -4.8117934e-17 1.00000000 -7.3370214e-17
vn -0.70438648 0.0000000e+0 -0.70981666
vn -0.70981666 0.0000000e+0 0.70438648
vn 0.70981666 0.0000000e+0 -0.70438648
vn -4.8117934e-17 1.00000000 -7.3370214e-17
vn -0.70438648 0.0000000e+0 -0.70981666
vn 0.70981666 0.0000000e+0 -0.70438648
vn -0.70438648 0.0000000e+0 -0.70981666
vn 5.7525646e-3 0.99987396 -1.4797575e-2
vn 0.95376689 -2.3157019e-2 0.29965391
vn 0.95376689 -2.3157019e-2 0.29965391
vn -5.6234409e-3 0.99986544 -1.5410417e-2
vn 0.97617234 1.5626290e-2 0.21643330
vn 0.97617234 1.5626290e-2 0.21643330
vn -5.6234409e-3 0.99986544 -1.5410417e-2
vn 0.99518131 4.4526428e-2 8.7358738e-2
vn 0.99518131 4.4526428e-2 8.7358738e-2
vn 4.6422337e-2 0.99714545 5.9547607e-2
vn 4.6422337e-2 0.99714545 5.9547607e-2
vn 4.6422337e-2 0.99714545 5.9547607e-2
vn 0.83553867 3.0429034e-2 0.54858838
vn 0.83553867 3.0429034e-2 0.54858838
vn 0.15594090 0.97672663 0.14726687
vn 0.69512937 -8.6443487e-3 0.71883269
vn 0.69512937 -8.6443487e-3 0.71883269
vn 0.15594090 0.97672663 0.14726687
vn 0.55569089 1.1325036e-2 0.83131184
vn 0.55569089 1.1325036e-2 0.83131184
vn -7.1596664e-3 0.99903653 -4.3298444e-2
vn -7.1596664e-3 0.99903653 -4.3298444e-2
vn -7.1596664e-3 0.99903653 -4.3298444e-2
vn 0.37373634 3.8102085e-2 0.92675206
vn 0.37373634 3.8102085e-2 0.92675206
vn -0.17634847 0.93097098 -0.31967836
vn 0.16334779 3.1085929e-2 0.98607868
vn 0.16334779 3.1085929e-2 0.98607868
vn -9.0321339e-2 0.98607835 -0.13961214
vn -9.0321339e-2 0.98607835 -0.13961214
vn 1.7827766e-2 5.3860860e-2 0.99838929
vn 1.7827766e-2 5.3860860e-2 0.99838929
vn -1.4342425e-2 0.99943099 3.0528377e-2
vn -1.4342425e-2 0.99943099 3.0528377e-2
vn -1.4342425e-2 0.99943099 3.0528377e-2
vn -1.4342425e-2 0.99943099 3.0528377e-2
vn -0.17601553 5.1006089e-2 0.98306506
vn -0.17601553 5.1006089e-2 0.98306506
vn -1.3774062e-2 0.99878904 4.7230649e-2
vn -1.3774062e-2 0.99878904 4.7230649e-2
vn -0.39506238 -7.2841058e-2 0.91576192
vn -0.39506238 -7.2841058e-2 0.91576192
vn 0.17056281 0.95846133 -0.22860491
vn 0.17056281 0.95846133 -0.22860491
vn -0.53609666 -0.11916840 0.83570286
vn -0.53609666 -0.11916840 0.83570286
vn 0.31302188 0.83856397 -0.44590107
vn -0.71002061 1.3400012e-2 0.70405339
vn -0.71002061 1.3400012e-2 0.70405339
vn 0.17056281 0.95846133 -0.22860491
vn 0.17056281 0.95846133 -0.22860491
vn -0.82877952 9.0007517e-2 0.55228901
vn -0.82877952 9.0007517e-2 0.55228901
vn -6.8007840e-2 0.99684024 4.1042261e-2
vn -6.8007840e-2 0.99684024 4.1042261e-2
vn -6.8007840e-2 0.99684024 4.1042261e-2
vn -6.8007840e-2 0.99684024 4.1042261e-2
vn -0.92175269 5.3765279e-3 0.38774098
vn -0.92175269 5.3765279e-3 0.38774098
vn -0.24459162 0.96750110 6.4160380e-2
vn -0.98464456 -5.2056674e-2 0.16662893
vn -0.98464456 -5.2056674e-2 0.16662893
vn -0.24459162 0.96750110 6.4160380e-2
vn -0.99970366 -2.1297336e-2 1.1790103e-2
vn -0.99970366 -2.1297336e-2 1.1790103e-2
vn -3.8935730e-2 0.99914813 1.3675373e-2
vn -3.8935730e-2 0.99914813 1.3675373e-2
vn -3.8935730e-2 0.99914813 1.3675373e-2
vn -3.8935730e-2 0.99914813 1.3675373e-2
vn -3.8935730e-2 0.99914813 1.3675373e-2
vn -0.98414446 -3.8070413e-2 -0.17323488
vn -0.98414446 -3.8070413e-2 -0.17323488
vn 1.1164849e-3 0.99998905 -4.5454953e-3
vn -0.92168790 -9.4567231e-4 -0.38793107
vn -0.92168790 -9.4567231e-4 -0.38793107
vn 2.7482106e-2 0.99962143 1.3163527e-3
vn 2.7482106e-2 0.99962143 1.3163527e-3
vn -0.82446566 7.4134147e-2 -0.56103520
vn -0.82446566 7.4134147e-2 -0.56103520
vn 5.3827675e-2 0.99852445 7.1772402e-3
vn -0.69956047 0.10353620 -0.70703282
vn -0.69956047 0.10353620 -0.70703282
vn 2.4110117e-2 0.99970759 1.8562140e-3
vn 2.4110117e-2 0.99970759 1.8562140e-3
vn -0.56579955 9.8510631e-2 -0.81863699
vn -0.56579955 9.8510631e-2 -0.81863699
vn 1.4494525e-3 0.99997527 -6.8819725e-3
vn 1.4494525e-3 0.99997527 -6.8819725e-3
vn 1.4494525e-3 0.99997527 -6.8819725e-3
vn -0.39931785 1.9977980e-2 -0.91659486
vn -0.39931785 1.9977980e-2 -0.91659486
vn 1.5882066e-2 0.99933183 -3.2918780e-2
vn 1.5882066e-2 0.99933183 -3.2918780e-2
vn -0.17433332 -0.11038955 -0.97847945
vn -0.17433332 -0.11038955 -0.97847945
vn 1.6562606e-2 0.99941196 -3.0023488e-2
vn 1.4316597e-2 -0.14661898 -0.98908943
vn 1.4316597e-2 -0.14661898 -0.98908943
vn 1.6562606e-2 0.99941196 -3.0023488e-2
vn 0.18037855 -6.1960075e-2 -0.98164379
vn 0.18037855 -6.1960075e-2 -0.98164379
vn -1.4196941e-2 0.99985355 9.5560100e-3
vn -1.4196941e-2 0.99985355 9.5560100e-3
vn -1.4196941e-2 0.99985355 9.5560100e-3
vn 0.39378636 -3.4123162e-2 -0.91856840
vn 0.39378636 -3.4123162e-2 -0.91856840
vn -7.4239150e-2 0.99275979 9.4427444e-2
vn 0.55679232 -2.1279194e-2 -0.83037914
vn 0.55679232 -2.1279194e-2 -0.83037914
vn -0.11903855 0.98636571 0.11363319
vn -0.11903855 0.98636571 0.11363319
vn 0.70624996 2.9332676e-2 -0.70735464
vn 0.70624996 2.9332676e-2 -0.70735464
vn -0.16355027 0.97758786 0.13256431
vn 0.83259979 7.7355401e-2 -0.54844665
vn 0.83259979 7.7355401e-2 -0.54844665
vn -5.7218325e-2 0.99696986 5.2698780e-2
vn -5.7218325e-2 0.99696986 5.2698780e-2
vn -5.7218325e-2 0.99696986 5.2698780e-2
vn -5.7218325e-2 0.99696986 5.2698780e-2
vn -4.0689589e-3 0.99998930 -2.2004326e-3
vn 0.91169843 6.6259810e-2 -0.40548195
vn 0.91169843 6.6259810e-2 -0.40548195
vn -4.0689589e-3 0.99998930 -2.2004326e-3
vn -4.0689589e-3 0.99998930 -2.2004326e-3
vn -4.0689589e-3 0.99998930 -2.2004326e-3
vn -4.0689589e-3 0.99998930 -2.2004326e-3
vn 5.7525646e-3 0.99987396 -1.4797575e-2
vn 0.97674058 -9.9114054e-3 -0.21419524
vn 0.97674058 -9.9114054e-3 -0.21419524
vn 0.95376689 -2.3157019e-2 0.29965391
vn 0.95376689 -2.3157019e-2 0.29965391
vn 2.5227808e-2 -0.99961361 -1.1670036e-2
vn 0.97617234 1.5626290e-2 0.21643330
vn 0.97617234 1.5626290e-2 0.21643330
vn 1.2143719e-2 -0.99992600 -7.2017176e-4
vn 1.2143719e-2 -0.99992600 -7.2017176e-4
vn 1.2143719e-2 -0.99992600 -7.2017176e-4
vn 1.2143719e-2 -0.99992600 -7.2017176e-4
vn 1.2143719e-2 -0.99992600 -7.2017176e-4
vn 0.99518131 4.4526428e-2 8.7358738e-2
vn 0.99518131 4.4526428e-2 8.7358738e-2
vn 3.9560959e-2 -0.99909538 1.5599691e-2
vn 0.83553867 3.0429034e-2 0.54858838
vn 0.83553867 3.0429034e-2 0.54858838
vn 3.9560959e-2 -0.99909538 1.5599691e-2
vn 0.69512937 -8.6443487e-3 0.71883269
vn 0.69512937 -8.6443487e-3 0.71883269
vn 2.5472595e-2 -0.99965849 5.8352478e-3
vn 2.5472595e-2 -0.99965849 5.8352478e-3
vn 0.55569089 1.1325036e-2 0.83131184
vn 0.55569089 1.1325036e-2 0.83131184
vn 1.7708280e-2 -0.99929210 3.3192223e-2
vn 1.7708280e-2 -0.99929210 3.3192223e-2
vn 0.37373634 3.8102085e-2 0.92675206
vn 0.37373634 3.8102085e-2 0.92675206
vn 2.4014701e-2 -0.99723902 7.0268271e-2
vn 0.16334779 3.1085929e-2 0.98607868
vn 0.16334779 3.1085929e-2 0.98607868
vn 2.4014701e-2 -0.99723902 7.0268271e-2
vn -1.5239983e-2 -0.99801784 6.1058517e-2
vn 1.7827766e-2 5.3860860e-2 0.99838929
vn 1.7827766e-2 5.3860860e-2 0.99838929
vn -1.5239983e-2 -0.99801784 6.1058517e-2
vn -1.5239983e-2 -0.99801784 6.1058517e-2
vn -1.5239983e-2 -0.99801784 6.1058517e-2
vn -8.9948356e-2 -0.97875230 0.18426402
vn -0.17601553 5.1006089e-2 0.98306506
vn -0.17601553 5.1006089e-2 0.98306506
vn -8.9948356e-2 -0.97875230 0.18426402
vn -0.39506238 -7.2841058e-2 0.91576192
vn -0.39506238 -7.2841058e-2 0.91576192
vn -5.5339286e-2 -0.99542567 7.7879970e-2
vn -0.53609666 -0.11916840 0.83570286
vn -0.53609666 -0.11916840 0.83570286
vn -5.5339286e-2 -0.99542567 7.7879970e-2
vn -5.5339286e-2 -0.99542567 7.7879970e-2
vn -5.5339286e-2 -0.99542567 7.7879970e-2
vn -5.5339286e-2 -0.99542567 7.7879970e-2
vn -0.71002061 1.3400012e-2 0.70405339
vn -0.71002061 1.3400012e-2 0.70405339
vn -0.19091890 -0.95934648 0.20785644
vn -0.82877952 9.0007517e-2 0.55228901
vn -0.82877952 9.0007517e-2 0.55228901
vn -8.8592221e-2 -0.98986852 0.11095827
vn -8.8592221e-2 -0.98986852 0.11095827
vn -0.92175269 5.3765279e-3 0.38774098
vn -0.92175269 5.3765279e-3 0.38774098
vn 1.5576433e-2 -0.99980960 1.1753105e-2
vn -0.98464456 -5.2056674e-2 0.16662893
vn -0.98464456 -5.2056674e-2 0.16662893
vn 5.0011141e-2 -0.99861147 -1.6553602e-2
vn 5.0011141e-2 -0.99861147 -1.6553602e-2
vn 5.0011141e-2 -0.99861147 -1.6553602e-2
vn -0.99970366 -2.1297336e-2 1.1790103e-2
vn -0.99970366 -2.1297336e-2 1.1790103e-2
vn 0.13717758 -0.98922709 -5.1108393e-2
vn -0.98414446 -3.8070413e-2 -0.17323488
vn -0.98414446 -3.8070413e-2 -0.17323488
vn 6.8551721e-2 -0.99761708 7.7989339e-3
vn 6.8551721e-2 -0.99761708 7.7989339e-3
vn 6.8551721e-2 -0.99761708 7.7989339e-3
vn 6.8551721e-2 -0.99761708 7.7989339e-3
vn -0.92168790 -9.4567231e-4 -0.38793107
vn -0.92168790 -9.4567231e-4 -0.38793107
vn 0.13524367 -0.98681586 8.8902201e-2
vn -0.82446566 7.4134147e-2 -0.56103520
vn -0.82446566 7.4134147e-2 -0.56103520
vn 0.13524367 -0.98681586 8.8902201e-2
vn -0.69956047 0.10353620 -0.70703282
vn -0.69956047 0.10353620 -0.70703282
vn 6.9764577e-2 -0.99648682 4.6334829e-2
vn 6.9764577e-2 -0.99648682 4.6334829e-2
vn -0.56579955 9.8510631e-2 -0.81863699
vn -0.56579955 9.8510631e-2 -0.81863699
vn 3.0240228e-2 -0.99280554 0.11585635
vn 3.0240228e-2 -0.99280554 0.11585635
vn -0.39931785 1.9977980e-2 -0.91659486
vn -0.39931785 1.9977980e-2 -0.91659486
vn 5.6222525e-2 -0.97234463 0.22668249
vn -0.17433332 -0.11038955 -0.97847945
vn -0.17433332 -0.11038955 -0.97847945
vn 5.6222525e-2 -0.97234463 0.22668249
vn 1.4316597e-2 -0.14661898 -0.98908943
vn 1.4316597e-2 -0.14661898 -0.98908943
vn 2.4092462e-3 -0.99907237 4.2995190e-2
vn 2.4092462e-3 -0.99907237 4.2995190e-2
vn 2.4092462e-3 -0.99907237 4.2995190e-2
vn 2.4092462e-3 -0.99907237 4.2995190e-2
vn 2.4092462e-3 -0.99907237 4.2995190e-2
vn 2.4092462e-3 -0.99907237 4.2995190e-2
vn 0.18037855 -6.1960075e-2 -0.98164379
vn 0.18037855 -6.1960075e-2 -0.98164379
vn -2.7153023e-2 -0.99880688 4.0589720e-2
vn 0.39378636 -3.4123162e-2 -0.91856840
vn 0.39378636 -3.4123162e-2 -0.91856840
vn -2.7153023e-2 -0.99880688 4.0589720e-2
vn 0.55679232 -2.1279194e-2 -0.83037914
vn 0.55679232 -2.1279194e-2 -0.83037914
vn -1.1042736e-2 -0.99983281 1.4574093e-2
vn -1.1042736e-2 -0.99983281 1.4574093e-2
vn -1.1042736e-2 -0.99983281 1.4574093e-2
vn 0.70624996 2.9332676e-2 -0.70735464
vn 0.70624996 2.9332676e-2 -0.70735464
vn 3.3375567e-3 -0.99999423 -6.3785227e-4
vn 0.83259979 7.7355401e-2 -0.54844665
vn 0.83259979 7.7355401e-2 -0.54844665
vn 8.3798370e-2 -0.99601429 -3.0551088e-2
vn 8.3798370e-2 -0.99601429 -3.0551088e-2
vn 8.3798370e-2 -0.99601429 -3.0551088e-2
vn 8.3798370e-2 -0.99601429 -3.0551088e-2
vn 0.91169843 6.6259810e-2 -0.40548195
vn 0.91169843 6.6259810e-2 -0.40548195
vn 0.31246277 -0.94325781 -0.11239095
vn 0.97674058 -9.9114054e-3 -0.21419524
vn 0.97674058 -9.9114054e-3 -0.21419524
vn 0.17090481 -0.98328497 -6.2787121e-2
vn 0.17090481 -0.98328497 -6.2787121e-2
vn 0.99850180 -8.1779950e-3 5.4104281e-2
vn 0.99850180 -8.1779950e-3 5.4104281e-2
vn 0.91643469 8.3178635e-3 0.40009782
vn 0.91643469 8.3178635e-3 0.40009782
vn 0.82385446 8.6319886e-3 0.56673566
vn 0.82385446 8.6319886e-3 0.56673566
vn 0.63673944 -8.4591434e-3 0.77103263
vn 0.63673944 -8.4591434e-3 0.77103263
vn 0.28414072 -1.1439010e-2 0.95871435
vn 0.28414072 -1.1439010e-2 0.95871435
vn -2.9831611e-2 -1.3482121e-2 0.99946401
vn -2.9831611e-2 -1.3482121e-2 0.99946401
vn -0.36427946 -8.9886722e-3 0.93124630
vn -0.36427946 -8.9886722e-3 0.93124630
vn -0.63069810 3.6710414e-3 0.77601961
vn -0.63069810 3.6710414e-3 0.77601961
vn -0.76037382 4.4424047e-3 0.64947049
vn -0.76037382 4.4424047e-3 0.64947049
vn -0.96949764 -8.0519763e-3 0.24496834
vn -0.96949764 -8.0519763e-3 0.24496834
vn -0.99722241 -5.9760358e-3 7.4241231e-2
vn -0.99722241 -5.9760358e-3 7.4241231e-2
vn -0.95273801 1.0025933e-2 -0.30362766
vn -0.95273801 1.0025933e-2 -0.30362766
vn -0.79954826 1.8774132e-3 -0.60059891
vn -0.79954826 1.8774132e-3 -0.60059891
vn -0.63226241 4.1600818e-4 -0.77475420
vn -0.63226241 4.1600818e-4 -0.77475420
vn -0.34449741 -6.0552686e-3 -0.93876774
vn -0.34449741 -6.0552686e-3 -0.93876774
vn -9.0249456e-2 -1.6630666e-2 -0.99578033
vn -9.0249456e-2 -1.6630666e-2 -0.99578033
vn 0.39206309 -6.8350374e-3 -0.91991294
vn 0.39206309 -6.8350374e-3 -0.91991294
vn 0.55152411 -2.1346066e-2 -0.83388579
vn 0.55152411 -2.1346066e-2 -0.83388579
vn 0.74899607 -4.2930473e-2 -0.66118217
vn 0.74899607 -4.2930473e-2 -0.66118217
vn 0.93132666 -2.8139260e-2 -0.36309618
vn 0.93132666 -2.8139260e-2 -0.36309618
vn 0.99850180 -8.1779950e-3 5.4104281e-2
vn 0.99850180 -8.1779950e-3 5.4104281e-2
vn 0.91643469 8.3178635e-3 0.40009782
vn 0.91643469 8.3178635e-3 0.40009782
vn 0.82385446 8.6319886e-3 0.56673566
vn 0.82385446 8.6319886e-3 0.56673566
vn 0.63673944 -8.4591434e-3 0.77103263
vn 0.63673944 -8.4591434e-3 0.77103263
vn 0.28414072 -1.1439010e-2 0.95871435
vn 0.28414072 -1.1439010e-2 0.95871435
vn -2.9831611e-2 -1.3482121e-2 0.99946401
vn -2.9831611e-2 -1.3482121e-2 0.99946401
vn -0.36427946 -8.9886722e-3 0.93124630
vn -0.36427946 -8.9886722e-3 0.93124630
vn -0.63069810 3.6710414e-3 0.77601961
vn -0.63069810 3.6710414e-3 0.77601961
vn -0.76037382 4.4424047e-3 0.64947049
vn -0.76037382 4.4424047e-3 0.64947049
vn -0.96949764 -8.0519763e-3 0.24496834
vn -0.96949764 -8.0519763e-3 0.24496834
vn -0.99722241 -5.9760358e-3 7.4241231e-2
vn -0.99722241 -5.9760358e-3 7.4241231e-2
vn -0.95273801 1.0025933e-2 -0.30362766
vn -0.95273801 1.0025933e-2 -0.30362766
vn -0.79954826 1.8774132e-3 -0.60059891
vn -0.79954826 1.8774132e-3 -0.60059891
vn -0.63226241 4.1600818e-4 -0.77475420
vn -0.63226241 4.1600818e-4 -0.77475420
vn -0.34449741 -6.0552686e-3 -0.93876774
vn -0.34449741 -6.0552686e-3 -0.93876774
vn -9.0249456e-2 -1.6630666e-2 -0.99578033
vn -9.0249456e-2 -1.6630666e-2 -0.99578033
vn 0.39206309 -6.8350374e-3 -0.91991294
vn 0.39206309 -6.8350374e-3 -0.91991294
vn 0.55152411 -2.1346066e-2 -0.83388579
vn 0.55152411 -2.1346066e-2 -0.83388579
vn 0.74899607 -4.2930473e-2 -0.66118217
vn 0.74899607 -4.2930473e-2 -0.66118217
vn 0.93132666 -2.8139260e-2 -0.36309618
vn 0.93132666 -2.8139260e-2 -0.36309618
g Cable Spool_default
usemtl default
f 1/215/1 32/185/126 3/253/7 2/237/4
f 1/348/2 33/347/131 64/336/262 32/332/127
f 2/358/6 34/357/136 33/347/132 1/348/3
f 3/253/12 5/276/19 4/268/15
f 3/369/9 35/370/140 34/357/135 2/358/5
f 4/382/14 36/385/143 35/370/139 3/369/8
f 5/276/18 3/253/11 10/325/40 6/306/23
f 5/398/17 37/400/148 36/385/142 4/382/13
f 6/306/22 10/325/39 9/337/33 7/320/26
f 6/397/21 38/399/161 37/407/147 5/406/16
f 7/320/27 9/337/34 8/333/30
f 7/389/25 39/390/164 38/399/160 6/397/20
f 8/377/29 40/379/167 39/390/163 7/389/24
f 9/367/32 41/365/170 40/379/166 8/377/28
f 10/325/38 3/253/10 32/185/129 29/40/117
f 10/325/41 12/297/48 11/313/44
f 10/351/36 42/352/174 41/365/169 9/367/31
f 11/340/43 43/339/178 42/352/173 10/351/35
f 12/297/47 10/325/37 29/40/115 13/281/51
f 12/307/46 44/305/181 43/339/177 11/340/42
f 13/281/54 16/226/64 15/247/60 14/264/57
f 13/283/50 45/282/187 44/305/180 12/307/45
f 14/260/56 46/261/190 45/282/186 13/283/49
f 15/245/59 47/246/195 46/261/189 14/260/55
f 16/226/65 18/161/73 17/204/68
f 16/234/62 48/229/198 47/246/194 15/245/58
f 17/213/67 49/212/201 48/229/197 16/234/61
f 18/161/72 22/24/89 21/36/83 19/95/76
f 18/197/70 50/196/206 49/212/200 17/213/66
f 19/95/77 21/36/84 20/54/80
f 19/138/75 51/147/211 50/196/205 18/197/69
f 20/78/79 52/77/214 51/147/210 19/138/74
f 21/43/82 53/44/219 52/77/213 20/78/78
f 22/24/88 18/161/71 16/226/63 13/281/53
f 22/24/90 26/13/106 23/17/94
f 22/25/86 54/26/222 53/44/218 21/43/81
f 23/17/93 26/13/105 25/1/100 24/7/97
f 23/72/92 55/74/227 54/42/221 22/41/85
f 24/136/96 56/127/232 55/74/226 23/72/91
f 25/181/99 57/182/235 56/127/231 24/136/95
f 26/13/104 29/40/119 28/30/112 27/21/109
f 26/205/102 58/208/240 57/182/234 25/181/98
f 27/225/108 59/227/243 58/208/239 26/205/101
f 28/248/111 60/244/247 59/227/242 27/225/107
f 29/40/116 26/13/103 22/24/87 13/281/52
f 29/40/118 32/185/130 31/126/125 30/67/122
f 29/263/114 61/262/250 60/244/246 28/248/110
f 30/279/121 62/280/256 61/262/249 29/263/113
f 31/304/124 63/302/260 62/280/255 30/279/120
f 32/332/128 64/336/263 63/302/259 31/304/123
f 33/2/134 37/47/158 64/12/266
f 34/8/138 36/31/145 37/47/157 33/2/133
f 35/16/141 36/31/144 34/8/137
f 38/60/159 39/117/162 40/163/165 37/47/146
f 41/210/172 37/47/154 40/163/168
f 42/230/176 44/267/185 37/47/153 41/210/171
f 43/252/179 44/267/184 42/230/175
f 44/267/183 46/301/193 49/331/203 37/47/149
f 45/285/188 46/301/191 44/267/182
f 47/316/196 48/329/199 49/331/202 46/301/192
f 50/327/209 37/47/155 49/331/204
f 50/327/208 52/300/217 54/266/224 37/47/150
f 51/318/212 52/300/215 50/327/207
f 53/286/220 54/266/223 52/300/216
f 55/250/230 37/47/156 54/266/225
f 55/250/229 57/207/237 61/39/252 37/47/151
f 56/232/233 57/207/236 55/250/228
f 58/172/241 59/116/245 61/39/254 57/207/238
f 60/61/248 61/39/251 59/116/244
f 62/28/258 64/12/265 37/47/152 61/39/253
f 63/18/261 64/12/264 62/28/257
f 65/177/268 69/99/278 70/101/281 66/179/271
f 66/101/269 67/179/272 68/177/275 65/99/267
f 66/55/270 70/57/279 71/124/283 67/122/274
f 67/101/273 71/179/282 72/173/285 68/99/276
f 69/177/277 72/99/286 71/101/284 70/179/280
f 73/177/288 77/99/298 78/101/301 74/179/291
f 74/101/289 75/179/292 76/177/295 73/99/287
f 74/123/290 78/125/299 79/58/303 75/56/294
f 75/104/293 79/174/302 80/173/305 76/103/296
f 77/175/297 80/102/306 79/98/304 78/176/300
f 81/158/309 87/156/326 88/143/328 82/146/312
f 82/70/310 83/65/313 84/50/316 85/49/319 86/64/322 81/69/307
f 82/146/311 88/143/327 89/128/330 83/129/315
f 83/129/314 89/128/329 90/109/332 84/111/318
f 84/111/317 90/109/331 91/85/334 85/87/321
f 85/195/320 91/191/333 92/164/336 86/165/324
f 86/165/323 92/164/335 87/156/325 81/158/308
f 93/160/339 99/155/356 100/142/358 94/145/342
f 94/71/340 95/68/343 96/62/346 97/48/349 98/51/352 93/66/337
f 94/145/341 100/142/357 101/132/360 95/135/345
f 95/135/344 101/132/359 102/108/362 96/113/348
f 96/113/347 102/108/361 103/84/364 97/89/351
f 97/194/350 103/190/363 104/168/366 98/171/354
f 98/171/353 104/168/365 99/155/355 93/160/338
f 105/177/368 109/99/378 110/101/381 106/179/371
f 106/101/369 107/179/372 108/177/375 105/99/367
f 106/183/370 110/216/379 111/218/383 107/186/374
f 107/101/373 111/179/382 112/177/385 108/99/376
f 109/177/377 112/99/386 111/101/384 110/179/380
f 113/159/389 119/157/406 120/141/408 114/144/392
f 114/118/390 115/92/393 116/80/396 117/81/399 118/93/402 113/120/387
f 114/144/391 120/141/407 121/133/410 115/134/395
f 115/134/394 121/133/409 122/110/412 116/112/398
f 116/112/397 122/110/411 123/86/414 117/88/401
f 117/193/400 123/192/413 124/169/416 118/170/404
f 118/170/403 124/169/415 119/157/405 113/159/388
f 125/140/419 131/139/436 132/130/438 126/131/422
f 126/115/420 127/91/423 128/79/426 129/90/429 130/114/432 125/121/417
f 126/131/421 132/130/437 133/106/440 127/107/425
f 127/107/424 133/106/439 134/82/442 128/83/428
f 128/189/427 134/188/441 135/166/444 129/167/431
f 129/167/430 135/166/443 136/153/446 130/154/434
f 130/154/433 136/153/445 131/139/435 125/140/418
f 137/177/448 141/99/458 142/101/461 138/179/451
f 138/101/449 139/179/452 140/177/455 137/99/447
f 138/187/450 142/184/459 143/217/463 139/219/454
f 139/101/453 143/179/462 144/177/465 140/99/456
f 141/177/457 144/99/466 143/100/464 142/178/460
f 145/99/467 148/177/475 147/179/472 146/101/469
f 146/179/471 150/101/481 149/99/478 145/177/468
f 147/122/474 151/124/483 150/57/479 146/55/470
f 148/99/476 152/173/485 151/179/482 147/101/473
f 150/179/480 151/101/484 152/99/486 149/177/477
f 153/99/487 156/177/495 155/179/492 154/101/489
f 154/179/491 158/101/501 157/99/498 153/177/488
f 155/56/494 159/58/503 158/125/499 154/123/490
f 156/103/496 160/173/505 159/174/502 155/104/493
f 158/176/500 159/98/504 160/102/506 157/175/497
f 161/69/507 166/64/522 165/49/519 164/50/516 163/65/513 162/70/510
f 161/158/508 167/156/525 172/164/535 166/165/523
f 162/146/512 168/143/528 167/156/526 161/158/509
f 163/129/515 169/128/530 168/143/527 162/146/511
f 164/111/518 170/109/532 169/128/529 163/129/514
f 165/87/521 171/85/534 170/109/531 164/111/517
f 166/165/524 172/164/536 171/191/533 165/195/520
f 173/66/537 178/51/552 177/48/549 176/62/546 175/68/543 174/71/540
f 173/160/538 179/155/555 184/168/565 178/171/553
f 174/145/542 180/142/558 179/155/556 173/160/539
f 175/135/545 181/132/560 180/142/557 174/145/541
f 176/113/548 182/108/562 181/132/559 175/135/544
f 177/89/551 183/84/564 182/108/561 176/113/547
f 178/171/554 184/168/566 183/190/563 177/194/550
f 185/99/567 188/177/575 187/179/572 186/101/569
f 186/179/571 190/101/581 189/99/578 185/177/568
f 187/186/574 191/218/583 190/216/579 186/183/570
f 188/99/576 192/177/585 191/179/582 187/101/573
f 190/179/580 191/101/584 192/99/586 189/177/577
f 193/120/587 198/93/602 197/81/599 196/80/596 195/92/593 194/118/590
f 193/159/588 199/157/605 204/169/615 198/170/603
f 194/144/592 200/141/608 199/157/606 193/159/589
f 195/134/595 201/133/610 200/141/607 194/144/591
f 196/112/598 202/110/612 201/133/609 195/134/594
f 197/88/601 203/86/614 202/110/611 196/112/597
f 198/170/604 204/169/616 203/192/613 197/193/600
f 205/121/617 210/114/632 209/90/629 208/79/626 207/91/623 206/115/620
f 205/140/618 211/139/635 216/153/645 210/154/633
f 206/131/622 212/130/638 211/139/636 205/140/619
f 207/107/625 213/106/640 212/130/637 206/131/621
f 208/83/628 214/82/642 213/106/639 207/107/624
f 209/167/631 215/166/644 214/188/641 208/189/627
f 210/154/634 216/153/646 215/166/643 209/167/630
f 217/99/647 220/177/655 219/179/652 218/101/649
f 218/179/651 222/101/661 221/99/658 217/177/648
f 219/219/654 223/217/663 222/184/659 218/187/650
f 220/99/656 224/177/665 223/179/662 219/101/653
f 222/178/660 223/100/664 224/99/666 221/177/657
f 225/338/667 256/330/794 255/314/787 226/308/670
f 225/150/668 257/149/797 288/201/921 256/203/795
f 226/308/673 255/314/792 233/209/700 227/315/676
f 226/75/672 258/73/801 257/149/798 225/150/669
f 227/315/678 230/269/688 229/287/684 228/303/681
f 227/409/675 259/410/808 258/415/800 226/416/671
f 228/402/680 260/401/811 259/410/807 227/409/674
f 229/391/683 261/392/814 260/401/810 228/402/679
f 230/269/689 232/235/696 231/251/692
f 230/372/686 262/373/818 261/392/813 229/391/682
f 231/360/691 263/359/822 262/373/817 230/372/685
f 232/235/695 230/269/687 227/315/677 233/209/701
f 232/346/694 264/345/825 263/359/821 231/360/690
f 233/209/702 238/29/723 234/180/706
f 233/323/698 265/324/829 264/345/824 232/346/693
f 234/180/705 238/29/722 237/38/716 235/119/709
f 234/295/704 266/296/835 265/324/828 233/323/697
f 235/119/710 237/38/717 236/63/713
f 235/275/708 267/274/838 266/296/834 234/295/703
f 236/258/712 268/257/841 267/274/837 235/275/707
f 237/241/715 269/240/847 268/257/840 236/258/711
f 238/29/721 241/10/734 240/6/729 239/20/726
f 238/224/719 270/228/850 269/240/846 237/241/714
f 239/214/725 271/211/854 270/228/849 238/224/718
f 240/199/728 272/200/857 271/211/853 239/214/724
f 241/10/736 243/19/743 242/5/739
f 241/151/731 273/152/862 272/200/856 240/199/727
f 242/94/738 274/96/865 273/152/861 241/151/730
f 243/19/742 241/10/735 245/37/750 244/27/746
f 243/52/741 275/53/871 274/96/864 242/94/737
f 244/32/745 276/35/874 275/53/870 243/52/740
f 245/37/749 241/10/733 255/314/791 246/59/753
f 245/9/748 277/11/877 276/35/873 244/32/744
f 246/59/754 254/298/783 250/231/768 247/105/758
f 246/375/752 278/376/881 277/387/876 245/388/747
f 247/105/759 250/231/770 249/206/765 248/162/762
f 247/364/757 279/362/885 278/376/880 246/375/751
f 248/349/761 280/350/888 279/362/884 247/364/756
f 249/326/764 281/328/891 280/350/887 248/349/760
f 250/231/769 254/298/784 252/265/776 251/249/773
f 250/291/767 282/294/899 281/328/890 249/326/763
f 251/271/772 283/270/902 282/294/898 250/291/766
f 252/265/777 254/298/785 253/284/780
f 252/255/775 284/256/905 283/270/901 251/271/771
f 253/242/779 285/243/910 284/256/904 252/255/774
f 254/298/786 246/59/755 255/314/793
f 254/236/782 286/233/913 285/243/909 253/242/778
f 255/314/790 241/10/732 238/29/720 233/209/699
f 255/221/789 287/222/919 286/233/912 254/236/781
f 256/203/796 288/201/922 287/222/918 255/221/788
f 258/97/806 286/239/917 288/202/924 257/148/799
f 259/46/809 260/34/812 261/23/815 258/97/804
f 262/15/820 265/14/832 258/97/805 261/23/816
f 263/3/823 264/4/826 265/14/830 262/15/819
f 266/22/833 267/33/836 268/45/839 265/14/827
f 268/45/844 272/220/859 274/254/867 281/321/896
f 268/45/842 281/321/893 258/97/802 265/14/831
f 269/76/848 270/137/851 268/45/843
f 271/198/855 272/220/860 268/45/845 270/137/852
f 273/238/863 274/254/866 272/220/858
f 275/272/872 276/289/875 277/309/878 274/254/868
f 278/322/883 281/321/897 274/254/869 277/309/879
f 279/334/886 280/335/889 281/321/895 278/322/882
f 282/310/900 283/293/903 284/278/906 281/321/892
f 284/278/908 286/239/915 258/97/803 281/321/894
f 285/259/911 286/239/914 284/278/907
f 287/223/920 288/202/923 286/239/916
f 289/353/925 309/356/965 328/363/1003 308/366/963
f 290/341/928 310/342/968 309/356/966 289/353/926
f 291/319/930 311/312/970 310/342/967 290/341/927
f 292/292/932 312/288/972 311/312/969 291/319/929
f 293/413/934 313/412/974 312/417/971 292/418/931
f 294/403/936 314/408/976 313/412/973 293/413/933
f 295/396/938 315/394/978 314/408/975 294/403/935
f 296/384/940 316/383/980 315/394/977 295/396/937
f 297/371/942 317/380/982 316/383/979 296/384/939
f 298/361/944 318/368/984 317/380/981 297/371/941
f 299/354/946 319/355/986 318/368/983 298/361/943
f 300/343/948 320/344/988 319/355/985 299/354/945
f 301/317/950 321/311/990 320/344/987 300/343/947
f 302/299/952 322/290/992 321/311/989 301/317/949
f 303/277/954 323/273/994 322/290/991 302/299/951
f 304/405/956 324/404/996 323/411/993 303/414/953
f 305/395/958 325/393/998 324/404/995 304/405/955
f 306/386/960 326/381/1000 325/393/997 305/395/957
f 307/374/962 327/378/1002 326/381/999 306/386/959
f 308/366/964 328/363/1004 327/378/1001 307/374/961
