# Exported from Wings 3D 1.0.2
mtllib CeilingLight.mtl
o cylinder1
#370 vertices, 324 faces
v 0.98241754 0.12062044 0.19541500
v 0.98241754 0.12062044 -0.19541500
v 0.83285338 0.12062044 0.55649483
v 0.55649483 0.12062044 0.83285338
v 0.19541500 0.12062044 0.98241754
v -0.19541500 0.12062044 0.98241754
v -0.55649483 0.12062044 0.83285338
v -0.83285338 0.12062044 0.55649483
v -0.98241754 0.12062044 0.19541500
v -0.98241754 0.12062044 -0.19541500
v -0.83285338 0.12062044 -0.55649483
v -0.55649483 0.12062044 -0.83285338
v -0.19541500 0.12062044 -0.98241754
v 0.19541500 0.12062044 -0.98241754
v 0.55649483 0.12062044 -0.83285338
v 0.83285338 0.12062044 -0.55649483
v 1.12576196 0.19970133 0.22392798
v 1.12576196 0.19970133 -0.22392798
v 0.95437490 0.19970133 -0.63769292
v 0.63769292 0.19970133 -0.95437490
v 0.22392798 0.19970133 -1.12576196
v -0.22392798 0.19970133 -1.12576196
v -0.63769292 0.19970133 -0.95437490
v -0.95437490 0.19970133 -0.63769292
v -1.12576196 0.19970133 -0.22392798
v -1.12576196 0.19970133 0.22392798
v -0.95437490 0.19970133 0.63769292
v -0.63769292 0.19970133 0.95437490
v -0.22392798 0.19970133 1.12576196
v 0.22392798 0.19970133 1.12576196
v 0.63769292 0.19970133 0.95437490
v 0.95437490 0.19970133 0.63769292
v 0.81549316 -4.3825778e-2 -0.54489511
v -0.19134172 -4.3825778e-2 0.96193977
v -0.81549316 -4.3825778e-2 -0.54489511
v 0.96193977 -4.3825778e-2 -0.19134172
v 0.19134172 -4.3825778e-2 -0.96193977
v -0.81549316 -4.3825778e-2 0.54489511
v -0.96193977 -4.3825778e-2 0.19134172
v -0.96193977 -4.3825778e-2 -0.19134172
v -0.54489511 -4.3825778e-2 -0.81549316
v -0.54489511 -4.3825778e-2 0.81549316
v 0.54489511 -4.3825778e-2 0.81549316
v 0.54489511 -4.3825778e-2 -0.81549316
v 0.19134172 -4.3825778e-2 0.96193977
v -0.19134172 -4.3825778e-2 -0.96193977
v 0.81549316 -4.3825778e-2 0.54489511
v 0.96193977 -4.3825778e-2 0.19134172
v 0.93738962 -6.8856889e-2 0.18645839
v 0.79468055 -6.8856889e-2 0.53098857
v 0.53098857 -6.8856889e-2 0.79468055
v 0.18645839 -6.8856889e-2 0.93738962
v -0.18645839 -6.8856889e-2 0.93738962
v -0.53098857 -6.8856889e-2 0.79468055
v -0.79468055 -6.8856889e-2 0.53098857
v -0.93738962 -6.8856889e-2 0.18645839
v -0.93738962 -6.8856889e-2 -0.18645839
v -0.79468055 -6.8856889e-2 -0.53098857
v -0.53098857 -6.8856889e-2 -0.79468055
v -0.18645839 -6.8856889e-2 -0.93738962
v 0.18645839 -6.8856889e-2 -0.93738962
v 0.53098857 -6.8856889e-2 -0.79468055
v 0.79468055 -6.8856889e-2 -0.53098857
v 0.93738962 -6.8856889e-2 -0.18645839
v 1.12576196 0.23902293 0.22392798
v 1.12576196 0.23902293 -0.22392798
v 0.95437490 0.23902293 -0.63769292
v 0.63769292 0.23902293 -0.95437490
v 0.22392798 0.23902293 -1.12576196
v -0.22392798 0.23902293 -1.12576196
v -0.63769292 0.23902293 -0.95437490
v -0.95437490 0.23902293 -0.63769292
v -1.12576196 0.23902293 -0.22392798
v -1.12576196 0.23902293 0.22392798
v -0.95437490 0.23902293 0.63769292
v -0.63769292 0.23902293 0.95437490
v -0.22392798 0.23902293 1.12576196
v 0.22392798 0.23902293 1.12576196
v 0.63769292 0.23902293 0.95437490
v 0.95437490 0.23902293 0.63769292
v -6.2450045e-17 -6.8856889e-2 -3.4694470e-17
v -0.77568246 -0.10969972 -0.16699148
v -0.77568246 -5.3339228e-2 -0.16699148
v -0.73808162 -5.3339228e-2 -9.7333994e-2
v -0.73808162 -0.10969972 -9.7333994e-2
v -0.70602497 -0.10969972 -0.20459232
v -0.70602497 -5.3339228e-2 -0.20459232
v -0.66842413 -5.3339228e-2 -0.13493483
v -0.66842413 -0.10969972 -0.13493483
v -0.18167938 -0.13379938 -0.58606632
v -0.18167938 -8.4873850e-2 -0.58606632
v 5.2436461e-2 -8.4873850e-2 -0.58606632
v 5.2436461e-2 -0.13379938 -0.58606632
v -0.18167938 -0.13379938 -0.96477899
v -0.18167938 -8.4873850e-2 -0.96477899
v 5.2436461e-2 -8.4873850e-2 -0.96477899
v 5.2436461e-2 -0.13379938 -0.96477899
v -0.18167938 0.19015330 -1.19981864
v -0.18167938 0.23907883 -1.19981864
v 5.2436461e-2 0.23907883 -1.19981864
v 5.2436461e-2 0.19015330 -1.19981864
v -0.18167938 0.19015330 -1.38924204
v -0.18167938 0.23907883 -1.38924204
v 5.2436461e-2 0.23907883 -1.38924204
v 5.2436461e-2 0.19015330 -1.38924204
v -0.74447029 -0.13960672 -0.15766300
v -0.74447029 -0.10700150 -0.15766300
v -0.72875313 -0.10700150 -0.12854617
v -0.72875313 -0.13960672 -0.12854617
v -0.71535345 -0.13960672 -0.17338015
v -0.71535345 -0.10700150 -0.17338015
v -0.69963630 -0.10700150 -0.14426332
v -0.69963630 -0.13960672 -0.14426332
v -0.10315380 -0.13379938 0.54205459
v -0.10315380 -8.4873850e-2 0.54205459
v 0.10991642 -8.4873850e-2 0.63906648
v 0.10991642 -0.13379938 0.63906648
v -0.26008308 -0.13379938 0.88672325
v -0.26008308 -8.4873850e-2 0.88672325
v -4.7012859e-2 -8.4873850e-2 0.98373514
v -4.7012859e-2 -0.13379938 0.98373514
v -0.35747777 0.19015330 1.10063424
v -0.35747777 0.23907883 1.10063424
v -0.14440755 0.23907883 1.19764613
v -0.14440755 0.19015330 1.19764613
v -0.43597021 0.19015330 1.27302961
v -0.43597021 0.23907883 1.27302961
v -0.22289998 0.23907883 1.37004150
v -0.22289998 0.19015330 1.37004150
v -0.25800565 -0.40249860 0.32984153
v -0.20954543 -0.30508103 0.27325298
v -0.13182257 -0.21585254 0.30547521
v -7.0366064e-2 -0.18708197 0.40763289
v -6.1176298e-2 -0.23562272 0.51988343
v -0.10963652 -0.33304028 0.57647198
v -0.18735938 -0.42226877 0.54424975
v -0.24881588 -0.45103935 0.44209207
v -0.15147960 -0.51448039 0.25781232
v -9.2253770e-2 -0.39542116 0.18865241
v 2.7355094e-3 -0.28637023 0.22803293
v 7.7844805e-2 -0.25120817 0.35288531
v 8.9076110e-2 -0.31053242 0.49007271
v 2.9850279e-2 -0.42959166 0.55923262
v -6.5139000e-2 -0.53864258 0.51985210
v -0.14024830 -0.57380465 0.39499972
v -0.20050402 -0.30747262 0.30175519
v -0.23989306 -0.38665478 0.34775105
v -0.23242351 -0.42610929 0.43898963
v -0.18247093 -0.40272422 0.52202462
v -0.11929685 -0.33019823 0.54821524
v -7.9907806e-2 -0.25101606 0.50221938
v -8.7377358e-2 -0.21156156 0.41098080
v -0.13732994 -0.23494663 0.32794581
v -0.33669595 -0.20978496 0.34476121
v -0.37919707 -0.29522320 0.39439113
v -0.36540741 -0.32931939 0.49173188
v -0.31545483 -0.30593432 0.57476686
v -0.24907272 -0.23430609 0.61069371
v -0.20657160 -0.14886786 0.56106378
v -0.22036126 -0.11477166 0.46372304
v -0.27031384 -0.13815673 0.38068806
v -0.32610500 -0.29507465 0.36240992
v -0.31193796 -0.26659524 0.34586661
v -0.18181361 -0.20567814 0.56216918
v -0.19598065 -0.23415755 0.57871249
v -0.13953192 -0.49786056 0.27495878
v -8.8217537e-2 -0.39470537 0.21503732
v -5.9170171e-3 -0.30022157 0.24915735
v 5.9159106e-2 -0.26975649 0.35733183
v 6.8890123e-2 -0.32115615 0.47619361
v 1.7575736e-2 -0.42431134 0.53611507
v -6.4724784e-2 -0.51879514 0.50199504
v -0.12980091 -0.54926022 0.39382056
v -0.17394372 -0.41269902 0.34057550
v -0.14141610 -0.34731009 0.30259195
v -8.9246711e-2 -0.28741785 0.32422026
v -4.7995675e-2 -0.26810637 0.39279087
v -4.1827291e-2 -0.30068805 0.46813604
v -7.4354914e-2 -0.36607698 0.50611959
v -0.12652430 -0.42596922 0.48449128
v -0.16777534 -0.44528070 0.41592067
v 0.43108152 -0.22740982 -0.46830529
v 0.44352126 -0.23374756 -0.49661519
v 0.41667594 -0.20202241 -0.48031876
v 0.42911569 -0.20836014 -0.50862867
v 0.56349944 -0.13272786 -0.53273824
v 0.57578043 -0.13930492 -0.56105267
v 0.56009109 -0.11533727 -0.57329043
v 0.54781011 -0.10876021 -0.54497600
v 0.64246169 -5.9421045e-2 -0.52904046
v 0.65363139 -6.7673401e-2 -0.55738656
v 0.62895572 -5.3644043e-2 -0.57119428
v 0.61778602 -4.5391687e-2 -0.54284819
v 0.31480811 -0.18780724 -0.58736113
v 0.32724785 -0.19414498 -0.61567104
v 0.30040254 -0.16241983 -0.59937461
v 0.43900800 -0.11717112 -0.54546411
v 0.42460243 -9.1783710e-2 -0.55747759
v 0.45144774 -0.12350886 -0.57377402
v 0.31284228 -0.16875756 -0.62768451
v 0.43704217 -9.8121446e-2 -0.58578749
v 0.58820200 -0.10862978 -0.46302131
v 0.60048299 -0.11520684 -0.49133574
v 0.58479365 -9.1239184e-2 -0.50357350
v 0.57251267 -8.4662121e-2 -0.47525907
v 0.67044620 -4.9356519e-2 -0.43711756
v 0.68161590 -5.7608875e-2 -0.46546365
v 0.65694023 -4.3579517e-2 -0.47927138
v 0.64577053 -3.5327161e-2 -0.45092528
v -0.30866061 -0.27617788 0.37179623
v -0.31037169 -0.29013452 0.40005661
v -0.29128748 -0.25298106 0.38430408
v -0.29299856 -0.26693770 0.41256446
v -0.42421534 -0.24227000 0.45310334
v -0.42677461 -0.25446282 0.48163115
v -0.40848839 -0.23185706 0.49342600
v -0.40592912 -0.21966423 0.46489819
v -0.48733309 -0.15068881 0.49180492
v -0.51181268 -0.16799330 0.48423042
v -0.51943474 -0.16846267 0.51418917
v -0.49495515 -0.15115817 0.52176367
v -0.55808293 -4.9630468e-2 0.42959066
v -0.58847967 -5.4059603e-2 0.42232531
v -0.59676568 -4.4781262e-2 0.45133599
v -0.56636893 -4.0352128e-2 0.45860133
v -0.15868029 -0.25401633 0.45102332
v -0.16039137 -0.26797297 0.47928370
v -0.14130716 -0.23081950 0.46353117
v -0.28662006 -0.18519485 0.48366009
v -0.26924693 -0.16199802 0.49616794
v -0.28833114 -0.19915149 0.51192047
v -0.14301824 -0.24477615 0.49179155
v -0.27095801 -0.17595467 0.52442833
v -0.42909971 -0.14807859 0.51994486
v -0.43145482 -0.16134789 0.54837600
v -0.41285008 -0.13948277 0.56055639
v -0.41049496 -0.12621347 0.53212525
v -0.46702173 -3.5095664e-2 0.49936343
v -0.49424778 -4.7638841e-2 0.48947527
v -0.50111111 -5.6096752e-2 0.51910167
v -0.47388506 -4.3553576e-2 0.52898982
v -0.22029916 -0.21598338 0.46607538
v -0.22201025 -0.22994002 0.49433577
v -0.20292603 -0.19278655 0.47858324
v -0.20463711 -0.20674320 0.50684362
v 0.57890181 -0.10969972 0.17600702
v 0.57890181 -5.3339228e-2 0.17600702
v 0.65442930 -5.3339228e-2 0.19970486
v 0.65442930 -0.10969972 0.19970486
v 0.60259965 -0.10969972 0.10047953
v 0.60259965 -5.3339228e-2 0.10047953
v 0.67812714 -5.3339228e-2 0.12417737
v 0.67812714 -0.10969972 0.12417737
v 0.60777638 -0.13960672 0.16092459
v 0.60777638 -0.10700150 0.16092459
v 0.63934687 -0.10700150 0.17083029
v 0.63934687 -0.13960672 0.17083029
v 0.61768208 -0.13960672 0.12935410
v 0.61768208 -0.10700150 0.12935410
v 0.64925257 -0.10700150 0.13925980
v 0.64925257 -0.13960672 0.13925980
v 0.40491354 -0.34570614 -0.39875793
v 0.36816390 -0.24828857 -0.33394959
v 0.28571488 -0.15906008 -0.35072081
v 0.20586399 -0.13028951 -0.43924724
v 0.17538680 -0.17883026 -0.54767130
v 0.21213644 -0.27624782 -0.61247964
v 0.29458547 -0.36547631 -0.59570842
v 0.37443636 -0.39424689 -0.50718199
v 0.31412028 -0.45768793 -0.30769426
v 0.26920657 -0.33862870 -0.22848851
v 0.16844120 -0.22957777 -0.24898552
v 7.0851141e-2 -0.19441571 -0.35717842
v 3.3603339e-2 -0.25373996 -0.48968928
v 7.8517046e-2 -0.37279920 -0.56889503
v 0.17928242 -0.48185012 -0.54839802
v 0.27687248 -0.51701219 -0.44020512
v 0.35384096 -0.25068016 -0.36019796
v 0.38371151 -0.32986232 -0.41287495
v 0.35893929 -0.36931683 -0.50100333
v 0.29403553 -0.34593176 -0.57295867
v 0.22701997 -0.27340577 -0.58659052
v 0.19714942 -0.19422360 -0.53391352
v 0.22192164 -0.15476910 -0.44578515
v 0.28682540 -0.17815417 -0.37382981
v 0.47930091 -0.15299250 -0.42844427
v 0.51153149 -0.23843074 -0.48528320
v 0.47938927 -0.27252693 -0.57819312
v 0.41448551 -0.24914186 -0.65014846
v 0.34245998 -0.17751363 -0.67272379
v 0.31022940 -9.2075398e-2 -0.61588486
v 0.34237162 -5.7979204e-2 -0.52297494
v 0.40727538 -8.1364274e-2 -0.45101960
v 0.46553168 -0.23828219 -0.44374307
v 0.45478815 -0.20980278 -0.42479676
v 0.28571664 -0.14888568 -0.61223735
v 0.29646016 -0.17736509 -0.63118366
v 0.29911534 -0.44106810 -0.32224074
v 0.26020125 -0.33791291 -0.25361537
v 0.17289621 -0.24342911 -0.27137437
v 8.8342324e-2 -0.21296403 -0.36511476
v 5.6070119e-2 -0.26436369 -0.47992469
v 9.4984211e-2 -0.36751888 -0.54855006
v 0.18228925 -0.46200268 -0.53079106
v 0.26684313 -0.49246776 -0.43705067
v 0.32034986 -0.35590656 -0.39322540
v 0.29568265 -0.29051763 -0.34972453
v 0.24034095 -0.23062539 -0.36098176
v 0.18674317 -0.21131391 -0.42040276
v 0.16628618 -0.24389559 -0.49317951
v 0.19095339 -0.30928452 -0.53668037
v 0.24629509 -0.36917676 -0.52542314
v 0.29989287 -0.38848824 -0.46600214
v 0.24144769 -0.34922892 -0.25618237
v 0.27752970 -0.44487671 -0.31981334
v 0.24760619 -0.49253563 -0.42626767
v 0.16920594 -0.46428772 -0.51318585
v 8.8254762e-2 -0.37668023 -0.52965239
v 5.2172748e-2 -0.28103244 -0.46602142
v 8.2096257e-2 -0.23337353 -0.35956709
v 0.16049650 -0.26162143 -0.27264891
v 0.30100171 -0.30137314 -0.29434728
v 0.33708372 -0.39702093 -0.35797826
v 0.30716021 -0.44467985 -0.46443258
v 0.22875997 -0.41643194 -0.55135076
v 0.14780879 -0.32882445 -0.56781730
v 0.11172677 -0.23317666 -0.50418633
v 0.14165028 -0.18551775 -0.39773200
v 0.22005053 -0.21376565 -0.31081382
v -0.21046677 -0.66741889 -0.15136397
v 0.22832860 -0.35113603 -0.29144577
v 0.25573031 -0.42377368 -0.33976894
v 0.23300555 -0.45996722 -0.42061338
v 0.17346617 -0.43851496 -0.48662151
v 0.11198954 -0.37198334 -0.49912667
v 8.4587834e-2 -0.29934569 -0.45080350
v 0.10731260 -0.26315216 -0.36995906
v 0.16685197 -0.28460442 -0.30395092
v 0.19253309 -0.57738915 -0.21262728
v 0.14361777 -0.44772226 -0.12636465
v 3.3874644e-2 -0.32895538 -0.14868785
v -7.2410255e-2 -0.29066053 -0.26652026
v -0.11297667 -0.35527032 -0.41083725
v -6.4061352e-2 -0.48493720 -0.49709989
v 4.5681777e-2 -0.60370409 -0.47477669
v 0.15196668 -0.64199894 -0.35694427
v 6.8549339e-2 -0.69142191 -0.12103733
v 1.6620703e-2 -0.55376720 -2.9460685e-2
v -9.9882898e-2 -0.42768396 -5.3159057e-2
v -0.21271523 -0.38703004 -0.17825026
v -0.25578065 -0.45561996 -0.33145757
v -0.20385201 -0.59327468 -0.42303421
v -8.7348414e-2 -0.71935792 -0.39933584
v 2.5483921e-2 -0.76001184 -0.27424463
v -0.11106216 -0.70613469 -0.11514440
v -0.13587339 -0.64036399 -7.1389556e-2
v -0.19153820 -0.58012208 -8.2712514e-2
v -0.24544889 -0.56069785 -0.14248043
v -0.26602532 -0.59346976 -0.21568208
v -0.24121409 -0.65924046 -0.25943692
v -0.18554929 -0.71948237 -0.24811396
v -0.13163859 -0.73890660 -0.18834604
v 0.21753342 -0.36813489 -0.25218452
v 0.25121539 -0.45742053 -0.31158300
v 0.22328228 -0.50190935 -0.41095637
v 0.15009693 -0.47554039 -0.49209307
v 7.4530329e-2 -0.39376024 -0.50746431
v 4.0848359e-2 -0.30447459 -0.44806584
v 6.8781465e-2 -0.25998577 -0.34869247
v 0.14196681 -0.28635473 -0.26755577
vt 6.6214686e-3 0.99624553
vt 6.6214686e-3 6.2295309e-3
vt 6.9468263e-3 0.31896581
vt 6.9468263e-3 0.26507786
vt 8.2046835e-3 0.26902516
vt 8.2046835e-3 0.32291311
vt 8.4502639e-3 0.47647357
vt 8.4629972e-3 6.1040186e-2
vt 8.4629972e-3 0.94143488
vt 8.7908354e-3 6.6892433e-2
vt 8.7908355e-3 0.93558263
vt 9.7853336e-3 3.3660535e-2
vt 9.7853336e-3 0.96881453
vt 1.0896032e-2 0.47488468
vt 1.6432136e-2 0.36036695
vt 1.6432136e-2 0.34702112
vt 1.6432136e-2 0.34702112
vt 1.6432136e-2 0.36036695
vt 1.8949637e-2 0.36153741
vt 1.8949637e-2 0.34829253
vt 1.9238526e-2 0.36120071
vt 1.9238526e-2 0.34795583
vt 3.5964849e-2 1.5404788e-2
vt 3.5964849e-2 7.2912578e-3
vt 4.0085383e-2 0.50091734
vt 4.0460393e-2 0.44223942
vt 4.0503702e-2 0.26507786
vt 4.0503702e-2 0.31896581
vt 4.1495558e-2 0.34765100
vt 4.1495558e-2 0.35774618
vt 4.1761559e-2 0.32291311
vt 4.1761559e-2 0.26902516
vt 4.2531150e-2 0.49932845
vt 4.2906161e-2 0.44065053
vt 4.6160209e-2 0.20381939
vt 4.7585600e-2 0.19730600
vt 5.2918789e-2 0.23178446
vt 5.2947184e-2 0.28479842
vt 5.5786419e-2 0.23735360
vt 5.5901862e-2 0.18623307
vt 5.9461253e-2 0.18108418
vt 6.1121235e-2 0.40119138
vt 6.1537032e-2 0.17606006
vt 6.2558665e-2 0.34822271
vt 6.2558665e-2 0.35831789
vt 6.4132809e-2 0.28479842
vt 6.5134926e-2 0.46130489
vt 6.5284258e-2 0.42817699
vt 6.5293726e-2 0.42819258
vt 6.5337751e-2 7.1746378e-2
vt 6.5337751e-2 0.93072868
vt 6.6317089e-2 6.5943603e-2
vt 6.6317089e-2 0.93653146
vt 6.6330860e-2 0.17170049
vt 6.7580693e-2 0.45971600
vt 6.7608979e-2 0.40277633
vt 7.0926939e-2 3.7997759e-2
vt 7.0926939e-2 0.96447730
vt 7.0992734e-2 0.42471056
vt 7.1000430e-2 0.42472322
vt 7.1278684e-2 0.15847374
vt 7.4060577e-2 0.26507786
vt 7.4060577e-2 0.31896581
vt 7.4936508e-2 9.7460073e-3
vt 7.4936509e-2 0.99272905
vt 7.5318435e-2 0.32291311
vt 7.5318435e-2 0.26902516
vt 7.5730763e-2 0.51901943
vt 7.7257838e-2 0.37916493
vt 7.8176531e-2 0.51743054
vt 7.8206512e-2 0.15547867
vt 8.0725004e-2 0.38487297
vt 8.1069877e-2 0.25239328
vt 8.5246203e-2 0.28085113
vt 8.6305446e-2 0.25425911
vt 8.7326354e-2 0.44432074
vt 8.7902164e-2 0.58645918
vt 8.7902164e-2 0.66460190
vt 8.7902164e-2 0.74718573
vt 8.8593242e-2 0.74753104
vt 8.8898135e-2 0.74905642
vt 8.8908814e-2 0.43783239
vt 8.8914489e-2 0.67091370
vt 8.8931773e-2 0.58832988
vt 8.8939953e-2 0.54924468
vt 8.8985725e-2 0.74728815
vt 8.9132299e-2 0.66914556
vt 8.9220605e-2 0.66939084
vt 8.9287204e-2 0.58656188
vt 8.9802494e-2 0.34765100
vt 8.9802494e-2 0.35774618
vt 8.9883623e-2 0.58680967
vt 9.0197416e-2 0.54772573
vt 9.2937352e-2 0.47542403
vt 9.5383120e-2 0.47383514
vt 9.6431828e-2 0.28085113
vt 9.7396289e-2 7.2912578e-3
vt 9.7396289e-2 1.5404788e-2
vt 0.10265880 0.38148641
vt 0.10424292 0.37499846
vt 0.10481290 0.14884753
vt 0.10761745 0.26507786
vt 0.10761745 0.31896581
vt 0.10887531 0.32291311
vt 0.10887531 0.26902516
vt 0.11084175 0.43444022
vt 0.11086560 0.34822271
vt 0.11086560 0.35831789
vt 0.11268497 0.15014548
vt 0.11413080 0.53014219
vt 0.11431037 0.44014737
vt 0.11554834 0.24706009
vt 0.11657657 0.52855330
vt 0.11973681 0.34702112
vt 0.11973681 0.36036695
vt 0.11973681 0.36036695
vt 0.11973681 0.34702112
vt 0.11983966 0.24463290
vt 0.12056384 0.39460015
vt 0.12085986 8.9656659e-2
vt 0.12085986 0.91281840
vt 0.12147289 0.36153741
vt 0.12147289 0.34829253
vt 0.12176177 0.34795583
vt 0.12176177 0.36120071
vt 0.12288834 0.48409948
vt 0.12299327 8.3984837e-2
vt 0.12299327 0.91849023
vt 0.12395320 0.41653351
vt 0.12533411 0.48251059
vt 0.12627143 0.39113225
vt 0.12742399 0.23083828
vt 0.12958131 0.22704658
vt 0.13044135 0.41811680
vt 0.13299952 0.94590419
vt 0.13299952 5.6570877e-2
vt 0.13429360 0.22145458
vt 0.13521648 0.21687357
vt 0.13533192 0.16575304
vt 0.13620910 0.58645918
vt 0.13620910 0.66460190
vt 0.13620910 0.74718573
vt 0.13689862 0.74791887
vt 0.13720507 0.74906653
vt 0.13722142 0.67092381
vt 0.13723871 0.58833999
vt 0.13724689 0.54925479
vt 0.13729258 0.74737876
vt 0.13743915 0.66923618
vt 0.13752598 0.66977867
vt 0.13759406 0.58665250
vt 0.13818900 0.58719750
vt 0.13850279 0.54811356
vt 0.14083606 0.17075430
vt 0.14117433 0.26507786
vt 0.14117433 0.31896581
vt 0.14239915 0.97370489
vt 0.14239915 2.8770172e-2
vt 0.14243219 0.32291311
vt 0.14243219 0.26902516
vt 0.14495813 0.19928725
vt 0.14616925 0.20523276
vt 0.15135100 0.63237688
vt 0.15393286 0.48702566
vt 0.15393286 0.53389383
vt 0.15637863 0.48543677
vt 0.15637863 0.53230494
vt 0.15882773 7.2912578e-3
vt 0.15882773 1.5404788e-2
vt 0.16012624 0.60180712
vt 0.16676205 0.66019801
vt 0.17460285 0.88112330
vt 0.17460285 0.12135177
vt 0.17473120 0.31896581
vt 0.17473120 0.26507786
vt 0.17598906 0.32291311
vt 0.17598906 0.26902516
vt 0.17794336 0.11590936
vt 0.17794336 0.88656570
vt 0.18385058 0.43538844
vt 0.18385058 0.44873427
vt 0.18385058 0.44873427
vt 0.18385058 0.43538844
vt 0.18455253 0.43489883
vt 0.18455253 0.44499401
vt 0.18497739 0.48409948
vt 0.18510167 0.44923630
vt 0.18510167 0.43599142
vt 0.18539056 0.44889960
vt 0.18539056 0.43565472
vt 0.18717469 0.28479842
vt 0.18742315 0.48251059
vt 0.18761288 0.43265440
vt 0.18761288 0.44274958
vt 0.18794737 0.58639606
vt 0.18887338 0.36741582
vt 0.19363895 8.9514953e-2
vt 0.19363895 0.91296011
vt 0.19373492 0.53014219
vt 0.19550898 0.36817199
vt 0.19618069 0.52855330
vt 0.19639823 0.39366331
vt 0.19733182 0.66897325
vt 0.19836031 0.28479842
vt 0.20162527 0.38950626
vt 0.20211076 0.34353432
vt 0.20329880 0.58320991
vt 0.20345863 0.54514219
vt 0.20477041 0.55227619
vt 0.20492369 0.58425061
vt 0.20493971 0.54618256
vt 0.20626848 0.34876082
vt 0.20627843 0.55331156
vt 0.20828808 0.26507786
vt 0.20828808 0.31896581
vt 0.20844572 6.2497174e-2
vt 0.20844572 0.93997789
vt 0.20853263 0.68263725
vt 0.20954594 0.32291311
vt 0.20954594 0.26902516
vt 0.21053312 0.68365747
vt 0.21268825 0.72047780
vt 0.21324379 0.71324551
vt 0.21483167 0.72148205
vt 0.21492837 0.47542403
vt 0.21535988 0.71424771
vt 0.21737414 0.47383514
vt 0.21851714 0.59517131
vt 0.21947370 0.28085113
vt 0.22025917 7.2912578e-3
vt 0.22025917 1.5404788e-2
vt 0.22027804 0.40690374
vt 0.22029616 0.40690580
vt 0.22058741 0.58703423
vt 0.22103506 0.40026824
vt 0.22104978 0.40026992
vt 0.22222664 0.58800959
vt 0.22515294 0.65356220
vt 0.22532419 0.67701896
vt 0.22543120 0.83522863
vt 0.22543120 0.16724643
vt 0.22730333 0.67797578
vt 0.22760197 0.34264180
vt 0.22835729 0.33600611
vt 0.23003103 0.84027603
vt 0.23003103 0.16219903
vt 0.23065933 0.28085113
vt 0.23213496 0.51901943
vt 0.23285946 0.43489883
vt 0.23285946 0.44499401
vt 0.23302816 0.55767950
vt 0.23392819 0.62299244
vt 0.23455639 0.55860806
vt 0.23458073 0.51743054
vt 0.23537842 0.59705827
vt 0.23552121 0.44873427
vt 0.23552121 0.43538844
vt 0.23552121 0.44873427
vt 0.23552121 0.43538844
vt 0.23571754 0.55078638
vt 0.23591981 0.43265440
vt 0.23591981 0.44274958
vt 0.23638145 0.44923630
vt 0.23638145 0.43599142
vt 0.23667034 0.43565472
vt 0.23667034 0.44889960
vt 0.23705540 0.59797767
vt 0.23721972 0.55170484
vt 0.23898104 0.66549743
vt 0.24077809 0.70490533
vt 0.24091656 0.66640274
vt 0.24184495 0.26507786
vt 0.24184495 0.31896581
vt 0.24238172 0.39414545
vt 0.24273080 0.46130489
vt 0.24286248 0.70580356
vt 0.24310281 0.32291311
vt 0.24310281 0.26902516
vt 0.24417631 0.71147799
vt 0.24517657 0.45971600
vt 0.24559128 0.61217956
vt 0.24628550 0.71236335
vt 0.24654076 0.39937089
vt 0.24701451 0.35339882
vt 0.24732532 0.61306028
vt 0.24754989 0.64938747
vt 0.24942449 0.65026053
vt 0.24958951 0.63062460
vt 0.25139321 0.63149008
vt 0.25172778 0.13754345
vt 0.25172778 0.86493162
vt 0.25224048 0.34924044
vt 0.25281609 0.95322317
vt 0.25281609 0.97084472
vt 0.25313626 0.37473154
vt 0.25802360 0.57383529
vt 0.25961269 0.57466931
vt 0.25977204 0.37548601
vt 0.26312085 0.56839443
vt 0.26393922 0.68621458
vt 0.26468935 0.56920923
vt 0.26595283 0.68702546
vt 0.26740533 0.44223942
vt 0.26778034 0.50091734
vt 0.26806345 7.3098792e-2
vt 0.26806345 8.9263516e-2
vt 0.26957953 0.69109022
vt 0.26985110 0.44065053
vt 0.27022611 0.49932845
vt 0.27128840 0.22793277
vt 0.27128840 0.77454229
vt 0.27161152 0.69187975
vt 0.27239609 0.11187379
vt 0.27239609 0.89060128
vt 0.27540183 0.31896581
vt 0.27540183 0.26507786
vt 0.27595386 0.59842839
vt 0.27665969 0.26902516
vt 0.27665969 0.32291311
vt 0.27720712 0.22354569
vt 0.27720712 0.77892937
vt 0.27763574 0.59919450
vt 0.27766186 0.95322317
vt 0.27766186 0.97084472
vt 0.27918839 0.65987492
vt 0.28110238 0.66062837
vt 0.28169061 7.2912578e-3
vt 0.28169061 1.5404788e-2
vt 0.28222653 5.1057743e-2
vt 0.28222653 6.7222468e-2
vt 0.28286136 0.59506412
vt 0.28400309 0.62881308
vt 0.28453047 0.59580416
vt 0.28579970 0.62954856
vt 0.28641092 0.66249539
vt 0.28833476 0.66322153
vt 0.29213043 0.62838526
vt 0.29392537 0.62909004
vt 0.29833447 7.3098792e-2
vt 0.29833447 8.9263516e-2
vt 0.29941546 0.47647357
vt 0.30186123 0.47488468
vt 0.30250763 0.95322317
vt 0.30250763 0.97084472
vt 0.30529109 0.80057285
vt 0.30529111 0.20190221
vt 0.30885072 0.69852900
vt 0.30885072 0.30394606
vt 0.31249755 5.1057743e-2
vt 0.31249755 6.7222468e-2
vt 0.31431117 0.12384955
vt 0.31612764 0.70184072
vt 0.31612764 0.30063434
vt 0.31852769 8.2593883e-2
vt 0.31852769 9.1945369e-2
vt 0.32337352 9.4966885e-2
vt 0.32735339 0.95322317
vt 0.32735339 0.97084472
vt 0.32860549 7.3098792e-2
vt 0.32860549 8.9263516e-2
vt 0.33118098 8.2593883e-2
vt 0.33118098 9.1945369e-2
vt 0.33245399 0.82376788
vt 0.33245400 0.17870718
vt 0.33349079 0.39534932
vt 0.33349079 0.60712574
vt 0.33998792 0.50123753
vt 0.34209493 0.39361613
vt 0.34209493 0.60885893
vt 0.34276857 5.1057743e-2
vt 0.34276857 6.7222468e-2
vt 0.34312205 7.2912578e-3
vt 0.34312205 1.5404788e-2
vt 0.34319383 0.13291190
vt 0.34383427 8.2593883e-2
vt 0.34383427 9.1945369e-2
vt 0.34730017 0.13912203
vt 0.34730017 0.14847352
vt 0.34980347 0.50123709
vt 0.35088699 0.28392523
vt 0.35088701 0.71854982
vt 0.35219916 0.95322317
vt 0.35219916 0.97084472
vt 0.35225618 0.10402924
vt 0.35648755 8.2593883e-2
vt 0.35648755 9.1945369e-2
vt 0.35887651 7.3098792e-2
vt 0.35887651 8.9263516e-2
vt 0.35995346 0.13912203
vt 0.35995346 0.14847352
vt 0.36640116 0.10661093
vt 0.36914084 8.2593883e-2
vt 0.36914084 9.1945369e-2
vt 0.37260674 0.13912203
vt 0.37260674 0.14847352
vt 0.37303959 5.1057743e-2
vt 0.37303959 6.7222468e-2
vt 0.37704492 0.95322317
vt 0.37704492 0.97084472
vt 0.38078020 0.13324883
vt 0.38344114 0.61815491
vt 0.38344114 0.38432026
vt 0.38512487 0.26509700
vt 0.38512492 0.73737803
vt 0.38526003 0.13912203
vt 0.38526003 0.14847352
vt 0.38914753 8.9263516e-2
vt 0.38914753 7.3098792e-2
vt 0.39303906 9.2231890e-2
vt 0.39648575 0.50123729
vt 0.39791331 0.13912203
vt 0.39791331 0.14847352
vt 0.40189069 0.95322317
vt 0.40189069 0.97084472
vt 0.40331061 5.1057743e-2
vt 0.40331061 6.7222468e-2
vt 0.40455349 7.2912578e-3
vt 0.40455349 1.5404788e-2
vt 0.40741810 0.11886979
vt 0.42494570 0.62986882
vt 0.42494570 0.37260636
vt 0.42673646 0.95322317
vt 0.42673646 0.97084472
vt 0.44414200 0.50123753
vt 0.45158222 0.95322317
vt 0.45158222 0.97084472
vt 0.45166338 0.54862439
vt 0.45166338 0.65419541
vt 0.46598493 7.2912578e-3
vt 0.46598493 1.5404788e-2
vt 0.49206366 0.45108948
vt 0.49206366 0.75173031
vt 0.52741637 7.2912578e-3
vt 0.52741637 1.5404788e-2
vt 0.56671365 0.82638030
vt 0.56671365 0.37643950
vt 0.58884781 7.2912578e-3
vt 0.58884781 1.5404788e-2
vt 0.65027925 7.2912578e-3
vt 0.65027925 1.5404788e-2
vt 0.66424855 0.86678058
vt 0.66424855 0.33603922
vt 0.68464949 0.20729246
vt 0.69853692 0.19815343
vt 0.70382322 0.28186376
vt 0.70447429 0.31573011
vt 0.70694348 0.11229586
vt 0.70983423 0.29059930
vt 0.71165564 0.26453605
vt 0.71171069 7.2912578e-3
vt 0.71171069 1.5404788e-2
vt 0.71703406 0.60140990
vt 0.72064876 0.10493570
vt 0.75615316 0.26350312
vt 0.75773098 0.22130470
vt 0.75918197 0.28945379
vt 0.76201627 0.31998738
vt 0.76472069 0.28577213
vt 0.76649032 0.29439103
vt 0.76981958 0.86678058
vt 0.76981958 0.33603922
vt 0.77088493 0.26863646
vt 0.77088995 0.21044651
vt 0.77314213 7.2912578e-3
vt 0.77314213 1.5404788e-2
vt 0.77348574 0.14044922
vt 0.78518377 4.7412512e-2
vt 0.78557275 0.13388531
vt 0.78575615 0.92980745
vt 0.78575615 0.95165348
vt 0.78986558 0.93080975
vt 0.79114934 0.96467379
vt 0.79114934 0.91678714
vt 0.79476388 0.96247672
vt 0.80030348 4.1043672e-2
vt 0.80659682 0.90133966
vt 0.80659682 0.98012127
vt 0.80879389 0.90495421
vt 0.81054641 6.5150021e-2
vt 0.81526586 0.27201711
vt 0.81570877 0.29814017
vt 0.81961712 0.89594648
vt 0.81961712 0.98551445
vt 0.82061943 0.98140502
vt 0.82434002 0.33207607
vt 0.82500092 5.9479938e-2
vt 0.82774374 0.29534615
vt 0.82839446 0.22508736
vt 0.83048738 0.29850130
vt 0.83294917 0.14906402
vt 0.83457357 7.2912578e-3
vt 0.83457357 1.5404788e-2
vt 0.83478832 0.21932752
vt 0.83499326 0.33100283
vt 0.83577316 7.0267855e-2
vt 0.83645541 2.6582636e-2
vt 0.84046085 0.90005591
vt 0.84146316 0.89594648
vt 0.84146316 0.98551445
vt 0.84158618 0.14597113
vt 0.84897716 6.6214411e-2
vt 0.85228639 0.97650672
vt 0.85321112 2.0525396e-2
vt 0.85448346 0.90133966
vt 0.85448346 0.98012127
vt 0.86216501 6.5214062e-2
vt 0.86631640 0.91898421
vt 0.86735448 0.37643950
vt 0.86735448 0.82638030
vt 0.86993094 0.91678714
vt 0.86993094 0.96467379
vt 0.87121470 0.95065117
vt 0.87378265 6.4000494e-2
vt 0.87532413 0.92980745
vt 0.87532413 0.95165348
vt 0.88782388 0.33164585
vt 0.89083618 0.32850000
vt 0.89145291 0.29751629
vt 0.89194327 4.6515020e-2
vt 0.89208794 0.29654717
vt 0.89381750 0.14219097
vt 0.89600501 7.2912578e-3
vt 0.89600501 1.5404788e-2
vt 0.89655004 0.22256540
vt 0.89886666 0.14438414
vt 0.89923054 0.22233971
vt 0.89942916 0.96014222
vt 0.90111159 0.98299578
vt 0.90144737 5.0416580e-2
vt 0.90233639 0.97684354
vt 0.90470623 0.94824630
vt 0.90684012 0.83188840
vt 0.90740230 0.97786299
vt 0.90876584 0.87380363
vt 0.91078979 0.92189943
vt 0.91102438 0.93807005
vt 0.91103280 0.87661565
vt 0.91255999 0.87948007
vt 0.91331621 0.84569143
vt 0.91484252 0.82036985
vt 0.91559961 0.81476721
vt 0.91680625 0.87349490
vt 0.91740979 0.97584757
vt 0.91794181 0.98429378
vt 0.91896317 0.95420780
vt 0.91906252 0.97423096
vt 0.92024500 0.81164532
vt 0.92184173 0.94546853
vt 0.92494605 0.93759895
vt 0.92510222 0.92413368
vt 0.92744279 0.86964218
vt 0.92748187 0.88345400
vt 0.92776603 0.87915573
vt 0.92976381 0.97878785
vt 0.92985030 0.83251135
vt 0.93113143 0.84757328
vt 0.93148388 0.82683244
vt 0.93212982 0.97921292
vt 0.93271674 0.87078780
vt 0.93449684 0.81599083
vt 0.93541375 0.98027552
vt 0.93669151 0.93915515
vt 0.93743705 0.95923049
vt 0.93848506 0.92483178
vt 0.93912628 0.94915843
vt 0.93935586 0.81405835
vt 0.94112234 0.98961850
vt 0.94200447 0.45108948
vt 0.94200447 0.75173031
vt 0.94232159 0.88522274
vt 0.94464638 0.87450274
vt 0.94507086 0.88298314
vt 0.94516830 0.33803500
vt 0.94559157 0.33437521
vt 0.94665979 0.98419805
vt 0.94727645 0.87372734
vt 0.94829006 0.94223513
vt 0.94857385 0.82691877
vt 0.94922931 0.85062775
vt 0.95195190 0.98224802
vt 0.95201284 0.30269154
vt 0.95203157 0.30486499
vt 0.95266221 0.83071373
vt 0.95325798 0.92599509
vt 0.95338775 0.81827237
vt 0.95513693 0.95689440
vt 0.95551152 0.96855018
vt 0.95743645 7.2912578e-3
vt 0.95743645 1.5404788e-2
vt 0.95790791 0.81750420
vt 0.95890142 0.88381781
vt 0.96218797 0.88066427
vt 0.96259859 0.88207818
vt 0.96325521 0.88436032
vt 0.96635306 0.82278353
vt 0.96760899 0.11860192
vt 0.96768054 0.85281313
vt 0.96800485 0.12785795
vt 0.97210586 0.82126594
vt 0.97261046 0.22355156
vt 0.97311048 0.22088215
vt 0.97387993 0.83495468
vt 0.97606409 0.82178699
vt 0.98240475 0.54862439
vt 0.98240475 0.65419541
vt 0.98418115 0.54410057
vt 0.98433665 0.55679964
vt 0.98706188 0.54811406
vt 0.98850521 0.55211111
vt 0.99219169 0.53977652
vt 0.99302223 0.55952486
vt 0.99574746 0.55083928
vt 0.99651574 0.54778705
vn 0.80708026 -0.56819797 0.16053824
vn 0.80708026 -0.56819797 -0.16053824
vn 0.68420960 -0.56819797 0.45717424
vn 0.45717424 -0.56819797 0.68420960
vn 0.16053824 -0.56819797 0.80708026
vn -0.16053824 -0.56819797 0.80708026
vn -0.45717424 -0.56819797 0.68420960
vn -0.68420960 -0.56819797 0.45717424
vn -0.80708026 -0.56819797 0.16053824
vn -0.80708026 -0.56819797 -0.16053824
vn -0.68420960 -0.56819797 -0.45717424
vn -0.45717424 -0.56819797 -0.68420960
vn -0.16053824 -0.56819797 -0.80708026
vn 0.16053824 -0.56819797 -0.80708026
vn 0.45717424 -0.56819797 -0.68420960
vn 0.68420960 -0.56819797 -0.45717424
vn 0.0000000e+0 -1.00000000 -3.3539130e-18
vn 0.15993192 -0.76486919 -0.62401675
vn 0.36258455 -0.35748502 -0.86066074
vn 0.68760872 1.5653793e-2 -0.72591268
vn 0.94460968 0.13596759 -0.29870615
vn 0.98303976 -6.7021811e-2 0.17070706
vn 0.78038714 -0.47440598 0.40735105
vn 0.45536297 -0.84754479 0.27260299
vn 0.19836200 -0.96785860 -0.15460354
vn 0.98093182 -0.18046473 7.2147438e-2
vn 0.81421081 -0.51561706 0.26683292
vn 0.54681552 -0.82259595 0.15597656
vn 0.33538248 -0.92157734 -0.19548350
vn 0.30376630 -0.75457926 -0.58166671
vn 0.47048731 -0.41942694 -0.77635220
vn 0.73788260 -0.11244804 -0.66549584
vn 0.94931564 -1.3466652e-2 -0.31403578
vn 0.98476007 -0.12462592 0.12130949
vn 0.79971806 -0.49660818 0.33738899
vn 0.50293867 -0.83732103 0.21435060
vn 0.26827123 -0.94717950 -0.17573145
vn 0.23318074 -0.76182998 -0.60435240
vn 0.41822274 -0.38984772 -0.82043190
vn 0.71500214 -4.9134869e-2 -0.69739351
vn 0.94966958 6.0723598e-2 -0.30731146
vn 0.36014363 -0.18162312 0.91504623
vn 0.54501232 -0.76598414 -0.34092503
vn -0.35943634 0.18263829 -0.91512227
vn -0.54388920 0.76668695 0.34113878
vn -0.20559371 -0.53757592 0.81776730
vn -0.43729591 0.78481904 0.43912569
vn 0.43991623 -0.78419840 -0.43761465
vn 0.20847208 0.53789336 -0.81682931
vn -0.17857728 -0.52278584 0.83354971
vn 0.47614571 -0.76766039 -0.42893214
vn 0.19175656 0.52854138 -0.82696640
vn -0.46131547 0.77466346 0.43253274
vn -0.53880413 -0.14780993 -0.82936261
vn -0.33402061 -0.87559752 0.34894014
vn 0.52858850 0.15626869 0.83437060
vn 0.32279833 0.88175443 -0.34396274
vn 0.68146091 0.51572494 -0.51926758
vn -0.40888380 -0.41547264 -0.81252478
vn -0.68919961 -0.50515062 0.51944851
vn 0.39770109 0.42349930 0.81393009
vn -0.32002386 -0.22037486 -0.92142262
vn 0.24666713 0.91887054 -0.30794847
vn -0.24912622 -0.91805618 0.30839745
vn 0.31759221 0.22138604 0.92202137
vn -0.25633219 -0.33045671 -0.90834584
vn -0.54423744 -0.74920126 0.37749580
vn 0.25868700 0.32311974 0.91031570
vn 0.54976187 0.74555148 -0.37671591
vn -0.34608074 -0.20956800 -0.91449952
vn -0.37697838 -0.86139356 0.34042390
vn 0.37697838 0.86139356 -0.34042390
vn 0.34608074 0.20956800 0.91449952
vn -3.7701037e-2 -0.76486919 0.64308145
vn -0.19138197 -0.35748502 0.91409923
vn -0.53617017 1.5653793e-2 0.84396475
vn -0.87009340 0.13596759 0.47376185
vn -0.99754395 -6.7021811e-2 2.0350350e-2
vn -0.84386303 -0.47440598 -0.25066743
vn -0.49907482 -0.84754479 -0.18053295
vn -0.16515159 -0.96785860 0.18966996
vn -0.97663504 -0.18046473 0.11668965
vn -0.85020273 -0.51561706 -0.10627493
vn -0.56654770 -0.82259595 -4.8575751e-2
vn -0.29183121 -0.92157734 0.25598779
vn -0.18697847 -0.75457926 0.62900651
vn -0.31341078 -0.41942694 0.85197109
vn -0.59706581 -0.11244804 0.79427190
vn -0.87178230 -1.3466652e-2 0.48970836
vn -0.98175717 0.12639697 -0.14204455
vn -0.79026491 -0.38121915 -0.47974298
vn -0.36064573 -0.84616427 -0.39235277
vn 5.5435280e-2 -0.99607983 6.8934099e-2
vn 0.21424350 -0.74314733 0.63390202
vn 2.2751237e-2 -0.23553120 0.97160045
vn -0.40686794 0.22941391 0.88421023
vn -0.82294895 0.37932947 0.42292337
vn -0.69734158 -0.56036222 0.44688802
vn 0.85044249 0.51176420 0.12183994
vn 0.97992698 0.16852102 -0.10650719
vn 0.87254300 -2.5085282e-3 -0.48853088
vn 0.59119463 9.8862353e-2 -0.80044684
vn 0.30069193 0.41325197 -0.85953893
vn 0.17120744 0.75649516 -0.63119180
vn 0.27859142 0.92752470 -0.24916811
vn 0.55993979 0.82615382 6.2747855e-2
vn 0.86185479 -0.37203554 0.34466779
vn 0.63912968 0.21837398 0.73744563
vn 0.13943860 0.75915273 0.63580186
vn -0.34450620 0.93351987 9.9278021e-2
vn -0.52921642 0.63933349 -0.55783750
vn -0.30649131 4.8923978e-2 -0.95061534
vn 0.19319977 -0.49185478 -0.84897157
vn 0.67714457 -0.66622192 -0.31244773
vn 0.45163391 -0.67417920 0.58438789
vn 0.23466152 -9.9019246e-2 0.96702076
vn -0.25212315 0.42779186 0.86800233
vn -0.72356825 0.59765531 0.34533625
vn -0.90350763 0.31106740 -0.29480678
vn -0.68653524 -0.26409256 -0.67743966
vn -0.19975056 -0.79090366 -0.57842122
vn 0.27169453 -0.96076711 -5.5755136e-2
vn -0.20714380 -0.75183674 0.62596562
vn -0.32961224 -0.42719202 0.84193987
vn -0.60437420 -0.12983745 0.78604966
vn -0.87047785 -3.3959296e-2 0.49103471
vn -0.97204328 -0.19572169 0.12971078
vn -0.84957484 -0.52036641 -8.6263471e-2
vn -0.57481288 -0.81772099 -3.0373258e-2
vn -0.30870924 -0.91359914 0.26464169
vn 0.77660501 0.36354829 0.51450685
vn 0.97314778 -0.15745594 0.16790180
vn 0.81015108 -0.41705940 -0.41196685
vn 0.38309616 -0.26318990 -0.88541991
vn -5.7854002e-2 0.21401789 -0.97511500
vn -0.25439677 0.73502213 -0.62850995
vn -9.1400070e-2 0.99462558 -4.8641300e-2
vn 0.33565485 0.84075608 0.42481176
vn 0.46674286 -0.87950649 9.2840928e-2
vn 0.46674286 -0.87950649 9.2840928e-2
vn 0.98078528 -2.0087079e-16 0.19509032
vn 0.98078528 -2.0087079e-16 0.19509032
vn 0.46674286 -0.87950649 -9.2840928e-2
vn 0.46674286 -0.87950649 -9.2840928e-2
vn 0.98078528 0.0000000e+0 -0.19509032
vn 0.98078528 0.0000000e+0 -0.19509032
vn 0.39568549 -0.87950649 -0.26438859
vn 0.39568549 -0.87950649 -0.26438859
vn 0.83146961 -8.0348315e-16 -0.55557023
vn 0.83146961 -8.0348315e-16 -0.55557023
vn 0.26438859 -0.87950649 -0.39568549
vn 0.26438859 -0.87950649 -0.39568549
vn 0.55557023 -8.0348315e-16 -0.83146961
vn 0.55557023 -8.0348315e-16 -0.83146961
vn 9.2840928e-2 -0.87950649 -0.46674286
vn 9.2840928e-2 -0.87950649 -0.46674286
vn 0.19509032 -1.6069663e-15 -0.98078528
vn 0.19509032 -1.6069663e-15 -0.98078528
vn -9.2840928e-2 -0.87950649 -0.46674286
vn -9.2840928e-2 -0.87950649 -0.46674286
vn -0.19509032 -1.6069663e-15 -0.98078528
vn -0.19509032 -1.6069663e-15 -0.98078528
vn -0.26438859 -0.87950649 -0.39568549
vn -0.26438859 -0.87950649 -0.39568549
vn -0.55557023 -4.0174157e-16 -0.83146961
vn -0.55557023 -4.0174157e-16 -0.83146961
vn -0.39568549 -0.87950649 -0.26438859
vn -0.39568549 -0.87950649 -0.26438859
vn -0.83146961 -3.0130618e-16 -0.55557023
vn -0.83146961 -3.0130618e-16 -0.55557023
vn -0.46674286 -0.87950649 -9.2840928e-2
vn -0.46674286 -0.87950649 -9.2840928e-2
vn -0.98078528 1.0043539e-16 -0.19509032
vn -0.98078528 1.0043539e-16 -0.19509032
vn -0.46674286 -0.87950649 9.2840928e-2
vn -0.46674286 -0.87950649 9.2840928e-2
vn -0.98078528 2.0087079e-16 0.19509032
vn -0.98078528 2.0087079e-16 0.19509032
vn -0.39568549 -0.87950649 0.26438859
vn -0.39568549 -0.87950649 0.26438859
vn -0.83146961 -6.0261236e-16 0.55557023
vn -0.83146961 -6.0261236e-16 0.55557023
vn -0.26438859 -0.87950649 0.39568549
vn -0.26438859 -0.87950649 0.39568549
vn -0.55557023 -8.0348315e-16 0.83146961
vn -0.55557023 -8.0348315e-16 0.83146961
vn -9.2840928e-2 -0.87950649 0.46674286
vn -9.2840928e-2 -0.87950649 0.46674286
vn -0.19509032 0.0000000e+0 0.98078528
vn -0.19509032 0.0000000e+0 0.98078528
vn 9.2840928e-2 -0.87950649 0.46674286
vn 9.2840928e-2 -0.87950649 0.46674286
vn 0.19509032 0.0000000e+0 0.98078528
vn 0.19509032 0.0000000e+0 0.98078528
vn 0.26438859 -0.87950649 0.39568549
vn 0.26438859 -0.87950649 0.39568549
vn 0.55557023 0.0000000e+0 0.83146961
vn 0.55557023 0.0000000e+0 0.83146961
vn 0.39568549 -0.87950649 0.26438859
vn 0.39568549 -0.87950649 0.26438859
vn 0.83146961 -2.0087079e-16 0.55557023
vn 0.83146961 -2.0087079e-16 0.55557023
vn 0.82484785 -0.12595412 -0.55114571
vn 0.82484785 -0.12595412 -0.55114571
vn 0.58793780 -0.70710678 -0.39284748
vn 0.58793780 -0.70710678 -0.39284748
vn -0.19353664 -0.12595412 0.97297437
vn -0.19353664 -0.12595412 0.97297437
vn -0.13794969 -0.70710678 0.69351992
vn -0.13794969 -0.70710678 0.69351992
vn -0.82484785 -0.12595412 -0.55114571
vn -0.82484785 -0.12595412 -0.55114571
vn -0.58793780 -0.70710678 -0.39284748
vn -0.58793780 -0.70710678 -0.39284748
vn 0.97297437 -0.12595412 -0.19353664
vn 0.97297437 -0.12595412 -0.19353664
vn 0.69351992 -0.70710678 -0.13794969
vn 0.69351992 -0.70710678 -0.13794969
vn 0.19353664 -0.12595412 -0.97297437
vn 0.19353664 -0.12595412 -0.97297437
vn 0.13794969 -0.70710678 -0.69351992
vn 0.13794969 -0.70710678 -0.69351992
vn -0.82484785 -0.12595412 0.55114571
vn -0.82484785 -0.12595412 0.55114571
vn -0.58793780 -0.70710678 0.39284748
vn -0.58793780 -0.70710678 0.39284748
vn -0.97297437 -0.12595412 0.19353664
vn -0.97297437 -0.12595412 0.19353664
vn -0.69351992 -0.70710678 0.13794969
vn -0.69351992 -0.70710678 0.13794969
vn -0.97297437 -0.12595412 -0.19353664
vn -0.97297437 -0.12595412 -0.19353664
vn -0.69351992 -0.70710678 -0.13794969
vn -0.69351992 -0.70710678 -0.13794969
vn -0.55114571 -0.12595412 -0.82484785
vn -0.55114571 -0.12595412 -0.82484785
vn -0.39284748 -0.70710678 -0.58793780
vn -0.39284748 -0.70710678 -0.58793780
vn -0.55114571 -0.12595412 0.82484785
vn -0.55114571 -0.12595412 0.82484785
vn -0.39284748 -0.70710678 0.58793780
vn -0.39284748 -0.70710678 0.58793780
vn 0.55114571 -0.12595412 0.82484785
vn 0.55114571 -0.12595412 0.82484785
vn 0.39284748 -0.70710678 0.58793780
vn 0.39284748 -0.70710678 0.58793780
vn 0.55114571 -0.12595412 -0.82484785
vn 0.55114571 -0.12595412 -0.82484785
vn 0.39284748 -0.70710678 -0.58793780
vn 0.39284748 -0.70710678 -0.58793780
vn 0.19353664 -0.12595412 0.97297437
vn 0.19353664 -0.12595412 0.97297437
vn 0.13794969 -0.70710678 0.69351992
vn 0.13794969 -0.70710678 0.69351992
vn -0.19353664 -0.12595412 -0.97297437
vn -0.19353664 -0.12595412 -0.97297437
vn -0.13794969 -0.70710678 -0.69351992
vn -0.13794969 -0.70710678 -0.69351992
vn 0.82484785 -0.12595412 0.55114571
vn 0.82484785 -0.12595412 0.55114571
vn 0.58793780 -0.70710678 0.39284748
vn 0.58793780 -0.70710678 0.39284748
vn 0.97297437 -0.12595412 0.19353664
vn 0.97297437 -0.12595412 0.19353664
vn 0.69351992 -0.70710678 0.13794969
vn 0.69351992 -0.70710678 0.13794969
vn 0.0000000e+0 -1.00000000 1.4887420e-17
vn 0.0000000e+0 -1.00000000 1.4887420e-17
vn 0.69351992 -0.70710678 0.13794969
vn 0.69351992 -0.70710678 0.13794969
vn 0.0000000e+0 -1.00000000 4.9624734e-18
vn 0.0000000e+0 -1.00000000 4.9624734e-18
vn 0.58793780 -0.70710678 0.39284748
vn 0.58793780 -0.70710678 0.39284748
vn 0.0000000e+0 -1.00000000 3.0814879e-33
vn 0.0000000e+0 -1.00000000 3.0814879e-33
vn 0.39284748 -0.70710678 0.58793780
vn 0.39284748 -0.70710678 0.58793780
vn 0.0000000e+0 -1.00000000 1.2017803e-31
vn 0.0000000e+0 -1.00000000 1.2017803e-31
vn 0.13794969 -0.70710678 0.69351992
vn 0.13794969 -0.70710678 0.69351992
vn 0.0000000e+0 -1.00000000 -2.9774840e-17
vn 0.0000000e+0 -1.00000000 -2.9774840e-17
vn -0.13794969 -0.70710678 0.69351992
vn -0.13794969 -0.70710678 0.69351992
vn 0.0000000e+0 -1.00000000 -9.9249468e-18
vn 0.0000000e+0 -1.00000000 -9.9249468e-18
vn -0.39284748 -0.70710678 0.58793780
vn -0.39284748 -0.70710678 0.58793780
vn 0.0000000e+0 -1.00000000 2.4812367e-17
vn 0.0000000e+0 -1.00000000 2.4812367e-17
vn -0.58793780 -0.70710678 0.39284748
vn -0.58793780 -0.70710678 0.39284748
vn 0.0000000e+0 -1.00000000 -6.9814105e-18
vn 0.0000000e+0 -1.00000000 -6.9814105e-18
vn -0.69351992 -0.70710678 0.13794969
vn -0.69351992 -0.70710678 0.13794969
vn 0.0000000e+0 -1.00000000 -1.6906357e-17
vn 0.0000000e+0 -1.00000000 -1.6906357e-17
vn -0.69351992 -0.70710678 -0.13794969
vn -0.69351992 -0.70710678 -0.13794969
vn 0.0000000e+0 -1.00000000 4.9624734e-18
vn 0.0000000e+0 -1.00000000 4.9624734e-18
vn -0.58793780 -0.70710678 -0.39284748
vn -0.58793780 -0.70710678 -0.39284748
vn 0.0000000e+0 -1.00000000 9.9249468e-18
vn 0.0000000e+0 -1.00000000 9.9249468e-18
vn -0.39284748 -0.70710678 -0.58793780
vn -0.39284748 -0.70710678 -0.58793780
vn 0.0000000e+0 -1.00000000 9.9249468e-18
vn 0.0000000e+0 -1.00000000 9.9249468e-18
vn -0.13794969 -0.70710678 -0.69351992
vn -0.13794969 -0.70710678 -0.69351992
vn 0.0000000e+0 -1.00000000 -1.9849894e-17
vn 0.0000000e+0 -1.00000000 -1.9849894e-17
vn 0.13794969 -0.70710678 -0.69351992
vn 0.13794969 -0.70710678 -0.69351992
vn 0.0000000e+0 -1.00000000 -1.9849894e-17
vn 0.0000000e+0 -1.00000000 -1.9849894e-17
vn 0.39284748 -0.70710678 -0.58793780
vn 0.39284748 -0.70710678 -0.58793780
vn 0.0000000e+0 -1.00000000 -9.9249468e-18
vn 0.0000000e+0 -1.00000000 -9.9249468e-18
vn 0.58793780 -0.70710678 -0.39284748
vn 0.58793780 -0.70710678 -0.39284748
vn 0.0000000e+0 -1.00000000 -9.9249468e-18
vn 0.0000000e+0 -1.00000000 -9.9249468e-18
vn 0.69351992 -0.70710678 -0.13794969
vn 0.69351992 -0.70710678 -0.13794969
vn 0.98078528 -2.0087079e-16 0.19509032
vn 0.98078528 -2.0087079e-16 0.19509032
vn 0.98078528 0.0000000e+0 -0.19509032
vn 0.98078528 0.0000000e+0 -0.19509032
vn 0.83146961 -8.0348315e-16 -0.55557023
vn 0.83146961 -8.0348315e-16 -0.55557023
vn 0.55557023 -8.0348315e-16 -0.83146961
vn 0.55557023 -8.0348315e-16 -0.83146961
vn 0.19509032 -1.6069663e-15 -0.98078528
vn 0.19509032 -1.6069663e-15 -0.98078528
vn -0.19509032 -1.6069663e-15 -0.98078528
vn -0.19509032 -1.6069663e-15 -0.98078528
vn -0.55557023 -4.0174157e-16 -0.83146961
vn -0.55557023 -4.0174157e-16 -0.83146961
vn -0.83146961 -3.0130618e-16 -0.55557023
vn -0.83146961 -3.0130618e-16 -0.55557023
vn -0.98078528 1.0043539e-16 -0.19509032
vn -0.98078528 1.0043539e-16 -0.19509032
vn -0.98078528 2.0087079e-16 0.19509032
vn -0.98078528 2.0087079e-16 0.19509032
vn -0.83146961 -6.0261236e-16 0.55557023
vn -0.83146961 -6.0261236e-16 0.55557023
vn -0.55557023 -8.0348315e-16 0.83146961
vn -0.55557023 -8.0348315e-16 0.83146961
vn -0.19509032 0.0000000e+0 0.98078528
vn -0.19509032 0.0000000e+0 0.98078528
vn 0.19509032 0.0000000e+0 0.98078528
vn 0.19509032 0.0000000e+0 0.98078528
vn 0.55557023 0.0000000e+0 0.83146961
vn 0.55557023 0.0000000e+0 0.83146961
vn 0.83146961 -2.0087079e-16 0.55557023
vn 0.83146961 -2.0087079e-16 0.55557023
vn -0.95812289 0.0000000e+0 -0.28635733
vn 1.3842376e-16 -1.00000000 0.0000000e+0
vn -0.95812289 0.0000000e+0 -0.28635733
vn -0.95812289 0.0000000e+0 -0.28635733
vn -0.95812289 0.0000000e+0 -0.28635733
vn -0.28635733 0.0000000e+0 0.95812289
vn -0.28635733 0.0000000e+0 0.95812289
vn -0.28635733 0.0000000e+0 0.95812289
vn -0.28635733 0.0000000e+0 0.95812289
vn 1.3842376e-16 -1.00000000 0.0000000e+0
vn 1.3842376e-16 -1.00000000 0.0000000e+0
vn 0.28635733 0.0000000e+0 -0.95812289
vn 0.28635733 0.0000000e+0 -0.95812289
vn 0.28635733 0.0000000e+0 -0.95812289
vn 0.28635733 0.0000000e+0 -0.95812289
vn 0.95812289 0.0000000e+0 0.28635733
vn 0.95812289 0.0000000e+0 0.28635733
vn 0.95812289 0.0000000e+0 0.28635733
vn 1.3842376e-16 -1.00000000 0.0000000e+0
vn 0.95812289 0.0000000e+0 0.28635733
vn 0.0000000e+0 0.0000000e+0 1.00000000
vn 0.0000000e+0 -1.00000000 0.0000000e+0
vn -1.00000000 0.0000000e+0 0.0000000e+0
vn 0.0000000e+0 0.0000000e+0 1.00000000
vn 0.0000000e+0 1.00000000 0.0000000e+0
vn -1.00000000 0.0000000e+0 0.0000000e+0
vn 0.0000000e+0 0.0000000e+0 1.00000000
vn 1.00000000 0.0000000e+0 0.0000000e+0
vn 0.0000000e+0 1.00000000 0.0000000e+0
vn 0.0000000e+0 0.0000000e+0 1.00000000
vn 1.00000000 0.0000000e+0 0.0000000e+0
vn 0.0000000e+0 -1.00000000 0.0000000e+0
vn 0.0000000e+0 -0.89085701 -0.45428381
vn -1.00000000 0.0000000e+0 3.0170576e-16
vn -1.00000000 0.0000000e+0 3.0170576e-16
vn 0.0000000e+0 -0.89085701 -0.45428381
vn 0.0000000e+0 0.89085701 0.45428381
vn -1.00000000 0.0000000e+0 3.0170576e-16
vn -1.00000000 0.0000000e+0 3.0170576e-16
vn 0.0000000e+0 0.89085701 0.45428381
vn 1.00000000 0.0000000e+0 0.0000000e+0
vn 0.0000000e+0 0.89085701 0.45428381
vn 0.0000000e+0 0.89085701 0.45428381
vn 1.00000000 0.0000000e+0 0.0000000e+0
vn 1.00000000 0.0000000e+0 0.0000000e+0
vn 0.0000000e+0 -0.89085701 -0.45428381
vn 1.00000000 0.0000000e+0 0.0000000e+0
vn 0.0000000e+0 -0.89085701 -0.45428381
vn -1.00000000 0.0000000e+0 3.0170576e-16
vn 0.0000000e+0 -0.89085701 -0.45428381
vn -1.00000000 0.0000000e+0 3.0170576e-16
vn 0.0000000e+0 -0.89085701 -0.45428381
vn -1.00000000 0.0000000e+0 3.0170576e-16
vn 0.0000000e+0 0.58725243 0.80940384
vn -1.00000000 0.0000000e+0 3.0170576e-16
vn 0.0000000e+0 0.58725243 0.80940384
vn 1.00000000 0.0000000e+0 0.0000000e+0
vn 1.00000000 0.0000000e+0 0.0000000e+0
vn 1.00000000 0.0000000e+0 0.0000000e+0
vn 0.0000000e+0 -0.89085701 -0.45428381
vn 1.00000000 0.0000000e+0 0.0000000e+0
vn 0.0000000e+0 -0.89085701 -0.45428381
vn 0.0000000e+0 0.0000000e+0 -1.00000000
vn -1.00000000 0.0000000e+0 0.0000000e+0
vn 0.0000000e+0 -1.00000000 0.0000000e+0
vn 0.0000000e+0 0.0000000e+0 -1.00000000
vn -1.00000000 0.0000000e+0 0.0000000e+0
vn 0.0000000e+0 0.0000000e+0 -1.00000000
vn 1.00000000 0.0000000e+0 0.0000000e+0
vn 0.0000000e+0 0.0000000e+0 -1.00000000
vn 1.00000000 0.0000000e+0 0.0000000e+0
vn 0.0000000e+0 -1.00000000 0.0000000e+0
vn -0.95812289 0.0000000e+0 -0.28635733
vn -3.9612119e-16 -1.00000000 0.0000000e+0
vn -0.95812289 0.0000000e+0 -0.28635733
vn -0.95812289 0.0000000e+0 -0.28635733
vn -0.95812289 0.0000000e+0 -0.28635733
vn -0.28635733 0.0000000e+0 0.95812289
vn -0.28635733 0.0000000e+0 0.95812289
vn -0.28635733 0.0000000e+0 0.95812289
vn -0.28635733 0.0000000e+0 0.95812289
vn -3.9612119e-16 -1.00000000 0.0000000e+0
vn -3.9612119e-16 -1.00000000 0.0000000e+0
vn 0.28635733 0.0000000e+0 -0.95812289
vn 0.28635733 0.0000000e+0 -0.95812289
vn 0.28635733 0.0000000e+0 -0.95812289
vn 0.28635733 0.0000000e+0 -0.95812289
vn 0.95812289 0.0000000e+0 0.28635733
vn 0.95812289 0.0000000e+0 0.28635733
vn 0.95812289 0.0000000e+0 0.28635733
vn -3.9612119e-16 -1.00000000 0.0000000e+0
vn 0.95812289 0.0000000e+0 0.28635733
vn 0.41437558 0.0000000e+0 -0.91010597
vn 0.0000000e+0 -1.00000000 0.0000000e+0
vn -0.91010597 0.0000000e+0 -0.41437558
vn 0.41437558 0.0000000e+0 -0.91010597
vn 0.0000000e+0 1.00000000 0.0000000e+0
vn -0.91010597 0.0000000e+0 -0.41437558
vn 0.41437558 0.0000000e+0 -0.91010597
vn 0.91010597 0.0000000e+0 0.41437558
vn 0.0000000e+0 1.00000000 0.0000000e+0
vn 0.41437558 0.0000000e+0 -0.91010597
vn 0.91010597 0.0000000e+0 0.41437558
vn 0.0000000e+0 -1.00000000 0.0000000e+0
vn -0.18824412 -0.89085701 0.41344641
vn -0.91010597 0.0000000e+0 -0.41437558
vn -0.91010597 0.0000000e+0 -0.41437558
vn -0.18824412 -0.89085701 0.41344641
vn 0.18824412 0.89085701 -0.41344641
vn -0.91010597 0.0000000e+0 -0.41437558
vn -0.91010597 0.0000000e+0 -0.41437558
vn 0.18824412 0.89085701 -0.41344641
vn 0.91010597 0.0000000e+0 0.41437558
vn 0.18824412 0.89085701 -0.41344641
vn 0.18824412 0.89085701 -0.41344641
vn 0.91010597 0.0000000e+0 0.41437558
vn 0.91010597 0.0000000e+0 0.41437558
vn -0.18824412 -0.89085701 0.41344641
vn 0.91010597 0.0000000e+0 0.41437558
vn -0.18824412 -0.89085701 0.41344641
vn -0.91010597 0.0000000e+0 -0.41437558
vn -0.18824412 -0.89085701 0.41344641
vn -0.91010597 0.0000000e+0 -0.41437558
vn -0.18824412 -0.89085701 0.41344641
vn -0.91010597 0.0000000e+0 -0.41437558
vn 0.33539719 0.58725243 -0.73664327
vn -0.91010597 0.0000000e+0 -0.41437558
vn 0.33539719 0.58725243 -0.73664327
vn 0.91010597 0.0000000e+0 0.41437558
vn 0.91010597 0.0000000e+0 0.41437558
vn 0.91010597 0.0000000e+0 0.41437558
vn -0.18824412 -0.89085701 0.41344641
vn 0.91010597 0.0000000e+0 0.41437558
vn -0.18824412 -0.89085701 0.41344641
vn -0.41437558 0.0000000e+0 0.91010597
vn -0.91010597 0.0000000e+0 -0.41437558
vn 0.0000000e+0 -1.00000000 0.0000000e+0
vn -0.41437558 0.0000000e+0 0.91010597
vn -0.91010597 0.0000000e+0 -0.41437558
vn -0.41437558 0.0000000e+0 0.91010597
vn 0.91010597 0.0000000e+0 0.41437558
vn -0.41437558 0.0000000e+0 0.91010597
vn 0.91010597 0.0000000e+0 0.41437558
vn 0.0000000e+0 -1.00000000 0.0000000e+0
vn -0.76137211 -0.39225558 -0.51618609
vn -0.76137211 -0.39225558 -0.51618609
vn -0.77806682 0.55333470 0.29737643
vn -0.77806682 0.55333470 0.29737643
vn -0.46560977 0.20230319 -0.86155729
vn -0.46560977 0.20230319 -0.86155729
vn -0.77401450 0.56148092 0.29264440
vn -0.77401450 0.56148092 0.29264440
vn 8.7483074e-3 0.74688241 -0.66489858
vn 8.7483074e-3 0.74688241 -0.66489858
vn -0.76751518 0.56894235 0.29533887
vn -0.76751518 0.56894235 0.29533887
vn 0.38382959 0.92247496 -4.1409978e-2
vn 0.38382959 0.92247496 -4.1409978e-2
vn -0.76237608 0.57134820 0.30388147
vn -0.76237608 0.57134820 0.30388147
vn 0.43991656 0.62622111 0.64367736
vn 0.43991656 0.62622111 0.64367736
vn -0.76160762 0.56728914 0.31326805
vn -0.76160762 0.56728914 0.31326805
vn 0.14415422 3.1662339e-2 0.98904856
vn 0.14415422 3.1662339e-2 0.98904856
vn -0.76565994 0.55914292 0.31800008
vn -0.76565994 0.55914292 0.31800008
vn -0.33020386 -0.51291688 0.79238986
vn -0.33020386 -0.51291688 0.79238986
vn -0.77215926 0.55168148 0.31530560
vn -0.77215926 0.55168148 0.31530560
vn -0.70528514 -0.68850943 0.16890125
vn -0.70528514 -0.68850943 0.16890125
vn -0.77729836 0.54927564 0.30676300
vn -0.77729836 0.54927564 0.30676300
vn -0.77401450 0.56148092 0.29264440
vn -0.77401450 0.56148092 0.29264440
vn -0.31793267 -2.3293045e-2 -0.94782712
vn -0.31793267 -2.3293045e-2 -0.94782712
vn -0.31793267 -2.3293045e-2 -0.94782712
vn -0.77806682 0.55333470 0.29737643
vn -0.77806682 0.55333470 0.29737643
vn -0.54965192 -0.48910864 -0.67724110
vn -0.54965192 -0.48910864 -0.67724110
vn -0.54965192 -0.48910864 -0.67724110
vn -0.77729836 0.54927564 0.30676300
vn -0.77729836 0.54927564 0.30676300
vn -0.53818631 -0.83346892 0.12524002
vn -0.53818631 -0.83346892 0.12524002
vn -0.77215926 0.55168148 0.31530560
vn -0.77215926 0.55168148 0.31530560
vn -0.17649405 -0.66414438 0.72647236
vn -0.17649405 -0.66414438 0.72647236
vn -0.76565994 0.55914292 0.31800008
vn -0.76565994 0.55914292 0.31800008
vn 0.40676884 -4.1364732e-2 0.91259414
vn 0.40676884 -4.1364732e-2 0.91259414
vn 0.40676884 -4.1364732e-2 0.91259414
vn -0.76160762 0.56728914 0.31326805
vn -0.76160762 0.56728914 0.31326805
vn 0.63848809 0.42445086 0.64200812
vn 0.63848809 0.42445086 0.64200812
vn 0.63848809 0.42445086 0.64200812
vn -0.76237608 0.57134820 0.30388147
vn -0.76237608 0.57134820 0.30388147
vn 0.56043576 0.81727506 -0.13406429
vn 0.56043576 0.81727506 -0.13406429
vn -0.76751518 0.56894235 0.29533887
vn -0.76751518 0.56894235 0.29533887
vn 0.19874350 0.64795053 -0.73529663
vn 0.19874350 0.64795053 -0.73529663
vn -0.24086476 0.11412476 -0.96382556
vn -0.76990634 0.56036222 0.30534965
vn -0.76767942 -0.32379519 0.55301445
vn -0.24086476 0.11412476 -0.96382556
vn -0.12304281 0.97209105 -0.19974846
vn -0.58874649 -0.58520745 -0.55759287
vn -0.76990634 0.56036222 0.30534965
vn -0.58874649 -0.58520745 -0.55759287
vn -0.53818631 -0.83346892 0.12524002
vn -0.53818631 -0.83346892 0.12524002
vn -0.76990634 0.56036222 0.30534965
vn -0.17649405 -0.66414438 0.72647236
vn -0.17649405 -0.66414438 0.72647236
vn -0.76990634 0.56036222 0.30534965
vn -0.12304281 0.97209105 -0.19974846
vn 0.31001665 -0.16445570 0.93639949
vn -0.76990634 0.56036222 0.30534965
vn 0.31001665 -0.16445570 0.93639949
vn 0.65789837 0.53487652 0.53016680
vn -0.76990634 0.56036222 0.30534965
vn -0.76767942 -0.32379519 0.55301445
vn 0.65789837 0.53487652 0.53016680
vn 0.56043576 0.81727506 -0.13406429
vn 0.56043576 0.81727506 -0.13406429
vn -0.76990634 0.56036222 0.30534965
vn 0.19874350 0.64795053 -0.73529663
vn 0.19874350 0.64795053 -0.73529663
vn -0.76990634 0.56036222 0.30534965
vn -0.12304281 0.97209105 -0.19974846
vn -0.46366081 -0.30322566 -0.83250997
vn -0.76990634 0.56036222 0.30534965
vn -0.46366081 -0.30322566 -0.83250997
vn -0.43209852 -0.23977729 -0.86936627
vn -0.76990634 0.56036222 0.30534965
vn -0.76767942 -0.32379519 0.55301445
vn -0.43209852 -0.23977729 -0.86936627
vn 0.56705528 0.22797189 0.79150308
vn -0.76990634 0.56036222 0.30534965
vn -0.76767942 -0.32379519 0.55301445
vn 0.56705528 0.22797189 0.79150308
vn -0.12304281 0.97209105 -0.19974846
vn 0.53549299 0.16452352 0.82835938
vn -0.76990634 0.56036222 0.30534965
vn 0.53549299 0.16452352 0.82835938
vn 0.49168708 -9.5319492e-2 0.86553915
vn 0.49168708 -9.5319492e-2 0.86553915
vn 0.43085295 -0.83712139 -0.33703638
vn 0.43085295 -0.83712139 -0.33703638
vn -0.43153676 0.83670854 0.33718666
vn -0.43153676 0.83670854 0.33718666
vn -0.49221195 9.4936364e-2 -0.86528289
vn -0.49221195 9.4936364e-2 -0.86528289
vn 0.20978195 -0.26782844 0.94035071
vn 0.20978195 -0.26782844 0.94035071
vn 0.64272675 -0.68701745 -0.33898282
vn 0.64272675 -0.68701745 -0.33898282
vn -0.20746933 0.27022102 -0.94017928
vn -0.20746933 0.27022102 -0.94017928
vn -0.64019109 0.68916193 0.33942774
vn -0.64019109 0.68916193 0.33942774
vn -2.8352533e-2 -0.47259743 0.88082223
vn -2.8352533e-2 -0.47259743 0.88082223
vn 0.55083763 -0.74269876 -0.38075774
vn 0.55083763 -0.74269876 -0.38075774
vn -0.55083763 0.74269876 0.38075774
vn -0.55083763 0.74269876 0.38075774
vn 2.8352533e-2 0.47259743 -0.88082223
vn 2.8352533e-2 0.47259743 -0.88082223
vn 2.5529693e-2 -0.43656777 0.89930908
vn 2.5529693e-2 -0.43656777 0.89930908
vn 0.61754817 -0.70044571 -0.35778493
vn 0.61754817 -0.70044571 -0.35778493
vn -3.8779626e-3 0.45040375 -0.89281657
vn -3.8779626e-3 0.45040375 -0.89281657
vn -0.59588947 0.71605590 0.36356524
vn -0.59588947 0.71605590 0.36356524
vn -0.59487519 -0.10314534 -0.79717285
vn -0.59487519 -0.10314534 -0.79717285
vn -0.13429076 -0.96497592 0.22536073
vn -0.13429076 -0.96497592 0.22536073
vn 0.12864885 0.96659429 -0.22168662
vn 0.12864885 0.96659429 -0.22168662
vn 0.58923966 0.10557258 0.80103124
vn 0.58923966 0.10557258 0.80103124
vn 0.80574350 0.23062143 -0.54551918
vn 0.80574350 0.23062143 -0.54551918
vn -0.31818430 -0.61072284 -0.72510438
vn -0.31818430 -0.61072284 -0.72510438
vn -0.80815869 -0.22728468 0.54334263
vn -0.80815869 -0.22728468 0.54334263
vn 0.31287500 0.61341432 0.72514282
vn 0.31287500 0.61341432 0.72514282
vn -0.35085228 -0.20699334 -0.91326690
vn -0.35085228 -0.20699334 -0.91326690
vn -0.42751382 -0.83229094 0.35287919
vn -0.42751382 -0.83229094 0.35287919
vn 0.42751382 0.83229094 -0.35287919
vn 0.42751382 0.83229094 -0.35287919
vn 0.35085228 0.20699334 0.91326690
vn 0.35085228 0.20699334 0.91326690
vn 0.82942983 0.39685537 -0.39313098
vn 0.82942983 0.39685537 -0.39313098
vn -0.21232045 -0.42628970 -0.87931628
vn -0.21232045 -0.42628970 -0.87931628
vn -0.81972521 -0.41251797 0.39734054
vn -0.81972521 -0.41251797 0.39734054
vn 0.22242193 0.41066166 0.88424289
vn 0.22242193 0.41066166 0.88424289
vn -0.88636525 0.0000000e+0 0.46298666
vn 0.0000000e+0 -1.00000000 0.0000000e+0
vn -0.88636525 0.0000000e+0 0.46298666
vn -0.88636525 0.0000000e+0 0.46298666
vn -0.88636525 0.0000000e+0 0.46298666
vn 0.46298666 0.0000000e+0 0.88636525
vn 0.46298666 0.0000000e+0 0.88636525
vn 0.46298666 0.0000000e+0 0.88636525
vn 0.46298666 0.0000000e+0 0.88636525
vn 0.0000000e+0 -1.00000000 0.0000000e+0
vn 0.0000000e+0 -1.00000000 0.0000000e+0
vn -0.46298666 0.0000000e+0 -0.88636525
vn -0.46298666 0.0000000e+0 -0.88636525
vn -0.46298666 0.0000000e+0 -0.88636525
vn -0.46298666 0.0000000e+0 -0.88636525
vn 0.88636525 0.0000000e+0 -0.46298666
vn 0.88636525 0.0000000e+0 -0.46298666
vn 0.88636525 0.0000000e+0 -0.46298666
vn 0.0000000e+0 -1.00000000 0.0000000e+0
vn 0.88636525 0.0000000e+0 -0.46298666
vn -0.88636525 0.0000000e+0 0.46298666
vn 0.0000000e+0 -1.00000000 0.0000000e+0
vn -0.88636525 0.0000000e+0 0.46298666
vn -0.88636525 0.0000000e+0 0.46298666
vn -0.88636525 0.0000000e+0 0.46298666
vn 0.46298666 0.0000000e+0 0.88636525
vn 0.46298666 0.0000000e+0 0.88636525
vn 0.46298666 0.0000000e+0 0.88636525
vn 0.46298666 0.0000000e+0 0.88636525
vn 0.0000000e+0 -1.00000000 0.0000000e+0
vn 0.0000000e+0 -1.00000000 0.0000000e+0
vn -0.46298666 0.0000000e+0 -0.88636525
vn -0.46298666 0.0000000e+0 -0.88636525
vn -0.46298666 0.0000000e+0 -0.88636525
vn -0.46298666 0.0000000e+0 -0.88636525
vn 0.88636525 0.0000000e+0 -0.46298666
vn 0.88636525 0.0000000e+0 -0.46298666
vn 0.88636525 0.0000000e+0 -0.46298666
vn 0.0000000e+0 -1.00000000 0.0000000e+0
vn 0.88636525 0.0000000e+0 -0.46298666
vn 0.84600262 -0.39225558 0.36113036
vn 0.84600262 -0.39225558 0.36113036
vn 0.70687568 0.55333470 -0.44062170
vn 0.70687568 0.55333470 -0.44062170
vn 0.62171225 0.20230319 0.75666855
vn 0.62171225 0.20230319 0.75666855
vn 0.70380261 0.56148092 -0.43520232
vn 0.70380261 0.56148092 -0.43520232
vn 0.11850946 0.74688241 0.65431045
vn 0.11850946 0.74688241 0.65431045
vn 0.69690809 0.56894235 -0.43660476
vn 0.69690809 0.56894235 -0.43660476
vn -0.36883639 0.92247496 0.11401605
vn -0.36883639 0.92247496 0.11401605
vn 0.69023082 0.57134820 -0.44400749
vn 0.69023082 0.57134820 -0.44400749
vn -0.55484471 0.62622111 -0.54771751
vn -0.55484471 0.62622111 -0.54771751
vn 0.68768227 0.56728914 -0.45307409
vn 0.68768227 0.56728914 -0.45307409
vn -0.33055434 3.1662339e-2 -0.94325570
vn -0.33055434 3.1662339e-2 -0.94325570
vn 0.69075534 0.55914292 -0.45849347
vn 0.69075534 0.55914292 -0.45849347
vn 0.17264845 -0.51291688 -0.84089761
vn 0.17264845 -0.51291688 -0.84089761
vn 0.69764986 0.55168148 -0.45709103
vn 0.69764986 0.55168148 -0.45709103
vn 0.65999430 -0.68850943 -0.30060321
vn 0.65999430 -0.68850943 -0.30060321
vn 0.70432713 0.54927564 -0.44968831
vn 0.70432713 0.54927564 -0.44968831
vn 0.70380261 0.56148092 -0.43520232
vn 0.70380261 0.56148092 -0.43520232
vn 0.49324886 -2.3293045e-2 0.86957633
vn 0.49324886 -2.3293045e-2 0.86957633
vn 0.49324886 -2.3293045e-2 0.86957633
vn 0.70687568 0.55333470 -0.44062170
vn 0.70687568 0.55333470 -0.44062170
vn 0.66897237 -0.48910864 0.55968626
vn 0.66897237 -0.48910864 0.55968626
vn 0.66897237 -0.48910864 0.55968626
vn 0.70432713 0.54927564 -0.44968831
vn 0.70432713 0.54927564 -0.44968831
vn 0.50432259 -0.83346892 -0.22580585
vn 0.50432259 -0.83346892 -0.22580585
vn 0.69764986 0.55168148 -0.45709103
vn 0.69764986 0.55168148 -0.45709103
vn 3.4373212e-2 -0.66414438 -0.74681371
vn 3.4373212e-2 -0.66414438 -0.74681371
vn 0.69075534 0.55914292 -0.45849347
vn 0.69075534 0.55914292 -0.45849347
vn -0.57371210 -4.1364732e-2 -0.81801185
vn -0.57371210 -4.1364732e-2 -0.81801185
vn -0.57371210 -4.1364732e-2 -0.81801185
vn 0.68768227 0.56728914 -0.45307409
vn 0.68768227 0.56728914 -0.45307409
vn -0.74943560 0.42445086 -0.50812178
vn -0.74943560 0.42445086 -0.50812178
vn -0.74943560 0.42445086 -0.50812178
vn 0.69023082 0.57134820 -0.44400749
vn 0.69023082 0.57134820 -0.44400749
vn -0.52447500 0.81727506 0.23872043
vn -0.52447500 0.81727506 0.23872043
vn 0.69690809 0.56894235 -0.43660476
vn 0.69690809 0.56894235 -0.43660476
vn -5.4525620e-2 0.64795053 0.75972829
vn -5.4525620e-2 0.64795053 0.75972829
vn 0.42066017 0.11412476 0.90001142
vn 0.69734158 0.56036222 -0.44688802
vn 0.64781419 -0.32379519 -0.68956033
vn 0.42066017 0.11412476 0.90001142
vn 0.15895621 0.97209105 0.17254537
vn 0.68447510 -0.58520745 0.43477129
vn 0.69734158 0.56036222 -0.44688802
vn 0.68447510 -0.58520745 0.43477129
vn 0.50432259 -0.83346892 -0.22580585
vn 0.50432259 -0.83346892 -0.22580585
vn 0.69734158 0.56036222 -0.44688802
vn 3.4373212e-2 -0.66414438 -0.74681371
vn 3.4373212e-2 -0.66414438 -0.74681371
vn 0.69734158 0.56036222 -0.44688802
vn 0.15895621 0.97209105 0.17254537
vn -0.48329440 -0.16445570 -0.85987258
vn 0.69734158 0.56036222 -0.44688802
vn -0.48329440 -0.16445570 -0.85987258
vn -0.74710932 0.53487652 -0.39463245
vn 0.69734158 0.56036222 -0.44688802
vn 0.64781419 -0.32379519 -0.68956033
vn -0.74710932 0.53487652 -0.39463245
vn -0.52447500 0.81727506 0.23872043
vn -0.52447500 0.81727506 0.23872043
vn 0.69734158 0.56036222 -0.44688802
vn -5.4525620e-2 0.64795053 0.75972829
vn -5.4525620e-2 0.64795053 0.75972829
vn 0.69734158 0.56036222 -0.44688802
vn 0.15895621 0.97209105 0.17254537
vn 0.61424679 -0.30322566 0.72852939
vn 0.69734158 0.56036222 -0.44688802
vn 0.61424679 -0.30322566 0.72852939
vn 0.59031163 -0.23977729 0.77073927
vn 0.69734158 0.56036222 -0.44688802
vn 0.64781419 -0.32379519 -0.68956033
vn 0.59031163 -0.23977729 0.77073927
vn -0.70789619 0.22797189 -0.66851463
vn 0.69734158 0.56036222 -0.44688802
vn 0.64781419 -0.32379519 -0.68956033
vn -0.70789619 0.22797189 -0.66851463
vn 0.15895621 0.97209105 0.17254537
vn -0.68396103 0.16452352 -0.71072451
vn 0.69734158 0.56036222 -0.44688802
vn -0.68396103 0.16452352 -0.71072451
vn 0.48686063 8.7242705e-2 0.86911187
vn 0.48686063 8.7242705e-2 0.86911187
vn -0.69734158 -0.56036222 0.44688802
vn 0.71620428 -0.52071154 0.46466216
vn 0.71620428 -0.52071154 0.46466216
vn -0.69734158 -0.56036222 0.44688802
vn 0.52600518 -0.82364002 -0.21198034
vn 0.52600518 -0.82364002 -0.21198034
vn -0.69734158 -0.56036222 0.44688802
vn 2.7679374e-2 -0.64409135 -0.76444763
vn 2.7679374e-2 -0.64409135 -0.76444763
vn -0.69734158 -0.56036222 0.44688802
vn -0.48686063 -8.7242705e-2 -0.86911187
vn -0.48686063 -8.7242705e-2 -0.86911187
vn -0.69734158 -0.56036222 0.44688802
vn -0.71620428 0.52071154 -0.46466216
vn -0.71620428 0.52071154 -0.46466216
vn -0.69734158 -0.56036222 0.44688802
vn -0.52600518 0.82364002 0.21198034
vn -0.52600518 0.82364002 0.21198034
vn -0.69734158 -0.56036222 0.44688802
vn -2.7679374e-2 0.64409135 0.76444763
vn -2.7679374e-2 0.64409135 0.76444763
vn -0.69734158 -0.56036222 0.44688802
vn 0.69734158 0.56036222 -0.44688802
vn 0.48686063 8.7242705e-2 0.86911187
vn 0.48686063 8.7242705e-2 0.86911187
vn 0.69734158 0.56036222 -0.44688802
vn 0.71620428 -0.52071154 0.46466216
vn 0.71620428 -0.52071154 0.46466216
vn 0.69734158 0.56036222 -0.44688802
vn 0.52600518 -0.82364002 -0.21198034
vn 0.52600518 -0.82364002 -0.21198034
vn 0.69734158 0.56036222 -0.44688802
vn 2.7679374e-2 -0.64409135 -0.76444763
vn 2.7679374e-2 -0.64409135 -0.76444763
vn 0.69734158 0.56036222 -0.44688802
vn -0.48686063 -8.7242705e-2 -0.86911187
vn -0.48686063 -8.7242705e-2 -0.86911187
vn 0.69734158 0.56036222 -0.44688802
vn -0.71620428 0.52071154 -0.46466216
vn -0.71620428 0.52071154 -0.46466216
vn 0.69734158 0.56036222 -0.44688802
vn -0.52600518 0.82364002 0.21198034
vn -0.52600518 0.82364002 0.21198034
vn 0.69734158 0.56036222 -0.44688802
vn -2.7679374e-2 0.64409135 0.76444763
vn -2.7679374e-2 0.64409135 0.76444763
g cylinder1_agwega
usemtl agwega
f 330/496/98 362/506/130 355/495/123
f 331/462/99 338/480/106 370/481/138 363/459/131
f 331/454/99 363/456/131 364/448/132 332/449/100
f 332/478/100 333/497/101 334/507/102 335/512/103 336/502/104 337/484/105 338/474/106 331/471/99
f 332/494/100 364/489/132 365/520/133 333/517/101
f 333/517/101 365/520/133 366/581/134 334/574/102
f 334/446/102 366/445/134 367/458/135 335/457/103
f 335/457/103 367/458/135 368/487/136 336/485/104
f 336/485/104 368/487/136 369/518/137 337/516/105
f 337/516/105 369/518/137 370/582/138 338/573/106
f 339/488/107 340/455/108 348/466/116 347/490/115
f 339/488/107 346/524/114 365/520/133 364/489/132
f 340/455/108 339/488/107 364/448/132 363/456/131
f 340/455/108 341/443/109 349/447/117 348/466/116
f 341/600/109 342/526/110 350/525/118 349/598/117
f 342/526/110 341/600/109 370/582/138 369/518/137
f 342/526/110 343/493/111 351/500/119 350/525/118
f 343/493/111 342/526/110 369/518/137 368/487/136
f 343/493/111 344/463/112 352/468/120 351/500/119
f 344/463/112 343/493/111 368/487/136 367/458/135
f 344/463/112 345/444/113 353/453/121 352/468/120
f 345/444/113 344/463/112 367/458/135 366/445/134
f 345/601/113 346/524/114 354/521/122 353/596/121
f 346/524/114 345/601/113 366/581/134 365/520/133
f 347/490/115 348/466/116 356/479/124 355/495/123
f 347/490/115 354/521/122 346/524/114 339/488/107
f 348/466/116 349/447/117 357/467/125 356/479/124
f 349/598/117 350/525/118 358/513/126 357/529/125
f 350/525/118 351/500/119 359/501/127 358/513/126
f 351/500/119 352/468/120 360/486/128 359/501/127
f 352/468/120 353/453/121 361/475/129 360/486/128
f 353/596/121 354/521/122 362/506/130 361/519/129
f 355/495/123 356/479/124 330/496/98
f 355/495/123 362/506/130 354/521/122 347/490/115
f 356/479/124 357/467/125 330/496/98
f 357/529/125 358/513/126 330/503/98
f 358/513/126 359/501/127 330/503/98
f 359/501/127 360/486/128 330/503/98
f 360/486/128 361/475/129 330/503/98
f 361/519/129 362/506/130 330/496/98
f 363/459/131 370/481/138 341/443/109 340/455/108
g cylinder1_default
usemtl default
f 1/58/1 17/65/140 32/1/200 3/13/3
f 1/58/1 48/53/263 36/128/215 2/135/2
f 2/135/2 18/157/143 17/65/139 1/58/1
f 2/135/2 36/128/216 33/179/203 16/198/16
f 3/12/3 32/2/199 31/64/196 4/57/4
f 3/13/3 47/9/260 48/53/264 1/58/1
f 4/57/4 31/64/195 30/158/192 5/136/5
f 4/57/4 43/52/244 47/8/259 3/12/3
f 5/136/5 30/158/191 29/216/188 6/197/6
f 5/136/5 45/127/252 43/52/243 4/57/4
f 6/197/6 29/216/187 28/313/184 7/290/7
f 6/197/6 34/178/208 45/127/251 5/136/5
f 7/290/7 28/313/183 27/364/180 8/346/8
f 7/290/7 42/246/240 34/178/207 6/197/6
f 8/346/8 27/364/179 26/403/176 9/380/9
f 8/346/8 38/320/224 42/246/239 7/290/7
f 9/380/9 26/403/175 25/421/172 10/402/10
f 9/380/9 39/353/228 38/320/223 8/346/8
f 10/402/10 25/421/171 24/424/168 11/410/11
f 10/402/10 40/368/232 39/353/227 9/380/9
f 11/410/11 24/424/167 23/420/164 12/401/12
f 11/410/11 35/379/212 40/368/231 10/402/10
f 12/401/12 23/420/163 22/404/160 13/381/13
f 12/401/12 41/369/236 35/379/211 11/410/11
f 13/381/13 22/404/159 21/363/156 14/345/14
f 13/381/13 46/352/256 41/369/235 12/401/12
f 14/345/14 21/363/155 20/314/152 15/291/15
f 14/345/14 37/321/220 46/352/255 13/381/13
f 15/291/15 20/314/151 19/217/148 16/198/16
f 15/291/15 44/245/248 37/321/219 14/345/14
f 16/198/16 19/217/147 18/157/144 2/135/2
f 16/198/16 33/179/204 44/245/247 15/291/15
f 17/328/142 65/327/332 80/372/362 32/373/202
f 18/231/145 66/230/333 65/327/331 17/328/141
f 19/169/149 67/168/335 66/230/334 18/231/146
f 20/98/153 68/97/337 67/168/336 19/169/150
f 21/23/157 69/24/339 68/97/338 20/98/154
f 22/589/161 70/588/341 69/24/340 21/23/158
f 23/523/165 71/522/343 70/588/342 22/589/162
f 24/492/169 72/491/345 71/522/344 23/523/166
f 25/465/173 73/464/347 72/491/346 24/492/170
f 26/451/177 74/450/349 73/464/348 25/465/174
f 27/440/181 75/439/351 74/450/350 26/451/178
f 28/438/185 76/437/353 75/439/352 27/440/182
f 29/434/189 77/433/355 76/437/354 28/438/186
f 30/430/193 78/429/357 77/433/356 29/434/190
f 31/418/197 79/417/359 78/429/358 30/430/194
f 32/373/201 80/372/361 79/417/360 31/418/198
f 33/179/205 63/172/325 62/240/322 44/245/250
f 34/178/209 53/173/285 52/120/282 45/127/254
f 35/379/213 58/367/305 57/365/302 40/368/234
f 36/128/218 64/121/330 63/172/326 33/179/206
f 37/321/221 61/311/317 60/347/314 46/352/258
f 38/320/225 55/310/293 54/241/290 42/246/242
f 39/353/229 56/348/297 55/310/294 38/320/226
f 40/368/233 57/365/301 56/348/298 39/353/230
f 41/369/237 59/366/309 58/367/306 35/379/214
f 42/246/241 54/241/289 53/173/286 34/178/210
f 43/52/245 51/50/277 50/10/274 47/8/262
f 44/245/249 62/240/321 61/311/318 37/321/222
f 45/127/253 52/120/281 51/50/278 43/52/246
f 46/352/257 60/347/313 59/366/310 41/369/238
f 47/9/261 50/11/273 49/51/270 48/53/266
f 48/53/265 49/51/269 64/121/329 36/128/217
f 49/427/268 81/452/17 64/428/327
f 50/431/271 81/452/17 49/427/267
f 51/436/276 81/452/17 50/431/272
f 52/442/280 81/452/17 51/436/275
f 53/461/284 81/452/17 52/442/279
f 54/508/288 81/452/17 53/461/283
f 55/568/292 81/452/17 54/508/287
f 56/604/296 81/452/17 55/568/291
f 57/605/300 81/452/17 56/604/295
f 58/569/304 81/452/17 57/605/299
f 59/509/308 81/452/17 58/569/303
f 60/460/312 81/452/17 59/509/307
f 61/441/316 81/452/17 60/460/311
f 62/435/320 81/452/17 61/441/315
f 63/432/324 81/452/17 62/435/319
f 64/428/328 81/452/17 63/432/323
f 82/360/363 85/340/370 84/339/368 83/359/366
f 82/419/364 86/400/373 89/391/381 85/409/372
f 83/359/367 87/387/377 86/388/375 82/360/365
f 85/340/371 89/306/380 88/305/378 84/339/369
f 87/387/376 88/408/379 89/407/382 86/388/374
f 90/44/383 93/107/392 92/108/389 91/45/386
f 90/80/384 94/88/395 97/150/408 93/143/394
f 91/15/388 95/116/400 94/117/396 90/16/385
f 92/140/391 96/141/404 95/78/399 91/77/387
f 93/22/393 97/124/407 96/125/403 92/21/390
f 94/88/398 98/92/412 101/152/422 97/150/410
f 95/116/401 99/182/415 98/183/411 94/117/397
f 96/141/405 100/142/418 99/79/416 95/78/402
f 97/124/409 101/190/421 100/189/419 96/125/406
f 98/92/414 102/93/427 105/153/434 101/152/424
f 99/182/417 103/258/429 102/259/426 98/183/413
f 101/190/423 105/265/433 104/266/431 100/189/420
f 103/91/428 104/30/430 105/29/432 102/90/425
f 106/395/435 109/390/442 108/389/440 107/394/438
f 106/613/436 110/609/445 113/606/453 109/610/444
f 107/394/439 111/405/449 110/406/447 106/395/437
f 109/390/443 113/378/452 112/377/450 108/389/441
f 111/405/448 112/411/451 113/412/454 110/406/446
f 114/20/457 118/123/468 119/122/472 115/19/460
f 115/262/458 116/194/461 117/193/464 114/261/455
f 115/86/459 119/87/471 120/149/476 116/148/463
f 116/18/462 120/115/475 121/114/479 117/17/465
f 117/81/466 121/83/480 118/145/467 114/144/456
f 118/123/469 122/188/483 123/187/487 119/122/473
f 119/87/474 123/89/488 124/151/490 120/149/477
f 120/115/478 124/181/491 125/180/493 121/114/481
f 121/83/482 125/84/494 122/146/484 118/145/470
f 122/188/485 126/264/498 127/263/501 123/187/489
f 124/181/492 128/256/503 129/257/505 125/180/495
f 125/84/496 129/85/506 126/147/499 122/146/486
f 126/184/497 129/249/504 128/250/502 127/185/500
f 130/192/507 138/201/18 145/167/25 137/166/535
f 130/206/509 147/212/544 146/200/539 131/196/513
f 131/227/512 139/254/19 138/201/18 130/192/508
f 131/196/514 146/200/540 153/205/572 132/202/518
f 132/280/516 140/309/20 139/254/19 131/227/511
f 132/202/517 153/205/571 152/235/568 133/232/522
f 133/308/520 141/342/21 140/309/20 132/280/515
f 133/233/521 152/236/567 151/274/563 134/283/526
f 134/55/524 142/33/22 141/14/21 133/34/519
f 134/283/525 151/274/562 150/295/558 135/298/530
f 135/95/528 143/70/23 142/33/22 134/55/523
f 135/298/529 150/295/557 149/284/554 136/292/534
f 136/130/532 144/113/24 143/70/23 135/95/527
f 136/292/533 149/284/553 148/243/550 137/244/538
f 137/166/536 145/167/25 144/113/24 136/130/531
f 137/244/537 148/243/549 147/212/545 130/206/510
f 138/336/18 166/326/26 173/334/33 145/338/25
f 139/312/19 167/302/27 166/326/26 138/336/18
f 140/282/20 168/276/28 167/302/27 139/312/19
f 141/224/21 169/226/29 168/276/28 140/282/20
f 142/268/22 170/253/30 169/213/29 141/211/21
f 143/301/23 171/297/31 170/253/30 142/268/22
f 144/333/24 172/322/32 171/297/31 143/301/23
f 145/338/25 173/334/33 172/322/32 144/333/24
f 146/219/542 154/220/575 161/278/601 153/277/574
f 146/219/543 163/204/610 154/220/578
f 147/176/546 162/191/604 163/204/607 146/219/541
f 148/159/551 156/160/583 155/177/580 147/176/547
f 149/104/555 157/105/586 156/160/584 148/159/552
f 150/66/559 158/67/590 157/105/587 149/104/556
f 150/66/561 165/46/618 158/67/592
f 151/31/564 164/38/611 165/46/616 150/66/560
f 152/6/569 160/5/597 159/32/593 151/31/565
f 153/277/573 161/278/600 160/318/598 152/319/570
f 155/61/579 158/161/589 165/138/615 162/43/603
f 156/101/585 157/139/588 158/161/591 155/61/581
f 159/118/595 154/35/577 163/40/609 164/133/613
f 160/75/599 161/39/602 154/35/576 159/118/594
f 162/191/606 147/176/548 155/177/582
f 162/43/605 165/138/617 164/133/612 163/40/608
f 164/38/614 151/31/566 159/32/596
f 166/326/26 174/287/34 181/289/41 173/334/33
f 167/302/27 175/271/35 174/287/34 166/326/26
f 168/276/28 176/242/36 175/271/35 167/302/27
f 169/226/29 177/221/37 176/242/36 168/276/28
f 170/253/30 178/237/38 177/210/37 169/213/29
f 171/297/31 179/267/39 178/237/38 170/253/30
f 172/322/32 180/285/40 179/267/39 171/297/31
f 173/334/33 181/289/41 180/285/40 172/322/32
f 175/252/35 176/238/36 177/203/37 178/171/38 179/163/39 180/170/40 181/195/41 174/228/34
f 182/587/619 186/593/42 189/534/45 184/527/623
f 183/563/621 187/571/43 186/593/42 182/587/620
f 184/527/624 189/534/45 188/551/44 185/545/625
f 185/545/626 188/551/44 187/571/43 183/563/622
f 186/593/42 190/602/628 193/532/634 189/534/45
f 187/571/43 191/583/629 190/602/627 186/593/42
f 188/551/44 192/555/631 191/583/630 187/571/43
f 189/534/45 193/532/633 192/555/632 188/551/44
f 195/547/637 199/542/48 197/592/46 194/603/635
f 197/592/46 202/586/50 205/565/53 198/576/47
f 198/576/47 196/590/639 194/603/636 197/592/46
f 198/576/47 205/565/53 204/548/52 201/559/49
f 199/542/48 203/531/51 202/586/50 197/592/46
f 200/566/641 201/559/49 199/542/48 195/547/638
f 201/559/49 200/566/642 196/590/640 198/576/47
f 201/559/49 204/548/52 203/531/51 199/542/48
f 202/586/50 206/567/644 209/554/650 205/565/53
f 203/531/51 207/533/645 206/567/643 202/586/50
f 204/548/52 208/546/647 207/533/646 203/531/51
f 205/565/53 209/554/649 208/546/648 204/548/52
f 210/540/651 214/538/54 217/591/57 212/595/655
f 211/557/653 215/552/55 214/538/54 210/540/652
f 212/595/656 217/591/57 216/570/56 213/578/657
f 213/578/658 216/570/56 215/552/55 211/557/654
f 214/538/54 219/535/59 218/584/58 217/591/57
f 215/552/55 220/550/60 219/535/59 214/538/54
f 216/570/56 221/564/61 220/550/60 215/552/55
f 217/591/57 218/584/58 221/564/61 216/570/56
f 218/584/58 222/580/660 225/561/666 221/564/61
f 219/535/59 223/528/661 222/580/659 218/584/58
f 220/550/60 224/544/663 223/528/662 219/535/59
f 221/564/61 225/561/665 224/544/664 220/550/60
f 226/599/668 242/597/70 244/539/72 228/541/671
f 227/585/669 243/579/71 242/597/70 226/599/667
f 228/541/672 244/539/72 245/556/73 232/560/674
f 229/594/62 234/577/66 237/536/69 230/537/63
f 229/594/62 242/597/70 243/579/71 231/572/64
f 230/537/63 237/536/69 236/549/68 233/553/65
f 230/537/63 244/539/72 242/597/70 229/594/62
f 231/572/64 235/562/67 234/577/66 229/594/62
f 231/572/64 243/579/71 245/556/73 233/553/65
f 232/560/673 245/556/73 243/579/71 227/585/670
f 233/553/65 236/549/68 235/562/67 231/572/64
f 233/553/65 245/556/73 244/539/72 230/537/63
f 234/577/66 239/575/677 238/530/675 237/536/69
f 235/562/67 240/558/679 239/575/678 234/577/66
f 236/549/68 241/543/681 240/558/680 235/562/67
f 237/536/69 238/530/676 241/543/682 236/549/68
f 246/350/683 249/330/690 248/329/688 247/349/686
f 246/384/684 250/374/693 253/351/701 249/356/692
f 247/349/687 251/370/697 250/371/695 246/350/685
f 249/416/691 253/397/700 252/396/698 248/415/689
f 251/370/696 252/396/699 253/397/702 250/371/694
f 254/362/703 257/355/710 256/354/708 255/361/706
f 254/612/704 258/611/713 261/607/721 257/608/712
f 255/361/707 259/375/717 258/376/715 254/362/705
f 257/393/711 261/386/720 260/385/718 256/392/709
f 259/375/716 260/385/719 261/386/722 258/376/714
f 262/225/723 270/248/74 277/199/81 269/186/751
f 262/69/725 279/72/760 278/56/755 263/42/729
f 263/275/728 271/304/75 270/248/74 262/225/724
f 263/42/730 278/56/756 285/59/788 264/48/734
f 264/303/732 272/341/76 271/304/75 263/275/727
f 264/49/733 285/60/787 284/82/784 265/76/738
f 265/47/736 273/25/77 272/7/76 264/26/731
f 265/76/737 284/82/783 283/106/779 266/111/742
f 266/94/740 274/68/78 273/25/77 265/47/735
f 266/111/741 283/106/778 282/129/774 267/134/746
f 267/126/744 275/110/79 274/68/78 266/94/739
f 267/134/745 282/129/773 281/119/770 268/131/750
f 268/164/748 276/165/80 275/110/79 267/126/743
f 268/131/749 281/119/769 280/99/766 269/100/754
f 269/186/752 277/199/81 276/165/80 268/164/747
f 269/100/753 280/99/765 279/72/761 262/69/726
f 270/307/74 298/300/82 305/325/89 277/335/81
f 271/279/75 299/270/83 298/300/82 270/307/74
f 272/222/76 300/223/84 299/270/83 271/279/75
f 273/260/77 301/251/85 300/209/84 272/208/76
f 274/299/78 302/296/86 301/251/85 273/260/77
f 275/331/79 303/317/87 302/296/86 274/299/78
f 276/337/80 304/332/88 303/317/87 275/331/79
f 277/335/81 305/325/89 304/332/88 276/337/80
f 278/273/758 286/272/791 293/316/817 285/315/790
f 278/273/759 295/247/826 286/272/794
f 279/215/762 294/229/820 295/247/823 278/273/757
f 280/174/767 288/175/799 287/214/796 279/215/763
f 281/156/771 289/155/802 288/175/800 280/174/768
f 282/103/775 290/102/806 289/155/803 281/156/772
f 282/103/777 297/96/834 290/102/808
f 283/63/780 296/74/827 297/96/832 282/103/776
f 284/28/785 292/27/813 291/62/809 283/63/781
f 285/3/789 293/4/816 292/27/814 284/28/786
f 287/71/795 290/162/805 297/137/831 294/54/819
f 288/109/801 289/154/804 290/162/807 287/71/797
f 291/112/811 286/36/793 295/41/825 296/132/829
f 292/73/815 293/37/818 286/36/792 291/112/810
f 294/229/822 279/215/764 287/214/798
f 294/54/821 297/137/833 296/132/828 295/41/824
f 296/74/830 283/63/782 291/62/812
f 298/300/82 306/269/90 313/286/97 305/325/89
f 299/270/83 307/239/91 306/269/90 298/300/82
f 300/223/84 308/218/92 307/239/91 299/270/83
f 301/251/85 309/234/93 308/207/92 300/209/84
f 302/296/86 310/255/94 309/234/93 301/251/85
f 303/317/87 311/281/95 310/255/94 302/296/86
f 304/332/88 312/288/96 311/281/95 303/317/87
f 305/325/89 313/286/97 312/288/96 304/332/88
f 314/514/837 321/511/858 320/499/855 319/477/852 318/470/849 317/473/846 316/482/843 315/504/840
f 314/383/836 322/382/861 329/398/882 321/399/857
f 315/358/838 323/357/863 322/382/860 314/383/835
f 316/344/841 324/343/866 323/357/864 315/358/839
f 317/324/844 325/323/869 324/343/867 316/344/842
f 318/294/847 326/293/872 325/323/870 317/324/845
f 319/423/850 327/422/875 326/425/873 318/426/848
f 320/414/853 328/413/878 327/422/876 319/423/851
f 321/399/856 329/398/881 328/413/879 320/414/854
f 323/476/862 324/498/865 325/510/868 326/515/871 327/505/874 328/483/877 329/472/880 322/469/859
