# Exported from Wings 3D 1.0.2
mtllib Chair.mtl
o cube2
#414 vertices, 362 faces
v -2.12892380 -0.13608047 2.77711123
v 2.17792890 -0.13608047 2.77711123
v -2.12892380 -0.13608047 -0.60692621
v -2.12892380 0.13607953 -0.60692621
v 2.17792890 0.13607953 -0.60692621
v 2.17792890 -0.13608047 -0.60692621
v -2.12892380 1.6968421e-2 2.77711123
v -2.12892380 0.13607953 2.65800012
v 2.17792890 1.6968421e-2 2.77711123
v 2.17792890 0.13607953 2.65800012
v 2.13732045 -0.13608047 2.73650278
v -2.08831535 -0.13608047 2.73650278
v -2.08831535 -0.13608047 -0.56631776
v 2.13732045 -0.13608047 -0.56631776
v 2.13732045 1.2810795e-2 2.73650278
v -2.08831535 1.2810795e-2 2.73650278
v -2.08831535 1.2810795e-2 -0.56631776
v 2.13732045 1.2810795e-2 -0.56631776
v 1.76001833 5.3656969e-2 -0.18901564
v -1.71101323 5.3656969e-2 -0.18901564
v -1.71101323 5.3656969e-2 2.24008954
v 1.76001833 5.3656969e-2 2.24008954
v 2.25445991 -4.47002497 3.05732898
v 2.40733986 -4.44342961 3.11114060
v 2.31448494 -4.53776167 2.92027418
v 2.46736489 -4.51116631 2.97408580
v -2.39696408 -4.44342961 3.11114060
v -2.24408413 -4.47002497 3.05732898
v -2.45698911 -4.51116631 2.97408580
v -2.30410916 -4.53776167 2.92027418
v 2.25445991 2.99179267 -0.63057483
v 2.40733671 3.02024521 -0.57763373
v 2.31449133 2.92452540 -0.76782493
v 2.46736489 2.95312017 -0.71492427
v 1.13699107 4.07110082 -1.20500455
v -1.14527832 4.07110163 -1.20500289
v -1.14773032 4.23488407 -1.21720442
v 1.13941985 4.23488409 -1.21720448
v 1.13768374 4.05889053 -1.36879247
v -1.14598389 4.05889053 -1.36879245
v -1.14854390 4.22267722 -1.38100217
v 1.14022197 4.22267722 -1.38100217
v -2.39696091 3.02022820 -0.57762530
v -2.24408413 2.99183686 -0.63059620
v -2.45698911 2.95308221 -0.71490698
v -2.30411593 2.92454204 -0.76783358
v 1.91722661 3.93275655 -1.03948343
v 2.27768582 3.47994562 -0.80508420
v 1.85528861 3.81112647 -1.04733450
v 2.16025525 3.40355098 -0.83481684
v 1.88440117 3.78322408 -1.22606927
v 2.21353517 3.35400738 -0.99612038
v 1.94624735 3.90481106 -1.21827297
v 2.33046051 3.43051603 -0.96709412
v -2.27168355 3.47941538 -0.80482094
v -1.91867411 3.93198430 -1.03907391
v -2.15393807 3.40323452 -0.83465813
v -1.85647913 3.81038409 -1.04694234
v -2.20735732 3.35362237 -0.99590837
v -1.88571686 3.78246555 -1.22563947
v -2.32457279 3.42993641 -0.96678656
v -1.94781124 3.90403086 -1.21786008
v 2.31448494 -4.55798322 -0.80969932
v 2.28447242 1.25526906 -3.3898177e-2
v 2.43735238 1.25526906 -3.3898177e-2
v 2.46736489 -4.55008606 -0.86920258
v 2.25445991 -4.53786967 -0.96125038
v 2.28447242 1.27538262 -0.25455652
v 2.43735238 1.27538262 -0.25455652
v 2.40733986 -4.52997251 -1.02075364
v -2.45419107 -4.55008606 -0.86920258
v -2.42417856 1.25526906 -3.3898177e-2
v -2.27129861 1.25526906 -3.3898177e-2
v -2.30131112 -4.55798322 -0.80969932
v -2.39416605 -4.52997251 -1.02075364
v -2.42417856 1.27538262 -0.25455652
v -2.27129861 1.27538262 -0.25455652
v -2.24128610 -4.53786967 -0.96125038
v -2.52712343 -2.89046870 2.25198760
v -2.52712343 -2.79278870 2.25198760
v 2.52712343 -2.79278870 2.25198760
v 2.52712343 -2.89046870 2.25198760
v -2.52712343 -2.89046870 2.15430760
v -2.52712343 -2.79278870 2.15430760
v 2.52712343 -2.79278870 2.15430760
v 2.52712343 -2.89046870 2.15430760
v -0.84237448 -2.98045924 2.25198760
v 0.84237448 -2.98045924 2.25198760
v -0.84237448 -2.88277924 2.25198760
v 0.84237448 -2.88277924 2.25198760
v -0.84237448 -2.98045924 2.15430760
v 0.84237448 -2.98045924 2.15430760
v -0.84237448 -2.88277924 2.15430760
v 0.84237448 -2.88277924 2.15430760
v -2.52712343 -2.90010992 -0.63115574
v -2.52712343 -2.80378082 -0.64734484
v 2.52712343 -2.80378082 -0.64734484
v 2.52712343 -2.90010992 -0.63115574
v -2.52712343 -2.91629902 -0.72748483
v -2.52712343 -2.81996993 -0.74367394
v 2.52712343 -2.81996993 -0.74367394
v 2.52712343 -2.91629902 -0.72748483
v 2.16427762 -0.19368543 1.02845286
v 2.21352562 -0.19368543 1.02179138
v 2.16427762 -8.7410283e-2 1.35296624
v 2.21352562 -8.7410283e-2 1.35041043
v 2.16427762 -0.15944499 1.77226077
v 2.16427762 -0.11306290 1.84525107
v 2.16427762 -6.3079500e-3 1.84525107
v 2.16427762 7.4314573e-2 1.76462854
v 2.21352562 -6.3079500e-3 1.84525107
v 2.21352562 7.4314573e-2 1.76462854
v 2.21352562 -0.11306290 1.84525107
v 2.21352562 -0.16125549 1.77143853
v 2.21352562 7.4314573e-2 -0.89954169
v 2.11801579 7.4314573e-2 -0.99505152
v 2.21352562 -0.19368543 -0.89954169
v 2.11801579 -0.19368543 -0.99505152
v 2.16427762 -0.19368543 -0.84244847
v 2.06876779 -0.19368543 -0.93795829
v 2.16427762 7.4314573e-2 -0.84244847
v 2.06876779 7.4314573e-2 -0.93795829
v -2.11619707 -0.19368543 1.02845286
v -2.16544507 -0.19368543 1.02179138
v -2.11619707 -8.7410283e-2 1.35296624
v -2.16544507 -8.7410283e-2 1.35041043
v -2.11619707 -0.15944499 1.77226077
v -2.11619707 -0.11306290 1.84525107
v -2.11619707 -6.3079500e-3 1.84525107
v -2.11619707 7.4314573e-2 1.76462854
v -2.16544507 -6.3079500e-3 1.84525107
v -2.16544507 7.4314573e-2 1.76462854
v -2.16544507 -0.11306290 1.84525107
v -2.16544507 -0.16125549 1.77143853
v -2.16544507 7.4314573e-2 -0.89954169
v -2.06993524 7.4314573e-2 -0.99505152
v -2.16544507 -0.19368543 -0.89954169
v -2.06993524 -0.19368543 -0.99505152
v -2.11619707 -0.19368543 -0.84244847
v -2.02068724 -0.19368543 -0.93795829
v -2.11619707 7.4314573e-2 -0.84244847
v -2.02068724 7.4314573e-2 -0.93795829
v -2.13139683 -4.67515542 -0.90244015
v -2.19942941 -4.67515542 -0.73819497
v -2.36367459 -4.67515542 -0.67016239
v -2.52791977 -4.67515542 -0.73819497
v -2.59595235 -4.67515542 -0.90244015
v -2.52791977 -4.67515542 -1.06668533
v -2.36367459 -4.67515542 -1.13471791
v -2.19942941 -4.67515542 -1.06668533
v -2.13139683 -4.46323925 -0.90244015
v -2.19942941 -4.46323925 -0.73819497
v -2.36367459 -4.46323925 -0.67016239
v -2.52791977 -4.46323925 -0.73819497
v -2.59595235 -4.46323925 -0.90244015
v -2.52791977 -4.46323925 -1.06668533
v -2.36367459 -4.46323925 -1.13471791
v -2.19942941 -4.46323925 -1.06668533
v -2.23003881 -4.42324615 -0.76880436
v -2.17468505 -4.42324615 -0.90244015
v -2.23003881 -4.42324615 -1.03607593
v -2.36367459 -4.42324615 -1.09142969
v -2.49731038 -4.42324615 -1.03607593
v -2.55266413 -4.42324615 -0.90244015
v -2.49731038 -4.42324615 -0.76880436
v -2.36367459 -4.42324615 -0.71345061
v 2.22922858 -0.47071264 -0.41088907
v 2.27847658 -0.47283077 -0.41720484
v 2.22922858 -0.26676855 -0.13700927
v 2.27847658 -0.26758121 -0.13943244
v 2.22922858 -0.20174312 0.28342930
v 2.22922858 -0.13455970 0.33788359
v 2.22922858 -3.3345122e-2 0.30393907
v 2.22922858 1.7457973e-2 0.20186543
v 2.27847658 -3.3345122e-2 0.30393907
v 2.27847658 1.7457973e-2 0.20186543
v 2.27847658 -0.13455970 0.33788359
v 2.27847658 -0.20372110 0.28322542
v 2.27847658 -0.30365840 -0.60938541
v 2.27847658 -0.22652754 -0.57099660
v 2.27847658 -0.44223004 -0.56291239
v 2.27847658 -0.48061886 -0.48578154
v 2.22922858 -0.47995687 -0.48380766
v 2.22922858 -0.44156805 -0.56093852
v 2.22922858 -0.30299642 -0.60741153
v 2.22922858 -0.22586556 -0.56902272
v -2.41270476 1.13972020 0.39179990
v -2.49523625 1.10315288 0.31781154
v -2.28503374 1.13972020 0.39179990
v -2.20250225 1.10315288 0.31781154
v -2.49523625 1.04658553 0.20335621
v -2.41270476 1.01001820 0.12936785
v -2.28503374 1.01001820 0.12936785
v -2.20250225 1.04658553 0.20335621
v -2.20210240 1.36368729 0.18902478
v -2.41230491 1.39892615 0.26369175
v -2.49483640 1.30549523 7.5391702e-2
v -2.28463390 1.27016742 7.9350832e-4
v -2.49483640 1.36203283 0.18983437
v -2.28463606 1.39987693 0.26322427
v -2.41230051 1.26922088 1.2564148e-3
v -2.20210240 1.30716275 7.4618514e-2
v 2.19892606 -0.19547472 0.15234686
v 2.19892606 -0.11251115 0.20390681
v 2.33978879 -0.11251115 0.20390681
v 2.33978879 -0.19547472 0.15234686
v 2.19892606 -0.14391477 6.9383291e-2
v 2.19892606 -6.0951196e-2 0.12094324
v 2.33978879 -6.0951196e-2 0.12094324
v 2.33978879 -0.14391477 6.9383291e-2
v -2.13139683 -4.66860316 3.06286041
v -2.19942941 -4.66860316 3.22140473
v -2.36367459 -4.66860316 3.28707593
v -2.52791977 -4.66860316 3.22140473
v -2.59595235 -4.66860316 3.06286041
v -2.52791977 -4.66860316 2.90431609
v -2.36367459 -4.66860316 2.83864489
v -2.19942941 -4.66860316 2.90431609
v -2.13139683 -4.45402071 3.00751247
v -2.19942941 -4.41112341 3.16605678
v -2.36367459 -4.39335476 3.23172799
v -2.52791977 -4.41112341 3.16605678
v -2.59595235 -4.45402071 3.00751247
v -2.52791977 -4.49691802 2.84896815
v -2.36367459 -4.51468666 2.78329695
v -2.19942941 -4.49691802 2.84896815
v -2.23003881 -4.38051296 3.12606449
v -2.17468505 -4.41541575 2.99706713
v -2.23003881 -4.45031854 2.86806977
v -2.36367459 -4.46477575 2.81463732
v -2.49731038 -4.45031854 2.86806977
v -2.55266413 -4.41541575 2.99706713
v -2.49731038 -4.38051296 3.12606449
v -2.36367459 -4.36605575 3.17949694
v 2.19849462 -0.34169401 -0.30376672
v 2.19849462 -0.24536491 -0.31995582
v 2.52669199 -0.24536491 -0.31995582
v 2.52669199 -0.34169401 -0.30376672
v 2.19849462 -0.35788311 -0.40009582
v 2.19849462 -0.26155401 -0.41628492
v 2.52669199 -0.26155401 -0.41628492
v 2.52669199 -0.35788311 -0.40009582
v 2.19892606 -0.13597567 0.84439428
v 2.19892606 -4.8665241e-2 0.88819235
v 2.52712343 -4.8665241e-2 0.88819235
v 2.52712343 -0.13597567 0.84439428
v 2.19892606 -9.2177599e-2 0.75708384
v 2.19892606 -4.8671682e-3 0.80088192
v 2.52712343 -4.8671682e-3 0.80088192
v 2.52712343 -9.2177599e-2 0.75708384
v -2.46166241 0.94148782 -4.8389280e-2
v -2.46166241 1.27066073 -5.7540199e-3
v -2.25752801 1.27066073 -5.7540199e-3
v -2.25752801 0.94148782 -4.8389280e-2
v -2.46166241 0.97678122 -0.32087805
v -2.46166241 1.30595413 -0.27824279
v -2.25752801 1.30595413 -0.27824279
v -2.25752801 0.97678122 -0.32087805
v -2.46166241 1.01973510 -3.7418080e-2
v -2.25752801 1.01973510 -3.7418080e-2
v -2.46166241 1.06037546 0.16255793
v -2.25752801 1.06037546 0.16255793
v -2.25752801 1.30034994 8.2692220e-2
v -2.46166241 1.30034994 8.2692220e-2
v -2.18114803 -0.47071264 -0.41088907
v -2.23039603 -0.47283077 -0.41720484
v -2.18114803 -0.26676855 -0.13700927
v -2.23039603 -0.26758121 -0.13943244
v -2.18114803 -0.20174312 0.28342930
v -2.18114803 -0.13455970 0.33788359
v -2.18114803 -3.3345122e-2 0.30393907
v -2.18114803 1.7457973e-2 0.20186543
v -2.23039603 -3.3345122e-2 0.30393907
v -2.23039603 1.7457973e-2 0.20186543
v -2.23039603 -0.13455970 0.33788359
v -2.23039603 -0.20372110 0.28322542
v -2.23039603 -0.30365840 -0.60938541
v -2.23039603 -0.22652754 -0.57099660
v -2.23039603 -0.44223004 -0.56291239
v -2.23039603 -0.48061886 -0.48578154
v -2.18114803 -0.47995687 -0.48380766
v -2.18114803 -0.44156805 -0.56093852
v -2.18114803 -0.30299642 -0.60741153
v -2.18114803 -0.22586556 -0.56902272
v -2.15084551 -0.19547472 0.15234686
v -2.15084551 -0.11251115 0.20390681
v -2.29170824 -0.11251115 0.20390681
v -2.29170824 -0.19547472 0.15234686
v -2.15084551 -0.14391477 6.9383291e-2
v -2.15084551 -6.0951196e-2 0.12094324
v -2.29170824 -6.0951196e-2 0.12094324
v -2.29170824 -0.14391477 6.9383291e-2
v -2.15041407 -0.34169401 -0.30376672
v -2.15041407 -0.24536491 -0.31995582
v -2.47861144 -0.24536491 -0.31995582
v -2.47861144 -0.34169401 -0.30376672
v -2.15041407 -0.35788311 -0.40009582
v -2.15041407 -0.26155401 -0.41628492
v -2.47861144 -0.26155401 -0.41628492
v -2.47861144 -0.35788311 -0.40009582
v 2.40329884 2.87664914 -0.59167542
v 2.40329884 2.85157657 -0.63394611
v 1.20090417 4.07110082 -1.23440140
v -1.20990418 4.07110163 -1.23439974
v 1.20084212 4.04685895 -1.27711677
v -1.20984192 4.04685895 -1.27711677
v -2.39222104 2.87669333 -0.59169679
v -2.34533110 3.26194515 -0.79392873
v -2.39222104 2.85162074 -0.63396793
v -2.34541044 3.23394279 -0.84180735
v 1.71589696 3.96237756 -1.16333604
v 2.14790926 3.63910268 -0.98488820
v 2.30193642 3.40355098 -0.86421369
v 1.71568662 3.93208310 -1.21819103
v 2.30183177 3.37296140 -0.91887962
v 2.14793629 3.60561273 -1.04520779
v -2.14427082 3.63992046 -0.98565634
v -1.71876982 3.96293397 -1.16369994
v -2.14429995 3.60656035 -1.04570457
v -1.71855789 3.93267388 -1.21848979
v -0.95670772 2.87667860 -0.59168967
v 0.64179890 2.87666387 -0.59168255
v -0.95670772 2.85160602 -0.63396065
v 0.64179890 2.85159129 -0.63395338
v -0.31705225 2.92964652 -0.59168729
v 8.3640082e-2 2.92964161 -0.59168492
v -0.31705225 2.90457393 -0.63395823
v 8.3640082e-2 2.90456903 -0.63395581
v -2.15084551 -0.13597567 0.84439428
v -2.15084551 -4.8665241e-2 0.88819235
v -2.47904288 -4.8665241e-2 0.88819235
v -2.47904288 -0.13597567 0.84439428
v -2.15084551 -9.2177599e-2 0.75708384
v -2.15084551 -4.8671682e-3 0.80088192
v -2.47904288 -4.8671682e-3 0.80088192
v -2.47904288 -9.2177599e-2 0.75708384
v 2.24698858 0.94148782 -4.8389280e-2
v 2.24698858 1.27066073 -5.7540199e-3
v 2.45112298 1.27066073 -5.7540199e-3
v 2.45112298 0.94148782 -4.8389280e-2
v 2.24698858 0.97678122 -0.32087805
v 2.24698858 1.30595413 -0.27824279
v 2.45112298 1.30595413 -0.27824279
v 2.45112298 0.97678122 -0.32087805
v 2.24698858 1.01973510 -3.7418080e-2
v 2.45112298 1.01973510 -3.7418080e-2
v 2.24698858 1.06037546 0.16255793
v 2.45112298 1.06037546 0.16255793
v 2.45112298 1.30034994 8.2692220e-2
v 2.24698858 1.30034994 8.2692220e-2
v 2.57725415 -4.66860316 3.06286041
v 2.50922157 -4.66860316 3.22140473
v 2.34497639 -4.66860316 3.28707593
v 2.18073121 -4.66860316 3.22140473
v 2.11269863 -4.66860316 3.06286041
v 2.18073121 -4.66860316 2.90431609
v 2.34497639 -4.66860316 2.83864489
v 2.50922157 -4.66860316 2.90431609
v 2.57725415 -4.45402071 3.00751247
v 2.50922157 -4.41112341 3.16605678
v 2.34497639 -4.39335476 3.23172799
v 2.18073121 -4.41112341 3.16605678
v 2.11269863 -4.45402071 3.00751247
v 2.18073121 -4.49691802 2.84896815
v 2.34497639 -4.51468666 2.78329695
v 2.50922157 -4.49691802 2.84896815
v 2.47861218 -4.38051296 3.12606449
v 2.53396593 -4.41541575 2.99706713
v 2.47861218 -4.45031854 2.86806977
v 2.34497639 -4.46477575 2.81463732
v 2.21134061 -4.45031854 2.86806977
v 2.15598685 -4.41541575 2.99706713
v 2.21134061 -4.38051296 3.12606449
v 2.34497639 -4.36605575 3.17949694
v 2.29594623 1.13972020 0.39179990
v 2.21341474 1.10315288 0.31781154
v 2.42361724 1.13972020 0.39179990
v 2.50614873 1.10315288 0.31781154
v 2.21341474 1.04658553 0.20335621
v 2.29594623 1.01001820 0.12936785
v 2.42361724 1.01001820 0.12936785
v 2.50614873 1.04658553 0.20335621
v 2.50654858 1.36368729 0.18902478
v 2.29634608 1.39892615 0.26369175
v 2.21381459 1.30549523 7.5391702e-2
v 2.42401709 1.27016742 7.9350832e-4
v 2.21381459 1.36203283 0.18983437
v 2.42401492 1.39987693 0.26322427
v 2.29635047 1.26922088 1.2564148e-3
v 2.50654858 1.30716275 7.4618514e-2
v 2.57725415 -4.67515542 -0.90244015
v 2.50922157 -4.67515542 -0.73819497
v 2.34497639 -4.67515542 -0.67016239
v 2.18073121 -4.67515542 -0.73819497
v 2.11269863 -4.67515542 -0.90244015
v 2.18073121 -4.67515542 -1.06668533
v 2.34497639 -4.67515542 -1.13471791
v 2.50922157 -4.67515542 -1.06668533
v 2.57725415 -4.46323925 -0.90244015
v 2.50922157 -4.46323925 -0.73819497
v 2.34497639 -4.46323925 -0.67016239
v 2.18073121 -4.46323925 -0.73819497
v 2.11269863 -4.46323925 -0.90244015
v 2.18073121 -4.46323925 -1.06668533
v 2.34497639 -4.46323925 -1.13471791
v 2.50922157 -4.46323925 -1.06668533
v 2.47861218 -4.42324615 -0.76880436
v 2.53396593 -4.42324615 -0.90244015
v 2.47861218 -4.42324615 -1.03607593
v 2.34497639 -4.42324615 -1.09142969
v 2.21134061 -4.42324615 -1.03607593
v 2.15598685 -4.42324615 -0.90244015
v 2.21134061 -4.42324615 -0.76880436
v 2.34497639 -4.42324615 -0.71345061
vt 5.2146308e-3 2.8945397e-2
vt 5.2761906e-3 3.8441814e-2
vt 5.7402078e-3 9.9174609e-3
vt 5.7402078e-3 1.9429142e-2
vt 5.7402078e-3 2.8940823e-2
vt 5.7402078e-3 3.8452504e-2
vt 5.7402078e-3 4.7964185e-2
vt 5.7787889e-3 1.9457704e-2
vt 5.8379138e-3 9.9500907e-3
vt 5.8432780e-3 4.7935706e-2
vt 1.6263999e-2 4.7310908e-2
vt 2.1851259e-2 5.6584709e-2
vt 2.4111990e-2 0.82770426
vt 2.4574774e-2 0.87575544
vt 2.5008243e-2 0.87582110
vt 2.7018693e-2 0.83688338
vt 3.2926913e-2 4.7034577e-2
vt 3.8512732e-2 5.6367549e-2
vt 4.0101174e-2 0.87645389
vt 4.0557129e-2 0.87647596
vt 4.0688772e-2 0.82762023
vt 4.2201312e-2 0.97911743
vt 4.3595982e-2 0.83685637
vt 4.5034646e-2 0.96465024
vt 4.6040738e-2 0.93287959
vt 4.7625356e-2 0.94659696
vt 4.9594532e-2 4.6715918e-2
vt 5.5178999e-2 5.6108668e-2
vt 5.7172787e-2 0.82748326
vt 5.7983450e-2 0.87723748
vt 5.8462731e-2 0.87729204
vt 6.0079074e-2 0.83677909
vt 6.6267916e-2 4.6444813e-2
vt 7.1850842e-2 5.5896507e-2
vt 7.2891244e-2 0.87675642
vt 7.3395231e-2 0.87693797
vt 7.3711112e-2 0.82722694
vt 7.6617558e-2 0.83657528
vt 9.6534160e-2 0.86285432
vt 9.6534160e-2 0.86285432
vt 9.6534160e-2 0.88093159
vt 9.6534160e-2 0.88093159
vt 9.7022484e-2 0.78653853
vt 9.7022484e-2 0.81868454
vt 9.9717983e-2 0.68054405
vt 9.9717983e-2 0.68054405
vt 9.9967110e-2 0.68043882
vt 9.9967110e-2 0.68043882
vt 0.10027958 0.81469198
vt 0.10041820 0.80796543
vt 0.10105902 5.9008721e-2
vt 0.10556567 0.69798048
vt 0.10556567 0.69798048
vt 0.10581480 0.69787525
vt 0.10581480 0.69787525
vt 0.10913405 0.66862948
vt 0.10913405 0.66862948
vt 0.10934805 0.66886500
vt 0.10934805 0.66886500
vt 0.11060289 0.89500033
vt 0.11060289 0.89500033
vt 0.11816075 0.64770845
vt 0.11816075 0.64770845
vt 0.12207099 0.75753735
vt 0.12220369 0.72224724
vt 0.12220543 0.75812204
vt 0.12220727 0.72271908
vt 0.12315009 0.70673243
vt 0.12315009 0.70673243
vt 0.12328462 5.9871218e-2
vt 0.12328462 5.9871218e-2
vt 0.12339922 0.70662720
vt 0.12339922 0.70662720
vt 0.12490594 0.98200801
vt 0.12525687 0.96553323
vt 0.12549821 0.93320267
vt 0.12552655 0.94939989
vt 0.13600323 0.64767961
vt 0.13600323 0.64767961
vt 0.13633277 0.75751922
vt 0.13644515 0.75810917
vt 0.13645066 0.72265007
vt 0.13648102 0.72226965
vt 0.13863127 5.9861174e-2
vt 0.13863127 5.9861174e-2
vt 0.15189370 0.75756606
vt 0.15201946 0.72265224
vt 0.15202163 0.75810930
vt 0.15210172 0.72231685
vt 0.15384573 0.64770004
vt 0.15384573 0.64770004
vt 0.16085572 5.8969584e-2
vt 0.16085572 5.8969584e-2
vt 0.16610244 0.75769316
vt 0.16626076 0.72271877
vt 0.16626090 0.75812287
vt 0.16636680 0.72241873
vt 0.16960631 3.8444718e-2
vt 0.16960678 2.8925672e-2
vt 0.16985798 9.9252144e-3
vt 0.16985867 4.7952293e-2
vt 0.16986084 1.9426688e-2
vt 0.17168821 0.64772841
vt 0.17168821 0.64772841
vt 0.17620233 5.9008721e-2
vt 0.17620233 5.9008721e-2
vt 0.18161990 0.75797696
vt 0.18177782 0.65766295
vt 0.18177782 0.65766295
vt 0.18183652 0.72286915
vt 0.18183710 0.75814431
vt 0.18194614 0.65762817
vt 0.18194614 0.65762817
vt 0.18198323 0.72257537
vt 0.19581945 0.75821027
vt 0.19607499 0.75815890
vt 0.19607665 0.72292477
vt 0.19627658 0.72275841
vt 0.21064129 0.10024575
vt 0.21064129 0.61610630
vt 0.21135957 0.75844021
vt 0.21165130 0.72292091
vt 0.21165267 0.75815863
vt 0.21188615 0.72300360
vt 0.22085819 0.11271418
vt 0.22085819 0.60289470
vt 0.22556170 0.75862179
vt 0.22564375 8.8536814e-2
vt 0.22564462 0.11067085
vt 0.22564558 0.13503198
vt 0.22564871 0.60776367
vt 0.22589302 0.72286813
vt 0.22589377 0.75814220
vt 0.22613801 0.72323791
vt 0.22895962 0.62252910
vt 0.22895962 0.62252910
vt 0.22979853 0.62226944
vt 0.22979853 0.62226944
vt 0.24109630 0.75875146
vt 0.24146683 0.72271908
vt 0.24146819 0.75811858
vt 0.24152145 0.62093658
vt 0.24152145 0.62093658
vt 0.24161237 0.62092777
vt 0.24161237 0.62092777
vt 0.24169081 0.72349734
vt 0.25034584 0.71899690
vt 0.25034584 0.68734224
vt 0.25480893 0.62754990
vt 0.25480893 0.62754990
vt 0.25489985 0.62754108
vt 0.25489985 0.62754108
vt 0.25616274 0.68734224
vt 0.25616274 0.71899690
vt 0.25620161 0.66470938
vt 0.25620161 0.66470938
vt 0.25629253 0.66470057
vt 0.25629253 0.66470057
vt 0.26281493 0.65142190
vt 0.26281493 0.65142190
vt 0.26290585 0.65141309
vt 0.26290585 0.65141309
vt 0.26629970 0.68734224
vt 0.26629970 0.71899690
vt 0.27211660 0.68734224
vt 0.27211660 0.71899690
vt 0.28653923 0.19609321
vt 0.28654145 0.54669792
vt 0.33371434 4.7975512e-2
vt 0.33371676 1.9411794e-2
vt 0.33371746 9.9052077e-3
vt 0.33396962 2.8933073e-2
vt 0.33396964 3.8468600e-2
vt 0.33599254 0.94996169
vt 0.33603666 0.81148245
vt 0.33612967 0.93377112
vt 0.33619936 0.96605108
vt 0.33630472 0.81138239
vt 0.33646234 0.98252015
vt 0.34139546 0.81841312
vt 0.34153199 0.81293514
vt 0.35647078 0.81408195
vt 0.35659178 0.80796522
vt 0.35901680 0.81418245
vt 0.35923629 0.81392173
vt 0.41292031 0.94771594
vt 0.41463862 0.93414152
vt 0.41533086 0.96559719
vt 0.41810604 0.97996792
vt 0.43840389 0.93427619
vt 0.44012555 0.94909205
vt 0.44083482 0.96697743
vt 0.44143261 0.98250803
vt 0.44341340 0.62615756
vt 0.44341340 0.62615756
vt 0.44341340 0.66464962
vt 0.44341340 0.66464962
vt 0.44861829 0.62613836
vt 0.44861829 0.66463041
vt 0.44861829 0.62613836
vt 0.44861829 0.66463041
vt 0.49623762 0.86285432
vt 0.49623762 0.86285432
vt 0.49623762 0.89500033
vt 0.49623762 0.89500033
vt 0.49696658 0.85225683
vt 0.49790221 9.9174609e-3
vt 0.49790221 1.9429142e-2
vt 0.49790221 2.8940823e-2
vt 0.49790221 3.8452504e-2
vt 0.49790221 4.7964185e-2
vt 0.49791653 1.9454644e-2
vt 0.49797677 4.7935947e-2
vt 0.49798077 9.9500907e-3
vt 0.49836294 2.8945341e-2
vt 0.49842348 3.8445052e-2
vt 0.49985629 0.85230168
vt 0.50466410 0.89688751
vt 0.50745861 0.91318197
vt 0.51263276 1.2295578e-2
vt 0.51553646 5.0111032e-3
vt 0.52121201 4.9987615e-2
vt 0.52325609 0.94038247
vt 0.52529271 0.94037313
vt 0.52694808 5.5309180e-2
vt 0.53706532 5.5309180e-2
vt 0.54280139 4.9987615e-2
vt 0.54847694 5.0111032e-3
vt 0.55138064 1.2295578e-2
vt 0.56760171 0.97828692
vt 0.56901556 0.97822972
vt 0.57581461 1.0446662e-2
vt 0.57581461 6.9941253e-2
vt 0.57581461 3.3112746e-2
vt 0.57581461 4.7275169e-2
vt 0.57581461 3.3112746e-2
vt 0.57581461 4.7275169e-2
vt 0.59515009 0.81991791
vt 0.59535001 0.81174555
vt 0.60572369 0.78653853
vt 0.60572369 0.81868454
vt 0.61240415 1.0446662e-2
vt 0.61240415 3.3112746e-2
vt 0.61240415 4.7275169e-2
vt 0.61240415 6.9941253e-2
vt 0.61240415 3.3112746e-2
vt 0.61240415 4.7275169e-2
vt 0.62051487 0.99145943
vt 0.62117921 0.99143945
vt 0.63854610 4.7403261e-2
vt 0.63854683 2.4523243e-2
vt 0.63854713 4.7403257e-2
vt 0.63854713 2.4519198e-2
vt 0.64715409 0.85220638
vt 0.65334027 6.2196399e-2
vt 0.65334027 9.7260559e-3
vt 0.65334038 6.2196973e-2
vt 0.65334082 9.7255106e-3
vt 0.66214065 0.78267288
vt 0.67590209 0.74944982
vt 0.67590209 0.75060297
vt 0.67590209 0.81474279
vt 0.67590209 0.81589595
vt 0.67622433 6.2196399e-2
vt 0.67622433 9.7260559e-3
vt 0.67622479 6.2196182e-2
vt 0.67622489 9.7258697e-3
vt 0.67781581 0.85214311
vt 0.69101747 2.4519198e-2
vt 0.69101747 4.7403257e-2
vt 0.69101788 2.4523172e-2
vt 0.69101790 4.7395552e-2
vt 0.69726387 1.8755330e-2
vt 0.69726387 1.8755330e-2
vt 0.70333123 7.1430998e-2
vt 0.70490592 7.7757071e-2
vt 0.70490592 7.7757071e-2
vt 0.70900677 2.6454487e-2
vt 0.70912516 0.73568838
vt 0.70912516 0.73731918
vt 0.70912516 0.82802658
vt 0.70912516 0.82965739
vt 0.71097328 1.2429257e-2
vt 0.71291016 0.85699331
vt 0.71733038 0.62613836
vt 0.71733038 0.62613836
vt 0.71936886 0.62615756
vt 0.71936886 0.62615756
vt 0.73511319 0.85694383
vt 0.74234822 0.74944982
vt 0.74234822 0.75060297
vt 0.74234822 0.81474279
vt 0.74234822 0.81589595
vt 0.74610541 1.2429257e-2
vt 0.74610541 1.2429257e-2
vt 0.74807192 2.6454487e-2
vt 0.74807192 2.6454487e-2
vt 0.75217277 7.7757071e-2
vt 0.75374746 7.1430998e-2
vt 0.75374746 7.1430998e-2
vt 0.75401538 0.85700919
vt 0.75514002 0.68734224
vt 0.75514002 0.71899690
vt 0.75610967 0.78267288
vt 0.75981482 1.8755330e-2
vt 0.76095692 0.68734224
vt 0.76095692 0.71899690
vt 0.76393929 0.64140234
vt 0.76393929 0.64140234
vt 0.76656745 0.64142155
vt 0.76656745 0.64142155
vt 0.77051177 0.76128510
vt 0.77051177 0.76128510
vt 0.77109388 0.68734224
vt 0.77109388 0.71899690
vt 0.77278532 0.76446939
vt 0.77622020 0.85692798
vt 0.77691078 0.68734224
vt 0.77691078 0.71899690
vt 0.78126282 0.80703395
vt 0.78126282 0.80703395
vt 0.78296162 4.0424624e-2
vt 0.78296162 4.6053485e-2
vt 0.78326768 3.9339425e-2
vt 0.78326768 4.7138684e-2
vt 0.78493377 3.6056812e-2
vt 0.78493377 5.0421297e-2
vt 0.78493377 3.6056812e-2
vt 0.78493377 5.0421297e-2
vt 0.78493377 3.6056812e-2
vt 0.78493377 5.0421297e-2
vt 0.78495508 0.80896116
vt 0.78495508 0.80896116
vt 0.78626358 3.4484856e-2
vt 0.78626358 5.1993253e-2
vt 0.78760920 0.19607527
vt 0.78761032 0.54667865
vt 0.78783554 5.3323071e-2
vt 0.78783554 3.3155038e-2
vt 0.78783554 3.3155038e-2
vt 0.78783554 5.3323071e-2
vt 0.78805005 0.71927761
vt 0.78805005 0.71927761
vt 0.78985807 0.72161915
vt 0.78985807 0.72161915
vt 0.79111815 5.4989156e-2
vt 0.79111815 3.1488953e-2
vt 0.79220335 3.1182895e-2
vt 0.79220335 5.5295214e-2
vt 0.79783221 3.1182895e-2
vt 0.79783221 5.5295214e-2
vt 0.79891741 3.1488953e-2
vt 0.79891741 5.4989156e-2
vt 0.80220002 3.3155038e-2
vt 0.80220002 3.3155038e-2
vt 0.80220002 5.3323071e-2
vt 0.80220002 5.3323071e-2
vt 0.80220002 3.3155038e-2
vt 0.80220002 5.3323071e-2
vt 0.80377198 3.4484856e-2
vt 0.80377198 5.1993253e-2
vt 0.80406658 0.76622538
vt 0.80406658 0.76622538
vt 0.80510180 3.6056812e-2
vt 0.80510180 5.0421297e-2
vt 0.80510180 5.0421297e-2
vt 0.80510180 3.6056812e-2
vt 0.80510180 5.0421297e-2
vt 0.80510180 3.6056812e-2
vt 0.80676788 3.9339425e-2
vt 0.80676788 4.7138684e-2
vt 0.80707394 4.0424624e-2
vt 0.80707394 4.6053485e-2
vt 0.80779950 0.76997544
vt 0.80779950 0.76997544
vt 0.81001570 0.78696042
vt 0.81015134 0.76656695
vt 0.81131013 0.85220924
vt 0.81151316 0.78981229
vt 0.81151316 0.78981229
vt 0.81229895 0.74628642
vt 0.81328382 0.77068191
vt 0.81328382 0.77068191
vt 0.81481036 0.78253899
vt 0.81608011 0.75196813
vt 0.81608011 0.75196813
vt 0.81656865 0.75121668
vt 0.81685540 0.78627111
vt 0.81685540 0.78627111
vt 0.81968174 0.75636832
vt 0.81968174 0.75636832
vt 0.82019461 0.84041570
vt 0.82019461 0.84041570
vt 0.82306515 0.66463041
vt 0.82306515 0.66463041
vt 0.82416134 0.63105621
vt 0.82416134 0.63105621
vt 0.82521147 1.0963512e-2
vt 0.82521147 6.0213032e-2
vt 0.82521147 1.0963512e-2
vt 0.82521147 1.2921676e-2
vt 0.82521147 1.2921676e-2
vt 0.82521147 1.7299828e-2
vt 0.82521147 5.3876717e-2
vt 0.82521147 5.8254869e-2
vt 0.82521147 5.8254869e-2
vt 0.82521147 6.0213032e-2
vt 0.82543218 0.84024542
vt 0.82606039 0.66464962
vt 0.82606039 0.66464962
vt 0.82703849 0.63081538
vt 0.82703849 0.63081538
vt 0.82778746 0.79828830
vt 0.82778746 0.79828830
vt 0.82822751 0.79044939
vt 0.82935507 0.80421337
vt 0.82935507 0.80421337
vt 0.82994439 0.69231488
vt 0.82994439 0.69231488
vt 0.83014461 0.79540837
vt 0.83014461 0.79540837
vt 0.83078682 0.74485760
vt 0.83122686 0.73701869
vt 0.83265572 0.75007314
vt 0.83265572 0.75007314
vt 0.83278087 0.74311147
vt 0.83278087 0.74311147
vt 0.83358215 0.69506157
vt 0.83464472 0.63771793
vt 0.83464472 0.65305084
vt 0.83464472 0.63771793
vt 0.83464472 0.65305084
vt 0.83763997 0.63773714
vt 0.83763997 0.63773714
vt 0.83763997 0.65307004
vt 0.83763997 0.65307004
vt 0.84197990 0.85214097
vt 0.84244568 0.78409031
vt 0.84420397 0.75276800
vt 0.84488075 0.78851202
vt 0.84488075 0.78851202
vt 0.84541148 0.75646646
vt 0.84541148 0.75646646
vt 0.84671538 0.78902057
vt 0.84850228 0.13500991
vt 0.84850304 0.11064763
vt 0.84850365 8.8512456e-2
vt 0.84850365 0.60773948
vt 0.84886299 0.76874004
vt 0.84899863 0.74834657
vt 0.84899863 0.74834657
vt 0.84933198 0.75126921
vt 0.84933198 0.75126921
vt 0.84961272 0.79362130
vt 0.84961272 0.79362130
vt 0.85102424 0.77231698
vt 0.85102424 0.77231698
vt 0.85328926 8.9712559e-2
vt 0.85328926 0.57989308
vt 0.85494775 0.76908161
vt 0.85747071 0.77212750
vt 0.85747071 0.77212750
vt 0.86180101 1.0963512e-2
vt 0.86180101 6.0213032e-2
vt 0.86180101 1.0963512e-2
vt 0.86180101 1.2921676e-2
vt 0.86180101 1.2921676e-2
vt 0.86180101 1.7299828e-2
vt 0.86180101 5.3876717e-2
vt 0.86180101 5.8254869e-2
vt 0.86180101 5.8254869e-2
vt 0.86180101 6.0213032e-2
vt 0.86350616 7.6500956e-2
vt 0.86350616 0.59236151
vt 0.86790387 0.81228490
vt 0.86790387 0.81228490
vt 0.86794910 0.99147794
vt 0.86861378 0.99142249
vt 0.86915626 0.81368784
vt 0.87027491 0.72267903
vt 0.87027491 0.72267903
vt 0.87405925 0.72634583
vt 0.87405925 0.72634583
vt 0.88025491 1.2540232e-2
vt 0.88025491 7.1367115e-2
vt 0.88025491 1.2540232e-2
vt 0.88025491 7.1367115e-2
vt 0.88025491 1.2540232e-2
vt 0.88025491 1.2540232e-2
vt 0.88025491 7.1367115e-2
vt 0.88025491 7.1367115e-2
vt 0.88367609 0.76552671
vt 0.88367609 0.76552671
vt 0.88622901 0.77083760
vt 0.88622901 0.77083760
vt 0.89154587 0.17566788
vt 0.89154587 0.17566788
vt 0.89154587 0.81731619
vt 0.89154587 0.81731619
vt 0.89776331 1.2540232e-2
vt 0.89776331 7.1367115e-2
vt 0.89776331 1.2540232e-2
vt 0.89776331 1.2540232e-2
vt 0.89776331 7.1367115e-2
vt 0.89776331 1.2540232e-2
vt 0.89776331 7.1367115e-2
vt 0.90029329 0.18321331
vt 0.90029329 0.18321331
vt 0.90029329 0.80977076
vt 0.90029329 0.80977076
vt 0.90617921 0.16103453
vt 0.90617921 0.83194953
vt 0.90617921 0.16103453
vt 0.90617921 0.83194953
vt 0.91132188 0.76765996
vt 0.91132188 0.11162993
vt 0.91132188 0.77149552
vt 0.91132188 0.12023785
vt 0.91161228 0.54352786
vt 0.91161228 0.55782205
vt 0.91492663 0.16857997
vt 0.91492663 0.16857997
vt 0.91492663 0.82440410
vt 0.91492663 0.82440410
vt 0.91527170 1.2540232e-2
vt 0.91527170 7.1367115e-2
vt 0.91527170 1.2540232e-2
vt 0.91527170 7.1367115e-2
vt 0.91527170 1.2540232e-2
vt 0.91527170 7.1367115e-2
vt 0.91527170 1.2540232e-2
vt 0.91527170 7.1367115e-2
vt 0.91754362 0.77388170
vt 0.91754362 0.11785167
vt 0.91754362 0.76527378
vt 0.91754362 0.11401611
vt 0.91892696 0.26691503
vt 0.91892696 0.67510040
vt 0.91952641 0.26693632
vt 0.92008740 0.97831432
vt 0.92155069 0.97820221
vt 0.92360737 0.54352786
vt 0.92360737 0.55782205
vt 0.92468459 0.28646168
vt 0.92556210 0.41224231
vt 0.92647240 0.26691503
vt 0.92647240 0.66635297
vt 0.92689072 0.66644639
vt 0.92707398 0.26693632
vt 0.92876493 0.51898376
vt 0.92949790 0.47890084
vt 0.93042738 0.50915264
vt 0.93178762 0.28684151
vt 0.93178764 0.65082763
vt 0.93278010 7.1367115e-2
vt 0.93278010 1.2540232e-2
vt 0.93278010 1.2540232e-2
vt 0.93278010 7.1367115e-2
vt 0.93278010 1.2540232e-2
vt 0.93278010 1.2540232e-2
vt 0.93278010 7.1367115e-2
vt 0.93278010 7.1367115e-2
vt 0.93315279 0.41273591
vt 0.93436164 0.51993030
vt 0.93459261 0.67491140
vt 0.93471213 0.64581594
vt 0.93473469 0.47948043
vt 0.93605774 0.50991520
vt 0.93625417 0.47928043
vt 0.93634266 0.64586172
vt 0.93751374 0.46062606
vt 0.93781515 0.41284760
vt 0.93842193 0.54243417
vt 0.93850251 0.55563416
vt 0.93920023 0.41826372
vt 0.93923641 0.65076997
vt 0.93923643 0.28676493
vt 0.93930792 0.57801280
vt 0.93930972 0.40079512
vt 0.94143337 0.57870130
vt 0.94144398 0.47870686
vt 0.94161048 0.56505635
vt 0.94169982 0.55354231
vt 0.94226100 0.50084670
vt 0.94288832 0.54352786
vt 0.94288832 0.55782205
vt 0.94304057 0.40711885
vt 0.94308066 0.42295888
vt 0.94310149 0.43597111
vt 0.94347610 0.46128717
vt 0.94484381 0.41683833
vt 0.94548048 0.41211500
vt 0.94549407 0.42924911
vt 0.94549407 0.44560535
vt 0.94549407 0.46307430
vt 0.94549408 0.58692827
vt 0.94596922 0.54216255
vt 0.94604979 0.55536253
vt 0.94630257 0.28653746
vt 0.94643229 0.40495693
vt 0.94674551 0.41831102
vt 0.94685501 0.40084241
vt 0.94685520 0.57774117
vt 0.94838718 0.48657524
vt 0.94838778 0.49982504
vt 0.94838853 0.51618110
vt 0.94838933 0.53364986
vt 0.94923379 0.57903547
vt 0.94931784 0.55459187
vt 0.94936363 0.56538548
vt 0.94980679 0.50131213
vt 0.94999352 0.38795177
vt 0.95028850 1.2540232e-2
vt 0.95028850 7.1367115e-2
vt 0.95028850 1.2540232e-2
vt 0.95028850 7.1367115e-2
vt 0.95028850 1.2540232e-2
vt 0.95028850 7.1367115e-2
vt 0.95028850 1.2540232e-2
vt 0.95028850 7.1367115e-2
vt 0.95034735 0.40707779
vt 0.95043683 0.42291734
vt 0.95059282 0.43614769
vt 0.95128181 0.48631899
vt 0.95128243 0.49982490
vt 0.95128318 0.51618096
vt 0.95128398 0.53364971
vt 0.95165500 0.41724726
vt 0.95303950 0.42924911
vt 0.95303950 0.44560535
vt 0.95303950 0.46307430
vt 0.95303951 0.58724719
vt 0.95488340 0.54352786
vt 0.95488340 0.55782205
vt 0.95507320 0.40675608
vt 0.95593313 0.49982469
vt 0.95593388 0.51618075
vt 0.95593432 0.48631878
vt 0.95593468 0.53364951
vt 0.95777522 0.35629126
vt 0.95882778 0.49982456
vt 0.95882853 0.51618061
vt 0.95882897 0.48657477
vt 0.95882933 0.53364937
vt 0.96017475 0.39043382
vt 0.96207327 0.33761093
vt 0.96383695 0.94043469
vt 0.96483317 0.20695949
vt 0.96483317 0.72543784
vt 0.96587047 0.94031949
vt 0.96616637 8.1807934e-2
vt 0.96616637 9.9316331e-2
vt 0.96616637 0.11682473
vt 0.96616637 0.13433313
vt 0.96616637 0.15184152
vt 0.96616637 8.1807934e-2
vt 0.96616637 9.9316331e-2
vt 0.96616637 0.11682473
vt 0.96616637 0.13433313
vt 0.96616637 0.15184152
vt 0.96721935 0.21318123
vt 0.96721935 0.71921610
vt 0.96837115 0.35905925
vt 0.97105491 0.21318123
vt 0.97105491 0.71921610
vt 0.97267879 0.34038992
vt 0.97344109 0.20695949
vt 0.97344109 0.72543784
vt 0.98167725 0.91312634
vt 0.98447761 0.89685454
vt 0.98928473 0.85226188
vt 0.99141495 8.1807934e-2
vt 0.99141495 9.9316331e-2
vt 0.99141495 0.11682473
vt 0.99141495 0.13433313
vt 0.99141495 0.15184152
vt 0.99141495 8.1807934e-2
vt 0.99141495 9.9316331e-2
vt 0.99141495 0.11682473
vt 0.99141495 0.13433313
vt 0.99141495 0.15184152
vt 0.99214964 0.85229665
vn -6.5045385e-2 0.99576011 6.5045385e-2
vn 6.5045385e-2 0.99576011 6.5045385e-2
vn 6.5045385e-2 0.99576011 -6.5045385e-2
vn -6.5045385e-2 0.99576011 -6.5045385e-2
vn -0.91172906 8.7508610e-2 0.40136313
vn 0.39048994 0.45442244 0.80063590
vn -0.39193099 -0.44886672 -0.80306212
vn 0.91067784 -8.2583172e-2 -0.40477881
vn -0.19500309 -0.63228319 0.74979448
vn 0.19711539 -0.63177523 0.74967031
vn -6.6069873e-2 0.74551495 0.66320603
vn 6.5500662e-2 0.74570131 0.66305295
vn -6.6589776e-2 -0.74574107 -0.66289973
vn 6.7356423e-2 -0.74552760 -0.66306237
vn -0.19583870 0.63093169 -0.75071460
vn 0.19391822 0.63143240 -0.75079215
vn -0.39086235 0.45315390 0.80117299
vn 0.91218493 9.0854290e-2 0.39957997
vn -0.91115767 -8.5720375e-2 -0.40304306
vn 0.39226852 -0.44741152 -0.80370911
vn 0.21449013 0.68025269 0.70089248
vn 0.33958560 0.56301885 0.75345299
vn -0.59496512 -0.45531737 0.66234628
vn -0.84554228 -0.15200953 0.51181184
vn -0.22054042 -0.67507587 -0.70401314
vn -0.34612400 -0.55152827 -0.75895635
vn 0.58877993 0.45910153 -0.66525482
vn 0.83993086 0.16210671 -0.51791656
vn -0.34096094 0.56063816 0.75460618
vn -0.21607227 0.67900077 0.70162007
vn 0.84890195 -0.14496825 0.50828111
vn 0.60017552 -0.45109551 0.66053175
vn 0.34772088 -0.54852075 -0.76040462
vn 0.22260223 -0.67339120 -0.70497697
vn -0.84315123 0.15566675 -0.51464927
vn -0.59353972 0.45527862 -0.66365049
vn -1.8861460e-2 -0.70672926 0.70723264
vn 1.8861460e-2 -0.70672926 0.70723264
vn 1.8861460e-2 0.70672926 0.70723264
vn -1.8861460e-2 0.70672926 0.70723264
vn -1.8861460e-2 -0.70672926 -0.70723264
vn 1.8861460e-2 -0.70672926 -0.70723264
vn 1.8861460e-2 0.70672926 -0.70723264
vn -1.8861460e-2 0.70672926 -0.70723264
vn 0.87946522 -0.47596315 1.5060120e-15
vn 0.47984149 -0.73450956 0.47984149
vn -7.7469595e-16 -0.73450956 0.67859834
vn -0.62187582 -0.47596315 0.62187582
vn -0.87946522 -0.47596315 0.0000000e+0
vn -0.47984149 -0.73450956 -0.47984149
vn -2.1609940e-15 -0.73450956 -0.67859834
vn 0.62187582 -0.47596315 -0.62187582
vn 0.91248696 0.40910580 1.1080260e-15
vn 0.64522571 0.40910580 0.64522571
vn -9.1532585e-16 0.40910580 0.91248696
vn -0.64522571 0.40910580 0.64522571
vn -0.91248696 0.40910580 -4.0145870e-16
vn -0.64522571 0.40910580 -0.64522571
vn -3.1153195e-15 0.40910580 -0.91248696
vn 0.64522571 0.40910580 -0.64522571
vn 0.33655677 0.87946522 0.33655677
vn 0.47596315 0.87946522 2.4266350e-16
vn 0.25272473 0.93394883 -0.25272473
vn -1.3362733e-15 0.93394883 -0.35740674
vn -0.33655677 0.87946522 -0.33655677
vn -0.47596315 0.87946522 -5.0554897e-16
vn -0.25272473 0.93394883 0.25272473
vn -2.8851356e-16 0.93394883 0.35740674
vn 0.87460765 -0.48482936 1.3994233e-3
vn 0.51506529 -0.68580285 0.51418110
vn -1.1395432e-16 -0.66615433 0.74581392
vn -0.65823391 -0.36734525 0.65710394
vn -0.87460765 -0.48482936 1.3994233e-3
vn -0.42797695 -0.80081550 -0.41896333
vn -1.7862364e-15 -0.82788031 -0.56090480
vn 0.56295291 -0.61593554 -0.55109657
vn 0.91410413 0.39124238 -0.10650375
vn 0.64659095 0.54975349 0.52885843
vn -1.9493044e-16 0.60979236 0.79256122
vn -0.64659095 0.54975349 0.52885843
vn -0.91410413 0.39124238 -0.10650375
vn -0.64480876 0.20876993 -0.73528007
vn -1.5105257e-15 0.12445061 -0.99222580
vn 0.64480876 0.20876993 -0.73528007
vn 0.33655677 0.93684083 9.5177680e-2
vn 0.47596315 0.84893945 -0.22969738
vn 0.25272473 0.83552570 -0.48788012
vn 7.1657414e-16 0.80818501 -0.58892867
vn -0.33655677 0.76103807 -0.55457245
vn -0.47596315 0.84893945 -0.22969738
vn -0.25272473 0.96753822 2.5462051e-5
vn -1.0629447e-16 0.99487891 0.10107402
vn 0.87460765 -0.48482936 1.3994233e-3
vn 0.51506529 -0.68580285 0.51418110
vn -1.1395432e-16 -0.66615433 0.74581392
vn -0.65823391 -0.36734525 0.65710394
vn -0.87460765 -0.48482936 1.3994233e-3
vn -0.42797695 -0.80081550 -0.41896333
vn -1.8039219e-15 -0.82788031 -0.56090480
vn 0.56295291 -0.61593554 -0.55109657
vn 0.91410413 0.39124238 -0.10650375
vn 0.64659095 0.54975349 0.52885843
vn -1.7868623e-16 0.60979236 0.79256122
vn -0.64659095 0.54975349 0.52885843
vn -0.91410413 0.39124238 -0.10650375
vn -0.64480876 0.20876993 -0.73528007
vn -1.7379166e-15 0.12445061 -0.99222580
vn 0.64480876 0.20876993 -0.73528007
vn 0.33655677 0.93684083 9.5177680e-2
vn 0.47596315 0.84893945 -0.22969738
vn 0.25272473 0.83552570 -0.48788012
vn 5.1917013e-16 0.80818501 -0.58892867
vn -0.33655677 0.76103807 -0.55457245
vn -0.47596315 0.84893945 -0.22969738
vn -0.25272473 0.96753822 2.5462051e-5
vn -9.1109546e-17 0.99487891 0.10107402
vn 0.87946522 -0.47596315 1.5060120e-15
vn 0.47984149 -0.73450956 0.47984149
vn -5.7082859e-16 -0.73450956 0.67859834
vn -0.62187582 -0.47596315 0.62187582
vn -0.87946522 -0.47596315 0.0000000e+0
vn -0.47984149 -0.73450956 -0.47984149
vn -2.0590603e-15 -0.73450956 -0.67859834
vn 0.62187582 -0.47596315 -0.62187582
vn 0.91248696 0.40910580 1.0919677e-15
vn 0.64522571 0.40910580 0.64522571
vn -8.6715080e-16 0.40910580 0.91248696
vn -0.64522571 0.40910580 0.64522571
vn -0.91248696 0.40910580 -4.0145870e-16
vn -0.64522571 0.40910580 -0.64522571
vn -3.1634946e-15 0.40910580 -0.91248696
vn 0.64522571 0.40910580 -0.64522571
vn 0.33655677 0.87946522 0.33655677
vn 0.47596315 0.87946522 2.2244155e-16
vn 0.25272473 0.93394883 -0.25272473
vn -1.4577527e-15 0.93394883 -0.35740674
vn -0.33655677 0.87946522 -0.33655677
vn -0.47596315 0.87946522 -5.0554897e-16
vn -0.25272473 0.93394883 0.25272473
vn -3.9480803e-16 0.93394883 0.35740674
vn 0.0000000e+0 0.0000000e+0 1.00000000
vn -1.00000000 0.0000000e+0 0.0000000e+0
vn 0.0000000e+0 -1.00000000 0.0000000e+0
vn 2.0442864e-16 -1.00000000 0.0000000e+0
vn -1.00000000 0.0000000e+0 0.0000000e+0
vn 0.0000000e+0 0.0000000e+0 1.00000000
vn 1.00000000 0.0000000e+0 0.0000000e+0
vn 0.0000000e+0 -1.00000000 0.0000000e+0
vn -2.0442864e-16 -1.00000000 0.0000000e+0
vn 1.00000000 0.0000000e+0 0.0000000e+0
vn 0.0000000e+0 0.0000000e+0 -1.00000000
vn 2.0442864e-16 -1.00000000 0.0000000e+0
vn 0.0000000e+0 -1.00000000 0.0000000e+0
vn -1.00000000 0.0000000e+0 0.0000000e+0
vn 0.0000000e+0 0.0000000e+0 -1.00000000
vn 9.7667491e-2 0.99041513 9.7667491e-2
vn 9.7667491e-2 0.99041513 9.7667491e-2
vn -1.00000000 0.0000000e+0 0.0000000e+0
vn 1.00000000 0.0000000e+0 0.0000000e+0
vn 0.0000000e+0 0.0000000e+0 -1.00000000
vn -9.7667491e-2 0.99041513 9.7667491e-2
vn -9.7667491e-2 0.99041513 9.7667491e-2
vn 1.00000000 0.0000000e+0 0.0000000e+0
vn 0.0000000e+0 0.0000000e+0 -1.00000000
vn 0.0000000e+0 -1.00000000 0.0000000e+0
vn -2.0442864e-16 -1.00000000 0.0000000e+0
vn 1.2940696e-18 0.38268343 0.92387953
vn -1.00000000 0.0000000e+0 0.0000000e+0
vn 1.2940696e-18 0.38268343 0.92387953
vn -1.00000000 0.0000000e+0 0.0000000e+0
vn 7.1004514e-2 0.97950877 0.18846995
vn 7.1004514e-2 0.97950877 0.18846995
vn 7.1004514e-2 0.97950877 0.18846995
vn -1.00000000 0.0000000e+0 0.0000000e+0
vn 1.2940696e-18 0.38268343 0.92387953
vn 1.2940696e-18 0.38268343 0.92387953
vn 1.00000000 0.0000000e+0 0.0000000e+0
vn 1.00000000 0.0000000e+0 0.0000000e+0
vn -7.1004514e-2 0.97950877 0.18846995
vn -7.1004514e-2 0.97950877 0.18846995
vn -7.1004514e-2 0.97950877 0.18846995
vn 1.00000000 0.0000000e+0 0.0000000e+0
vn 0.0000000e+0 -1.00000000 0.0000000e+0
vn -2.0442864e-16 -1.00000000 0.0000000e+0
vn 0.0000000e+0 0.0000000e+0 -1.00000000
vn -1.00000000 0.0000000e+0 0.0000000e+0
vn 0.0000000e+0 -1.00000000 0.0000000e+0
vn 2.0442864e-16 -1.00000000 0.0000000e+0
vn 0.0000000e+0 0.0000000e+0 -1.00000000
vn 1.00000000 0.0000000e+0 0.0000000e+0
vn 2.0442864e-16 -1.00000000 0.0000000e+0
vn 0.0000000e+0 -1.00000000 0.0000000e+0
vn 1.00000000 0.0000000e+0 0.0000000e+0
vn 0.0000000e+0 0.0000000e+0 1.00000000
vn 0.0000000e+0 -1.00000000 0.0000000e+0
vn -2.0442864e-16 -1.00000000 0.0000000e+0
vn 0.0000000e+0 0.0000000e+0 1.00000000
vn -1.00000000 0.0000000e+0 0.0000000e+0
vn 0.0000000e+0 -1.00000000 0.0000000e+0
vn 0.0000000e+0 0.0000000e+0 -1.00000000
vn -1.00000000 0.0000000e+0 0.0000000e+0
vn 0.0000000e+0 -1.00000000 0.0000000e+0
vn 0.0000000e+0 0.0000000e+0 -1.00000000
vn 1.00000000 0.0000000e+0 0.0000000e+0
vn 0.0000000e+0 -1.00000000 0.0000000e+0
vn 1.00000000 0.0000000e+0 0.0000000e+0
vn 0.0000000e+0 0.0000000e+0 1.00000000
vn 0.0000000e+0 -1.00000000 0.0000000e+0
vn 0.0000000e+0 0.0000000e+0 1.00000000
vn -1.00000000 0.0000000e+0 0.0000000e+0
vn -0.91665248 0.17708981 0.35831193
vn -0.91665248 0.17708981 0.35831193
vn 0.39967573 0.40614456 0.82176998
vn 0.39967573 0.40614456 0.82176998
vn -0.39964878 -0.40614783 -0.82178147
vn -0.39964878 -0.40614783 -0.82178147
vn 0.91667246 -0.17706757 -0.35827179
vn 0.91667246 -0.17706757 -0.35827179
vn -0.39967690 0.40614434 0.82176953
vn -0.39967690 0.40614434 0.82176953
vn 0.91665229 0.17709000 0.35831231
vn 0.91665229 0.17709000 0.35831231
vn -0.91667173 -0.17706836 -0.35827327
vn -0.91667173 -0.17706836 -0.35827327
vn 0.39964972 -0.40614770 -0.82178108
vn 0.39964972 -0.40614770 -0.82178108
vn -0.57202548 -0.11072031 0.81272865
vn -0.57202548 -0.11072031 0.81272865
vn -0.57202548 -0.11072031 0.81272865
vn -0.57202548 -0.11072031 0.81272865
vn 0.82024856 -7.7965831e-2 0.56666888
vn 0.82024856 -7.7965831e-2 0.56666888
vn 0.82024856 -7.7965831e-2 0.56666888
vn 0.82024856 -7.7965831e-2 0.56666888
vn -0.82023744 7.2540918e-2 -0.56740494
vn -0.82023744 7.2540918e-2 -0.56740494
vn -0.82023744 7.2540918e-2 -0.56740494
vn -0.82023744 7.2540918e-2 -0.56740494
vn 0.57200953 0.10510241 -0.81348545
vn 0.57200953 0.10510241 -0.81348545
vn 0.57200953 0.10510241 -0.81348545
vn 0.57200953 0.10510241 -0.81348545
vn -0.82024856 -7.7965831e-2 0.56666888
vn -0.82024856 -7.7965831e-2 0.56666888
vn -0.82024856 -7.7965831e-2 0.56666888
vn -0.82024856 -7.7965831e-2 0.56666888
vn 0.57202548 -0.11072031 0.81272865
vn 0.57202548 -0.11072031 0.81272865
vn 0.57202548 -0.11072031 0.81272865
vn 0.57202548 -0.11072031 0.81272865
vn -0.57200953 0.10510241 -0.81348545
vn -0.57200953 0.10510241 -0.81348545
vn -0.57200953 0.10510241 -0.81348545
vn -0.57200953 0.10510241 -0.81348545
vn 0.82023744 7.2540918e-2 -0.56740494
vn 0.82023744 7.2540918e-2 -0.56740494
vn 0.82023744 7.2540918e-2 -0.56740494
vn 0.82023744 7.2540918e-2 -0.56740494
vn -3.7716206e-2 -0.70610020 0.70710678
vn -3.7716206e-2 -0.70610020 0.70710678
vn -1.00000000 0.0000000e+0 0.0000000e+0
vn 3.7716206e-2 0.70610020 0.70710678
vn 3.7716206e-2 0.70610020 0.70710678
vn -1.00000000 0.0000000e+0 0.0000000e+0
vn 1.00000000 0.0000000e+0 0.0000000e+0
vn -3.7716206e-2 0.70610020 0.70710678
vn -3.7716206e-2 0.70610020 0.70710678
vn 1.00000000 0.0000000e+0 0.0000000e+0
vn 3.7716206e-2 -0.70610020 0.70710678
vn 3.7716206e-2 -0.70610020 0.70710678
vn -3.7716206e-2 -0.70610020 -0.70710678
vn -3.7716206e-2 -0.70610020 -0.70710678
vn -1.00000000 0.0000000e+0 0.0000000e+0
vn 3.7716206e-2 0.70610020 -0.70710678
vn 3.7716206e-2 0.70610020 -0.70710678
vn -1.00000000 0.0000000e+0 0.0000000e+0
vn 1.00000000 0.0000000e+0 0.0000000e+0
vn -3.7716206e-2 0.70610020 -0.70710678
vn -3.7716206e-2 0.70610020 -0.70710678
vn 1.00000000 0.0000000e+0 0.0000000e+0
vn 3.7716206e-2 -0.70610020 -0.70710678
vn 3.7716206e-2 -0.70610020 -0.70710678
vn -4.9691620e-18 -0.58013445 0.81452073
vn -4.9691620e-18 -0.58013445 0.81452073
vn -1.00000000 0.0000000e+0 -1.4544840e-15
vn -4.9691620e-18 0.81452073 0.58013445
vn -4.9691620e-18 0.81452073 0.58013445
vn -1.00000000 0.0000000e+0 -1.4544840e-15
vn -4.9691620e-18 0.81452073 0.58013445
vn 1.00000000 0.0000000e+0 0.0000000e+0
vn -4.9691620e-18 0.81452073 0.58013445
vn -4.9691620e-18 -0.58013445 0.81452073
vn 1.00000000 0.0000000e+0 0.0000000e+0
vn -4.9691620e-18 -0.58013445 0.81452073
vn 0.0000000e+0 -0.81452073 -0.58013445
vn 0.0000000e+0 -0.81452073 -0.58013445
vn -1.00000000 0.0000000e+0 -1.4544840e-15
vn 0.0000000e+0 0.58013445 -0.81452073
vn 0.0000000e+0 0.58013445 -0.81452073
vn -1.00000000 0.0000000e+0 -1.4544840e-15
vn 1.00000000 0.0000000e+0 0.0000000e+0
vn 0.0000000e+0 0.58013445 -0.81452073
vn 0.0000000e+0 0.58013445 -0.81452073
vn 1.00000000 0.0000000e+0 0.0000000e+0
vn 0.0000000e+0 -0.81452073 -0.58013445
vn 0.0000000e+0 -0.81452073 -0.58013445
vn 1.4655981e-2 -0.98755119 0.15661368
vn 1.4655981e-2 -0.98755119 0.15661368
vn -1.00000000 0.0000000e+0 3.5258542e-17
vn 1.4655981e-2 -0.98755119 0.15661368
vn 1.4655981e-2 -0.98755119 0.15661368
vn 1.00000000 0.0000000e+0 0.0000000e+0
vn 2.5650307e-3 -0.99745227 7.1290824e-2
vn 2.5650307e-3 -0.99745227 7.1290824e-2
vn -1.00000000 0.0000000e+0 -6.8214622e-17
vn -1.00000000 0.0000000e+0 -6.8214622e-17
vn -1.00000000 0.0000000e+0 -6.8214622e-17
vn 2.5650307e-3 -0.99745227 7.1290824e-2
vn 2.5650307e-3 -0.99745227 7.1290824e-2
vn 1.00000000 0.0000000e+0 0.0000000e+0
vn 1.00000000 0.0000000e+0 0.0000000e+0
vn 1.00000000 0.0000000e+0 0.0000000e+0
vn -1.00000000 0.0000000e+0 -1.1995120e-16
vn -1.8732132e-2 -0.97984396 0.19888420
vn -1.8732132e-2 -0.97984396 0.19888420
vn -1.00000000 0.0000000e+0 -1.1995120e-16
vn -6.2252632e-3 -0.47873864 0.87793540
vn -1.00000000 0.0000000e+0 0.0000000e+0
vn -6.2252632e-3 -0.47873864 0.87793540
vn 0.0000000e+0 0.38268343 0.92387953
vn -1.00000000 0.0000000e+0 -1.1995120e-16
vn 0.0000000e+0 0.38268343 0.92387953
vn -1.00000000 0.0000000e+0 -1.1995120e-16
vn 0.0000000e+0 0.92387953 0.38268343
vn 0.0000000e+0 0.92387953 0.38268343
vn -1.00000000 0.0000000e+0 -1.1995120e-16
vn -1.00000000 0.0000000e+0 -1.1995120e-16
vn 0.0000000e+0 0.38268343 0.92387953
vn 1.00000000 0.0000000e+0 0.0000000e+0
vn 0.0000000e+0 0.38268343 0.92387953
vn 1.00000000 0.0000000e+0 0.0000000e+0
vn 0.0000000e+0 0.92387953 0.38268343
vn 0.0000000e+0 0.92387953 0.38268343
vn 1.00000000 0.0000000e+0 0.0000000e+0
vn 1.00000000 0.0000000e+0 0.0000000e+0
vn -6.2252632e-3 -0.47873864 0.87793540
vn 1.00000000 0.0000000e+0 0.0000000e+0
vn -6.2252632e-3 -0.47873864 0.87793540
vn 1.00000000 0.0000000e+0 0.0000000e+0
vn -1.8732132e-2 -0.97984396 0.19888420
vn -1.8732132e-2 -0.97984396 0.19888420
vn 1.00000000 0.0000000e+0 0.0000000e+0
vn -2.1349640e-17 1.00000000 0.0000000e+0
vn 0.96753822 0.0000000e+0 -0.25272473
vn -2.1349640e-17 1.00000000 0.0000000e+0
vn 0.96753822 0.0000000e+0 -0.25272473
vn 0.96753822 0.0000000e+0 -0.25272473
vn -2.1349640e-17 1.00000000 0.0000000e+0
vn 0.38268343 0.0000000e+0 -0.92387953
vn 0.38268343 0.0000000e+0 -0.92387953
vn -2.1349640e-17 1.00000000 0.0000000e+0
vn -2.3401487e-16 -1.00000000 0.0000000e+0
vn 0.92387953 0.0000000e+0 -0.38268343
vn -2.3401487e-16 -1.00000000 0.0000000e+0
vn 0.92387953 0.0000000e+0 -0.38268343
vn 0.38268343 0.0000000e+0 -0.92387953
vn -8.5398561e-17 -1.00000000 0.0000000e+0
vn 0.38268343 0.0000000e+0 -0.92387953
vn -8.5398561e-17 -1.00000000 0.0000000e+0
vn -2.3401487e-16 -1.00000000 0.0000000e+0
vn -0.92387953 1.0374020e-16 0.38268343
vn -2.3401487e-16 -1.00000000 0.0000000e+0
vn -0.92387953 1.0374020e-16 0.38268343
vn -0.38268343 1.0374020e-16 0.92387953
vn -8.5398561e-17 -1.00000000 0.0000000e+0
vn -0.38268343 1.0374020e-16 0.92387953
vn -8.5398561e-17 -1.00000000 0.0000000e+0
vn -2.1349640e-17 1.00000000 0.0000000e+0
vn -0.96753822 6.8510186e-17 0.25272473
vn -2.1349640e-17 1.00000000 0.0000000e+0
vn -0.96753822 6.8510186e-17 0.25272473
vn -0.96753822 6.8510186e-17 0.25272473
vn -2.1349640e-17 1.00000000 0.0000000e+0
vn -0.38268343 1.0374020e-16 0.92387953
vn -0.38268343 1.0374020e-16 0.92387953
vn -2.1349640e-17 1.00000000 0.0000000e+0
vn -1.4655981e-2 -0.98755119 0.15661368
vn 1.00000000 0.0000000e+0 0.0000000e+0
vn -1.4655981e-2 -0.98755119 0.15661368
vn -1.4655981e-2 -0.98755119 0.15661368
vn -1.4655981e-2 -0.98755119 0.15661368
vn -1.00000000 0.0000000e+0 3.4385979e-17
vn -2.5650307e-3 -0.99745227 7.1290824e-2
vn 1.00000000 0.0000000e+0 0.0000000e+0
vn -2.5650307e-3 -0.99745227 7.1290824e-2
vn 1.00000000 0.0000000e+0 0.0000000e+0
vn 1.00000000 0.0000000e+0 0.0000000e+0
vn -1.00000000 0.0000000e+0 1.1461993e-17
vn -2.5650307e-3 -0.99745227 7.1290824e-2
vn -2.5650307e-3 -0.99745227 7.1290824e-2
vn -1.00000000 0.0000000e+0 1.1461993e-17
vn -1.00000000 0.0000000e+0 1.1461993e-17
vn 1.8732132e-2 -0.97984396 0.19888420
vn 1.8732132e-2 -0.97984396 0.19888420
vn 1.00000000 0.0000000e+0 0.0000000e+0
vn 1.00000000 0.0000000e+0 0.0000000e+0
vn 6.2252632e-3 -0.47873864 0.87793540
vn 6.2252632e-3 -0.47873864 0.87793540
vn 1.00000000 0.0000000e+0 0.0000000e+0
vn -1.5674591e-17 0.38268343 0.92387953
vn -1.5674591e-17 0.38268343 0.92387953
vn 1.00000000 0.0000000e+0 0.0000000e+0
vn 1.00000000 0.0000000e+0 0.0000000e+0
vn -1.5674591e-17 0.92387953 0.38268343
vn -1.5674591e-17 0.92387953 0.38268343
vn 1.00000000 0.0000000e+0 0.0000000e+0
vn 1.00000000 0.0000000e+0 0.0000000e+0
vn -1.5674591e-17 0.38268343 0.92387953
vn -1.00000000 0.0000000e+0 0.0000000e+0
vn -1.5674591e-17 0.38268343 0.92387953
vn -1.00000000 0.0000000e+0 0.0000000e+0
vn -1.00000000 0.0000000e+0 0.0000000e+0
vn -1.5674591e-17 0.92387953 0.38268343
vn -1.5674591e-17 0.92387953 0.38268343
vn -1.00000000 0.0000000e+0 0.0000000e+0
vn 6.2252632e-3 -0.47873864 0.87793540
vn 6.2252632e-3 -0.47873864 0.87793540
vn -1.00000000 0.0000000e+0 0.0000000e+0
vn -1.00000000 0.0000000e+0 0.0000000e+0
vn 1.8732132e-2 -0.97984396 0.19888420
vn 1.8732132e-2 -0.97984396 0.19888420
vn -1.00000000 0.0000000e+0 0.0000000e+0
vn 4.2699280e-17 1.00000000 0.0000000e+0
vn -0.96753822 0.0000000e+0 -0.25272473
vn 4.2699280e-17 1.00000000 0.0000000e+0
vn -0.96753822 0.0000000e+0 -0.25272473
vn -0.96753822 0.0000000e+0 -0.25272473
vn -0.38268343 0.0000000e+0 -0.92387953
vn 4.2699280e-17 1.00000000 0.0000000e+0
vn -0.38268343 0.0000000e+0 -0.92387953
vn 4.2699280e-17 1.00000000 0.0000000e+0
vn 1.9131559e-16 -1.00000000 0.0000000e+0
vn -0.92387953 0.0000000e+0 -0.38268343
vn 1.9131559e-16 -1.00000000 0.0000000e+0
vn -0.92387953 0.0000000e+0 -0.38268343
vn -0.38268343 0.0000000e+0 -0.92387953
vn -0.38268343 0.0000000e+0 -0.92387953
vn 4.2699280e-17 -1.00000000 0.0000000e+0
vn 4.2699280e-17 -1.00000000 0.0000000e+0
vn 0.92387953 1.0374020e-16 0.38268343
vn 1.9131559e-16 -1.00000000 0.0000000e+0
vn 0.92387953 1.0374020e-16 0.38268343
vn 1.9131559e-16 -1.00000000 0.0000000e+0
vn 0.38268343 1.0374020e-16 0.92387953
vn 0.38268343 1.0374020e-16 0.92387953
vn 4.2699280e-17 -1.00000000 0.0000000e+0
vn 4.2699280e-17 -1.00000000 0.0000000e+0
vn 0.96753822 6.8510186e-17 0.25272473
vn 4.2699280e-17 1.00000000 0.0000000e+0
vn 0.96753822 6.8510186e-17 0.25272473
vn 4.2699280e-17 1.00000000 0.0000000e+0
vn 0.96753822 6.8510186e-17 0.25272473
vn 0.38268343 1.0374020e-16 0.92387953
vn 4.2699280e-17 1.00000000 0.0000000e+0
vn 0.38268343 1.0374020e-16 0.92387953
vn 4.2699280e-17 1.00000000 0.0000000e+0
vn 5.6838399e-3 -0.92903197 0.36995579
vn 5.6838399e-3 -0.92903197 0.36995579
vn -1.00000000 0.0000000e+0 0.0000000e+0
vn -1.00000000 0.0000000e+0 0.0000000e+0
vn 1.00000000 0.0000000e+0 -5.1633871e-16
vn 5.6838399e-3 -0.92903197 0.36995579
vn 5.6838399e-3 -0.92903197 0.36995579
vn 1.00000000 0.0000000e+0 -5.1633871e-16
vn 2.5650307e-3 -0.92301830 0.38474751
vn 2.5650307e-3 -0.92301830 0.38474751
vn -1.00000000 -1.0832712e-15 0.0000000e+0
vn -1.00000000 -1.0832712e-15 0.0000000e+0
vn -1.00000000 -1.0832712e-15 0.0000000e+0
vn 2.5650307e-3 -0.92301830 0.38474751
vn 2.5650307e-3 -0.92301830 0.38474751
vn 1.00000000 0.0000000e+0 7.6272971e-17
vn 1.00000000 0.0000000e+0 7.6272971e-17
vn 1.00000000 0.0000000e+0 7.6272971e-17
vn -1.00000000 0.0000000e+0 0.0000000e+0
vn -1.8732132e-2 -0.86575338 0.50012017
vn -1.8732132e-2 -0.86575338 0.50012017
vn -1.00000000 0.0000000e+0 0.0000000e+0
vn -6.2252632e-3 -0.17473886 0.98459513
vn -1.00000000 0.0000000e+0 0.0000000e+0
vn -6.2252632e-3 -0.17473886 0.98459513
vn -3.0588566e-16 0.65658576 0.75425138
vn -1.00000000 0.0000000e+0 0.0000000e+0
vn -3.0588566e-16 0.65658576 0.75425138
vn -1.00000000 0.0000000e+0 0.0000000e+0
vn 2.0307068e-4 0.99695766 7.7944753e-2
vn 2.0307068e-4 0.99695766 7.7944753e-2
vn -1.00000000 -1.6249069e-15 0.0000000e+0
vn -1.00000000 -1.6249069e-15 0.0000000e+0
vn -3.0588566e-16 0.65658576 0.75425138
vn -3.0588566e-16 0.65658576 0.75425138
vn 1.00000000 -1.7611733e-15 0.0000000e+0
vn 1.00000000 -1.7611733e-15 0.0000000e+0
vn 2.0307068e-4 0.99695766 7.7944753e-2
vn 2.0307068e-4 0.99695766 7.7944753e-2
vn 1.00000000 0.0000000e+0 0.0000000e+0
vn 1.00000000 0.0000000e+0 0.0000000e+0
vn -6.2252632e-3 -0.17473886 0.98459513
vn -6.2252632e-3 -0.17473886 0.98459513
vn 1.00000000 -3.5223465e-15 0.0000000e+0
vn -1.8732132e-2 -0.86575338 0.50012017
vn -1.8732132e-2 -0.86575338 0.50012017
vn 1.00000000 -1.7611733e-15 0.0000000e+0
vn 1.00000000 -1.7611733e-15 0.0000000e+0
vn 1.00000000 0.0000000e+0 -5.1633871e-16
vn -3.9025147e-2 6.9099534e-2 -0.99684617
vn -3.9025147e-2 6.9099534e-2 -0.99684617
vn 1.00000000 0.0000000e+0 -5.1633871e-16
vn -1.6027948e-2 0.76003476 -0.64968475
vn -1.6027948e-2 0.76003476 -0.64968475
vn 1.00000000 0.0000000e+0 1.1440946e-16
vn 1.00000000 0.0000000e+0 1.1440946e-16
vn 1.00000000 0.0000000e+0 -1.2614963e-15
vn -3.9025147e-2 -0.65615523 -0.75361618
vn -3.9025147e-2 -0.65615523 -0.75361618
vn 1.00000000 0.0000000e+0 -1.2614963e-15
vn -2.4968805e-2 -0.98511370 -0.17008102
vn -2.4968805e-2 -0.98511370 -0.17008102
vn -2.4968805e-2 -0.98511370 -0.17008102
vn -2.4968805e-2 -0.98511370 -0.17008102
vn -1.00000000 0.0000000e+0 0.0000000e+0
vn -3.9025147e-2 -0.65615523 -0.75361618
vn -3.9025147e-2 -0.65615523 -0.75361618
vn -1.00000000 0.0000000e+0 0.0000000e+0
vn -3.9025147e-2 6.9099534e-2 -0.99684617
vn -3.9025147e-2 6.9099534e-2 -0.99684617
vn -1.00000000 0.0000000e+0 0.0000000e+0
vn -1.00000000 0.0000000e+0 0.0000000e+0
vn -1.6027948e-2 0.76003476 -0.64968475
vn -1.6027948e-2 0.76003476 -0.64968475
vn -1.00000000 -1.6249069e-15 0.0000000e+0
vn -1.00000000 -1.6249069e-15 0.0000000e+0
vn 7.9994968e-16 -0.89648643 0.44307119
vn -0.38272570 0.40982709 0.82798719
vn -0.38272570 0.40982709 0.82798719
vn 7.9994968e-16 -0.89648643 0.44307119
vn 1.5998994e-15 -0.89648643 0.44307119
vn -0.92389465 0.17070201 0.34246095
vn -0.92389465 0.17070201 0.34246095
vn 0.38270784 0.40887885 0.82846412
vn 0.38270784 0.40887885 0.82846412
vn -3.9997484e-16 -0.89648643 0.44307119
vn -3.9997484e-16 -0.89648643 0.44307119
vn 0.92389057 0.16841572 0.34360204
vn 0.92389057 0.16841572 0.34360204
vn -7.9994968e-16 -0.89648643 0.44307119
vn 1.5998994e-15 -0.89648643 0.44307119
vn -0.92387758 -0.16841280 -0.34363838
vn -0.92387758 -0.16841280 -0.34363838
vn 7.9994968e-16 -0.89648643 0.44307119
vn -0.38267247 -0.40887833 -0.82848071
vn -0.38267247 -0.40887833 -0.82848071
vn 7.9994968e-16 -0.89648643 0.44307119
vn 0.38275253 -0.40978377 -0.82799623
vn 0.38275253 -0.40978377 -0.82799623
vn -3.9997484e-16 -0.89648643 0.44307119
vn -3.9997484e-16 -0.89648643 0.44307119
vn 0.92390413 -0.17064377 -0.34246438
vn 0.92390413 -0.17064377 -0.34246438
vn -7.9994968e-16 -0.89648643 0.44307119
vn 0.92389057 0.16841572 0.34360204
vn 0.92389057 0.16841572 0.34360204
vn -5.3809311e-3 0.89648328 -0.44304489
vn -0.38272570 0.40982709 0.82798719
vn -0.38272570 0.40982709 0.82798719
vn -6.1916390e-3 0.89647620 -0.44304862
vn -6.1916390e-3 0.89647620 -0.44304862
vn -0.92387758 -0.16841280 -0.34363838
vn -0.92387758 -0.16841280 -0.34363838
vn -4.1075949e-3 0.89649947 -0.44302576
vn 0.38275253 -0.40978377 -0.82799623
vn 0.38275253 -0.40978377 -0.82799623
vn -6.8283008e-3 0.89646710 -0.44305769
vn -6.8283008e-3 0.89646710 -0.44305769
vn -0.92389465 0.17070201 0.34246095
vn -0.92389465 0.17070201 0.34246095
vn -4.1075949e-3 0.89649947 -0.44302576
vn 0.38270784 0.40887885 0.82846412
vn 0.38270784 0.40887885 0.82846412
vn -6.8283008e-3 0.89646710 -0.44305769
vn -6.8283008e-3 0.89646710 -0.44305769
vn -0.38267247 -0.40887833 -0.82848071
vn -0.38267247 -0.40887833 -0.82848071
vn -6.1916390e-3 0.89647620 -0.44304862
vn -6.1916390e-3 0.89647620 -0.44304862
vn 0.92390413 -0.17064377 -0.34246438
vn 0.92390413 -0.17064377 -0.34246438
vn -5.3809311e-3 0.89648328 -0.44304489
vn 0.0000000e+0 -0.97381750 0.22733122
vn 0.0000000e+0 -0.97381750 0.22733122
vn 0.0000000e+0 0.22733122 0.97381750
vn 0.0000000e+0 0.22733122 0.97381750
vn 0.0000000e+0 0.22733122 0.97381750
vn 1.00000000 0.0000000e+0 0.0000000e+0
vn 0.0000000e+0 0.22733122 0.97381750
vn 0.0000000e+0 -0.97381750 0.22733122
vn 1.00000000 0.0000000e+0 0.0000000e+0
vn 0.0000000e+0 -0.97381750 0.22733122
vn -1.1143549e-17 -0.22733122 -0.97381750
vn -1.1143549e-17 -0.22733122 -0.97381750
vn -1.1143549e-17 0.97381750 -0.22733122
vn -1.1143549e-17 0.97381750 -0.22733122
vn 1.00000000 0.0000000e+0 0.0000000e+0
vn -1.1143549e-17 0.97381750 -0.22733122
vn -1.1143549e-17 0.97381750 -0.22733122
vn 1.00000000 0.0000000e+0 0.0000000e+0
vn -1.1143549e-17 -0.22733122 -0.97381750
vn -1.1143549e-17 -0.22733122 -0.97381750
vn 0.0000000e+0 -0.58013445 0.81452073
vn 0.0000000e+0 -0.58013445 0.81452073
vn -1.00000000 0.0000000e+0 1.4544840e-15
vn 0.0000000e+0 0.81452073 0.58013445
vn 0.0000000e+0 0.81452073 0.58013445
vn -1.00000000 0.0000000e+0 1.4544840e-15
vn 0.0000000e+0 0.81452073 0.58013445
vn 1.00000000 0.0000000e+0 0.0000000e+0
vn 0.0000000e+0 0.81452073 0.58013445
vn 0.0000000e+0 -0.58013445 0.81452073
vn 1.00000000 0.0000000e+0 0.0000000e+0
vn 0.0000000e+0 -0.58013445 0.81452073
vn -9.5656508e-18 -0.81452073 -0.58013445
vn -9.5656508e-18 -0.81452073 -0.58013445
vn -1.00000000 0.0000000e+0 1.4544840e-15
vn -9.5656508e-18 0.58013445 -0.81452073
vn -9.5656508e-18 0.58013445 -0.81452073
vn -1.00000000 0.0000000e+0 1.4544840e-15
vn 1.00000000 0.0000000e+0 0.0000000e+0
vn -9.5656508e-18 0.58013445 -0.81452073
vn -9.5656508e-18 0.58013445 -0.81452073
vn 1.00000000 0.0000000e+0 0.0000000e+0
vn -9.5656508e-18 -0.81452073 -0.58013445
vn -9.5656508e-18 -0.81452073 -0.58013445
vn -9.5656508e-18 -0.94909614 0.31498652
vn -9.5656508e-18 -0.94909614 0.31498652
vn -9.5656508e-18 0.31498652 0.94909614
vn -9.5656508e-18 0.31498652 0.94909614
vn -9.5656508e-18 0.31498652 0.94909614
vn 1.00000000 0.0000000e+0 -7.2724199e-16
vn -9.5656508e-18 0.31498652 0.94909614
vn -9.5656508e-18 -0.94909614 0.31498652
vn 1.00000000 0.0000000e+0 -7.2724199e-16
vn -9.5656508e-18 -0.94909614 0.31498652
vn 3.5871190e-18 -0.31498652 -0.94909614
vn 3.5871190e-18 -0.31498652 -0.94909614
vn 3.5871190e-18 0.94909614 -0.31498652
vn 3.5871190e-18 0.94909614 -0.31498652
vn 1.00000000 0.0000000e+0 -7.2724199e-16
vn 3.5871190e-18 0.94909614 -0.31498652
vn 3.5871190e-18 0.94909614 -0.31498652
vn 1.00000000 0.0000000e+0 -7.2724199e-16
vn 3.5871190e-18 -0.31498652 -0.94909614
vn 3.5871190e-18 -0.31498652 -0.94909614
vn -5.3775847e-17 -0.13885366 0.99031291
vn 0.0000000e+0 -0.99171606 -0.12844943
vn -1.00000000 0.0000000e+0 0.0000000e+0
vn 0.0000000e+0 0.99171606 0.12844943
vn 0.0000000e+0 0.94801516 -0.31822517
vn -1.00000000 0.0000000e+0 0.0000000e+0
vn -1.00000000 0.0000000e+0 0.0000000e+0
vn 1.00000000 0.0000000e+0 -6.8971687e-16
vn 0.0000000e+0 0.99171606 0.12844943
vn 1.00000000 0.0000000e+0 0.0000000e+0
vn 0.0000000e+0 0.94801516 -0.31822517
vn -5.3775847e-17 -0.13885366 0.99031291
vn 0.0000000e+0 -0.99171606 -0.12844943
vn 1.00000000 0.0000000e+0 0.0000000e+0
vn 0.0000000e+0 -0.99171606 -0.12844943
vn 0.0000000e+0 0.12844943 -0.99171606
vn -1.00000000 0.0000000e+0 0.0000000e+0
vn -1.00000000 0.0000000e+0 0.0000000e+0
vn 0.0000000e+0 0.99171606 0.12844943
vn 0.0000000e+0 0.12844943 -0.99171606
vn -1.00000000 0.0000000e+0 0.0000000e+0
vn 1.00000000 0.0000000e+0 -6.8971687e-16
vn 0.0000000e+0 0.99171606 0.12844943
vn 0.0000000e+0 0.12844943 -0.99171606
vn 1.00000000 0.0000000e+0 -3.4485843e-16
vn 0.0000000e+0 -0.99171606 -0.12844943
vn 0.0000000e+0 0.12844943 -0.99171606
vn 1.00000000 0.0000000e+0 -3.4485843e-16
vn -5.3775847e-17 -0.13885366 0.99031291
vn -1.00000000 0.0000000e+0 0.0000000e+0
vn 0.0000000e+0 -0.97996798 0.19915512
vn -1.00000000 0.0000000e+0 0.0000000e+0
vn -1.00000000 0.0000000e+0 0.0000000e+0
vn -5.3775847e-17 -0.13885366 0.99031291
vn 1.00000000 0.0000000e+0 -3.4485843e-16
vn 0.0000000e+0 -0.97996798 0.19915512
vn 1.00000000 0.0000000e+0 0.0000000e+0
vn 1.00000000 0.0000000e+0 -3.4485843e-16
vn 0.0000000e+0 0.31578012 0.94883240
vn 0.0000000e+0 -0.97996798 0.19915512
vn -1.00000000 0.0000000e+0 0.0000000e+0
vn 0.0000000e+0 0.31578012 0.94883240
vn 0.0000000e+0 -0.97996798 0.19915512
vn 1.00000000 0.0000000e+0 0.0000000e+0
vn 0.0000000e+0 0.31578012 0.94883240
vn 1.00000000 0.0000000e+0 0.0000000e+0
vn 0.0000000e+0 0.94801516 -0.31822517
vn 0.0000000e+0 0.31578012 0.94883240
vn 0.0000000e+0 0.94801516 -0.31822517
vn -1.00000000 0.0000000e+0 0.0000000e+0
vn -5.6838399e-3 -0.92903197 0.36995579
vn 1.00000000 0.0000000e+0 -4.3251199e-16
vn -5.6838399e-3 -0.92903197 0.36995579
vn 1.00000000 0.0000000e+0 -4.3251199e-16
vn -5.6838399e-3 -0.92903197 0.36995579
vn -5.6838399e-3 -0.92903197 0.36995579
vn -1.00000000 0.0000000e+0 -1.2614963e-15
vn -1.00000000 0.0000000e+0 -1.2614963e-15
vn -2.5650307e-3 -0.92301830 0.38474751
vn -2.5650307e-3 -0.92301830 0.38474751
vn 1.00000000 -1.0832712e-15 1.1478214e-16
vn 1.00000000 -1.0832712e-15 1.1478214e-16
vn 1.00000000 -1.0832712e-15 1.1478214e-16
vn -1.00000000 1.0803180e-15 0.0000000e+0
vn -2.5650307e-3 -0.92301830 0.38474751
vn -2.5650307e-3 -0.92301830 0.38474751
vn -1.00000000 1.0803180e-15 0.0000000e+0
vn -1.00000000 1.0803180e-15 0.0000000e+0
vn 1.8732132e-2 -0.86575338 0.50012017
vn 1.8732132e-2 -0.86575338 0.50012017
vn 1.00000000 0.0000000e+0 0.0000000e+0
vn 1.00000000 0.0000000e+0 0.0000000e+0
vn 6.2252632e-3 -0.17473886 0.98459513
vn 6.2252632e-3 -0.17473886 0.98459513
vn 1.00000000 0.0000000e+0 0.0000000e+0
vn 3.1633538e-16 0.65658576 0.75425138
vn 3.1633538e-16 0.65658576 0.75425138
vn 1.00000000 0.0000000e+0 0.0000000e+0
vn 1.00000000 0.0000000e+0 0.0000000e+0
vn -2.0307068e-4 0.99695766 7.7944753e-2
vn -2.0307068e-4 0.99695766 7.7944753e-2
vn 1.00000000 -1.6249069e-15 0.0000000e+0
vn 1.00000000 -1.6249069e-15 0.0000000e+0
vn 3.1633538e-16 0.65658576 0.75425138
vn -1.00000000 0.0000000e+0 0.0000000e+0
vn 3.1633538e-16 0.65658576 0.75425138
vn -1.00000000 0.0000000e+0 0.0000000e+0
vn -1.00000000 1.6204770e-15 0.0000000e+0
vn -2.0307068e-4 0.99695766 7.7944753e-2
vn -2.0307068e-4 0.99695766 7.7944753e-2
vn -1.00000000 1.6204770e-15 0.0000000e+0
vn 6.2252632e-3 -0.17473886 0.98459513
vn 6.2252632e-3 -0.17473886 0.98459513
vn -1.00000000 0.0000000e+0 0.0000000e+0
vn -1.00000000 0.0000000e+0 0.0000000e+0
vn 1.8732132e-2 -0.86575338 0.50012017
vn 1.8732132e-2 -0.86575338 0.50012017
vn -1.00000000 0.0000000e+0 0.0000000e+0
vn 3.9025147e-2 6.9099534e-2 -0.99684617
vn 3.9025147e-2 6.9099534e-2 -0.99684617
vn -1.00000000 0.0000000e+0 -1.2614963e-15
vn -1.00000000 0.0000000e+0 -1.2614963e-15
vn 1.6027948e-2 0.76003476 -0.64968475
vn 1.6027948e-2 0.76003476 -0.64968475
vn -1.00000000 1.6204770e-15 0.0000000e+0
vn -1.00000000 1.6204770e-15 0.0000000e+0
vn 3.9025147e-2 -0.65615523 -0.75361618
vn 3.9025147e-2 -0.65615523 -0.75361618
vn -1.00000000 0.0000000e+0 -2.5229927e-15
vn 2.4968805e-2 -0.98511370 -0.17008102
vn 2.4968805e-2 -0.98511370 -0.17008102
vn -1.00000000 0.0000000e+0 -2.5229927e-15
vn 1.00000000 0.0000000e+0 -1.2093704e-15
vn 2.4968805e-2 -0.98511370 -0.17008102
vn 2.4968805e-2 -0.98511370 -0.17008102
vn 1.00000000 0.0000000e+0 -1.2093704e-15
vn 3.9025147e-2 -0.65615523 -0.75361618
vn 3.9025147e-2 -0.65615523 -0.75361618
vn 1.00000000 0.0000000e+0 -4.3251199e-16
vn 3.9025147e-2 6.9099534e-2 -0.99684617
vn 3.9025147e-2 6.9099534e-2 -0.99684617
vn 1.00000000 0.0000000e+0 -4.3251199e-16
vn 1.6027948e-2 0.76003476 -0.64968475
vn 1.6027948e-2 0.76003476 -0.64968475
vn 1.00000000 -1.6249069e-15 1.7217321e-16
vn 1.00000000 -1.6249069e-15 1.7217321e-16
vn 2.2287098e-17 -0.97381750 0.22733122
vn 2.2287098e-17 -0.97381750 0.22733122
vn 2.2287098e-17 0.22733122 0.97381750
vn 2.2287098e-17 0.22733122 0.97381750
vn 2.2287098e-17 0.22733122 0.97381750
vn -1.00000000 0.0000000e+0 0.0000000e+0
vn 2.2287098e-17 0.22733122 0.97381750
vn 2.2287098e-17 -0.97381750 0.22733122
vn -1.00000000 0.0000000e+0 0.0000000e+0
vn 2.2287098e-17 -0.97381750 0.22733122
vn 0.0000000e+0 -0.22733122 -0.97381750
vn 0.0000000e+0 -0.22733122 -0.97381750
vn 0.0000000e+0 0.97381750 -0.22733122
vn 0.0000000e+0 0.97381750 -0.22733122
vn -1.00000000 0.0000000e+0 0.0000000e+0
vn 0.0000000e+0 0.97381750 -0.22733122
vn 0.0000000e+0 0.97381750 -0.22733122
vn -1.00000000 0.0000000e+0 0.0000000e+0
vn 0.0000000e+0 -0.22733122 -0.97381750
vn 0.0000000e+0 -0.22733122 -0.97381750
vn 0.0000000e+0 -0.58013445 0.81452073
vn 0.0000000e+0 -0.58013445 0.81452073
vn 1.00000000 0.0000000e+0 1.4544840e-15
vn 0.0000000e+0 0.81452073 0.58013445
vn 0.0000000e+0 0.81452073 0.58013445
vn 1.00000000 0.0000000e+0 1.4544840e-15
vn 0.0000000e+0 0.81452073 0.58013445
vn -1.00000000 0.0000000e+0 0.0000000e+0
vn 0.0000000e+0 0.81452073 0.58013445
vn 0.0000000e+0 -0.58013445 0.81452073
vn -1.00000000 0.0000000e+0 0.0000000e+0
vn 0.0000000e+0 -0.58013445 0.81452073
vn 9.5656508e-18 -0.81452073 -0.58013445
vn 9.5656508e-18 -0.81452073 -0.58013445
vn 1.00000000 0.0000000e+0 1.4544840e-15
vn 9.5656508e-18 0.58013445 -0.81452073
vn 9.5656508e-18 0.58013445 -0.81452073
vn 1.00000000 0.0000000e+0 1.4544840e-15
vn -1.00000000 0.0000000e+0 0.0000000e+0
vn 9.5656508e-18 0.58013445 -0.81452073
vn 9.5656508e-18 0.58013445 -0.81452073
vn -1.00000000 0.0000000e+0 0.0000000e+0
vn 9.5656508e-18 -0.81452073 -0.58013445
vn 9.5656508e-18 -0.81452073 -0.58013445
vn -1.9646924e-2 -0.85991824 0.51005355
vn 2.4989843e-7 0.45942673 0.88821567
vn -3.8573461e-7 -0.47955479 -0.87751194
vn -1.9646924e-2 -0.85991824 0.51005355
vn 6.1271228e-3 0.48004148 0.87722439
vn 6.1271228e-3 0.48004148 0.87722439
vn -5.9665876e-3 0.48127929 0.87654700
vn -5.9665876e-3 0.48127929 0.87654700
vn -1.2045542e-2 -0.47787137 -0.87834723
vn -1.2045542e-2 -0.47787137 -0.87834723
vn 1.1674698e-2 -0.48031688 -0.87701733
vn 1.1674698e-2 -0.48031688 -0.87701733
vn 3.7552734e-7 0.46478834 0.88542182
vn 2.1939582e-2 -0.85987842 0.51002721
vn -1.9045046e-3 0.45939632 0.88822936
vn -1.9045046e-3 0.45939632 0.88822936
vn 2.1939582e-2 -0.85987842 0.51002721
vn -4.4803978e-7 -0.47761209 -0.87857083
vn -3.7673179e-4 -0.47866666 -0.87799663
vn -3.7673179e-4 -0.47866666 -0.87799663
vn 1.3015876e-3 0.47137218 0.88193343
vn 1.3015876e-3 0.47137218 0.88193343
vn -4.2471132e-3 0.46496670 0.88531798
vn -4.2471132e-3 0.46496670 0.88531798
vn 5.7792977e-4 0.45799007 0.88895712
vn 5.7792977e-4 0.45799007 0.88895712
vn -1.4108015e-2 -0.46872952 -0.88322907
vn -1.4108015e-2 -0.46872952 -0.88322907
vn -4.0020147e-4 -0.47857420 -0.87804702
vn -4.0020147e-4 -0.47857420 -0.87804702
vn -2.4638682e-3 -0.47502614 -0.87996824
vn -2.4638682e-3 -0.47502614 -0.87996824
vn 3.4685026e-3 0.46292883 0.88638867
vn 3.4685026e-3 0.46292883 0.88638867
vn -5.9367798e-4 0.47185632 0.88167526
vn -5.9367798e-4 0.47185632 0.88167526
vn 2.0043705e-3 -0.47637494 -0.87923996
vn 2.0043705e-3 -0.47637494 -0.87923996
vn 1.4054632e-2 -0.47147036 -0.88176991
vn 1.4054632e-2 -0.47147036 -0.88176991
vn -1.2491369e-3 0.46563782 0.88497450
vn 2.1939582e-2 -0.85987842 0.51002721
vn -1.2491369e-3 0.46563782 0.88497450
vn -1.2491369e-3 0.46563782 0.88497450
vn -1.2491369e-3 0.46563782 0.88497450
vn -1.9646924e-2 -0.85991824 0.51005355
vn 9.3977452e-4 0.46469422 0.88547072
vn 9.3977452e-4 0.46469422 0.88547072
vn 9.3977452e-4 0.46469422 0.88547072
vn 9.3977452e-4 0.46469422 0.88547072
vn 2.1939582e-2 -0.85987842 0.51002721
vn 6.8390265e-3 -0.47508488 -0.87991340
vn 6.8390265e-3 -0.47508488 -0.87991340
vn 6.8390265e-3 -0.47508488 -0.87991340
vn 6.8390265e-3 -0.47508488 -0.87991340
vn -7.2541928e-3 -0.47367046 -0.88067228
vn -1.9646924e-2 -0.85991824 0.51005355
vn -7.2541928e-3 -0.47367046 -0.88067228
vn -7.2541928e-3 -0.47367046 -0.88067228
vn -7.2541928e-3 -0.47367046 -0.88067228
vn 1.0963656e-2 -0.86003346 0.51011983
vn 1.0963656e-2 -0.86003346 0.51011983
vn -5.9665876e-3 0.48127929 0.87654700
vn -5.9665876e-3 0.48127929 0.87654700
vn -9.8307317e-3 -0.86004300 0.51012685
vn -9.8307317e-3 -0.86004300 0.51012685
vn 6.1271228e-3 0.48004148 0.87722439
vn 6.1271228e-3 0.48004148 0.87722439
vn 1.0963656e-2 -0.86003346 0.51011983
vn 1.0963656e-2 -0.86003346 0.51011983
vn 1.1674698e-2 -0.48031688 -0.87701733
vn 1.1674698e-2 -0.48031688 -0.87701733
vn -9.8307317e-3 -0.86004300 0.51012685
vn -9.8307317e-3 -0.86004300 0.51012685
vn -1.2045542e-2 -0.47787137 -0.87834723
vn -1.2045542e-2 -0.47787137 -0.87834723
vn 4.7828254e-18 -0.94909614 0.31498652
vn 4.7828254e-18 -0.94909614 0.31498652
vn 4.7828254e-18 0.31498652 0.94909614
vn 4.7828254e-18 0.31498652 0.94909614
vn 4.7828254e-18 0.31498652 0.94909614
vn -1.00000000 0.0000000e+0 0.0000000e+0
vn 4.7828254e-18 0.31498652 0.94909614
vn 4.7828254e-18 -0.94909614 0.31498652
vn -1.00000000 0.0000000e+0 0.0000000e+0
vn 4.7828254e-18 -0.94909614 0.31498652
vn 0.0000000e+0 -0.31498652 -0.94909614
vn 0.0000000e+0 -0.31498652 -0.94909614
vn 0.0000000e+0 0.94909614 -0.31498652
vn 0.0000000e+0 0.94909614 -0.31498652
vn -1.00000000 0.0000000e+0 0.0000000e+0
vn 0.0000000e+0 0.94909614 -0.31498652
vn 0.0000000e+0 0.94909614 -0.31498652
vn -1.00000000 0.0000000e+0 0.0000000e+0
vn 0.0000000e+0 -0.31498652 -0.94909614
vn 0.0000000e+0 -0.31498652 -0.94909614
vn -5.3775847e-17 -0.13885366 0.99031291
vn 0.0000000e+0 -0.99171606 -0.12844943
vn -1.00000000 3.8356358e-15 0.0000000e+0
vn 0.0000000e+0 0.99171606 0.12844943
vn 0.0000000e+0 0.94801516 -0.31822517
vn -1.00000000 0.0000000e+0 -7.6579508e-16
vn -1.00000000 0.0000000e+0 0.0000000e+0
vn 1.00000000 0.0000000e+0 0.0000000e+0
vn 0.0000000e+0 0.99171606 0.12844943
vn 1.00000000 0.0000000e+0 0.0000000e+0
vn 0.0000000e+0 0.94801516 -0.31822517
vn -5.3775847e-17 -0.13885366 0.99031291
vn 0.0000000e+0 -0.99171606 -0.12844943
vn 1.00000000 0.0000000e+0 0.0000000e+0
vn 0.0000000e+0 -0.99171606 -0.12844943
vn 0.0000000e+0 0.12844943 -0.99171606
vn -1.00000000 1.9178179e-15 0.0000000e+0
vn -1.00000000 1.9178179e-15 0.0000000e+0
vn 0.0000000e+0 0.99171606 0.12844943
vn 0.0000000e+0 0.12844943 -0.99171606
vn -1.00000000 0.0000000e+0 0.0000000e+0
vn 1.00000000 0.0000000e+0 0.0000000e+0
vn 0.0000000e+0 0.99171606 0.12844943
vn 0.0000000e+0 0.12844943 -0.99171606
vn 1.00000000 0.0000000e+0 0.0000000e+0
vn 0.0000000e+0 -0.99171606 -0.12844943
vn 0.0000000e+0 0.12844943 -0.99171606
vn 1.00000000 0.0000000e+0 0.0000000e+0
vn -5.3775847e-17 -0.13885366 0.99031291
vn -1.00000000 1.9178179e-15 0.0000000e+0
vn 0.0000000e+0 -0.97996798 0.19915512
vn -1.00000000 0.0000000e+0 -7.6579508e-16
vn -1.00000000 1.9178179e-15 0.0000000e+0
vn -5.3775847e-17 -0.13885366 0.99031291
vn 1.00000000 0.0000000e+0 0.0000000e+0
vn 0.0000000e+0 -0.97996798 0.19915512
vn 1.00000000 0.0000000e+0 0.0000000e+0
vn 1.00000000 0.0000000e+0 0.0000000e+0
vn 0.0000000e+0 0.31578012 0.94883240
vn 0.0000000e+0 -0.97996798 0.19915512
vn -1.00000000 0.0000000e+0 -7.6579508e-16
vn 0.0000000e+0 0.31578012 0.94883240
vn 0.0000000e+0 -0.97996798 0.19915512
vn 1.00000000 0.0000000e+0 0.0000000e+0
vn 0.0000000e+0 0.31578012 0.94883240
vn 1.00000000 0.0000000e+0 0.0000000e+0
vn 0.0000000e+0 0.94801516 -0.31822517
vn 0.0000000e+0 0.31578012 0.94883240
vn 0.0000000e+0 0.94801516 -0.31822517
vn -1.00000000 0.0000000e+0 -7.6579508e-16
vn 7.9994968e-16 -0.89648643 0.44307119
vn -0.38272570 0.40982709 0.82798719
vn -0.38272570 0.40982709 0.82798719
vn 7.9994968e-16 -0.89648643 0.44307119
vn 1.5998994e-15 -0.89648643 0.44307119
vn -0.92389465 0.17070201 0.34246095
vn -0.92389465 0.17070201 0.34246095
vn 0.38270784 0.40887885 0.82846412
vn 0.38270784 0.40887885 0.82846412
vn -3.9997484e-16 -0.89648643 0.44307119
vn -3.9997484e-16 -0.89648643 0.44307119
vn 0.92389057 0.16841572 0.34360204
vn 0.92389057 0.16841572 0.34360204
vn -7.9994968e-16 -0.89648643 0.44307119
vn 1.5998994e-15 -0.89648643 0.44307119
vn -0.92387758 -0.16841280 -0.34363838
vn -0.92387758 -0.16841280 -0.34363838
vn 7.9994968e-16 -0.89648643 0.44307119
vn -0.38267247 -0.40887833 -0.82848071
vn -0.38267247 -0.40887833 -0.82848071
vn 7.9994968e-16 -0.89648643 0.44307119
vn 0.38275253 -0.40978377 -0.82799623
vn 0.38275253 -0.40978377 -0.82799623
vn -3.9997484e-16 -0.89648643 0.44307119
vn -3.9997484e-16 -0.89648643 0.44307119
vn 0.92390413 -0.17064377 -0.34246438
vn 0.92390413 -0.17064377 -0.34246438
vn -7.9994968e-16 -0.89648643 0.44307119
vn 0.92389057 0.16841572 0.34360204
vn 0.92389057 0.16841572 0.34360204
vn -5.3809311e-3 0.89648328 -0.44304489
vn -0.38272570 0.40982709 0.82798719
vn -0.38272570 0.40982709 0.82798719
vn -6.1916390e-3 0.89647620 -0.44304862
vn -6.1916390e-3 0.89647620 -0.44304862
vn -0.92387758 -0.16841280 -0.34363838
vn -0.92387758 -0.16841280 -0.34363838
vn -4.1075949e-3 0.89649947 -0.44302576
vn 0.38275253 -0.40978377 -0.82799623
vn 0.38275253 -0.40978377 -0.82799623
vn -6.8283008e-3 0.89646710 -0.44305769
vn -6.8283008e-3 0.89646710 -0.44305769
vn -0.92389465 0.17070201 0.34246095
vn -0.92389465 0.17070201 0.34246095
vn -4.1075949e-3 0.89649947 -0.44302576
vn 0.38270784 0.40887885 0.82846412
vn 0.38270784 0.40887885 0.82846412
vn -6.8283008e-3 0.89646710 -0.44305769
vn -6.8283008e-3 0.89646710 -0.44305769
vn -0.38267247 -0.40887833 -0.82848071
vn -0.38267247 -0.40887833 -0.82848071
vn -6.1916390e-3 0.89647620 -0.44304862
vn -6.1916390e-3 0.89647620 -0.44304862
vn 0.92390413 -0.17064377 -0.34246438
vn 0.92390413 -0.17064377 -0.34246438
vn -5.3809311e-3 0.89648328 -0.44304489
g cube2_default
usemtl default
f 1/128/141 2/447/146 9/446/175 7/129/167
f 1/40/145 8/61/174 4/204/158 3/202/154
f 1/533/143 12/515/187 11/518/183 2/536/148
f 2/39/150 10/60/182 9/41/177
f 2/648/149 11/664/184 14/665/196 6/649/166
f 3/668/152 13/662/191 12/661/188 1/667/144
f 4/241/155 5/44/160 6/43/164 3/240/151
f 4/131/156 20/168/2 19/337/1 5/448/161
f 5/448/162 19/337/1 22/336/4 10/445/181
f 6/203/163 5/205/159 10/60/178 2/39/147
f 6/516/165 14/534/195 13/535/192 3/517/153
f 7/42/168 8/61/170 1/40/142
f 8/130/172 21/167/3 20/168/2 4/131/157
f 10/445/179 8/130/171 7/129/169 9/446/176
f 10/445/180 22/336/4 21/167/3 8/130/173
f 11/119/186 15/125/201 18/126/210 14/120/198
f 12/473/189 16/458/203 15/125/200 11/119/185
f 13/474/193 17/459/206 16/458/204 12/473/190
f 14/120/197 18/126/209 17/459/207 13/474/194
f 16/458/202 17/459/205 18/126/208 15/125/199
f 20/168/2 21/167/3 22/336/4 19/337/1
f 23/12/211 31/16/5 33/38/7 25/34/215
f 24/18/213 32/23/6 31/16/5 23/12/212
f 25/34/216 33/38/7 34/32/8 26/28/218
f 26/28/217 34/32/8 32/23/6 24/18/214
f 28/11/222 44/13/18 43/21/17 27/17/220
f 30/33/226 29/27/224 45/29/19 46/37/20
f 32/23/6 34/32/8 54/31/28 48/20/22
f 35/74/9 38/75/12 37/177/11 36/179/10
f 35/74/9 39/76/13 51/25/25 49/22/23
f 36/179/10 40/176/14 39/76/13 35/74/9
f 37/177/11 41/174/15 62/186/36 56/188/30
f 38/75/12 35/74/9 49/22/23 47/24/21
f 38/75/12 42/77/16 41/174/15 37/177/11
f 39/76/13 42/77/16 53/26/27 51/25/25
f 40/176/14 41/174/15 42/77/16 39/76/13
f 43/21/17 44/13/18 57/14/31 55/19/29
f 43/21/17 45/29/19 29/27/223 27/17/219
f 44/13/18 46/37/20 59/35/33 57/14/31
f 46/37/20 44/13/18 28/11/221 30/33/225
f 47/24/21 49/22/23 50/15/24 48/20/22
f 47/24/21 53/26/27 42/77/16 38/75/12
f 48/20/22 50/15/24 31/16/5 32/23/6
f 48/20/22 54/31/28 53/26/27 47/24/21
f 49/22/23 51/25/25 52/36/26 50/15/24
f 50/15/24 52/36/26 33/38/7 31/16/5
f 51/25/25 53/26/27 54/31/28 52/36/26
f 52/36/26 54/31/28 34/32/8 33/38/7
f 55/192/29 57/193/31 58/189/32 56/188/30
f 55/19/29 61/30/35 45/29/19 43/21/17
f 56/188/30 58/189/32 36/179/10 37/177/11
f 56/188/30 62/186/36 61/191/35 55/192/29
f 57/193/31 59/190/33 60/187/34 58/189/32
f 58/189/32 60/187/34 40/176/14 36/179/10
f 59/190/33 61/191/35 62/186/36 60/187/34
f 60/187/34 62/186/36 41/174/15 40/176/14
f 61/30/35 59/35/33 46/37/20 45/29/19
f 64/106/230 63/104/228 66/90/234 65/93/232
f 65/93/231 66/90/233 70/78/241 69/85/239
f 68/71/237 67/62/235 63/104/227 64/51/229
f 69/85/240 70/78/242 67/62/236 68/71/238
f 72/92/245 71/91/243 74/103/249 73/105/247
f 73/105/248 74/103/250 78/63/258 77/70/256
f 76/84/254 75/79/252 71/91/244 72/92/246
f 77/70/255 78/63/257 75/79/251 76/84/253
f 79/8/260 83/9/271 91/100/41 87/102/37
f 79/8/259 87/102/37 89/99/39 80/1/262
f 80/361/264 84/335/276 83/334/273 79/360/261
f 81/215/266 90/172/40 88/170/38 82/212/269
f 82/334/268 86/360/280 85/361/277 81/335/265
f 82/212/270 88/170/38 92/171/42 86/214/281
f 84/2/275 93/98/43 91/101/41 83/10/272
f 85/216/278 94/173/44 90/172/40 81/215/267
f 86/213/282 92/169/42 94/173/44 85/216/279
f 87/102/37 91/100/41 92/171/42 88/170/38
f 88/170/38 90/172/40 89/99/39 87/102/37
f 89/99/39 93/98/43 84/2/274 80/1/263
f 90/172/40 94/173/44 93/98/43 89/99/39
f 91/101/41 93/98/43 94/173/44 92/169/42
f 95/4/283 98/208/292 97/209/289 96/5/286
f 95/4/284 99/3/295 102/207/305 98/208/294
f 96/357/288 100/327/300 99/339/297 95/369/285
f 97/209/291 101/210/302 100/6/298 96/5/287
f 98/326/293 102/354/304 101/368/301 97/338/290
f 100/6/299 101/210/303 102/211/306 99/7/296
f 103/286/309 105/309/316 121/201/381 119/200/373
f 104/569/310 106/563/318 105/592/313 103/581/307
f 106/310/321 112/410/344 111/436/341 114/411/352
f 106/563/319 114/553/350 107/599/324 105/592/314
f 107/396/326 109/430/333 110/395/336 105/309/315
f 108/605/327 113/636/346 111/637/338 109/606/330
f 109/430/331 107/396/323 108/429/328
f 110/539/335 112/549/343 115/565/355 121/548/380
f 112/410/345 106/310/322 115/196/357
f 112/639/342 110/607/334 109/606/332 111/637/340
f 113/434/347 114/411/349 111/436/339
f 114/638/351 113/636/348 108/605/329 107/604/325
f 116/498/358 122/509/383 121/523/378 115/512/353
f 116/498/361 136/497/441 142/508/466 122/509/386
f 117/194/365 115/196/356 106/310/320 104/287/312
f 118/163/366 116/164/359 115/147/354 117/148/363
f 118/163/368 138/306/446 136/307/438 116/164/360
f 119/570/370 117/554/362 104/569/311 103/581/308
f 119/314/371 121/315/379 122/303/384 120/302/374
f 120/507/375 118/496/367 117/513/364 119/521/372
f 120/507/377 140/510/457 138/499/449 118/496/369
f 121/201/382 105/309/317 110/395/337
f 122/303/385 142/166/463 140/165/454 120/302/376
f 123/551/389 124/567/391 137/576/442 139/566/451
f 123/551/387 125/545/393 126/572/399 124/567/390
f 124/288/392 126/311/401 135/197/436 137/195/445
f 125/545/395 127/544/403 134/577/430 126/572/400
f 125/308/396 130/394/416 129/432/412 127/397/405
f 127/643/404 128/641/408 133/625/427 134/624/431
f 128/431/409 127/397/406 129/432/413
f 129/642/410 131/626/418 133/625/426 128/641/407
f 130/394/417 125/308/397 141/199/462
f 131/626/420 129/642/411 130/644/414 132/627/423
f 131/435/421 134/412/432 133/433/428
f 134/412/429 131/435/419 132/409/422 126/311/398
f 135/197/437 126/311/402 132/409/425
f 135/511/433 141/522/459 142/508/464 136/497/439
f 137/318/443 135/319/434 136/307/440 138/306/447
f 139/524/453 137/514/444 138/499/448 140/510/456
f 139/198/450 141/199/458 125/308/394 123/285/388
f 140/165/455 142/166/465 141/154/460 139/153/452
f 141/547/461 135/538/435 132/537/424 130/546/415
f 143/483/45 151/451/53 152/423/54 144/428/46
f 144/260/46 149/282/51 150/263/52 143/259/45
f 144/428/46 152/423/54 153/381/55 145/344/47
f 145/279/47 148/293/50 149/282/51 144/260/46
f 145/344/47 153/381/55 154/362/56 146/316/48
f 146/290/48 147/304/49 148/293/50 145/279/47
f 146/316/48 154/362/56 155/376/57 147/333/49
f 147/333/49 155/376/57 156/414/58 148/408/50
f 148/408/50 156/414/58 157/444/59 149/479/51
f 149/479/51 157/444/59 158/460/60 150/495/52
f 150/495/52 158/460/60 151/451/53 143/483/45
f 151/451/53 160/439/62 159/422/61 152/423/54
f 152/423/54 159/422/61 166/387/68 153/381/55
f 153/381/55 166/387/68 165/377/67 154/362/56
f 154/362/56 165/377/67 164/384/66 155/376/57
f 155/376/57 164/384/66 163/415/65 156/414/58
f 156/414/58 163/415/65 162/438/64 157/444/59
f 157/444/59 162/438/64 161/449/63 158/460/60
f 158/460/60 161/449/63 160/439/62 151/451/53
f 160/439/62 161/449/63 166/387/68 159/422/61
f 162/438/64 165/377/67 166/387/68 161/449/63
f 163/415/65 164/384/66 165/377/67 162/438/64
f 167/135/470 185/159/538 184/149/534 183/143/531
f 168/628/472 170/590/480 169/571/475 167/591/467
f 168/137/474 179/162/518 180/158/521 170/112/482
f 169/108/477 186/155/541 185/159/537 167/135/469
f 170/112/483 176/68/506 175/52/503 178/56/514
f 170/590/481 178/568/511 171/552/486 169/571/476
f 171/59/488 173/55/495 174/72/498 169/108/478
f 172/593/489 177/629/508 175/630/500 173/594/492
f 173/55/493 171/59/485 172/48/490
f 174/595/497 176/631/505 180/632/519 186/596/539
f 176/68/507 170/112/484 180/158/522
f 176/631/504 174/595/496 173/594/494 175/630/501
f 177/45/510 178/56/513 175/52/502
f 178/568/512 177/564/509 172/550/491 171/552/487
f 181/645/524 184/612/532 185/640/535 179/663/516
f 182/145/526 181/152/523 179/162/515 168/137/471
f 183/600/529 182/635/527 168/628/473 167/591/468
f 183/600/530 184/612/533 181/645/525 182/635/528
f 186/155/542 169/108/479 174/72/499
f 186/646/540 180/666/520 179/663/517 185/640/536
f 187/265/546 192/264/563 193/255/566 189/256/552
f 187/111/545 196/110/575 199/117/586 188/116/549
f 188/116/548 199/117/585 197/122/578 191/123/558
f 189/96/550 200/95/588 196/110/574 187/111/544
f 190/253/556 189/256/553 193/255/567 194/252/570
f 190/88/555 195/87/572 200/95/589 189/96/551
f 191/270/557 192/264/560 187/265/543 188/269/547
f 191/123/559 197/122/579 201/132/593 192/133/562
f 192/133/561 201/132/592 198/140/581 193/141/564
f 193/66/565 198/67/582 202/82/597 194/81/569
f 194/81/568 202/82/596 195/87/571 190/88/554
f 199/251/587 196/258/577 201/257/595 197/250/580
f 200/267/590 198/266/583 201/257/594 196/258/576
f 202/272/598 198/266/584 200/267/591 195/271/573
f 203/656/599 206/677/606 205/678/603 204/657/601
f 203/660/600 207/659/609 210/680/617 206/681/608
f 205/678/605 209/679/614 208/658/611 204/657/602
f 206/348/607 210/372/616 209/351/613 205/323/604
f 208/658/612 209/679/615 210/680/618 207/659/610
f 211/481/69 219/452/77 220/426/78 212/419/70
f 212/261/70 217/281/75 218/262/76 211/259/69
f 212/419/70 220/426/78 221/385/79 213/343/71
f 213/280/71 216/292/74 217/281/75 212/261/70
f 213/343/71 221/385/79 222/375/80 214/312/72
f 214/291/72 215/304/73 216/292/74 213/280/71
f 214/312/72 222/375/80 223/379/81 215/320/73
f 215/320/73 223/379/81 224/416/82 216/393/74
f 216/393/74 224/416/82 225/455/83 217/476/75
f 217/476/75 225/455/83 226/462/84 218/493/76
f 218/493/76 226/462/84 219/452/77 211/481/69
f 219/452/77 228/443/86 227/425/85 220/426/78
f 220/426/78 227/425/85 234/391/92 221/385/79
f 221/385/79 234/391/92 233/382/91 222/375/80
f 222/375/80 233/382/91 232/388/90 223/379/81
f 223/379/81 232/388/90 231/421/89 224/416/82
f 224/416/82 231/421/89 230/441/88 225/455/83
f 225/455/83 230/441/88 229/457/87 226/462/84
f 226/462/84 229/457/87 228/443/86 219/452/77
f 228/443/86 229/457/87 234/391/92 227/425/85
f 230/441/88 233/382/91 234/391/92 229/457/87
f 231/421/89 232/388/90 233/382/91 230/441/88
f 235/506/619 238/505/628 237/527/625 236/528/622
f 235/506/620 239/491/631 242/488/641 238/505/630
f 236/356/624 240/329/636 239/340/633 235/364/621
f 237/527/627 241/556/638 240/562/634 236/528/623
f 238/330/629 242/358/640 241/366/637 237/338/626
f 240/562/635 241/556/639 242/615/642 239/616/632
f 243/485/643 246/484/650 245/502/647 244/504/645
f 243/614/644 247/555/653 250/559/661 246/613/652
f 245/502/649 249/525/658 248/526/655 244/504/646
f 246/347/651 250/370/660 249/353/657 245/325/648
f 248/526/656 249/525/659 250/559/662 247/555/654
f 251/234/663 254/246/674 260/247/696 259/235/691
f 251/465/664 255/472/677 258/407/688 254/400/675
f 252/520/667 264/519/711 263/585/709 253/586/673
f 253/463/671 257/464/685 256/399/681 252/398/666
f 253/227/672 263/225/708 262/220/706 260/228/699
f 256/276/683 255/274/680 259/297/695 252/300/669
f 256/245/682 257/233/686 258/232/689 255/242/678
f 258/305/690 260/278/700 254/283/676
f 259/297/692 255/274/679 251/294/665
f 259/221/694 261/229/703 264/226/712 252/222/668
f 260/278/697 258/305/687 257/298/684 253/275/670
f 260/404/698 262/403/705 261/468/702 259/469/693
f 262/466/704 263/471/707 264/406/710 261/401/701
f 265/583/715 266/609/718 280/610/772 281/582/776
f 265/583/713 267/584/721 268/611/727 266/609/717
f 265/136/716 283/160/784 284/156/787 267/109/723
f 266/138/720 277/161/764 279/151/771 280/144/774
f 267/584/722 269/589/731 276/623/758 268/611/728
f 267/109/724 272/73/744 271/54/740 269/58/733
f 268/113/729 278/157/767 277/161/763 266/138/719
f 269/589/732 270/588/736 275/622/755 276/623/759
f 270/47/737 269/58/734 271/54/741
f 271/587/738 273/621/746 275/622/754 270/588/735
f 272/73/745 267/109/725 284/156/788
f 273/579/748 271/602/739 272/601/742 274/575/751
f 273/53/749 276/57/760 275/46/756
f 276/57/757 273/53/747 274/69/750 268/113/726
f 277/574/761 283/598/782 282/603/779 279/578/769
f 278/157/768 268/113/730 274/69/753
f 280/610/773 279/608/770 282/580/780 281/582/777
f 281/142/775 282/150/778 283/160/781 265/136/714
f 283/598/783 277/574/762 278/573/766 284/597/786
f 284/597/785 278/573/765 274/575/752 272/601/743
f 286/654/791 287/675/793 288/676/796 285/655/789
f 286/654/792 290/653/801 291/674/804 287/675/795
f 287/373/794 291/349/803 292/322/806 288/350/797
f 288/672/798 292/673/807 289/652/799 285/651/790
f 289/652/800 292/673/808 291/674/805 290/653/802
f 293/328/811 297/355/823 298/365/826 294/341/814
f 294/532/812 295/531/815 296/557/818 293/558/809
f 294/532/813 298/504/824 299/503/828 295/531/817
f 295/359/816 299/331/827 300/340/830 296/367/819
f 296/557/820 300/619/831 297/620/821 293/558/810
f 297/490/822 300/489/832 299/503/829 298/504/825
f 301/50/833 322/181/878 326/184/897 328/185/905 324/180/889 302/49/836
f 302/206/835 324/268/888 315/219/861
f 303/478/838 326/301/900 322/378/882 311/541/854
f 304/249/840 325/284/896 326/301/899 303/478/837
f 305/248/842 328/289/908 327/317/903 306/477/843
f 306/477/844 327/317/904 323/437/887 320/540/872
f 307/217/845 321/254/873 308/218/847
f 308/218/848 321/254/877 317/224/866
f 309/238/849 323/182/883 327/178/902 325/175/894 321/183/874 307/239/846
f 310/670/852 323/437/886 309/671/850
f 311/541/853 322/378/879 312/650/855
f 312/650/856 322/378/881 313/669/858
f 313/669/857 322/378/880 301/682/834
f 314/230/859 324/268/890 328/289/907 305/248/841
f 315/219/862 324/268/892 316/223/864
f 316/223/863 324/268/891 314/230/860
f 317/224/865 321/254/876 318/231/868
f 318/231/867 321/254/875 325/284/895 304/249/839
f 319/647/870 323/437/885 310/670/851
f 320/540/871 323/437/884 319/647/869
f 325/175/893 327/178/901 328/185/906 326/184/898
f 330/561/911 331/560/913 332/617/916 329/618/909
f 330/561/912 334/530/921 335/529/924 331/560/915
f 331/371/914 335/346/923 336/324/926 332/352/917
f 332/486/918 336/500/927 333/501/919 329/487/910
f 333/501/920 336/500/928 335/529/925 334/530/922
f 337/236/929 340/243/940 346/244/962 345/237/957
f 337/465/930 341/472/943 344/407/954 340/400/941
f 338/543/933 350/542/977 349/633/975 339/634/939
f 339/463/937 343/464/951 342/399/947 338/398/932
f 339/227/938 349/225/974 348/220/972 346/228/965
f 342/277/949 341/273/946 345/296/961 338/299/935
f 342/245/948 343/233/952 344/232/955 341/242/944
f 344/305/956 346/278/966 340/283/942
f 345/296/958 341/273/945 337/295/931
f 345/221/960 347/229/969 350/226/978 338/222/934
f 346/278/963 344/305/953 343/298/950 339/275/936
f 346/404/964 348/403/971 347/468/968 345/469/959
f 348/467/970 349/470/973 350/405/976 347/402/967
f 351/480/93 359/453/101 360/427/102 352/418/94
f 352/261/94 357/281/99 358/262/100 351/259/93
f 352/418/94 360/427/102 361/386/103 353/342/95
f 353/280/95 356/292/98 357/281/99 352/261/94
f 353/342/95 361/386/103 362/374/104 354/313/96
f 354/291/96 355/304/97 356/292/98 353/280/95
f 354/313/96 362/374/104 363/380/105 355/321/97
f 355/321/97 363/380/105 364/417/106 356/392/98
f 356/392/98 364/417/106 365/454/107 357/475/99
f 357/475/99 365/454/107 366/461/108 358/492/100
f 358/492/100 366/461/108 359/453/101 351/480/93
f 359/453/101 368/442/110 367/424/109 360/427/102
f 360/427/102 367/424/109 374/390/116 361/386/103
f 361/386/103 374/390/116 373/383/115 362/374/104
f 362/374/104 373/383/115 372/389/114 363/380/105
f 363/380/105 372/389/114 371/420/113 364/417/106
f 364/417/106 371/420/113 370/440/112 365/454/107
f 365/454/107 370/440/112 369/456/111 366/461/108
f 366/461/108 369/456/111 368/442/110 359/453/101
f 368/442/110 369/456/111 374/390/116 367/424/109
f 370/440/112 373/383/115 374/390/116 369/456/111
f 371/420/113 372/389/114 373/383/115 370/440/112
f 375/265/982 380/264/999 381/255/1002 377/256/988
f 375/97/981 384/94/1011 387/86/1022 376/89/985
f 376/89/984 387/86/1021 385/80/1014 379/83/994
f 377/114/986 388/107/1024 384/94/1010 375/97/980
f 378/253/992 377/256/989 381/255/1003 382/252/1006
f 378/118/991 383/115/1008 388/107/1025 377/114/987
f 379/270/993 380/264/996 375/265/979 376/269/983
f 379/83/995 385/80/1015 389/64/1029 380/65/998
f 380/146/997 389/139/1028 386/127/1017 381/134/1000
f 381/134/1001 386/127/1018 390/121/1033 382/124/1005
f 382/124/1004 390/121/1032 383/115/1007 378/118/990
f 387/251/1023 384/258/1013 389/257/1031 385/250/1016
f 388/267/1026 386/266/1019 389/257/1030 384/258/1012
f 390/272/1034 386/266/1020 388/267/1027 383/271/1009
f 391/482/117 399/450/125 400/423/126 392/428/118
f 392/260/118 397/282/123 398/263/124 391/259/117
f 392/428/118 400/423/126 401/381/127 393/345/119
f 393/279/119 396/293/122 397/282/123 392/260/118
f 393/345/119 401/381/127 402/363/128 394/316/120
f 394/290/120 395/304/121 396/293/122 393/279/119
f 394/316/120 402/363/128 403/376/129 395/332/121
f 395/332/121 403/376/129 404/413/130 396/408/122
f 396/408/122 404/413/130 405/444/131 397/479/123
f 397/479/123 405/444/131 406/460/132 398/494/124
f 398/494/124 406/460/132 399/450/125 391/482/117
f 399/450/125 408/439/134 407/422/133 400/423/126
f 400/423/126 407/422/133 414/387/140 401/381/127
f 401/381/127 414/387/140 413/377/139 402/363/128
f 402/363/128 413/377/139 412/384/138 403/376/129
f 403/376/129 412/384/138 411/415/137 404/413/130
f 404/413/130 411/415/137 410/438/136 405/444/131
f 405/444/131 410/438/136 409/449/135 406/460/132
f 406/460/132 409/449/135 408/439/134 399/450/125
f 408/439/134 409/449/135 414/387/140 407/422/133
f 410/438/136 413/377/139 414/387/140 409/449/135
f 411/415/137 412/384/138 413/377/139 410/438/136
