# Exported from Wings 3D 1.0.2
mtllib Doors02.mtl
o cube1
#284 vertices, 226 faces
v -0.61393534 -0.67887755 -8.6899622e-2
v -0.58665031 -0.67887755 -7.1146607e-2
v -0.58665031 -0.67887755 -3.9640578e-2
v -0.61393534 -0.67887755 -2.3887563e-2
v -0.64122036 -0.67887755 -3.9640578e-2
v -0.64122036 -0.67887755 -7.1146607e-2
v -0.61393534 -0.85615442 -8.6899622e-2
v -0.58665031 -0.85615442 -7.1146607e-2
v -0.58665031 -0.85615442 -3.9640578e-2
v -0.61393534 -0.85615442 -2.3887563e-2
v -0.64122036 -0.85615442 -3.9640578e-2
v -0.64122036 -0.85615442 -7.1146607e-2
v -0.20748016 0.72542361 -2.9745318e-2
v -0.20748016 0.72912097 -3.2441480e-2
v 4.5959842e-2 0.72912097 -3.2441480e-2
v 4.5959842e-2 0.72542361 -2.9745318e-2
v -0.20748016 0.68373679 -8.6912218e-2
v -0.20748016 0.68743415 -8.9608381e-2
v 4.5959842e-2 0.68743415 -8.9608381e-2
v 4.5959842e-2 0.68373679 -8.6912218e-2
v -0.20748016 0.76539906 -2.9745318e-2
v -0.20748016 0.76909642 -3.2441480e-2
v 4.5959842e-2 0.76909642 -3.2441480e-2
v 4.5959842e-2 0.76539906 -2.9745318e-2
v -0.20748016 0.72371224 -8.6912218e-2
v -0.20748016 0.72740960 -8.9608381e-2
v 4.5959842e-2 0.72740960 -8.9608381e-2
v 4.5959842e-2 0.72371224 -8.6912218e-2
v -0.20748016 0.81065127 -2.9745318e-2
v -0.20748016 0.81434863 -3.2441480e-2
v 4.5959842e-2 0.81434863 -3.2441480e-2
v 4.5959842e-2 0.81065127 -2.9745318e-2
v -0.20748016 0.76896445 -8.6912218e-2
v -0.20748016 0.77266181 -8.9608381e-2
v 4.5959842e-2 0.77266181 -8.9608381e-2
v 4.5959842e-2 0.76896445 -8.6912218e-2
v -0.20748016 0.85078663 -2.9745318e-2
v -0.20748016 0.85448399 -3.2441480e-2
v 4.5959842e-2 0.85448399 -3.2441480e-2
v 4.5959842e-2 0.85078663 -2.9745318e-2
v -0.20748016 0.80909980 -8.6912218e-2
v -0.20748016 0.81279717 -8.9608381e-2
v 4.5959842e-2 0.81279717 -8.9608381e-2
v 4.5959842e-2 0.80909980 -8.6912218e-2
v -0.20748016 0.89523933 -2.9745318e-2
v -0.20748016 0.89893669 -3.2441480e-2
v 4.5959842e-2 0.89893669 -3.2441480e-2
v 4.5959842e-2 0.89523933 -2.9745318e-2
v -0.20748016 0.85355251 -8.6912218e-2
v -0.20748016 0.85724987 -8.9608381e-2
v 4.5959842e-2 0.85724987 -8.9608381e-2
v 4.5959842e-2 0.85355251 -8.6912218e-2
v -0.21183547 0.66061799 6.3513739e-2
v -0.21183547 0.92307700 6.3513739e-2
v 5.0623541e-2 0.92307700 6.3513739e-2
v 5.0623541e-2 0.66061799 6.3513739e-2
v -0.21183547 0.66061799 -6.3018570e-2
v -0.21183547 0.92307700 -6.3018570e-2
v 5.0623541e-2 0.92307700 -6.3018570e-2
v 5.0623541e-2 0.66061799 -6.3018570e-2
v -0.20763612 0.66481733 -6.3018570e-2
v -0.20763612 0.91887765 -6.3018570e-2
v 4.6424197e-2 0.91887765 -6.3018570e-2
v 4.6424197e-2 0.66481733 -6.3018570e-2
v -0.20842350 0.91966503 6.3513739e-2
v -0.20842350 0.66402996 6.3513739e-2
v 4.7211574e-2 0.66402996 6.3513739e-2
v 4.7211574e-2 0.91966503 6.3513739e-2
v 0.40068998 0.45860089 -2.1634131e-2
v 0.40068998 0.52654277 -2.1634131e-2
v 0.40068998 0.52654277 -4.2967884e-2
v 0.40068998 0.45860089 -4.2967884e-2
v -0.59108656 0.45860089 -2.1634131e-2
v -0.59108656 0.52654277 -2.1634131e-2
v -0.59108656 0.52654277 -4.2967884e-2
v -0.59108656 0.45860089 -4.2967884e-2
v 0.33266579 1.3094456e-2 -6.2663946e-2
v 0.32441944 4.8481037e-3 -6.2663946e-2
v 0.33266579 5.3438451e-2 -6.2663946e-2
v 0.32441944 6.1684804e-2 -6.2663946e-2
v 0.33266579 5.3438451e-2 -2.8636157e-2
v 0.32441944 6.1684804e-2 -2.8636157e-2
v 0.33266579 1.3094456e-2 -2.8636157e-2
v 0.32441944 4.8481037e-3 -2.8636157e-2
v 0.28407544 4.8481037e-3 -6.2663946e-2
v 0.27582909 1.3094456e-2 -6.2663946e-2
v 0.27582909 5.3438451e-2 -6.2663946e-2
v 0.28407544 6.1684804e-2 -6.2663946e-2
v 0.28407544 6.1684804e-2 -2.8636157e-2
v 0.27582909 5.3438451e-2 -2.8636157e-2
v 0.27582909 1.3094456e-2 -2.8636157e-2
v 0.28407544 4.8481037e-3 -2.8636157e-2
v 0.29819673 2.1847308e-2 -0.10120996
v 0.29240858 1.3600956e-2 -9.5336326e-2
v 0.29240858 5.2931952e-2 -9.5336326e-2
v 0.29819673 4.4685600e-2 -0.10120996
v 0.27059013 4.4685600e-2 -7.3195633e-2
v 0.27637828 5.2931952e-2 -7.9069271e-2
v 0.27637828 1.3600956e-2 -7.9069271e-2
v 0.27059013 2.1847308e-2 -7.3195633e-2
v 0.23962753 2.8533578e-2 -0.10523374
v 0.23657312 2.0287225e-2 -9.7573919e-2
v 0.23657312 4.6245683e-2 -9.7573919e-2
v 0.23962753 3.7999330e-2 -0.10523374
v 0.23001264 3.7999330e-2 -8.1121602e-2
v 0.23306705 4.6245683e-2 -8.8781426e-2
v 0.23306705 2.0287225e-2 -8.8781426e-2
v 0.23001264 2.8533578e-2 -8.1121602e-2
v 0.12741404 3.2635014e-2 -0.10142403
v 0.12741404 2.4388661e-2 -9.3177673e-2
v 0.12741404 3.3897894e-2 -0.10142403
v 0.12741404 3.3897894e-2 -8.4931320e-2
v 0.12741404 4.2144246e-2 -9.3177673e-2
v 0.12741404 3.2635014e-2 -8.4931320e-2
v 0.35018632 -0.17210475 -4.0258405e-2
v 0.35018632 0.14347192 -4.0258405e-2
v 0.35018632 0.14347192 -2.2908993e-2
v 0.35018632 -0.17210475 -2.2908993e-2
v 0.25887362 -0.17210475 -4.0258405e-2
v 0.25887362 0.14347192 -4.0258405e-2
v 0.25887362 0.14347192 -2.2908993e-2
v 0.25887362 -0.17210475 -2.2908993e-2
v 0.31487283 -5.9172554e-2 -2.2908993e-2
v 0.31487283 -0.11524716 -2.2908993e-2
v 0.30032958 -0.11524716 -2.2908993e-2
v 0.30032958 -5.9172554e-2 -2.2908993e-2
v 0.31487283 -0.11524716 -4.0258405e-2
v 0.31487283 -5.9172554e-2 -4.0258405e-2
v 0.30032958 -5.9172554e-2 -4.0258405e-2
v 0.30032958 -0.11524716 -4.0258405e-2
v 0.43559771 -0.98111987 3.3382315e-2
v 0.43559771 1.04439766 3.3382315e-2
v 0.43559771 1.04439766 -1.1230027e-2
v 0.43559771 -0.98111987 -1.1230027e-2
v -0.62599429 -0.98111987 3.3382315e-2
v -0.62599429 1.04439766 3.3382315e-2
v -0.62599429 1.04439766 -1.1230027e-2
v -0.62599429 -0.98111987 -1.1230027e-2
v -0.60688563 1.02528901 -1.1230027e-2
v 0.41648906 1.02528901 -1.1230027e-2
v 0.41648906 -0.96201122 -1.1230027e-2
v -0.60688563 -0.96201122 -1.1230027e-2
v -0.60688563 -0.96201122 3.3382315e-2
v 0.41648906 -0.96201122 3.3382315e-2
v 0.41648906 1.02528901 3.3382315e-2
v -0.60688563 1.02528901 3.3382315e-2
v -0.60688563 1.02528901 -2.5016422e-2
v 0.41648906 1.02528901 -2.5016422e-2
v 0.41648906 -0.96201122 -2.5016422e-2
v -0.60688563 -0.96201122 -2.5016422e-2
v -0.60688563 -0.96201122 4.7168709e-2
v 0.41648906 -0.96201122 4.7168709e-2
v 0.41648906 1.02528901 4.7168709e-2
v -0.60688563 1.02528901 4.7168709e-2
v -0.20972043 0.92120853 -2.5016422e-2
v 4.9287520e-2 0.92120853 -2.5016422e-2
v 4.9287520e-2 0.66334545 -2.5016422e-2
v -0.20972043 0.66334545 -2.5016422e-2
v -0.20972043 0.66334545 4.7168709e-2
v 4.9287520e-2 0.66334545 4.7168709e-2
v 4.9287520e-2 0.92120853 4.7168709e-2
v -0.20972043 0.92120853 4.7168709e-2
v -0.48490942 -0.88578869 -2.3988313e-2
v -0.48490942 -0.65221754 -2.3988313e-2
v -0.48490942 -0.65221754 -3.9936867e-2
v -0.48490942 -0.88578869 -3.9936867e-2
v -0.58971828 -0.88578869 -2.3988313e-2
v -0.58971828 -0.65221754 -2.3988313e-2
v -0.58971828 -0.65221754 -3.9936867e-2
v -0.58971828 -0.88578869 -3.9936867e-2
v 0.36932209 0.24185941 -2.4122277e-2
v 0.36932209 0.35651652 -2.4122277e-2
v 0.36932209 0.35651652 -4.7247303e-2
v 0.36932209 0.24185941 -4.7247303e-2
v 0.31554296 0.24185941 -2.4122277e-2
v 0.31554296 0.35651652 -2.4122277e-2
v 0.31554296 0.35651652 -4.7247303e-2
v 0.31554296 0.24185941 -4.7247303e-2
v 0.34689619 0.31992014 -4.7247303e-2
v 0.34689619 0.27845579 -4.7247303e-2
v 0.33796886 0.27845579 -4.7247303e-2
v 0.33796886 0.31992014 -4.7247303e-2
v 0.34689619 0.27845579 -2.4122277e-2
v 0.34689619 0.31992014 -2.4122277e-2
v 0.33796886 0.31992014 -2.4122277e-2
v 0.33796886 0.27845579 -2.4122277e-2
v 0.33266579 1.3094456e-2 8.6068042e-2
v 0.32441944 4.8481037e-3 8.6068042e-2
v 0.33266579 5.3438451e-2 8.6068042e-2
v 0.32441944 6.1684804e-2 8.6068042e-2
v 0.33266579 5.3438451e-2 5.2040254e-2
v 0.32441944 6.1684804e-2 5.2040254e-2
v 0.33266579 1.3094456e-2 5.2040254e-2
v 0.32441944 4.8481037e-3 5.2040254e-2
v 0.28407544 4.8481037e-3 8.6068042e-2
v 0.27582909 1.3094456e-2 8.6068042e-2
v 0.27582909 5.3438451e-2 8.6068042e-2
v 0.28407544 6.1684804e-2 8.6068042e-2
v 0.28407544 6.1684804e-2 5.2040254e-2
v 0.27582909 5.3438451e-2 5.2040254e-2
v 0.27582909 1.3094456e-2 5.2040254e-2
v 0.28407544 4.8481037e-3 5.2040254e-2
v 0.29819673 2.1847308e-2 0.12461406
v 0.29240858 1.3600956e-2 0.11874042
v 0.29240858 5.2931952e-2 0.11874042
v 0.29819673 4.4685600e-2 0.12461406
v 0.27059013 4.4685600e-2 9.6599729e-2
v 0.27637828 5.2931952e-2 0.10247337
v 0.27637828 1.3600956e-2 0.10247337
v 0.27059013 2.1847308e-2 9.6599729e-2
v 0.23962753 2.8533578e-2 0.12863784
v 0.23657312 2.0287225e-2 0.12097802
v 0.23657312 4.6245683e-2 0.12097802
v 0.23962753 3.7999330e-2 0.12863784
v 0.23001264 3.7999330e-2 0.10452570
v 0.23306705 4.6245683e-2 0.11218552
v 0.23306705 2.0287225e-2 0.11218552
v 0.23001264 2.8533578e-2 0.10452570
v 0.12741404 3.2635014e-2 0.12482812
v 0.12741404 2.4388661e-2 0.11658177
v 0.12741404 3.3897894e-2 0.12482812
v 0.12741404 3.3897894e-2 0.10833542
v 0.12741404 4.2144246e-2 0.11658177
v 0.12741404 3.2635014e-2 0.10833542
v 0.35018632 -0.17210475 6.3662501e-2
v 0.35018632 0.14347192 6.3662501e-2
v 0.35018632 0.14347192 4.6313089e-2
v 0.35018632 -0.17210475 4.6313089e-2
v 0.25887362 -0.17210475 6.3662501e-2
v 0.25887362 0.14347192 6.3662501e-2
v 0.25887362 0.14347192 4.6313089e-2
v 0.25887362 -0.17210475 4.6313089e-2
v 0.31487283 -5.9172554e-2 4.6313089e-2
v 0.31487283 -0.11524716 4.6313089e-2
v 0.30032958 -0.11524716 4.6313089e-2
v 0.30032958 -5.9172554e-2 4.6313089e-2
v 0.31487283 -0.11524716 6.3662501e-2
v 0.31487283 -5.9172554e-2 6.3662501e-2
v 0.30032958 -5.9172554e-2 6.3662501e-2
v 0.30032958 -0.11524716 6.3662501e-2
v 0.40068998 0.45588766 6.6240382e-2
v 0.40068998 0.52382955 6.6240382e-2
v 0.40068998 0.52382955 4.4906629e-2
v 0.40068998 0.45588766 4.4906629e-2
v -0.59108656 0.45588766 6.6240382e-2
v -0.59108656 0.52382955 6.6240382e-2
v -0.59108656 0.52382955 4.4906629e-2
v -0.59108656 0.45588766 4.4906629e-2
v 0.40068998 -0.49897698 6.6240382e-2
v 0.40068998 -0.43103510 6.6240382e-2
v 0.40068998 -0.43103510 4.4906629e-2
v 0.40068998 -0.49897698 4.4906629e-2
v -0.59108656 -0.49897698 6.6240382e-2
v -0.59108656 -0.43103510 6.6240382e-2
v -0.59108656 -0.43103510 4.4906629e-2
v -0.59108656 -0.49897698 4.4906629e-2
v 0.40068998 -0.49282113 -2.1634131e-2
v 0.40068998 -0.42487924 -2.1634131e-2
v 0.40068998 -0.42487924 -4.2967884e-2
v 0.40068998 -0.49282113 -4.2967884e-2
v -0.59108656 -0.49282113 -2.1634131e-2
v -0.59108656 -0.42487924 -2.1634131e-2
v -0.59108656 -0.42487924 -4.2967884e-2
v -0.59108656 -0.49282113 -4.2967884e-2
v -0.48490942 0.73678110 -2.3988313e-2
v -0.48490942 0.97035225 -2.3988313e-2
v -0.48490942 0.97035225 -3.9936867e-2
v -0.48490942 0.73678110 -3.9936867e-2
v -0.58971828 0.73678110 -2.3988313e-2
v -0.58971828 0.97035225 -2.3988313e-2
v -0.58971828 0.97035225 -3.9936867e-2
v -0.58971828 0.73678110 -3.9936867e-2
v -0.61393534 0.94207644 -8.6899622e-2
v -0.58665031 0.94207644 -7.1146607e-2
v -0.58665031 0.94207644 -3.9640578e-2
v -0.61393534 0.94207644 -2.3887563e-2
v -0.64122036 0.94207644 -3.9640578e-2
v -0.64122036 0.94207644 -7.1146607e-2
v -0.61393534 0.76479957 -8.6899622e-2
v -0.58665031 0.76479957 -7.1146607e-2
v -0.58665031 0.76479957 -3.9640578e-2
v -0.61393534 0.76479957 -2.3887563e-2
v -0.64122036 0.76479957 -3.9640578e-2
v -0.64122036 0.76479957 -7.1146607e-2
vt 1.4441086e-2 0.92025337
vt 1.4441086e-2 5.4240865e-2
vt 1.4441086e-2 0.92025337
vt 1.4441086e-2 5.4240865e-2
vt 3.3515148e-2 0.92025337
vt 3.3515148e-2 5.4240865e-2
vt 3.3515148e-2 0.92025337
vt 3.3515148e-2 5.4240865e-2
vt 4.1623626e-2 0.90861892
vt 4.1623626e-2 0.91678884
vt 4.1623626e-2 5.8946272e-2
vt 4.1623626e-2 5.0776342e-2
vt 4.1623626e-2 0.90861892
vt 4.1623626e-2 0.91678884
vt 4.1623626e-2 5.0776342e-2
vt 4.1623626e-2 5.8946272e-2
vt 4.2761395e-2 5.8946272e-2
vt 4.2761395e-2 0.90861892
vt 4.8655785e-2 5.8946272e-2
vt 4.8655785e-2 0.90861892
vt 4.9793555e-2 0.91678884
vt 4.9793555e-2 0.90861892
vt 4.9793555e-2 5.0776342e-2
vt 4.9793555e-2 5.8946272e-2
vt 4.9793555e-2 0.90861892
vt 4.9793555e-2 0.91678884
vt 4.9793555e-2 5.8946272e-2
vt 4.9793555e-2 5.0776342e-2
vt 5.9400436e-2 5.9313309e-2
vt 5.9400436e-2 0.90898595
vt 5.9400436e-2 5.9313309e-2
vt 5.9400436e-2 0.90898595
vt 5.9400436e-2 5.9313309e-2
vt 5.9400436e-2 0.90898595
vt 6.5294825e-2 5.9313309e-2
vt 6.5294825e-2 0.90898595
vt 6.5294825e-2 0.90898595
vt 6.5294825e-2 5.9313309e-2
vt 6.5294825e-2 5.9313309e-2
vt 6.5294825e-2 0.90898595
vt 0.12995814 8.4519508e-3
vt 0.12995814 8.4519508e-3
vt 0.12995814 0.99399065
vt 0.12995814 0.99399065
vt 0.31206013 0.94237523
vt 0.31206013 0.94237523
vt 0.31206013 0.81449619
vt 0.31206013 0.81449619
vt 0.44050693 0.81449619
vt 0.44050693 0.81449619
vt 0.44050693 0.94237523
vt 0.44050693 0.94237523
vt 0.63746845 8.4519508e-3
vt 0.63746845 8.4519508e-3
vt 0.63746845 0.99399065
vt 0.63746845 0.99399065
vt 0.68209926 2.6989215e-2
vt 0.68209926 2.6989215e-2
vt 0.68209926 0.46453432
vt 0.68209926 0.46453432
vt 0.68323703 2.6989215e-2
vt 0.68323703 0.46453432
vt 0.68410801 0.24573406
vt 0.68410801 0.40137244
vt 0.68413571 0.39929622
vt 0.68618423 0.24576177
vt 0.68823274 9.2227312e-2
vt 0.68826045 9.0151093e-2
vt 0.68826045 0.24578947
vt 0.68913142 2.6989215e-2
vt 0.68913142 0.46453432
vt 0.69026919 1.8819286e-2
vt 0.69026919 1.8819286e-2
vt 0.69026919 0.47270424
vt 0.69026919 0.47270424
vt 0.70447211 0.48817585
vt 0.70447211 0.48817585
vt 0.70447211 0.94206081
vt 0.70447211 0.94206081
vt 0.71482588 4.4617083e-2
vt 0.71482588 4.4617083e-2
vt 0.71482588 0.46865236
vt 0.71482588 0.46865236
vt 0.72354617 0.48817585
vt 0.72354617 0.48817585
vt 0.72354617 0.94206081
vt 0.72354617 0.94206081
vt 0.72394715 4.4617083e-2
vt 0.72394715 0.46865236
vt 0.72394715 4.4617083e-2
vt 0.72394715 0.46865236
vt 0.73348379 2.1862678e-2
vt 0.73348379 2.1862678e-2
vt 0.73348379 0.44589795
vt 0.73395946 6.9378366e-3
vt 0.73395946 6.9378366e-3
vt 0.73395946 0.46082280
vt 0.73395946 0.46082280
vt 0.73509723 1.5107766e-2
vt 0.73509723 0.45265287
vt 0.73929817 0.46155911
vt 0.73929817 0.46335454
vt 0.74099162 1.5107766e-2
vt 0.74099162 0.45265287
vt 0.74109361 0.46335454
vt 0.74109361 0.46155911
vt 0.74122622 0.46147859
vt 0.74122622 0.46343506
vt 0.74122622 0.46147859
vt 0.74122622 0.46343506
vt 0.74122622 0.46147859
vt 0.74122622 0.46343506
vt 0.74212939 1.5107766e-2
vt 0.74212939 1.5107766e-2
vt 0.74212939 0.45265287
vt 0.74212939 0.45265287
vt 0.74260506 2.1862678e-2
vt 0.74260506 0.44589795
vt 0.74260506 2.1862678e-2
vt 0.74260506 0.44589795
vt 0.74876141 0.53267019
vt 0.74876141 0.53948901
vt 0.75061711 0.55439457
vt 0.75061711 0.56428170
vt 0.77353343 0.52589003
vt 0.77353343 0.53270885
vt 0.77353343 0.51910987
vt 0.77353343 0.52592869
vt 0.77361044 0.55439457
vt 0.77361044 0.56428170
vt 0.77541079 0.99651018
vt 0.77541079 0.99651018
vt 0.77541079 0.57247490
vt 0.77541079 0.57247490
vt 0.78301680 0.55439457
vt 0.78301680 0.56428170
vt 0.78378744 0.38743035
vt 0.78378744 0.41647899
vt 0.78594983 0.53267019
vt 0.78594983 0.53948901
vt 0.79290872 0.38743035
vt 0.79290872 0.41647899
vt 0.79357257 0.53267019
vt 0.79357257 0.53948901
vt 0.80276191 1.9035331e-2
vt 0.80276191 0.44307061
vt 0.80445943 0.99651018
vt 0.80445943 0.99651018
vt 0.80445943 0.57247490
vt 0.80445943 0.57247490
vt 0.80601013 0.55439457
vt 0.80601013 0.56428170
vt 0.81188319 1.9035331e-2
vt 0.81188319 0.44307061
vt 0.81357068 0.50528858
vt 0.81357068 0.51517571
vt 0.81393346 0.52256989
vt 0.81393346 0.52310984
vt 0.81653123 0.54757172
vt 0.81653123 0.56529985
vt 0.81738758 0.50528858
vt 0.81738758 0.51517571
vt 0.81745920 0.52663558
vt 0.81745920 0.51904415
vt 0.81812656 0.81829439
vt 0.81812656 0.81829439
vt 0.81812656 0.82571215
vt 0.81812656 0.82571215
vt 0.81834458 0.52589003
vt 0.81834458 0.53270885
vt 0.81834458 0.51910987
vt 0.81834458 0.52592869
vt 0.81898431 0.60725651
vt 0.81898431 0.60905195
vt 0.81898431 0.71767575
vt 0.81898431 0.71947118
vt 0.81978542 0.52256989
vt 0.81978542 0.52310984
vt 0.81989942 9.2915084e-2
vt 0.81989942 0.20512975
vt 0.81989942 0.20512975
vt 0.81989942 9.2915084e-2
vt 0.82077974 0.60725651
vt 0.82077974 0.60905195
vt 0.82077974 0.71767575
vt 0.82077974 0.71947118
vt 0.82098494 0.52256989
vt 0.82098494 0.52310984
vt 0.82331116 0.51904415
vt 0.82331116 0.52663558
vt 0.82641836 0.54757172
vt 0.82641836 0.56529985
vt 0.82683690 0.52256989
vt 0.82683690 0.52310984
vt 0.83076099 0.53267019
vt 0.83076099 0.53948901
vt 0.83393810 0.75454067
vt 0.83393810 0.75454067
vt 0.83393810 0.75454067
vt 0.83393810 0.81001588
vt 0.83393810 0.83399065
vt 0.83393810 0.88946586
vt 0.83393810 0.81001588
vt 0.83393810 0.83399065
vt 0.83393810 0.88946586
vt 0.83393810 0.88946586
vt 0.83453799 0.81829439
vt 0.83453799 0.82571215
vt 0.83497675 0.40145569
vt 0.83497675 0.41492614
vt 0.83497675 0.40145569
vt 0.83497675 0.41492614
vt 0.84075597 0.81829439
vt 0.84075597 0.82571215
vt 0.84135586 0.75454067
vt 0.84135586 0.75454067
vt 0.84135586 0.81001588
vt 0.84135586 0.75454067
vt 0.84135586 0.81001588
vt 0.84135586 0.83399065
vt 0.84135586 0.88946586
vt 0.84135586 0.75454067
vt 0.84135586 0.81001588
vt 0.84135586 0.83399065
vt 0.84135586 0.88946586
vt 0.84336895 0.51129629
vt 0.84336895 0.56031808
vt 0.84479813 0.83682508
vt 0.84479813 0.97175027
vt 0.84502150 0.83682508
vt 0.84502150 0.97175027
vt 0.84664250 0.39472047
vt 0.84664250 0.42166136
vt 0.84664250 0.39472047
vt 0.84664250 0.42166136
vt 0.84909892 0.24266838
vt 0.84909892 0.34253201
vt 0.84909892 0.34253201
vt 0.84909892 0.24266838
vt 0.84958480 0.46147859
vt 0.84958480 0.46343506
vt 0.84958480 0.46147859
vt 0.84958480 0.46343506
vt 0.84958480 0.46147859
vt 0.84958480 0.46343506
vt 0.84971741 0.46155911
vt 0.84971741 0.46335454
vt 0.85108907 0.63559316
vt 0.85108907 0.64548029
vt 0.85151284 0.46335454
vt 0.85151284 0.46155911
vt 0.85295717 0.52694312
vt 0.85295717 0.54467125
vt 0.85490596 0.63559316
vt 0.85490596 0.64548029
vt 0.85677406 0.52694312
vt 0.85677406 0.54467125
vt 0.85716741 0.81829439
vt 0.85716741 0.81829439
vt 0.85716741 0.82571215
vt 0.85716741 0.82571215
vt 0.85830824 0.40145569
vt 0.85830824 0.40145569
vt 0.85830824 0.41492614
vt 0.85830824 0.41492614
vt 0.85879859 0.56058448
vt 0.85879859 0.60960626
vt 0.86011983 0.86113461
vt 0.86011983 0.88510938
vt 0.86252268 0.86113461
vt 0.86252268 0.88510938
vt 0.86511202 0.67622898
vt 0.86511202 0.73032802
vt 0.86511202 0.73032802
vt 0.86633781 0.86113461
vt 0.86633781 0.88510938
vt 0.86636228 0.51129629
vt 0.86636228 0.56031808
vt 0.86868572 0.56058448
vt 0.86868572 0.60960626
vt 0.86874066 0.86113461
vt 0.86874066 0.88510938
vt 0.86945353 0.65274516
vt 0.86945353 0.65470164
vt 0.87038154 0.62703198
vt 0.87038154 0.62898846
vt 0.87051365 0.46129406
vt 0.87051365 0.49215690
vt 0.87170394 0.46160043
vt 0.87170394 0.46160043
vt 0.87170394 0.46160043
vt 0.87170394 0.49185054
vt 0.87170394 0.49185054
vt 0.87170394 0.49185054
vt 0.87296058 0.39174702
vt 0.87312315 0.38272678
vt 0.87312315 0.39437852
vt 0.87331534 0.38824800
vt 0.87331563 0.38884650
vt 0.87333228 0.38622801
vt 0.87334034 0.38010130
vt 0.87335207 0.38562982
vt 0.87343727 0.49901154
vt 0.87343727 0.52926165
vt 0.87399847 9.2915084e-2
vt 0.87399847 0.20512975
vt 0.87399847 9.2915084e-2
vt 0.87399847 0.20512975
vt 0.87442724 0.61120619
vt 0.87442724 0.61120619
vt 0.87442724 0.61316267
vt 0.87442724 0.61316267
vt 0.87442724 0.61120619
vt 0.87442724 0.61316267
vt 0.87442724 0.61120619
vt 0.87442724 0.61316267
vt 0.87783748 0.74397290
vt 0.87817412 0.79807299
vt 0.88383898 0.83682508
vt 0.88383898 0.97175027
vt 0.88406235 0.83682508
vt 0.88406235 0.97175027
vt 0.88615156 0.39089049
vt 0.88636054 0.38556316
vt 0.88664225 0.38552846
vt 0.88666261 0.39690565
vt 0.88667291 0.38494589
vt 0.88671506 0.39093241
vt 0.88673020 0.39151542
vt 0.88674285 0.37955649
vt 0.89391008 0.34253201
vt 0.89391008 0.34253201
vt 0.89391008 0.24266838
vt 0.89391008 0.24266838
vt 0.89992512 1.3667429e-2
vt 0.89992512 0.12229123
vt 0.89992512 1.3330785e-2
vt 0.89992512 0.12262787
vt 0.90968047 0.85892159
vt 0.90968047 0.87456841
vt 0.90968047 0.89229655
vt 0.90968047 0.90794337
vt 0.91121463 0.83350067
vt 0.91121463 0.83350067
vt 0.91121463 0.83350067
vt 0.91121463 0.93336429
vt 0.91121463 0.93336429
vt 0.91299318 0.13799162
vt 0.91299318 0.13799162
vt 0.91299318 0.21378656
vt 0.91299318 0.21378656
vt 0.91803345 0.83350067
vt 0.91803345 0.83350067
vt 0.91803345 0.83350067
vt 0.91803345 0.93336429
vt 0.91803345 0.93336429
vt 0.91956761 0.85892159
vt 0.91956761 0.87456841
vt 0.91956761 0.89229655
vt 0.91956761 0.90794337
vt 0.92314769 0.29135389
vt 0.92314769 0.29135389
vt 0.92317149 0.29108808
vt 0.92317149 0.29108808
vt 0.92376899 0.27415642
vt 0.92376899 0.27415642
vt 0.92389381 0.27387956
vt 0.92389381 0.27387956
vt 0.92472767 0.39475726
vt 0.92490652 0.38097338
vt 0.92497679 0.39564637
vt 0.92516668 0.38009020
vt 0.92632364 0.38961565
vt 0.92637346 0.38615385
vt 0.92637611 0.39048093
vt 0.92643603 0.38529010
vt 0.92646362 0.13799162
vt 0.92646362 0.13799162
vt 0.92646362 0.21378656
vt 0.92646362 0.21378656
vt 0.92989568 0.43836527
vt 0.92989568 0.43836527
vt 0.92989568 0.42212283
vt 0.92989568 0.42212283
vt 0.92989568 0.43836527
vt 0.93104843 0.43994608
vt 0.93104843 0.42054202
vt 0.93104843 0.43994608
vt 0.93104843 0.43994608
vt 0.93104843 0.42054202
vt 0.93104843 0.42054202
vt 0.93408918 0.39010660
vt 0.93423017 0.38761806
vt 0.93430654 0.38579600
vt 0.93437865 0.39193167
vt 0.93478232 0.39531174
vt 0.93508823 0.38244221
vt 0.93551076 0.39704888
vt 0.93560408 0.38071920
vt 0.93765275 0.29187792
vt 0.93765275 0.29187792
vt 0.93768587 0.29169731
vt 0.93768587 0.29169731
vt 0.93827405 0.27468045
vt 0.93827405 0.27468045
vt 0.93840818 0.27448880
vt 0.93840818 0.27448880
vt 0.93993406 0.13799162
vt 0.93993406 0.13799162
vt 0.93993406 0.21378656
vt 0.93993406 0.21378656
vt 0.94533506 0.29560939
vt 0.94533506 0.29560939
vt 0.94546041 0.29544535
vt 0.94546041 0.29544535
vt 0.94787242 0.83551710
vt 0.94787242 0.94576677
vt 0.94787242 0.83551710
vt 0.94787242 0.94576677
vt 0.94962622 0.39693475
vt 0.94966399 0.39741524
vt 0.94970432 0.31426806
vt 0.94970432 0.31426806
vt 0.94971724 0.31411290
vt 0.94971724 0.31411290
vt 0.94991848 0.37943683
vt 0.94995511 0.37895914
vt 0.95093011 0.39246045
vt 0.95101051 0.39291654
vt 0.95107953 0.38396025
vt 0.95116103 0.38350670
vt 0.95168790 0.35920896
vt 0.95168790 0.35920896
vt 0.95190092 0.35939302
vt 0.95190092 0.35939302
vt 0.95226272 0.28874845
vt 0.95226272 0.28874845
vt 0.95235224 0.39362089
vt 0.95241879 0.28862767
vt 0.95241879 0.28862767
vt 0.95250394 0.38386310
vt 0.95271463 0.38350470
vt 0.95276803 0.39398159
vt 0.95287092 0.37925344
vt 0.95320664 0.39828142
vt 0.95339698 0.37900628
vt 0.95340450 0.13799162
vt 0.95340450 0.13799162
vt 0.95340450 0.21378656
vt 0.95340450 0.21378656
vt 0.95344777 0.31274580
vt 0.95344777 0.31274580
vt 0.95346494 0.31261056
vt 0.95346494 0.31261056
vt 0.95395685 0.39850584
vt 0.95402521 1.3330785e-2
vt 0.95402521 0.12262787
vt 0.95402521 1.3667429e-2
vt 0.95402521 0.12229123
vt 0.95433746 0.42054202
vt 0.95433746 0.42054202
vt 0.95433746 0.43994608
vt 0.95433746 0.43994608
vt 0.95433746 0.43994608
vt 0.95433746 0.43994608
vt 0.95549021 0.42212283
vt 0.95549021 0.42212283
vt 0.95549021 0.43836527
vt 0.95549021 0.43836527
vt 0.95549021 0.42212283
vt 0.95549021 0.43836527
vt 0.95768983 0.39681852
vt 0.95776770 0.38072775
vt 0.95798835 0.40090819
vt 0.95804853 0.38069718
vt 0.95818659 0.39684456
vt 0.95847205 0.37641664
vt 0.95865768 0.40083121
vt 0.95894696 0.37650831
vt 0.96687494 0.13799162
vt 0.96687494 0.13799162
vt 0.96687494 0.21378656
vt 0.96880773 0.40052771
vt 0.96907791 0.40070193
vt 0.96935985 0.37654648
vt 0.96962053 0.37638325
vt 0.97050668 0.39629828
vt 0.97066065 0.39642430
vt 0.97074330 0.40135321
vt 0.97088438 0.38087262
vt 0.97089582 0.39698179
vt 0.97102504 0.38075392
vt 0.97117582 0.38092187
vt 0.97120001 0.39646016
vt 0.97122224 0.37655208
vt 0.97122224 0.40076633
vt 0.97124932 0.38145031
vt 0.97147189 0.37715773
vt 0.97732669 0.67622898
vt 0.97732669 0.73032802
vt 0.97781211 0.65274516
vt 0.97781211 0.65470164
vt 0.97873526 0.83551710
vt 0.97873526 0.94576677
vt 0.97873526 0.83551710
vt 0.97873526 0.94576677
vt 0.97874013 0.62703198
vt 0.97874013 0.62898846
vt 0.98006252 0.46160043
vt 0.98006252 0.46160043
vt 0.98006252 0.46160043
vt 0.98006252 0.49185054
vt 0.98006252 0.49185054
vt 0.98006252 0.49185054
vt 0.98034538 0.13799162
vt 0.98034538 0.13799162
vt 0.98034538 0.21378656
vt 0.98034538 0.21378656
vt 0.98125281 0.46129406
vt 0.98125281 0.49215690
vt 0.98179586 0.49901154
vt 0.98179586 0.52926165
vt 0.98179586 0.52926165
vt 0.98278582 0.61120619
vt 0.98278582 0.61120619
vt 0.98278582 0.61316267
vt 0.98278582 0.61316267
vt 0.98278582 0.61120619
vt 0.98278582 0.61316267
vt 0.98329985 0.40237719
vt 0.98360135 0.40222452
vt 0.98393371 0.39741041
vt 0.98410897 0.37539313
vt 0.98412318 0.39724700
vt 0.98438495 0.37556395
vt 0.98450425 0.38044799
vt 0.98466574 0.38062405
vt 0.98679792 0.79807299
vt 0.98713456 0.74397290
vt 0.99381583 0.13799162
vt 0.99381583 0.13799162
vt 0.99381583 0.21378656
vt 0.99381583 0.21378656
vn 0.84667213 -0.38511741 -0.36719325
vn 0.84667213 0.38511741 -0.36719325
vn -0.92321075 -0.36835482 0.10952918
vn -0.92321075 0.36835482 0.10952918
vn 0.35890755 -0.35455752 -0.86340855
vn 0.35890755 0.35455752 -0.86340855
vn -0.65221874 0.41115237 0.63683942
vn -0.65221874 -0.41115237 0.63683942
vn -1.2827596e-2 -0.35098443 -0.93629343
vn -1.2827596e-2 0.35098443 -0.93629343
vn -0.14568725 0.37698444 0.91469009
vn -0.14568725 -0.37698444 0.91469009
vn 0.84667213 -0.38511741 0.36719325
vn 0.84667213 0.38511741 0.36719325
vn -0.92321075 -0.36835482 -0.10952918
vn -0.92321075 0.36835482 -0.10952918
vn 0.35890755 -0.35455752 0.86340855
vn 0.35890755 0.35455752 0.86340855
vn -0.65221874 0.41115237 -0.63683942
vn -0.65221874 -0.41115237 -0.63683942
vn -1.2827596e-2 -0.35098443 0.93629343
vn -1.2827596e-2 0.35098443 0.93629343
vn -0.14568725 0.37698444 -0.91469009
vn -0.14568725 -0.37698444 -0.91469009
vn 0.0000000e+0 1.00000000 0.0000000e+0
vn 1.8588639e-15 -2.2414750e-17 -1.00000000
vn 1.8588639e-15 -2.2414750e-17 -1.00000000
vn 0.0000000e+0 1.00000000 0.0000000e+0
vn 0.86602540 -2.2414750e-17 -0.50000000
vn 0.86602540 -2.2414750e-17 -0.50000000
vn 0.0000000e+0 1.00000000 0.0000000e+0
vn 0.86602540 0.0000000e+0 0.50000000
vn 0.86602540 0.0000000e+0 0.50000000
vn 0.0000000e+0 1.00000000 0.0000000e+0
vn 1.8268146e-15 0.0000000e+0 1.00000000
vn 1.8268146e-15 0.0000000e+0 1.00000000
vn 0.0000000e+0 1.00000000 0.0000000e+0
vn -0.86602540 0.0000000e+0 0.50000000
vn -0.86602540 0.0000000e+0 0.50000000
vn 0.0000000e+0 1.00000000 0.0000000e+0
vn -0.86602540 0.0000000e+0 -0.50000000
vn -0.86602540 0.0000000e+0 -0.50000000
vn 0.0000000e+0 -1.00000000 1.3453058e-15
vn 1.8588639e-15 -2.2414750e-17 -1.00000000
vn 1.8588639e-15 -2.2414750e-17 -1.00000000
vn 0.0000000e+0 -1.00000000 1.3453058e-15
vn 0.86602540 -2.2414750e-17 -0.50000000
vn 0.86602540 -2.2414750e-17 -0.50000000
vn 0.0000000e+0 -1.00000000 1.3453058e-15
vn 0.86602540 0.0000000e+0 0.50000000
vn 0.86602540 0.0000000e+0 0.50000000
vn 0.0000000e+0 -1.00000000 1.3453058e-15
vn 1.8268146e-15 0.0000000e+0 1.00000000
vn 1.8268146e-15 0.0000000e+0 1.00000000
vn 0.0000000e+0 -1.00000000 1.3453058e-15
vn -0.86602540 0.0000000e+0 0.50000000
vn -0.86602540 0.0000000e+0 0.50000000
vn 0.0000000e+0 -1.00000000 1.3453058e-15
vn -0.86602540 0.0000000e+0 -0.50000000
vn -0.86602540 0.0000000e+0 -0.50000000
vn 0.0000000e+0 0.58919636 0.80798988
vn 0.0000000e+0 -0.80798988 0.58919636
vn -1.00000000 0.0000000e+0 0.0000000e+0
vn 0.0000000e+0 0.58919636 0.80798988
vn 0.0000000e+0 0.80798988 -0.58919636
vn -1.00000000 0.0000000e+0 0.0000000e+0
vn 0.0000000e+0 0.58919636 0.80798988
vn 1.00000000 0.0000000e+0 0.0000000e+0
vn 0.0000000e+0 0.80798988 -0.58919636
vn 0.0000000e+0 0.58919636 0.80798988
vn 1.00000000 0.0000000e+0 0.0000000e+0
vn 0.0000000e+0 -0.80798988 0.58919636
vn 0.0000000e+0 -0.80798988 0.58919636
vn 9.3486542e-17 -0.58919636 -0.80798988
vn -1.00000000 0.0000000e+0 0.0000000e+0
vn 0.0000000e+0 0.80798988 -0.58919636
vn 9.3486542e-17 -0.58919636 -0.80798988
vn -1.00000000 0.0000000e+0 0.0000000e+0
vn 1.00000000 0.0000000e+0 0.0000000e+0
vn 0.0000000e+0 0.80798988 -0.58919636
vn 9.3486542e-17 -0.58919636 -0.80798988
vn 1.00000000 0.0000000e+0 0.0000000e+0
vn 0.0000000e+0 -0.80798988 0.58919636
vn 9.3486542e-17 -0.58919636 -0.80798988
vn 0.0000000e+0 0.58919636 0.80798988
vn 0.0000000e+0 -0.80798988 0.58919636
vn -1.00000000 0.0000000e+0 0.0000000e+0
vn 0.0000000e+0 0.58919636 0.80798988
vn 0.0000000e+0 0.80798988 -0.58919636
vn -1.00000000 0.0000000e+0 0.0000000e+0
vn 0.0000000e+0 0.58919636 0.80798988
vn 1.00000000 0.0000000e+0 0.0000000e+0
vn 0.0000000e+0 0.80798988 -0.58919636
vn 0.0000000e+0 0.58919636 0.80798988
vn 1.00000000 0.0000000e+0 0.0000000e+0
vn 0.0000000e+0 -0.80798988 0.58919636
vn 0.0000000e+0 -0.80798988 0.58919636
vn 0.0000000e+0 -0.58919636 -0.80798988
vn -1.00000000 0.0000000e+0 0.0000000e+0
vn 0.0000000e+0 0.80798988 -0.58919636
vn 0.0000000e+0 -0.58919636 -0.80798988
vn -1.00000000 0.0000000e+0 0.0000000e+0
vn 1.00000000 0.0000000e+0 0.0000000e+0
vn 0.0000000e+0 0.80798988 -0.58919636
vn 0.0000000e+0 -0.58919636 -0.80798988
vn 1.00000000 0.0000000e+0 0.0000000e+0
vn 0.0000000e+0 -0.80798988 0.58919636
vn 0.0000000e+0 -0.58919636 -0.80798988
vn 0.0000000e+0 0.58919636 0.80798988
vn 0.0000000e+0 -0.80798988 0.58919636
vn -1.00000000 0.0000000e+0 0.0000000e+0
vn 0.0000000e+0 0.58919636 0.80798988
vn 0.0000000e+0 0.80798988 -0.58919636
vn -1.00000000 0.0000000e+0 0.0000000e+0
vn 0.0000000e+0 0.58919636 0.80798988
vn 1.00000000 0.0000000e+0 0.0000000e+0
vn 0.0000000e+0 0.80798988 -0.58919636
vn 0.0000000e+0 0.58919636 0.80798988
vn 1.00000000 0.0000000e+0 0.0000000e+0
vn 0.0000000e+0 -0.80798988 0.58919636
vn 0.0000000e+0 -0.80798988 0.58919636
vn -1.8697308e-16 -0.58919636 -0.80798988
vn -1.00000000 0.0000000e+0 0.0000000e+0
vn 0.0000000e+0 0.80798988 -0.58919636
vn -1.8697308e-16 -0.58919636 -0.80798988
vn -1.00000000 0.0000000e+0 0.0000000e+0
vn 1.00000000 0.0000000e+0 0.0000000e+0
vn 0.0000000e+0 0.80798988 -0.58919636
vn -1.8697308e-16 -0.58919636 -0.80798988
vn 1.00000000 0.0000000e+0 0.0000000e+0
vn 0.0000000e+0 -0.80798988 0.58919636
vn -1.8697308e-16 -0.58919636 -0.80798988
vn 0.0000000e+0 0.58919636 0.80798988
vn 0.0000000e+0 -0.80798988 0.58919636
vn -1.00000000 0.0000000e+0 0.0000000e+0
vn 0.0000000e+0 0.58919636 0.80798988
vn 0.0000000e+0 0.80798988 -0.58919636
vn -1.00000000 0.0000000e+0 0.0000000e+0
vn 0.0000000e+0 0.58919636 0.80798988
vn 1.00000000 0.0000000e+0 0.0000000e+0
vn 0.0000000e+0 0.80798988 -0.58919636
vn 0.0000000e+0 0.58919636 0.80798988
vn 1.00000000 0.0000000e+0 0.0000000e+0
vn 0.0000000e+0 -0.80798988 0.58919636
vn 0.0000000e+0 -0.80798988 0.58919636
vn 0.0000000e+0 -0.58919636 -0.80798988
vn -1.00000000 0.0000000e+0 0.0000000e+0
vn 0.0000000e+0 0.80798988 -0.58919636
vn 0.0000000e+0 -0.58919636 -0.80798988
vn -1.00000000 0.0000000e+0 0.0000000e+0
vn 1.00000000 0.0000000e+0 0.0000000e+0
vn 0.0000000e+0 0.80798988 -0.58919636
vn 0.0000000e+0 -0.58919636 -0.80798988
vn 1.00000000 0.0000000e+0 0.0000000e+0
vn 0.0000000e+0 -0.80798988 0.58919636
vn 0.0000000e+0 -0.58919636 -0.80798988
vn -1.8697308e-16 0.58919636 0.80798988
vn 0.0000000e+0 -0.80798988 0.58919636
vn -1.00000000 0.0000000e+0 0.0000000e+0
vn -1.8697308e-16 0.58919636 0.80798988
vn 0.0000000e+0 0.80798988 -0.58919636
vn -1.00000000 0.0000000e+0 0.0000000e+0
vn -1.8697308e-16 0.58919636 0.80798988
vn 1.00000000 0.0000000e+0 0.0000000e+0
vn 0.0000000e+0 0.80798988 -0.58919636
vn -1.8697308e-16 0.58919636 0.80798988
vn 1.00000000 0.0000000e+0 0.0000000e+0
vn 0.0000000e+0 -0.80798988 0.58919636
vn 0.0000000e+0 -0.80798988 0.58919636
vn -1.8697308e-16 -0.58919636 -0.80798988
vn -1.00000000 0.0000000e+0 0.0000000e+0
vn 0.0000000e+0 0.80798988 -0.58919636
vn -1.8697308e-16 -0.58919636 -0.80798988
vn -1.00000000 0.0000000e+0 0.0000000e+0
vn 1.00000000 0.0000000e+0 0.0000000e+0
vn 0.0000000e+0 0.80798988 -0.58919636
vn -1.8697308e-16 -0.58919636 -0.80798988
vn 1.00000000 0.0000000e+0 0.0000000e+0
vn 0.0000000e+0 -0.80798988 0.58919636
vn -1.8697308e-16 -0.58919636 -0.80798988
vn 0.0000000e+0 -1.00000000 0.0000000e+0
vn -1.00000000 0.0000000e+0 0.0000000e+0
vn 0.0000000e+0 0.0000000e+0 1.00000000
vn 0.0000000e+0 0.0000000e+0 1.00000000
vn 0.0000000e+0 1.00000000 0.0000000e+0
vn -1.00000000 0.0000000e+0 0.0000000e+0
vn 0.0000000e+0 0.0000000e+0 1.00000000
vn 0.0000000e+0 0.0000000e+0 1.00000000
vn 1.00000000 0.0000000e+0 0.0000000e+0
vn 0.0000000e+0 1.00000000 0.0000000e+0
vn 0.0000000e+0 0.0000000e+0 1.00000000
vn 0.0000000e+0 0.0000000e+0 1.00000000
vn 1.00000000 0.0000000e+0 0.0000000e+0
vn 0.0000000e+0 -1.00000000 0.0000000e+0
vn 0.0000000e+0 0.0000000e+0 1.00000000
vn 0.0000000e+0 0.0000000e+0 1.00000000
vn 0.0000000e+0 -1.00000000 0.0000000e+0
vn -1.00000000 0.0000000e+0 0.0000000e+0
vn 0.0000000e+0 0.0000000e+0 -1.00000000
vn 0.0000000e+0 0.0000000e+0 -1.00000000
vn 0.0000000e+0 1.00000000 0.0000000e+0
vn -1.00000000 0.0000000e+0 0.0000000e+0
vn 0.0000000e+0 0.0000000e+0 -1.00000000
vn 0.0000000e+0 0.0000000e+0 -1.00000000
vn 1.00000000 0.0000000e+0 0.0000000e+0
vn 0.0000000e+0 1.00000000 0.0000000e+0
vn 0.0000000e+0 0.0000000e+0 -1.00000000
vn 0.0000000e+0 0.0000000e+0 -1.00000000
vn 1.00000000 0.0000000e+0 0.0000000e+0
vn 0.0000000e+0 -1.00000000 0.0000000e+0
vn 0.0000000e+0 0.0000000e+0 -1.00000000
vn 0.0000000e+0 0.0000000e+0 -1.00000000
vn 0.0000000e+0 0.0000000e+0 -1.00000000
vn 0.0000000e+0 0.0000000e+0 -1.00000000
vn 0.99998064 0.0000000e+0 6.2226145e-3
vn 0.0000000e+0 0.99998064 6.2226145e-3
vn 0.0000000e+0 0.0000000e+0 -1.00000000
vn 0.0000000e+0 0.0000000e+0 -1.00000000
vn 0.0000000e+0 -0.99998064 6.2226145e-3
vn 0.99998064 0.0000000e+0 6.2226145e-3
vn 0.0000000e+0 0.0000000e+0 -1.00000000
vn 0.0000000e+0 0.0000000e+0 -1.00000000
vn -0.99998064 0.0000000e+0 6.2226145e-3
vn 0.0000000e+0 -0.99998064 6.2226145e-3
vn 0.0000000e+0 0.0000000e+0 -1.00000000
vn 0.0000000e+0 0.0000000e+0 -1.00000000
vn -0.99998064 0.0000000e+0 6.2226145e-3
vn 0.0000000e+0 0.99998064 6.2226145e-3
vn 0.0000000e+0 0.0000000e+0 1.00000000
vn 0.0000000e+0 0.0000000e+0 1.00000000
vn 0.0000000e+0 -0.99998064 6.2226145e-3
vn 0.99998064 0.0000000e+0 6.2226145e-3
vn 0.0000000e+0 0.0000000e+0 1.00000000
vn 0.0000000e+0 0.0000000e+0 1.00000000
vn 0.99998064 0.0000000e+0 6.2226145e-3
vn 0.0000000e+0 0.99998064 6.2226145e-3
vn 0.0000000e+0 0.0000000e+0 1.00000000
vn 0.0000000e+0 0.0000000e+0 1.00000000
vn -0.99998064 0.0000000e+0 6.2226145e-3
vn 0.0000000e+0 0.99998064 6.2226145e-3
vn 0.0000000e+0 0.0000000e+0 1.00000000
vn 0.0000000e+0 0.0000000e+0 1.00000000
vn -0.99998064 0.0000000e+0 6.2226145e-3
vn 0.0000000e+0 -0.99998064 6.2226145e-3
vn 1.00000000 0.0000000e+0 0.0000000e+0
vn 0.0000000e+0 -1.00000000 0.0000000e+0
vn 1.00000000 0.0000000e+0 0.0000000e+0
vn 0.0000000e+0 1.00000000 0.0000000e+0
vn 1.00000000 0.0000000e+0 0.0000000e+0
vn 0.0000000e+0 0.0000000e+0 -1.00000000
vn 0.0000000e+0 1.00000000 0.0000000e+0
vn 1.00000000 0.0000000e+0 0.0000000e+0
vn 0.0000000e+0 0.0000000e+0 -1.00000000
vn 0.0000000e+0 -1.00000000 0.0000000e+0
vn 0.0000000e+0 -1.00000000 0.0000000e+0
vn -1.00000000 0.0000000e+0 0.0000000e+0
vn 0.0000000e+0 1.00000000 0.0000000e+0
vn -1.00000000 0.0000000e+0 0.0000000e+0
vn 0.0000000e+0 0.0000000e+0 -1.00000000
vn 0.0000000e+0 1.00000000 0.0000000e+0
vn -1.00000000 0.0000000e+0 0.0000000e+0
vn 0.0000000e+0 0.0000000e+0 -1.00000000
vn 0.0000000e+0 -1.00000000 0.0000000e+0
vn -1.00000000 0.0000000e+0 0.0000000e+0
vn -4.0382435e-2 -0.98933513 -0.13994735
vn -4.0382435e-2 -0.98933513 -0.13994735
vn 0.63046435 -0.70663120 -0.32122742
vn 0.63046435 -0.70663120 -0.32122742
vn -4.0382435e-2 0.98933513 -0.13994735
vn -4.0382435e-2 0.98933513 -0.13994735
vn 0.63046435 0.70663120 -0.32122742
vn 0.63046435 0.70663120 -0.32122742
vn 0.92387953 0.38268343 0.0000000e+0
vn 0.92387953 0.38268343 0.0000000e+0
vn 0.0000000e+0 1.00000000 0.0000000e+0
vn 0.70710678 0.70710678 0.0000000e+0
vn 0.92387953 -0.38268343 0.0000000e+0
vn 0.92387953 -0.38268343 0.0000000e+0
vn 0.0000000e+0 -1.00000000 0.0000000e+0
vn 0.70710678 -0.70710678 0.0000000e+0
vn -4.0382435e-2 -0.98933513 -0.13994735
vn -4.0382435e-2 -0.98933513 -0.13994735
vn -0.73889817 -0.67343309 -2.2745646e-2
vn -0.73889817 -0.67343309 -2.2745646e-2
vn -4.0382435e-2 0.98933513 -0.13994735
vn -4.0382435e-2 0.98933513 -0.13994735
vn -0.73889817 0.67343309 -2.2745646e-2
vn -0.73889817 0.67343309 -2.2745646e-2
vn 0.0000000e+0 1.00000000 0.0000000e+0
vn -0.70710678 0.70710678 5.4642385e-16
vn -0.92387953 0.38268343 2.9572246e-16
vn -0.92387953 0.38268343 2.9572246e-16
vn -0.92387953 -0.38268343 0.0000000e+0
vn -0.92387953 -0.38268343 0.0000000e+0
vn 0.0000000e+0 -1.00000000 0.0000000e+0
vn -0.70710678 -0.70710678 0.0000000e+0
vn -0.10131202 -0.97716487 -0.18677442
vn -0.10131202 -0.97716487 -0.18677442
vn 0.23630266 -0.65122118 -0.72116020
vn 0.23630266 -0.65122118 -0.72116020
vn -0.10131202 0.97716487 -0.18677442
vn -0.10131202 0.97716487 -0.18677442
vn 0.23630266 0.65122118 -0.72116020
vn 0.23630266 0.65122118 -0.72116020
vn -0.10131202 0.97716487 -0.18677442
vn -0.10131202 0.97716487 -0.18677442
vn -0.57014891 0.74197940 0.35269928
vn -0.57014891 0.74197940 0.35269928
vn -0.10131202 -0.97716487 -0.18677442
vn -0.10131202 -0.97716487 -0.18677442
vn -0.57014891 -0.74197940 0.35269928
vn -0.57014891 -0.74197940 0.35269928
vn -8.0118202e-2 -0.99525674 -5.5182396e-2
vn -8.0118202e-2 -0.99525674 -5.5182396e-2
vn -4.1329254e-2 -0.65689913 -0.75284489
vn -4.1329254e-2 -0.65689913 -0.75284489
vn -8.0118202e-2 0.99525674 -5.5182396e-2
vn -8.0118202e-2 0.99525674 -5.5182396e-2
vn -4.1329254e-2 0.65689913 -0.75284489
vn -4.1329254e-2 0.65689913 -0.75284489
vn -8.0118202e-2 0.99525674 -5.5182396e-2
vn -8.0118202e-2 0.99525674 -5.5182396e-2
vn -0.15486835 0.69828031 0.69887081
vn -0.15486835 0.69828031 0.69887081
vn -8.0118202e-2 -0.99525674 -5.5182396e-2
vn -8.0118202e-2 -0.99525674 -5.5182396e-2
vn -0.15486835 -0.69828031 0.69887081
vn -0.15486835 -0.69828031 0.69887081
vn -1.00000000 0.0000000e+0 0.0000000e+0
vn -4.6438874e-2 -0.37051772 -0.92766376
vn -4.6438874e-2 -0.37051772 -0.92766376
vn -1.00000000 0.0000000e+0 0.0000000e+0
vn -3.8154043e-2 -0.99915604 -1.5214201e-2
vn -5.2324979e-2 -0.68820355 -0.72362833
vn -5.5625976e-2 -0.69843542 0.71350803
vn -1.00000000 0.0000000e+0 0.0000000e+0
vn -4.6438874e-2 0.37051772 -0.92766376
vn -4.6438874e-2 0.37051772 -0.92766376
vn -1.00000000 0.0000000e+0 0.0000000e+0
vn -5.0069756e-2 0.37711080 0.92481374
vn -5.0069756e-2 0.37711080 0.92481374
vn -1.00000000 0.0000000e+0 0.0000000e+0
vn -3.8154043e-2 0.99915604 -1.5214201e-2
vn -5.2324979e-2 0.68820355 -0.72362833
vn -5.5625976e-2 0.69843542 0.71350803
vn -1.00000000 0.0000000e+0 0.0000000e+0
vn -5.0069756e-2 -0.37711080 0.92481374
vn -5.0069756e-2 -0.37711080 0.92481374
vn 1.00000000 0.0000000e+0 0.0000000e+0
vn 0.0000000e+0 -1.00000000 0.0000000e+0
vn 0.0000000e+0 0.0000000e+0 -1.00000000
vn 0.0000000e+0 0.0000000e+0 -1.00000000
vn 1.00000000 0.0000000e+0 0.0000000e+0
vn 0.0000000e+0 1.00000000 0.0000000e+0
vn 0.0000000e+0 0.0000000e+0 -1.00000000
vn 0.0000000e+0 0.0000000e+0 -1.00000000
vn 1.00000000 0.0000000e+0 0.0000000e+0
vn 0.0000000e+0 1.00000000 0.0000000e+0
vn 1.00000000 0.0000000e+0 0.0000000e+0
vn 0.0000000e+0 -1.00000000 0.0000000e+0
vn 0.0000000e+0 -1.00000000 0.0000000e+0
vn -1.00000000 0.0000000e+0 0.0000000e+0
vn 0.0000000e+0 0.0000000e+0 -1.00000000
vn 0.0000000e+0 0.0000000e+0 -1.00000000
vn 0.0000000e+0 1.00000000 0.0000000e+0
vn -1.00000000 0.0000000e+0 0.0000000e+0
vn 0.0000000e+0 0.0000000e+0 -1.00000000
vn 0.0000000e+0 0.0000000e+0 -1.00000000
vn 0.0000000e+0 1.00000000 0.0000000e+0
vn -1.00000000 0.0000000e+0 0.0000000e+0
vn 0.0000000e+0 -1.00000000 0.0000000e+0
vn -1.00000000 0.0000000e+0 0.0000000e+0
vn -1.00000000 0.0000000e+0 0.0000000e+0
vn 0.0000000e+0 -1.00000000 0.0000000e+0
vn -1.00000000 0.0000000e+0 0.0000000e+0
vn 0.0000000e+0 1.00000000 0.0000000e+0
vn 1.00000000 0.0000000e+0 0.0000000e+0
vn 0.0000000e+0 1.00000000 0.0000000e+0
vn 0.0000000e+0 -1.00000000 0.0000000e+0
vn 1.00000000 0.0000000e+0 0.0000000e+0
vn 0.0000000e+0 0.0000000e+0 -1.00000000
vn 0.0000000e+0 0.0000000e+0 -1.00000000
vn -1.00000000 0.0000000e+0 0.0000000e+0
vn 0.0000000e+0 1.00000000 0.0000000e+0
vn 0.0000000e+0 0.0000000e+0 -1.00000000
vn 0.0000000e+0 0.0000000e+0 -1.00000000
vn -1.00000000 0.0000000e+0 0.0000000e+0
vn 0.0000000e+0 -1.00000000 0.0000000e+0
vn 0.0000000e+0 0.0000000e+0 -1.00000000
vn 0.0000000e+0 0.0000000e+0 -1.00000000
vn 0.0000000e+0 -1.00000000 0.0000000e+0
vn 1.00000000 0.0000000e+0 0.0000000e+0
vn 0.0000000e+0 0.0000000e+0 -1.00000000
vn 0.0000000e+0 0.0000000e+0 -1.00000000
vn 1.00000000 0.0000000e+0 0.0000000e+0
vn 0.0000000e+0 1.00000000 0.0000000e+0
vn 1.00000000 0.0000000e+0 0.0000000e+0
vn 0.0000000e+0 -1.00000000 0.0000000e+0
vn 0.0000000e+0 0.0000000e+0 1.00000000
vn 0.0000000e+0 0.0000000e+0 1.00000000
vn 1.00000000 0.0000000e+0 0.0000000e+0
vn 0.0000000e+0 1.00000000 0.0000000e+0
vn 0.0000000e+0 0.0000000e+0 1.00000000
vn 0.0000000e+0 0.0000000e+0 1.00000000
vn 1.00000000 0.0000000e+0 0.0000000e+0
vn 0.0000000e+0 1.00000000 0.0000000e+0
vn 0.0000000e+0 0.0000000e+0 -1.00000000
vn 0.0000000e+0 0.0000000e+0 -1.00000000
vn 1.00000000 0.0000000e+0 0.0000000e+0
vn 0.0000000e+0 -1.00000000 0.0000000e+0
vn 0.0000000e+0 0.0000000e+0 -1.00000000
vn 0.0000000e+0 0.0000000e+0 -1.00000000
vn 0.0000000e+0 -1.00000000 0.0000000e+0
vn -1.00000000 0.0000000e+0 0.0000000e+0
vn 0.0000000e+0 0.0000000e+0 1.00000000
vn 0.0000000e+0 0.0000000e+0 1.00000000
vn 0.0000000e+0 1.00000000 0.0000000e+0
vn -1.00000000 0.0000000e+0 0.0000000e+0
vn 0.0000000e+0 0.0000000e+0 1.00000000
vn 0.0000000e+0 0.0000000e+0 1.00000000
vn 0.0000000e+0 1.00000000 0.0000000e+0
vn -1.00000000 0.0000000e+0 0.0000000e+0
vn 0.0000000e+0 0.0000000e+0 -1.00000000
vn 0.0000000e+0 0.0000000e+0 -1.00000000
vn 0.0000000e+0 -1.00000000 0.0000000e+0
vn -1.00000000 0.0000000e+0 0.0000000e+0
vn 0.0000000e+0 0.0000000e+0 -1.00000000
vn 0.0000000e+0 0.0000000e+0 -1.00000000
vn 0.0000000e+0 0.0000000e+0 -1.00000000
vn 0.0000000e+0 0.0000000e+0 -1.00000000
vn 0.0000000e+0 1.00000000 0.0000000e+0
vn -1.00000000 0.0000000e+0 0.0000000e+0
vn 0.0000000e+0 0.0000000e+0 -1.00000000
vn 0.0000000e+0 0.0000000e+0 -1.00000000
vn 0.0000000e+0 1.00000000 0.0000000e+0
vn 1.00000000 0.0000000e+0 0.0000000e+0
vn 0.0000000e+0 0.0000000e+0 -1.00000000
vn 0.0000000e+0 0.0000000e+0 -1.00000000
vn 1.00000000 0.0000000e+0 0.0000000e+0
vn 0.0000000e+0 -1.00000000 0.0000000e+0
vn 0.0000000e+0 0.0000000e+0 -1.00000000
vn 0.0000000e+0 0.0000000e+0 -1.00000000
vn 0.0000000e+0 -1.00000000 0.0000000e+0
vn -1.00000000 0.0000000e+0 0.0000000e+0
vn 0.0000000e+0 0.0000000e+0 1.00000000
vn 0.0000000e+0 0.0000000e+0 1.00000000
vn 0.0000000e+0 -1.00000000 0.0000000e+0
vn -1.00000000 0.0000000e+0 0.0000000e+0
vn 0.0000000e+0 0.0000000e+0 1.00000000
vn 0.0000000e+0 0.0000000e+0 1.00000000
vn 0.0000000e+0 -1.00000000 0.0000000e+0
vn 1.00000000 0.0000000e+0 0.0000000e+0
vn 0.0000000e+0 0.0000000e+0 1.00000000
vn 0.0000000e+0 0.0000000e+0 1.00000000
vn 1.00000000 0.0000000e+0 0.0000000e+0
vn 0.0000000e+0 1.00000000 0.0000000e+0
vn 0.0000000e+0 0.0000000e+0 1.00000000
vn 0.0000000e+0 0.0000000e+0 1.00000000
vn 0.0000000e+0 1.00000000 0.0000000e+0
vn -1.00000000 0.0000000e+0 0.0000000e+0
vn 0.0000000e+0 1.00000000 0.0000000e+0
vn -1.00000000 0.0000000e+0 0.0000000e+0
vn 0.0000000e+0 0.0000000e+0 -1.00000000
vn 0.0000000e+0 0.0000000e+0 -1.00000000
vn 0.0000000e+0 1.00000000 0.0000000e+0
vn 1.00000000 0.0000000e+0 0.0000000e+0
vn 0.0000000e+0 0.0000000e+0 -1.00000000
vn 0.0000000e+0 0.0000000e+0 -1.00000000
vn 1.00000000 0.0000000e+0 0.0000000e+0
vn 0.0000000e+0 -1.00000000 0.0000000e+0
vn 0.0000000e+0 0.0000000e+0 -1.00000000
vn 0.0000000e+0 0.0000000e+0 -1.00000000
vn 0.0000000e+0 -1.00000000 0.0000000e+0
vn -1.00000000 0.0000000e+0 0.0000000e+0
vn 0.0000000e+0 0.0000000e+0 -1.00000000
vn 0.0000000e+0 0.0000000e+0 -1.00000000
vn 0.0000000e+0 -1.00000000 0.0000000e+0
vn -1.00000000 0.0000000e+0 0.0000000e+0
vn 0.0000000e+0 -8.3226944e-19 1.00000000
vn 0.0000000e+0 -8.3226944e-19 1.00000000
vn 0.0000000e+0 -1.00000000 0.0000000e+0
vn 1.00000000 0.0000000e+0 0.0000000e+0
vn 0.0000000e+0 -8.3226944e-19 1.00000000
vn 0.0000000e+0 -8.3226944e-19 1.00000000
vn 1.00000000 0.0000000e+0 0.0000000e+0
vn 0.0000000e+0 1.00000000 0.0000000e+0
vn 0.0000000e+0 1.2997007e-17 1.00000000
vn 0.0000000e+0 1.2997007e-17 1.00000000
vn 0.0000000e+0 1.00000000 0.0000000e+0
vn -1.00000000 0.0000000e+0 0.0000000e+0
vn 0.0000000e+0 1.2997007e-17 1.00000000
vn 0.0000000e+0 1.2997007e-17 1.00000000
vn 0.0000000e+0 0.0000000e+0 -1.00000000
vn 0.0000000e+0 0.0000000e+0 -1.00000000
vn 0.0000000e+0 -1.00000000 0.0000000e+0
vn 1.00000000 0.0000000e+0 0.0000000e+0
vn 0.0000000e+0 0.0000000e+0 -1.00000000
vn 0.0000000e+0 0.0000000e+0 -1.00000000
vn -1.00000000 0.0000000e+0 0.0000000e+0
vn 0.0000000e+0 -1.00000000 0.0000000e+0
vn 0.0000000e+0 0.0000000e+0 -1.00000000
vn 0.0000000e+0 0.0000000e+0 -1.00000000
vn 0.0000000e+0 1.00000000 0.0000000e+0
vn -1.00000000 0.0000000e+0 0.0000000e+0
vn 0.0000000e+0 0.0000000e+0 -1.00000000
vn 0.0000000e+0 0.0000000e+0 -1.00000000
vn 0.0000000e+0 1.00000000 0.0000000e+0
vn 1.00000000 0.0000000e+0 0.0000000e+0
vn 0.0000000e+0 -8.3226944e-19 1.00000000
vn 0.0000000e+0 -8.3226944e-19 1.00000000
vn 0.0000000e+0 1.00000000 0.0000000e+0
vn 1.00000000 0.0000000e+0 0.0000000e+0
vn 0.0000000e+0 -8.3226944e-19 1.00000000
vn 0.0000000e+0 -8.3226944e-19 1.00000000
vn 0.0000000e+0 1.00000000 0.0000000e+0
vn -1.00000000 0.0000000e+0 0.0000000e+0
vn 0.0000000e+0 1.2997007e-17 1.00000000
vn 0.0000000e+0 1.2997007e-17 1.00000000
vn -1.00000000 0.0000000e+0 0.0000000e+0
vn 0.0000000e+0 -1.00000000 0.0000000e+0
vn 0.0000000e+0 1.2997007e-17 1.00000000
vn 0.0000000e+0 1.2997007e-17 1.00000000
vn 0.0000000e+0 -1.00000000 0.0000000e+0
vn 1.00000000 0.0000000e+0 0.0000000e+0
vn 1.00000000 0.0000000e+0 0.0000000e+0
vn 0.0000000e+0 -1.00000000 0.0000000e+0
vn 1.00000000 0.0000000e+0 0.0000000e+0
vn 0.0000000e+0 1.00000000 0.0000000e+0
vn 1.00000000 0.0000000e+0 0.0000000e+0
vn 0.0000000e+0 0.0000000e+0 -1.00000000
vn 0.0000000e+0 1.00000000 0.0000000e+0
vn 1.00000000 0.0000000e+0 0.0000000e+0
vn 0.0000000e+0 0.0000000e+0 -1.00000000
vn 0.0000000e+0 -1.00000000 0.0000000e+0
vn 0.0000000e+0 -1.00000000 0.0000000e+0
vn -1.00000000 0.0000000e+0 0.0000000e+0
vn 0.0000000e+0 1.00000000 0.0000000e+0
vn -1.00000000 0.0000000e+0 0.0000000e+0
vn 0.0000000e+0 0.0000000e+0 -1.00000000
vn 0.0000000e+0 1.00000000 0.0000000e+0
vn -1.00000000 0.0000000e+0 0.0000000e+0
vn 0.0000000e+0 0.0000000e+0 -1.00000000
vn 0.0000000e+0 -1.00000000 0.0000000e+0
vn -1.00000000 0.0000000e+0 0.0000000e+0
vn 1.00000000 0.0000000e+0 0.0000000e+0
vn 0.0000000e+0 -1.00000000 0.0000000e+0
vn 1.00000000 0.0000000e+0 0.0000000e+0
vn 0.0000000e+0 1.00000000 0.0000000e+0
vn 1.00000000 0.0000000e+0 0.0000000e+0
vn 0.0000000e+0 1.00000000 0.0000000e+0
vn 0.0000000e+0 0.0000000e+0 -1.00000000
vn 0.0000000e+0 0.0000000e+0 -1.00000000
vn 1.00000000 0.0000000e+0 0.0000000e+0
vn 0.0000000e+0 -1.00000000 0.0000000e+0
vn 0.0000000e+0 0.0000000e+0 -1.00000000
vn 0.0000000e+0 0.0000000e+0 -1.00000000
vn 0.0000000e+0 -1.00000000 0.0000000e+0
vn -1.00000000 0.0000000e+0 0.0000000e+0
vn 0.0000000e+0 1.00000000 0.0000000e+0
vn -1.00000000 0.0000000e+0 0.0000000e+0
vn 0.0000000e+0 1.00000000 0.0000000e+0
vn -1.00000000 0.0000000e+0 0.0000000e+0
vn 0.0000000e+0 0.0000000e+0 -1.00000000
vn 0.0000000e+0 0.0000000e+0 -1.00000000
vn 0.0000000e+0 -1.00000000 0.0000000e+0
vn -1.00000000 0.0000000e+0 0.0000000e+0
vn 0.0000000e+0 0.0000000e+0 -1.00000000
vn 0.0000000e+0 0.0000000e+0 -1.00000000
vn 0.0000000e+0 0.0000000e+0 -1.00000000
vn 0.0000000e+0 0.0000000e+0 -1.00000000
vn -1.00000000 0.0000000e+0 0.0000000e+0
vn 0.0000000e+0 -1.00000000 0.0000000e+0
vn 0.0000000e+0 0.0000000e+0 -1.00000000
vn 0.0000000e+0 0.0000000e+0 -1.00000000
vn -1.00000000 0.0000000e+0 0.0000000e+0
vn 0.0000000e+0 1.00000000 0.0000000e+0
vn 0.0000000e+0 0.0000000e+0 -1.00000000
vn 0.0000000e+0 0.0000000e+0 -1.00000000
vn 1.00000000 0.0000000e+0 0.0000000e+0
vn 0.0000000e+0 1.00000000 0.0000000e+0
vn 0.0000000e+0 0.0000000e+0 -1.00000000
vn 0.0000000e+0 0.0000000e+0 -1.00000000
vn 0.0000000e+0 -1.00000000 0.0000000e+0
vn 1.00000000 0.0000000e+0 0.0000000e+0
vn -1.00000000 0.0000000e+0 0.0000000e+0
vn 0.0000000e+0 1.00000000 0.0000000e+0
vn -1.00000000 0.0000000e+0 0.0000000e+0
vn 0.0000000e+0 -1.00000000 0.0000000e+0
vn 0.0000000e+0 -1.00000000 0.0000000e+0
vn 1.00000000 0.0000000e+0 0.0000000e+0
vn 1.00000000 0.0000000e+0 0.0000000e+0
vn 0.0000000e+0 1.00000000 0.0000000e+0
vn -4.0382435e-2 -0.98933513 0.13994735
vn -4.0382435e-2 -0.98933513 0.13994735
vn 0.63046435 -0.70663120 0.32122742
vn 0.63046435 -0.70663120 0.32122742
vn -4.0382435e-2 0.98933513 0.13994735
vn -4.0382435e-2 0.98933513 0.13994735
vn 0.63046435 0.70663120 0.32122742
vn 0.63046435 0.70663120 0.32122742
vn 0.92387953 0.38268343 0.0000000e+0
vn 0.92387953 0.38268343 0.0000000e+0
vn 0.0000000e+0 1.00000000 0.0000000e+0
vn 0.70710678 0.70710678 0.0000000e+0
vn 0.92387953 -0.38268343 0.0000000e+0
vn 0.92387953 -0.38268343 0.0000000e+0
vn 0.0000000e+0 -1.00000000 0.0000000e+0
vn 0.70710678 -0.70710678 0.0000000e+0
vn -4.0382435e-2 -0.98933513 0.13994735
vn -4.0382435e-2 -0.98933513 0.13994735
vn -0.73889817 -0.67343309 2.2745646e-2
vn -0.73889817 -0.67343309 2.2745646e-2
vn -4.0382435e-2 0.98933513 0.13994735
vn -4.0382435e-2 0.98933513 0.13994735
vn -0.73889817 0.67343309 2.2745646e-2
vn -0.73889817 0.67343309 2.2745646e-2
vn 0.0000000e+0 1.00000000 0.0000000e+0
vn -0.70710678 0.70710678 -5.4642385e-16
vn -0.92387953 0.38268343 -2.9572246e-16
vn -0.92387953 0.38268343 -2.9572246e-16
vn -0.92387953 -0.38268343 0.0000000e+0
vn -0.92387953 -0.38268343 0.0000000e+0
vn 0.0000000e+0 -1.00000000 0.0000000e+0
vn -0.70710678 -0.70710678 0.0000000e+0
vn -0.10131202 -0.97716487 0.18677442
vn -0.10131202 -0.97716487 0.18677442
vn 0.23630266 -0.65122118 0.72116020
vn 0.23630266 -0.65122118 0.72116020
vn -0.10131202 0.97716487 0.18677442
vn -0.10131202 0.97716487 0.18677442
vn 0.23630266 0.65122118 0.72116020
vn 0.23630266 0.65122118 0.72116020
vn -0.10131202 0.97716487 0.18677442
vn -0.10131202 0.97716487 0.18677442
vn -0.57014891 0.74197940 -0.35269928
vn -0.57014891 0.74197940 -0.35269928
vn -0.10131202 -0.97716487 0.18677442
vn -0.10131202 -0.97716487 0.18677442
vn -0.57014891 -0.74197940 -0.35269928
vn -0.57014891 -0.74197940 -0.35269928
vn -8.0118202e-2 -0.99525674 5.5182396e-2
vn -8.0118202e-2 -0.99525674 5.5182396e-2
vn -4.1329254e-2 -0.65689913 0.75284489
vn -4.1329254e-2 -0.65689913 0.75284489
vn -8.0118202e-2 0.99525674 5.5182396e-2
vn -8.0118202e-2 0.99525674 5.5182396e-2
vn -4.1329254e-2 0.65689913 0.75284489
vn -4.1329254e-2 0.65689913 0.75284489
vn -8.0118202e-2 0.99525674 5.5182396e-2
vn -8.0118202e-2 0.99525674 5.5182396e-2
vn -0.15486835 0.69828031 -0.69887081
vn -0.15486835 0.69828031 -0.69887081
vn -8.0118202e-2 -0.99525674 5.5182396e-2
vn -8.0118202e-2 -0.99525674 5.5182396e-2
vn -0.15486835 -0.69828031 -0.69887081
vn -0.15486835 -0.69828031 -0.69887081
vn -1.00000000 1.3826202e-15 0.0000000e+0
vn -4.6438874e-2 -0.37051772 0.92766376
vn -4.6438874e-2 -0.37051772 0.92766376
vn -1.00000000 1.3826202e-15 0.0000000e+0
vn -3.8154043e-2 -0.99915604 1.5214201e-2
vn -5.2324979e-2 -0.68820355 0.72362833
vn -5.5625976e-2 -0.69843542 -0.71350803
vn -1.00000000 1.3826202e-15 0.0000000e+0
vn -4.6438874e-2 0.37051772 0.92766376
vn -4.6438874e-2 0.37051772 0.92766376
vn -1.00000000 1.3826202e-15 0.0000000e+0
vn -5.0069756e-2 0.37711080 -0.92481374
vn -5.0069756e-2 0.37711080 -0.92481374
vn -1.00000000 1.3826202e-15 0.0000000e+0
vn -3.8154043e-2 0.99915604 1.5214201e-2
vn -5.2324979e-2 0.68820355 0.72362833
vn -5.5625976e-2 0.69843542 -0.71350803
vn -1.00000000 1.3826202e-15 0.0000000e+0
vn -5.0069756e-2 -0.37711080 -0.92481374
vn -5.0069756e-2 -0.37711080 -0.92481374
vn 1.00000000 0.0000000e+0 0.0000000e+0
vn 0.0000000e+0 -1.00000000 0.0000000e+0
vn 0.0000000e+0 -3.6027704e-17 1.00000000
vn 0.0000000e+0 -3.6027704e-17 1.00000000
vn 1.00000000 0.0000000e+0 0.0000000e+0
vn 0.0000000e+0 1.00000000 0.0000000e+0
vn 0.0000000e+0 1.0108583e-17 1.00000000
vn 0.0000000e+0 1.0108583e-17 1.00000000
vn 1.00000000 0.0000000e+0 0.0000000e+0
vn 0.0000000e+0 1.00000000 0.0000000e+0
vn 1.00000000 0.0000000e+0 0.0000000e+0
vn 0.0000000e+0 -1.00000000 0.0000000e+0
vn 0.0000000e+0 -1.00000000 0.0000000e+0
vn -1.00000000 0.0000000e+0 0.0000000e+0
vn 0.0000000e+0 -3.6027704e-17 1.00000000
vn 0.0000000e+0 -3.6027704e-17 1.00000000
vn 0.0000000e+0 1.00000000 0.0000000e+0
vn -1.00000000 0.0000000e+0 0.0000000e+0
vn 0.0000000e+0 1.0108583e-17 1.00000000
vn 0.0000000e+0 1.0108583e-17 1.00000000
vn 0.0000000e+0 1.00000000 0.0000000e+0
vn -1.00000000 0.0000000e+0 0.0000000e+0
vn 0.0000000e+0 -1.00000000 0.0000000e+0
vn -1.00000000 0.0000000e+0 0.0000000e+0
vn -1.00000000 0.0000000e+0 0.0000000e+0
vn 0.0000000e+0 -1.00000000 0.0000000e+0
vn -1.00000000 0.0000000e+0 0.0000000e+0
vn 0.0000000e+0 1.00000000 0.0000000e+0
vn 1.00000000 0.0000000e+0 0.0000000e+0
vn 0.0000000e+0 1.00000000 0.0000000e+0
vn 0.0000000e+0 -1.00000000 0.0000000e+0
vn 1.00000000 0.0000000e+0 0.0000000e+0
vn 0.0000000e+0 -3.6027704e-17 1.00000000
vn 0.0000000e+0 -3.6027704e-17 1.00000000
vn -1.00000000 0.0000000e+0 0.0000000e+0
vn 0.0000000e+0 1.00000000 0.0000000e+0
vn 0.0000000e+0 1.0108583e-17 1.00000000
vn 0.0000000e+0 1.0108583e-17 1.00000000
vn -1.00000000 0.0000000e+0 0.0000000e+0
vn 0.0000000e+0 -1.00000000 0.0000000e+0
vn 0.0000000e+0 1.0108583e-17 1.00000000
vn 0.0000000e+0 1.0108583e-17 1.00000000
vn 0.0000000e+0 -1.00000000 0.0000000e+0
vn 1.00000000 0.0000000e+0 0.0000000e+0
vn 0.0000000e+0 -3.6027704e-17 1.00000000
vn 0.0000000e+0 -3.6027704e-17 1.00000000
vn 1.00000000 0.0000000e+0 0.0000000e+0
vn 0.0000000e+0 1.00000000 0.0000000e+0
vn 1.00000000 0.0000000e+0 0.0000000e+0
vn 0.0000000e+0 -1.00000000 0.0000000e+0
vn 0.0000000e+0 0.0000000e+0 1.00000000
vn 1.00000000 0.0000000e+0 0.0000000e+0
vn 0.0000000e+0 1.00000000 0.0000000e+0
vn 0.0000000e+0 0.0000000e+0 1.00000000
vn 1.00000000 0.0000000e+0 0.0000000e+0
vn 0.0000000e+0 1.00000000 0.0000000e+0
vn 1.00000000 0.0000000e+0 0.0000000e+0
vn 0.0000000e+0 -1.00000000 0.0000000e+0
vn 0.0000000e+0 -1.00000000 0.0000000e+0
vn -1.00000000 0.0000000e+0 0.0000000e+0
vn 0.0000000e+0 0.0000000e+0 1.00000000
vn 0.0000000e+0 1.00000000 0.0000000e+0
vn -1.00000000 0.0000000e+0 0.0000000e+0
vn 0.0000000e+0 0.0000000e+0 1.00000000
vn 0.0000000e+0 1.00000000 0.0000000e+0
vn -1.00000000 0.0000000e+0 0.0000000e+0
vn 0.0000000e+0 -1.00000000 0.0000000e+0
vn -1.00000000 0.0000000e+0 0.0000000e+0
vn 1.00000000 0.0000000e+0 0.0000000e+0
vn 0.0000000e+0 -1.00000000 0.0000000e+0
vn 0.0000000e+0 0.0000000e+0 1.00000000
vn 1.00000000 0.0000000e+0 0.0000000e+0
vn 0.0000000e+0 1.00000000 0.0000000e+0
vn 0.0000000e+0 0.0000000e+0 1.00000000
vn 1.00000000 0.0000000e+0 0.0000000e+0
vn 0.0000000e+0 1.00000000 0.0000000e+0
vn 1.00000000 0.0000000e+0 0.0000000e+0
vn 0.0000000e+0 -1.00000000 0.0000000e+0
vn 0.0000000e+0 -1.00000000 0.0000000e+0
vn -1.00000000 0.0000000e+0 0.0000000e+0
vn 0.0000000e+0 0.0000000e+0 1.00000000
vn 0.0000000e+0 1.00000000 0.0000000e+0
vn -1.00000000 0.0000000e+0 0.0000000e+0
vn 0.0000000e+0 0.0000000e+0 1.00000000
vn 0.0000000e+0 1.00000000 0.0000000e+0
vn -1.00000000 0.0000000e+0 0.0000000e+0
vn 0.0000000e+0 -1.00000000 0.0000000e+0
vn -1.00000000 0.0000000e+0 0.0000000e+0
vn 1.00000000 0.0000000e+0 0.0000000e+0
vn 0.0000000e+0 -1.00000000 0.0000000e+0
vn 1.00000000 0.0000000e+0 0.0000000e+0
vn 0.0000000e+0 1.00000000 0.0000000e+0
vn 1.00000000 0.0000000e+0 0.0000000e+0
vn 0.0000000e+0 0.0000000e+0 -1.00000000
vn 0.0000000e+0 1.00000000 0.0000000e+0
vn 1.00000000 0.0000000e+0 0.0000000e+0
vn 0.0000000e+0 0.0000000e+0 -1.00000000
vn 0.0000000e+0 -1.00000000 0.0000000e+0
vn 0.0000000e+0 -1.00000000 0.0000000e+0
vn -1.00000000 0.0000000e+0 0.0000000e+0
vn 0.0000000e+0 1.00000000 0.0000000e+0
vn -1.00000000 0.0000000e+0 0.0000000e+0
vn 0.0000000e+0 0.0000000e+0 -1.00000000
vn 0.0000000e+0 1.00000000 0.0000000e+0
vn -1.00000000 0.0000000e+0 0.0000000e+0
vn 0.0000000e+0 0.0000000e+0 -1.00000000
vn 0.0000000e+0 -1.00000000 0.0000000e+0
vn -1.00000000 0.0000000e+0 0.0000000e+0
vn 1.00000000 0.0000000e+0 0.0000000e+0
vn 0.0000000e+0 -1.00000000 0.0000000e+0
vn 1.00000000 0.0000000e+0 0.0000000e+0
vn 0.0000000e+0 1.00000000 0.0000000e+0
vn 1.00000000 0.0000000e+0 0.0000000e+0
vn 0.0000000e+0 0.0000000e+0 -1.00000000
vn 0.0000000e+0 1.00000000 0.0000000e+0
vn 1.00000000 0.0000000e+0 0.0000000e+0
vn 0.0000000e+0 0.0000000e+0 -1.00000000
vn 0.0000000e+0 -1.00000000 0.0000000e+0
vn 0.0000000e+0 -1.00000000 0.0000000e+0
vn -1.00000000 0.0000000e+0 0.0000000e+0
vn 0.0000000e+0 1.00000000 0.0000000e+0
vn -1.00000000 0.0000000e+0 0.0000000e+0
vn 0.0000000e+0 0.0000000e+0 -1.00000000
vn 0.0000000e+0 1.00000000 0.0000000e+0
vn -1.00000000 0.0000000e+0 0.0000000e+0
vn 0.0000000e+0 0.0000000e+0 -1.00000000
vn 0.0000000e+0 -1.00000000 0.0000000e+0
vn -1.00000000 0.0000000e+0 0.0000000e+0
vn 0.0000000e+0 1.00000000 0.0000000e+0
vn 1.8588639e-15 -2.2414750e-17 -1.00000000
vn 1.8588639e-15 -2.2414750e-17 -1.00000000
vn 0.0000000e+0 1.00000000 0.0000000e+0
vn 0.86602540 -2.2414750e-17 -0.50000000
vn 0.86602540 -2.2414750e-17 -0.50000000
vn 0.0000000e+0 1.00000000 0.0000000e+0
vn 0.86602540 0.0000000e+0 0.50000000
vn 0.86602540 0.0000000e+0 0.50000000
vn 0.0000000e+0 1.00000000 0.0000000e+0
vn 1.8588639e-15 0.0000000e+0 1.00000000
vn 1.8588639e-15 0.0000000e+0 1.00000000
vn 0.0000000e+0 1.00000000 0.0000000e+0
vn -0.86602540 0.0000000e+0 0.50000000
vn -0.86602540 0.0000000e+0 0.50000000
vn 0.0000000e+0 1.00000000 0.0000000e+0
vn -0.86602540 0.0000000e+0 -0.50000000
vn -0.86602540 0.0000000e+0 -0.50000000
vn 0.0000000e+0 -1.00000000 -1.3453058e-15
vn 1.8588639e-15 -2.2414750e-17 -1.00000000
vn 1.8588639e-15 -2.2414750e-17 -1.00000000
vn 0.0000000e+0 -1.00000000 -1.3453058e-15
vn 0.86602540 -2.2414750e-17 -0.50000000
vn 0.86602540 -2.2414750e-17 -0.50000000
vn 0.0000000e+0 -1.00000000 -1.3453058e-15
vn 0.86602540 0.0000000e+0 0.50000000
vn 0.86602540 0.0000000e+0 0.50000000
vn 0.0000000e+0 -1.00000000 -1.3453058e-15
vn 1.8588639e-15 0.0000000e+0 1.00000000
vn 1.8588639e-15 0.0000000e+0 1.00000000
vn 0.0000000e+0 -1.00000000 -1.3453058e-15
vn -0.86602540 0.0000000e+0 0.50000000
vn -0.86602540 0.0000000e+0 0.50000000
vn 0.0000000e+0 -1.00000000 -1.3453058e-15
vn -0.86602540 0.0000000e+0 -0.50000000
vn -0.86602540 0.0000000e+0 -0.50000000
g cube1_default
usemtl default
f 1/233/25 6/212/40 5/211/37 4/232/34 3/262/31 2/265/28
f 1/517/26 7/515/44 12/540/59 6/542/41
f 2/482/30 8/481/48 7/515/45 1/517/27
f 3/449/33 9/448/51 8/481/47 2/482/29
f 4/410/36 10/409/54 9/448/50 3/449/32
f 5/380/39 11/378/57 10/409/53 4/410/35
f 6/351/42 12/349/60 11/378/56 5/380/38
f 8/210/46 9/209/49 10/234/52 11/263/55 12/264/58 7/235/43
f 13/315/61 16/528/70 15/529/67 14/316/64
f 13/521/62 17/523/73 20/304/83 16/303/72
f 14/463/66 18/384/78 17/391/75 13/469/63
f 15/509/69 19/512/80 18/293/76 14/289/65
f 16/385/71 20/461/82 19/467/79 15/388/68
f 18/245/77 19/108/81 20/107/84 17/244/74
f 21/109/85 24/242/94 23/243/91 22/110/88
f 21/521/86 25/523/97 28/304/107 24/303/96
f 22/464/90 26/383/102 25/387/99 21/471/87
f 23/521/93 27/522/104 26/304/100 22/303/89
f 24/382/95 28/460/106 27/470/103 23/386/92
f 26/526/101 27/312/105 28/310/108 25/524/98
f 29/283/109 32/501/118 31/502/115 30/284/112
f 29/511/110 33/514/121 36/292/131 32/289/120
f 30/462/114 34/383/126 33/390/123 29/468/111
f 31/511/117 35/514/128 34/293/124 30/289/113
f 32/381/119 36/460/130 35/466/127 31/389/116
f 34/241/125 35/112/129 36/111/132 33/240/122
f 37/285/133 40/507/142 39/508/139 38/286/136
f 37/511/134 41/512/145 44/292/155 40/291/144
f 38/465/138 42/383/150 41/387/147 37/471/135
f 39/521/141 43/522/152 42/304/148 38/303/137
f 40/382/143 44/460/154 43/470/151 39/386/140
f 42/241/149 43/112/153 44/111/156 41/240/146
f 45/313/157 48/528/166 47/529/163 46/314/160
f 45/510/158 49/513/169 52/294/179 48/290/168
f 46/462/162 50/383/174 49/390/171 45/468/159
f 47/521/165 51/522/176 50/304/172 46/303/161
f 48/381/167 52/460/178 51/466/175 47/389/164
f 50/527/173 51/311/177 52/309/180 49/525/170
f 53/499/181 57/500/197 60/274/210 56/272/194
f 53/64/183 66/65/233 65/66/229 54/69/187
f 54/308/186 58/181/202 57/182/198 53/307/182
f 54/69/188 65/66/230 68/67/242 55/68/192
f 55/499/190 59/500/206 58/273/201 54/272/185
f 55/68/191 68/67/241 67/66/238 56/63/196
f 56/179/193 60/305/209 59/306/205 55/180/189
f 56/63/195 67/66/237 66/65/234 53/64/184
f 57/251/200 61/247/214 64/105/226 60/101/212
f 58/186/203 62/175/217 61/174/213 57/183/199
f 59/102/207 63/106/221 62/246/218 58/250/204
f 60/173/211 64/184/225 63/185/222 59/176/208
f 61/318/216 66/317/236 67/539/240 64/538/228
f 62/459/220 65/338/232 66/337/235 61/458/215
f 63/318/224 68/317/244 65/539/231 62/538/219
f 64/335/227 67/456/239 68/457/243 63/336/223
f 69/137/245 72/141/252 71/142/249 70/138/247
f 69/83/246 73/80/255 76/88/263 72/89/254
f 71/119/251 75/120/260 74/94/257 70/93/248
f 72/132/253 76/133/262 75/149/259 71/147/250
f 74/142/258 75/138/261 76/137/264 73/141/256
f 77/490/1 83/536/278 84/533/280 78/485/268
f 77/490/1 93/430/5 96/429/6 79/488/2
f 78/406/265 84/367/279 92/363/295 85/402/281
f 78/485/267 94/426/299 93/430/5 77/490/1
f 79/488/2 81/534/273 83/536/277 77/490/1
f 79/488/2 96/429/6 95/421/303 80/484/271
f 80/484/272 82/531/276 81/534/274 79/488/2
f 80/405/270 95/440/301 98/414/305 88/401/286
f 85/477/283 92/495/296 91/493/294 86/473/3
f 85/402/282 99/413/309 94/436/297 78/406/266
f 86/473/3 91/493/293 90/494/291 87/476/4
f 86/473/3 100/441/8 99/444/311 85/477/284
f 87/476/4 90/494/292 89/496/290 88/478/287
f 87/476/4 97/443/7 100/441/8 86/473/3
f 88/401/285 89/362/289 82/366/275 80/405/269
f 88/478/288 98/455/308 97/443/7 87/476/4
f 93/430/5 101/374/9 104/375/10 96/429/6
f 94/426/300 102/370/316 101/374/9 93/430/5
f 95/440/302 103/454/317 106/425/321 98/414/306
f 96/429/6 104/375/10 103/371/320 95/421/304
f 97/443/7 105/395/11 108/393/12 100/441/8
f 98/455/307 106/398/323 105/395/11 97/443/7
f 99/413/310 107/423/325 102/452/313 94/436/298
f 100/441/8 108/393/12 107/397/328 99/444/312
f 101/374/9 109/298/330 111/299/337 104/375/10
f 102/370/315 110/296/334 109/298/331 101/374/9
f 103/454/318 113/432/343 106/425/322
f 104/375/10 111/299/338 113/297/344 103/371/319
f 105/395/11 112/329/340 114/328/347 108/393/12
f 106/398/324 113/326/345 112/329/341 105/395/11
f 107/423/326 110/435/333 102/452/314
f 108/393/12 114/328/348 110/324/335 107/397/327
f 109/157/329 110/164/332 114/187/346 112/188/339 113/163/342 111/158/336
f 115/230/351 127/268/381 128/269/385 116/231/355
f 116/221/353 117/202/357 118/197/359 115/215/349
f 116/260/354 120/168/365 121/165/369 117/258/358
f 116/231/356 128/269/386 129/276/389 120/322/367
f 118/165/360 122/258/371 119/261/361 115/167/350
f 119/199/362 122/222/372 121/225/370 120/206/366
f 119/321/364 130/275/394 127/268/382 115/230/352
f 120/322/368 129/276/390 130/275/393 119/321/363
f 123/220/373 128/204/387 127/203/383 124/219/375
f 124/213/376 127/214/384 130/208/396 125/207/378
f 125/203/377 130/223/395 129/220/392 126/201/380
f 126/213/379 129/214/391 128/208/388 123/207/374
f 131/4/397 134/8/409 133/5/405 132/1/401
f 131/78/398 135/77/413 138/84/425 134/86/410
f 131/95/399 144/113/449 143/116/445 135/98/415
f 132/26/403 145/13/453 144/11/450 131/23/400
f 133/85/406 137/87/421 136/79/417 132/76/402
f 133/75/407 140/60/433 139/57/429 137/72/423
f 134/12/411 141/24/437 140/25/434 133/14/408
f 135/15/416 143/27/446 146/22/458 136/10/420
f 136/7/418 137/3/422 138/2/426 135/6/414
f 136/74/419 146/59/457 145/58/454 132/73/404
f 137/21/424 139/9/430 142/16/442 138/28/428
f 138/96/427 142/114/441 141/115/438 134/97/412
f 139/36/432 147/30/462 150/33/474 142/39/444
f 140/99/435 148/103/465 147/104/461 139/100/431
f 141/31/439 149/38/469 148/37/466 140/32/436
f 142/99/443 150/103/473 149/104/470 141/100/440
f 143/29/448 151/35/478 154/40/490 146/34/460
f 144/71/451 152/62/481 151/61/477 143/70/447
f 145/20/455 153/18/485 152/17/482 144/19/452
f 146/71/459 154/62/489 153/61/486 145/70/456
f 147/56/464 155/51/494 158/50/506 150/53/476
f 148/44/467 156/46/497 155/51/493 147/56/463
f 149/42/471 157/47/501 156/46/498 148/44/468
f 150/53/475 158/50/505 157/47/502 149/42/472
f 151/54/480 159/49/510 162/52/522 154/55/492
f 152/41/483 160/48/513 159/49/509 151/54/479
f 153/43/487 161/45/517 160/48/514 152/41/484
f 154/55/491 162/52/521 161/45/518 153/43/488
f 155/504/496 162/417/524 159/416/512 158/503/508
f 156/288/500 161/287/520 162/519/523 155/520/495
f 157/418/504 160/505/516 161/506/519 156/419/499
f 158/288/507 159/287/511 160/519/515 157/520/503
f 163/345/525 166/353/532 165/355/529 164/346/527
f 163/127/526 167/171/535 170/172/543 166/128/534
f 165/144/531 169/122/540 168/121/537 164/143/528
f 166/236/533 170/334/542 169/331/539 165/237/530
f 168/355/538 169/346/541 170/345/544 167/354/536
f 171/266/545 174/279/553 173/280/549 172/267/547
f 171/135/546 175/151/557 178/152/565 174/136/554
f 173/130/550 177/124/561 176/123/559 172/129/548
f 173/227/552 179/253/570 182/257/582 177/278/564
f 174/226/555 180/252/573 179/253/569 173/227/551
f 176/360/560 177/342/562 178/339/566 175/357/558
f 177/278/563 182/257/581 181/256/578 178/277/568
f 178/277/567 181/256/577 180/252/574 174/226/556
f 179/156/572 184/155/588 185/161/589 182/162/583
f 180/159/575 183/191/585 184/192/587 179/160/571
f 181/249/580 186/248/592 183/254/586 180/255/576
f 182/359/584 185/341/590 186/340/591 181/358/579
f 187/492/13 193/537/605 191/532/601 189/487/14
f 187/492/13 203/431/17 204/427/627 188/486/595
f 188/486/596 194/535/608 193/537/606 187/492/13
f 188/404/594 204/439/625 209/415/637 195/400/610
f 189/487/14 191/532/602 192/530/604 190/483/600
f 189/487/14 206/428/18 203/431/17 187/492/13
f 190/407/597 192/368/603 199/364/617 198/403/613
f 190/483/599 205/420/631 206/428/18 189/487/14
f 195/400/609 202/361/623 194/365/607 188/404/593
f 195/474/612 209/445/639 210/438/20 196/472/15
f 196/472/15 201/491/622 202/489/624 195/474/611
f 196/472/15 210/438/20 207/442/19 197/475/16
f 197/475/16 200/497/619 201/491/621 196/472/15
f 197/475/16 207/442/19 208/446/636 198/479/616
f 198/479/615 199/498/618 200/497/620 197/475/16
f 198/403/614 208/412/633 205/437/629 190/407/598
f 203/431/17 211/376/21 212/372/644 204/427/628
f 204/439/626 212/453/641 217/424/653 209/415/638
f 205/420/632 213/369/648 214/373/22 206/428/18
f 206/428/18 214/373/22 211/376/21 203/431/17
f 207/442/19 215/394/23 216/399/651 208/446/635
f 208/412/634 216/422/649 213/451/645 205/437/630
f 209/445/640 217/396/656 218/392/24 210/438/20
f 210/438/20 218/392/24 215/394/23 207/442/19
f 211/376/21 219/302/659 220/301/662 212/372/643
f 212/453/642 220/433/661 217/424/654
f 213/369/647 223/295/672 221/300/666 214/373/22
f 214/373/22 221/300/665 219/302/658 211/376/21
f 215/394/23 222/327/669 223/330/673 216/399/652
f 216/422/650 223/434/671 213/451/646
f 217/396/655 220/323/663 224/325/676 218/392/24
f 218/392/24 224/325/675 222/327/668 215/394/23
f 221/194/664 223/190/670 222/178/667 224/177/674 220/189/660 219/193/657
f 225/199/677 228/218/687 227/225/685 226/205/681
f 225/165/678 229/259/689 232/261/699 228/167/688
f 225/319/680 237/281/710 240/270/722 229/228/692
f 226/320/683 238/282/713 237/281/709 225/319/679
f 227/260/686 231/168/697 230/166/693 226/258/682
f 229/228/691 240/270/721 239/271/718 230/229/696
f 230/221/694 231/202/698 232/198/700 229/216/690
f 230/229/695 239/271/717 238/282/714 226/320/684
f 233/208/702 238/207/716 239/213/719 236/214/707
f 234/200/703 237/217/711 238/224/715 233/201/701
f 235/208/706 240/207/724 237/213/712 234/214/704
f 236/220/708 239/204/720 240/203/723 235/219/705
f 241/137/725 244/141/733 243/142/731 242/138/728
f 241/82/726 245/81/735 248/90/743 244/91/734
f 242/150/730 246/148/740 245/131/737 241/134/727
f 243/117/732 247/118/741 246/94/738 242/92/729
f 246/142/739 247/138/742 248/137/744 245/141/736
f 249/137/745 252/141/753 251/142/751 250/138/748
f 249/82/746 253/81/755 256/90/763 252/91/754
f 250/150/750 254/148/760 253/131/757 249/134/747
f 251/117/752 255/118/761 254/94/758 250/92/749
f 254/142/759 255/138/762 256/137/764 253/141/756
f 257/137/765 260/141/772 259/142/769 258/138/767
f 257/146/766 261/145/775 264/153/783 260/154/774
f 259/119/771 263/120/780 262/94/777 258/93/768
f 260/131/773 264/134/782 263/150/779 259/148/770
f 262/142/778 263/138/781 264/137/784 261/141/776
f 265/343/785 268/352/792 267/356/789 266/347/787
f 265/125/786 269/169/795 272/170/803 268/126/794
f 267/196/791 271/140/800 270/139/797 266/195/788
f 268/239/793 272/333/802 271/332/799 267/238/790
f 270/356/798 271/347/801 272/344/804 269/352/796
f 273/233/805 278/212/820 277/211/817 276/232/814 275/262/811 274/265/808
f 273/518/806 279/516/824 284/541/839 278/543/821
f 274/482/810 280/480/828 279/516/825 273/518/807
f 275/450/813 281/447/831 280/480/827 274/482/809
f 276/411/816 282/408/834 281/447/830 275/450/812
f 277/379/819 283/377/837 282/408/833 276/411/815
f 278/350/822 284/348/840 283/377/836 277/379/818
f 280/210/826 281/209/829 282/234/832 283/263/835 284/264/838 279/235/823
