# Exported from Wings 3D 1.0.2
mtllib Rations.mtl
o cube1
#236 vertices, 238 faces
v -1.38746667 1.38746667 2.10073600
v -1.38746667 -0.72282743 2.10073600
v 1.38746667 -0.72282743 2.10073600
v 1.38746667 1.38746667 2.10073600
v -1.49200000 -0.72282743 1.99620267
v -1.49200000 1.38746667 1.99620267
v -1.49200000 1.38746667 -1.99620267
v -1.49200000 -0.72282743 -1.99620267
v -1.38746667 1.49200000 1.99620267
v 1.38746667 1.49200000 1.99620267
v 1.38746667 1.49200000 -1.99620267
v -1.38746667 1.49200000 -1.99620267
v -1.38746667 -0.72282743 -2.10073600
v -1.38746667 1.38746667 -2.10073600
v 1.38746667 1.38746667 -2.10073600
v 1.38746667 -0.72282743 -2.10073600
v 1.49200000 1.38746667 1.99620267
v 1.49200000 -0.72282743 1.99620267
v 1.49200000 -0.72282743 -1.99620267
v 1.49200000 1.38746667 -1.99620267
v 1.38746667 -0.82736076 1.99620267
v -1.38746667 -0.82736076 1.99620267
v -1.38746667 -0.82736076 -1.99620267
v 1.38746667 -0.82736076 -1.99620267
v -1.49200000 1.38746667 -1.18997232
v -1.49200000 1.38746667 -0.59410672
v -1.49200000 1.38746667 0.62910620
v -1.49200000 1.38746667 1.17503473
v -1.49200000 -0.72282743 0.62910620
v -1.49200000 -0.72282743 1.17503473
v -1.49200000 -0.72282743 -0.59410672
v -1.49200000 -0.72282743 -1.18997232
v 1.38746667 1.49200000 -1.18997232
v 1.38746667 1.49200000 -0.59410672
v 1.38746667 1.49200000 0.62910620
v 1.38746667 1.49200000 1.17503473
v -1.38746667 1.49200000 0.62910620
v -1.38746667 1.49200000 1.17503473
v -1.38746667 1.49200000 -0.59410672
v -1.38746667 1.49200000 -1.18997232
v 1.49200000 -0.72282743 -1.18997232
v 1.49200000 -0.72282743 -0.59410672
v 1.49200000 -0.72282743 0.62910620
v 1.49200000 -0.72282743 1.17503473
v 1.49200000 1.38746667 0.62910620
v 1.49200000 1.38746667 1.17503473
v 1.49200000 1.38746667 -0.59410672
v 1.49200000 1.38746667 -1.18997232
v -1.38746667 -0.82736076 -1.18997232
v -1.38746667 -0.82736076 -0.59410672
v -1.38746667 -0.82736076 0.62910620
v -1.38746667 -0.82736076 1.17503473
v 1.38746667 -0.82736076 0.62910620
v 1.38746667 -0.82736076 1.17503473
v 1.38746667 -0.82736076 -0.59410672
v 1.38746667 -0.82736076 -1.18997232
v 0.27795200 -0.72282743 2.10073600
v -0.27795200 -0.72282743 2.10073600
v 0.27795200 1.38746667 2.10073600
v -0.27795200 1.38746667 2.10073600
v 0.27795200 1.49200000 1.99620267
v -0.27795200 1.49200000 1.99620267
v 0.27795200 1.49200000 -1.99620267
v -0.27795200 1.49200000 -1.99620267
v 0.27795200 1.38746667 -2.10073600
v -0.27795200 1.38746667 -2.10073600
v 0.27795200 -0.72282743 -2.10073600
v -0.27795200 -0.72282743 -2.10073600
v 0.27795200 -0.82736076 1.99620267
v -0.27795200 -0.82736076 1.99620267
v -0.27795200 -0.82736076 -1.99620267
v 0.27795200 -0.82736076 -1.99620267
v 0.27795200 1.49200000 1.17503473
v -0.27795200 1.49200000 1.17503473
v 0.27795200 1.49200000 -1.18997232
v -0.27795200 1.49200000 -1.18997232
v -0.27795200 -0.82736076 1.17503473
v 0.27795200 -0.82736076 1.17503473
v 0.27795200 1.49200000 -0.59410672
v -0.27795200 1.49200000 -0.59410672
v -0.27795200 -0.82736076 -1.18997232
v 0.27795200 -0.82736076 -1.18997232
v -0.27795200 -0.82736076 -0.59410672
v 0.27795200 -0.82736076 -0.59410672
v 0.27795200 1.49200000 0.62910620
v -0.27795200 1.49200000 0.62910620
v -0.27795200 -0.82736076 0.62910620
v 0.27795200 -0.82736076 0.62910620
v -3.7562546e-18 -0.68675329 2.04611686
v -3.7562546e-18 1.35139253 2.04611686
v -3.7562546e-18 1.45320800 1.94430140
v -3.7562546e-18 1.45320800 -1.94430140
v -3.7562546e-18 1.35139253 -2.04611686
v -3.7562546e-18 -0.68675329 -2.04611686
v -3.7562546e-18 -0.78856876 1.94430140
v -3.7562546e-18 -0.78856876 -1.94430140
v -3.7562546e-18 1.45320800 1.08502739
v -3.7562546e-18 1.45320800 -1.09173184
v -3.7562546e-18 -0.78856876 1.08502739
v -3.7562546e-18 1.45320800 -0.51135875
v -3.7562546e-18 -0.78856876 -1.09173184
v -3.7562546e-18 -0.78856876 -0.51135875
v -3.7562546e-18 1.45320800 0.55329300
v -3.7562546e-18 -0.78856876 0.55329300
v -1.41143200 1.31254347 -0.89134142
v -1.42933600 1.32919307 0.90157301
v -1.42933600 -0.66455383 0.90157301
v -1.41143200 -0.64790423 -0.89134142
v 1.31254347 1.41143200 -0.89134142
v 1.32919307 1.42933600 0.90157301
v -1.32919307 1.42933600 0.90157301
v -1.31254347 1.41143200 -0.89134142
v 1.41143200 -0.64790423 -0.89134142
v 1.42933600 -0.66455383 0.90157301
v 1.42933600 1.32919307 0.90157301
v 1.41143200 1.31254347 -0.89134142
v -1.31254347 -0.74679276 -0.89134142
v -1.32919307 -0.76469676 0.90157301
v 1.32919307 -0.76469676 0.90157301
v 1.31254347 -0.74679276 -0.89134142
v -0.26294259 1.41143200 -0.89134142
v -0.26627802 -0.76469676 0.90157301
v 0.26627802 1.42933600 0.90157301
v 0.26627802 -0.76469676 0.90157301
v 0.26294259 -0.74679276 -0.89134142
v 0.26294259 1.41143200 -0.89134142
v -0.26294259 -0.74679276 -0.89134142
v -0.26627802 1.42933600 0.90157301
v -3.7562546e-18 1.40960805 -0.80573389
v -3.7562546e-18 -0.74907441 0.82214497
v -3.7562546e-18 -0.73163592 -0.80573389
v -3.7562546e-18 1.42704655 0.82214497
v -9.2136000e-2 -0.80580171 1.97733103
v -9.2136000e-2 -0.68913274 2.09400000
v -9.2136000e-2 1.36169503 2.09400000
v -9.2136000e-2 1.47836400 1.97733103
v 9.2136000e-2 1.36169503 2.09400000
v 9.2136000e-2 1.47836400 1.97733103
v 9.2136000e-2 -0.68913274 2.09400000
v 9.2136000e-2 -0.80580171 1.97733103
v -9.2136000e-2 -0.80580171 -1.97733103
v -9.2136000e-2 -0.68913274 -2.09400000
v -9.2136000e-2 1.36169503 -2.09400000
v -9.2136000e-2 1.47836400 -1.97733103
v 9.2136000e-2 1.47836400 -1.97733103
v 9.2136000e-2 1.36169503 -2.09400000
v 9.2136000e-2 -0.68913274 -2.09400000
v 9.2136000e-2 -0.80580171 -1.97733103
v 1.35515178 -0.80355632 0.99126233
v 1.47182075 -0.68688735 0.99126233
v 1.47182075 1.36394042 0.99126233
v 1.35515178 1.48060939 0.99126233
v 1.47182075 1.36394042 0.80699033
v 1.35515178 1.48060939 0.80699033
v 1.47182075 -0.68688735 0.80699033
v 1.35515178 -0.80355632 0.80699033
v -1.35797234 -0.80355632 0.99126233
v -1.47464131 -0.68688735 0.99126233
v -1.47464131 1.36394042 0.99126233
v -1.35797234 1.48060939 0.99126233
v -1.35797234 1.48060939 0.80699033
v -1.47464131 1.36394042 0.80699033
v -1.47464131 -0.68688735 0.80699033
v -1.35797234 -0.80355632 0.80699033
v 1.33000826 -0.82913550 -0.79180301
v 1.44667723 -0.71246653 -0.79180301
v 1.44667723 1.33836124 -0.79180301
v 1.33000826 1.45503021 -0.79180301
v 1.44667723 1.33836124 -0.97607501
v 1.33000826 1.45503021 -0.97607501
v 1.44667723 -0.71246653 -0.97607501
v 1.33000826 -0.82913550 -0.97607501
v -1.34889585 -0.82913550 -0.79180301
v -1.46556482 -0.71246653 -0.79180301
v -1.46556482 1.33836124 -0.79180301
v -1.34889585 1.45503021 -0.79180301
v -1.34889585 1.45503021 -0.97607501
v -1.46556482 1.33836124 -0.97607501
v -1.46556482 -0.71246653 -0.97607501
v -1.34889585 -0.82913550 -0.97607501
v 9.2136000e-2 1.35412597 2.07572667
v 9.2136000e-2 -0.68156368 2.07572667
v 9.2136000e-2 -0.78752838 1.96976197
v 9.2136000e-2 -0.78752838 -1.96976197
v 9.2136000e-2 -0.68156368 -2.07572667
v 9.2136000e-2 1.35412597 -2.07572667
v 9.2136000e-2 1.46009067 -1.96976197
v 9.2136000e-2 1.46009067 1.96976197
v -9.2136000e-2 -0.78752838 -1.96976197
v -9.2136000e-2 -0.78752838 1.96976197
v -9.2136000e-2 -0.68156368 2.07572667
v -9.2136000e-2 1.35412597 2.07572667
v -9.2136000e-2 1.46009067 1.96976197
v -9.2136000e-2 1.46009067 -1.96976197
v -9.2136000e-2 1.35412597 -2.07572667
v -9.2136000e-2 -0.68156368 -2.07572667
v -9.2136000e-2 1.50064592 1.57793056
v -9.2136000e-2 1.50064592 0.25970987
v 9.2136000e-2 1.50064592 1.57793056
v 9.2136000e-2 1.50064592 0.25970987
v 9.2136000e-2 1.48237259 1.57540754
v 9.2136000e-2 1.48237259 0.26223289
v -9.2136000e-2 1.48237259 0.26223289
v -9.2136000e-2 1.48237259 1.57540754
v 1.44441076 1.35258684 0.80699033
v 1.44441076 -0.67553376 0.80699033
v 1.34379819 -0.77614633 0.80699033
v -1.34661875 -0.77614633 0.80699033
v -1.44723132 -0.67553376 0.80699033
v -1.44723132 1.35258684 0.80699033
v -1.34661875 1.45319941 0.80699033
v 1.34379819 1.45319941 0.80699033
v -1.34661875 -0.77614633 0.99126233
v 1.34379819 -0.77614633 0.99126233
v 1.44441076 -0.67553376 0.99126233
v 1.44441076 1.35258684 0.99126233
v 1.34379819 1.45319941 0.99126233
v -1.34661875 1.45319941 0.99126233
v -1.44723132 1.35258684 0.99126233
v -1.44723132 -0.67553376 0.99126233
v 1.41926724 1.32700765 -0.97607501
v 1.41926724 -0.70111294 -0.97607501
v 1.31865467 -0.80172551 -0.97607501
v -1.33754227 -0.80172551 -0.97607501
v -1.43815483 -0.70111294 -0.97607501
v -1.43815483 1.32700765 -0.97607501
v -1.33754227 1.42762022 -0.97607501
v 1.31865467 1.42762022 -0.97607501
v -1.33754227 -0.80172551 -0.79180301
v 1.31865467 -0.80172551 -0.79180301
v 1.41926724 -0.70111294 -0.79180301
v 1.41926724 1.32700765 -0.79180301
v 1.31865467 1.42762022 -0.79180301
v -1.33754227 1.42762022 -0.79180301
v -1.43815483 1.32700765 -0.79180301
v -1.43815483 -0.70111294 -0.79180301
vt -0.44754024 0.23490524
vt -0.44754024 0.93084949
vt -0.44526362 1.15904939
vt -0.44526362 0.46310514
vt -0.34131933 0.90704176
vt -0.34122100 0.63431416
vt -0.33996763 0.42978338
vt -0.33933922 2.5625930e-2
vt -0.33812534 -0.15897449
vt -0.33615169 -0.43030448
vt -0.32425747 -6.6660962e-2
vt -0.32114333 0.53197279
vt -0.29516109 0.95112709
vt -0.29310675 0.63654808
vt -0.29259341 0.90279766
vt -0.29216092 0.42830778
vt -0.29168822 -0.47414234
vt -0.29136777 2.6923520e-2
vt -0.29050888 -0.16019477
vt -0.28887957 -0.42661235
vt -0.27524389 -6.6468554e-2
vt -0.27252663 0.53213610
vt -0.18165721 0.93084949
vt -0.18165721 0.23490524
vt -0.17445439 1.15904939
vt -0.17445439 0.46310514
vt -0.12737121 1.24573956
vt -0.12737121 0.35695002
vt -0.12737121 -0.16676086
vt -0.12737121 -0.39123406
vt -0.12737121 1.31128974
vt -0.12737121 -0.32568389
vt -9.3000923e-2 1.18099152
vt -9.3000923e-2 -0.45569128
vt -9.3000923e-2 1.24654169
vt -9.3000923e-2 -0.39014111
vt -8.1933214e-2 1.13983161
vt -8.1933214e-2 0.48232293
vt -7.9651844e-2 0.90614091
vt -7.9651844e-2 0.25961382
vt -5.4162494e-2 1.24573956
vt -5.4162494e-2 -0.39123406
vt -5.4162494e-2 1.31128974
vt -5.4162494e-2 0.35695002
vt -5.4162494e-2 -0.16676086
vt -5.4162494e-2 -0.32568389
vt -2.4260340e-2 -0.45090536
vt -2.4260340e-2 -0.39136936
vt -2.4260340e-2 1.23328512
vt -2.4260340e-2 1.17374911
vt -1.9792202e-2 1.18099152
vt -1.9792202e-2 -0.45569128
vt -1.9792202e-2 -0.39014111
vt -1.9792202e-2 1.24654169
vt -9.2412467e-3 -0.15866661
vt -8.5558609e-3 2.7524984e-2
vt -6.6634229e-3 -0.43277454
vt -5.0654036e-3 0.43142423
vt -4.0096132e-3 0.63304914
vt -2.8728414e-3 0.90044641
vt 5.2989522e-3 -6.5397944e-2
vt 1.0268174e-2 1.15904939
vt 1.0268174e-2 0.46310514
vt 1.5052485e-2 0.53208707
vt 2.1909043e-2 0.93084949
vt 2.1909043e-2 0.23490524
vt 3.8335005e-2 -0.47693288
vt 3.8886648e-2 -0.15993323
vt 3.9477120e-2 2.8358069e-2
vt 4.1030258e-2 -0.42890525
vt 4.1543506e-2 0.94435273
vt 4.2622226e-2 0.42942360
vt 4.3426485e-2 0.63500892
vt 4.4526118e-2 0.89680266
vt 4.8948382e-2 -0.45090536
vt 4.8948382e-2 -0.39136936
vt 4.8948382e-2 1.17374911
vt 4.8948382e-2 1.23328512
vt 4.9321369e-2 1.30219528
vt 4.9321369e-2 -0.32275327
vt 4.9321369e-2 -0.38228927
vt 4.9321369e-2 -0.16583181
vt 4.9321369e-2 0.35587435
vt 4.9321369e-2 1.24265927
vt 5.4744610e-2 -6.5600829e-2
vt 6.3064526e-2 0.53189104
vt 7.1625569e-2 -0.42813556
vt 7.2236931e-2 -0.47601605
vt 7.3151775e-2 -0.15885456
vt 7.3334808e-2 2.6069949e-2
vt 7.3503633e-2 0.42974971
vt 7.3908396e-2 0.90187039
vt 7.3973757e-2 0.63460431
vt 7.4914961e-2 0.95063759
vt 7.7255109e-2 -6.6259820e-2
vt 7.9044537e-2 0.53180309
vt 0.10304459 0.73453714
vt 0.10304459 -0.40889978
vt 0.10304459 -0.47444995
vt 0.10304459 0.66898697
vt 0.12253009 -0.32275327
vt 0.12253009 -0.16583181
vt 0.12253009 0.35587435
vt 0.12253009 -0.38228927
vt 0.12253009 1.30219528
vt 0.12253009 1.24265927
vt 0.15559725 -0.36620551
vt 0.15559725 -0.30065534
vt 0.15559725 0.76363628
vt 0.15559725 0.82918645
vt 0.16473740 -0.46352172
vt 0.16500712 -0.41432132
vt 0.16612912 -0.12898531
vt 0.16626401 -4.0238159e-2
vt 0.16638462 5.0445442e-2
vt 0.16668673 0.40300720
vt 0.16688187 0.50354008
vt 0.16710420 0.60082735
vt 0.16836700 0.88690013
vt 0.16888554 0.93655483
vt 0.17625331 -0.47444995
vt 0.17625331 0.73453714
vt 0.17625331 -0.40889978
vt 0.17625331 0.66898697
vt 0.22880597 -0.36620551
vt 0.22880597 -0.30065534
vt 0.22880597 0.76363628
vt 0.22880597 0.82918645
vt 0.23373136 1.38233869
vt 0.23373136 0.19858405
vt 0.23797962 1.33270671
vt 0.23797962 0.24821603
vt 0.24295738 1.38711809
vt 0.24295738 0.19380465
vt 0.24896807 1.33687640
vt 0.24896807 0.24404634
vt 0.25476565 0.53112990
vt 0.25518484 -6.6435977e-2
vt 0.25733734 -0.47739870
vt 0.25840790 -0.42917467
vt 0.25897105 -0.15919890
vt 0.25945068 2.5932678e-2
vt 0.25987235 0.42937272
vt 0.26030439 0.63367545
vt 0.26247700 0.94799829
vt 0.26270388 0.89967648
vt 0.27037160 0.92138889
vt 0.27037160 0.86485996
vt 0.27037160 -0.20400554
vt 0.27037160 -0.26053446
vt 0.28440187 -4.4969937e-2
vt 0.28440187 1.64018434
vt 0.28686444 4.4533328e-3
vt 0.28686444 1.59076107
vt 0.29030473 -4.7766634e-2
vt 0.29030473 1.64298104
vt 0.29112195 -0.54255238
vt 0.29112195 0.56804491
vt 0.29417747 1.6019195e-3
vt 0.29417747 1.59361249
vt 0.29651724 -0.54100366
vt 0.29962826 0.95273575
vt 0.29962826 1.00926468
vt 0.29962826 -0.10253461
vt 0.29962826 -0.15906354
vt 0.31032983 0.56628691
vt 0.32325508 -0.55955798
vt 0.32359744 -0.55538448
vt 0.32533093 -5.6722692e-3
vt 0.32533093 0.46207208
vt 0.32533093 0.69027198
vt 0.32533093 -0.23387217
vt 0.34358032 0.86485996
vt 0.34358032 -0.26053446
vt 0.34358032 0.92138889
vt 0.34358032 -0.20400554
vt 0.35312988 0.24904218
vt 0.35814802 0.24933677
vt 0.37109629 0.77781695
vt 0.37256805 0.10170127
vt 0.37283698 0.95273575
vt 0.37283698 1.00926468
vt 0.37283698 -0.15906354
vt 0.37283698 -0.10253461
vt 0.37408392 0.46207208
vt 0.37408392 -5.6722692e-3
vt 0.37408392 0.69027198
vt 0.37408392 -0.23387217
vt 0.37668310 0.10190366
vt 0.37695857 0.68073621
vt 0.38244554 0.67945964
vt 0.39044886 0.75848227
vt 0.39235387 -3.6220451e-2
vt 0.39235387 1.64893383
vt 0.39481644 1.59951056
vt 0.39481644 1.3202818e-2
vt 0.39825673 1.65173052
vt 0.39825673 -3.9017148e-2
vt 0.40212947 1.60236197
vt 0.40212947 1.0351405e-2
vt 0.40459366 -0.42930850
vt 0.40489172 -0.15892147
vt 0.40514326 2.6262732e-2
vt 0.40543146 -0.47762395
vt 0.40625318 0.89927780
vt 0.40634817 -0.17011432
vt 0.40634817 -0.18443270
vt 0.40634817 0.90904240
vt 0.40634817 0.89472401
vt 0.40661967 0.94753649
vt 0.40681638 0.42963033
vt 0.40722702 -0.22236121
vt 0.40722702 0.94779612
vt 0.40722702 0.96211450
vt 0.40722702 -0.20804283
vt 0.40745284 0.63350836
vt 0.40843286 0.69860568
vt 0.40893999 0.69459829
vt 0.40894893 -6.6098181e-2
vt 0.40954273 -0.26716680
vt 0.40954273 -0.27432019
vt 0.40954273 0.82566325
vt 0.40954273 0.81850986
vt 0.41148675 -0.17269575
vt 0.41148675 0.89813065
vt 0.41148675 0.91244904
vt 0.41148675 -0.15837736
vt 0.41223960 0.53111847
vt 0.41236560 -0.22039893
vt 0.41236560 -0.23471732
vt 0.41236560 0.95932701
vt 0.41236560 0.94500862
vt 0.41366598 1.15904939
vt 0.41366598 0.46310514
vt 0.41555342 -0.31740850
vt 0.41555342 -0.32456188
vt 0.41555342 0.87590494
vt 0.41555342 0.86875156
vt 0.41645867 -0.22714552
vt 0.41645867 0.95258042
vt 0.41645867 0.96689881
vt 0.41645867 -0.21282713
vt 0.41733752 -0.16594916
vt 0.41733752 -0.18026755
vt 0.41733752 0.90487724
vt 0.41733752 0.89055885
vt 0.42053118 -0.26299712
vt 0.42053118 -0.27015050
vt 0.42053118 0.82149356
vt 0.42053118 0.81434018
vt 0.42159725 -0.21561463
vt 0.42159725 0.95454270
vt 0.42159725 0.94022432
vt 0.42159725 -0.22993301
vt 0.42247610 -0.17686090
vt 0.42247610 0.90229581
vt 0.42247610 0.91661419
vt 0.42247610 -0.16254252
vt 0.42477944 -0.31262909
vt 0.42477944 0.87112554
vt 0.42477944 -0.31978248
vt 0.42477944 0.86397215
vt 0.42530685 0.23490524
vt 0.42530685 0.93084949
vt 0.43351331 -0.43438571
vt 0.45105226 0.92439746
vt 0.45105226 0.98092639
vt 0.45105226 -0.13087291
vt 0.45105226 -0.18740183
vt 0.45239645 -0.43162823
vt 0.47894728 -0.11262770
vt 0.48407104 -0.11267307
vt 0.48634394 -0.32735415
vt 0.48634394 0.85640048
vt 0.49059221 -0.27772217
vt 0.49059221 0.80676851
vt 0.49127438 3.8849763e-2
vt 0.49542096 3.8859644e-2
vt 0.49556996 -0.33213355
vt 0.49556996 0.86117989
vt 0.49799990 -0.12899117
vt 0.49825358 -0.41486711
vt 0.49826326 -4.0145335e-2
vt 0.49833376 -0.46425550
vt 0.49850056 5.0366018e-2
vt 0.49972334 0.40273782
vt 0.49997102 0.50322920
vt 0.50017445 0.93582709
vt 0.50031530 0.60016963
vt 0.50052212 0.88605510
vt 0.50158066 -0.28189186
vt 0.50158066 0.81093819
vt 0.51522687 1.13434081
vt 0.51522687 0.48781372
vt 0.51750823 0.91163170
vt 0.51750823 0.25412302
vt 0.52361369 -0.63938640
vt 0.52426098 0.98092639
vt 0.52426098 0.92439746
vt 0.52426098 -0.13087291
vt 0.52426098 -0.18740183
vt 0.54194432 -0.61901213
vt 0.57395659 0.78221943
vt 0.57395659 0.71666926
vt 0.57395659 -0.42676766
vt 0.57395659 -0.36121749
vt 0.58549160 0.88826659
vt 0.58549160 0.83173767
vt 0.58549160 -0.23712783
vt 0.58549160 -0.29365675
vt 0.58736495 -6.6744219e-2
vt 0.58814784 0.53092750
vt 0.59103260 -0.47699845
vt 0.59109286 -0.15937611
vt 0.59162544 2.5582716e-2
vt 0.59182385 -0.42907864
vt 0.59297689 0.42908652
vt 0.59359594 0.63350850
vt 0.59443738 0.94921638
vt 0.59518608 0.90041958
vt 0.60455238 0.53044360
vt 0.60923278 -6.7647344e-2
vt 0.61002942 0.93084949
vt 0.61002942 0.23490524
vt 0.61723223 1.15904939
vt 0.61723223 0.46310514
vt 0.62162747 -0.43067145
vt 0.62408819 -0.47850955
vt 0.62466519 -0.16196509
vt 0.62467988 0.42762512
vt 0.62476932 0.63357655
vt 0.62508497 2.6129744e-2
vt 0.62527923 0.89557195
vt 0.62849339 0.94322552
vt 0.64716531 0.71666926
vt 0.64716531 -0.36121749
vt 0.64716531 0.78221943
vt 0.64716531 -0.42676766
vt 0.65261241 0.53042479
vt 0.65860038 -6.7741065e-2
vt 0.65870032 0.88826659
vt 0.65870032 0.83173767
vt 0.65870032 -0.23712783
vt 0.65870032 -0.29365675
vt 0.66932080 -0.43487715
vt 0.67217127 0.63139576
vt 0.67245574 0.42935779
vt 0.67274306 -0.16086969
vt 0.67274306 0.89892371
vt 0.67312556 2.4960880e-2
vt 0.67622125 0.72988999
vt 0.67622125 -0.39995180
vt 0.67622125 -0.33440163
vt 0.67622125 0.79544016
vt 0.68566153 -9.2032809e-2
vt 0.68566153 0.72273275
vt 0.73998570 0.46207208
vt 0.73998570 -5.6722692e-3
vt 0.73998570 0.69027198
vt 0.73998570 -0.23387217
vt 0.74942997 -0.39995180
vt 0.74942997 0.72988999
vt 0.74942997 0.79544016
vt 0.74942997 -0.33440163
vt 0.75887025 0.72273275
vt 0.75887025 -9.2032809e-2
vt 0.76372076 -0.21612326
vt 0.76372076 0.59864230
vt 0.76616623 0.97665072
vt 0.76616623 0.17090641
vt 0.76616623 0.59864230
vt 0.76616623 -0.21612326
vt 0.77098050 -0.21311618
vt 0.77098050 0.59563522
vt 0.77127872 0.16639578
vt 0.77127872 0.98116134
vt 0.77127872 -0.21161263
vt 0.77127872 0.59413167
vt 0.77435904 -0.21612326
vt 0.77435904 0.59864230
vt 0.77639122 0.16639578
vt 0.77639122 0.98116134
vt 0.77705584 0.98116134
vt 0.77705584 0.16639578
vt 0.77705584 0.59413167
vt 0.77705584 -0.21161263
vt 0.77735407 -0.21311618
vt 0.77735407 0.59563522
vt 0.77979955 0.59413167
vt 0.77979955 -0.21161263
vt 0.78150371 0.17090641
vt 0.78150371 0.97665072
vt 0.78216833 0.17090641
vt 0.78216833 0.97665072
vt 0.78216833 -0.21612326
vt 0.78216833 0.59864230
vt 0.78461381 -0.21612326
vt 0.78461381 0.59864230
vt 0.78491204 0.59864230
vt 0.78491204 -0.21612326
vt 0.78728083 0.17090641
vt 0.78728083 0.97665072
vt 0.78757906 0.97815426
vt 0.78757906 0.16940287
vt 0.79068916 0.59864230
vt 0.79068916 -0.21612326
vt 0.79239332 0.16639578
vt 0.79239332 0.98116134
vt 0.79483880 0.98116134
vt 0.79483880 0.16639578
vt 0.79580165 0.59413167
vt 0.79580165 -0.21161263
vt 0.80872933 -0.21612326
vt 0.80872933 0.59864230
vt 0.83340325 0.45017535
vt 0.83340325 6.2244545e-3
vt 0.83340325 0.67837526
vt 0.83340325 -0.22197545
vt 0.83964076 0.98032934
vt 0.83964076 0.16556378
vt 0.84309962 0.59864230
vt 0.84309962 -0.21612326
vt 0.84690050 0.97732226
vt 0.84690050 0.16857087
vt 0.84756776 -0.21612326
vt 0.84756776 0.59864230
vt 0.85027904 0.16556378
vt 0.85027904 0.98032934
vt 0.87746991 -0.21452795
vt 0.87746991 0.59422344
vt 0.87746991 0.97170950
vt 0.87746991 0.16596519
vt 0.88083864 0.93084949
vt 0.88083864 0.23490524
vt 0.88193805 -0.21612326
vt 0.88193805 0.59864230
vt 0.88311526 1.15904939
vt 0.88311526 0.46310514
vt 0.88464933 0.16556378
vt 0.88464933 0.98032934
vt 0.91184020 0.16455342
vt 0.91184020 0.97029772
vt 0.91184020 0.59201401
vt 0.91184020 -0.21373030
vt 0.91630834 0.59864230
vt 0.91630834 -0.21612326
vt 0.91901962 0.16715909
vt 0.91901962 0.97591048
vt 0.92348776 0.16556378
vt 0.92348776 0.98032934
vt 0.92682079 0.46207208
vt 0.92682079 -5.6722692e-3
vt 0.92682079 0.69027198
vt 0.92682079 -0.23387217
vt 0.93892771 0.52981558
vt 0.94036485 -6.8850737e-2
vt 0.94621049 -0.21373030
vt 0.94621049 0.59201401
vt 0.95067863 -0.21452795
vt 0.95067863 0.59422344
vt 0.95067863 0.97170950
vt 0.95067863 0.16596519
vt 0.95274431 -0.42928655
vt 0.95528726 -0.16280100
vt 0.95536942 -0.47693288
vt 0.95683100 2.4699144e-2
vt 0.95785805 0.16556378
vt 0.95785805 0.98032934
vt 0.95821745 0.42632301
vt 0.96006005 0.63393718
vt 0.96165510 0.89954206
vt 0.96496312 0.94821741
vt 0.98504892 0.97029772
vt 0.98504892 0.59201401
vt 0.98504892 0.16455342
vt 0.98504892 -0.21373030
vt 0.98736656 0.52942683
vt 0.98949292 -6.9252545e-2
vt 0.99222834 0.16715909
vt 0.99222834 0.97591048
vt 1.00006743 -0.43314795
vt 1.00292078 -0.16185036
vt 1.00488730 2.3338705e-2
vt 1.00594954 0.42771455
vt 1.00799346 0.63141779
vt 1.00988240 0.90279394
vt 1.01941921 -0.21373030
vt 1.01941921 0.59201401
vt 1.29272257 0.69027198
vt 1.29272257 0.46207208
vt 1.29272257 -0.23387217
vt 1.29272257 -5.6722692e-3
vt 1.34147556 0.69027198
vt 1.34147556 -5.6722692e-3
vt 1.34147556 -0.23387217
vt 1.34147556 0.46207208
vn -0.36700100 0.36700100 0.85476344
vn -0.36700100 -0.36700100 0.85476344
vn 0.36700100 -0.36700100 0.85476344
vn 0.36700100 0.36700100 0.85476344
vn -0.85476344 -0.36700100 0.36700100
vn -0.85476344 0.36700100 0.36700100
vn -0.85476344 0.36700100 -0.36700100
vn -0.85476344 -0.36700100 -0.36700100
vn -0.36700100 0.85476344 0.36700100
vn 0.36700100 0.85476344 0.36700100
vn 0.36700100 0.85476344 -0.36700100
vn -0.36700100 0.85476344 -0.36700100
vn -0.36700100 -0.36700100 -0.85476344
vn -0.36700100 0.36700100 -0.85476344
vn 0.36700100 0.36700100 -0.85476344
vn 0.36700100 -0.36700100 -0.85476344
vn 0.85476344 0.36700100 0.36700100
vn 0.85476344 -0.36700100 0.36700100
vn 0.85476344 -0.36700100 -0.36700100
vn 0.85476344 0.36700100 -0.36700100
vn 0.36700100 -0.85476344 0.36700100
vn -0.36700100 -0.85476344 0.36700100
vn -0.36700100 -0.85476344 -0.36700100
vn 0.36700100 -0.85476344 -0.36700100
vn -0.91218929 0.37477619 0.16569098
vn -0.91208649 0.37470856 -0.16640834
vn -0.91522870 0.37679059 0.14277699
vn -0.91528849 0.37683050 -0.14228759
vn -0.91522870 -0.37679059 0.14277699
vn -0.91528849 -0.37683050 -0.14228759
vn -0.91208649 -0.37470856 -0.16640834
vn -0.91218929 -0.37477619 0.16569098
vn 0.37477619 0.91218929 0.16569098
vn 0.37470856 0.91208649 -0.16640834
vn 0.37679059 0.91522870 0.14277699
vn 0.37683050 0.91528849 -0.14228759
vn -0.37679059 0.91522870 0.14277699
vn -0.37683050 0.91528849 -0.14228759
vn -0.37470856 0.91208649 -0.16640834
vn -0.37477619 0.91218929 0.16569098
vn 0.91218929 -0.37477619 0.16569098
vn 0.91208649 -0.37470856 -0.16640834
vn 0.91522870 -0.37679059 0.14277699
vn 0.91528849 -0.37683050 -0.14228759
vn 0.91522870 0.37679059 0.14277699
vn 0.91528849 0.37683050 -0.14228759
vn 0.91208649 0.37470856 -0.16640834
vn 0.91218929 0.37477619 0.16569098
vn -0.37477619 -0.91218929 0.16569098
vn -0.37470856 -0.91208649 -0.16640834
vn -0.37679059 -0.91522870 0.14277699
vn -0.37683050 -0.91528849 -0.14228759
vn 0.37679059 -0.91522870 0.14277699
vn 0.37683050 -0.91528849 -0.14228759
vn 0.37470856 -0.91208649 -0.16640834
vn 0.37477619 -0.91218929 0.16569098
vn -0.11353955 -0.37955189 0.91817707
vn 0.11353955 -0.37955189 0.91817707
vn -0.11353955 0.37955189 0.91817707
vn 0.11353955 0.37955189 0.91817707
vn -9.8626796e-2 0.92001042 0.37928035
vn 9.8626796e-2 0.92001042 0.37928035
vn -9.8626796e-2 0.92001042 -0.37928035
vn 9.8626796e-2 0.92001042 -0.37928035
vn -0.11353955 0.37955189 -0.91817707
vn 0.11353955 0.37955189 -0.91817707
vn -0.11353955 -0.37955189 -0.91817707
vn 0.11353955 -0.37955189 -0.91817707
vn -9.8626796e-2 -0.92001042 0.37928035
vn 9.8626796e-2 -0.92001042 0.37928035
vn 9.8626796e-2 -0.92001042 -0.37928035
vn -9.8626796e-2 -0.92001042 -0.37928035
vn -4.0764693e-2 0.99443062 -9.7190465e-2
vn 4.0764693e-2 0.99443062 -9.7190465e-2
vn -3.5588826e-2 0.99236461 0.11809284
vn 3.5588826e-2 0.99236461 0.11809284
vn 4.4923222e-2 -0.99365716 -0.10308902
vn -4.4923222e-2 -0.99365716 -0.10308902
vn -6.9000849e-2 0.99078424 -0.11655675
vn 6.9000849e-2 0.99078424 -0.11655675
vn 3.9787423e-2 -0.99156181 0.12337801
vn -3.9787423e-2 -0.99156181 0.12337801
vn 7.6402374e-2 -0.98964527 -0.12151093
vn -7.6402374e-2 -0.98964527 -0.12151093
vn -6.4793874e-2 0.99324352 9.6275954e-2
vn 6.4793874e-2 0.99324352 9.6275954e-2
vn 7.2288582e-2 -0.99216338 0.10191263
vn -7.2288582e-2 -0.99216338 0.10191263
vn 9.2171731e-17 -0.38134586 0.92443244
vn -5.3766843e-17 0.38134586 0.92443244
vn -5.3515754e-17 0.92516508 0.37956499
vn 6.1160861e-17 0.92516508 -0.37956499
vn 6.1447820e-17 0.38134586 -0.92443244
vn -9.2171731e-17 -0.38134586 -0.92443244
vn 8.4096184e-17 -0.92516508 0.37956499
vn -8.4096184e-17 -0.92516508 -0.37956499
vn -1.9066131e-16 0.99662429 -8.2097708e-2
vn -2.3003830e-18 0.99448112 0.10491567
vn 3.5029549e-18 -0.99557648 -9.3954611e-2
vn 7.7451866e-17 0.99482620 -0.10159146
vn -8.4235081e-17 -0.99330244 0.11554335
vn 7.0645907e-18 -0.99374586 -0.11166544
vn 0.0000000e+0 0.99679018 8.0058357e-2
vn 0.0000000e+0 -0.99580757 9.1472822e-2
vn -0.92612582 0.37721405 -7.3011071e-4
vn -0.92554540 0.37863634 4.9576054e-4
vn -0.92554540 -0.37863634 4.9576054e-4
vn -0.92612582 -0.37721405 -7.3011071e-4
vn 0.37721405 0.92612582 -7.3011071e-4
vn 0.37863634 0.92554540 4.9576054e-4
vn -0.37863634 0.92554540 4.9576054e-4
vn -0.37721405 0.92612582 -7.3011071e-4
vn 0.92612582 -0.37721405 -7.3011071e-4
vn 0.92554540 -0.37863634 4.9576054e-4
vn 0.92554540 0.37863634 4.9576054e-4
vn 0.92612582 0.37721405 -7.3011071e-4
vn -0.37721405 -0.92612582 -7.3011071e-4
vn -0.37863634 -0.92554540 4.9576054e-4
vn 0.37863634 -0.92554540 4.9576054e-4
vn 0.37721405 -0.92612582 -7.3011071e-4
vn 3.5564960e-2 0.99936605 1.6251406e-3
vn 4.8327117e-2 -0.99883073 -1.2911963e-3
vn -3.6467426e-2 0.99933437 -9.6808728e-4
vn -4.8327117e-2 -0.99883073 -1.2911963e-3
vn -4.7450708e-2 -0.99887148 2.0497909e-3
vn -3.5564960e-2 0.99936605 1.6251406e-3
vn 4.7450708e-2 -0.99887148 2.0497909e-3
vn 3.6467426e-2 0.99933437 -9.6808728e-4
vn 7.6004998e-17 0.99999269 3.8223962e-3
vn 0.0000000e+0 -0.99999556 -2.9787437e-3
vn -7.8887101e-17 -0.99998901 4.6885574e-3
vn -1.9230067e-16 0.99999730 -2.3229018e-3
vn 1.2351372e-16 -0.92387953 0.38268343
vn 1.2351372e-16 -0.92387953 0.38268343
vn -1.00000000 0.0000000e+0 -1.5075677e-16
vn -1.00000000 0.0000000e+0 -1.5075677e-16
vn 1.2351372e-16 -0.38268343 0.92387953
vn 1.2351372e-16 -0.38268343 0.92387953
vn -1.00000000 0.0000000e+0 -3.3660109e-16
vn -1.00000000 0.0000000e+0 -3.3660109e-16
vn 0.0000000e+0 0.38268343 0.92387953
vn 0.0000000e+0 0.38268343 0.92387953
vn -1.00000000 0.0000000e+0 -1.8584432e-16
vn -1.00000000 0.0000000e+0 -1.8584432e-16
vn 0.0000000e+0 0.91285865 0.40827574
vn 0.0000000e+0 0.91285865 0.40827574
vn -1.00000000 0.0000000e+0 3.6803985e-18
vn -1.00000000 0.0000000e+0 3.6803985e-18
vn 0.0000000e+0 0.38268343 0.92387953
vn 0.0000000e+0 0.38268343 0.92387953
vn 1.00000000 0.0000000e+0 -1.8584432e-16
vn 1.00000000 0.0000000e+0 -1.8584432e-16
vn 0.0000000e+0 0.91285865 0.40827574
vn 0.0000000e+0 0.91285865 0.40827574
vn 1.00000000 0.0000000e+0 0.0000000e+0
vn 1.00000000 0.0000000e+0 0.0000000e+0
vn 1.2351372e-16 -0.38268343 0.92387953
vn 1.2351372e-16 -0.38268343 0.92387953
vn 1.00000000 0.0000000e+0 -3.3660109e-16
vn 1.00000000 0.0000000e+0 -3.3660109e-16
vn 1.2351372e-16 -0.92387953 0.38268343
vn 1.2351372e-16 -0.92387953 0.38268343
vn 1.00000000 0.0000000e+0 -1.5075677e-16
vn 1.00000000 0.0000000e+0 -1.5075677e-16
vn 0.0000000e+0 -0.92387953 -0.38268343
vn 0.0000000e+0 -0.92387953 -0.38268343
vn -1.00000000 0.0000000e+0 1.5075677e-16
vn -1.00000000 0.0000000e+0 1.5075677e-16
vn 0.0000000e+0 -0.38268343 -0.92387953
vn 0.0000000e+0 -0.38268343 -0.92387953
vn -1.00000000 0.0000000e+0 3.3660109e-16
vn -1.00000000 0.0000000e+0 3.3660109e-16
vn 0.0000000e+0 0.38268343 -0.92387953
vn 0.0000000e+0 0.38268343 -0.92387953
vn -1.00000000 0.0000000e+0 1.8584432e-16
vn -1.00000000 0.0000000e+0 1.8584432e-16
vn 0.0000000e+0 0.92196230 -0.38727964
vn -1.00000000 0.0000000e+0 0.0000000e+0
vn -1.00000000 0.0000000e+0 0.0000000e+0
vn 0.0000000e+0 0.92196230 -0.38727964
vn 0.0000000e+0 0.92196230 -0.38727964
vn 1.00000000 0.0000000e+0 0.0000000e+0
vn 0.0000000e+0 0.92196230 -0.38727964
vn 1.00000000 0.0000000e+0 0.0000000e+0
vn 0.0000000e+0 0.38268343 -0.92387953
vn 0.0000000e+0 0.38268343 -0.92387953
vn 1.00000000 0.0000000e+0 1.8584432e-16
vn 1.00000000 0.0000000e+0 1.8584432e-16
vn 0.0000000e+0 -0.38268343 -0.92387953
vn 0.0000000e+0 -0.38268343 -0.92387953
vn 1.00000000 0.0000000e+0 3.3660109e-16
vn 1.00000000 0.0000000e+0 3.3660109e-16
vn 0.0000000e+0 -0.92387953 -0.38268343
vn 0.0000000e+0 -0.92387953 -0.38268343
vn 1.00000000 0.0000000e+0 1.5075677e-16
vn 1.00000000 0.0000000e+0 1.5075677e-16
vn 0.38268343 -0.92387953 0.0000000e+0
vn 0.38268343 -0.92387953 0.0000000e+0
vn -4.1092425e-17 1.4991770e-15 1.00000000
vn -4.1092425e-17 1.4991770e-15 1.00000000
vn 0.92387953 -0.38268343 0.0000000e+0
vn 0.92387953 -0.38268343 0.0000000e+0
vn 0.0000000e+0 0.0000000e+0 1.00000000
vn 0.0000000e+0 0.0000000e+0 1.00000000
vn 0.92387953 0.38268343 0.0000000e+0
vn 0.92387953 0.38268343 0.0000000e+0
vn 0.0000000e+0 0.0000000e+0 1.00000000
vn 0.0000000e+0 0.0000000e+0 1.00000000
vn 0.38268343 0.92387953 0.0000000e+0
vn 0.38268343 0.92387953 0.0000000e+0
vn -4.1092425e-17 -1.4991770e-15 1.00000000
vn -4.1092425e-17 -1.4991770e-15 1.00000000
vn 0.92387953 0.38268343 0.0000000e+0
vn 0.92387953 0.38268343 0.0000000e+0
vn 0.0000000e+0 0.0000000e+0 -1.00000000
vn 0.0000000e+0 0.0000000e+0 -1.00000000
vn 0.38268343 0.92387953 0.0000000e+0
vn 0.38268343 0.92387953 0.0000000e+0
vn 6.1638637e-17 0.0000000e+0 -1.00000000
vn 6.1638637e-17 0.0000000e+0 -1.00000000
vn 0.92387953 -0.38268343 0.0000000e+0
vn 0.92387953 -0.38268343 0.0000000e+0
vn 0.0000000e+0 0.0000000e+0 -1.00000000
vn 0.0000000e+0 0.0000000e+0 -1.00000000
vn 0.38268343 -0.92387953 0.0000000e+0
vn 0.38268343 -0.92387953 0.0000000e+0
vn 6.1638637e-17 0.0000000e+0 -1.00000000
vn 6.1638637e-17 0.0000000e+0 -1.00000000
vn -0.38268343 -0.92387953 0.0000000e+0
vn -0.38268343 -0.92387953 0.0000000e+0
vn -4.1092425e-17 3.1468597e-15 1.00000000
vn -4.1092425e-17 3.1468597e-15 1.00000000
vn -0.92387953 -0.38268343 0.0000000e+0
vn -0.92387953 -0.38268343 0.0000000e+0
vn 0.0000000e+0 1.6476826e-15 1.00000000
vn 0.0000000e+0 1.6476826e-15 1.00000000
vn -0.92387953 0.38268343 0.0000000e+0
vn -0.92387953 0.38268343 0.0000000e+0
vn 0.0000000e+0 -8.2384132e-16 1.00000000
vn 0.0000000e+0 -8.2384132e-16 1.00000000
vn -0.38268343 0.92387953 0.0000000e+0
vn -0.38268343 0.92387953 0.0000000e+0
vn -4.1092425e-17 -2.3230183e-15 1.00000000
vn -4.1092425e-17 -2.3230183e-15 1.00000000
vn -0.38268343 0.92387953 0.0000000e+0
vn -0.38268343 0.92387953 0.0000000e+0
vn 6.1638637e-17 0.0000000e+0 -1.00000000
vn 6.1638637e-17 0.0000000e+0 -1.00000000
vn -0.92387953 0.38268343 0.0000000e+0
vn -0.92387953 0.38268343 0.0000000e+0
vn 0.0000000e+0 0.0000000e+0 -1.00000000
vn 0.0000000e+0 0.0000000e+0 -1.00000000
vn -0.92387953 -0.38268343 0.0000000e+0
vn -0.92387953 -0.38268343 0.0000000e+0
vn 0.0000000e+0 0.0000000e+0 -1.00000000
vn 0.0000000e+0 0.0000000e+0 -1.00000000
vn -0.38268343 -0.92387953 0.0000000e+0
vn -0.38268343 -0.92387953 0.0000000e+0
vn 6.1638637e-17 0.0000000e+0 -1.00000000
vn 6.1638637e-17 0.0000000e+0 -1.00000000
vn 0.38268343 -0.92387953 0.0000000e+0
vn 0.38268343 -0.92387953 0.0000000e+0
vn -4.1619569e-17 -8.2384132e-16 1.00000000
vn -4.1619569e-17 -8.2384132e-16 1.00000000
vn 0.92387953 -0.38268343 0.0000000e+0
vn 0.92387953 -0.38268343 0.0000000e+0
vn 0.0000000e+0 -8.2384132e-16 1.00000000
vn 0.0000000e+0 -8.2384132e-16 1.00000000
vn 0.92387953 0.38268343 0.0000000e+0
vn 0.92387953 0.38268343 0.0000000e+0
vn 0.0000000e+0 8.2384132e-16 1.00000000
vn 0.0000000e+0 8.2384132e-16 1.00000000
vn 0.38268343 0.92387953 0.0000000e+0
vn 0.38268343 0.92387953 0.0000000e+0
vn -4.1619569e-17 8.2384132e-16 1.00000000
vn -4.1619569e-17 8.2384132e-16 1.00000000
vn 0.92387953 0.38268343 0.0000000e+0
vn 0.92387953 0.38268343 0.0000000e+0
vn 0.0000000e+0 0.0000000e+0 -1.00000000
vn 0.0000000e+0 0.0000000e+0 -1.00000000
vn 0.38268343 0.92387953 0.0000000e+0
vn 0.38268343 0.92387953 0.0000000e+0
vn 6.2429353e-17 0.0000000e+0 -1.00000000
vn 6.2429353e-17 0.0000000e+0 -1.00000000
vn 0.92387953 -0.38268343 0.0000000e+0
vn 0.92387953 -0.38268343 0.0000000e+0
vn 0.0000000e+0 0.0000000e+0 -1.00000000
vn 0.0000000e+0 0.0000000e+0 -1.00000000
vn 0.38268343 -0.92387953 0.0000000e+0
vn 0.38268343 -0.92387953 0.0000000e+0
vn 6.2429353e-17 0.0000000e+0 -1.00000000
vn 6.2429353e-17 0.0000000e+0 -1.00000000
vn -0.38268343 -0.92387953 0.0000000e+0
vn -0.38268343 -0.92387953 0.0000000e+0
vn -4.1619569e-17 0.0000000e+0 1.00000000
vn -4.1619569e-17 0.0000000e+0 1.00000000
vn -0.92387953 -0.38268343 0.0000000e+0
vn -0.92387953 -0.38268343 0.0000000e+0
vn 0.0000000e+0 0.0000000e+0 1.00000000
vn 0.0000000e+0 0.0000000e+0 1.00000000
vn -0.92387953 0.38268343 0.0000000e+0
vn -0.92387953 0.38268343 0.0000000e+0
vn 0.0000000e+0 0.0000000e+0 1.00000000
vn 0.0000000e+0 0.0000000e+0 1.00000000
vn -0.38268343 0.92387953 0.0000000e+0
vn -0.38268343 0.92387953 0.0000000e+0
vn -4.1619569e-17 0.0000000e+0 1.00000000
vn -4.1619569e-17 0.0000000e+0 1.00000000
vn -0.38268343 0.92387953 0.0000000e+0
vn -0.38268343 0.92387953 0.0000000e+0
vn 6.2429353e-17 8.2384132e-16 -1.00000000
vn 6.2429353e-17 8.2384132e-16 -1.00000000
vn -0.92387953 0.38268343 0.0000000e+0
vn -0.92387953 0.38268343 0.0000000e+0
vn 0.0000000e+0 8.2384132e-16 -1.00000000
vn 0.0000000e+0 8.2384132e-16 -1.00000000
vn -0.92387953 -0.38268343 0.0000000e+0
vn -0.92387953 -0.38268343 0.0000000e+0
vn 0.0000000e+0 -8.2384132e-16 -1.00000000
vn 0.0000000e+0 -8.2384132e-16 -1.00000000
vn -0.38268343 -0.92387953 0.0000000e+0
vn -0.38268343 -0.92387953 0.0000000e+0
vn 6.2429353e-17 -8.2384132e-16 -1.00000000
vn 6.2429353e-17 -8.2384132e-16 -1.00000000
vn 1.00000000 0.0000000e+0 -1.8584432e-16
vn 1.00000000 0.0000000e+0 -1.8584432e-16
vn 0.0000000e+0 -0.38268343 -0.92387953
vn 0.0000000e+0 -0.38268343 -0.92387953
vn 1.00000000 0.0000000e+0 -3.3660109e-16
vn 1.00000000 0.0000000e+0 -3.3660109e-16
vn -1.3599074e-16 0.38268343 -0.92387953
vn -1.3599074e-16 0.38268343 -0.92387953
vn 1.00000000 0.0000000e+0 -1.5075677e-16
vn 1.00000000 0.0000000e+0 -1.5075677e-16
vn -1.3599074e-16 0.92387953 -0.38268343
vn -1.3599074e-16 0.92387953 -0.38268343
vn 1.00000000 0.0000000e+0 1.5075677e-16
vn 1.00000000 0.0000000e+0 1.5075677e-16
vn -1.3599074e-16 0.92387953 0.38268343
vn -1.3599074e-16 0.92387953 0.38268343
vn 1.00000000 0.0000000e+0 3.3660109e-16
vn 1.00000000 0.0000000e+0 3.3660109e-16
vn -1.3599074e-16 0.38268343 0.92387953
vn -1.3599074e-16 0.38268343 0.92387953
vn 1.00000000 0.0000000e+0 1.8584432e-16
vn 1.00000000 0.0000000e+0 1.8584432e-16
vn 0.0000000e+0 -0.38268343 0.92387953
vn 0.0000000e+0 -0.38268343 0.92387953
vn 1.00000000 0.0000000e+0 0.0000000e+0
vn 2.9156081e-16 -0.92195794 0.38729002
vn 1.00000000 0.0000000e+0 0.0000000e+0
vn 2.9156081e-16 -0.92195794 0.38729002
vn 1.00000000 0.0000000e+0 0.0000000e+0
vn 1.00000000 0.0000000e+0 0.0000000e+0
vn 0.0000000e+0 -0.91271333 -0.40860051
vn 0.0000000e+0 -0.91271333 -0.40860051
vn -1.00000000 0.0000000e+0 1.5075677e-16
vn -1.00000000 0.0000000e+0 1.5075677e-16
vn -1.3599074e-16 0.92387953 0.38268343
vn -1.3599074e-16 0.92387953 0.38268343
vn -1.00000000 0.0000000e+0 -1.5075677e-16
vn -1.00000000 0.0000000e+0 -1.5075677e-16
vn -1.3599074e-16 0.92387953 -0.38268343
vn -1.3599074e-16 0.92387953 -0.38268343
vn -1.00000000 0.0000000e+0 -3.3660109e-16
vn -1.00000000 0.0000000e+0 -3.3660109e-16
vn -1.3599074e-16 0.38268343 -0.92387953
vn -1.3599074e-16 0.38268343 -0.92387953
vn -1.00000000 0.0000000e+0 -1.8584432e-16
vn -1.00000000 0.0000000e+0 -1.8584432e-16
vn 0.0000000e+0 -0.38268343 -0.92387953
vn 0.0000000e+0 -0.38268343 -0.92387953
vn -1.00000000 0.0000000e+0 3.6803985e-18
vn 0.0000000e+0 -0.91271333 -0.40860051
vn 0.0000000e+0 -0.91271333 -0.40860051
vn -1.00000000 0.0000000e+0 3.6803985e-18
vn -1.00000000 0.0000000e+0 0.0000000e+0
vn -1.00000000 0.0000000e+0 0.0000000e+0
vn 2.9156081e-16 -0.92195794 0.38729002
vn 2.9156081e-16 -0.92195794 0.38729002
vn -1.00000000 0.0000000e+0 1.8584432e-16
vn -1.00000000 0.0000000e+0 1.8584432e-16
vn 0.0000000e+0 -0.38268343 0.92387953
vn 0.0000000e+0 -0.38268343 0.92387953
vn -1.00000000 0.0000000e+0 3.3660109e-16
vn -1.00000000 0.0000000e+0 3.3660109e-16
vn -1.3599074e-16 0.38268343 0.92387953
vn -1.3599074e-16 0.38268343 0.92387953
vn 0.0000000e+0 0.99961179 2.7861714e-2
vn 0.0000000e+0 0.99961179 2.7861714e-2
vn -1.00000000 0.0000000e+0 3.6803985e-18
vn -1.00000000 0.0000000e+0 3.6803985e-18
vn -1.00000000 0.0000000e+0 0.0000000e+0
vn 0.0000000e+0 0.99998760 -4.9800359e-3
vn 0.0000000e+0 0.99998760 -4.9800359e-3
vn -1.00000000 0.0000000e+0 0.0000000e+0
vn 0.0000000e+0 0.99961179 2.7861714e-2
vn 1.00000000 0.0000000e+0 0.0000000e+0
vn 0.0000000e+0 0.99961179 2.7861714e-2
vn 1.00000000 0.0000000e+0 0.0000000e+0
vn 0.0000000e+0 0.99998760 -4.9800359e-3
vn 0.0000000e+0 0.99998760 -4.9800359e-3
vn 1.00000000 0.0000000e+0 0.0000000e+0
vn 1.00000000 0.0000000e+0 0.0000000e+0
vn 1.00000000 0.0000000e+0 0.0000000e+0
vn 2.2949401e-16 -0.99960181 -2.8217378e-2
vn 1.00000000 0.0000000e+0 0.0000000e+0
vn 2.2949401e-16 -0.99960181 -2.8217378e-2
vn 1.00000000 0.0000000e+0 0.0000000e+0
vn 1.00000000 0.0000000e+0 0.0000000e+0
vn 4.9932946e-16 -0.99998754 4.9912938e-3
vn 4.9932946e-16 -0.99998754 4.9912938e-3
vn -1.00000000 0.0000000e+0 0.0000000e+0
vn -1.00000000 0.0000000e+0 0.0000000e+0
vn 4.9932946e-16 -0.99998754 4.9912938e-3
vn 4.9932946e-16 -0.99998754 4.9912938e-3
vn 2.2949401e-16 -0.99960181 -2.8217378e-2
vn -1.00000000 0.0000000e+0 3.6803985e-18
vn -1.00000000 0.0000000e+0 3.6803985e-18
vn 2.2949401e-16 -0.99960181 -2.8217378e-2
vn 0.0000000e+0 0.0000000e+0 -1.00000000
vn 0.0000000e+0 0.0000000e+0 -1.00000000
vn -0.92387953 -0.38268343 -2.8644966e-16
vn -0.92387953 -0.38268343 -2.8644966e-16
vn 0.0000000e+0 0.0000000e+0 -1.00000000
vn 0.0000000e+0 0.0000000e+0 -1.00000000
vn -0.92387953 0.38268343 0.0000000e+0
vn -0.92387953 0.38268343 0.0000000e+0
vn 6.1638637e-17 0.0000000e+0 -1.00000000
vn 6.1638637e-17 0.0000000e+0 -1.00000000
vn -0.38268343 0.92387953 0.0000000e+0
vn -0.38268343 0.92387953 0.0000000e+0
vn 6.1638637e-17 0.0000000e+0 -1.00000000
vn 6.1638637e-17 0.0000000e+0 -1.00000000
vn 0.38268343 0.92387953 0.0000000e+0
vn 0.38268343 0.92387953 0.0000000e+0
vn 0.0000000e+0 0.0000000e+0 -1.00000000
vn 0.0000000e+0 0.0000000e+0 -1.00000000
vn 0.92387953 0.38268343 0.0000000e+0
vn 0.92387953 0.38268343 0.0000000e+0
vn 0.0000000e+0 0.0000000e+0 -1.00000000
vn 0.0000000e+0 0.0000000e+0 -1.00000000
vn 0.92387953 -0.38268343 0.0000000e+0
vn 0.92387953 -0.38268343 0.0000000e+0
vn 6.1638637e-17 0.0000000e+0 -1.00000000
vn 6.1638637e-17 0.0000000e+0 -1.00000000
vn 0.38268343 -0.92387953 0.0000000e+0
vn 0.38268343 -0.92387953 0.0000000e+0
vn 6.1638637e-17 0.0000000e+0 -1.00000000
vn 6.1638637e-17 0.0000000e+0 -1.00000000
vn -0.38268343 -0.92387953 -2.8644966e-16
vn -0.38268343 -0.92387953 -2.8644966e-16
vn -4.1092425e-17 3.1468597e-15 1.00000000
vn -4.1092425e-17 3.1468597e-15 1.00000000
vn 0.38268343 0.92387953 0.0000000e+0
vn 0.38268343 0.92387953 0.0000000e+0
vn -4.1092425e-17 1.4991770e-15 1.00000000
vn -4.1092425e-17 1.4991770e-15 1.00000000
vn -0.38268343 0.92387953 0.0000000e+0
vn -0.38268343 0.92387953 0.0000000e+0
vn 0.0000000e+0 0.0000000e+0 1.00000000
vn 0.0000000e+0 0.0000000e+0 1.00000000
vn -0.92387953 0.38268343 0.0000000e+0
vn -0.92387953 0.38268343 0.0000000e+0
vn 0.0000000e+0 0.0000000e+0 1.00000000
vn 0.0000000e+0 0.0000000e+0 1.00000000
vn -0.92387953 -0.38268343 -2.8644966e-16
vn -0.92387953 -0.38268343 -2.8644966e-16
vn -4.1092425e-17 -1.4991770e-15 1.00000000
vn -4.1092425e-17 -1.4991770e-15 1.00000000
vn -0.38268343 -0.92387953 -2.8644966e-16
vn -0.38268343 -0.92387953 -2.8644966e-16
vn -4.1092425e-17 -2.3230183e-15 1.00000000
vn -4.1092425e-17 -2.3230183e-15 1.00000000
vn 0.38268343 -0.92387953 0.0000000e+0
vn 0.38268343 -0.92387953 0.0000000e+0
vn 0.0000000e+0 -8.2384132e-16 1.00000000
vn 0.0000000e+0 -8.2384132e-16 1.00000000
vn 0.92387953 -0.38268343 0.0000000e+0
vn 0.92387953 -0.38268343 0.0000000e+0
vn 0.0000000e+0 1.6476826e-15 1.00000000
vn 0.0000000e+0 1.6476826e-15 1.00000000
vn 0.92387953 0.38268343 0.0000000e+0
vn 0.92387953 0.38268343 0.0000000e+0
vn 0.0000000e+0 0.0000000e+0 -1.00000000
vn 0.0000000e+0 0.0000000e+0 -1.00000000
vn -0.92387953 -0.38268343 -2.8644966e-16
vn -0.92387953 -0.38268343 -2.8644966e-16
vn 0.0000000e+0 0.0000000e+0 -1.00000000
vn 0.0000000e+0 0.0000000e+0 -1.00000000
vn -0.92387953 0.38268343 2.8644966e-16
vn -0.92387953 0.38268343 2.8644966e-16
vn 6.2429353e-17 0.0000000e+0 -1.00000000
vn 6.2429353e-17 0.0000000e+0 -1.00000000
vn -0.38268343 0.92387953 2.8644966e-16
vn -0.38268343 0.92387953 2.8644966e-16
vn 6.2429353e-17 -8.2384132e-16 -1.00000000
vn 6.2429353e-17 -8.2384132e-16 -1.00000000
vn 0.38268343 0.92387953 0.0000000e+0
vn 0.38268343 0.92387953 0.0000000e+0
vn 0.0000000e+0 -8.2384132e-16 -1.00000000
vn 0.0000000e+0 -8.2384132e-16 -1.00000000
vn 0.92387953 0.38268343 0.0000000e+0
vn 0.92387953 0.38268343 0.0000000e+0
vn 0.0000000e+0 8.2384132e-16 -1.00000000
vn 0.0000000e+0 8.2384132e-16 -1.00000000
vn 0.92387953 -0.38268343 -2.8644966e-16
vn 0.92387953 -0.38268343 -2.8644966e-16
vn 6.2429353e-17 8.2384132e-16 -1.00000000
vn 6.2429353e-17 8.2384132e-16 -1.00000000
vn 0.38268343 -0.92387953 -2.8644966e-16
vn 0.38268343 -0.92387953 -2.8644966e-16
vn 6.2429353e-17 0.0000000e+0 -1.00000000
vn 6.2429353e-17 0.0000000e+0 -1.00000000
vn -0.38268343 -0.92387953 -2.8644966e-16
vn -0.38268343 -0.92387953 -2.8644966e-16
vn -4.1619569e-17 0.0000000e+0 1.00000000
vn -4.1619569e-17 0.0000000e+0 1.00000000
vn 0.38268343 0.92387953 0.0000000e+0
vn 0.38268343 0.92387953 0.0000000e+0
vn -4.1619569e-17 -8.2384132e-16 1.00000000
vn -4.1619569e-17 -8.2384132e-16 1.00000000
vn -0.38268343 0.92387953 2.8644966e-16
vn -0.38268343 0.92387953 2.8644966e-16
vn 0.0000000e+0 -8.2384132e-16 1.00000000
vn 0.0000000e+0 -8.2384132e-16 1.00000000
vn -0.92387953 0.38268343 2.8644966e-16
vn -0.92387953 0.38268343 2.8644966e-16
vn 0.0000000e+0 8.2384132e-16 1.00000000
vn 0.0000000e+0 8.2384132e-16 1.00000000
vn -0.92387953 -0.38268343 -2.8644966e-16
vn -0.92387953 -0.38268343 -2.8644966e-16
vn -4.1619569e-17 8.2384132e-16 1.00000000
vn -4.1619569e-17 8.2384132e-16 1.00000000
vn -0.38268343 -0.92387953 -2.8644966e-16
vn -0.38268343 -0.92387953 -2.8644966e-16
vn -4.1619569e-17 0.0000000e+0 1.00000000
vn -4.1619569e-17 0.0000000e+0 1.00000000
vn 0.38268343 -0.92387953 -2.8644966e-16
vn 0.38268343 -0.92387953 -2.8644966e-16
vn 0.0000000e+0 0.0000000e+0 1.00000000
vn 0.0000000e+0 0.0000000e+0 1.00000000
vn 0.92387953 -0.38268343 -2.8644966e-16
vn 0.92387953 -0.38268343 -2.8644966e-16
vn 0.0000000e+0 0.0000000e+0 1.00000000
vn 0.0000000e+0 0.0000000e+0 1.00000000
vn 0.92387953 0.38268343 0.0000000e+0
vn 0.92387953 0.38268343 0.0000000e+0
g cube1_cube1_auv
usemtl cube1_auv
f 1/187/1 6/171/6 5/169/5 2/186/2
f 2/186/2 58/358/58 60/359/60 1/187/1
f 3/492/3 4/489/4 59/453/59 57/452/57
f 3/492/3 18/494/18 17/493/17 4/489/4
f 5/345/5 22/327/22 2/328/2
f 6/433/6 28/323/28 30/324/30 5/434/5
f 7/2/7 8/1/8 32/24/32 25/23/25
f 7/496/7 14/490/14 13/491/13 8/495/8
f 9/70/9 6/57/6 1/67/1
f 9/70/9 62/201/62 74/202/74 38/68/38
f 10/463/10 36/464/36 73/314/73 61/316/61
f 11/471/11 63/320/63 75/318/75 33/470/33
f 12/74/12 14/71/14 7/60/7
f 12/74/12 40/73/40 76/216/76 64/205/64
f 13/334/13 23/333/23 8/349/8
f 14/490/14 66/451/66 68/454/68 13/491/13
f 15/185/15 16/188/16 67/360/67 65/357/65
f 15/185/15 20/170/20 19/172/19 16/188/16
f 17/481/17 10/463/10 4/465/4
f 18/4/18 44/26/44 46/25/46 17/3/17
f 19/438/19 20/437/20 48/325/48 41/326/41
f 19/5/19 24/15/24 16/13/16
f 20/486/20 15/472/15 11/471/11
f 21/20/21 18/10/18 3/17/3
f 21/20/21 69/87/69 78/89/78 54/19/54
f 22/327/22 52/329/52 77/141/77 70/140/70
f 23/333/23 71/146/71 81/144/81 49/331/49
f 24/15/24 56/14/56 82/93/82 72/92/72
f 25/23/25 32/24/32 108/40/108 105/39/105
f 25/59/25 40/73/40 12/74/12 7/60/7
f 26/65/26 31/66/31 29/263/29 27/264/27
f 27/264/27 29/263/29 107/296/107 106/295/106
f 27/56/27 37/69/37 39/72/39 26/58/26
f 30/324/30 28/323/28 106/295/106 107/296/107
f 30/348/30 52/329/52 22/327/22 5/345/5
f 31/66/31 26/65/26 105/39/105 108/40/108
f 31/347/31 50/330/50 51/332/51 29/350/29
f 33/470/33 48/485/48 20/486/20 11/471/11
f 33/470/33 75/318/75 126/312/126 109/455/109
f 34/469/34 79/317/79 85/315/85 35/466/35
f 34/469/34 109/455/109 126/312/126 79/317/79
f 35/466/35 45/483/45 47/484/47 34/469/34
f 35/466/35 85/315/85 123/311/123 110/456/110
f 36/464/36 110/456/110 123/311/123 73/314/73
f 37/69/37 86/203/86 80/211/80 39/72/39
f 37/69/37 111/85/111 128/219/128 86/203/86
f 38/68/38 28/55/28 6/57/6 9/70/9
f 38/68/38 74/202/74 128/219/128 111/85/111
f 39/72/39 80/211/80 121/228/121 112/86/112
f 40/73/40 112/86/112 121/228/121 76/216/76
f 41/326/41 48/325/48 116/293/116 113/294/113
f 41/6/41 56/14/56 24/15/24 19/5/19
f 42/234/42 47/233/47 45/62/45 43/63/43
f 43/63/43 45/62/45 115/37/115 114/38/114
f 43/8/43 53/18/53 55/16/55 42/7/42
f 46/482/46 36/464/36 10/463/10 17/481/17
f 46/25/46 44/26/44 114/38/114 115/37/115
f 47/233/47 42/234/42 113/294/113 116/293/116
f 49/331/49 32/346/32 8/349/8 23/333/23
f 49/331/49 81/144/81 127/137/127 117/321/117
f 50/330/50 83/143/83 87/142/87 51/332/51
f 50/330/50 117/321/117 127/137/127 83/143/83
f 51/332/51 87/142/87 122/138/122 118/322/118
f 52/329/52 118/322/118 122/138/122 77/141/77
f 53/18/53 88/90/88 84/91/84 55/16/55
f 53/18/53 119/21/119 124/95/124 88/90/88
f 54/19/54 44/9/44 18/10/18 21/20/21
f 54/19/54 78/89/78 124/95/124 119/21/119
f 55/16/55 84/91/84 125/96/125 120/22/120
f 56/14/56 120/22/120 125/96/125 82/93/82
f 57/452/57 59/453/59 90/417/90 89/416/89
f 57/88/57 69/87/69 21/20/21 3/17/3
f 60/359/60 58/358/58 89/416/89 90/417/90
f 60/204/60 62/201/62 9/70/9 1/67/1
f 61/316/61 59/313/59 4/465/4 10/463/10
f 61/316/61 73/314/73 97/281/97 91/282/91
f 64/205/64 66/210/66 14/71/14 12/74/12
f 64/205/64 76/216/76 98/289/98 92/290/92
f 65/319/65 63/320/63 11/471/11 15/472/15
f 65/357/65 67/360/67 94/418/94 93/415/93
f 68/454/68 66/451/66 93/415/93 94/418/94
f 68/145/68 71/146/71 23/333/23 13/334/13
f 70/140/70 58/139/58 2/328/2 22/327/22
f 70/140/70 77/141/77 99/113/99 95/112/95
f 72/92/72 67/94/67 16/13/16 24/15/24
f 72/92/72 82/93/82 101/118/101 96/119/96
f 74/202/74 62/201/62 91/282/91 97/281/97
f 75/318/75 63/320/63 92/290/92 98/289/98
f 78/89/78 69/87/69 95/112/95 99/113/99
f 80/211/80 86/203/86 103/285/103 100/286/100
f 81/144/81 71/146/71 96/119/96 101/118/101
f 84/91/84 88/90/88 104/115/104 102/116/102
f 85/315/85 79/317/79 100/286/100 103/285/103
f 87/142/87 83/143/83 102/116/102 104/115/104
f 89/111/89 95/112/95 69/87/69 57/88/57
f 90/284/90 91/282/91 62/201/62 60/204/60
f 91/282/91 90/284/90 59/313/59 61/316/61
f 92/290/92 93/288/93 66/210/66 64/205/64
f 93/288/93 92/290/92 63/320/63 65/319/65
f 94/120/94 96/119/96 71/146/71 68/145/68
f 95/112/95 89/111/89 58/139/58 70/140/70
f 96/119/96 94/120/94 67/94/67 72/92/72
f 97/281/97 132/283/132 128/219/128 74/202/74
f 98/289/98 129/287/129 126/312/126 75/318/75
f 99/113/99 130/114/130 124/95/124 78/89/78
f 100/286/100 129/287/129 121/228/121 80/211/80
f 101/118/101 131/117/131 127/137/127 81/144/81
f 102/116/102 131/117/131 125/96/125 84/91/84
f 103/285/103 132/283/132 123/311/123 85/315/85
f 104/115/104 130/114/130 122/138/122 87/142/87
f 105/64/105 112/86/112 40/73/40 25/59/25
f 106/61/106 111/85/111 37/69/37 27/56/27
f 107/340/107 118/322/118 52/329/52 30/348/30
f 108/339/108 117/321/117 50/330/50 31/347/31
f 109/455/109 116/477/116 48/485/48 33/470/33
f 110/456/110 115/478/115 45/483/45 35/466/35
f 111/85/111 106/61/106 28/55/28 38/68/38
f 112/86/112 105/64/105 26/58/26 39/72/39
f 113/12/113 120/22/120 56/14/56 41/6/41
f 114/11/114 119/21/119 53/18/53 43/8/43
f 115/478/115 110/456/110 36/464/36 46/482/46
f 116/477/116 109/455/109 34/469/34 47/484/47
f 117/321/117 108/339/108 32/346/32 49/331/49
f 118/322/118 107/340/107 29/350/29 51/332/51
f 119/21/119 114/11/114 44/9/44 54/19/54
f 120/22/120 113/12/113 42/7/42 55/16/55
f 121/228/121 129/287/129 98/289/98 76/216/76
f 122/138/122 130/114/130 99/113/99 77/141/77
f 123/311/123 132/283/132 97/281/97 73/314/73
f 124/95/124 130/114/130 104/115/104 88/90/88
f 125/96/125 131/117/131 101/118/101 82/93/82
f 126/312/126 129/287/129 100/286/100 79/317/79
f 127/137/127 131/117/131 102/116/102 83/143/83
f 128/219/128 132/283/132 103/285/103 86/203/86
g cube1_cube2_auv
usemtl cube2_auv
f 133/199/135 190/195/361 189/196/357 141/200/167
f 134/422/137 139/446/157 137/445/149 135/421/141
f 134/197/139 191/194/365 190/195/362 133/199/136
f 135/30/142 137/42/150 138/46/154 136/32/146
f 135/398/143 192/388/369 191/387/366 134/397/140
f 136/32/145 138/46/153 199/45/397 197/29/389
f 136/158/147 193/166/373 192/192/370 135/179/144
f 137/297/152 181/302/326 188/270/354 138/265/156
f 138/265/155 188/270/353 201/272/405 199/271/398
f 139/34/158 134/52/138 133/53/134 140/36/162
f 139/420/159 182/424/329 181/423/325 137/419/151
f 140/159/163 183/153/333 182/151/330 139/155/160
f 141/51/166 142/54/170 147/35/190 148/33/194
f 141/51/165 148/33/193 140/36/161 133/53/133
f 141/200/168 189/196/358 196/193/386 142/198/172
f 142/367/171 196/373/385 195/374/382 143/368/176
f 143/365/173 146/356/185 147/355/189 142/366/169
f 143/167/175 195/168/381 194/161/378 144/157/179
f 144/27/180 198/28/395 200/44/402 145/41/183
f 145/41/181 146/43/186 143/31/174 144/27/177
f 145/190/182 187/191/349 186/218/346 146/217/188
f 145/190/184 200/277/404 202/278/410 187/191/351
f 146/409/187 186/403/345 185/404/342 147/410/192
f 147/156/191 185/152/341 184/154/338 148/160/196
f 148/160/195 184/154/337 183/153/334 140/159/164
f 149/135/199 214/131/457 213/132/453 157/136/231
f 150/413/201 155/435/221 153/436/213 151/414/205
f 150/133/203 215/129/461 214/131/458 149/135/200
f 151/122/206 153/97/214 154/100/218 152/124/210
f 151/396/207 216/378/465 215/377/462 150/395/204
f 152/124/209 154/100/217 161/98/245 160/123/241
f 152/223/211 217/250/469 216/262/466 151/238/208
f 153/235/216 205/259/422 212/247/450 154/220/220
f 154/220/219 212/247/449 211/249/446 161/222/248
f 155/305/222 150/338/202 149/336/198 156/306/226
f 155/375/223 206/393/425 205/394/421 153/376/215
f 156/291/227 207/275/429 206/273/426 155/279/224
f 157/335/230 158/337/234 163/303/254 164/304/258
f 157/335/229 164/304/257 156/306/225 149/336/197
f 157/136/232 213/132/454 220/130/482 158/134/236
f 158/400/235 220/412/481 219/411/478 159/399/240
f 159/426/237 162/380/249 163/379/253 158/425/233
f 159/236/239 219/261/477 218/248/474 160/221/244
f 160/221/243 218/248/473 217/250/470 152/223/212
f 161/98/246 162/99/250 159/121/238 160/123/242
f 161/222/247 211/249/445 210/260/442 162/237/252
f 162/405/251 210/389/441 209/390/438 163/406/256
f 163/280/255 209/274/437 208/276/434 164/292/260
f 164/292/259 208/276/433 207/275/430 156/291/228
f 165/257/263 230/226/521 229/227/517 173/258/295
f 166/439/265 171/467/285 169/468/277 167/440/269
f 166/241/267 231/214/525 230/226/522 165/257/264
f 167/128/270 169/110/278 170/109/282 168/127/274
f 167/408/271 232/392/529 231/391/526 166/407/268
f 168/127/273 170/109/281 177/108/309 176/126/305
f 168/209/275 233/246/533 232/253/530 167/232/272
f 169/229/280 221/251/486 228/243/514 170/206/284
f 170/206/283 228/243/513 227/245/510 177/208/312
f 171/352/286 166/361/266 165/364/262 172/353/290
f 171/381/287 222/401/489 221/402/485 169/382/279
f 172/255/291 223/224/493 222/212/490 171/239/288
f 173/362/294 174/363/298 179/354/318 180/351/322
f 173/362/293 180/351/321 172/353/289 165/364/261
f 173/258/296 229/227/518 236/215/546 174/242/300
f 174/372/299 236/386/545 235/385/542 175/371/304
f 175/450/301 178/428/313 179/427/317 174/449/297
f 175/230/303 235/254/541 234/244/538 176/207/308
f 176/207/307 234/244/537 233/246/534 168/209/276
f 177/108/310 178/107/314 175/125/302 176/126/306
f 177/208/311 227/245/509 226/252/506 178/231/316
f 178/383/315 226/369/505 225/370/502 179/384/320
f 179/240/319 225/213/501 224/225/498 180/256/324
f 180/256/323 224/225/497 223/224/494 172/255/292
f 181/81/328 192/104/372 193/101/374 188/80/355
f 182/447/332 191/479/368 192/480/371 181/448/327
f 183/76/336 190/48/364 191/47/367 182/75/331
f 184/77/339 189/50/359 190/48/363 183/76/335
f 185/78/344 196/49/388 189/50/360 184/77/340
f 186/460/348 195/430/384 196/429/387 185/459/343
f 187/84/350 194/106/379 195/105/383 186/79/347
f 188/80/356 193/101/375 204/102/417 201/82/406
f 194/106/380 187/84/352 202/83/412 203/103/416
f 197/29/390 199/45/399 200/44/401 198/28/394
f 197/177/392 204/178/419 193/166/376 136/158/148
f 198/180/396 203/189/414 204/178/418 197/177/391
f 199/271/400 201/272/407 202/278/409 200/277/403
f 201/82/408 204/102/420 203/103/415 202/83/411
f 203/189/413 198/180/393 144/157/178 194/161/377
f 205/150/424 216/174/468 217/176/471 212/149/451
f 206/432/428 215/462/464 216/461/467 205/431/423
f 207/308/432 214/342/460 215/341/463 206/307/427
f 208/309/435 213/343/455 214/342/459 207/308/431
f 209/310/440 220/344/484 213/343/456 208/309/436
f 210/488/444 219/458/480 220/457/483 209/487/439
f 211/148/448 218/173/476 219/175/479 210/147/443
f 212/149/452 217/176/472 218/173/475 211/148/447
f 221/165/488 232/183/532 233/184/535 228/164/515
f 222/444/492 231/476/528 232/474/531 221/443/487
f 223/266/496 230/299/524 231/298/527 222/267/491
f 224/268/499 229/300/519 230/299/523 223/266/495
f 225/269/504 236/301/548 229/300/520 224/268/500
f 226/473/508 235/442/544 236/441/547 225/475/503
f 227/162/512 234/181/540 235/182/543 226/163/507
f 228/164/516 233/184/536 234/181/539 227/162/511
