# Exported from Wings 3D 1.0.2
mtllib Reflektor.mtl
o cylinder1
#296 vertices, 253 faces
v 1.62911666 1.67757266 1.37672142
v 1.50564926 1.07143315 1.24300931
v 1.15404386 0.55757288 1.12965366
v 0.62782919 0.21422242 1.05391184
v 7.1166602e-3 9.3653774e-2 1.02731485
v -0.61359587 0.21422242 1.05391184
v -1.13981054 0.55757288 1.12965366
v -1.49141594 1.07143315 1.24300931
v -1.61488334 1.67757266 1.37672142
v -1.49141594 2.28371218 1.51043352
v -1.13981054 2.79757245 1.62378917
v -0.61359587 3.14092291 1.69953100
v 7.1166602e-3 3.26149155 1.72612799
v 0.62782919 3.14092291 1.69953100
v 1.15404386 2.79757245 1.62378917
v 1.50564926 2.28371218 1.51043352
v 1.69911666 1.65313065 1.52306505
v 1.57032083 1.02083222 1.38358239
v 1.20354133 0.48479548 1.26533469
v 0.65461703 0.12662719 1.18632411
v 7.1166602e-3 8.5521312e-4 1.15857928
v -0.64038371 0.12662719 1.18632411
v -1.18930801 0.48479548 1.26533469
v -1.55608751 1.02083222 1.38358239
v -1.68488334 1.65313065 1.52306505
v -1.55608751 2.28542909 1.66254772
v -1.18930801 2.82146582 1.78079541
v -0.64038371 3.17963411 1.85980599
v 7.1166602e-3 3.30540609 1.88755082
v 0.65461703 3.17963411 1.85980599
v 1.20354133 2.82146582 1.78079541
v 1.57032083 2.28542909 1.66254772
v 1.69911666 1.72954385 1.17667114
v 1.57032083 1.09724541 1.03718848
v 1.20354133 0.56120868 0.91894078
v 0.65461703 0.20304039 0.83993020
v 7.1166602e-3 7.7268411e-2 0.81218537
v -0.64038371 0.20304039 0.83993020
v -1.18930801 0.56120868 0.91894078
v -1.55608751 1.09724541 1.03718848
v -1.68488334 1.72954385 1.17667114
v -1.55608751 2.36184229 1.31615381
v -1.18930801 2.89787902 1.43440150
v -0.64038371 3.25604731 1.51341208
v 7.1166602e-3 3.38181929 1.54115691
v 0.65461703 3.25604731 1.51341208
v 1.20354133 2.89787902 1.43440150
v 1.57032083 2.36184229 1.31615381
v 1.39794066 1.88713130 0.46230068
v 1.29207049 1.36738198 0.34764593
v 0.99057774 0.92675979 0.25044632
v 0.53936196 0.63234545 0.18549962
v 7.1166602e-3 0.52896089 0.16269338
v -0.52512864 0.63234545 0.18549962
v -0.97634442 0.92675979 0.25044632
v -1.27783717 1.36738198 0.34764593
v -1.38370734 1.88713130 0.46230068
v -1.27783717 2.40688061 0.57695543
v -0.97634442 2.84750280 0.67415503
v -0.52512864 3.14191714 0.73910173
v 7.1166602e-3 3.24530171 0.76190798
v 0.53936196 3.14191714 0.73910173
v 0.99057774 2.84750280 0.67415503
v 1.29207049 2.40688061 0.57695543
v 0.67193053 2.05009105 -0.27642334
v 0.62132459 1.80165087 -0.33122831
v 0.47721106 1.59103347 -0.37768972
v 0.26152991 1.45030341 -0.40873424
v 7.1166602e-3 1.40088559 -0.41963563
v -0.24729659 1.45030341 -0.40873424
v -0.46297774 1.59103347 -0.37768972
v -0.60709127 1.80165087 -0.33122831
v -0.65769721 2.05009105 -0.27642334
v -0.60709127 2.29853122 -0.22161837
v -0.46297774 2.50914863 -0.17515696
v -0.24729659 2.64987868 -0.14411244
v 7.1166602e-3 2.69929650 -0.13321105
v 0.26152991 2.64987868 -0.14411244
v 0.47721106 2.50914863 -0.17515696
v 0.62132459 2.29853122 -0.22161837
v 0.49110116 2.14718383 -0.71656130
v 0.45426003 1.96631939 -0.75645932
v 0.34934538 1.81298991 -0.79028323
v 0.19232951 1.71053843 -0.81288364
v 7.1166602e-3 1.67456226 -0.82081985
v -0.17809619 1.71053843 -0.81288364
v -0.33511206 1.81298991 -0.79028323
v -0.44002671 1.96631939 -0.75645932
v -0.47686784 2.14718383 -0.71656130
v -0.44002671 2.32804828 -0.67666329
v -0.33511206 2.48137775 -0.64283938
v -0.17809619 2.58382923 -0.62023897
v 7.1166602e-3 2.61980540 -0.61230276
v 0.19232951 2.58382923 -0.62023897
v 0.34934538 2.48137775 -0.64283938
v 0.45426003 2.32804828 -0.67666329
v 0.28265859 2.49285285 -2.28353724
v 0.26168421 2.38988315 -2.30625197
v 0.20195423 2.30258965 -2.32550858
v 0.11256199 2.24426200 -2.33837544
v 7.1166602e-3 2.22378005 -2.34289369
v -9.8328673e-2 2.24426200 -2.33837544
v -0.18772091 2.30258965 -2.32550858
v -0.24745089 2.38988315 -2.30625197
v -0.26842527 2.49285285 -2.28353724
v -0.24745089 2.59582255 -2.26082251
v -0.18772091 2.68311605 -2.24156589
v -9.8328673e-2 2.74144370 -2.22869903
v 7.1166602e-3 2.76192564 -2.22418079
v 0.11256199 2.74144370 -2.22869903
v 0.20195423 2.68311605 -2.24156589
v 0.26168421 2.59582255 -2.26082251
v 0.14752190 2.51799045 -2.39749021
v 0.10639815 2.42103987 -2.41887714
v 7.1166602e-3 2.38088163 -2.42773590
v -9.2164834e-2 2.42103987 -2.41887714
v -0.13328858 2.51799045 -2.39749021
v -9.2164834e-2 2.61494102 -2.37610327
v 7.1166602e-3 2.65509927 -2.36724452
v 0.10639815 2.61494102 -2.37610327
v 1.50466625 1.04738875 1.38944066
v 1.62805266 1.65313065 1.52306505
v 1.50466625 2.25887255 1.65668944
v 1.15329150 2.77239574 1.76997074
v 0.62742201 3.11552097 1.84566287
v 7.1166602e-3 3.23601052 1.87224242
v -0.61318869 3.11552097 1.84566287
v -1.13905818 2.77239574 1.76997074
v -1.49043293 2.25887255 1.65668944
v -1.61381934 1.65313065 1.52306505
v -1.49043293 1.04738875 1.38944066
v -1.13905818 0.53386556 1.27615937
v -0.61318869 0.19074034 1.20046723
v 7.1166602e-3 7.0250782e-2 1.17388769
v 0.62742201 0.19074034 1.20046723
v 1.15329150 0.53386556 1.27615937
v 1.50466625 1.11633536 1.07689405
v 1.62805266 1.72207726 1.21051844
v 1.50466625 2.32781916 1.34414283
v 1.15329150 2.84134235 1.45742412
v 0.62742201 3.18446758 1.53311626
v 7.1166602e-3 3.30495713 1.55969581
v -0.61318869 3.18446758 1.53311626
v -1.13905818 2.84134235 1.45742412
v -1.49043293 2.32781916 1.34414283
v -1.61381934 1.72207726 1.21051844
v -1.49043293 1.11633536 1.07689405
v -1.13905818 0.60281217 0.96361276
v -0.61318869 0.25968695 0.88792062
v 7.1166602e-3 0.13919739 0.86134107
v 0.62742201 0.25968695 0.88792062
v 1.15329150 0.60281217 0.96361276
v 0.85173463 1.55970002 0.32253309
v 0.92132456 1.90133845 0.39789725
v 0.85173463 2.24297688 0.47326141
v 0.65355927 2.53260396 0.53715205
v 0.35696888 2.72612659 0.57984242
v 7.1166602e-3 2.79408270 0.59483328
v -0.34273556 2.72612659 0.57984242
v -0.63932595 2.53260396 0.53715205
v -0.83750131 2.24297688 0.47326141
v -0.90709124 1.90133845 0.39789725
v -0.83750131 1.55970002 0.32253309
v -0.63932595 1.27007294 0.25864244
v -0.34273556 1.07655031 0.21595208
v 7.1166602e-3 1.00859420 0.20096121
v 0.35696888 1.07655031 0.21595208
v 0.65355927 1.27007294 0.25864244
v 1.10629274 0.46788273 1.22891858
v 1.20821290 0.36539351 1.20630984
v 1.33924078 0.48964734 1.23371977
v 1.23732061 0.59213656 1.25632851
v 1.10629274 0.53657827 0.91751015
v 1.15426813 0.48833501 0.90686786
v 1.28529601 0.61258884 0.93427779
v 1.23732061 0.66083209 0.94492007
v -1.07613916 0.46788273 1.22891858
v -1.17805933 0.36539351 1.20630984
v -1.30908720 0.48964734 1.23371977
v -1.20716703 0.59213656 1.25632851
v -1.07613916 0.53657827 0.91751015
v -1.12411455 0.48833501 0.90686786
v -1.25514243 0.61258884 0.93427779
v -1.20716703 0.66083209 0.94492007
v -1.07613916 2.85196906 1.75483909
v -1.17805933 2.95445829 1.77744783
v -1.30908720 2.83020446 1.75003790
v -1.20716703 2.72771524 1.72742916
v -1.07613916 2.92066460 1.44343065
v -1.12411455 2.96890785 1.45407293
v -1.25514243 2.84465403 1.42666301
v -1.20716703 2.79641077 1.41602072
v -8.4546054e-2 -8.20640386 0.16621038
v 9.8779375e-2 -8.20640386 0.16621038
v -2.04668655 -8.20640386 -3.23231666
v -1.95502384 -8.20640386 -3.39108114
v 1.96925716 -8.20640386 -3.39108114
v 2.06091988 -8.20640386 -3.23231666
v -8.4546054e-2 -8.45751015 0.16621038
v 9.8779375e-2 -8.45751015 0.16621038
v -2.04668655 -8.45751015 -3.23231666
v -1.95502384 -8.45751015 -3.39108114
v 1.96925716 -8.45751015 -3.39108114
v 2.06091988 -8.45751015 -3.23231666
v -1.89931247 -8.20898824 -3.13685758
v -1.79866681 -8.20898824 -3.31118098
v 0.10776232 -8.20898824 -9.1488573e-3
v -9.3529000e-2 -8.20898824 -9.1488573e-3
v 1.81290013 -8.20898824 -3.31118098
v 1.91354579 -8.20898824 -3.13685758
v -9.3529000e-2 -8.45492576 -9.1488573e-3
v 0.10776232 -8.45492576 -9.1488573e-3
v -1.79866681 -8.45492576 -3.31118098
v -1.89931247 -8.45492576 -3.13685758
v 1.91354579 -8.45492576 -3.13685758
v 1.81290013 -8.45492576 -3.31118098
v -8.4546054e-2 -5.20410861 0.16621038
v 9.8779375e-2 -5.20410861 0.16621038
v -2.04668655 -5.20410861 -3.23231666
v -1.95502384 -5.20410861 -3.39108114
v 1.96925716 -5.20410861 -3.39108114
v 2.06091988 -5.20410861 -3.23231666
v -8.4546054e-2 -5.45521490 0.16621038
v 9.8779375e-2 -5.45521490 0.16621038
v -2.04668655 -5.45521490 -3.23231666
v -1.95502384 -5.45521490 -3.39108114
v 1.96925716 -5.45521490 -3.39108114
v 2.06091988 -5.45521490 -3.23231666
v -1.89931247 -5.20669299 -3.13685758
v -1.79866681 -5.20669299 -3.31118098
v 0.10776232 -5.20669299 -9.1488573e-3
v -9.3529000e-2 -5.20669299 -9.1488573e-3
v 1.81290013 -5.20669299 -3.31118098
v 1.91354579 -5.20669299 -3.13685758
v -9.3529000e-2 -5.45263051 -9.1488573e-3
v 0.10776232 -5.45263051 -9.1488573e-3
v -1.79866681 -5.45263051 -3.31118098
v -1.89931247 -5.45263051 -3.13685758
v 1.91354579 -5.45263051 -3.13685758
v 1.81290013 -5.45263051 -3.31118098
v 0.18676722 -0.86349784 0.23073931
v 7.1166602e-3 -0.86349784 0.41038987
v -0.17253390 -0.86349784 0.23073931
v 7.1166602e-3 -0.86349784 5.1088746e-2
v 0.18676722 -8.53468944 0.23073931
v 7.1166602e-3 -8.53468944 0.41038987
v -0.17253390 -8.53468944 0.23073931
v 7.1166602e-3 -8.53468944 5.1088746e-2
v -0.89974208 -0.84789929 1.00068447
v -0.89974208 -0.78495475 1.00068447
v 0.70729792 -0.78495475 1.00068447
v 0.70729792 -0.84789929 1.00068447
v -0.89974208 -0.84789929 -0.60635553
v -0.89974208 -0.78495475 -0.60635553
v 0.70729792 -0.78495475 -0.60635553
v 0.70729792 -0.84789929 -0.60635553
v -0.20570055 -0.27671453 0.15930044
v -0.20570055 -0.19913518 0.26099055
v 0.12726836 -0.19913518 0.26099055
v 0.12726836 -0.27671453 0.15930044
v -0.20570055 -0.17502443 8.1721092e-2
v -0.20570055 -9.7445077e-2 0.18341120
v 0.12726836 -9.7445077e-2 0.18341120
v 0.12726836 -0.17502443 8.1721092e-2
v -0.15726015 -0.81274732 -3.5235307e-2
v -5.0148474e-2 -0.81274732 -3.5235307e-2
v -0.15726015 -0.79625837 0.44171976
v -5.0148474e-2 -0.79625837 0.44171976
v -0.15726015 1.1444160e-2 7.1836290e-2
v -0.15726015 -0.12864002 -5.8885773e-2
v -5.0148474e-2 1.1444160e-2 7.1836290e-2
v -5.0148474e-2 -0.12864002 -5.8885773e-2
v -0.15726015 1.8570989e-2 0.27798511
v -0.15726015 -0.11215107 0.41806929
v -5.0148474e-2 1.8570989e-2 0.27798511
v -5.0148474e-2 -0.11215107 0.41806929
v -3.2608507e-2 0.44699895 0.61980788
v 7.4503173e-2 0.44699895 0.61980788
v -3.2608507e-2 0.61537957 0.17325891
v 7.4503173e-2 0.61537957 0.17325891
v -3.2608507e-2 -0.34615687 0.17593616
v -3.2608507e-2 -0.26718745 0.35050897
v 7.4503173e-2 -0.34615687 0.17593616
v 7.4503173e-2 -0.26718745 0.35050897
v -3.2608507e-2 -0.27337964 -1.7070586e-2
v -3.2608507e-2 -9.8806828e-2 -9.6040001e-2
v 7.4503173e-2 -0.27337964 -1.7070586e-2
v 7.4503173e-2 -9.8806828e-2 -9.6040001e-2
v 1.10629274 2.85196906 1.75483909
v 1.20821290 2.95445829 1.77744783
v 1.33924078 2.83020446 1.75003790
v 1.23732061 2.72771524 1.72742916
v 1.10629274 2.92066460 1.44343065
v 1.15426813 2.96890785 1.45407293
v 1.28529601 2.84465403 1.42666301
v 1.23732061 2.79641077 1.41602072
vt 0.0000000e+0 0.0000000e+0
vt 0.0000000e+0 3.6674373e-2
vt 0.0000000e+0 9.1630562e-2
vt 0.0000000e+0 9.1630562e-2
vt 0.0000000e+0 0.10991238
vt 0.0000000e+0 0.66841416
vt 0.0000000e+0 0.76469494
vt 6.2450045e-17 0.10991238
vt 1.6653345e-16 7.3348746e-2
vt 5.8045932e-4 2.2760518e-2
vt 5.8045932e-4 5.9434891e-2
vt 1.3347024e-2 9.1630562e-2
vt 1.3347024e-2 7.3348746e-2
vt 1.3347024e-2 0.10991238
vt 1.3347024e-2 9.1630562e-2
vt 1.8497171e-2 0.66841416
vt 1.8497171e-2 0.10991238
vt 1.9239144e-2 2.2277788e-2
vt 1.9239144e-2 5.8952162e-2
vt 1.9281745e-2 1.2091001e-4
vt 1.9281745e-2 3.6795283e-2
vt 2.3275723e-2 0.77675902
vt 2.7632074e-2 0.68936256
vt 3.6994342e-2 0.66841416
vt 3.6994342e-2 0.10991238
vt 3.9893739e-2 0.66841416
vt 4.3066345e-2 0.79397319
vt 5.1414440e-2 0.94041006
vt 5.5491513e-2 0.66841416
vt 5.5491513e-2 0.10991238
vt 5.8391475e-2 0.81541996
vt 6.4515800e-2 0.91770201
vt 6.7591139e-2 0.71149047
vt 6.8427040e-2 0.84005263
vt 7.1905590e-2 0.89253482
vt 7.3252626e-2 0.86620975
vt 7.3988683e-2 0.66841416
vt 7.3988683e-2 0.10991238
vt 7.5010756e-2 0.34248334
vt 7.7439691e-2 0.54850967
vt 7.7439691e-2 0.60349634
vt 7.7625342e-2 0.56440366
vt 7.7625342e-2 0.61939033
vt 8.1288920e-2 0.69264388
vt 8.6395022e-2 0.56095791
vt 8.6395022e-2 0.61594458
vt 9.3830061e-2 0.55701448
vt 9.3830061e-2 0.61200115
vt 9.3845599e-2 0.37937157
vt 9.4833382e-2 0.33236116
vt 0.10110335 0.74063697
vt 0.11245674 0.36827567
vt 0.11529620 0.98896539
vt 0.11733631 0.41425828
vt 0.11835773 0.72473868
vt 0.12744963 0.77644628
vt 0.13445940 0.40067805
vt 0.13691613 1.00000000
vt 0.13702456 0.94878767
vt 0.14055790 0.31520749
vt 0.14516230 0.81759981
vt 0.14611910 0.44587740
vt 0.14803789 0.76457415
vt 0.14953954 0.90617357
vt 0.15242725 0.86181036
vt 0.15310722 0.34499732
vt 0.15872111 0.95727784
vt 0.16131820 0.42965874
vt 0.16849739 0.81077194
vt 0.17094440 0.37122693
vt 0.17264243 0.91026327
vt 0.17616788 0.86071181
vt 0.17616788 0.86071181
vt 0.17969333 0.91026327
vt 0.17983908 0.47347190
vt 0.18383837 0.81077194
vt 0.19098937 0.64809090
vt 0.19098937 0.65267358
vt 0.19281139 0.45479906
vt 0.19337186 0.39423141
vt 0.19361464 0.95727784
vt 0.19990850 0.86181036
vt 0.20240370 0.30131664
vt 0.20279621 0.90617357
vt 0.20429786 0.76457415
vt 0.20717345 0.81759981
vt 0.21051362 0.31429898
vt 0.21531119 0.94878767
vt 0.21541963 1.00000000
vt 0.21598252 0.28390088
vt 0.21798193 0.49659182
vt 0.21985024 0.41385746
vt 0.22308109 0.32704711
vt 0.22488613 0.77644628
vt 0.22848467 0.47567282
vt 0.22943538 0.29007976
vt 0.23397803 0.72473868
vt 0.23703956 0.98896539
vt 0.23914984 0.33883231
vt 0.24368036 0.29646197
vt 0.24985331 0.42978055
vt 0.25123241 0.74063697
vt 0.25804262 0.34907771
vt 0.25893224 0.30255309
vt 0.26037262 0.51485802
vt 0.26753397 0.15222995
vt 0.26804948 0.49174304
vt 0.27104683 0.69264388
vt 0.27525867 0.30793818
vt 0.27635042 0.15581678
vt 0.27908313 0.86620975
vt 0.27918863 0.35733448
vt 0.28043016 0.89253482
vt 0.28044208 0.13633367
vt 0.28085044 0.62767462
vt 0.28085044 0.57268795
vt 0.28174922 0.87246509
vt 0.28281158 0.44150692
vt 0.28323253 0.87245614
vt 0.28390871 0.84005263
vt 0.28473959 0.63238667
vt 0.28473959 0.57740000
vt 0.28474462 0.71149047
vt 0.28517400 0.15880968
vt 0.28781995 0.91770201
vt 0.28867986 0.63242018
vt 0.28867986 0.57743351
vt 0.29188487 0.14169453
vt 0.29253275 0.31228736
vt 0.29264859 0.62777496
vt 0.29264859 0.57278829
vt 0.29394428 0.81541996
vt 0.29408993 0.16122412
vt 0.29905465 9.1630562e-2
vt 0.29905465 0.10991238
vt 0.29905465 7.3348746e-2
vt 0.29905465 9.1630562e-2
vt 0.29960935 0.86067901
vt 0.29982546 0.88391762
vt 0.30074915 0.86391389
vt 0.30090453 0.88066231
vt 0.30092131 0.94041006
vt 0.30201879 0.36321451
vt 0.30313791 0.16303967
vt 0.30602335 0.14406368
vt 0.30707525 0.52749932
vt 0.30799006 0.64809090
vt 0.30799006 0.65267358
vt 0.30799006 0.65728819
vt 0.30877375 0.66224024
vt 0.30926941 0.79397319
vt 0.31058749 0.31531813
vt 0.31117705 0.50217702
vt 0.31234762 0.16430866
vt 0.31240167 9.1630562e-2
vt 0.31240167 0.10991238
vt 0.31240167 7.3348746e-2
vt 0.31240167 9.1630562e-2
vt 0.31244202 0.66841416
vt 0.31803582 0.44839242
vt 0.32168532 0.16501642
vt 0.32189271 0.14404286
vt 0.32470368 0.68936256
vt 0.32598374 0.36640070
vt 0.32906003 0.77675902
vt 0.32919481 0.31687125
vt 0.33004069 0.64809090
vt 0.33114895 0.16521949
vt 0.33170558 0.65861117
vt 0.33337046 0.64809090
vt 0.33708763 6.0069701e-2
vt 0.33708763 2.3395328e-2
vt 0.33776666 5.9583548e-2
vt 0.33776666 2.2909175e-2
vt 0.33952446 0.14155951
vt 0.34066163 0.16494146
vt 0.34132211 0.85345337
vt 0.34166456 0.89036832
vt 0.34197509 0.85871043
vt 0.34221992 0.88510007
vt 0.34337744 5.9434891e-2
vt 0.34337744 2.2760518e-2
vt 0.34354250 3.8827756e-2
vt 0.34354250 2.1533831e-3
vt 0.34602363 7.1196933e-2
vt 0.34602363 3.4522560e-2
vt 0.34616101 4.9861628e-2
vt 0.34616101 1.3187255e-2
vt 0.34804650 0.31678640
vt 0.35015639 0.16429508
vt 0.35047371 0.36669367
vt 0.35132486 5.0165801e-2
vt 0.35132486 1.3491428e-2
vt 0.35196066 1.3124532e-2
vt 0.35196066 4.9798905e-2
vt 0.35233575 0.76469494
vt 0.35451042 0.44969502
vt 0.35463740 0.66224024
vt 0.35542109 0.65728819
vt 0.35542109 0.65861117
vt 0.35708597 0.64809090
vt 0.35721296 0.50526353
vt 0.35731398 0.14232018
vt 0.35854998 0.53275490
vt 0.35955565 0.16317462
vt 0.36681745 0.31504150
vt 0.36878060 0.16156408
vt 0.37311047 0.14080095
vt 0.37481967 0.36402560
vt 0.37782371 0.15940738
vt 0.37835291 0.66224024
vt 0.37913660 0.65728819
vt 0.37913660 0.65168770
vt 0.38262945 0.64809090
vt 0.38518625 0.31169007
vt 0.38665281 0.15672239
vt 0.38695233 0.13707099
vt 0.38867610 0.66095150
vt 0.39068648 0.44485910
vt 0.39216895 0.65168770
vt 0.39216895 0.65735470
vt 0.39529237 0.15345415
vt 0.39566180 0.64809090
vt 0.39708898 0.84987412
vt 0.39738793 0.85624985
vt 0.39748825 0.89291235
vt 0.39766886 0.88653217
vt 0.39782090 0.13062503
vt 0.39836233 0.35852891
vt 0.40170845 0.66095150
vt 0.40273208 0.49772430
vt 0.40286168 0.30692159
vt 0.40378387 0.14961915
vt 0.40520130 0.65735470
vt 0.40869415 0.66095150
vt 0.40927178 0.52252906
vt 0.41221065 0.14519370
vt 0.41474079 0.64809090
vt 0.41823365 0.65168770
vt 0.41963219 0.30091667
vt 0.42051415 0.35046121
vt 0.42507632 0.43458797
vt 0.43535901 0.29397269
vt 0.44075913 0.34019142
vt 0.44464361 0.48315450
vt 0.44994783 0.28643029
vt 0.45452730 0.50541544
vt 0.45639282 0.70150157
vt 0.45639282 0.69691889
vt 0.45674112 0.41971870
vt 0.45856855 0.32816103
vt 0.45937194 0.84849006
vt 0.45943416 0.85519763
vt 0.45972393 0.88643311
vt 0.45978616 0.89314068
vt 0.46350626 0.27869588
vt 0.47341784 0.31487215
vt 0.47629604 0.27124071
vt 0.47734369 0.52041803
vt 0.47990848 0.61528451
vt 0.47990848 0.56029784
vt 0.48246227 0.46332080
vt 0.48267998 0.49712974
vt 0.48468893 0.30096465
vt 0.48505744 0.40095929
vt 0.48727538 0.61935382
vt 0.48727538 0.56436715
vt 0.49030514 0.52338802
vt 0.49150078 0.28725661
vt 0.49494540 0.48312190
vt 0.49564143 0.50009974
vt 0.49564143 0.50009974
vt 0.49598518 0.62294822
vt 0.49598518 0.56796155
vt 0.49644113 0.55207302
vt 0.49644113 0.60705969
vt 0.50097772 0.52338802
vt 0.50337674 0.53787219
vt 0.50337674 0.65487288
vt 0.50337674 0.65487288
vt 0.50337674 0.65945557
vt 0.50337674 0.65945557
vt 0.50337674 0.66403825
vt 0.50860288 0.49712974
vt 0.50950636 0.37885643
vt 0.51393917 0.51020922
vt 0.51393917 0.52041803
vt 0.51594162 0.43908385
vt 0.52148924 0.85509857
vt 0.52166985 0.84871839
vt 0.52177017 0.88538089
vt 0.52206912 0.89175662
vt 0.52701864 0.49712974
vt 0.52701864 0.52328869
vt 0.52959564 0.35378418
vt 0.53066470 0.45640974
vt 0.54009812 0.50735196
vt 0.54009812 0.51020922
vt 0.54309213 0.50012376
vt 0.54309213 0.51458016
vt 0.54480334 0.32594745
vt 0.54484658 0.41100611
vt 0.55032033 0.49712974
vt 0.55032033 0.51757417
vt 0.55440266 0.29508043
vt 0.55754853 0.50012376
vt 0.55754853 0.51458016
vt 0.56054255 0.50735196
vt 0.56154779 0.42567331
vt 0.56876637 0.37955583
vt 0.57339351 0.69691889
vt 0.57339351 0.70150157
vt 0.57693816 0.85653066
vt 0.57718299 0.88292029
vt 0.57749353 0.85126242
vt 0.57783599 0.88817737
vt 0.58712646 0.39141036
vt 0.58752088 0.34517126
vt 0.59810930 9.1630562e-2
vt 0.59810930 7.3348746e-2
vt 0.59810930 0.10991238
vt 0.59810930 9.1630562e-2
vt 0.60157596 0.30771608
vt 0.60712093 0.35440878
vt 0.61145632 9.1630562e-2
vt 0.61145632 0.10991238
vt 0.61145632 0.10215083
vt 0.61145632 7.3348746e-2
vt 0.61145632 7.7226080e-2
vt 0.61145632 9.1630562e-2
vt 0.61312121 9.1630562e-2
vt 0.61361431 9.0347176e-2
vt 0.61825357 0.86096842
vt 0.61840894 0.87771684
vt 0.61933252 0.85771347
vt 0.61954905 0.88095150
vt 0.62037743 0.65850196
vt 0.62037743 0.53787219
vt 0.62037743 0.65487288
vt 0.62037743 0.65487288
vt 0.62037743 0.65945557
vt 0.62037743 0.65945557
vt 0.62037743 0.66403825
vt 0.62037743 0.59561797
vt 0.62037743 0.60787694
vt 0.62037743 0.62182664
vt 0.62037743 0.63684429
vt 0.62037743 0.65079398
vt 0.62116112 0.66345401
vt 0.62228728 0.31586692
vt 0.62817571 0.60787694
vt 0.62817571 0.62182664
vt 0.62817571 0.63684429
vt 0.62817571 0.65079398
vt 0.62817571 0.60787694
vt 0.62817571 0.62182664
vt 0.62817571 0.63684429
vt 0.62817571 0.65079398
vt 0.63503145 7.3348746e-2
vt 0.63526935 0.10021169
vt 0.63592011 0.86917065
vt 0.63597398 0.64131606
vt 0.63597398 0.60787694
vt 0.63597398 0.62182664
vt 0.63597398 0.63684429
vt 0.63597398 0.65079398
vt 0.63597398 0.60787694
vt 0.63597398 0.63211877
vt 0.63605304 9.5259641e-2
vt 0.63605304 0.10215083
vt 0.63675767 0.64626812
vt 0.63718944 8.6469842e-2
vt 0.63718944 8.6469842e-2
vt 0.63740888 0.86916565
vt 0.63771792 9.1630562e-2
vt 0.63934743 7.3348746e-2
vt 0.63998376 0.54362157
vt 0.64330926 0.65487288
vt 0.64497414 0.66539315
vt 0.64497414 0.65850196
vt 0.64528605 0.60787694
vt 0.64528605 0.63211877
vt 0.64575783 0.66345401
vt 0.64856165 0.82151391
vt 0.64864998 0.82179854
vt 0.65269355 0.53787219
vt 0.65288847 0.60787694
vt 0.65459811 0.60787694
vt 0.65459811 0.63211877
vt 0.65802461 0.63211877
vt 0.65968950 0.63952233
vt 0.65968950 0.64263904
vt 0.65986606 0.10021169
vt 0.66064975 9.5259641e-2
vt 0.66064975 9.9271697e-2
vt 0.66076457 9.0347176e-2
vt 0.66124393 0.75775579
vt 0.66124393 0.88527203
vt 0.66133226 0.75804042
vt 0.66133226 0.88555666
vt 0.66292256 7.7226080e-2
vt 0.66292256 8.0989881e-2
vt 0.66391017 0.60787694
vt 0.66391017 0.63211877
vt 0.66533767 0.63211877
vt 0.66630190 0.10991238
vt 0.66630190 0.15974862
vt 0.66630190 0.15974862
vt 0.66630190 0.20958487
vt 0.66674543 0.54317075
vt 0.66709305 0.64517050
vt 0.66790597 0.65487288
vt 0.66807005 9.1630562e-2
vt 0.66957086 0.66052106
vt 0.66957086 0.66539315
vt 0.67018924 0.10853550
vt 0.67034286 7.3348746e-2
vt 0.67246205 9.0253686e-2
vt 0.67249480 0.53787219
vt 0.67249480 0.55588054
vt 0.67249480 0.59344228
vt 0.67249480 0.60270608
vt 0.67274123 0.63776694
vt 0.67322223 0.61714075
vt 0.67322223 0.63404569
vt 0.67322223 0.60787694
vt 0.67322223 0.63211877
vt 0.67410017 0.10991238
vt 0.67410017 0.15974862
vt 0.67410017 0.20958487
vt 0.67521903 0.66792461
vt 0.67598765 0.60630288
vt 0.67697441 0.65487288
vt 0.67760955 0.10089437
vt 0.67988236 8.2612552e-2
vt 0.68029308 0.53787219
vt 0.68029308 0.59344228
vt 0.68037106 7.3348746e-2
vt 0.68037106 3.6674373e-2
vt 0.68041611 5.0582065e-2
vt 0.68041611 1.3907692e-2
vt 0.68041611 0.45377635
vt 0.68064254 0.62478188
vt 0.68064254 0.64168682
vt 0.68203430 0.59344228
vt 0.68262258 0.66227644
vt 0.68276173 0.60787694
vt 0.68276173 0.62478188
vt 0.68548261 0.47924737
vt 0.68548261 0.42830533
vt 0.68552715 0.59703908
vt 0.68809135 0.53787219
vt 0.68809135 0.59344228
vt 0.69018203 0.61551807
vt 0.69018203 0.63242301
vt 0.69145761 0.52008997
vt 0.69145761 0.63709066
vt 0.69736000 0.70370427
vt 0.69736000 0.93932356
vt 0.69744833 0.93960818
vt 0.69744833 0.70398889
vt 0.69991079 0.40671204
vt 0.69991079 0.50084066
vt 0.72150408 0.39228387
vt 0.72150408 0.51526884
vt 0.74697510 0.38721737
vt 0.74697510 0.52033534
vt 0.75141153 0.66758819
vt 0.75141153 0.97543963
vt 0.75149986 0.97572426
vt 0.75149986 0.66787282
vt 0.77244612 0.39228387
vt 0.77244612 0.51526884
vt 0.79403941 0.50084066
vt 0.79403941 0.40671204
vt 0.80776797 0.40044105
vt 0.80845830 0.52008997
vt 0.80845830 0.63709066
vt 0.80846758 0.47924737
vt 0.80846758 0.42830533
vt 0.81351734 0.38773127
vt 0.81353408 0.45377635
vt 0.81353408 0.45842259
vt 0.81516965 0.65490591
vt 0.81516965 0.98812191
vt 0.81525596 0.50822908
vt 0.81525798 0.65519054
vt 0.81525798 0.98840654
vt 0.82457559 0.56730744
vt 0.82545480 0.51774631
vt 0.82629746 0.51750095
vt 0.82737430 0.45243746
vt 0.82756921 0.38243271
vt 0.83409282 0.57750628
vt 0.84027900 0.38818209
vt 0.84046348 0.51722744
vt 0.84825884 0.45722211
vt 0.84910150 0.57802515
vt 0.84998071 0.50702860
vt 0.85930035 0.56850792
vt 0.85988533 0.44017849
vt 0.86102222 0.51870143
vt 0.86626161 0.42444312
vt 0.87289627 5.4790644e-3
vt 0.87488633 0.40811553
vt 0.87877515 0.41557928
vt 0.87892777 0.66758819
vt 0.87892777 0.97543963
vt 0.87901610 0.66787282
vt 0.87901610 0.97572426
vt 0.88099968 2.2071556e-2
vt 0.88215653 0.42437398
vt 0.88512288 1.4734688e-2
vt 0.88878103 6.0514626e-3
vt 0.89193031 0.22121508
vt 0.89211712 0.20941798
vt 0.89667073 0.21736057
vt 0.89673312 0.21342065
vt 0.90211656 0.45537128
vt 0.90875123 3.6407221e-2
vt 0.91074129 0.43904369
vt 0.91463011 0.44650744
vt 0.91685464 5.2999713e-2
vt 0.91801149 0.45530214
vt 0.92097784 4.5662844e-2
vt 0.92463599 3.6979619e-2
vt 0.92778526 0.25214323
vt 0.92797208 0.24034613
vt 0.93252569 0.24828873
vt 0.93258808 0.24434881
vt 0.93297929 0.70370427
vt 0.93297929 0.93932356
vt 0.93306763 0.70398889
vt 0.93306763 0.93960818
vt 0.96909537 0.75775579
vt 0.96909537 0.88527203
vt 0.96918370 0.88555666
vt 0.96918370 0.75804042
vt 0.98177765 0.82151391
vt 0.98186598 0.82179854
vn 0.0000000e+0 0.0000000e+0 0.0000000e+0
vn 0.0000000e+0 0.0000000e+0 0.0000000e+0
vn 0.0000000e+0 0.0000000e+0 0.0000000e+0
vn 0.0000000e+0 0.0000000e+0 0.0000000e+0
vn 0.0000000e+0 0.0000000e+0 0.0000000e+0
vn 0.0000000e+0 0.0000000e+0 0.0000000e+0
vn 0.0000000e+0 0.0000000e+0 0.0000000e+0
vn 0.0000000e+0 0.0000000e+0 0.0000000e+0
vn 0.0000000e+0 0.0000000e+0 0.0000000e+0
vn 0.0000000e+0 0.0000000e+0 0.0000000e+0
vn 0.0000000e+0 0.0000000e+0 0.0000000e+0
vn 0.0000000e+0 0.0000000e+0 0.0000000e+0
vn 0.0000000e+0 0.0000000e+0 0.0000000e+0
vn 0.0000000e+0 0.0000000e+0 0.0000000e+0
vn 0.0000000e+0 0.0000000e+0 0.0000000e+0
vn 0.0000000e+0 0.0000000e+0 0.0000000e+0
vn 0.98094122 4.1856562e-2 -0.18974285
vn 0.90627152 -0.32472003 -0.27060827
vn 0.69363019 -0.63548867 -0.33916267
vn 0.37538995 -0.84313763 -0.38496925
vn 3.6009644e-17 -0.91605425 -0.40105438
vn -0.37538995 -0.84313763 -0.38496925
vn -0.69363019 -0.63548867 -0.33916267
vn -0.90627152 -0.32472003 -0.27060827
vn -0.98094122 4.1856562e-2 -0.18974285
vn -0.90627152 0.40843316 -0.10887743
vn -0.69363019 0.71920179 -4.0323033e-2
vn -0.37538995 0.92685075 5.4835494e-3
vn -2.5926943e-16 0.99976737 2.1568682e-2
vn 0.37538995 0.92685075 5.4835494e-3
vn 0.69363019 0.71920179 -4.0323033e-2
vn 0.90627152 0.40843316 -0.10887743
vn 0.83738899 0.11774860 -0.53377425
vn 0.77364655 -0.19518270 -0.60280572
vn 0.59212343 -0.46047304 -0.66132777
vn 0.32045489 -0.63773438 -0.70043096
vn 2.1472634e-17 -0.69998028 -0.71416217
vn -0.32045489 -0.63773438 -0.70043096
vn -0.59212343 -0.46047304 -0.66132777
vn -0.77364655 -0.19518270 -0.60280572
vn -0.83738899 0.11774860 -0.53377425
vn -0.77364655 0.43067989 -0.46474278
vn -0.59212343 0.69597023 -0.40622072
vn -0.32045489 0.87323157 -0.36711753
vn -1.4315089e-17 0.93547748 -0.35338632
vn 0.32045489 0.87323157 -0.36711753
vn 0.59212343 0.69597023 -0.40622072
vn 0.77364655 0.43067989 -0.46474278
vn 0.83982810 0.11693971 -0.53010741
vn 0.77589999 -0.19690308 -0.59933995
vn 0.59384814 -0.46296614 -0.65803247
vn 0.32138830 -0.64074380 -0.69724955
vn 0.0000000e+0 -0.70317101 -0.71102076
vn -0.32138830 -0.64074380 -0.69724955
vn -0.59384814 -0.46296614 -0.65803247
vn -0.77589999 -0.19690308 -0.59933995
vn -0.83982810 0.11693971 -0.53010741
vn -0.77589999 0.43078249 -0.46087487
vn -0.59384814 0.69684556 -0.40218236
vn -0.32138830 0.87462322 -0.36296527
vn -2.1492470e-17 0.93705043 -0.34919406
vn 0.32138830 0.87462322 -0.36296527
vn 0.59384814 0.69684556 -0.40218236
vn 0.77589999 0.43078249 -0.46087487
vn 0.96753544 5.4443531e-2 -0.24680170
vn 0.89388619 -0.30712334 -0.32656200
vn 0.68415087 -0.61364493 -0.39417951
vn 0.37025978 -0.81845611 -0.43936009
vn 7.1209777e-18 -0.89037623 -0.45522540
vn -0.37025978 -0.81845611 -0.43936009
vn -0.68415087 -0.61364493 -0.39417951
vn -0.89388619 -0.30712334 -0.32656200
vn -0.96753544 5.4443531e-2 -0.24680170
vn -0.89388619 0.41601040 -0.16704141
vn -0.68415087 0.72253199 -9.9423893e-2
vn -0.37025978 0.92734317 -5.4243314e-2
vn -2.8483911e-17 0.99926329 -3.8378005e-2
vn 0.37025978 0.92734317 -5.4243314e-2
vn 0.68415087 0.72253199 -9.9423893e-2
vn 0.89388619 0.41601040 -0.16704141
vn 0.87954784 0.10249772 -0.46463944
vn 0.77268107 -0.19444801 -0.60427969
vn 0.62193424 -0.50483483 -0.59861472
vn 0.32005498 -0.63644740 -0.70178310
vn -7.5298682e-17 -0.75640021 -0.65410910
vn -0.32005498 -0.63644740 -0.70178310
vn -0.62193424 -0.50483483 -0.59861472
vn -0.77268107 -0.19444801 -0.60427969
vn -0.87954784 0.10249772 -0.46463944
vn -0.77268107 0.43063352 -0.46638904
vn -0.62193424 0.70983027 -0.33066416
vn -0.32005498 0.87263291 -0.36888564
vn -1.5059736e-17 0.96139565 -0.27516978
vn 0.32005498 0.87263291 -0.36888564
vn 0.62193424 0.70983027 -0.33066416
vn 0.77268107 0.43063352 -0.46638904
vn 0.51652632 0.18445550 -0.83616788
vn 0.36523926 -0.17220872 -0.91484667
vn -1.1699847e-17 -0.31994388 -0.94743650
vn -0.36523926 -0.17220872 -0.91484667
vn -0.51652632 0.18445550 -0.83616788
vn -0.36523926 0.54111972 -0.75748909
vn 5.8499234e-17 0.68885488 -0.72489927
vn 0.36523926 0.54111972 -0.75748909
vn -0.86674936 0.27601410 0.41540553
vn -0.93816275 -7.4576229e-2 0.33806662
vn -0.86674936 -0.42516656 0.26072771
vn -0.66338124 -0.72238269 0.19516294
vn -0.35901934 -0.92097616 0.15135397
vn 3.7533801e-17 -0.99071291 0.13597030
vn 0.35901934 -0.92097616 0.15135397
vn 0.66338124 -0.72238269 0.19516294
vn 0.86674936 -0.42516656 0.26072771
vn 0.93816275 -7.4576229e-2 0.33806662
vn 0.86674936 0.27601410 0.41540553
vn 0.66338124 0.57323023 0.48097030
vn 0.35901934 0.77182370 0.52477927
vn -3.0027040e-17 0.84156046 0.54016294
vn -0.35901934 0.77182370 0.52477927
vn -0.66338124 0.57323023 0.48097030
vn -0.50947376 2.6373771e-2 0.86008192
vn -0.55145043 -0.17970261 0.81462224
vn -0.50947376 -0.38577900 0.76916256
vn -0.38993434 -0.56048212 0.73062371
vn -0.21103094 -0.67721502 0.70487287
vn 1.5232682e-16 -0.71820616 0.69583038
vn 0.21103094 -0.67721502 0.70487287
vn 0.38993434 -0.56048212 0.73062371
vn 0.50947376 -0.38577900 0.76916256
vn 0.55145043 -0.17970261 0.81462224
vn 0.50947376 2.6373771e-2 0.86008192
vn 0.38993434 0.20107689 0.89862077
vn 0.21103094 0.31780979 0.92437161
vn 1.0155121e-17 0.35880093 0.93341411
vn -0.21103094 0.31780979 0.92437161
vn -0.38993434 0.20107689 0.89862077
vn 1.00000000 0.0000000e+0 -1.5564637e-16
vn 1.00000000 0.0000000e+0 -1.5564637e-16
vn 1.5403446e-16 -0.21541712 0.97652213
vn 1.5403446e-16 -0.21541712 0.97652213
vn 0.92387953 -0.37369884 -8.2436563e-2
vn 0.92387953 -0.37369884 -8.2436563e-2
vn 3.0806892e-16 -0.21541712 0.97652213
vn 3.0806892e-16 -0.21541712 0.97652213
vn 0.70710678 -0.69050542 -0.15232291
vn 0.70710678 -0.69050542 -0.15232291
vn 1.1552584e-16 -0.21541712 0.97652213
vn 1.1552584e-16 -0.21541712 0.97652213
vn 0.38268343 -0.90218881 -0.19901947
vn 0.38268343 -0.90218881 -0.19901947
vn -1.9254307e-16 -0.21541712 0.97652213
vn -1.9254307e-16 -0.21541712 0.97652213
vn 2.8299339e-17 -0.97652213 -0.21541712
vn 2.8299339e-17 -0.97652213 -0.21541712
vn -1.1375836e-18 -0.21541712 0.97652213
vn -1.1375836e-18 -0.21541712 0.97652213
vn -0.38268343 -0.90218881 -0.19901947
vn -0.38268343 -0.90218881 -0.19901947
vn 4.1283002e-16 -0.21541712 0.97652213
vn 4.1283002e-16 -0.21541712 0.97652213
vn -0.70710678 -0.69050542 -0.15232291
vn -0.70710678 -0.69050542 -0.15232291
vn 6.0651068e-16 -0.21541712 0.97652213
vn 6.0651068e-16 -0.21541712 0.97652213
vn -0.92387953 -0.37369884 -8.2436563e-2
vn -0.92387953 -0.37369884 -8.2436563e-2
vn 3.4657753e-16 -0.21541712 0.97652213
vn 3.4657753e-16 -0.21541712 0.97652213
vn -1.00000000 -1.4149670e-16 -2.4054439e-16
vn -1.00000000 -1.4149670e-16 -2.4054439e-16
vn -6.1613784e-16 -0.21541712 0.97652213
vn -6.1613784e-16 -0.21541712 0.97652213
vn -0.92387953 0.37369884 8.2436563e-2
vn -0.92387953 0.37369884 8.2436563e-2
vn -9.2420675e-16 -0.21541712 0.97652213
vn -9.2420675e-16 -0.21541712 0.97652213
vn -0.70710678 0.69050542 0.15232291
vn -0.70710678 0.69050542 0.15232291
vn -3.0806892e-16 -0.21541712 0.97652213
vn -3.0806892e-16 -0.21541712 0.97652213
vn -0.38268343 0.90218881 0.19901947
vn -0.38268343 0.90218881 0.19901947
vn -1.5403446e-16 -0.21541712 0.97652213
vn -1.5403446e-16 -0.21541712 0.97652213
vn -4.9523844e-16 0.97652213 0.21541712
vn -4.9523844e-16 0.97652213 0.21541712
vn 2.6956030e-16 -0.21541712 0.97652213
vn 2.6956030e-16 -0.21541712 0.97652213
vn 0.38268343 0.90218881 0.19901947
vn 0.38268343 0.90218881 0.19901947
vn 1.1937671e-15 -0.21541712 0.97652213
vn 1.1937671e-15 -0.21541712 0.97652213
vn 0.70710678 0.69050542 0.15232291
vn 0.70710678 0.69050542 0.15232291
vn 7.7017229e-16 -0.21541712 0.97652213
vn 7.7017229e-16 -0.21541712 0.97652213
vn 0.92387953 0.37369884 8.2436563e-2
vn 0.92387953 0.37369884 8.2436563e-2
vn 0.0000000e+0 -0.21541712 0.97652213
vn 0.0000000e+0 -0.21541712 0.97652213
vn 3.0806892e-16 -0.21541712 0.97652213
vn 3.0806892e-16 -0.21541712 0.97652213
vn -0.92387953 0.37369884 8.2436563e-2
vn -0.92387953 0.37369884 8.2436563e-2
vn 1.5403446e-16 -0.21541712 0.97652213
vn 1.5403446e-16 -0.21541712 0.97652213
vn -1.00000000 -2.8299339e-17 -2.4761922e-16
vn -1.00000000 -2.8299339e-17 -2.4761922e-16
vn 0.0000000e+0 -0.21541712 0.97652213
vn 0.0000000e+0 -0.21541712 0.97652213
vn -0.92387953 -0.37369884 -8.2436563e-2
vn -0.92387953 -0.37369884 -8.2436563e-2
vn 7.7017229e-16 -0.21541712 0.97652213
vn 7.7017229e-16 -0.21541712 0.97652213
vn -0.70710678 -0.69050542 -0.15232291
vn -0.70710678 -0.69050542 -0.15232291
vn 1.1937671e-15 -0.21541712 0.97652213
vn 1.1937671e-15 -0.21541712 0.97652213
vn -0.38268343 -0.90218881 -0.19901947
vn -0.38268343 -0.90218881 -0.19901947
vn 2.6956030e-16 -0.21541712 0.97652213
vn 2.6956030e-16 -0.21541712 0.97652213
vn -1.2734703e-16 -0.97652213 -0.21541712
vn -1.2734703e-16 -0.97652213 -0.21541712
vn -1.5403446e-16 -0.21541712 0.97652213
vn -1.5403446e-16 -0.21541712 0.97652213
vn 0.38268343 -0.90218881 -0.19901947
vn 0.38268343 -0.90218881 -0.19901947
vn -3.0806892e-16 -0.21541712 0.97652213
vn -3.0806892e-16 -0.21541712 0.97652213
vn 0.70710678 -0.69050542 -0.15232291
vn 0.70710678 -0.69050542 -0.15232291
vn -9.2420675e-16 -0.21541712 0.97652213
vn -9.2420675e-16 -0.21541712 0.97652213
vn 0.92387953 -0.37369884 -8.2436563e-2
vn 0.92387953 -0.37369884 -8.2436563e-2
vn -6.1613784e-16 -0.21541712 0.97652213
vn -6.1613784e-16 -0.21541712 0.97652213
vn 1.00000000 1.6979604e-16 -4.1034042e-16
vn 1.00000000 1.6979604e-16 -4.1034042e-16
vn 3.4657753e-16 -0.21541712 0.97652213
vn 3.4657753e-16 -0.21541712 0.97652213
vn 0.92387953 0.37369884 8.2436563e-2
vn 0.92387953 0.37369884 8.2436563e-2
vn 6.0651068e-16 -0.21541712 0.97652213
vn 6.0651068e-16 -0.21541712 0.97652213
vn 0.70710678 0.69050542 0.15232291
vn 0.70710678 0.69050542 0.15232291
vn 4.1283002e-16 -0.21541712 0.97652213
vn 4.1283002e-16 -0.21541712 0.97652213
vn 0.38268343 0.90218881 0.19901947
vn 0.38268343 0.90218881 0.19901947
vn -1.1375836e-18 -0.21541712 0.97652213
vn -1.1375836e-18 -0.21541712 0.97652213
vn -5.6598679e-17 0.97652213 0.21541712
vn -5.6598679e-17 0.97652213 0.21541712
vn -1.9254307e-16 -0.21541712 0.97652213
vn -1.9254307e-16 -0.21541712 0.97652213
vn -0.38268343 0.90218881 0.19901947
vn -0.38268343 0.90218881 0.19901947
vn 1.1552584e-16 -0.21541712 0.97652213
vn 1.1552584e-16 -0.21541712 0.97652213
vn -0.70710678 0.69050542 0.15232291
vn -0.70710678 0.69050542 0.15232291
vn -2.1505306e-16 -0.21541712 0.97652213
vn -0.71739715 -0.68030824 -0.15007345
vn -2.1505306e-16 -0.21541712 0.97652213
vn 0.67699262 -0.62994279 -0.38059568
vn -0.71739715 -0.68030824 -0.15007345
vn -2.1505306e-16 -0.21541712 0.97652213
vn 0.71739715 0.68030824 0.15007345
vn 0.67699262 -0.62994279 -0.38059568
vn -2.1505306e-16 -0.21541712 0.97652213
vn 0.71739715 0.68030824 0.15007345
vn 1.3792129e-16 0.21541712 -0.97652213
vn -0.71739715 -0.68030824 -0.15007345
vn 0.67699262 -0.62994279 -0.38059568
vn 1.3792129e-16 0.21541712 -0.97652213
vn -0.71739715 -0.68030824 -0.15007345
vn 0.71739715 0.68030824 0.15007345
vn 0.67699262 -0.62994279 -0.38059568
vn 1.3792129e-16 0.21541712 -0.97652213
vn 0.71739715 0.68030824 0.15007345
vn 1.3792129e-16 0.21541712 -0.97652213
vn 1.9476503e-16 -0.21541712 0.97652213
vn 0.71739715 -0.68030824 -0.15007345
vn 1.9476503e-16 -0.21541712 0.97652213
vn -0.67699262 -0.62994279 -0.38059568
vn 0.71739715 -0.68030824 -0.15007345
vn 1.9476503e-16 -0.21541712 0.97652213
vn -0.71739715 0.68030824 0.15007345
vn -0.67699262 -0.62994279 -0.38059568
vn 1.9476503e-16 -0.21541712 0.97652213
vn -0.71739715 0.68030824 0.15007345
vn -2.0688194e-16 0.21541712 -0.97652213
vn 0.71739715 -0.68030824 -0.15007345
vn -0.67699262 -0.62994279 -0.38059568
vn -2.0688194e-16 0.21541712 -0.97652213
vn 0.71739715 -0.68030824 -0.15007345
vn -0.71739715 0.68030824 0.15007345
vn -0.67699262 -0.62994279 -0.38059568
vn -2.0688194e-16 0.21541712 -0.97652213
vn -0.71739715 0.68030824 0.15007345
vn -2.0688194e-16 0.21541712 -0.97652213
vn -9.0890350e-16 -0.21541712 0.97652213
vn 0.71739715 0.68030824 0.15007345
vn -9.0890350e-16 -0.21541712 0.97652213
vn -0.67699262 0.73160228 -8.0243943e-2
vn 0.71739715 0.68030824 0.15007345
vn -9.0890350e-16 -0.21541712 0.97652213
vn -0.71739715 -0.68030824 -0.15007345
vn -0.67699262 0.73160228 -8.0243943e-2
vn -9.0890350e-16 -0.21541712 0.97652213
vn -0.71739715 -0.68030824 -0.15007345
vn 0.0000000e+0 0.21541712 -0.97652213
vn 0.71739715 0.68030824 0.15007345
vn -0.67699262 0.73160228 -8.0243943e-2
vn 0.0000000e+0 0.21541712 -0.97652213
vn 0.71739715 0.68030824 0.15007345
vn -0.71739715 -0.68030824 -0.15007345
vn -0.67699262 0.73160228 -8.0243943e-2
vn 0.0000000e+0 0.21541712 -0.97652213
vn -0.71739715 -0.68030824 -0.15007345
vn 0.0000000e+0 0.21541712 -0.97652213
vn -0.50000000 0.0000000e+0 0.86602540
vn 1.3999934e-2 0.99978260 -1.5451623e-2
vn -0.50000000 0.0000000e+0 0.86602540
vn 1.3999934e-2 0.99978260 -1.5451623e-2
vn 0.50000000 -4.8785771e-17 0.86602540
vn -1.3999934e-2 0.99978260 -1.5451623e-2
vn 0.50000000 -4.8785771e-17 0.86602540
vn -1.3999934e-2 0.99978260 -1.5451623e-2
vn -1.00000000 0.0000000e+0 -2.3857237e-12
vn 2.0381465e-2 0.99978260 -4.3984869e-3
vn -1.00000000 0.0000000e+0 -2.3857237e-12
vn 2.0381465e-2 0.99978260 -4.3984869e-3
vn 6.3815309e-3 0.99978260 1.9850110e-2
vn -0.86602540 0.0000000e+0 -0.50000000
vn 6.3815309e-3 0.99978260 1.9850110e-2
vn -6.3815309e-3 0.99978260 1.9850110e-2
vn 0.86602540 0.0000000e+0 -0.50000000
vn -6.3815309e-3 0.99978260 1.9850110e-2
vn 1.00000000 -4.8785771e-17 -2.3855955e-12
vn -2.0381465e-2 0.99978260 -4.3984869e-3
vn 1.00000000 -4.8785771e-17 -2.3855955e-12
vn -2.0381465e-2 0.99978260 -4.3984869e-3
vn -0.50000000 0.0000000e+0 0.86602540
vn 1.3999934e-2 -0.99978260 -1.5451623e-2
vn -0.50000000 0.0000000e+0 0.86602540
vn 1.3999934e-2 -0.99978260 -1.5451623e-2
vn 0.50000000 -4.8785771e-17 0.86602540
vn -1.3999934e-2 -0.99978260 -1.5451623e-2
vn 0.50000000 -4.8785771e-17 0.86602540
vn -1.3999934e-2 -0.99978260 -1.5451623e-2
vn -1.00000000 0.0000000e+0 -2.3857237e-12
vn 2.0381465e-2 -0.99978260 -4.3984869e-3
vn -1.00000000 0.0000000e+0 -2.3857237e-12
vn 2.0381465e-2 -0.99978260 -4.3984869e-3
vn 6.3815309e-3 -0.99978260 1.9850110e-2
vn -0.86602540 0.0000000e+0 -0.50000000
vn 6.3815309e-3 -0.99978260 1.9850110e-2
vn -6.3815309e-3 -0.99978260 1.9850110e-2
vn 0.86602540 0.0000000e+0 -0.50000000
vn -6.3815309e-3 -0.99978260 1.9850110e-2
vn 1.00000000 -4.8785771e-17 -2.3855955e-12
vn -2.0381465e-2 -0.99978260 -4.3984869e-3
vn 1.00000000 -4.8785771e-17 -2.3855955e-12
vn -2.0381465e-2 -0.99978260 -4.3984869e-3
vn 1.00000000 5.5251650e-17 2.3916848e-12
vn 2.0381465e-2 0.99978260 -4.3984869e-3
vn 1.00000000 5.5251650e-17 2.3916848e-12
vn 2.0381465e-2 0.99978260 -4.3984869e-3
vn 0.50000000 -5.7732336e-16 0.86602540
vn 6.3815309e-3 0.99978260 1.9850110e-2
vn 0.50000000 -5.7732336e-16 0.86602540
vn 6.3815309e-3 0.99978260 1.9850110e-2
vn -0.50000000 0.0000000e+0 -0.86602540
vn -0.50000000 0.0000000e+0 -0.86602540
vn -1.3999934e-2 0.99978260 -1.5451623e-2
vn -1.3999934e-2 0.99978260 -1.5451623e-2
vn 0.50000000 5.5251650e-17 -0.86602540
vn 0.50000000 5.5251650e-17 -0.86602540
vn 1.3999934e-2 0.99978260 -1.5451623e-2
vn 1.3999934e-2 0.99978260 -1.5451623e-2
vn -0.50000000 -5.7732336e-16 0.86602540
vn -6.3815309e-3 0.99978260 1.9850110e-2
vn -0.50000000 -5.7732336e-16 0.86602540
vn -6.3815309e-3 0.99978260 1.9850110e-2
vn -1.00000000 0.0000000e+0 2.3917169e-12
vn -2.0381465e-2 0.99978260 -4.3984869e-3
vn -1.00000000 0.0000000e+0 2.3917169e-12
vn -2.0381465e-2 0.99978260 -4.3984869e-3
vn 0.50000000 5.5251650e-17 -0.86602540
vn 0.50000000 5.5251650e-17 -0.86602540
vn 1.3999934e-2 -0.99978260 -1.5451623e-2
vn 1.3999934e-2 -0.99978260 -1.5451623e-2
vn -0.50000000 0.0000000e+0 -0.86602540
vn -0.50000000 0.0000000e+0 -0.86602540
vn -1.3999934e-2 -0.99978260 -1.5451623e-2
vn -1.3999934e-2 -0.99978260 -1.5451623e-2
vn 0.50000000 -5.7732336e-16 0.86602540
vn 0.50000000 -5.7732336e-16 0.86602540
vn 6.3815309e-3 -0.99978260 1.9850110e-2
vn 6.3815309e-3 -0.99978260 1.9850110e-2
vn 1.00000000 5.5251650e-17 2.3916848e-12
vn 1.00000000 5.5251650e-17 2.3916848e-12
vn 2.0381465e-2 -0.99978260 -4.3984869e-3
vn 2.0381465e-2 -0.99978260 -4.3984869e-3
vn -1.00000000 0.0000000e+0 2.3917169e-12
vn -2.0381465e-2 -0.99978260 -4.3984869e-3
vn -1.00000000 0.0000000e+0 2.3917169e-12
vn -2.0381465e-2 -0.99978260 -4.3984869e-3
vn -0.50000000 -5.7732336e-16 0.86602540
vn -6.3815309e-3 -0.99978260 1.9850110e-2
vn -0.50000000 -5.7732336e-16 0.86602540
vn -6.3815309e-3 -0.99978260 1.9850110e-2
vn -0.50000000 0.0000000e+0 0.86602540
vn 1.3999934e-2 0.99978260 -1.5451623e-2
vn -0.50000000 0.0000000e+0 0.86602540
vn 1.3999934e-2 0.99978260 -1.5451623e-2
vn 0.50000000 -4.8785771e-17 0.86602540
vn -1.3999934e-2 0.99978260 -1.5451623e-2
vn 0.50000000 -4.8785771e-17 0.86602540
vn -1.3999934e-2 0.99978260 -1.5451623e-2
vn -1.00000000 0.0000000e+0 -2.3842814e-12
vn 2.0381465e-2 0.99978260 -4.3984869e-3
vn -1.00000000 0.0000000e+0 -2.3842814e-12
vn 2.0381465e-2 0.99978260 -4.3984869e-3
vn 6.3815309e-3 0.99978260 1.9850110e-2
vn -0.86602540 0.0000000e+0 -0.50000000
vn 6.3815309e-3 0.99978260 1.9850110e-2
vn -6.3815309e-3 0.99978260 1.9850110e-2
vn 0.86602540 0.0000000e+0 -0.50000000
vn -6.3815309e-3 0.99978260 1.9850110e-2
vn 1.00000000 -4.8785771e-17 -2.3858839e-12
vn -2.0381465e-2 0.99978260 -4.3984869e-3
vn 1.00000000 -4.8785771e-17 -2.3858839e-12
vn -2.0381465e-2 0.99978260 -4.3984869e-3
vn -0.50000000 0.0000000e+0 0.86602540
vn 1.3999934e-2 -0.99978260 -1.5451623e-2
vn -0.50000000 0.0000000e+0 0.86602540
vn 1.3999934e-2 -0.99978260 -1.5451623e-2
vn 0.50000000 -4.8785771e-17 0.86602540
vn -1.3999934e-2 -0.99978260 -1.5451623e-2
vn 0.50000000 -4.8785771e-17 0.86602540
vn -1.3999934e-2 -0.99978260 -1.5451623e-2
vn -1.00000000 0.0000000e+0 -2.3842814e-12
vn 2.0381465e-2 -0.99978260 -4.3984869e-3
vn -1.00000000 0.0000000e+0 -2.3842814e-12
vn 2.0381465e-2 -0.99978260 -4.3984869e-3
vn 6.3815309e-3 -0.99978260 1.9850110e-2
vn -0.86602540 0.0000000e+0 -0.50000000
vn 6.3815309e-3 -0.99978260 1.9850110e-2
vn -6.3815309e-3 -0.99978260 1.9850110e-2
vn 0.86602540 0.0000000e+0 -0.50000000
vn -6.3815309e-3 -0.99978260 1.9850110e-2
vn 1.00000000 -4.8785771e-17 -2.3858839e-12
vn -2.0381465e-2 -0.99978260 -4.3984869e-3
vn 1.00000000 -4.8785771e-17 -2.3858839e-12
vn -2.0381465e-2 -0.99978260 -4.3984869e-3
vn 1.00000000 5.5251650e-17 2.3921656e-12
vn 2.0381465e-2 0.99978260 -4.3984869e-3
vn 1.00000000 5.5251650e-17 2.3921656e-12
vn 2.0381465e-2 0.99978260 -4.3984869e-3
vn 0.50000000 -5.7732336e-16 0.86602540
vn 6.3815309e-3 0.99978260 1.9850110e-2
vn 0.50000000 -5.7732336e-16 0.86602540
vn 6.3815309e-3 0.99978260 1.9850110e-2
vn -0.50000000 0.0000000e+0 -0.86602540
vn -0.50000000 0.0000000e+0 -0.86602540
vn -1.3999934e-2 0.99978260 -1.5451623e-2
vn -1.3999934e-2 0.99978260 -1.5451623e-2
vn 0.50000000 5.5251650e-17 -0.86602540
vn 0.50000000 5.5251650e-17 -0.86602540
vn 1.3999934e-2 0.99978260 -1.5451623e-2
vn 1.3999934e-2 0.99978260 -1.5451623e-2
vn -0.50000000 -5.7732336e-16 0.86602540
vn -6.3815309e-3 0.99978260 1.9850110e-2
vn -0.50000000 -5.7732336e-16 0.86602540
vn -6.3815309e-3 0.99978260 1.9850110e-2
vn -1.00000000 0.0000000e+0 2.3938321e-12
vn -2.0381465e-2 0.99978260 -4.3984869e-3
vn -1.00000000 0.0000000e+0 2.3938321e-12
vn -2.0381465e-2 0.99978260 -4.3984869e-3
vn 0.50000000 5.5251650e-17 -0.86602540
vn 0.50000000 5.5251650e-17 -0.86602540
vn 1.3999934e-2 -0.99978260 -1.5451623e-2
vn 1.3999934e-2 -0.99978260 -1.5451623e-2
vn -0.50000000 0.0000000e+0 -0.86602540
vn -0.50000000 0.0000000e+0 -0.86602540
vn -1.3999934e-2 -0.99978260 -1.5451623e-2
vn -1.3999934e-2 -0.99978260 -1.5451623e-2
vn 0.50000000 -5.7732336e-16 0.86602540
vn 0.50000000 -5.7732336e-16 0.86602540
vn 6.3815309e-3 -0.99978260 1.9850110e-2
vn 6.3815309e-3 -0.99978260 1.9850110e-2
vn 1.00000000 5.5251650e-17 2.3921656e-12
vn 1.00000000 5.5251650e-17 2.3921656e-12
vn 2.0381465e-2 -0.99978260 -4.3984869e-3
vn 2.0381465e-2 -0.99978260 -4.3984869e-3
vn -1.00000000 0.0000000e+0 2.3938321e-12
vn -2.0381465e-2 -0.99978260 -4.3984869e-3
vn -1.00000000 0.0000000e+0 2.3938321e-12
vn -2.0381465e-2 -0.99978260 -4.3984869e-3
vn -0.50000000 -5.7732336e-16 0.86602540
vn -6.3815309e-3 -0.99978260 1.9850110e-2
vn -0.50000000 -5.7732336e-16 0.86602540
vn -6.3815309e-3 -0.99978260 1.9850110e-2
vn 1.00000000 0.0000000e+0 -3.9252311e-16
vn 1.00000000 0.0000000e+0 -3.9252311e-16
vn 2.3551387e-16 0.0000000e+0 1.00000000
vn 2.3551387e-16 0.0000000e+0 1.00000000
vn -1.00000000 0.0000000e+0 2.3551387e-16
vn -1.00000000 0.0000000e+0 2.3551387e-16
vn -3.9252311e-16 0.0000000e+0 -1.00000000
vn -3.9252311e-16 0.0000000e+0 -1.00000000
vn -9.1965448e-16 -1.00000000 0.0000000e+0
vn 1.00000000 0.0000000e+0 -3.9252311e-16
vn 1.00000000 0.0000000e+0 -3.9252311e-16
vn -9.1965448e-16 -1.00000000 0.0000000e+0
vn 2.3551387e-16 0.0000000e+0 1.00000000
vn 2.3551387e-16 0.0000000e+0 1.00000000
vn -9.1965448e-16 -1.00000000 0.0000000e+0
vn -1.00000000 0.0000000e+0 2.3551387e-16
vn -1.00000000 0.0000000e+0 2.3551387e-16
vn -9.1965448e-16 -1.00000000 0.0000000e+0
vn -3.9252311e-16 0.0000000e+0 -1.00000000
vn -3.9252311e-16 0.0000000e+0 -1.00000000
vn 0.0000000e+0 0.0000000e+0 1.00000000
vn 0.0000000e+0 -1.00000000 0.0000000e+0
vn -1.00000000 0.0000000e+0 0.0000000e+0
vn 0.0000000e+0 0.0000000e+0 1.00000000
vn 0.0000000e+0 1.00000000 0.0000000e+0
vn -1.00000000 0.0000000e+0 0.0000000e+0
vn 0.0000000e+0 0.0000000e+0 1.00000000
vn 1.00000000 0.0000000e+0 0.0000000e+0
vn 0.0000000e+0 1.00000000 0.0000000e+0
vn 0.0000000e+0 0.0000000e+0 1.00000000
vn 1.00000000 0.0000000e+0 0.0000000e+0
vn 0.0000000e+0 -1.00000000 0.0000000e+0
vn 0.0000000e+0 -1.00000000 0.0000000e+0
vn 0.0000000e+0 0.0000000e+0 -1.00000000
vn -1.00000000 0.0000000e+0 0.0000000e+0
vn 0.0000000e+0 1.00000000 0.0000000e+0
vn 0.0000000e+0 0.0000000e+0 -1.00000000
vn -1.00000000 0.0000000e+0 0.0000000e+0
vn 1.00000000 0.0000000e+0 0.0000000e+0
vn 0.0000000e+0 1.00000000 0.0000000e+0
vn 0.0000000e+0 0.0000000e+0 -1.00000000
vn 1.00000000 0.0000000e+0 0.0000000e+0
vn 0.0000000e+0 -1.00000000 0.0000000e+0
vn 0.0000000e+0 0.0000000e+0 -1.00000000
vn -4.0732630e-17 -0.79505023 0.60654360
vn 0.0000000e+0 -0.60654360 -0.79505023
vn -1.00000000 0.0000000e+0 0.0000000e+0
vn -4.0732630e-17 -0.79505023 0.60654360
vn 0.0000000e+0 0.60654360 0.79505023
vn -1.00000000 0.0000000e+0 0.0000000e+0
vn -4.0732630e-17 -0.79505023 0.60654360
vn 1.00000000 1.3162189e-16 1.8556670e-16
vn 0.0000000e+0 0.60654360 0.79505023
vn -4.0732630e-17 -0.79505023 0.60654360
vn 1.00000000 1.3162189e-16 1.8556670e-16
vn 0.0000000e+0 -0.60654360 -0.79505023
vn 0.0000000e+0 -0.60654360 -0.79505023
vn 0.0000000e+0 0.79505023 -0.60654360
vn -1.00000000 0.0000000e+0 0.0000000e+0
vn 0.0000000e+0 0.60654360 0.79505023
vn 0.0000000e+0 0.79505023 -0.60654360
vn -1.00000000 0.0000000e+0 0.0000000e+0
vn 1.00000000 1.3162189e-16 1.8556670e-16
vn 0.0000000e+0 0.60654360 0.79505023
vn 0.0000000e+0 0.79505023 -0.60654360
vn 1.00000000 1.3162189e-16 1.8556670e-16
vn 0.0000000e+0 -0.60654360 -0.79505023
vn 0.0000000e+0 0.79505023 -0.60654360
vn 0.0000000e+0 -3.4550641e-2 -0.99940295
vn -1.00000000 3.7207772e-17 -8.7869046e-19
vn 0.0000000e+0 -3.4550641e-2 -0.99940295
vn 1.00000000 -4.9416573e-17 1.8405511e-18
vn 0.0000000e+0 3.4550641e-2 0.99940295
vn -1.00000000 3.7207772e-17 -8.7869046e-19
vn 1.00000000 -4.9416573e-17 1.8405511e-18
vn 0.0000000e+0 3.4550641e-2 0.99940295
vn 4.0663504e-19 0.91010597 -0.41437558
vn -1.00000000 3.7207772e-17 -8.7869046e-19
vn 4.0663504e-19 0.91010597 -0.41437558
vn 5.7181434e-18 0.35053432 -0.93654989
vn -1.00000000 3.7207772e-17 -8.7869046e-19
vn 5.7181434e-18 0.35053432 -0.93654989
vn 1.00000000 -4.9416573e-17 1.8405511e-18
vn 4.0663504e-19 0.91010597 -0.41437558
vn 4.0663504e-19 0.91010597 -0.41437558
vn 5.7181434e-18 0.35053432 -0.93654989
vn 1.00000000 -4.9416573e-17 1.8405511e-18
vn 5.7181434e-18 0.35053432 -0.93654989
vn -5.3115084e-18 0.93654989 0.35053432
vn -1.00000000 3.7207772e-17 -8.7869046e-19
vn -5.3115084e-18 0.93654989 0.35053432
vn 0.0000000e+0 0.41437558 0.91010597
vn -1.00000000 3.7207772e-17 -8.7869046e-19
vn 0.0000000e+0 0.41437558 0.91010597
vn 1.00000000 -4.9416573e-17 1.8405511e-18
vn -5.3115084e-18 0.93654989 0.35053432
vn -5.3115084e-18 0.93654989 0.35053432
vn 1.00000000 -4.9416573e-17 1.8405511e-18
vn 0.0000000e+0 0.41437558 0.91010597
vn 0.0000000e+0 0.41437558 0.91010597
vn 0.0000000e+0 -0.35282169 0.93569057
vn -1.00000000 -1.5210706e-16 -5.8953170e-17
vn 0.0000000e+0 -0.35282169 0.93569057
vn 1.00000000 1.6900784e-16 6.0991048e-17
vn 0.0000000e+0 0.35282169 -0.93569057
vn -1.00000000 -1.5210706e-16 -5.8953170e-17
vn 1.00000000 1.6900784e-16 6.0991048e-17
vn 0.0000000e+0 0.35282169 -0.93569057
vn 0.0000000e+0 -0.99948439 3.2108539e-2
vn -1.00000000 -1.5210706e-16 -5.8953170e-17
vn 0.0000000e+0 -0.99948439 3.2108539e-2
vn 0.0000000e+0 -0.68403802 0.72944635
vn -1.00000000 -1.5210706e-16 -5.8953170e-17
vn 0.0000000e+0 -0.68403802 0.72944635
vn 1.00000000 1.6900784e-16 6.0991048e-17
vn 0.0000000e+0 -0.99948439 3.2108539e-2
vn 0.0000000e+0 -0.99948439 3.2108539e-2
vn 0.0000000e+0 -0.68403802 0.72944635
vn 1.00000000 1.6900784e-16 6.0991048e-17
vn 0.0000000e+0 -0.68403802 0.72944635
vn 0.0000000e+0 -0.72944635 -0.68403802
vn -1.00000000 -1.5210706e-16 -5.8953170e-17
vn 0.0000000e+0 -0.72944635 -0.68403802
vn 0.0000000e+0 -3.2108539e-2 -0.99948439
vn -1.00000000 -1.5210706e-16 -5.8953170e-17
vn 0.0000000e+0 -3.2108539e-2 -0.99948439
vn 1.00000000 1.6900784e-16 6.0991048e-17
vn 0.0000000e+0 -0.72944635 -0.68403802
vn 0.0000000e+0 -0.72944635 -0.68403802
vn 1.00000000 1.6900784e-16 6.0991048e-17
vn 0.0000000e+0 -3.2108539e-2 -0.99948439
vn 0.0000000e+0 -3.2108539e-2 -0.99948439
vn 1.0387469e-15 -0.21541712 0.97652213
vn -0.71739715 0.68030824 0.15007345
vn 1.0387469e-15 -0.21541712 0.97652213
vn 0.67699262 0.73160228 -8.0243943e-2
vn -0.71739715 0.68030824 0.15007345
vn 1.0387469e-15 -0.21541712 0.97652213
vn 0.71739715 -0.68030824 -0.15007345
vn 0.67699262 0.73160228 -8.0243943e-2
vn 1.0387469e-15 -0.21541712 0.97652213
vn 0.71739715 -0.68030824 -0.15007345
vn 0.0000000e+0 0.21541712 -0.97652213
vn -0.71739715 0.68030824 0.15007345
vn 0.67699262 0.73160228 -8.0243943e-2
vn 0.0000000e+0 0.21541712 -0.97652213
vn -0.71739715 0.68030824 0.15007345
vn 0.71739715 -0.68030824 -0.15007345
vn 0.67699262 0.73160228 -8.0243943e-2
vn 0.0000000e+0 0.21541712 -0.97652213
vn 0.71739715 -0.68030824 -0.15007345
vn 0.0000000e+0 0.21541712 -0.97652213
g cylinder1_Glass
usemtl Glass
f 1/540/1 16/537/16 15/534/15 14/510/14 13/488/13 12/470/12 11/460/11 10/400/10 9/385/9 8/399/8 7/461/7 6/471/6 5/487/5 4/509/4 3/533/3 2/538/2
f 2/397/2 3/458/3 4/468/4 5/484/5 6/507/6 7/531/7 8/535/8 9/539/9 10/536/10 11/532/11 12/508/12 13/485/13 14/469/14 15/459/15 16/398/16 1/384/1
g cylinder1_default
usemtl default
f 17/296/137 33/288/17 48/302/32 32/309/197
f 17/315/139 122/313/205 121/289/201 18/290/143
f 18/270/142 34/262/18 33/288/17 17/296/138
f 18/290/144 121/289/202 136/253/262 19/252/148
f 19/247/146 35/245/19 34/262/18 18/270/141
f 19/252/147 136/253/261 135/225/258 20/224/152
f 20/236/150 36/231/20 35/245/19 19/247/145
f 20/224/151 135/225/257 134/179/254 21/177/156
f 21/204/154 37/202/21 36/231/20 20/236/149
f 21/177/155 134/179/253 133/140/250 22/138/160
f 22/146/158 38/153/22 37/202/21 21/204/153
f 22/138/159 133/140/249 132/119/246 23/117/164
f 23/105/162 39/107/23 38/153/22 22/146/157
f 23/117/163 132/119/245 131/141/242 24/139/168
f 24/91/166 40/95/24 39/107/23 23/105/161
f 24/139/167 131/141/241 130/180/238 25/178/172
f 25/75/170 41/79/25 40/95/24 24/91/165
f 25/178/171 130/180/237 129/227/234 26/226/176
f 26/62/174 42/68/26 41/79/25 25/75/169
f 26/226/175 129/227/233 128/254/230 27/255/180
f 27/54/178 43/57/27 42/68/26 26/62/173
f 27/255/179 128/254/229 127/291/226 28/292/184
f 28/49/182 44/52/28 43/57/27 27/54/177
f 28/292/183 127/291/225 126/314/222 29/316/188
f 29/39/186 45/50/29 44/52/28 28/49/181
f 29/316/187 126/314/221 125/334/218 30/336/192
f 30/324/190 46/318/30 45/323/29 29/350/185
f 30/336/191 125/334/217 124/361/214 31/374/196
f 31/317/194 47/310/31 46/318/30 30/324/189
f 31/374/195 124/361/213 123/333/210 32/335/200
f 32/309/198 48/302/32 47/310/31 31/317/193
f 32/335/199 123/333/209 122/313/206 17/315/140
f 33/288/17 49/265/33 64/285/48 48/302/32
f 34/262/18 50/250/34 49/265/33 33/288/17
f 35/245/19 51/242/35 50/250/34 34/262/18
f 36/231/20 52/219/36 51/242/35 35/245/19
f 37/202/21 53/197/37 52/219/36 36/231/20
f 38/153/22 54/160/38 53/197/37 37/202/21
f 39/107/23 55/118/39 54/160/38 38/153/22
f 40/95/24 56/101/40 55/118/39 39/107/23
f 41/79/25 57/92/41 56/101/40 40/95/24
f 42/68/26 58/80/42 57/92/41 41/79/25
f 43/57/27 59/70/43 58/80/42 42/68/26
f 44/52/28 60/66/44 59/70/43 43/57/27
f 45/50/29 61/60/45 60/66/44 44/52/28
f 46/318/30 62/301/46 61/305/45 45/323/29
f 47/310/31 63/295/47 62/301/46 46/318/30
f 48/302/32 64/285/48 63/295/47 47/310/31
f 49/265/33 65/244/49 80/251/64 64/285/48
f 50/250/34 66/241/50 65/244/49 49/265/33
f 51/242/35 67/229/51 66/241/50 50/250/34
f 52/219/36 68/209/52 67/229/51 51/242/35
f 53/197/37 69/191/53 68/209/52 52/219/36
f 54/160/38 70/164/54 69/191/53 53/197/37
f 55/118/39 71/143/55 70/164/54 54/160/38
f 56/101/40 72/112/56 71/143/55 55/118/39
f 57/92/41 73/103/57 72/112/56 56/101/40
f 58/80/42 74/99/58 73/103/57 57/92/41
f 59/70/43 75/93/59 74/99/58 58/80/42
f 60/66/44 76/87/60 75/93/59 59/70/43
f 61/60/45 77/83/61 76/87/60 60/66/44
f 62/301/46 78/264/62 77/269/61 61/305/45
f 63/295/47 79/257/63 78/264/62 62/301/46
f 64/285/48 80/251/64 79/257/63 63/295/47
f 65/244/49 81/240/65 96/243/80 80/251/64
f 66/241/50 82/232/66 81/240/65 65/244/49
f 67/229/51 83/215/67 82/232/66 66/241/50
f 68/209/52 84/206/68 83/215/67 67/229/51
f 69/191/53 85/189/69 84/206/68 68/209/52
f 70/164/54 86/166/70 85/189/69 69/191/53
f 71/143/55 87/152/71 86/166/70 70/164/54
f 72/112/56 88/129/72 87/152/71 71/143/55
f 73/103/57 89/109/73 88/129/72 72/112/56
f 74/99/58 90/104/74 89/109/73 73/103/57
f 75/93/59 91/100/75 90/104/74 74/99/58
f 76/87/60 92/96/76 91/100/75 75/93/59
f 77/83/61 93/90/77 92/96/76 76/87/60
f 78/264/62 94/256/78 93/258/77 77/269/61
f 79/257/63 95/246/79 94/256/78 78/264/62
f 80/251/64 96/243/80 95/246/79 79/257/63
f 81/240/65 97/210/81 112/216/96 96/243/80
f 82/232/66 98/207/82 97/210/81 81/240/65
f 83/215/67 99/205/83 98/207/82 82/232/66
f 84/206/68 100/190/84 99/205/83 83/215/67
f 85/189/69 101/176/85 100/190/84 84/206/68
f 86/166/70 102/168/86 101/176/85 85/189/69
f 87/152/71 103/161/87 102/168/86 86/166/70
f 88/129/72 104/154/88 103/161/87 87/152/71
f 89/109/73 105/144/89 104/154/88 88/129/72
f 90/104/74 106/133/90 105/144/89 89/109/73
f 91/100/75 107/124/91 106/133/90 90/104/74
f 92/96/76 108/110/92 107/124/91 91/100/75
f 93/90/77 109/106/93 108/110/92 92/96/76
f 94/256/78 110/233/94 109/237/93 93/258/77
f 95/246/79 111/222/95 110/233/94 94/256/78
f 96/243/80 112/216/96 111/222/95 95/246/79
f 97/210/81 113/208/97 112/216/96
f 98/207/82 113/208/97 97/210/81
f 98/207/82 114/203/98 113/208/97
f 99/205/83 114/203/98 98/207/82
f 100/190/84 114/203/98 99/205/83
f 100/190/84 115/175/99 114/203/98
f 101/176/85 115/175/99 100/190/84
f 102/168/86 115/175/99 101/176/85
f 102/168/86 116/162/100 115/175/99
f 103/161/87 116/162/100 102/168/86
f 104/154/88 116/162/100 103/161/87
f 104/154/88 117/145/101 116/162/100
f 105/144/89 117/145/101 104/154/88
f 106/133/90 117/145/101 105/144/89
f 106/133/90 118/128/102 117/145/101
f 107/124/91 118/128/102 106/133/90
f 108/110/92 118/128/102 107/124/91
f 108/110/92 119/114/103 118/128/102
f 109/106/93 119/114/103 108/110/92
f 110/233/94 119/228/103 109/237/93
f 110/233/94 120/217/104 119/228/103
f 111/222/95 120/217/104 110/233/94
f 112/216/96 113/208/97 120/217/104
f 112/216/96 120/217/104 111/222/95
f 114/299/98 115/303/99 116/306/100 117/308/101 118/307/102 119/304/103 120/300/104 113/297/97
f 121/63/204 137/56/105 152/51/120 136/55/264
f 122/69/207 138/61/106 137/56/105 121/63/203
f 123/73/211 139/65/107 138/61/106 122/69/208
f 124/71/215 140/64/108 139/65/107 123/73/212
f 125/67/219 141/59/109 140/64/108 124/71/216
f 126/58/223 142/53/110 141/59/109 125/67/220
f 127/81/227 143/88/111 142/98/110 126/89/224
f 128/74/231 144/84/112 143/88/111 127/81/228
f 129/72/235 145/82/113 144/84/112 128/74/232
f 130/76/239 146/86/114 145/82/113 129/72/236
f 131/85/243 147/94/115 146/86/114 130/76/240
f 132/97/247 148/102/116 147/94/115 131/85/244
f 133/108/251 149/123/117 148/102/116 132/97/248
f 134/159/255 150/163/118 149/123/117 133/108/252
f 135/44/259 151/33/119 150/23/118 134/26/256
f 136/55/263 152/51/120 151/33/119 135/44/260
f 137/56/105 153/31/121 168/27/136 152/51/120
f 138/61/106 154/34/122 153/31/121 137/56/105
f 139/65/107 155/36/123 154/34/122 138/61/106
f 140/64/108 156/35/124 155/36/123 139/65/107
f 141/59/109 157/32/125 156/35/124 140/64/108
f 142/53/110 158/28/126 157/32/125 141/59/109
f 143/88/111 159/125/127 158/142/126 142/98/110
f 144/84/112 160/113/128 159/125/127 143/88/111
f 145/82/113 161/111/129 160/113/128 144/84/112
f 146/86/114 162/120/130 161/111/129 145/82/113
f 147/94/115 163/132/131 162/120/130 146/86/114
f 148/102/116 164/151/132 163/132/131 147/94/115
f 149/123/117 165/165/133 164/151/132 148/102/116
f 150/163/118 166/196/134 165/165/133 149/123/117
f 151/33/119 167/22/135 166/7/134 150/23/118
f 152/51/120 168/27/136 167/22/135 151/33/119
f 154/482/122 155/479/123 156/474/124 157/473/125 158/467/126 159/465/127 160/463/128 161/449/129 162/442/130 163/450/131 164/462/132 165/464/133 166/466/134 167/472/135 168/475/136 153/480/121
f 169/169/266 173/150/276 174/149/279 170/167/269
f 170/413/267 171/434/270 172/416/273 169/395/265
f 170/376/268 174/401/277 175/396/281 171/373/272
f 171/170/271 175/199/280 176/198/283 172/169/274
f 173/451/275 176/432/284 175/422/282 174/445/278
f 177/454/285 180/443/293 179/424/290 178/447/287
f 178/201/289 182/212/299 181/211/296 177/200/286
f 179/372/292 183/332/301 182/329/297 178/359/288
f 180/392/294 184/371/303 183/362/300 179/390/291
f 182/223/298 183/234/302 184/230/304 181/220/295
f 185/331/306 189/369/316 190/360/319 186/327/309
f 186/418/307 187/402/310 188/417/313 185/435/305
f 186/284/308 190/287/317 191/277/321 187/272/312
f 187/415/311 191/383/320 192/380/323 188/412/314
f 189/234/315 192/238/324 191/239/322 190/235/318
f 193/42/328 208/45/384 205/116/372 195/127/336
f 194/158/331 193/137/327 199/136/349 200/157/353
f 194/158/329 200/157/351 204/320/365 198/322/343
f 194/40/330 207/47/379 208/45/383 193/42/326
f 195/15/333 201/13/355 199/136/347 193/137/325
f 195/127/334 205/116/370 206/131/374 196/122/337
f 196/122/339 206/131/376 209/267/388 197/274/342
f 197/330/341 198/322/345 204/320/367 203/328/363
f 197/274/340 209/267/386 210/261/390 198/275/344
f 198/275/346 210/261/392 207/47/380 194/40/332
f 199/526/348 211/525/395 212/523/399 200/520/352
f 200/520/354 212/523/400 215/521/412 204/519/368
f 201/529/358 214/528/408 211/525/396 199/526/350
f 202/9/360 201/13/357 195/15/335 196/3/338
f 202/530/359 213/527/403 214/528/407 201/529/356
f 203/524/364 216/522/416 213/527/404 202/530/361
f 204/519/366 215/521/410 216/522/414 203/524/362
f 206/192/375 205/181/371 214/183/406 213/195/402
f 206/192/373 213/195/401 216/173/413 209/171/385
f 208/19/381 211/21/393 214/183/405 205/181/369
f 210/185/391 209/171/387 216/173/415 215/187/411
f 210/185/389 215/187/409 212/440/397 207/438/377
f 212/2/398 211/21/394 208/19/382 207/11/378
f 217/43/420 232/46/476 229/115/464 219/126/428
f 218/156/423 217/135/419 223/134/441 224/155/445
f 218/156/421 224/155/443 228/319/457 222/321/435
f 218/41/422 231/48/471 232/46/475 217/43/418
f 219/14/425 225/12/447 223/134/439 217/135/417
f 219/126/426 229/115/462 230/130/466 220/121/429
f 220/121/431 230/130/468 233/266/480 221/273/434
f 221/326/433 222/321/437 228/319/459 227/325/455
f 221/273/432 233/266/478 234/260/482 222/276/436
f 222/276/438 234/260/484 231/48/472 218/41/424
f 223/514/440 235/513/487 236/511/491 224/504/444
f 224/504/446 236/511/492 239/505/504 228/503/460
f 225/517/450 238/516/500 235/513/488 223/514/442
f 226/4/452 225/12/449 219/14/427 220/5/430
f 226/518/451 237/515/495 238/516/499 225/517/448
f 227/512/456 240/506/508 237/515/496 226/518/453
f 228/503/458 239/505/502 240/506/506 227/512/454
f 230/193/467 229/182/463 238/184/498 237/194/494
f 230/193/465 237/194/493 240/174/505 233/172/477
f 232/18/473 235/20/485 238/184/497 229/182/461
f 234/186/483 233/172/479 240/174/507 239/188/503
f 234/186/481 239/188/501 236/441/489 231/439/469
f 236/1/490 235/20/486 232/18/474 231/10/470
f 241/29/509 245/30/518 248/38/527 244/37/515
f 242/24/512 246/25/522 245/30/519 241/29/510
f 243/16/514 247/17/525 246/25/521 242/24/511
f 244/6/516 248/8/528 247/17/524 243/16/513
f 246/293/520 247/298/523 248/294/526 245/286/517
f 249/249/529 252/311/538 251/312/535 250/248/532
f 249/477/530 253/478/541 256/457/551 252/456/540
f 250/148/534 254/78/546 253/77/543 249/147/531
f 251/338/537 255/339/548 254/279/544 250/278/533
f 252/282/539 256/342/550 255/343/547 251/283/536
f 254/341/545 255/281/549 256/280/552 253/340/542
f 257/382/553 260/381/562 259/388/559 258/389/556
f 257/382/554 261/368/565 264/367/575 260/381/564
f 258/423/558 262/411/570 261/391/567 257/405/555
f 259/388/561 263/403/572 262/404/568 258/389/557
f 260/433/563 264/446/574 263/431/571 259/414/560
f 262/404/569 263/403/573 264/426/576 261/427/566
f 265/428/577 270/429/588 272/408/594 266/406/579
f 267/502/582 274/500/601 273/498/598 269/494/586 270/489/589 265/491/578
f 268/429/584 276/430/607 274/409/600 267/407/581
f 269/353/587 271/365/593 272/366/596 270/354/590
f 272/499/595 271/496/591 275/490/603 276/486/606 268/483/583 266/497/580
f 273/352/599 274/351/602 276/363/608 275/364/605
f 273/352/597 275/364/604 271/365/592 269/353/585
f 277/421/609 282/419/620 284/436/626 278/437/611
f 279/492/614 286/476/633 285/481/630 281/493/618 282/495/621 277/501/610
f 280/437/616 288/436/639 286/452/632 279/453/613
f 281/356/619 283/346/625 284/345/628 282/355/622
f 284/377/627 283/386/623 287/410/635 288/420/638 280/387/615 278/344/612
f 285/357/631 286/358/634 288/348/640 287/347/637
f 285/357/629 287/347/636 283/346/624 281/356/617
f 289/425/641 292/448/649 291/455/646 290/444/643
f 290/379/645 294/349/655 293/337/652 289/378/642
f 291/271/648 295/268/657 294/259/653 290/263/644
f 292/375/650 296/394/659 295/393/656 291/370/647
f 294/218/654 295/213/658 296/214/660 293/221/651
