# Exported from Wings 3D 1.0.2
mtllib Rope2D.mtl
o cube2
#12 vertices, 7 faces
v 1.45600000 3.0051134e-3 1.45600000
v -1.45600000 3.0051134e-3 1.45600000
v 1.45600000 0.0000000e+0 -1.45600000
v -1.45600000 3.0051134e-3 -1.45600000
v 1.45600000 3.0051134e-3 0.85054876
v -1.45600000 3.0051134e-3 0.85054876
v -1.01377648 3.0051134e-3 -1.45600000
v -1.21255155 5.4383667e-2 0.93901910
v -0.63457583 8.4466006e-2 -0.99884056
v 0.90752252 0.10932302 -0.81695301
v 0.90317077 8.5614921e-2 0.39177243
v -0.53097291 6.2563641e-2 0.42619157
vt 1.1102230e-16 0.99986263
vt 1.7847558e-7 4.9771660e-3
vt 7.1861026e-4 0.21112652
vt 8.4171722e-2 0.18086329
vt 0.15167017 1.00000000
vt 0.28402754 0.84136168
vt 0.32047937 0.36120535
vt 0.80530697 0.36761902
vt 0.80725972 0.77651110
vt 0.99502534 0.0000000e+0
vt 0.99605675 0.20624680
vt 1.00000000 0.99707212
vn 0.0000000e+0 0.99895400 4.5726427e-2
vn 0.0000000e+0 0.99895400 4.5726427e-2
vn 8.8184222e-2 0.99262558 -8.3174514e-2
vn -7.2920949e-2 0.99723973 -1.3980783e-2
vn 6.1012676e-2 0.99693995 4.8869171e-2
vn -3.6501038e-2 0.99920727 1.5890481e-2
vn -5.1933160e-2 0.99652024 -6.5194695e-2
vn -3.7053083e-2 0.99888898 2.9118364e-2
vn -3.3240144e-2 0.99795784 -5.4545744e-2
vn 5.3077395e-2 0.99736715 -4.9412105e-2
vn 5.5357887e-2 0.99768117 3.9595270e-2
vn -3.0718895e-2 0.99894232 3.4214005e-2
g cube2_default
usemtl default
f 1/10/1 5/11/5 8/4/8 6/3/6 2/2/2
f 3/12/3 10/9/10 11/8/11 5/11/5
f 5/11/5 11/8/11 12/7/12 8/4/8
f 6/3/6 8/4/8 7/5/7 4/1/4
f 7/5/7 9/6/9 10/9/10 3/12/3
f 8/4/8 12/7/12 9/6/9 7/5/7
f 9/6/9 12/7/12 11/8/11 10/9/10
