# Exported from Wings 3D 1.0.2
mtllib ShelvesBig.mtl
o cube1_sep4
#302 vertices, 180 faces
v -0.80162368 -1.00280070 -5.11581386
v -0.79807359 -0.80978333 -5.11427162
v 0.60621660 -0.80616811 -3.53115262
v 0.60699518 -1.01133156 -3.51900453
v -0.68721444 -1.01176435 4.54972267
v -0.67300510 -0.80721282 4.56740382
v 0.65159392 -0.81609608 4.49429345
v 0.64450542 -0.99807721 4.50707179
v -3.6948589e-2 -1.00564432 -5.13834540
v 0.48489352 -1.00848794 -3.65190478
v -3.4841390e-2 -0.80857826 -5.14136660
v 0.48555783 -0.80737319 -3.65948942
v 0.23973581 -1.00659219 -4.65452207
v 0.42675880 -1.00754007 -4.81603350
v 0.24136205 -0.80817657 -4.65906441
v 0.42790408 -0.80777488 -4.82209700
v -0.68436342 2.37013311 4.50143884
v -0.68193822 2.56190465 4.52089438
v 0.63476489 2.56106320 4.49417428
v 0.63758279 2.36477866 4.52135849
v -0.68211314 2.41109519 -5.17923044
v -0.67865457 2.59912373 -5.16979099
v 0.64353195 2.61194189 -5.16897225
v 0.64144588 2.41618612 -5.17086101
v -0.34655777 2.35583005 4.50807872
v 0.28939153 2.37781756 4.51471861
v -0.33514776 2.55041231 4.51198768
v 0.29836005 2.57381969 4.50308098
v -0.12695469 2.32480956 3.84858686
v -0.11676543 2.52010176 3.84472252
v -0.56746779 1.81036118 -5.14504322
v -0.51970988 2.42837228 -5.12435873
v -0.41020708 2.42280204 -5.17122609
v -0.38268761 1.81163516 -5.11793275
v -0.55816986 2.39659781 -4.49830360
v -0.39711268 2.40662947 -4.49519021
v -0.54570377 2.32812098 -4.54626949
v -0.56102359 1.77789218 -5.03804475
v -0.40202277 2.32078329 -4.53506503
v -0.39088143 1.76748832 -5.04140335
v 0.25180746 1.79034383 -5.16881261
v 0.24889359 2.39990288 -5.17076430
v 0.39492890 2.42468385 -5.14476224
v 0.38991378 1.76687445 -5.17249992
v 0.23896333 2.40569180 -4.49867265
v 0.41117997 2.40183609 -4.57027998
v 0.23080236 2.27426538 -4.50871904
v 0.27289470 1.78001316 -5.08071562
v 0.40699485 2.29044236 -4.52232986
v 0.41046945 1.76831729 -5.03125946
v -0.53835533 -3.62593929 4.47290047
v -0.54629265 -2.99696670 4.48796583
v -0.39767904 -2.97800920 4.49041588
v -0.38568317 -3.61910598 4.48572076
v -0.58379375 -2.98694145 3.88420033
v -0.39417026 -2.94178924 3.84415466
v -0.53681835 -3.07833011 3.83519060
v -0.55116408 -3.66214371 4.36692762
v -0.40669986 -3.11037282 3.86383170
v -0.38610125 -3.63079840 4.39707007
v 0.23760625 -3.61940020 -5.17864878
v 0.23844531 -2.95069932 -5.19108766
v 0.39343006 -2.97606566 -5.12063813
v 0.40741570 -3.64035733 -5.16081604
v 0.23236224 -3.00229786 -4.53566840
v 0.37530364 -2.99791153 -4.52029285
v 0.22984115 -3.10355341 -4.56493834
v 0.24401248 -3.62439928 -5.07180235
v 0.34550493 -3.06442125 -4.51132289
v 0.40992742 -3.63249359 -5.03358349
v 0.26289962 -3.60180405 4.49282015
v 0.23159052 -2.96079187 4.49348009
v 0.40035614 -2.97717746 4.51112034
v 0.41380214 -3.60936828 4.47610753
v 0.24277612 -2.98783432 3.84434901
v 0.42261015 -2.99116612 3.85787888
v 0.26038246 -3.09294187 3.85152600
v 0.23099743 -3.59826647 4.37099914
v 0.40224498 -3.08735053 3.87289107
v 0.41254405 -3.63112594 4.39652175
v -0.54071004 -1.62269862 -5.16623055
v -0.52947832 -0.98666050 -5.16293807
v -0.40722048 -0.96286400 -5.15742925
v -0.37361624 -1.61712156 -5.14568603
v -0.57386684 -0.99969340 -4.55594261
v -0.39763694 -0.96223941 -4.50897847
v -0.55855403 -1.07899838 -4.51749708
v -0.55154117 -1.56548919 -5.03030977
v -0.36271864 -1.07253996 -4.51693976
v -0.38976000 -1.61913623 -5.03605602
v 0.27514310 -1.59107446 -5.13024183
v 0.24355716 -0.97253153 -5.15129728
v 0.39041013 -0.96343365 -5.16353567
v 0.43062665 -1.59529657 -5.13021509
v 0.24564293 -0.98096128 -4.53229072
v 0.43075245 -0.97352174 -4.53779540
v 0.23075847 -1.05096614 -4.49725333
v 0.27333785 -1.61606031 -5.01284328
v 0.39249383 -1.10586619 -4.53066414
v 0.40881998 -1.61933386 -5.03863448
v 0.22992431 -1.59227609 4.51932957
v 0.26976365 -0.97955603 4.48176189
v 0.39912833 -0.96298101 4.48238365
v 0.40481368 -1.58832634 4.46743707
v 0.23257102 -0.97766059 3.82208338
v 0.38787448 -1.00825695 3.84079895
v 0.28556715 -1.09140670 3.89112020
v 0.26934680 -1.59994991 4.37910649
v 0.43713222 -1.10697943 3.86109629
v 0.41204072 -1.61786150 4.39548670
v -0.55680774 0.16434459 4.53419358
v -0.60288706 0.81155074 4.44684743
v -0.40133783 0.83497394 4.44035111
v -0.40758372 0.20665998 4.46218270
v -0.57558221 0.81437068 3.84724136
v -0.40948386 0.83409647 3.84752498
v -0.53342066 0.69736661 3.84141734
v -0.54940214 0.18971636 4.43188225
v -0.42444290 0.70887099 3.84441364
v -0.38761062 0.17938108 4.39402552
v 0.29262378 0.18795210 4.48737153
v 0.27094547 0.84369900 4.45904918
v 0.39639248 0.83519531 4.47585382
v 0.38408666 0.19335948 4.46225345
v 0.20545922 0.80193812 3.88403138
v 0.42801723 0.84777795 3.87021532
v 0.25220061 0.70386614 3.85713265
v 0.23700049 0.22296689 4.38419720
v 0.41498710 0.73271285 3.84354944
v 0.41100278 0.17910721 4.39220508
v -0.57917186 1.70253848 4.49692570
v -0.55601185 2.35061138 4.51156350
v -0.41163974 2.37402390 4.49882840
v -0.40927594 1.76669121 4.52894447
v -0.56073079 2.33836199 3.87982757
v -0.41811203 2.37546671 3.86363611
v -0.53865321 2.26615717 3.88877308
v -0.53530693 1.78230118 4.35307969
v -0.38667507 2.25247890 3.85450101
v -0.39145143 1.71950801 4.40732670
v -0.95774440 -4.32505562 4.69136819
v -0.97550839 2.72612357 4.69133268
v 0.76716904 2.72612357 4.69086691
v 0.76360243 -4.32505562 4.69121492
v -0.96132380 -4.32505562 4.48788001
v -0.97957584 2.72612357 4.48774683
v 0.76334207 2.72612357 4.48747010
v 0.75385974 -4.32505562 4.48741541
v -0.95774440 -4.32505562 -5.08947460
v -0.97550839 2.72612357 -5.08951011
v 0.76716904 2.72612357 -5.08997588
v 0.76360243 -4.32505562 -5.08962786
v -0.96132380 -4.32505562 -5.29296278
v -0.97957584 2.72612357 -5.29309596
v 0.76334207 2.72612357 -5.29337269
v 0.75385974 -4.32505562 -5.29342737
v -0.72923453 0.79799524 4.54647520
v -0.73495553 0.99956019 4.53448036
v 0.60567558 1.00193373 4.54395812
v 0.59978929 0.79611313 4.52754460
v -0.72784074 0.79672074 -5.14696793
v -0.72998427 0.99312306 -5.13930951
v 0.60351548 1.00350606 -5.13406692
v 0.59195646 0.80788360 -5.14227417
v 0.13668338 0.79534501 2.86219313
v 6.0901711e-2 0.78690177 2.67986565
v 8.9995433e-2 0.85723448 1.56145992
v 0.17359970 0.81288376 1.73013662
v 5.5480272e-2 0.98845533 2.68189874
v 0.14304786 0.99991384 2.86775860
v 0.18468072 1.02414185 1.73594404
v 8.7544881e-2 1.05486123 1.56775686
v 0.13307251 0.80041851 2.44687454
v 0.14179526 1.00833197 2.45256098
v 0.44056758 -2.95115574 -5.37551829
v 0.41380512 -3.04092863 -5.37551829
v 0.32267830 -3.06263810 -5.37551829
v 0.25831393 -2.99457469 -5.37551829
v 0.28507639 -2.90480181 -5.37551829
v 0.37620322 -2.88309234 -5.37551829
v 0.44056758 -2.95115574 -5.30212975
v 0.41380512 -3.04092863 -5.30212975
v 0.32267830 -3.06263810 -5.30212975
v 0.25831393 -2.99457469 -5.30212975
v 0.28507639 -2.90480181 -5.30212975
v 0.37620322 -2.88309234 -5.30212975
v 0.44056758 0.91174082 -5.37551829
v 0.41380512 0.82196793 -5.37551829
v 0.32267830 0.80025846 -5.37551829
v 0.25831393 0.86832187 -5.37551829
v 0.28507639 0.95809475 -5.37551829
v 0.37620322 0.97980423 -5.37551829
v 0.44056758 0.91174082 -5.30212975
v 0.41380512 0.82196793 -5.30212975
v 0.32267830 0.80025846 -5.30212975
v 0.25831393 0.86832187 -5.30212975
v 0.28507639 0.95809475 -5.30212975
v 0.37620322 0.97980423 -5.30212975
v 0.44056758 2.43828307 -5.37551829
v 0.41380512 2.34851019 -5.37551829
v 0.32267830 2.32680072 -5.37551829
v 0.25831393 2.39486413 -5.37551829
v 0.28507639 2.48463701 -5.37551829
v 0.37620322 2.50634648 -5.37551829
v 0.44056758 2.43828307 -5.30212975
v 0.41380512 2.34851019 -5.30212975
v 0.32267830 2.32680072 -5.30212975
v 0.25831393 2.39486413 -5.30212975
v 0.28507639 2.48463701 -5.30212975
v 0.37620322 2.50634648 -5.30212975
v -0.54684463 -2.95115574 -5.37551829
v -0.57360709 -3.04092863 -5.37551829
v -0.66473391 -3.06263810 -5.37551829
v -0.72909828 -2.99457469 -5.37551829
v -0.70233582 -2.90480181 -5.37551829
v -0.61120899 -2.88309234 -5.37551829
v -0.54684463 -2.95115574 -5.30212975
v -0.57360709 -3.04092863 -5.30212975
v -0.66473391 -3.06263810 -5.30212975
v -0.72909828 -2.99457469 -5.30212975
v -0.70233582 -2.90480181 -5.30212975
v -0.61120899 -2.88309234 -5.30212975
v -0.54684463 0.91174082 -5.37551829
v -0.57360709 0.82196793 -5.37551829
v -0.66473391 0.80025846 -5.37551829
v -0.72909828 0.86832187 -5.37551829
v -0.70233582 0.95809475 -5.37551829
v -0.61120899 0.97980423 -5.37551829
v -0.54684463 0.91174082 -5.30212975
v -0.57360709 0.82196793 -5.30212975
v -0.66473391 0.80025846 -5.30212975
v -0.72909828 0.86832187 -5.30212975
v -0.70233582 0.95809475 -5.30212975
v -0.61120899 0.97980423 -5.30212975
v 0.44056758 -2.95115574 4.75938975
v 0.41380512 -3.04092863 4.75938975
v 0.32267830 -3.06263810 4.75938975
v 0.25831393 -2.99457469 4.75938975
v 0.28507639 -2.90480181 4.75938975
v 0.37620322 -2.88309234 4.75938975
v 0.44056758 -2.95115574 4.68600121
v 0.41380512 -3.04092863 4.68600121
v 0.32267830 -3.06263810 4.68600121
v 0.25831393 -2.99457469 4.68600121
v 0.28507639 -2.90480181 4.68600121
v 0.37620322 -2.88309234 4.68600121
v 0.44056758 2.43828307 4.75938975
v 0.41380512 2.34851019 4.75938975
v 0.32267830 2.32680072 4.75938975
v 0.25831393 2.39486413 4.75938975
v 0.28507639 2.48463701 4.75938975
v 0.37620322 2.50634648 4.75938975
v 0.44056758 2.43828307 4.68600121
v 0.41380512 2.34851019 4.68600121
v 0.32267830 2.32680072 4.68600121
v 0.25831393 2.39486413 4.68600121
v 0.28507639 2.48463701 4.68600121
v 0.37620322 2.50634648 4.68600121
v -0.54684463 -0.88939288 4.75938975
v -0.57360709 -0.97916576 4.75938975
v -0.66473391 -1.00087524 4.75938975
v -0.72909828 -0.93281183 4.75938975
v -0.70233582 -0.84303894 4.75938975
v -0.61120899 -0.82132947 4.75938975
v -0.54684463 -0.88939288 4.68600121
v -0.57360709 -0.97916576 4.68600121
v -0.66473391 -1.00087524 4.68600121
v -0.72909828 -0.93281183 4.68600121
v -0.70233582 -0.84303894 4.68600121
v -0.61120899 -0.82132947 4.68600121
v -0.54684463 0.91174082 4.75938975
v -0.57360709 0.82196793 4.75938975
v -0.66473391 0.80025846 4.75938975
v -0.72909828 0.86832187 4.75938975
v -0.70233582 0.95809475 4.75938975
v -0.61120899 0.97980423 4.75938975
v -0.54684463 0.91174082 4.68600121
v -0.57360709 0.82196793 4.68600121
v -0.66473391 0.80025846 4.68600121
v -0.72909828 0.86832187 4.68600121
v -0.70233582 0.95809475 4.68600121
v -0.61120899 0.97980423 4.68600121
v -0.54684463 2.43828307 4.75938975
v -0.57360709 2.34851019 4.75938975
v -0.66473391 2.32680072 4.75938975
v -0.72909828 2.39486413 4.75938975
v -0.70233582 2.48463701 4.75938975
v -0.61120899 2.50634648 4.75938975
v -0.54684463 2.43828307 4.68600121
v -0.57360709 2.34851019 4.68600121
v -0.66473391 2.32680072 4.68600121
v -0.72909828 2.39486413 4.68600121
v -0.70233582 2.48463701 4.68600121
v -0.61120899 2.50634648 4.68600121
v -0.70527775 -3.05283841 4.47234147
v -0.70168599 -2.85266405 4.47243362
v 0.62188219 -2.84341633 4.46963258
v 0.62759507 -3.04980262 4.48286889
v -0.69768617 -3.05355914 -5.15929188
v -0.69616674 -2.85391359 -5.17218906
v 0.62137677 -2.85858857 -5.15718822
v 0.62019893 -3.04470030 -5.14435662
vt -0.49926949 0.99300037
vt -0.49843570 1.01438703
vt -0.45394859 1.06430809
vt -0.45255941 1.08413652
vt -0.28359036 1.14216775
vt -0.26997872 8.7958224e-2
vt -0.26601165 0.54200455
vt -0.26305186 0.56337760
vt -0.21720926 0.47796540
vt -0.21542212 0.45554621
vt -0.20048411 1.14511748
vt -0.17138305 0.84037387
vt -0.17118922 0.86139332
vt -0.17040944 1.09260080
vt -0.15009725 1.11035280
vt -0.14382031 0.98375981
vt -0.13068165 0.96978542
vt -0.12574366 9.5917318e-2
vt -7.3212500e-2 0.73601087
vt -7.1771586e-2 0.75848153
vt -6.1033483e-2 0.64288891
vt -6.0002278e-2 -0.12489853
vt -3.7383945e-2 0.64254393
vt -3.6944595e-2 0.62092338
vt -3.2061297e-2 0.83832284
vt -3.0127016e-2 7.0536292e-2
vt -5.5964884e-3 0.42552457
vt -5.5478725e-3 1.19327095
vt 9.8200770e-4 0.62065087
vt 1.7723982e-3 0.64229015
vt 3.2113629e-3 0.71408976
vt 4.6203620e-3 0.69235055
vt 5.4340151e-3 0.42552457
vt 5.4826309e-3 1.19327095
vt 1.6602293e-2 1.19327070
vt 1.6618946e-2 0.42552372
vt 2.7632796e-2 1.19327070
vt 2.7649449e-2 0.42552372
vt 7.7355678e-2 0.61424524
vt 7.9177008e-2 0.63545084
vt 9.1376254e-2 0.63537204
vt 9.1818877e-2 0.61320412
vt 0.11998226 0.54563015
vt 0.12032620 0.44759113
vt 0.12676074 -0.12489782
vt 0.12874815 0.64288786
vt 0.14328155 0.54759113
vt 0.14966448 0.44848149
vt 0.15730645 7.0536292e-2
vt 0.15769481 0.83832284
vt 0.16179474 0.61315601
vt 0.16308317 0.63410775
vt 0.16614567 0.20844041
vt 0.16720677 0.22891778
vt 0.17538983 0.19658050
vt 0.17598808 1.24675368
vt 0.19836138 0.61087273
vt 0.19865435 0.63183448
vt 0.21957416 0.96523016
vt 0.21991726 -8.9433345e-2
vt 0.25783503 -8.8901224e-2
vt 0.26938954 -0.18569977
vt 0.26981146 1.05649861
vt 0.27004200 1.03503664
vt 0.27023630 0.86546509
vt 0.28115826 0.63540232
vt 0.28157526 0.61325484
vt 0.29519439 -2.7891565e-4
vt 0.29927895 0.87364825
vt 0.30324969 -1.6256557e-2
vt 0.31257702 0.88811982
vt 0.31558711 0.11843901
vt 0.31890640 1.01487702
vt 0.31945223 1.24512072
vt 0.31951260 0.19688464
vt 0.31988356 -4.6390889e-3
vt 0.32016316 4.0519339e-2
vt 0.32568618 0.13684528
vt 0.32735968 -8.8026240e-2
vt 0.32826119 1.5159901e-2
vt 0.33927097 0.99729090
vt 0.35296370 1.05634451
vt 0.35334231 1.03532942
vt 0.36359688 0.96614453
vt 0.36414962 -8.7256604e-2
vt 0.36939777 1.04997262
vt 0.38666271 0.62428106
vt 0.38710533 0.60211314
vt 0.41392127 0.86610109
vt 0.41491563 -0.18754958
vt 0.41990231 1.06279788
vt 0.42122750 1.08513512
vt 0.44020754 -4.9205987e-3
vt 0.45266065 1.04751987
vt 0.47534365 0.17932305
vt 0.48449102 0.61160404
vt 0.48482198 0.15618950
vt 0.48509059 0.58964379
vt 0.48813639 0.54915842
vt 0.48834316 0.52784045
vt 0.49063873 0.19909831
vt 0.49266366 0.11538792
vt 0.49377890 0.57978794
vt 0.49400532 0.55783368
vt 0.50616526 0.10119994
vt 0.50959539 0.15283120
vt 0.51077397 0.13262209
vt 0.51358813 0.60266587
vt 0.51414819 0.62427001
vt 0.51504968 0.12311594
vt 0.51541214 0.19574000
vt 0.51586002 1.17139232
vt 0.52427557 0.11843411
vt 0.52489047 0.17260645
vt 0.52888429 0.14985626
vt 0.54238588 0.13566827
vt 0.54699460 0.16709043
vt 0.55490081 1.01510243
vt 0.55620686 0.99314607
vt 0.55908193 0.59617220
vt 0.55931136 0.57441383
vt 0.56049620 0.15290244
vt 0.56510491 0.18432460
vt 0.57116522 0.37565552
vt 0.57116522 0.38668231
vt 0.57222608 0.39784678
vt 0.57222608 0.40887356
vt 0.57427463 0.60215502
vt 0.57466344 0.62361331
vt 0.57644472 0.62431133
vt 0.57686171 0.60216386
vt 0.57860651 0.17013661
vt 0.58175709 0.78809919
vt 0.58176946 0.39761578
vt 0.58184365 0.43116819
vt 0.58215374 0.80988984
vt 0.58312644 0.40985042
vt 0.58321523 0.20155876
vt 0.58326185 0.41994081
vt 0.58605306 0.59576296
vt 0.58611982 0.82127833
vt 0.58621941 0.57414968
vt 0.58677393 0.39744179
vt 0.58690167 0.37712843
vt 0.58694380 0.84317597
vt 0.59051262 0.49927824
vt 0.59070356 0.44701013
vt 0.59092633 0.57450811
vt 0.59094133 -0.19328074
vt 0.59116515 0.58729924
vt 0.59117140 0.56222490
vt 0.59119414 0.59703660
vt 0.59144151 0.61391244
vt 0.59157317 0.60881853
vt 0.59185435 0.60426946
vt 0.59212526 0.51304170
vt 0.59238405 0.46112492
vt 0.59247031 0.46987063
vt 0.59290242 0.61935008
vt 0.59328568 0.51238302
vt 0.59347369 0.52269158
vt 0.59349495 0.46096335
vt 0.59374337 0.35667313
vt 0.59431031 0.55188408
vt 0.59650890 0.40763963
vt 0.59671682 0.18737078
vt 0.59737269 0.36579069
vt 0.59810298 0.41545971
vt 0.59869749 0.57734380
vt 0.59932322 0.60037959
vt 0.60132554 0.21879293
vt 0.60806368 0.57944955
vt 0.60864477 0.35433731
vt 0.60889236 0.50160130
vt 0.60916774 0.52300493
vt 0.60932193 0.51489081
vt 0.60979637 0.44754999
vt 0.60987284 0.55296718
vt 0.61001012 0.46068692
vt 0.61016077 0.52839250
vt 0.61037436 0.60328813
vt 0.61063217 0.56454844
vt 0.61070683 0.42261680
vt 0.61077231 0.51395104
vt 0.61082206 0.51308668
vt 0.61084578 0.59675046
vt 0.61166667 0.58251686
vt 0.61170284 0.61539889
vt 0.61173002 0.41120354
vt 0.61206972 0.61863059
vt 0.61224140 0.47419244
vt 0.61244796 0.46033924
vt 0.61249695 0.50106840
vt 0.61253818 0.59982040
vt 0.61261260 0.54361312
vt 0.61272142 0.60552727
vt 0.61280181 0.36912752
vt 0.61309874 0.57450698
vt 0.61310211 -0.19328174
vt 0.61482714 0.20460495
vt 0.61492088 0.60812454
vt 0.61497509 0.49171665
vt 0.61507624 0.46352223
vt 0.61514768 0.58695055
vt 0.61525508 0.47604055
vt 0.61556733 0.56592922
vt 0.61575020 0.40624596
vt 0.61581974 0.39928171
vt 0.61582918 0.56542996
vt 0.61605717 0.41527211
vt 0.61674642 0.45522756
vt 0.61746246 0.51690432
vt 0.61816475 0.50390888
vt 0.61868698 0.55413746
vt 0.62539964 0.40497213
vt 0.62939411 0.54245323
vt 0.62964067 0.58941677
vt 0.63017551 0.59311692
vt 0.63029142 0.61187094
vt 0.63054230 0.46609644
vt 0.63208102 0.54770210
vt 0.63227275 0.51481884
vt 0.63235393 0.50441185
vt 0.63245898 0.52720802
vt 0.63397779 0.41090787
vt 0.63403382 0.39892142
vt 0.63499675 0.60727424
vt 0.63501166 0.50464732
vt 0.63577688 0.55659353
vt 0.63612032 0.45131392
vt 0.63615373 0.49245895
vt 0.64611462 0.57666562
vt 0.64673461 0.59932452
vt 0.65190562 0.61079315
vt 0.65280593 0.58852288
vt 0.65936133 1.17302643
vt 0.66018653 0.12425292
vt 0.66555519 1.16791713
vt 0.66557019 0.40012828
vt 0.66817446 0.51092201
vt 0.67397820 0.46029401
vt 0.67427472 0.60960313
vt 0.67430238 0.58765289
vt 0.67537689 0.52811218
vt 0.67686062 0.57577298
vt 0.67748853 0.59843095
vt 0.67938165 0.57788183
vt 0.68346600 0.46163900
vt 0.68390679 0.51162056
vt 0.68445189 0.49800279
vt 0.68508667 0.44414249
vt 0.68515153 0.45765269
vt 0.68537871 0.64580400
vt 0.68551126 0.37819630
vt 0.68559725 0.48004087
vt 0.68644006 0.63295386
vt 0.68673867 0.54838099
vt 0.68698082 0.48632264
vt 0.68752260 0.58034309
vt 0.68763185 0.38761905
vt 0.68772760 1.16791600
vt 0.68773097 0.40012729
vt 0.68791486 0.43641521
vt 0.68939768 0.54001872
vt 0.68947364 0.46810979
vt 0.69031997 0.48515184
vt 0.69112769 0.54135048
vt 0.69133916 0.57612717
vt 0.69146571 0.52653227
vt 0.69194441 0.59841279
vt 0.69210587 0.46700556
vt 0.69240176 0.42296765
vt 0.69270050 0.49062532
vt 0.69275530 0.57567614
vt 0.69357324 0.56312219
vt 0.69362610 0.59523734
vt 0.69376847 0.59248715
vt 0.69413498 0.61017039
vt 0.69645880 0.45765481
vt 0.69763536 0.43411009
vt 0.69789926 0.50276265
vt 0.69826154 0.47159702
vt 0.70027971 0.50618924
vt 0.70062458 0.53982578
vt 0.70132696 0.53985422
vt 0.70194103 0.37608391
vt 0.70288746 0.44143325
vt 0.70329052 0.52566852
vt 0.70350947 0.47280787
vt 0.70414501 0.57804106
vt 0.70415353 0.62976079
vt 0.70536136 0.43027556
vt 0.70582182 0.55234370
vt 0.70597803 0.46864656
vt 0.70606890 0.38753761
vt 0.70742299 0.53848445
vt 0.70794084 0.58526253
vt 0.70836043 0.48410721
vt 0.70940689 0.49036756
vt 0.70953576 0.64064712
vt 0.71303326 0.82134224
vt 0.71369675 0.84309590
vt 0.72623608 0.81090565
vt 0.72662705 0.39903380
vt 0.72682541 0.40869570
vt 0.72685667 0.78839248
vt 0.72705893 0.43009897
vt 0.72748873 0.41886349
vt 0.72872629 1.16791536
vt 0.72953129 0.60132447
vt 0.72975749 0.40012792
vt 0.73024689 0.39805863
vt 0.73041287 0.37627441
vt 0.73057519 0.60921695
vt 0.73214065 0.43077327
vt 0.73291649 0.40259687
vt 0.73362066 0.47220266
vt 0.73380863 0.50710777
vt 0.73391009 0.53844258
vt 0.73439534 0.36342378
vt 0.73464168 0.57429703
vt 0.73512756 0.43430866
vt 0.73605312 0.50460641
vt 0.73633528 0.46858803
vt 0.74345439 0.47099548
vt 0.74421074 0.50311965
vt 0.74625684 0.39742575
vt 0.74678012 0.43376006
vt 0.74684663 0.12386148
vt 0.74716433 0.36071389
vt 0.74738697 1.17610693
vt 0.74809010 0.43382427
vt 0.74907821 0.54002355
vt 0.74980909 0.35973628
vt 0.75050799 0.50434834
vt 0.75152818 0.39740435
vt 0.75859868 0.38666562
vt 0.75859868 0.37563883
vt 0.75898844 0.40882297
vt 0.75898844 0.39779619
vt 0.75928680 0.54258059
vt 0.75989697 0.40222031
vt 0.76043305 0.50526480
vt 0.76135966 0.36362749
vt 0.76205330 0.61119800
vt 0.76252863 0.50459191
vt 0.76301071 0.43164511
vt 0.76310812 0.57566956
vt 0.76362063 0.43369381
vt 0.76500146 0.54017782
vt 0.76545659 0.52648701
vt 0.76568577 0.46879636
vt 0.78717242 0.54028533
vt 0.78911498 0.56851428
vt 0.78930414 0.54719826
vt 0.79120930 0.43195717
vt 0.79168626 0.46655032
vt 0.79186609 0.39978629
vt 0.79194239 0.53571350
vt 0.79214729 0.50288641
vt 0.79356257 0.43521104
vt 0.79436990 0.46718622
vt 0.79502293 0.36319991
vt 0.79569353 0.61159279
vt 0.79945464 0.43006484
vt 0.80046574 0.57616984
vt 0.80097972 0.53961714
vt 0.80137534 0.43198563
vt 0.80198018 0.49046359
vt 0.80328085 0.42229027
vt 0.80338169 0.56360364
vt 0.80352900 0.39627441
vt 0.80367906 0.36083843
vt 0.80516423 0.50149094
vt 0.80536284 0.46907872
vt 0.80584855 0.52462525
vt 0.80604752 0.83856855
vt 0.80638838 0.45528649
vt 0.80651090 0.47277008
vt 0.80695386 0.53893353
vt 0.80744252 -0.21596784
vt 0.82204411 0.53480685
vt 0.82269400 0.52323719
vt 0.82276199 0.55812675
vt 0.82310237 0.60491547
vt 0.82402389 0.59672602
vt 0.82543542 0.56983768
vt 0.83329936 0.32522779
vt 0.83638041 0.44653658
vt 0.83654727 0.47814037
vt 0.83744125 0.45680359
vt 0.84272869 0.35022581
vt 0.84285153 0.30503793
vt 0.84519994 -0.21497373
vt 0.84740950 0.42821558
vt 0.85723807 0.45592974
vt 0.85811823 0.53456899
vt 0.85944838 0.48707497
vt 0.86060944 0.41998414
vt 0.86164803 0.49901295
vt 0.86219719 0.52574011
vt 0.86228613 0.43066788
vt 0.86256519 0.46342138
vt 0.86901123 -0.14230325
vt 0.87413236 0.54407224
vt 0.87824468 0.50532280
vt 0.87877704 0.46804418
vt 0.88101914 0.83994733
vt 0.88291691 0.86226810
vt 0.88767797 0.57186023
vt 0.89038485 0.53533749
vt 0.89078856 0.50144549
vt 0.89158677 0.60563411
vt 0.89243300 0.46749240
vt 0.89250032 0.53711705
vt 0.89254842 1.17556246
vt 0.89336838 0.12274275
vt 0.91444919 -0.21401627
vt 0.91652051 0.40012864
vt 0.91850793 1.16791431
vt 0.94705912 0.84694902
vt 0.94899340 7.9162468e-2
vt 0.94993303 0.83875901
vt 0.95107493 -0.21278811
vt 0.97492556 0.73302554
vt 0.97646024 0.75328903
vt 1.05337745 0.69253342
vt 1.05338741 0.71433337
vt 1.13642686 7.9162468e-2
vt 1.13681523 0.84694902
vt 1.22026228 0.20312705
vt 1.22238051 0.22400772
vn -3.2466321e-2 -3.3185010e-3 -0.99946732
vn 1.5635502e-3 -0.99999878 5.5305317e-5
vn -0.99895374 4.4024746e-2 1.2379491e-2
vn -3.2466321e-2 -3.3185010e-3 -0.99946732
vn 1.5719716e-3 0.99999872 3.0784386e-4
vn -0.99895374 4.4024746e-2 1.2379491e-2
vn 0.99984843 -1.6628374e-2 -5.1596158e-3
vn 1.5719716e-3 0.99999872 3.0784386e-4
vn 0.73203938 -3.2844227e-2 -0.68047013
vn 0.99984843 -1.6628374e-2 -5.1596158e-3
vn 1.5635502e-3 -0.99999878 5.5305317e-5
vn 0.73203938 -3.2844227e-2 -0.68047013
vn 1.5635502e-3 -0.99999878 5.5305317e-5
vn 4.3560510e-2 -1.5070787e-2 0.99893711
vn -0.99895374 4.4024746e-2 1.2379491e-2
vn 1.5719716e-3 0.99999872 3.0784386e-4
vn 4.3560510e-2 -1.5070787e-2 0.99893711
vn -0.99895374 4.4024746e-2 1.2379491e-2
vn 0.99984843 -1.6628374e-2 -5.1596158e-3
vn 1.5719716e-3 0.99999872 3.0784386e-4
vn 4.3560510e-2 -1.5070787e-2 0.99893711
vn 0.99984843 -1.6628374e-2 -5.1596158e-3
vn 1.5635502e-3 -0.99999878 5.5305317e-5
vn 4.3560510e-2 -1.5070787e-2 0.99893711
vn -3.2466321e-2 -3.3185010e-3 -0.99946732
vn 1.5635502e-3 -0.99999878 5.5305317e-5
vn 0.86778702 -1.7689934e-2 -0.49662134
vn 1.5635502e-3 -0.99999878 5.5305317e-5
vn 0.99874478 -6.2005422e-3 -4.9703318e-2
vn 0.73203938 -3.2844227e-2 -0.68047013
vn -3.2466321e-2 -3.3185010e-3 -0.99946732
vn 1.5719716e-3 0.99999872 3.0784386e-4
vn 0.86778702 -1.7689934e-2 -0.49662134
vn 1.5719716e-3 0.99999872 3.0784386e-4
vn 0.99874478 -6.2005422e-3 -4.9703318e-2
vn 0.73203938 -3.2844227e-2 -0.68047013
vn 1.5635502e-3 -0.99999878 5.5305317e-5
vn -0.65577280 -1.5540156e-2 -0.75479834
vn 0.86778702 -1.7689934e-2 -0.49662134
vn 1.5635502e-3 -0.99999878 5.5305317e-5
vn 0.99874478 -6.2005422e-3 -4.9703318e-2
vn -0.65577280 -1.5540156e-2 -0.75479834
vn 1.5719716e-3 0.99999872 3.0784386e-4
vn -0.65577280 -1.5540156e-2 -0.75479834
vn 0.86778702 -1.7689934e-2 -0.49662134
vn 1.5719716e-3 0.99999872 3.0784386e-4
vn 0.99874478 -6.2005422e-3 -4.9703318e-2
vn -0.65577280 -1.5540156e-2 -0.75479834
vn 1.0292414e-3 -6.0400784e-2 0.99817368
vn -6.1589696e-4 -0.99998260 -5.8674078e-3
vn -0.99987974 1.5506856e-2 -2.2305707e-4
vn 1.0292414e-3 -6.0400784e-2 0.99817368
vn -3.9373220e-3 0.99997685 5.5488682e-3
vn -0.99987974 1.5506856e-2 -2.2305707e-4
vn 0.99999796 1.9094792e-3 6.6262935e-4
vn -3.9373220e-3 0.99997685 5.5488682e-3
vn 7.0016145e-3 9.8370729e-2 0.99512521
vn 0.99999796 1.9094792e-3 6.6262935e-4
vn -6.1589696e-4 -0.99998260 -5.8674078e-3
vn 7.0016145e-3 9.8370729e-2 0.99512521
vn -6.1589696e-4 -0.99998260 -5.8674078e-3
vn 3.2718873e-3 2.9456922e-2 -0.99956070
vn -0.99987974 1.5506856e-2 -2.2305707e-4
vn -3.9373220e-3 0.99997685 5.5488682e-3
vn 3.2718873e-3 2.9456922e-2 -0.99956070
vn -0.99987974 1.5506856e-2 -2.2305707e-4
vn 0.99999796 1.9094792e-3 6.6262935e-4
vn -3.9373220e-3 0.99997685 5.5488682e-3
vn 3.2718873e-3 2.9456922e-2 -0.99956070
vn 0.99999796 1.9094792e-3 6.6262935e-4
vn -6.1589696e-4 -0.99998260 -5.8674078e-3
vn 3.2718873e-3 2.9456922e-2 -0.99956070
vn 0.58407983 -6.9536393e-2 0.80871221
vn -6.1589696e-4 -0.99998260 -5.8674078e-3
vn 0.58407983 -6.9536393e-2 0.80871221
vn -6.1589696e-4 -0.99998260 -5.8674078e-3
vn -0.48134843 9.2053136e-2 0.87168223
vn -0.48134843 9.2053136e-2 0.87168223
vn 0.58407983 -6.9536393e-2 0.80871221
vn -3.9373220e-3 0.99997685 5.5488682e-3
vn 0.58407983 -6.9536393e-2 0.80871221
vn -3.9373220e-3 0.99997685 5.5488682e-3
vn -0.48134843 9.2053136e-2 0.87168223
vn -0.48134843 9.2053136e-2 0.87168223
vn -6.1589696e-4 -0.99998260 -5.8674078e-3
vn 0.11790141 1.1605599e-2 0.99295749
vn 0.11790141 1.1605599e-2 0.99295749
vn -3.9373220e-3 0.99997685 5.5488682e-3
vn 0.11790141 1.1605599e-2 0.99295749
vn 0.11790141 1.1605599e-2 0.99295749
vn 2.0413590e-3 -0.92282125 -0.38522301
vn -0.99884057 4.3112308e-2 -2.1420564e-2
vn -0.99884057 4.3112308e-2 -2.1420564e-2
vn 0.99976030 2.1657147e-2 3.2108679e-3
vn 0.99976030 2.1657147e-2 3.2108679e-3
vn 2.0413590e-3 -0.92282125 -0.38522301
vn -3.6387602e-2 -0.49569584 0.86773359
vn -0.99884057 4.3112308e-2 -2.1420564e-2
vn 0.99976030 2.1657147e-2 3.2108679e-3
vn -3.6387602e-2 -0.49569584 0.86773359
vn -3.6387602e-2 -0.49569584 0.86773359
vn -0.99884057 4.3112308e-2 -2.1420564e-2
vn -5.6370511e-2 -0.66961373 0.74056723
vn 2.0413590e-3 -0.92282125 -0.38522301
vn -0.99884057 4.3112308e-2 -2.1420564e-2
vn -5.6370511e-2 -0.66961373 0.74056723
vn 0.99976030 2.1657147e-2 3.2108679e-3
vn -3.6387602e-2 -0.49569584 0.86773359
vn -5.6370511e-2 -0.66961373 0.74056723
vn 0.99976030 2.1657147e-2 3.2108679e-3
vn 2.0413590e-3 -0.92282125 -0.38522301
vn -5.6370511e-2 -0.66961373 0.74056723
vn -0.12391009 -0.99216523 -1.5951235e-2
vn -0.99973496 -2.2450625e-2 -5.0972786e-3
vn -0.99973496 -2.2450625e-2 -5.0972786e-3
vn 0.99921060 9.0657952e-3 -3.8677968e-2
vn 0.99921060 9.0657952e-3 -3.8677968e-2
vn -0.12391009 -0.99216523 -1.5951235e-2
vn 0.23066712 0.13861124 0.96310934
vn -0.99973496 -2.2450625e-2 -5.0972786e-3
vn 0.99921060 9.0657952e-3 -3.8677968e-2
vn 0.23066712 0.13861124 0.96310934
vn 0.23066712 0.13861124 0.96310934
vn -0.99973496 -2.2450625e-2 -5.0972786e-3
vn -6.7505601e-2 -0.72828127 0.68194529
vn -0.12391009 -0.99216523 -1.5951235e-2
vn -0.99973496 -2.2450625e-2 -5.0972786e-3
vn -6.7505601e-2 -0.72828127 0.68194529
vn 0.99921060 9.0657952e-3 -3.8677968e-2
vn 0.23066712 0.13861124 0.96310934
vn -6.7505601e-2 -0.72828127 0.68194529
vn 0.99921060 9.0657952e-3 -3.8677968e-2
vn -0.12391009 -0.99216523 -1.5951235e-2
vn -6.7505601e-2 -0.72828127 0.68194529
vn 8.4955664e-2 -0.96884095 0.23265801
vn -0.99875315 -4.9206962e-2 8.4150160e-3
vn -0.99875315 -4.9206962e-2 8.4150160e-3
vn 0.99990421 2.0179536e-3 -1.3692718e-2
vn 0.99990421 2.0179536e-3 -1.3692718e-2
vn 8.4955664e-2 -0.96884095 0.23265801
vn -3.9815101e-2 0.10681909 -0.99348097
vn -0.99875315 -4.9206962e-2 8.4150160e-3
vn 0.99990421 2.0179536e-3 -1.3692718e-2
vn -3.9815101e-2 0.10681909 -0.99348097
vn -3.9815101e-2 0.10681909 -0.99348097
vn -0.99875315 -4.9206962e-2 8.4150160e-3
vn 0.14037815 -0.68690822 -0.71305755
vn 8.4955664e-2 -0.96884095 0.23265801
vn -0.99875315 -4.9206962e-2 8.4150160e-3
vn 0.14037815 -0.68690822 -0.71305755
vn 0.99990421 2.0179536e-3 -1.3692718e-2
vn -3.9815101e-2 0.10681909 -0.99348097
vn 0.14037815 -0.68690822 -0.71305755
vn 0.99990421 2.0179536e-3 -1.3692718e-2
vn 8.4955664e-2 -0.96884095 0.23265801
vn 0.14037815 -0.68690822 -0.71305755
vn -8.8780967e-2 -0.99592946 1.5570544e-2
vn -0.99997555 -4.6280579e-3 -5.2413212e-3
vn -0.99997555 -4.6280579e-3 -5.2413212e-3
vn 0.99811572 -3.1369002e-3 6.1279389e-2
vn 0.99811572 -3.1369002e-3 6.1279389e-2
vn -8.8780967e-2 -0.99592946 1.5570544e-2
vn -0.24619971 -6.9545326e-2 0.96672082
vn -0.99997555 -4.6280579e-3 -5.2413212e-3
vn 0.99811572 -3.1369002e-3 6.1279389e-2
vn -0.24619971 -6.9545326e-2 0.96672082
vn -0.24619971 -6.9545326e-2 0.96672082
vn -0.99997555 -4.6280579e-3 -5.2413212e-3
vn -0.15681680 -0.68432787 0.71211225
vn -8.8780967e-2 -0.99592946 1.5570544e-2
vn -0.99997555 -4.6280579e-3 -5.2413212e-3
vn -0.15681680 -0.68432787 0.71211225
vn 0.99811572 -3.1369002e-3 6.1279389e-2
vn -0.24619971 -6.9545326e-2 0.96672082
vn -0.15681680 -0.68432787 0.71211225
vn 0.99811572 -3.1369002e-3 6.1279389e-2
vn -8.8780967e-2 -0.99592946 1.5570544e-2
vn -0.15681680 -0.68432787 0.71211225
vn -0.12283722 -0.98637239 0.10945560
vn -0.99977292 -2.1192296e-2 2.2362447e-3
vn -0.99977292 -2.1192296e-2 2.2362447e-3
vn 0.99996275 -8.2977820e-3 2.3772664e-3
vn 0.99996275 -8.2977820e-3 2.3772664e-3
vn -0.12283722 -0.98637239 0.10945560
vn 0.10794627 -0.11039144 -0.98800877
vn -0.99977292 -2.1192296e-2 2.2362447e-3
vn 0.99996275 -8.2977820e-3 2.3772664e-3
vn 0.10794627 -0.11039144 -0.98800877
vn 0.10794627 -0.11039144 -0.98800877
vn -0.99977292 -2.1192296e-2 2.2362447e-3
vn 4.3230083e-2 -0.70481357 -0.70807414
vn -0.12283722 -0.98637239 0.10945560
vn -0.99977292 -2.1192296e-2 2.2362447e-3
vn 4.3230083e-2 -0.70481357 -0.70807414
vn 0.99996275 -8.2977820e-3 2.3772664e-3
vn 0.10794627 -0.11039144 -0.98800877
vn 4.3230083e-2 -0.70481357 -0.70807414
vn 0.99996275 -8.2977820e-3 2.3772664e-3
vn -0.12283722 -0.98637239 0.10945560
vn 4.3230083e-2 -0.70481357 -0.70807414
vn -0.15052627 -0.96794896 0.20103894
vn -0.99861834 1.9053765e-3 -5.2514665e-2
vn -0.99861834 1.9053765e-3 -5.2514665e-2
vn 0.99775702 5.8704709e-2 -3.2166616e-2
vn 0.99775702 5.8704709e-2 -3.2166616e-2
vn -0.15052627 -0.96794896 0.20103894
vn -0.13979908 0.12096964 0.98276272
vn -0.99861834 1.9053765e-3 -5.2514665e-2
vn 0.99775702 5.8704709e-2 -3.2166616e-2
vn -0.13979908 0.12096964 0.98276272
vn -0.13979908 0.12096964 0.98276272
vn -0.99861834 1.9053765e-3 -5.2514665e-2
vn -8.2586013e-2 -0.70349403 0.70588646
vn -0.15052627 -0.96794896 0.20103894
vn -0.99861834 1.9053765e-3 -5.2514665e-2
vn -8.2586013e-2 -0.70349403 0.70588646
vn 0.99775702 5.8704709e-2 -3.2166616e-2
vn -0.13979908 0.12096964 0.98276272
vn -8.2586013e-2 -0.70349403 0.70588646
vn 0.99775702 5.8704709e-2 -3.2166616e-2
vn -0.15052627 -0.96794896 0.20103894
vn -8.2586013e-2 -0.70349403 0.70588646
vn -4.5659069e-2 -0.97139640 -0.23303279
vn -0.99928325 -2.9891850e-2 -2.3226541e-2
vn -4.8867714e-2 0.99866859 1.6522679e-2
vn -0.99928325 -2.9891850e-2 -2.3226541e-2
vn 0.99969405 -1.5684826e-2 1.9125799e-2
vn -4.8867714e-2 0.99866859 1.6522679e-2
vn 0.99969405 -1.5684826e-2 1.9125799e-2
vn -4.5659069e-2 -0.97139640 -0.23303279
vn -4.8867714e-2 0.99866859 1.6522679e-2
vn 0.13266784 0.16869687 0.97669883
vn -0.99928325 -2.9891850e-2 -2.3226541e-2
vn 0.99969405 -1.5684826e-2 1.9125799e-2
vn -4.8867714e-2 0.99866859 1.6522679e-2
vn 0.13266784 0.16869687 0.97669883
vn 0.13266784 0.16869687 0.97669883
vn -0.99928325 -2.9891850e-2 -2.3226541e-2
vn 9.8582786e-3 -0.68805312 0.72559336
vn -4.5659069e-2 -0.97139640 -0.23303279
vn -0.99928325 -2.9891850e-2 -2.3226541e-2
vn 9.8582786e-3 -0.68805312 0.72559336
vn 0.99969405 -1.5684826e-2 1.9125799e-2
vn 0.13266784 0.16869687 0.97669883
vn 9.8582786e-3 -0.68805312 0.72559336
vn 0.99969405 -1.5684826e-2 1.9125799e-2
vn -4.5659069e-2 -0.97139640 -0.23303279
vn 9.8582786e-3 -0.68805312 0.72559336
vn -2.4606464e-2 -0.98557666 0.16743109
vn -0.99699300 -5.1039494e-2 -5.8308938e-2
vn -0.99699300 -5.1039494e-2 -5.8308938e-2
vn 0.99626377 7.2062740e-2 4.7596818e-2
vn 0.99626377 7.2062740e-2 4.7596818e-2
vn -2.4606464e-2 -0.98557666 0.16743109
vn -9.7122354e-2 -0.42511728 -0.89991252
vn -0.99699300 -5.1039494e-2 -5.8308938e-2
vn 0.99626377 7.2062740e-2 4.7596818e-2
vn -9.7122354e-2 -0.42511728 -0.89991252
vn -9.7122354e-2 -0.42511728 -0.89991252
vn -0.99699300 -5.1039494e-2 -5.8308938e-2
vn -0.11244568 -0.70136161 -0.70388057
vn -2.4606464e-2 -0.98557666 0.16743109
vn -0.99699300 -5.1039494e-2 -5.8308938e-2
vn -0.11244568 -0.70136161 -0.70388057
vn 0.99626377 7.2062740e-2 4.7596818e-2
vn -9.7122354e-2 -0.42511728 -0.89991252
vn -0.11244568 -0.70136161 -0.70388057
vn 0.99626377 7.2062740e-2 4.7596818e-2
vn -2.4606464e-2 -0.98557666 0.16743109
vn -0.11244568 -0.70136161 -0.70388057
vn 0.11243307 -0.99323106 2.9169610e-2
vn -0.98866762 -0.12009976 -9.0068816e-2
vn -0.98866762 -0.12009976 -9.0068816e-2
vn 0.99994682 8.3276873e-4 -1.0279484e-2
vn 0.99994682 8.3276873e-4 -1.0279484e-2
vn 0.11243307 -0.99323106 2.9169610e-2
vn 7.6326230e-3 3.7717807e-2 -0.99925928
vn -0.98866762 -0.12009976 -9.0068816e-2
vn 0.99994682 8.3276873e-4 -1.0279484e-2
vn 7.6326230e-3 3.7717807e-2 -0.99925928
vn 7.6326230e-3 3.7717807e-2 -0.99925928
vn -0.98866762 -0.12009976 -9.0068816e-2
vn -8.3043823e-2 -0.73791229 -0.66976800
vn 0.11243307 -0.99323106 2.9169610e-2
vn -0.98866762 -0.12009976 -9.0068816e-2
vn -8.3043823e-2 -0.73791229 -0.66976800
vn 0.99994682 8.3276873e-4 -1.0279484e-2
vn 7.6326230e-3 3.7717807e-2 -0.99925928
vn -8.3043823e-2 -0.73791229 -0.66976800
vn 0.99994682 8.3276873e-4 -1.0279484e-2
vn 0.11243307 -0.99323106 2.9169610e-2
vn -8.3043823e-2 -0.73791229 -0.66976800
vn -0.14861827 -0.98447684 -9.3370006e-2
vn -0.99430292 -2.1052339e-2 0.10449168
vn -0.99430292 -2.1052339e-2 0.10449168
vn 0.99815332 -4.3679279e-3 6.0587707e-2
vn 0.99815332 -4.3679279e-3 6.0587707e-2
vn -0.14861827 -0.98447684 -9.3370006e-2
vn -0.11249942 0.22541555 -0.96774568
vn -0.99430292 -2.1052339e-2 0.10449168
vn 0.99815332 -4.3679279e-3 6.0587707e-2
vn -0.11249942 0.22541555 -0.96774568
vn -0.11249942 0.22541555 -0.96774568
vn -0.99430292 -2.1052339e-2 0.10449168
vn -4.3552985e-2 -0.71970787 -0.69290961
vn -0.14861827 -0.98447684 -9.3370006e-2
vn -0.99430292 -2.1052339e-2 0.10449168
vn -4.3552985e-2 -0.71970787 -0.69290961
vn 0.99815332 -4.3679279e-3 6.0587707e-2
vn -0.11249942 0.22541555 -0.96774568
vn -4.3552985e-2 -0.71970787 -0.69290961
vn 0.99815332 -4.3679279e-3 6.0587707e-2
vn -0.14861827 -0.98447684 -9.3370006e-2
vn -4.3552985e-2 -0.71970787 -0.69290961
vn 3.5535711e-2 -0.99289127 -0.11359639
vn -0.99663060 -4.1624495e-2 -7.0674245e-2
vn -0.99663060 -4.1624495e-2 -7.0674245e-2
vn 0.99754801 5.5845823e-2 4.2180772e-2
vn 0.99754801 5.5845823e-2 4.2180772e-2
vn 3.5535711e-2 -0.99289127 -0.11359639
vn -0.16524463 -4.4346954e-2 -0.98525507
vn -0.99663060 -4.1624495e-2 -7.0674245e-2
vn 0.99754801 5.5845823e-2 4.2180772e-2
vn -0.16524463 -4.4346954e-2 -0.98525507
vn -0.16524463 -4.4346954e-2 -0.98525507
vn -0.99663060 -4.1624495e-2 -7.0674245e-2
vn -0.13382785 -0.70075719 -0.70073494
vn 3.5535711e-2 -0.99289127 -0.11359639
vn -0.99663060 -4.1624495e-2 -7.0674245e-2
vn -0.13382785 -0.70075719 -0.70073494
vn 0.99754801 5.5845823e-2 4.2180772e-2
vn -0.16524463 -4.4346954e-2 -0.98525507
vn -0.13382785 -0.70075719 -0.70073494
vn 0.99754801 5.5845823e-2 4.2180772e-2
vn 3.5535711e-2 -0.99289127 -0.11359639
vn -0.13382785 -0.70075719 -0.70073494
vn 1.7870408e-4 2.7375644e-5 0.99999998
vn 0.0000000e+0 -1.00000000 0.0000000e+0
vn -0.99982035 -2.5532179e-3 1.8781520e-2
vn 1.7870408e-4 2.7375644e-5 0.99999998
vn 0.0000000e+0 1.00000000 0.0000000e+0
vn -0.99982035 -2.5532179e-3 1.8781520e-2
vn 1.7870408e-4 2.7375644e-5 0.99999998
vn 0.99944477 -9.2548138e-4 -3.3306100e-2
vn 0.0000000e+0 1.00000000 0.0000000e+0
vn 1.7870408e-4 2.7375644e-5 0.99999998
vn 0.99944477 -9.2548138e-4 -3.3306100e-2
vn 0.0000000e+0 -1.00000000 0.0000000e+0
vn 0.0000000e+0 -1.00000000 0.0000000e+0
vn -2.1437464e-4 -5.6993756e-6 -0.99999998
vn -0.99982035 -2.5532179e-3 1.8781520e-2
vn 0.0000000e+0 1.00000000 0.0000000e+0
vn -2.1437464e-4 -5.6993756e-6 -0.99999998
vn -0.99982035 -2.5532179e-3 1.8781520e-2
vn 0.99944477 -9.2548138e-4 -3.3306100e-2
vn 0.0000000e+0 1.00000000 0.0000000e+0
vn -2.1437464e-4 -5.6993756e-6 -0.99999998
vn 0.99944477 -9.2548138e-4 -3.3306100e-2
vn 0.0000000e+0 -1.00000000 0.0000000e+0
vn -2.1437464e-4 -5.6993756e-6 -0.99999998
vn 1.7870408e-4 2.7375644e-5 0.99999998
vn 0.0000000e+0 -1.00000000 0.0000000e+0
vn -0.99982035 -2.5532179e-3 1.8781520e-2
vn 1.7870408e-4 2.7375644e-5 0.99999998
vn 0.0000000e+0 1.00000000 0.0000000e+0
vn -0.99982035 -2.5532179e-3 1.8781520e-2
vn 1.7870408e-4 2.7375644e-5 0.99999998
vn 0.99944477 -9.2548138e-4 -3.3306100e-2
vn 0.0000000e+0 1.00000000 0.0000000e+0
vn 1.7870408e-4 2.7375644e-5 0.99999998
vn 0.99944477 -9.2548138e-4 -3.3306100e-2
vn 0.0000000e+0 -1.00000000 0.0000000e+0
vn 0.0000000e+0 -1.00000000 0.0000000e+0
vn -2.1437464e-4 -5.6993756e-6 -0.99999998
vn -0.99982035 -2.5532179e-3 1.8781520e-2
vn 0.0000000e+0 1.00000000 0.0000000e+0
vn -2.1437464e-4 -5.6993756e-6 -0.99999998
vn -0.99982035 -2.5532179e-3 1.8781520e-2
vn 0.99944477 -9.2548138e-4 -3.3306100e-2
vn 0.0000000e+0 1.00000000 0.0000000e+0
vn -2.1437464e-4 -5.6993756e-6 -0.99999998
vn 0.99944477 -9.2548138e-4 -3.3306100e-2
vn 0.0000000e+0 -1.00000000 0.0000000e+0
vn -2.1437464e-4 -5.6993756e-6 -0.99999998
vn 3.5426104e-3 -1.0847162e-2 0.99993489
vn -0.99980467 -1.9761394e-2 -3.2071801e-4
vn 4.2342053e-3 -0.99998400 3.7503588e-3
vn 4.9485082e-2 -0.99875537 -6.2397826e-3
vn 3.5426104e-3 -1.0847162e-2 0.99993489
vn -0.99980467 -1.9761394e-2 -3.2071801e-4
vn -9.0606655e-3 0.99994855 -4.5608499e-3
vn -4.7721138e-2 0.99884616 5.3886313e-3
vn 3.5426104e-3 -1.0847162e-2 0.99993489
vn 0.99905841 -4.3382060e-2 -5.4591913e-4
vn -9.0606655e-3 0.99994855 -4.5608499e-3
vn 3.5676174e-2 0.99936005 2.5876873e-3
vn 3.5426104e-3 -1.0847162e-2 0.99993489
vn 0.99905841 -4.3382060e-2 -5.4591913e-4
vn 4.2342053e-3 -0.99998400 3.7503588e-3
vn -2.0746906e-2 -0.99978081 -2.8115563e-3
vn 3.4141274e-3 4.0355874e-2 -0.99917954
vn -0.99980467 -1.9761394e-2 -3.2071801e-4
vn 4.9485082e-2 -0.99875537 -6.2397826e-3
vn -2.4324944e-2 -0.99968877 5.5380096e-3
vn 3.4141274e-3 4.0355874e-2 -0.99917954
vn -0.99980467 -1.9761394e-2 -3.2071801e-4
vn 1.5001827e-2 0.99986629 -6.5068558e-3
vn -4.7721138e-2 0.99884616 5.3886313e-3
vn 0.99905841 -4.3382060e-2 -5.4591913e-4
vn 3.4141274e-3 4.0355874e-2 -0.99917954
vn 3.5676174e-2 0.99936005 2.5876873e-3
vn 1.5001827e-2 0.99986629 -6.5068558e-3
vn 0.99905841 -4.3382060e-2 -5.4591913e-4
vn 3.4141274e-3 4.0355874e-2 -0.99917954
vn -2.4324944e-2 -0.99968877 5.5380096e-3
vn -2.0746906e-2 -0.99978081 -2.8115563e-3
vn 4.2342053e-3 -0.99998400 3.7503588e-3
vn -2.0746906e-2 -0.99978081 -2.8115563e-3
vn 0.91395484 5.4698853e-3 -0.40577905
vn -0.99931741 3.6375941e-2 6.4428838e-3
vn 4.2342053e-3 -0.99998400 3.7503588e-3
vn 4.9485082e-2 -0.99875537 -6.2397826e-3
vn 0.91395484 5.4698853e-3 -0.40577905
vn 0.99940967 1.9113001e-2 2.8548423e-2
vn 4.9485082e-2 -0.99875537 -6.2397826e-3
vn -2.4324944e-2 -0.99968877 5.5380096e-3
vn -0.88074391 4.5708773e-3 0.47357076
vn 0.99940967 1.9113001e-2 2.8548423e-2
vn -2.4324944e-2 -0.99968877 5.5380096e-3
vn -2.0746906e-2 -0.99978081 -2.8115563e-3
vn -0.88074391 4.5708773e-3 0.47357076
vn -0.99718283 4.8676802e-2 -5.7069824e-2
vn -9.0606655e-3 0.99994855 -4.5608499e-3
vn -4.7721138e-2 0.99884616 5.3886313e-3
vn 0.91395484 5.4698853e-3 -0.40577905
vn 0.99940967 1.9113001e-2 2.8548423e-2
vn -9.0606655e-3 0.99994855 -4.5608499e-3
vn 3.5676174e-2 0.99936005 2.5876873e-3
vn 0.91395484 5.4698853e-3 -0.40577905
vn -0.99931741 3.6375941e-2 6.4428838e-3
vn 3.5676174e-2 0.99936005 2.5876873e-3
vn 1.5001827e-2 0.99986629 -6.5068558e-3
vn -0.88074391 4.5708773e-3 0.47357076
vn -0.99718283 4.8676802e-2 -5.7069824e-2
vn 1.5001827e-2 0.99986629 -6.5068558e-3
vn -4.7721138e-2 0.99884616 5.3886313e-3
vn -0.88074391 4.5708773e-3 0.47357076
vn 0.99940967 1.9113001e-2 2.8548423e-2
vn -2.0746906e-2 -0.99978081 -2.8115563e-3
vn -0.99931741 3.6375941e-2 6.4428838e-3
vn -0.99718283 4.8676802e-2 -5.7069824e-2
vn 3.5676174e-2 0.99936005 2.5876873e-3
vn -0.99931741 3.6375941e-2 6.4428838e-3
vn -0.99718283 4.8676802e-2 -5.7069824e-2
vn 2.4347897e-15 0.0000000e+0 -1.00000000
vn 0.72657467 0.68708751 2.5232981e-16
vn 0.95832257 -0.28568837 0.0000000e+0
vn 2.4347897e-15 0.0000000e+0 -1.00000000
vn 0.23174790 -0.97277588 1.2616491e-16
vn 0.95832257 -0.28568837 0.0000000e+0
vn 2.4347897e-15 0.0000000e+0 -1.00000000
vn -0.72657467 -0.68708751 2.5232981e-16
vn 0.23174790 -0.97277588 1.2616491e-16
vn 2.4347897e-15 0.0000000e+0 -1.00000000
vn -0.95832257 0.28568837 0.0000000e+0
vn -0.72657467 -0.68708751 2.5232981e-16
vn 2.4347897e-15 0.0000000e+0 -1.00000000
vn -0.23174790 0.97277588 6.3082453e-17
vn -0.95832257 0.28568837 0.0000000e+0
vn 2.4347897e-15 0.0000000e+0 -1.00000000
vn 0.72657467 0.68708751 2.5232981e-16
vn -0.23174790 0.97277588 6.3082453e-17
vn 0.72657467 0.68708751 2.5232981e-16
vn 0.95832257 -0.28568837 0.0000000e+0
vn 0.23174790 -0.97277588 1.2616491e-16
vn 0.95832257 -0.28568837 0.0000000e+0
vn -0.72657467 -0.68708751 2.5232981e-16
vn 0.23174790 -0.97277588 1.2616491e-16
vn -0.95832257 0.28568837 0.0000000e+0
vn -0.72657467 -0.68708751 2.5232981e-16
vn -0.23174790 0.97277588 6.3082453e-17
vn -0.95832257 0.28568837 0.0000000e+0
vn 0.72657467 0.68708751 2.5232981e-16
vn -0.23174790 0.97277588 6.3082453e-17
vn 2.4347897e-15 0.0000000e+0 -1.00000000
vn 0.72657467 0.68708751 2.5232981e-16
vn 0.95832257 -0.28568837 5.0465962e-16
vn 2.4347897e-15 0.0000000e+0 -1.00000000
vn 0.23174790 -0.97277588 -1.2616491e-16
vn 0.95832257 -0.28568837 5.0465962e-16
vn 2.4347897e-15 0.0000000e+0 -1.00000000
vn -0.72657467 -0.68708751 -2.5232981e-16
vn 0.23174790 -0.97277588 -1.2616491e-16
vn 2.4347897e-15 0.0000000e+0 -1.00000000
vn -0.95832257 0.28568837 0.0000000e+0
vn -0.72657467 -0.68708751 -2.5232981e-16
vn 2.4347897e-15 0.0000000e+0 -1.00000000
vn -0.23174790 0.97277588 6.3082453e-17
vn -0.95832257 0.28568837 0.0000000e+0
vn 2.4347897e-15 0.0000000e+0 -1.00000000
vn 0.72657467 0.68708751 2.5232981e-16
vn -0.23174790 0.97277588 6.3082453e-17
vn 0.72657467 0.68708751 2.5232981e-16
vn 0.95832257 -0.28568837 5.0465962e-16
vn 0.23174790 -0.97277588 -1.2616491e-16
vn 0.95832257 -0.28568837 5.0465962e-16
vn -0.72657467 -0.68708751 -2.5232981e-16
vn 0.23174790 -0.97277588 -1.2616491e-16
vn -0.95832257 0.28568837 0.0000000e+0
vn -0.72657467 -0.68708751 -2.5232981e-16
vn -0.23174790 0.97277588 6.3082453e-17
vn -0.95832257 0.28568837 0.0000000e+0
vn 0.72657467 0.68708751 2.5232981e-16
vn -0.23174790 0.97277588 6.3082453e-17
vn 2.4347897e-15 0.0000000e+0 -1.00000000
vn 0.72657467 0.68708751 2.5232981e-16
vn 0.95832257 -0.28568837 5.0465962e-16
vn 2.4347897e-15 0.0000000e+0 -1.00000000
vn 0.23174790 -0.97277588 -1.2616491e-16
vn 0.95832257 -0.28568837 5.0465962e-16
vn 2.4347897e-15 0.0000000e+0 -1.00000000
vn -0.72657467 -0.68708751 -2.5232981e-16
vn 0.23174790 -0.97277588 -1.2616491e-16
vn 2.4347897e-15 0.0000000e+0 -1.00000000
vn -0.95832257 0.28568837 0.0000000e+0
vn -0.72657467 -0.68708751 -2.5232981e-16
vn 2.4347897e-15 0.0000000e+0 -1.00000000
vn -0.23174790 0.97277588 6.3082453e-17
vn -0.95832257 0.28568837 0.0000000e+0
vn 2.4347897e-15 0.0000000e+0 -1.00000000
vn 0.72657467 0.68708751 2.5232981e-16
vn -0.23174790 0.97277588 6.3082453e-17
vn 0.72657467 0.68708751 2.5232981e-16
vn 0.95832257 -0.28568837 5.0465962e-16
vn 0.23174790 -0.97277588 -1.2616491e-16
vn 0.95832257 -0.28568837 5.0465962e-16
vn -0.72657467 -0.68708751 -2.5232981e-16
vn 0.23174790 -0.97277588 -1.2616491e-16
vn -0.95832257 0.28568837 0.0000000e+0
vn -0.72657467 -0.68708751 -2.5232981e-16
vn -0.23174790 0.97277588 6.3082453e-17
vn -0.95832257 0.28568837 0.0000000e+0
vn 0.72657467 0.68708751 2.5232981e-16
vn -0.23174790 0.97277588 6.3082453e-17
vn 2.4347897e-15 0.0000000e+0 -1.00000000
vn 0.72657467 0.68708751 -5.0465962e-16
vn 0.95832257 -0.28568837 0.0000000e+0
vn 2.4347897e-15 0.0000000e+0 -1.00000000
vn 0.23174790 -0.97277588 -1.2616491e-16
vn 0.95832257 -0.28568837 0.0000000e+0
vn 2.4347897e-15 0.0000000e+0 -1.00000000
vn -0.72657467 -0.68708751 0.0000000e+0
vn 0.23174790 -0.97277588 -1.2616491e-16
vn 2.4347897e-15 0.0000000e+0 -1.00000000
vn -0.95832257 0.28568837 1.0093192e-15
vn -0.72657467 -0.68708751 0.0000000e+0
vn 2.4347897e-15 0.0000000e+0 -1.00000000
vn -0.23174790 0.97277588 0.0000000e+0
vn -0.95832257 0.28568837 1.0093192e-15
vn 2.4347897e-15 0.0000000e+0 -1.00000000
vn 0.72657467 0.68708751 -5.0465962e-16
vn -0.23174790 0.97277588 0.0000000e+0
vn 0.72657467 0.68708751 -5.0465962e-16
vn 0.95832257 -0.28568837 0.0000000e+0
vn 0.23174790 -0.97277588 -1.2616491e-16
vn 0.95832257 -0.28568837 0.0000000e+0
vn -0.72657467 -0.68708751 0.0000000e+0
vn 0.23174790 -0.97277588 -1.2616491e-16
vn -0.95832257 0.28568837 1.0093192e-15
vn -0.72657467 -0.68708751 0.0000000e+0
vn -0.23174790 0.97277588 0.0000000e+0
vn -0.95832257 0.28568837 1.0093192e-15
vn 0.72657467 0.68708751 -5.0465962e-16
vn -0.23174790 0.97277588 0.0000000e+0
vn 2.4347897e-15 0.0000000e+0 -1.00000000
vn 0.72657467 0.68708751 5.0465962e-16
vn 0.95832257 -0.28568837 -5.0465962e-16
vn 2.4347897e-15 0.0000000e+0 -1.00000000
vn 0.23174790 -0.97277588 0.0000000e+0
vn 0.95832257 -0.28568837 -5.0465962e-16
vn 2.4347897e-15 0.0000000e+0 -1.00000000
vn -0.72657467 -0.68708751 -5.0465962e-16
vn 0.23174790 -0.97277588 0.0000000e+0
vn 2.4347897e-15 0.0000000e+0 -1.00000000
vn -0.95832257 0.28568837 1.0093192e-15
vn -0.72657467 -0.68708751 -5.0465962e-16
vn 2.4347897e-15 0.0000000e+0 -1.00000000
vn -0.23174790 0.97277588 0.0000000e+0
vn -0.95832257 0.28568837 1.0093192e-15
vn 2.4347897e-15 0.0000000e+0 -1.00000000
vn 0.72657467 0.68708751 5.0465962e-16
vn -0.23174790 0.97277588 0.0000000e+0
vn 0.72657467 0.68708751 5.0465962e-16
vn 0.95832257 -0.28568837 -5.0465962e-16
vn 0.23174790 -0.97277588 0.0000000e+0
vn 0.95832257 -0.28568837 -5.0465962e-16
vn -0.72657467 -0.68708751 -5.0465962e-16
vn 0.23174790 -0.97277588 0.0000000e+0
vn -0.95832257 0.28568837 1.0093192e-15
vn -0.72657467 -0.68708751 -5.0465962e-16
vn -0.23174790 0.97277588 0.0000000e+0
vn -0.95832257 0.28568837 1.0093192e-15
vn 0.72657467 0.68708751 5.0465962e-16
vn -0.23174790 0.97277588 0.0000000e+0
vn 0.0000000e+0 0.0000000e+0 1.00000000
vn 0.72657467 0.68708751 -2.5232981e-16
vn 0.95832257 -0.28568837 0.0000000e+0
vn 0.0000000e+0 0.0000000e+0 1.00000000
vn 0.23174790 -0.97277588 -6.3082453e-17
vn 0.95832257 -0.28568837 0.0000000e+0
vn 0.0000000e+0 0.0000000e+0 1.00000000
vn -0.72657467 -0.68708751 -2.5232981e-16
vn 0.23174790 -0.97277588 -6.3082453e-17
vn 0.0000000e+0 0.0000000e+0 1.00000000
vn -0.95832257 0.28568837 0.0000000e+0
vn -0.72657467 -0.68708751 -2.5232981e-16
vn 0.0000000e+0 0.0000000e+0 1.00000000
vn -0.23174790 0.97277588 -1.2616491e-16
vn -0.95832257 0.28568837 0.0000000e+0
vn 0.0000000e+0 0.0000000e+0 1.00000000
vn 0.72657467 0.68708751 -2.5232981e-16
vn -0.23174790 0.97277588 -1.2616491e-16
vn 0.72657467 0.68708751 -2.5232981e-16
vn 0.95832257 -0.28568837 0.0000000e+0
vn 0.23174790 -0.97277588 -6.3082453e-17
vn 0.95832257 -0.28568837 0.0000000e+0
vn -0.72657467 -0.68708751 -2.5232981e-16
vn 0.23174790 -0.97277588 -6.3082453e-17
vn -0.95832257 0.28568837 0.0000000e+0
vn -0.72657467 -0.68708751 -2.5232981e-16
vn -0.23174790 0.97277588 -1.2616491e-16
vn -0.95832257 0.28568837 0.0000000e+0
vn 0.72657467 0.68708751 -2.5232981e-16
vn -0.23174790 0.97277588 -1.2616491e-16
vn -2.4347897e-15 0.0000000e+0 1.00000000
vn 0.72657467 0.68708751 -2.5232981e-16
vn 0.95832257 -0.28568837 -5.0465962e-16
vn -2.4347897e-15 0.0000000e+0 1.00000000
vn 0.23174790 -0.97277588 6.3082453e-17
vn 0.95832257 -0.28568837 -5.0465962e-16
vn -2.4347897e-15 0.0000000e+0 1.00000000
vn -0.72657467 -0.68708751 2.5232981e-16
vn 0.23174790 -0.97277588 6.3082453e-17
vn -2.4347897e-15 0.0000000e+0 1.00000000
vn -0.95832257 0.28568837 0.0000000e+0
vn -0.72657467 -0.68708751 2.5232981e-16
vn -2.4347897e-15 0.0000000e+0 1.00000000
vn -0.23174790 0.97277588 -1.2616491e-16
vn -0.95832257 0.28568837 0.0000000e+0
vn -2.4347897e-15 0.0000000e+0 1.00000000
vn 0.72657467 0.68708751 -2.5232981e-16
vn -0.23174790 0.97277588 -1.2616491e-16
vn 0.72657467 0.68708751 -2.5232981e-16
vn 0.95832257 -0.28568837 -5.0465962e-16
vn 0.23174790 -0.97277588 6.3082453e-17
vn 0.95832257 -0.28568837 -5.0465962e-16
vn -0.72657467 -0.68708751 2.5232981e-16
vn 0.23174790 -0.97277588 6.3082453e-17
vn -0.95832257 0.28568837 0.0000000e+0
vn -0.72657467 -0.68708751 2.5232981e-16
vn -0.23174790 0.97277588 -1.2616491e-16
vn -0.95832257 0.28568837 0.0000000e+0
vn 0.72657467 0.68708751 -2.5232981e-16
vn -0.23174790 0.97277588 -1.2616491e-16
vn -2.4347897e-15 0.0000000e+0 1.00000000
vn 0.72657467 0.68708751 -5.0465962e-16
vn 0.95832257 -0.28568837 5.0465962e-16
vn -2.4347897e-15 0.0000000e+0 1.00000000
vn 0.23174790 -0.97277588 0.0000000e+0
vn 0.95832257 -0.28568837 5.0465962e-16
vn -2.4347897e-15 0.0000000e+0 1.00000000
vn -0.72657467 -0.68708751 5.0465962e-16
vn 0.23174790 -0.97277588 0.0000000e+0
vn -2.4347897e-15 0.0000000e+0 1.00000000
vn -0.95832257 0.28568837 -1.0093192e-15
vn -0.72657467 -0.68708751 5.0465962e-16
vn -2.4347897e-15 0.0000000e+0 1.00000000
vn -0.23174790 0.97277588 0.0000000e+0
vn -0.95832257 0.28568837 -1.0093192e-15
vn -2.4347897e-15 0.0000000e+0 1.00000000
vn 0.72657467 0.68708751 -5.0465962e-16
vn -0.23174790 0.97277588 0.0000000e+0
vn 0.72657467 0.68708751 -5.0465962e-16
vn 0.95832257 -0.28568837 5.0465962e-16
vn 0.23174790 -0.97277588 0.0000000e+0
vn 0.95832257 -0.28568837 5.0465962e-16
vn -0.72657467 -0.68708751 5.0465962e-16
vn 0.23174790 -0.97277588 0.0000000e+0
vn -0.95832257 0.28568837 -1.0093192e-15
vn -0.72657467 -0.68708751 5.0465962e-16
vn -0.23174790 0.97277588 0.0000000e+0
vn -0.95832257 0.28568837 -1.0093192e-15
vn 0.72657467 0.68708751 -5.0465962e-16
vn -0.23174790 0.97277588 0.0000000e+0
vn -2.4347897e-15 0.0000000e+0 1.00000000
vn 0.72657467 0.68708751 -5.0465962e-16
vn 0.95832257 -0.28568837 5.0465962e-16
vn -2.4347897e-15 0.0000000e+0 1.00000000
vn 0.23174790 -0.97277588 0.0000000e+0
vn 0.95832257 -0.28568837 5.0465962e-16
vn -2.4347897e-15 0.0000000e+0 1.00000000
vn -0.72657467 -0.68708751 5.0465962e-16
vn 0.23174790 -0.97277588 0.0000000e+0
vn -2.4347897e-15 0.0000000e+0 1.00000000
vn -0.95832257 0.28568837 -1.0093192e-15
vn -0.72657467 -0.68708751 5.0465962e-16
vn -2.4347897e-15 0.0000000e+0 1.00000000
vn -0.23174790 0.97277588 0.0000000e+0
vn -0.95832257 0.28568837 -1.0093192e-15
vn -2.4347897e-15 0.0000000e+0 1.00000000
vn 0.72657467 0.68708751 -5.0465962e-16
vn -0.23174790 0.97277588 0.0000000e+0
vn 0.72657467 0.68708751 -5.0465962e-16
vn 0.95832257 -0.28568837 5.0465962e-16
vn 0.23174790 -0.97277588 0.0000000e+0
vn 0.95832257 -0.28568837 5.0465962e-16
vn -0.72657467 -0.68708751 5.0465962e-16
vn 0.23174790 -0.97277588 0.0000000e+0
vn -0.95832257 0.28568837 -1.0093192e-15
vn -0.72657467 -0.68708751 5.0465962e-16
vn -0.23174790 0.97277588 0.0000000e+0
vn -0.95832257 0.28568837 -1.0093192e-15
vn 0.72657467 0.68708751 -5.0465962e-16
vn -0.23174790 0.97277588 0.0000000e+0
vn -2.4347897e-15 0.0000000e+0 1.00000000
vn 0.72657467 0.68708751 -5.0465962e-16
vn 0.95832257 -0.28568837 5.0465962e-16
vn -2.4347897e-15 0.0000000e+0 1.00000000
vn 0.23174790 -0.97277588 0.0000000e+0
vn 0.95832257 -0.28568837 5.0465962e-16
vn -2.4347897e-15 0.0000000e+0 1.00000000
vn -0.72657467 -0.68708751 5.0465962e-16
vn 0.23174790 -0.97277588 0.0000000e+0
vn -2.4347897e-15 0.0000000e+0 1.00000000
vn -0.95832257 0.28568837 -1.0093192e-15
vn -0.72657467 -0.68708751 5.0465962e-16
vn -2.4347897e-15 0.0000000e+0 1.00000000
vn -0.23174790 0.97277588 0.0000000e+0
vn -0.95832257 0.28568837 -1.0093192e-15
vn -2.4347897e-15 0.0000000e+0 1.00000000
vn 0.72657467 0.68708751 -5.0465962e-16
vn -0.23174790 0.97277588 0.0000000e+0
vn 0.72657467 0.68708751 -5.0465962e-16
vn 0.95832257 -0.28568837 5.0465962e-16
vn 0.23174790 -0.97277588 0.0000000e+0
vn 0.95832257 -0.28568837 5.0465962e-16
vn -0.72657467 -0.68708751 5.0465962e-16
vn 0.23174790 -0.97277588 0.0000000e+0
vn -0.95832257 0.28568837 -1.0093192e-15
vn -0.72657467 -0.68708751 5.0465962e-16
vn -0.23174790 0.97277588 0.0000000e+0
vn -0.95832257 0.28568837 -1.0093192e-15
vn 0.72657467 0.68708751 -5.0465962e-16
vn -0.23174790 0.97277588 0.0000000e+0
vn -3.0563608e-3 3.2297175e-2 0.99947364
vn 4.4893919e-3 -0.99998990 -2.2746245e-4
vn -0.99991834 1.2760855e-2 -6.8140311e-4
vn -3.0563608e-3 3.2297175e-2 0.99947364
vn -1.7274289e-3 0.99999814 -8.5257891e-4
vn -0.99991834 1.2760855e-2 -6.8140311e-4
vn -3.0563608e-3 3.2297175e-2 0.99947364
vn 0.99993349 1.1525880e-2 -4.1638496e-4
vn -1.7274289e-3 0.99999814 -8.5257891e-4
vn -3.0563608e-3 3.2297175e-2 0.99947364
vn 0.99993349 1.1525880e-2 -4.1638496e-4
vn 4.4893919e-3 -0.99998990 -2.2746245e-4
vn 4.4893919e-3 -0.99998990 -2.2746245e-4
vn 1.1438889e-2 -6.6624250e-2 -0.99771256
vn -0.99991834 1.2760855e-2 -6.8140311e-4
vn -1.7274289e-3 0.99999814 -8.5257891e-4
vn 1.1438889e-2 -6.6624250e-2 -0.99771256
vn -0.99991834 1.2760855e-2 -6.8140311e-4
vn 0.99993349 1.1525880e-2 -4.1638496e-4
vn -1.7274289e-3 0.99999814 -8.5257891e-4
vn 1.1438889e-2 -6.6624250e-2 -0.99771256
vn 0.99993349 1.1525880e-2 -4.1638496e-4
vn 4.4893919e-3 -0.99998990 -2.2746245e-4
vn 1.1438889e-2 -6.6624250e-2 -0.99771256
g cube1_sep4_WoodInside
usemtl WoodInside
f 4/152/12 10/186/30 12/190/36 3/159/9
f 9/128/27 11/129/33 15/109/45 13/108/39
f 10/141/29 14/301/41 16/302/47 12/145/35
f 13/142/38 15/140/44 16/120/48 14/121/42
f 28/52/83 30/40/89 29/39/86 26/51/77
f 29/39/87 30/40/90 27/30/81 25/29/75
f 165/268/420 170/270/440 174/233/453 173/232/450
f 166/243/423 169/242/435 170/234/439 165/235/419
f 167/209/428 172/204/448 169/103/436 166/104/424
f 168/187/431 171/196/443 172/154/447 167/150/427
f 171/170/444 168/169/432 173/245/451 174/246/454
g cube1_sep4_WoodSide
usemtl WoodSide
f 1/12/3 5/408/15 6/409/18 2/13/6
f 3/92/7 7/4/19 8/3/22 4/91/10
f 18/432/54 22/54/66 21/53/63 17/431/51
f 20/7/58 24/355/70 23/354/67 19/8/55
f 34/153/96 40/155/111 38/181/104 31/188/91
f 35/184/97 37/175/101 39/161/108 36/160/100
f 40/155/112 39/161/109 37/175/103 38/181/106
f 44/173/118 50/197/133 48/167/126 41/163/113
f 45/157/119 47/147/123 49/177/130 46/192/122
f 50/197/134 49/177/131 47/147/125 48/167/128
f 51/286/135 58/295/148 60/260/155 54/254/140
f 56/258/144 59/265/152 57/289/145 55/298/141
f 58/295/150 57/289/147 59/265/153 60/260/156
f 64/156/162 70/146/177 68/174/170 61/185/157
f 65/189/163 67/183/167 69/168/174 66/165/166
f 70/146/178 69/168/175 67/183/169 68/174/172
f 71/179/179 78/191/192 80/158/199 74/162/184
f 76/151/188 79/164/196 77/178/189 75/182/185
f 78/191/194 77/178/191 79/164/197 80/158/200
f 84/226/206 90/225/221 88/210/214 81/208/201
f 85/193/207 87/202/211 89/231/218 86/223/210
f 90/225/222 89/231/219 87/202/213 88/210/216
f 92/43/225 95/44/231 96/48/235 93/47/228
f 94/228/230 100/222/247 98/212/240 91/213/223
f 95/201/232 97/194/237 99/218/244 96/227/236
f 100/222/248 99/218/245 97/194/239 98/212/242
f 101/230/249 108/220/262 110/203/269 104/211/254
f 106/214/258 109/195/266 107/216/259 105/229/255
f 108/220/264 107/216/261 109/195/267 110/203/270
f 111/292/271 118/287/284 120/251/291 114/263/276
f 116/264/280 119/269/288 117/288/281 115/296/277
f 118/287/286 117/288/283 119/269/289 120/251/292
f 121/285/293 128/293/306 130/257/313 124/267/298
f 126/253/302 129/256/310 127/291/303 125/300/299
f 128/293/308 127/291/305 129/256/311 130/257/314
f 131/299/315 138/283/328 140/250/335 134/266/320
f 136/277/324 139/259/332 137/290/325 135/297/321
f 138/283/330 137/290/327 139/259/333 140/250/336
f 141/338/338 145/340/349 148/126/359 144/124/348
f 142/198/342 146/148/354 145/149/351 141/199/339
f 143/67/345 147/66/356 146/41/352 142/42/341
f 144/27/347 148/36/358 147/35/355 143/28/344
f 149/337/362 153/339/373 156/127/383 152/125/372
f 150/261/366 154/238/378 153/239/375 149/262/363
f 151/131/369 155/130/380 154/87/376 150/88/365
f 152/33/371 156/38/382 155/37/379 151/34/368
f 158/118/390 162/2/406 161/1/402 157/119/386
f 160/10/398 164/391/413 163/390/409 159/9/394
f 296/428/760 300/31/772 299/32/769 295/427/757
f 298/19/765 302/425/776 301/426/773 297/20/762
g cube1_sep4_saraf
usemtl saraf
f 175/171/457 181/200/474 182/166/476 176/138/460
f 176/106/458 177/97/461 178/95/464 179/101/467 180/111/470 175/114/455
f 176/138/459 182/166/475 183/132/478 177/123/463
f 177/123/462 183/132/477 184/122/480 178/117/466
f 178/117/465 184/122/479 185/116/482 179/115/469
f 179/115/468 185/116/481 186/113/484 180/107/472
f 180/107/471 186/113/483 181/105/473 175/102/456
f 187/171/487 193/200/504 194/166/506 188/138/490
f 188/106/488 189/97/491 190/95/494 191/101/497 192/111/500 187/114/485
f 188/138/489 194/166/505 195/132/508 189/123/493
f 189/123/492 195/132/507 196/122/510 190/117/496
f 190/117/495 196/122/509 197/116/512 191/115/499
f 191/115/498 197/116/511 198/113/514 192/107/502
f 192/107/501 198/113/513 193/105/503 187/102/486
f 199/171/517 205/200/534 206/166/536 200/138/520
f 200/106/518 201/97/521 202/95/524 203/101/527 204/111/530 199/114/515
f 200/138/519 206/166/535 207/132/538 201/123/523
f 201/123/522 207/132/537 208/122/540 202/117/526
f 202/117/525 208/122/539 209/116/542 203/115/529
f 203/115/528 209/116/541 210/113/544 204/107/532
f 204/107/531 210/113/543 205/105/533 199/102/516
f 211/171/547 217/200/564 218/166/566 212/138/550
f 212/106/548 213/97/551 214/95/554 215/101/557 216/111/560 211/114/545
f 212/138/549 218/166/565 219/132/568 213/123/553
f 213/123/552 219/132/567 220/122/570 214/117/556
f 214/117/555 220/122/569 221/116/572 215/115/559
f 215/115/558 221/116/571 222/113/574 216/107/562
f 216/107/561 222/113/573 217/105/563 211/102/546
f 223/171/577 229/200/594 230/166/596 224/138/580
f 224/106/578 225/97/581 226/95/584 227/101/587 228/111/590 223/114/575
f 224/138/579 230/166/595 231/132/598 225/123/583
f 225/123/582 231/132/597 232/122/600 226/117/586
f 226/117/585 232/122/599 233/116/602 227/115/589
f 227/115/588 233/116/601 234/113/604 228/107/592
f 228/107/591 234/113/603 229/105/593 223/102/576
f 235/114/605 240/111/620 239/101/617 238/95/614 237/97/611 236/106/608
f 235/102/606 241/105/623 246/113/633 240/107/621
f 236/138/610 242/166/626 241/200/624 235/171/607
f 237/123/613 243/132/628 242/166/625 236/138/609
f 238/117/616 244/122/630 243/132/627 237/123/612
f 239/115/619 245/116/632 244/122/629 238/117/615
f 240/107/622 246/113/634 245/116/631 239/115/618
f 247/114/635 252/111/650 251/101/647 250/95/644 249/97/641 248/106/638
f 247/102/636 253/105/653 258/113/663 252/107/651
f 248/138/640 254/166/656 253/200/654 247/171/637
f 249/123/643 255/132/658 254/166/655 248/138/639
f 250/117/646 256/122/660 255/132/657 249/123/642
f 251/115/649 257/116/662 256/122/659 250/117/645
f 252/107/652 258/113/664 257/116/661 251/115/648
f 259/114/665 264/111/680 263/101/677 262/95/674 261/97/671 260/106/668
f 259/102/666 265/105/683 270/113/693 264/107/681
f 260/138/670 266/166/686 265/200/684 259/171/667
f 261/123/673 267/132/688 266/166/685 260/138/669
f 262/117/676 268/122/690 267/132/687 261/123/672
f 263/115/679 269/116/692 268/122/689 262/117/675
f 264/107/682 270/113/694 269/116/691 263/115/678
f 271/114/695 276/111/710 275/101/707 274/95/704 273/97/701 272/106/698
f 271/102/696 277/105/713 282/113/723 276/107/711
f 272/138/700 278/166/716 277/200/714 271/171/697
f 273/123/703 279/132/718 278/166/715 272/138/699
f 274/117/706 280/122/720 279/132/717 273/123/702
f 275/115/709 281/116/722 280/122/719 274/117/705
f 276/107/712 282/113/724 281/116/721 275/115/708
f 283/114/725 288/111/740 287/101/737 286/95/734 285/97/731 284/106/728
f 283/102/726 289/105/743 294/113/753 288/107/741
f 284/138/730 290/166/746 289/200/744 283/171/727
f 285/123/733 291/132/748 290/166/745 284/138/729
f 286/117/736 292/122/750 291/132/747 285/123/732
f 287/115/739 293/116/752 292/122/749 286/117/735
f 288/107/742 294/113/754 293/116/751 287/115/738
g cube1_sep4_woody
usemtl woody
f 2/5/5 6/6/16 7/18/20 3/17/8 12/16/34 16/15/46 15/14/43 11/11/32
f 2/82/4 11/63/31 9/64/25 1/83/1
f 5/134/14 8/304/24 7/308/21 6/139/17
f 9/86/26 13/81/37 14/73/40 10/71/28 4/69/11 8/68/23 5/93/13 1/94/2
f 17/85/50 21/84/61 24/59/71 20/60/59 26/61/76 29/70/85 25/79/74
f 17/24/49 25/29/73 27/30/79 18/23/52
f 19/58/57 28/52/84 26/51/78 20/57/60
f 22/221/65 23/99/69 24/100/72 21/224/62
f 27/394/80 30/404/88 28/418/82 19/424/56 23/423/68 22/377/64 18/381/53
f 31/358/92 38/372/105 37/396/102 35/403/98 32/362/93
f 33/352/94 36/271/99 39/279/107 40/336/110 34/342/95
f 41/317/114 48/325/127 47/376/124 45/380/120 42/319/115
f 43/343/116 46/281/121 49/273/129 50/332/132 44/349/117
f 52/347/137 55/280/142 57/272/146 58/334/149 51/344/136
f 54/207/139 60/215/154 59/248/151 56/255/143 53/205/138
f 61/322/158 68/328/171 67/369/168 65/374/164 62/318/159
f 63/364/160 66/314/165 69/310/173 70/353/176 64/367/161
f 72/415/181 75/382/186 77/383/190 78/407/193 71/414/180
f 74/363/183 80/373/198 79/399/195 76/402/187 73/356/182
f 81/357/202 88/379/215 87/401/212 85/397/208 82/359/203
f 83/348/204 86/274/209 89/275/217 90/335/220 84/346/205
f 91/320/224 98/330/241 97/370/238 95/365/233 92/315/226
f 93/345/227 96/278/234 99/276/243 100/333/246 94/341/229
f 102/247/251 105/172/256 107/206/260 108/240/263 101/249/250
f 104/361/253 110/368/268 109/398/265 106/400/257 103/360/252
f 112/244/273 115/180/278 117/176/282 118/241/285 111/252/272
f 114/282/275 120/294/290 119/351/287 116/350/279 113/284/274
f 122/410/295 125/387/300 127/384/304 128/406/307 121/412/294
f 124/323/297 130/326/312 129/371/309 126/366/301 123/321/296
f 132/413/317 135/385/322 137/386/326 138/405/329 131/411/316
f 134/316/319 140/327/334 139/378/331 136/375/323 133/324/318
f 141/422/337 144/429/346 143/430/343 142/421/340
f 146/420/353 147/309/357 148/311/360 145/419/350
f 149/26/361 152/49/370 151/50/367 150/25/364
f 154/46/377 155/21/381 156/22/384 153/45/374
f 157/98/385 160/217/397 159/219/393 158/96/389
f 157/90/387 166/80/421 165/76/417 160/62/399
f 158/329/392 169/388/434 172/389/446 162/331/408
f 159/417/395 170/393/437 169/388/433 158/329/391
f 160/62/400 165/76/418 173/77/449 168/72/430 164/65/416
f 161/89/403 167/78/425 166/80/422 157/90/388
f 162/307/405 163/135/410 164/137/414 161/305/401
f 162/331/407 172/389/445 171/395/442 163/416/412
f 163/416/411 171/395/441 174/392/452 170/393/438 159/417/396
f 164/65/415 168/72/429 167/78/426 161/89/404
f 295/133/755 298/306/764 297/303/761 296/136/758
f 295/237/756 299/236/767 302/112/777 298/110/766
f 297/75/763 301/74/774 300/56/770 296/55/759
f 300/312/771 301/143/775 302/144/778 299/313/768
