# Exported from Wings 3D 1.0.2
mtllib ShelvesSmall.mtl
o cube1_sep49
#184 vertices, 107 faces
v -0.94610423 1.82006239 4.66619738
v -0.93970634 2.04000248 4.68586458
v 0.58755539 2.05851025 4.71997912
v 0.59131154 1.83083212 4.71741565
v -0.79595442 1.81986092 -3.95353919
v -0.78853570 2.05128544 -3.95004809
v 0.73072000 2.05088663 -3.90580553
v 0.73374436 1.83194438 -3.89554059
v -0.68928484 1.82365230 4.68327014
v -0.17681292 1.82724221 4.70034289
v -0.68627163 2.04617174 4.69723609
v -0.17718439 2.05234099 4.70860760
v -0.32937737 1.82544726 3.83612788
v -0.32805650 2.04925637 3.84724321
v 0.13740975 1.82388874 -3.90884031
v 0.48618107 1.82791656 -3.88950744
v 0.14010313 2.05115250 -3.90993455
v 0.48649343 2.05101956 -3.89518703
v 0.32123566 1.82590265 -3.37379622
v 0.32273852 2.05108603 -3.37718313
v -0.95774440 -3.32909376 -3.48382128
v -0.97550839 2.22552841 -3.71556862
v 0.76716904 2.22551931 -3.71618604
v 0.76360243 -3.32909676 -3.48402445
v -0.96132380 -3.33306739 -3.75356374
v -0.97957584 2.22155288 -3.98544055
v 0.76334207 2.22154747 -3.98580738
v 0.75385974 -3.33307646 -3.75417961
v -0.88864662 -1.26329733 -3.71137701
v -0.87593788 -1.04211710 -3.73425160
v 0.64867519 -1.03880016 -3.68429989
v 0.65519823 -1.27035391 -3.69097438
v -0.94347598 -1.26744346 4.53959424
v -0.95105991 -1.04489291 4.55205572
v 0.58377353 -1.03417606 4.57723443
v 0.57589132 -1.25950686 4.56901185
v -0.56356732 -1.26479793 4.55129971
v 0.19598570 -1.26215240 4.55730634
v -0.56729277 -1.04132062 4.56236768
v 0.20000334 -1.03774834 4.56692251
v -0.11593214 -1.26391608 3.90662295
v 0.13725220 -1.26303424 3.90862516
v -0.11707656 -1.04012986 3.91720699
v 0.13868881 -1.03893910 3.91872526
v -0.24441780 -1.26347516 3.56425339
v -0.24427171 -1.03953448 3.57459546
v -0.95774440 -3.34496100 4.72461410
v -0.97550839 2.21136821 4.72456701
v 0.76716904 2.21136821 4.72394940
v 0.76360243 -3.34496100 4.72441087
v -0.96132380 -3.34496100 4.45478877
v -0.97957584 2.21136821 4.45461217
v 0.76334207 2.21136821 4.45424523
v 0.75385974 -3.34496100 4.45417271
v 1.6399255e-2 2.21136821 4.72436114
v 0.35896434 2.21136821 4.72415527
v 1.4389661e-2 2.21136821 4.45448986
v 0.35699514 2.21136821 4.45436754
v 0.21257943 -1.53878105 4.72425821
v 0.21059004 -1.53878105 4.45442870
v 0.19451374 1.76748801 4.72430967
v 0.19251425 1.76748801 4.45445928
v 0.22197430 -2.10219939 -3.59867481
v 0.21788375 -1.24648820 -3.60141462
v 0.42289104 -1.21170018 -3.56491241
v 0.41585071 -2.13514617 -3.60385112
v 0.20394345 -1.23836160 -2.65791893
v 0.44570462 -1.24377433 -2.75844272
v 0.19248692 -1.42286063 -2.67202224
v 0.25157698 -2.11670179 -3.47500249
v 0.43982946 -1.40015106 -2.69112939
v 0.44470717 -2.13312068 -3.40557494
v -0.58140203 0.94244104 4.56085828
v -0.64323201 1.81087260 4.44365582
v -0.37279003 1.84230223 4.43493895
v -0.38117087 0.99922051 4.46423292
v -0.60659392 1.81465644 3.63909480
v -0.38372049 1.84112483 3.63947537
v -0.55002088 1.65765852 3.63128004
v -0.57146509 0.97648529 4.42357530
v -0.40379278 1.67309528 3.63530051
v -0.35437063 0.96261724 4.37277853
v 0.28009698 0.97045221 4.49715052
v 0.25100867 1.85034390 4.45914715
v 0.41933548 1.83893351 4.48169588
v 0.40282333 0.97770793 4.46344669
v 0.16313818 1.79430848 3.68757906
v 0.46177007 1.85581710 3.66904045
v 0.22585652 1.66271393 3.65148592
v 0.20546075 1.01743562 4.35870957
v 0.44428604 1.70142091 3.63325975
v 0.43893981 0.95858400 4.36945466
v -0.60541441 1.00976452 -3.75693615
v -0.53837090 1.87734086 -3.72789885
v -0.38464868 1.86952124 -3.79369220
v -0.34601630 1.01155296 -3.71887793
v -0.59236179 1.83273522 -2.84903014
v -0.36626650 1.84681787 -2.84465950
v -0.57486165 1.73660607 -2.91636562
v -0.59636791 0.96418388 -3.60672956
v -0.37315938 1.72630528 -2.90063657
v -0.35751895 0.94957874 -3.61144443
v -0.60541441 -2.08089539 -3.57160557
v -0.53837090 -1.21331905 -3.54256827
v -0.38464868 -1.22113866 -3.60836162
v -0.34601630 -2.07910695 -3.53354735
v -0.59236179 -1.25792468 -2.66369956
v -0.36626650 -1.24384203 -2.65932892
v -0.57486165 -1.35405383 -2.73103504
v -0.59636791 -2.12647602 -3.42139898
v -0.37315938 -1.36435463 -2.71530599
v -0.35751895 -2.14108116 -3.42611385
v 0.57114047 2.00509089 -4.06159947
v 0.54127357 1.90490435 -4.06159947
v 0.43957603 1.88067658 -4.06159947
v 0.36774540 1.95663535 -4.06159947
v 0.39761230 2.05682188 -4.06159947
v 0.49930984 2.08104965 -4.06159947
v 0.57114047 2.00509089 -3.97969786
v 0.54127357 1.90490435 -3.97969786
v 0.43957603 1.88067658 -3.97969786
v 0.36774540 1.95663535 -3.97969786
v 0.39761230 2.05682188 -3.97969786
v 0.49930984 2.08104965 -3.97969786
v -0.61019166 2.00509089 -4.06159947
v -0.64005856 1.90490435 -4.06159947
v -0.74175610 1.88067658 -4.06159947
v -0.81358673 1.95663535 -4.06159947
v -0.78371983 2.05682188 -4.06159947
v -0.68202229 2.08104965 -4.06159947
v -0.61019166 2.00509089 -3.97969786
v -0.64005856 1.90490435 -3.97969786
v -0.74175610 1.88067658 -3.97969786
v -0.81358673 1.95663535 -3.97969786
v -0.78371983 2.05682188 -3.97969786
v -0.68202229 2.08104965 -3.97969786
v 0.57114047 -1.11585283 -3.91047527
v 0.54127357 -1.21603936 -3.91047527
v 0.43957603 -1.24026713 -3.91047527
v 0.36774540 -1.16430837 -3.91047527
v 0.39761230 -1.06412183 -3.91047527
v 0.49930984 -1.03989406 -3.91047527
v 0.57114047 -1.11585283 -3.82857366
v 0.54127357 -1.21603936 -3.82857366
v 0.43957603 -1.24026713 -3.82857366
v 0.36774540 -1.16430837 -3.82857366
v 0.39761230 -1.06412183 -3.82857366
v 0.49930984 -1.03989406 -3.82857366
v 0.57114047 -1.11585283 4.80319153
v 0.54127357 -1.21603936 4.80319153
v 0.43957603 -1.24026713 4.80319153
v 0.36774540 -1.16430837 4.80319153
v 0.39761230 -1.06412183 4.80319153
v 0.49930984 -1.03989406 4.80319153
v 0.57114047 -1.11585283 4.72128992
v 0.54127357 -1.21603936 4.72128992
v 0.43957603 -1.24026713 4.72128992
v 0.36774540 -1.16430837 4.72128992
v 0.39761230 -1.06412183 4.72128992
v 0.49930984 -1.03989406 4.72128992
v -0.61019166 -1.11585283 4.80319153
v -0.64005856 -1.21603936 4.80319153
v -0.74175610 -1.24026713 4.80319153
v -0.81358673 -1.16430837 4.80319153
v -0.78371983 -1.06412183 4.80319153
v -0.68202229 -1.03989406 4.80319153
v -0.61019166 -1.11585283 4.72128992
v -0.64005856 -1.21603936 4.72128992
v -0.74175610 -1.24026713 4.72128992
v -0.81358673 -1.16430837 4.72128992
v -0.78371983 -1.06412183 4.72128992
v -0.68202229 -1.03989406 4.72128992
v -0.61019166 1.91479765 4.80319153
v -0.64005856 1.81461111 4.80319153
v -0.74175610 1.79038334 4.80319153
v -0.81358673 1.86634211 4.80319153
v -0.78371983 1.96652864 4.80319153
v -0.68202229 1.99075641 4.80319153
v -0.61019166 1.91479765 4.72128992
v -0.64005856 1.81461111 4.72128992
v -0.74175610 1.79038334 4.72128992
v -0.81358673 1.86634211 4.72128992
v -0.78371983 1.96652864 4.72128992
v -0.68202229 1.99075641 4.72128992
vt -0.23633522 0.74836991
vt -0.23600229 0.71883722
vt -5.3624601e-2 0.64938849
vt -5.2975322e-2 0.66520547
vt -5.1904628e-2 0.63597144
vt -5.0644456e-2 0.62067096
vt -2.1062580e-2 0.97142961
vt -3.0710845e-3 0.47990633
vt -2.6186628e-3 0.50993632
vt -2.5835078e-3 -0.14562304
vt 1.1049262e-2 0.97064736
vt 3.2443629e-2 0.90376255
vt 5.6285610e-2 0.97315503
vt 8.1467469e-2 1.07043382
vt 9.1753656e-2 -8.3876269e-4
vt 9.7039065e-2 -0.14340856
vt 0.11682643 -3.1324521e-2
vt 0.14102636 6.7984356e-4
vt 0.14864356 8.4810075e-2
vt 0.16350470 -0.14119432
vt 0.16565046 0.57525513
vt 0.16617767 0.54025045
vt 0.16908532 -0.13073202
vt 0.17733889 0.97895243
vt 0.17883399 0.94395656
vt 0.18148028 8.5069726e-2
vt 0.19681597 -0.13897962
vt 0.19814385 0.12947318
vt 0.21885995 -0.13207013
vt 0.23953568 1.4586864e-3
vt 0.26075490 -3.9610786e-3
vt 0.27725064 -4.8396269e-2
vt 0.28159878 0.54028185
vt 0.28169717 1.07307963
vt 0.28286235 0.57533034
vt 0.28880879 2.9770186e-3
vt 0.30801621 0.65313378
vt 0.31032011 -6.7898827e-2
vt 0.31042269 -4.8592992e-2
vt 0.31837544 -0.13266070
vt 0.36815047 -0.13399840
vt 0.37656838 0.93747742
vt 0.38347160 0.35964268
vt 0.38429399 0.38965644
vt 0.39169760 0.57530294
vt 0.39219428 0.54033053
vt 0.39550613 0.54028355
vt 0.39676971 0.57532508
vt 0.40073232 0.49812590
vt 0.40125871 0.46311430
vt 0.40267751 0.52614615
vt 0.40272011 0.51213199
vt 0.40305697 0.48265728
vt 0.40422014 0.51334481
vt 0.40457008 0.49728938
vt 0.40569716 0.54237037
vt 0.42343161 0.36134944
vt 0.42795169 0.34899954
vt 0.43032156 0.51458090
vt 0.43362673 0.49302655
vt 0.43662723 0.46496282
vt 0.44206300 0.51131333
vt 0.44375928 0.49077596
vt 0.44390565 0.44932766
vt 0.44423652 0.35560978
vt 0.44484255 0.46468599
vt 0.44667434 0.43572058
vt 0.45125116 0.34437348
vt 0.45188121 0.35701949
vt 0.45252540 0.49164609
vt 0.45583507 0.33918702
vt 0.45913000 0.51212879
vt 0.46755184 0.34198213
vt 0.47206932 0.48567273
vt 0.47473562 0.36194307
vt 0.47534365 0.17932305
vt 0.48067132 0.50307150
vt 0.48184604 0.46409642
vt 0.48193687 0.49317177
vt 0.48482198 0.15618950
vt 0.48521122 0.51391515
vt 0.48546308 0.47892459
vt 0.48583541 0.54213014
vt 0.48594668 0.49807494
vt 0.48648098 0.52721032
vt 0.48682326 0.51322351
vt 0.49063873 0.19909831
vt 0.49266366 0.11538792
vt 0.50484859 0.54025549
vt 0.50531282 0.57525044
vt 0.50616526 0.10119994
vt 0.50959539 0.15283120
vt 0.51077397 0.13262209
vt 0.51526303 0.54408039
vt 0.51541214 0.19574000
vt 0.51589464 4.8686711e-2
vt 0.51649045 -0.17695309
vt 0.51803748 0.51346941
vt 0.51911252 0.54266343
vt 0.52229049 0.52810069
vt 0.52326919 0.51213011
vt 0.52393014 0.49908409
vt 0.52424522 0.48211329
vt 0.52427557 0.11843411
vt 0.52484819 0.47824980
vt 0.52489047 0.17260645
vt 0.52605112 0.58576054
vt 0.52674143 0.56963677
vt 0.52765810 0.50185076
vt 0.52888429 0.14985626
vt 0.52913472 0.41599587
vt 0.52944909 0.43323255
vt 0.52964335 0.49814206
vt 0.52990520 0.46314100
vt 0.52993099 0.32719968
vt 0.53356993 -6.7898116e-2
vt 0.53403251 0.65313594
vt 0.53525395 0.49848612
vt 0.53551761 1.16871073
vt 0.53563080 0.54266850
vt 0.53598570 0.34858447
vt 0.53599947 0.34244491
vt 0.53611228 0.51364715
vt 0.53625843 0.52772515
vt 0.53791056 0.51392788
vt 0.53840689 0.47894908
vt 0.53894862 0.54377670
vt 0.53897197 -0.17685431
vt 0.54238588 0.13566827
vt 0.54330084 0.58576054
vt 0.54399114 0.56963677
vt 0.54478511 0.41749359
vt 0.54520251 0.43312604
vt 0.54558444 0.46155151
vt 0.54563996 0.44612979
vt 0.54619076 0.63892997
vt 0.54623079 0.60971739
vt 0.54638443 0.41599587
vt 0.54669880 0.43323255
vt 0.54686481 0.46617181
vt 0.54699460 0.16709043
vt 0.54774914 0.45252685
vt 0.54845445 0.43715872
vt 0.54849137 0.46604354
vt 0.54868087 0.49513633
vt 0.54877322 4.7210970e-2
vt 0.54997893 0.35663710
vt 0.55059547 0.33943100
vt 0.55484722 0.32329402
vt 0.55569069 0.43375649
vt 0.55677279 0.47915249
vt 0.55770825 0.56799590
vt 0.55837365 0.41861771
vt 0.55965824 0.46795716
vt 0.55992956 0.58824600
vt 0.56049620 0.15290244
vt 0.56120643 0.50053705
vt 0.56179811 0.34802434
vt 0.56196126 0.64546834
vt 0.56210190 0.70749900
vt 0.56211538 0.21665591
vt 0.56510491 0.18432460
vt 0.56693049 0.34043895
vt 0.56955001 0.45102131
vt 0.57264612 0.44968084
vt 0.57294040 0.43375649
vt 0.57361541 0.60605338
vt 0.57378299 0.54567727
vt 0.57396434 0.54377499
vt 0.57397000 -0.17685582
vt 0.57495797 0.56799590
vt 0.57512363 0.56725596
vt 0.57562337 0.41861771
vt 0.57717928 0.58824600
vt 0.57728756 0.46152224
vt 0.57731757 0.43257911
vt 0.57816179 0.41812317
vt 0.57853714 0.44703779
vt 0.57860651 0.17013661
vt 0.57990631 0.73441283
vt 0.57991423 0.24766729
vt 0.57992454 0.43404569
vt 0.58076493 0.39870099
vt 0.58124888 0.50945901
vt 0.58189489 0.38952932
vt 0.58230812 0.62634789
vt 0.58321523 0.20155876
vt 0.58350033 0.36072381
vt 0.59523065 0.15745075
vt 0.59671682 0.18737078
vt 0.59696042 0.64548180
vt 0.59710378 0.70751293
vt 0.59711182 0.21666935
vt 0.59720765 0.39668250
vt 0.60030692 0.60987116
vt 0.60132554 0.21879293
vt 0.60160678 0.63893593
vt 0.61479953 4.5736807e-2
vt 0.61482714 0.20460495
vt 0.61489732 0.73442279
vt 0.61491068 0.24767735
vt 0.61875595 0.54025720
vt 0.61922018 0.57524520
vt 0.64537997 0.63976533
vt 0.64587262 0.61023614
vt 0.65595616 1.16350727
vt 0.66623091 0.51107784
vt 0.66972372 0.54348200
vt 0.67200459 0.33330249
vt 0.67370613 0.38887198
vt 0.67514073 0.35985010
vt 0.67711802 0.45841950
vt 0.67935344 0.56680795
vt 0.67964226 1.09441259
vt 0.68478079 0.61004808
vt 0.68599782 0.34135513
vt 0.68604897 0.63915562
vt 0.68686922 0.63053167
vt 0.69219909 0.51085971
vt 0.69497548 0.45419808
vt 0.69567713 0.45267519
vt 0.69955628 0.66378545
vt 0.69980043 -0.17692723
vt 0.70088041 1.16159437
vt 0.70153528 0.48635542
vt 0.70186018 -5.6841818e-2
vt 0.70283469 -0.17640253
vt 0.70338344 0.51027993
vt 0.70472871 0.54399621
vt 0.71398467 4.4261225e-2
vt 0.72110373 0.38927247
vt 0.72256549 0.36023506
vt 0.72730803 0.33976055
vt 0.72730803 0.40013213
vt 0.72913357 0.56906754
vt 0.72937363 0.51989415
vt 0.73138935 0.45768650
vt 0.73149459 0.51282979
vt 0.73149459 0.45245821
vt 0.73255507 1.16297143
vt 0.73296301 0.54397921
vt 0.73315028 0.62893881
vt 0.73388558 0.59854306
vt 0.73436061 0.62774753
vt 0.73478773 -0.17641310
vt 0.73789389 -0.17692254
vt 0.73894213 -0.17695435
vt 0.74130931 0.54407744
vt 0.74170628 0.51517865
vt 0.74442705 0.45531033
vt 0.74613485 0.42862990
vt 0.74680927 0.33388843
vt 0.74680927 0.39426001
vt 0.74736466 -0.29199737
vt 0.76793419 0.54346428
vt 0.77195502 0.62727163
vt 0.77269687 0.59834005
vt 0.77666700 0.60641676
vt 0.78093973 0.62513341
vt 0.79883596 0.42862990
vt 0.80725902 0.59797560
vt 0.80740112 0.62745336
vt 0.81782394 -5.7745140e-2
vt 0.82016828 0.37106092
vt 0.82820159 0.66378545
vt 0.83433499 0.57206070
vt 0.83603879 0.62950146
vt 0.83661481 0.49400813
vt 0.83661481 0.43363655
vt 0.83676619 0.60762050
vt 0.83899532 0.55197714
vt 0.84241958 0.62733810
vt 0.84291414 0.59812983
vt 0.84327012 0.42862990
vt 0.84552213 0.50653470
vt 0.84552213 0.44616312
vt 0.85130212 0.60621648
vt 0.85364516 0.17741042
vt 0.86534061 0.52202434
vt 0.87263052 0.66378545
vt 0.88041710 0.62836589
vt 0.88120629 0.71869579
vt 0.88253819 0.74709415
vt 0.88538851 0.51582755
vt 0.92511000 -5.6841818e-2
vt 0.92557258 0.66378545
vt 0.96981514 -0.29199737
vt 0.97218233 0.42862990
vt 0.97353044 -0.17684845
vt 0.97359992 0.54375743
vt 1.00858164 0.54375705
vt 1.00860065 -0.17684973
vt 1.01828160 0.66463332
vt 1.01893590 0.62005277
vt 1.01914048 0.63459670
vt 1.02056940 0.64891799
vt 1.11503359 0.47931921
vt 1.11758514 0.50785629
vn -5.4082730e-2 -7.4540699e-2 0.99575034
vn 7.4123295e-3 -0.99997244 4.1863844e-4
vn -0.99935222 3.1485226e-2 -1.7430602e-2
vn -5.4082730e-2 -7.4540699e-2 0.99575034
vn -5.8914121e-3 0.99998264 -1.0037785e-4
vn -0.99935222 3.1485226e-2 -1.7430602e-2
vn 0.99974334 1.5463444e-2 1.6557093e-2
vn -5.8914121e-3 0.99998264 -1.0037785e-4
vn -1.8394513e-2 -2.4071765e-2 0.99954099
vn 0.99974334 1.5463444e-2 1.6557093e-2
vn 7.4123295e-3 -0.99997244 4.1863844e-4
vn -1.8394513e-2 -2.4071765e-2 0.99954099
vn 7.4123295e-3 -0.99997244 4.1863844e-4
vn 4.5492637e-2 4.2170869e-3 -0.99895577
vn -0.99935222 3.1485226e-2 -1.7430602e-2
vn -5.8914121e-3 0.99998264 -1.0037785e-4
vn 4.5492637e-2 4.2170869e-3 -0.99895577
vn -0.99935222 3.1485226e-2 -1.7430602e-2
vn 0.99974334 1.5463444e-2 1.6557093e-2
vn -5.8914121e-3 0.99998264 -1.0037785e-4
vn -3.3531034e-2 -3.6231629e-2 -0.99878073
vn 0.99974334 1.5463444e-2 1.6557093e-2
vn 7.4123295e-3 -0.99997244 4.1863844e-4
vn -3.3531034e-2 -3.6231629e-2 -0.99878073
vn -5.4082730e-2 -7.4540699e-2 0.99575034
vn 7.4123295e-3 -0.99997244 4.1863844e-4
vn 0.92054125 -3.0822681e-2 0.38942749
vn 7.4123295e-3 -0.99997244 4.1863844e-4
vn -0.98487169 -5.3944436e-3 0.17320119
vn -1.8394513e-2 -2.4071765e-2 0.99954099
vn -5.4082730e-2 -7.4540699e-2 0.99575034
vn -5.8914121e-3 0.99998264 -1.0037785e-4
vn 0.92054125 -3.0822681e-2 0.38942749
vn -5.8914121e-3 0.99998264 -1.0037785e-4
vn -0.98487169 -5.3944436e-3 0.17320119
vn -1.8394513e-2 -2.4071765e-2 0.99954099
vn 7.4123295e-3 -0.99997244 4.1863844e-4
vn -0.98487169 -5.3944436e-3 0.17320119
vn 0.92054125 -3.0822681e-2 0.38942749
vn -5.8914121e-3 0.99998264 -1.0037785e-4
vn -0.98487169 -5.3944436e-3 0.17320119
vn 0.92054125 -3.0822681e-2 0.38942749
vn 7.4123295e-3 -0.99997244 4.1863844e-4
vn 4.5492637e-2 4.2170869e-3 -0.99895577
vn 0.94578684 -1.1986349e-2 -0.32456676
vn 7.4123295e-3 -0.99997244 4.1863844e-4
vn -0.95297775 -2.2699174e-3 -0.30303176
vn -3.3531034e-2 -3.6231629e-2 -0.99878073
vn -5.8914121e-3 0.99998264 -1.0037785e-4
vn 4.5492637e-2 4.2170869e-3 -0.99895577
vn 0.94578684 -1.1986349e-2 -0.32456676
vn -5.8914121e-3 0.99998264 -1.0037785e-4
vn -0.95297775 -2.2699174e-3 -0.30303176
vn -3.3531034e-2 -3.6231629e-2 -0.99878073
vn 7.4123295e-3 -0.99997244 4.1863844e-4
vn -0.95297775 -2.2699174e-3 -0.30303176
vn 0.94578684 -1.1986349e-2 -0.32456676
vn -5.8914121e-3 0.99998264 -1.0037785e-4
vn -0.95297775 -2.2699174e-3 -0.30303176
vn 0.94578684 -1.1986349e-2 -0.32456676
vn 2.3682816e-4 4.1722781e-2 0.99912920
vn -1.1966274e-16 -0.99989151 1.4729575e-2
vn -0.99989555 -2.6486845e-3 1.4208477e-2
vn 2.3682816e-4 4.1722781e-2 0.99912920
vn 0.0000000e+0 0.99989151 -1.4729575e-2
vn -0.99989555 -2.6486845e-3 1.4208477e-2
vn 2.3682816e-4 4.1722781e-2 0.99912920
vn 0.99968251 -2.2220516e-3 -2.5098681e-2
vn 0.0000000e+0 0.99989151 -1.4729575e-2
vn 2.3682816e-4 4.1722781e-2 0.99912920
vn 0.99968251 -2.2220516e-3 -2.5098681e-2
vn -1.1966274e-16 -0.99989151 1.4729575e-2
vn -1.1966274e-16 -0.99989151 1.4729575e-2
vn -2.8410096e-4 -4.1686378e-2 -0.99913070
vn -0.99989555 -2.6486845e-3 1.4208477e-2
vn 0.0000000e+0 0.99989151 -1.4729575e-2
vn -2.8410096e-4 -4.1686378e-2 -0.99913070
vn -0.99989555 -2.6486845e-3 1.4208477e-2
vn 0.99968251 -2.2220516e-3 -2.5098681e-2
vn 0.0000000e+0 0.99989151 -1.4729575e-2
vn -2.8410096e-4 -4.1686378e-2 -0.99913070
vn 0.99968251 -2.2220516e-3 -2.5098681e-2
vn -1.1966274e-16 -0.99989151 1.4729575e-2
vn -2.8410096e-4 -4.1686378e-2 -0.99913070
vn 2.2863381e-2 -3.6062573e-2 -0.99908796
vn 1.8388892e-4 -0.99999990 4.0169932e-4
vn -0.99990459 1.1363988e-2 -7.8525825e-3
vn 2.2863381e-2 -3.6062573e-2 -0.99908796
vn -4.5812337e-3 0.99998950 -1.2973671e-4
vn -0.99990459 1.1363988e-2 -7.8525825e-3
vn 2.2863381e-2 -3.6062573e-2 -0.99908796
vn 0.99995657 -3.2594350e-3 8.7312025e-3
vn -4.5812337e-3 0.99998950 -1.2973671e-4
vn 2.2863381e-2 -3.6062573e-2 -0.99908796
vn 0.99995657 -3.2594350e-3 8.7312025e-3
vn 1.8388892e-4 -0.99999990 4.0169932e-4
vn 1.8388892e-4 -0.99999990 4.0169932e-4
vn -2.8343576e-2 -5.3375564e-2 0.99817217
vn -0.99990459 1.1363988e-2 -7.8525825e-3
vn -4.5812337e-3 0.99998950 -1.2973671e-4
vn -2.8343576e-2 -5.3375564e-2 0.99817217
vn -0.99990459 1.1363988e-2 -7.8525825e-3
vn 0.99995657 -3.2594350e-3 8.7312025e-3
vn -4.5812337e-3 0.99998950 -1.2973671e-4
vn -2.8480928e-2 -3.8865350e-2 0.99883849
vn 0.99995657 -3.2594350e-3 8.7312025e-3
vn 1.8388892e-4 -0.99999990 4.0169932e-4
vn -2.8480928e-2 -3.8865350e-2 0.99883849
vn 1.8388892e-4 -0.99999990 4.0169932e-4
vn -2.8343576e-2 -5.3375564e-2 0.99817217
vn 0.82060453 -1.8716410e-2 0.57118990
vn 1.8388892e-4 -0.99999990 4.0169932e-4
vn -0.99571188 8.0576807e-3 9.2157100e-2
vn -2.8480928e-2 -3.8865350e-2 0.99883849
vn -4.5812337e-3 0.99998950 -1.2973671e-4
vn -2.8343576e-2 -5.3375564e-2 0.99817217
vn 0.82060453 -1.8716410e-2 0.57118990
vn -4.5812337e-3 0.99998950 -1.2973671e-4
vn -0.99571188 8.0576807e-3 9.2157100e-2
vn -2.8480928e-2 -3.8865350e-2 0.99883849
vn 1.8388892e-4 -0.99999990 4.0169932e-4
vn 0.93671191 1.8429194e-2 -0.34961573
vn 0.82060453 -1.8716410e-2 0.57118990
vn 1.8388892e-4 -0.99999990 4.0169932e-4
vn -0.99571188 8.0576807e-3 9.2157100e-2
vn -0.66878786 -3.1527922e-2 0.74278448
vn -4.5812337e-3 0.99998950 -1.2973671e-4
vn 0.93671191 1.8429194e-2 -0.34961573
vn 0.82060453 -1.8716410e-2 0.57118990
vn -4.5812337e-3 0.99998950 -1.2973671e-4
vn -0.99571188 8.0576807e-3 9.2157100e-2
vn -0.66878786 -3.1527922e-2 0.74278448
vn 1.8388892e-4 -0.99999990 4.0169932e-4
vn 0.93671191 1.8429194e-2 -0.34961573
vn -0.66878786 -3.1527922e-2 0.74278448
vn -4.5812337e-3 0.99998950 -1.2973671e-4
vn 0.93671191 1.8429194e-2 -0.34961573
vn -0.66878786 -3.1527922e-2 0.74278448
vn 2.1226537e-4 3.4133241e-5 0.99999998
vn 0.0000000e+0 -1.00000000 0.0000000e+0
vn -0.99989442 -3.2403643e-3 1.4165092e-2
vn 2.1226537e-4 3.4133241e-5 0.99999998
vn 0.0000000e+0 1.00000000 0.0000000e+0
vn -0.99989442 -3.2403643e-3 1.4165092e-2
vn 2.1226537e-4 3.4133241e-5 0.99999998
vn 0.99968366 -1.1747495e-3 -2.5123726e-2
vn 5.0528314e-16 1.00000000 0.0000000e+0
vn 2.1226537e-4 3.4133241e-5 0.99999998
vn 0.99968366 -1.1747495e-3 -2.5123726e-2
vn 0.0000000e+0 -1.00000000 0.0000000e+0
vn 0.0000000e+0 -1.00000000 0.0000000e+0
vn -2.7501865e-4 -1.7605111e-6 -0.99999996
vn -0.99989442 -3.2403643e-3 1.4165092e-2
vn 0.0000000e+0 1.00000000 0.0000000e+0
vn -2.7501865e-4 -1.7605111e-6 -0.99999996
vn -0.99989442 -3.2403643e-3 1.4165092e-2
vn 0.99968366 -1.1747495e-3 -2.5123726e-2
vn -2.7501865e-4 -1.7605111e-6 -0.99999996
vn 5.0528314e-16 1.00000000 0.0000000e+0
vn 0.99968366 -1.1747495e-3 -2.5123726e-2
vn 0.0000000e+0 -1.00000000 0.0000000e+0
vn -2.7501865e-4 -1.7605111e-6 -0.99999996
vn 2.1226537e-4 3.4133241e-5 0.99999998
vn 0.0000000e+0 1.00000000 0.0000000e+0
vn 0.92804474 0.37240494 -6.8935748e-3
vn 2.1226537e-4 3.4133241e-5 0.99999998
vn -0.99921207 3.9006516e-2 7.3301327e-3
vn 5.0528314e-16 1.00000000 0.0000000e+0
vn 0.0000000e+0 1.00000000 0.0000000e+0
vn -2.7501865e-4 -1.7605111e-6 -0.99999996
vn 0.92804474 0.37240494 -6.8935748e-3
vn -2.7501865e-4 -1.7605111e-6 -0.99999996
vn -0.99921207 3.9006516e-2 7.3301327e-3
vn 5.0528314e-16 1.00000000 0.0000000e+0
vn 2.1226537e-4 3.4133241e-5 0.99999998
vn -0.99921207 3.9006516e-2 7.3301327e-3
vn 0.99995775 5.4654601e-3 -7.3908950e-3
vn -2.7501865e-4 -1.7605111e-6 -0.99999996
vn -0.99921207 3.9006516e-2 7.3301327e-3
vn 0.99995775 5.4654601e-3 -7.3908950e-3
vn 2.1226537e-4 3.4133241e-5 0.99999998
vn 0.98130408 0.19232640 -7.2704307e-3
vn 0.98130408 0.19232640 -7.2704307e-3
vn -2.7501865e-4 -1.7605111e-6 -0.99999996
vn 0.98130408 0.19232640 -7.2704307e-3
vn 0.98130408 0.19232640 -7.2704307e-3
vn -0.12391009 -0.99216523 -1.5951235e-2
vn -0.99973496 -2.2450625e-2 -5.0972786e-3
vn -0.99973496 -2.2450625e-2 -5.0972786e-3
vn 0.99921060 9.0657952e-3 -3.8677968e-2
vn 0.99921060 9.0657952e-3 -3.8677968e-2
vn -0.12391009 -0.99216523 -1.5951235e-2
vn 0.23066712 0.13861124 0.96310934
vn -0.99973496 -2.2450625e-2 -5.0972786e-3
vn 0.99921060 9.0657952e-3 -3.8677968e-2
vn 0.23066712 0.13861124 0.96310934
vn 9.2961795e-2 -0.33596639 0.93727514
vn -0.99973496 -2.2450625e-2 -5.0972786e-3
vn 9.2961795e-2 -0.33596639 0.93727514
vn -0.10320256 -0.92758584 0.35907345
vn -0.99973496 -2.2450625e-2 -5.0972786e-3
vn -0.10320256 -0.92758584 0.35907345
vn 0.99921060 9.0657952e-3 -3.8677968e-2
vn 9.2961795e-2 -0.33596639 0.93727514
vn 9.2961795e-2 -0.33596639 0.93727514
vn 0.99921060 9.0657952e-3 -3.8677968e-2
vn -0.10320256 -0.92758584 0.35907345
vn -0.10320256 -0.92758584 0.35907345
vn 0.11243307 -0.99323106 2.9169610e-2
vn -0.98866762 -0.12009976 -9.0068816e-2
vn -0.98866762 -0.12009976 -9.0068816e-2
vn 0.99994682 8.3276873e-4 -1.0279484e-2
vn 0.99994682 8.3276873e-4 -1.0279484e-2
vn 0.11243307 -0.99323106 2.9169610e-2
vn 7.6326230e-3 3.7717807e-2 -0.99925928
vn -0.98866762 -0.12009976 -9.0068816e-2
vn 0.99994682 8.3276873e-4 -1.0279484e-2
vn 7.6326230e-3 3.7717807e-2 -0.99925928
vn -4.1628646e-2 -0.38652280 -0.92133988
vn -0.98866762 -0.12009976 -9.0068816e-2
vn -4.1628646e-2 -0.38652280 -0.92133988
vn 1.5919638e-2 -0.93772971 -0.34700081
vn -0.98866762 -0.12009976 -9.0068816e-2
vn 1.5919638e-2 -0.93772971 -0.34700081
vn 0.99994682 8.3276873e-4 -1.0279484e-2
vn -4.1628646e-2 -0.38652280 -0.92133988
vn -4.1628646e-2 -0.38652280 -0.92133988
vn 0.99994682 8.3276873e-4 -1.0279484e-2
vn 1.5919638e-2 -0.93772971 -0.34700081
vn 1.5919638e-2 -0.93772971 -0.34700081
vn 3.8461542e-2 1.1614343e-2 0.99919258
vn -0.14861827 -0.98447684 -9.3370006e-2
vn -0.99430292 -2.1052339e-2 0.10449168
vn 3.8461542e-2 1.1614343e-2 0.99919258
vn -0.99430292 -2.1052339e-2 0.10449168
vn 3.8461542e-2 1.1614343e-2 0.99919258
vn 0.99815332 -4.3679279e-3 6.0587707e-2
vn 3.8461542e-2 1.1614343e-2 0.99919258
vn 0.99815332 -4.3679279e-3 6.0587707e-2
vn -0.14861827 -0.98447684 -9.3370006e-2
vn -0.11249942 0.22541555 -0.96774568
vn -0.99430292 -2.1052339e-2 0.10449168
vn 0.99815332 -4.3679279e-3 6.0587707e-2
vn -0.11249942 0.22541555 -0.96774568
vn -8.9702279e-2 -0.28412986 -0.95458039
vn -0.99430292 -2.1052339e-2 0.10449168
vn -8.9702279e-2 -0.28412986 -0.95458039
vn -0.10185899 -0.90329082 -0.41676184
vn -0.99430292 -2.1052339e-2 0.10449168
vn -0.10185899 -0.90329082 -0.41676184
vn 0.99815332 -4.3679279e-3 6.0587707e-2
vn -8.9702279e-2 -0.28412986 -0.95458039
vn -8.9702279e-2 -0.28412986 -0.95458039
vn 0.99815332 -4.3679279e-3 6.0587707e-2
vn -0.10185899 -0.90329082 -0.41676184
vn -0.10185899 -0.90329082 -0.41676184
vn 2.0413590e-3 -0.92282125 -0.38522301
vn -0.99884057 4.3112308e-2 -2.1420564e-2
vn -0.99884057 4.3112308e-2 -2.1420564e-2
vn 0.99976030 2.1657147e-2 3.2108679e-3
vn 0.99976030 2.1657147e-2 3.2108679e-3
vn 2.0413590e-3 -0.92282125 -0.38522301
vn -3.6387602e-2 -0.49569584 0.86773359
vn -0.99884057 4.3112308e-2 -2.1420564e-2
vn 0.99976030 2.1657147e-2 3.2108679e-3
vn -3.6387602e-2 -0.49569584 0.86773359
vn -4.6652885e-2 -0.58609486 0.80889822
vn -0.99884057 4.3112308e-2 -2.1420564e-2
vn -4.6652885e-2 -0.58609486 0.80889822
vn -3.3279638e-2 -0.97545530 0.21766816
vn -0.99884057 4.3112308e-2 -2.1420564e-2
vn -3.3279638e-2 -0.97545530 0.21766816
vn 0.99976030 2.1657147e-2 3.2108679e-3
vn -4.6652885e-2 -0.58609486 0.80889822
vn -4.6652885e-2 -0.58609486 0.80889822
vn 0.99976030 2.1657147e-2 3.2108679e-3
vn -3.3279638e-2 -0.97545530 0.21766816
vn -3.3279638e-2 -0.97545530 0.21766816
vn 2.0413590e-3 -0.92282125 -0.38522301
vn -0.99884057 4.3112308e-2 -2.1420564e-2
vn -0.99884057 4.3112308e-2 -2.1420564e-2
vn 0.99976030 2.1657147e-2 3.2108679e-3
vn 0.99976030 2.1657147e-2 3.2108679e-3
vn 2.0413590e-3 -0.92282125 -0.38522301
vn -3.6387602e-2 -0.49569584 0.86773359
vn -0.99884057 4.3112308e-2 -2.1420564e-2
vn 0.99976030 2.1657147e-2 3.2108679e-3
vn -3.6387602e-2 -0.49569584 0.86773359
vn -4.6652885e-2 -0.58609486 0.80889822
vn -0.99884057 4.3112308e-2 -2.1420564e-2
vn -4.6652885e-2 -0.58609486 0.80889822
vn -3.3279638e-2 -0.97545530 0.21766816
vn -0.99884057 4.3112308e-2 -2.1420564e-2
vn -3.3279638e-2 -0.97545530 0.21766816
vn 0.99976030 2.1657147e-2 3.2108679e-3
vn -4.6652885e-2 -0.58609486 0.80889822
vn -4.6652885e-2 -0.58609486 0.80889822
vn 0.99976030 2.1657147e-2 3.2108679e-3
vn -3.3279638e-2 -0.97545530 0.21766816
vn -3.3279638e-2 -0.97545530 0.21766816
vn 1.9549383e-15 0.0000000e+0 -1.00000000
vn 0.72657467 0.68708751 4.0520068e-16
vn 0.95832257 -0.28568837 -4.0520068e-16
vn 1.9549383e-15 0.0000000e+0 -1.00000000
vn 0.23174790 -0.97277588 0.0000000e+0
vn 0.95832257 -0.28568837 -4.0520068e-16
vn 1.9549383e-15 0.0000000e+0 -1.00000000
vn -0.72657467 -0.68708751 -4.0520068e-16
vn 0.23174790 -0.97277588 0.0000000e+0
vn 1.9549383e-15 0.0000000e+0 -1.00000000
vn -0.95832257 0.28568837 4.0520068e-16
vn -0.72657467 -0.68708751 -4.0520068e-16
vn 1.9549383e-15 0.0000000e+0 -1.00000000
vn -0.23174790 0.97277588 1.0130017e-16
vn -0.95832257 0.28568837 4.0520068e-16
vn 1.9549383e-15 0.0000000e+0 -1.00000000
vn 0.72657467 0.68708751 4.0520068e-16
vn -0.23174790 0.97277588 1.0130017e-16
vn 0.72657467 0.68708751 4.0520068e-16
vn 0.95832257 -0.28568837 -4.0520068e-16
vn 0.23174790 -0.97277588 0.0000000e+0
vn 0.95832257 -0.28568837 -4.0520068e-16
vn -0.72657467 -0.68708751 -4.0520068e-16
vn 0.23174790 -0.97277588 0.0000000e+0
vn -0.95832257 0.28568837 4.0520068e-16
vn -0.72657467 -0.68708751 -4.0520068e-16
vn -0.23174790 0.97277588 1.0130017e-16
vn -0.95832257 0.28568837 4.0520068e-16
vn 0.72657467 0.68708751 4.0520068e-16
vn -0.23174790 0.97277588 1.0130017e-16
vn 1.9549383e-15 0.0000000e+0 -1.00000000
vn 0.72657467 0.68708751 0.0000000e+0
vn 0.95832257 -0.28568837 -4.0520068e-16
vn 1.9549383e-15 0.0000000e+0 -1.00000000
vn 0.23174790 -0.97277588 1.0130017e-16
vn 0.95832257 -0.28568837 -4.0520068e-16
vn 1.9549383e-15 0.0000000e+0 -1.00000000
vn -0.72657467 -0.68708751 0.0000000e+0
vn 0.23174790 -0.97277588 1.0130017e-16
vn 1.9549383e-15 0.0000000e+0 -1.00000000
vn -0.95832257 0.28568837 0.0000000e+0
vn -0.72657467 -0.68708751 0.0000000e+0
vn 1.9549383e-15 0.0000000e+0 -1.00000000
vn -0.23174790 0.97277588 0.0000000e+0
vn -0.95832257 0.28568837 0.0000000e+0
vn 1.9549383e-15 0.0000000e+0 -1.00000000
vn 0.72657467 0.68708751 0.0000000e+0
vn -0.23174790 0.97277588 0.0000000e+0
vn 0.72657467 0.68708751 0.0000000e+0
vn 0.95832257 -0.28568837 -4.0520068e-16
vn 0.23174790 -0.97277588 1.0130017e-16
vn 0.95832257 -0.28568837 -4.0520068e-16
vn -0.72657467 -0.68708751 0.0000000e+0
vn 0.23174790 -0.97277588 1.0130017e-16
vn -0.95832257 0.28568837 0.0000000e+0
vn -0.72657467 -0.68708751 0.0000000e+0
vn -0.23174790 0.97277588 0.0000000e+0
vn -0.95832257 0.28568837 0.0000000e+0
vn 0.72657467 0.68708751 0.0000000e+0
vn -0.23174790 0.97277588 0.0000000e+0
vn -1.9549383e-15 0.0000000e+0 -1.00000000
vn 0.72657467 0.68708751 0.0000000e+0
vn 0.95832257 -0.28568837 0.0000000e+0
vn -1.9549383e-15 0.0000000e+0 -1.00000000
vn 0.23174790 -0.97277588 0.0000000e+0
vn 0.95832257 -0.28568837 0.0000000e+0
vn -1.9549383e-15 0.0000000e+0 -1.00000000
vn -0.72657467 -0.68708751 -4.0520068e-16
vn 0.23174790 -0.97277588 0.0000000e+0
vn -1.9549383e-15 0.0000000e+0 -1.00000000
vn -0.95832257 0.28568837 0.0000000e+0
vn -0.72657467 -0.68708751 -4.0520068e-16
vn -1.9549383e-15 0.0000000e+0 -1.00000000
vn -0.23174790 0.97277588 0.0000000e+0
vn -0.95832257 0.28568837 0.0000000e+0
vn -1.9549383e-15 0.0000000e+0 -1.00000000
vn 0.72657467 0.68708751 0.0000000e+0
vn -0.23174790 0.97277588 0.0000000e+0
vn 0.72657467 0.68708751 0.0000000e+0
vn 0.95832257 -0.28568837 0.0000000e+0
vn 0.23174790 -0.97277588 0.0000000e+0
vn 0.95832257 -0.28568837 0.0000000e+0
vn -0.72657467 -0.68708751 -4.0520068e-16
vn 0.23174790 -0.97277588 0.0000000e+0
vn -0.95832257 0.28568837 0.0000000e+0
vn -0.72657467 -0.68708751 -4.0520068e-16
vn -0.23174790 0.97277588 0.0000000e+0
vn -0.95832257 0.28568837 0.0000000e+0
vn 0.72657467 0.68708751 0.0000000e+0
vn -0.23174790 0.97277588 0.0000000e+0
vn 0.0000000e+0 0.0000000e+0 1.00000000
vn 0.72657467 0.68708751 0.0000000e+0
vn 0.95832257 -0.28568837 0.0000000e+0
vn 0.0000000e+0 0.0000000e+0 1.00000000
vn 0.23174790 -0.97277588 0.0000000e+0
vn 0.95832257 -0.28568837 0.0000000e+0
vn 0.0000000e+0 0.0000000e+0 1.00000000
vn -0.72657467 -0.68708751 2.0260034e-16
vn 0.23174790 -0.97277588 0.0000000e+0
vn 0.0000000e+0 0.0000000e+0 1.00000000
vn -0.95832257 0.28568837 0.0000000e+0
vn -0.72657467 -0.68708751 2.0260034e-16
vn 0.0000000e+0 0.0000000e+0 1.00000000
vn -0.23174790 0.97277588 0.0000000e+0
vn -0.95832257 0.28568837 0.0000000e+0
vn 0.0000000e+0 0.0000000e+0 1.00000000
vn 0.72657467 0.68708751 0.0000000e+0
vn -0.23174790 0.97277588 0.0000000e+0
vn 0.72657467 0.68708751 0.0000000e+0
vn 0.95832257 -0.28568837 0.0000000e+0
vn 0.23174790 -0.97277588 0.0000000e+0
vn 0.95832257 -0.28568837 0.0000000e+0
vn -0.72657467 -0.68708751 2.0260034e-16
vn 0.23174790 -0.97277588 0.0000000e+0
vn -0.95832257 0.28568837 0.0000000e+0
vn -0.72657467 -0.68708751 2.0260034e-16
vn -0.23174790 0.97277588 0.0000000e+0
vn -0.95832257 0.28568837 0.0000000e+0
vn 0.72657467 0.68708751 0.0000000e+0
vn -0.23174790 0.97277588 0.0000000e+0
vn 0.0000000e+0 0.0000000e+0 1.00000000
vn 0.72657467 0.68708751 4.0520068e-16
vn 0.95832257 -0.28568837 0.0000000e+0
vn 0.0000000e+0 0.0000000e+0 1.00000000
vn 0.23174790 -0.97277588 0.0000000e+0
vn 0.95832257 -0.28568837 0.0000000e+0
vn 0.0000000e+0 0.0000000e+0 1.00000000
vn -0.72657467 -0.68708751 0.0000000e+0
vn 0.23174790 -0.97277588 0.0000000e+0
vn 0.0000000e+0 0.0000000e+0 1.00000000
vn -0.95832257 0.28568837 8.1040137e-16
vn -0.72657467 -0.68708751 0.0000000e+0
vn 0.0000000e+0 0.0000000e+0 1.00000000
vn -0.23174790 0.97277588 2.0260034e-16
vn -0.95832257 0.28568837 8.1040137e-16
vn 0.0000000e+0 0.0000000e+0 1.00000000
vn 0.72657467 0.68708751 4.0520068e-16
vn -0.23174790 0.97277588 2.0260034e-16
vn 0.72657467 0.68708751 4.0520068e-16
vn 0.95832257 -0.28568837 0.0000000e+0
vn 0.23174790 -0.97277588 0.0000000e+0
vn 0.95832257 -0.28568837 0.0000000e+0
vn -0.72657467 -0.68708751 0.0000000e+0
vn 0.23174790 -0.97277588 0.0000000e+0
vn -0.95832257 0.28568837 8.1040137e-16
vn -0.72657467 -0.68708751 0.0000000e+0
vn -0.23174790 0.97277588 2.0260034e-16
vn -0.95832257 0.28568837 8.1040137e-16
vn 0.72657467 0.68708751 4.0520068e-16
vn -0.23174790 0.97277588 2.0260034e-16
vn 0.0000000e+0 0.0000000e+0 1.00000000
vn 0.72657467 0.68708751 4.0520068e-16
vn 0.95832257 -0.28568837 0.0000000e+0
vn 0.0000000e+0 0.0000000e+0 1.00000000
vn 0.23174790 -0.97277588 0.0000000e+0
vn 0.95832257 -0.28568837 0.0000000e+0
vn 0.0000000e+0 0.0000000e+0 1.00000000
vn -0.72657467 -0.68708751 0.0000000e+0
vn 0.23174790 -0.97277588 0.0000000e+0
vn 0.0000000e+0 0.0000000e+0 1.00000000
vn -0.95832257 0.28568837 8.1040137e-16
vn -0.72657467 -0.68708751 0.0000000e+0
vn 0.0000000e+0 0.0000000e+0 1.00000000
vn -0.23174790 0.97277588 2.0260034e-16
vn -0.95832257 0.28568837 8.1040137e-16
vn 0.0000000e+0 0.0000000e+0 1.00000000
vn 0.72657467 0.68708751 4.0520068e-16
vn -0.23174790 0.97277588 2.0260034e-16
vn 0.72657467 0.68708751 4.0520068e-16
vn 0.95832257 -0.28568837 0.0000000e+0
vn 0.23174790 -0.97277588 0.0000000e+0
vn 0.95832257 -0.28568837 0.0000000e+0
vn -0.72657467 -0.68708751 0.0000000e+0
vn 0.23174790 -0.97277588 0.0000000e+0
vn -0.95832257 0.28568837 8.1040137e-16
vn -0.72657467 -0.68708751 0.0000000e+0
vn -0.23174790 0.97277588 2.0260034e-16
vn -0.95832257 0.28568837 8.1040137e-16
vn 0.72657467 0.68708751 4.0520068e-16
vn -0.23174790 0.97277588 2.0260034e-16
g cube1_sep49_WoodInside
usemtl WoodInside
f 12/99/35 14/56/41 13/54/38 10/98/29
f 13/102/39 14/100/42 11/51/33 9/55/27
f 15/261/45 17/262/51 20/244/60 19/243/57
f 16/257/47 19/273/56 20/272/59 18/256/53
f 40/217/119 44/197/131 42/195/125 38/215/113
f 41/143/123 43/140/129 39/66/117 37/67/111
f 44/145/132 46/79/138 45/78/135 42/144/126
f 45/232/134 46/231/137 43/210/128 41/211/122
f 58/180/173 60/181/179 59/201/176 56/200/167
f 60/193/180 62/191/185 61/159/182 59/161/177
f 61/159/183 62/191/186 57/192/171 55/160/165
g cube1_sep49_WoodSide
usemtl WoodSide
f 2/298/6 6/9/18 5/8/15 1/297/3
f 4/2/10 8/282/22 7/283/19 3/1/7
f 21/202/62 25/203/73 28/48/83 24/47/72
f 22/229/66 26/208/78 25/223/75 21/245/63
f 23/46/69 27/45/80 26/21/76 22/22/65
f 24/227/71 28/246/82 27/255/79 23/241/68
f 29/6/87 33/294/99 34/296/102 30/3/90
f 31/293/92 35/4/103 36/5/106 32/295/95
f 47/89/140 51/90/151 54/35/161 50/33/150
f 48/169/144 52/127/156 51/128/153 47/170/141
f 50/289/149 54/292/160 53/291/157 49/290/146
f 53/125/159 58/81/174 56/82/168 49/126/147
f 55/114/164 57/113/169 52/49/154 48/50/143
f 66/149/192 72/158/207 70/122/200 63/115/187
f 67/109/193 69/105/197 71/151/204 68/157/196
f 72/158/208 71/151/205 69/105/199 70/122/202
f 73/71/209 80/69/222 82/57/229 76/58/214
f 78/59/218 81/60/226 79/70/219 77/72/215
f 80/69/224 79/70/221 81/60/227 82/57/230
f 83/73/232 90/75/248 92/65/255 86/68/240
f 88/62/244 91/63/252 89/74/245 87/77/241
f 90/75/250 89/74/247 91/63/253 92/65/256
f 96/107/262 102/108/277 100/152/270 93/155/257
f 97/153/263 99/150/267 101/112/274 98/111/266
f 102/108/278 101/112/275 99/150/269 100/152/272
f 106/130/284 112/131/299 110/171/292 103/174/279
f 107/173/285 109/166/289 111/139/296 108/138/288
f 112/131/300 111/139/297 109/166/291 110/171/294
g cube1_sep49_default
usemtl default
f 1/27/2 5/24/13 15/13/43 19/12/55 16/11/46 8/7/23 4/10/11 10/16/28 13/17/37 9/20/26
f 1/132/1 9/177/25 11/178/31 2/135/4
f 3/204/9 12/136/36 10/137/30 4/205/12
f 6/101/17 17/52/50 15/53/44 5/103/14
f 8/133/24 16/176/48 18/175/54 7/134/21
f 11/146/32 14/189/40 12/198/34 3/230/8 7/240/20 18/224/52 20/214/58 17/206/49 6/119/16 2/96/5
f 21/38/61 24/116/70 23/117/67 22/37/64
f 26/248/77 27/94/81 28/97/84 25/247/74
f 30/185/88 31/44/91 32/43/94 29/188/85
f 30/25/89 34/23/100 39/29/115 43/32/127 46/31/136 44/39/130 40/40/118 35/41/104 31/42/93
f 32/14/96 36/15/107 38/18/112 42/19/124 45/28/133 41/26/121 37/30/109 33/36/97 29/34/86
f 33/86/98 37/123/110 39/120/116 34/83/101
f 35/124/105 40/85/120 38/84/114 36/118/108
f 47/226/139 50/285/148 49/286/145 56/280/166 59/278/175 61/277/181 55/265/163 48/222/142
f 52/288/155 57/274/170 62/264/184 60/263/178 58/260/172 53/251/158 54/254/162 51/287/152
f 63/183/188 70/194/201 69/225/198 67/228/194 64/184/189
f 65/218/190 68/186/195 71/167/203 72/207/206 66/219/191
f 74/213/211 77/172/216 79/168/220 80/212/223 73/220/210
f 76/236/213 82/249/228 81/270/225 78/267/217 75/242/212
f 83/148/231 86/163/238 85/164/236 84/142/234
f 84/281/235 87/259/242 89/258/246 90/279/249 83/284/233
f 86/237/239 92/250/254 91/271/251 88/266/243 85/235/237
f 93/233/258 100/252/271 99/269/268 97/276/264 94/239/259
f 95/154/260 98/61/265 101/64/273 102/121/276 96/147/261
f 103/234/280 110/253/293 109/268/290 107/275/286 104/238/281
f 105/221/282 108/165/287 111/182/295 112/209/298 106/216/283
g cube1_sep49_saraf
usemtl saraf
f 113/196/303 119/199/320 120/190/322 114/187/306
f 114/92/304 115/80/307 116/76/310 117/87/313 118/95/316 113/106/301
f 114/187/305 120/190/321 121/179/324 115/162/309
f 115/162/308 121/179/323 122/156/326 116/141/312
f 116/141/311 122/156/325 123/129/328 117/110/315
f 117/110/314 123/129/327 124/104/330 118/93/318
f 118/93/317 124/104/329 119/91/319 113/88/302
f 125/196/333 131/199/350 132/190/352 126/187/336
f 126/92/334 127/80/337 128/76/340 129/87/343 130/95/346 125/106/331
f 126/187/335 132/190/351 133/179/354 127/162/339
f 127/162/338 133/179/353 134/156/356 128/141/342
f 128/141/341 134/156/355 135/129/358 129/110/345
f 129/110/344 135/129/357 136/104/360 130/93/348
f 130/93/347 136/104/359 131/91/349 125/88/332
f 137/196/363 143/199/380 144/190/382 138/187/366
f 138/92/364 139/80/367 140/76/370 141/87/373 142/95/376 137/106/361
f 138/187/365 144/190/381 145/179/384 139/162/369
f 139/162/368 145/179/383 146/156/386 140/141/372
f 140/141/371 146/156/385 147/129/388 141/110/375
f 141/110/374 147/129/387 148/104/390 142/93/378
f 142/93/377 148/104/389 143/91/379 137/88/362
f 149/106/391 154/95/406 153/87/403 152/76/400 151/80/397 150/92/394
f 149/88/392 155/91/409 160/104/419 154/93/407
f 150/187/396 156/190/412 155/199/410 149/196/393
f 151/162/399 157/179/414 156/190/411 150/187/395
f 152/141/402 158/156/416 157/179/413 151/162/398
f 153/110/405 159/129/418 158/156/415 152/141/401
f 154/93/408 160/104/420 159/129/417 153/110/404
f 161/106/421 166/95/436 165/87/433 164/76/430 163/80/427 162/92/424
f 161/88/422 167/91/439 172/104/449 166/93/437
f 162/187/426 168/190/442 167/199/440 161/196/423
f 163/162/429 169/179/444 168/190/441 162/187/425
f 164/141/432 170/156/446 169/179/443 163/162/428
f 165/110/435 171/129/448 170/156/445 164/141/431
f 166/93/438 172/104/450 171/129/447 165/110/434
f 173/106/451 178/95/466 177/87/463 176/76/460 175/80/457 174/92/454
f 173/88/452 179/91/469 184/104/479 178/93/467
f 174/187/456 180/190/472 179/199/470 173/196/453
f 175/162/459 181/179/474 180/190/471 174/187/455
f 176/141/462 182/156/476 181/179/473 175/162/458
f 177/110/465 183/129/478 182/156/475 176/141/461
f 178/93/468 184/104/480 183/129/477 177/110/464
