# Exported from Wings 3D 1.0.2
mtllib ShipDoorsStok.mtl
o cube45_copy4
#128 vertices, 128 faces
v 0.31912940 -0.62620906 0.14595049
v 0.34213623 -0.60320223 0.14595049
v 0.34213623 -0.60320223 -0.14595049
v 0.31912940 -0.62620906 -0.14595049
v 0.34404150 -0.68635219 0.14595049
v 0.34404150 -0.68635219 -0.14595049
v 0.40227936 -0.62811433 -0.14595049
v 0.40227936 -0.62811433 0.14595049
v -0.40227936 0.62811433 -0.14595049
v -0.40227936 0.62811433 0.14595049
v -0.34404150 0.68635219 0.14595049
v -0.34404150 0.68635219 -0.14595049
v -0.34213623 -0.60320223 0.14595049
v -0.31912940 -0.62620906 0.14595049
v -0.31912940 -0.62620906 -0.14595049
v -0.34213623 -0.60320223 -0.14595049
v -0.29270613 0.70761600 0.14595049
v 0.29270613 0.70761600 0.14595049
v 0.29270613 0.70761600 -0.14595049
v -0.29270613 0.70761600 -0.14595049
v 0.34213623 0.60320223 0.14595049
v 0.31912940 0.62620906 0.14595049
v 0.31912940 0.62620906 -0.14595049
v 0.34213623 0.60320223 -0.14595049
v -0.34404150 -0.68635219 -0.14595049
v -0.34404150 -0.68635219 0.14595049
v -0.40227936 -0.62811433 0.14595049
v -0.40227936 -0.62811433 -0.14595049
v -0.31912940 0.62620906 0.14595049
v -0.34213623 0.60320223 0.14595049
v -0.34213623 0.60320223 -0.14595049
v -0.31912940 0.62620906 -0.14595049
v -0.36340004 0.55186686 0.14595049
v -0.36340004 -0.55186686 0.14595049
v -0.36340004 -0.55186686 -0.14595049
v -0.36340004 0.55186686 -0.14595049
v -0.42354317 -0.57677896 0.14595049
v -0.42354317 0.57677896 0.14595049
v -0.42354317 0.57677896 -0.14595049
v -0.42354317 -0.57677896 -0.14595049
v 0.26779403 0.64747287 0.14595049
v -0.26779403 0.64747287 0.14595049
v -0.26779403 0.64747287 -0.14595049
v 0.26779403 0.64747287 -0.14595049
v 0.40227936 0.62811433 -0.14595049
v 0.34404150 0.68635219 -0.14595049
v 0.34404150 0.68635219 0.14595049
v 0.40227936 0.62811433 0.14595049
v -0.26779403 -0.64747287 0.14595049
v 0.26779403 -0.64747287 0.14595049
v 0.26779403 -0.64747287 -0.14595049
v -0.26779403 -0.64747287 -0.14595049
v 0.29270613 -0.70761600 0.14595049
v -0.29270613 -0.70761600 0.14595049
v -0.29270613 -0.70761600 -0.14595049
v 0.29270613 -0.70761600 -0.14595049
v 0.36340004 -0.55186686 0.14595049
v 0.36340004 0.55186686 0.14595049
v 0.36340004 0.55186686 -0.14595049
v 0.36340004 -0.55186686 -0.14595049
v 0.42354317 0.57677896 0.14595049
v 0.42354317 -0.57677896 0.14595049
v 0.42354317 -0.57677896 -0.14595049
v 0.42354317 0.57677896 -0.14595049
v 0.37195463 0.55470546 -0.15450508
v 0.41432461 0.57220097 -0.15516905
v 0.41432461 -0.57220097 -0.15516905
v 0.37195463 -0.55470546 -0.15450508
v 0.27063262 0.65602746 0.15450508
v 0.28812814 0.69839744 0.15516905
v -0.28812814 0.69839744 0.15516905
v -0.27063262 0.65602746 0.15450508
v -0.37195463 -0.55470546 -0.15450508
v -0.41432461 -0.57220097 -0.15516905
v -0.41432461 0.57220097 -0.15516905
v -0.37195463 0.55470546 -0.15450508
v -0.32317122 -0.63426527 -0.15450508
v -0.34076012 -0.67659656 -0.15516905
v -0.35019243 -0.60724405 -0.15450508
v -0.39252373 -0.62483295 -0.15516905
v 0.32317122 -0.63426527 0.15450508
v 0.34076012 -0.67659656 0.15516905
v 0.39252373 -0.62483295 0.15516905
v 0.35019243 -0.60724405 0.15450508
v -0.27063262 -0.65602746 0.15450508
v -0.28812814 -0.69839744 0.15516905
v 0.27063262 -0.65602746 0.15450508
v 0.28812814 -0.69839744 0.15516905
v 0.27063262 -0.65602746 -0.15450508
v 0.28812814 -0.69839744 -0.15516905
v -0.27063262 -0.65602746 -0.15450508
v -0.28812814 -0.69839744 -0.15516905
v -0.39252373 0.62483295 -0.15516905
v -0.35019243 0.60724405 -0.15450508
v -0.34076012 0.67659656 -0.15516905
v -0.32317122 0.63426527 -0.15450508
v 0.39252373 -0.62483295 -0.15516905
v 0.35019243 -0.60724405 -0.15450508
v 0.32317122 -0.63426527 -0.15450508
v 0.34076012 -0.67659656 -0.15516905
v 0.32317122 0.63426527 -0.15450508
v 0.34076012 0.67659656 -0.15516905
v 0.35019243 0.60724405 -0.15450508
v 0.39252373 0.62483295 -0.15516905
v 0.35019243 0.60724405 0.15450508
v 0.39252373 0.62483295 0.15516905
v 0.32317122 0.63426527 0.15450508
v 0.34076012 0.67659656 0.15516905
v -0.37195463 0.55470546 0.15450508
v -0.41432461 0.57220097 0.15516905
v -0.41432461 -0.57220097 0.15516905
v -0.37195463 -0.55470546 0.15450508
v -0.34076012 0.67659656 0.15516905
v -0.32317122 0.63426527 0.15450508
v -0.35019243 0.60724405 0.15450508
v -0.39252373 0.62483295 0.15516905
v -0.28812814 0.69839744 -0.15516905
v -0.27063262 0.65602746 -0.15450508
v 0.27063262 0.65602746 -0.15450508
v 0.28812814 0.69839744 -0.15516905
v 0.41432461 -0.57220097 0.15516905
v 0.37195463 -0.55470546 0.15450508
v 0.37195463 0.55470546 0.15450508
v 0.41432461 0.57220097 0.15516905
v -0.39252373 -0.62483295 0.15516905
v -0.35019243 -0.60724405 0.15450508
v -0.32317122 -0.63426527 0.15450508
v -0.34076012 -0.67659656 0.15516905
vt 6.8760357e-3 0.99334544
vt 6.8760357e-3 0.86119655
vt 6.8760357e-3 0.86119655
vt 6.8760357e-3 0.99334544
vt 3.2031326e-2 0.99334544
vt 3.2031326e-2 0.86119655
vt 3.2031326e-2 0.86119655
vt 3.2031326e-2 0.99334544
vt 9.2465488e-2 3.1851783e-2
vt 9.2465501e-2 3.1851782e-2
vt 9.2465503e-2 3.1851782e-2
vt 9.2465515e-2 3.1851781e-2
vt 9.4711357e-2 0.82347488
vt 9.4711369e-2 0.82347488
vt 9.4711371e-2 0.82347488
vt 9.4711383e-2 0.82347488
vt 9.8957608e-2 2.7188441e-2
vt 9.8957620e-2 2.7188440e-2
vt 9.8957622e-2 2.7188440e-2
vt 9.8957634e-2 2.7188439e-2
vt 0.10053560 5.1253679e-2
vt 0.10053561 5.1253679e-2
vt 0.10053562 5.1253679e-2
vt 0.10053563 5.1253678e-2
vt 0.10122983 0.82810131
vt 0.10122984 0.82810131
vt 0.10122985 0.82810131
vt 0.10122986 0.82810131
vt 0.10267125 0.80402750
vt 0.10267127 0.80402750
vt 0.10267127 0.80402750
vt 0.10267128 0.80402750
vt 0.10814770 8.8062129e-2
vt 0.10814771 8.8062129e-2
vt 0.10814772 8.8062129e-2
vt 0.10814773 8.8062128e-2
vt 0.10847172 4.9416359e-2
vt 0.10847173 4.9416358e-2
vt 0.10847174 4.9416358e-2
vt 0.10847175 4.9416358e-2
vt 0.11007438 0.76717645
vt 0.11007439 0.76717645
vt 0.11007439 0.76717645
vt 0.11007440 0.76717645
vt 0.11061767 0.80581976
vt 0.11061768 0.80581976
vt 0.11061768 0.80581976
vt 0.11061770 0.80581976
vt 0.11564450 8.6325271e-2
vt 0.11564451 8.6325270e-2
vt 0.11564452 8.6325270e-2
vt 0.11564453 8.6325270e-2
vt 0.11758091 0.76887075
vt 0.11758092 0.76887075
vt 0.11758093 0.76887075
vt 0.11758094 0.76887075
vt 0.11942152 6.7091364e-3
vt 0.11942153 6.7091355e-3
vt 0.11942153 6.7091353e-3
vt 0.11942154 6.7091344e-3
vt 0.12180961 0.84846417
vt 0.12180962 0.84846417
vt 0.12180963 0.84846417
vt 0.12180964 0.84846417
vt 0.12631852 1.4102409e-3
vt 0.12631854 1.4102410e-3
vt 0.12631854 1.4102410e-3
vt 0.12631855 1.4102410e-3
vt 0.12873657 0.85372384
vt 0.12873659 0.85372384
vt 0.12873659 0.85372384
vt 0.12873660 0.85372384
vt 0.13562029 4.5663850e-2
vt 0.13562030 4.5663850e-2
vt 0.13562030 4.5663850e-2
vt 0.13562031 4.5663851e-2
vt 0.13778709 0.80941817
vt 0.13778710 0.80941817
vt 0.13778710 0.80941817
vt 0.13778711 0.80941817
vt 0.14172701 7.5874676e-2
vt 0.14172702 7.5874676e-2
vt 0.14172703 7.5874676e-2
vt 0.14172704 7.5874677e-2
vt 0.14323823 4.4877212e-2
vt 0.14323824 4.4877213e-2
vt 0.14323824 4.4877213e-2
vt 0.14323826 4.4877214e-2
vt 0.14372230 0.77917318
vt 0.14372231 0.77917318
vt 0.14372231 0.77917318
vt 0.14372232 0.77917318
vt 0.14540938 0.81016157
vt 0.14540939 0.81016157
vt 0.14540939 0.81016157
vt 0.14540940 0.81016157
vt 0.14969359 7.3090310e-2
vt 0.14969360 7.3090311e-2
vt 0.14969360 7.3090311e-2
vt 0.14969361 7.3090312e-2
vt 0.15170454 0.78191230
vt 0.15170455 0.78191230
vt 0.15170456 0.78191230
vt 0.15170457 0.78191230
vt 0.17096471 3.5906826e-2
vt 0.17096471 3.5906826e-2
vt 0.17096955 3.5905146e-2
vt 0.17096955 3.5905146e-2
vt 0.17358985 4.4189214e-2
vt 0.17358985 4.4189214e-2
vt 0.17359146 4.4193506e-2
vt 0.17359146 4.4193506e-2
vt 0.18390497 7.0904981e-2
vt 0.18390497 7.0904981e-2
vt 0.18392294 7.0907352e-2
vt 0.18392294 7.0907352e-2
vt 0.18698600 7.7973779e-2
vt 0.18698600 7.7973779e-2
vt 0.18700505 7.7973779e-2
vt 0.18700505 7.7973779e-2
vt 0.20370472 2.3689757e-2
vt 0.20370472 2.3689757e-2
vt 0.20371304 2.3683919e-2
vt 0.20371304 2.3683919e-2
vt 0.20661087 3.1808940e-2
vt 0.20661087 3.1808940e-2
vt 0.20661919 3.1803405e-2
vt 0.20661919 3.1803405e-2
vt 0.21744366 5.8321422e-2
vt 0.21744366 5.8321422e-2
vt 0.21745243 5.8316191e-2
vt 0.21745243 5.8316191e-2
vt 0.21927239 6.5872303e-2
vt 0.21927239 6.5872303e-2
vt 0.21928110 6.5866948e-2
vt 0.21928110 6.5866948e-2
vt 0.29705811 0.86119655
vt 0.29705811 0.99334544
vt 0.29705811 0.99334544
vt 0.29705811 0.86119655
vt 0.32221340 0.99334544
vt 0.32221340 0.86119655
vt 0.32221340 0.86119655
vt 0.32221340 0.99334544
vt 0.55390300 6.5866948e-2
vt 0.55390300 6.5866948e-2
vt 0.55391171 6.5872303e-2
vt 0.55391171 6.5872303e-2
vt 0.55573167 5.8316191e-2
vt 0.55573167 5.8316191e-2
vt 0.55574044 5.8321422e-2
vt 0.55574044 5.8321422e-2
vt 0.56656491 3.1803405e-2
vt 0.56656491 3.1803405e-2
vt 0.56657323 3.1808940e-2
vt 0.56657323 3.1808940e-2
vt 0.56947106 2.3683919e-2
vt 0.56947106 2.3683919e-2
vt 0.56947939 2.3689757e-2
vt 0.56947939 2.3689757e-2
vt 0.58617905 7.7973779e-2
vt 0.58617905 7.7973779e-2
vt 0.58619810 7.7973779e-2
vt 0.58619810 7.7973779e-2
vt 0.58926116 7.0907352e-2
vt 0.58926116 7.0907352e-2
vt 0.58927914 7.0904981e-2
vt 0.58927914 7.0904981e-2
vt 0.59959264 4.4193506e-2
vt 0.59959264 4.4193506e-2
vt 0.59959426 4.4189214e-2
vt 0.59959426 4.4189214e-2
vt 0.60221455 3.5905146e-2
vt 0.60221455 3.5905146e-2
vt 0.60221939 3.5906826e-2
vt 0.60221939 3.5906826e-2
vt 0.66132361 0.84121939
vt 0.66132361 0.98367589
vt 0.66132361 0.84121939
vt 0.66132361 0.98367589
vt 0.68844101 0.84121939
vt 0.68844101 0.98367589
vt 0.68844101 0.84121939
vt 0.68844101 0.98367589
vt 0.71564953 0.18260394
vt 0.71564953 0.18260394
vt 0.71564953 0.21989016
vt 0.71564953 0.21989016
vt 0.71564953 0.24504545
vt 0.71564953 0.24504545
vt 0.71564953 0.76728212
vt 0.71564953 0.76728212
vt 0.71564953 0.79243741
vt 0.71564953 0.79243741
vt 0.71564953 0.82972364
vt 0.71564953 0.82972364
vt 0.84779841 0.24504545
vt 0.84779841 0.24504545
vt 0.84779841 0.21989016
vt 0.84779841 0.21989016
vt 0.84779841 0.79243741
vt 0.84779841 0.79243741
vt 0.84779841 0.76728212
vt 0.84779841 0.76728212
vt 0.84779841 0.18260394
vt 0.84779841 0.18260394
vt 0.84779841 0.82972364
vt 0.84779841 0.82972364
vt 0.85692332 0.24240763
vt 0.85692332 0.26756292
vt 0.85692332 0.22767773
vt 0.85692332 0.22767773
vt 0.85692332 0.24240763
vt 0.85692332 0.26756292
vt 0.85692332 0.76724327
vt 0.85692332 0.79239856
vt 0.85692332 0.80712846
vt 0.85692332 0.80712846
vt 0.85692332 0.76724327
vt 0.85692332 0.79239856
vt 0.94982417 0.98367589
vt 0.94982417 0.84121939
vt 0.94982417 0.98367589
vt 0.94982417 0.84121939
vt 0.97694157 0.98367589
vt 0.97694157 0.84121939
vt 0.97694157 0.98367589
vt 0.97694157 0.84121939
vt 0.98907221 0.76724327
vt 0.98907221 0.79239856
vt 0.98907221 0.26756292
vt 0.98907221 0.22767773
vt 0.98907221 0.80712846
vt 0.98907221 0.24240763
vt 0.98907221 0.79239856
vt 0.98907221 0.80712846
vt 0.98907221 0.22767773
vt 0.98907221 0.76724327
vt 0.98907221 0.24240763
vt 0.98907221 0.26756292
vn -0.51122854 0.76338865 0.39482040
vn -0.76338865 0.51122854 0.39482040
vn -0.76338865 0.51122854 -0.39482040
vn -0.51122854 0.76338865 -0.39482040
vn 0.51057334 -0.76033061 0.40151243
vn 0.51057334 -0.76033061 -0.40151243
vn 0.76033061 -0.51057334 -0.40151243
vn 0.76033061 -0.51057334 0.40151243
vn -0.76033061 0.51057334 -0.40151243
vn -0.76033061 0.51057334 0.40151243
vn -0.51057334 0.76033061 0.40151243
vn -0.51057334 0.76033061 -0.40151243
vn 0.76338865 0.51122854 0.39482040
vn 0.51122854 0.76338865 0.39482040
vn 0.51122854 0.76338865 -0.39482040
vn 0.76338865 0.51122854 -0.39482040
vn -0.17660506 0.89866480 0.40151243
vn 0.17660506 0.89866480 0.40151243
vn 0.17660506 0.89866480 -0.40151243
vn -0.17660506 0.89866480 -0.40151243
vn -0.76338865 -0.51122854 0.39482040
vn -0.51122854 -0.76338865 0.39482040
vn -0.51122854 -0.76338865 -0.39482040
vn -0.76338865 -0.51122854 -0.39482040
vn -0.51057334 -0.76033061 -0.40151243
vn -0.51057334 -0.76033061 0.40151243
vn -0.76033061 -0.51057334 0.40151243
vn -0.76033061 -0.51057334 -0.40151243
vn 0.51122854 -0.76338865 0.39482040
vn 0.76338865 -0.51122854 0.39482040
vn 0.76338865 -0.51122854 -0.39482040
vn 0.51122854 -0.76338865 -0.39482040
vn 0.90129046 -0.17830413 0.39482040
vn 0.90129046 0.17830413 0.39482040
vn 0.90129046 0.17830413 -0.39482040
vn 0.90129046 -0.17830413 -0.39482040
vn -0.89866480 -0.17660506 0.40151243
vn -0.89866480 0.17660506 0.40151243
vn -0.89866480 0.17660506 -0.40151243
vn -0.89866480 -0.17660506 -0.40151243
vn -0.17830413 -0.90129046 0.39482040
vn 0.17830413 -0.90129046 0.39482040
vn 0.17830413 -0.90129046 -0.39482040
vn -0.17830413 -0.90129046 -0.39482040
vn 0.76033061 0.51057334 -0.40151243
vn 0.51057334 0.76033061 -0.40151243
vn 0.51057334 0.76033061 0.40151243
vn 0.76033061 0.51057334 0.40151243
vn 0.17830413 0.90129046 0.39482040
vn -0.17830413 0.90129046 0.39482040
vn -0.17830413 0.90129046 -0.39482040
vn 0.17830413 0.90129046 -0.39482040
vn 0.17660506 -0.89866480 0.40151243
vn -0.17660506 -0.89866480 0.40151243
vn -0.17660506 -0.89866480 -0.40151243
vn 0.17660506 -0.89866480 -0.40151243
vn -0.90129046 0.17830413 0.39482040
vn -0.90129046 -0.17830413 0.39482040
vn -0.90129046 -0.17830413 -0.39482040
vn -0.90129046 0.17830413 -0.39482040
vn 0.89866480 0.17660506 0.40151243
vn 0.89866480 -0.17660506 0.40151243
vn 0.89866480 -0.17660506 -0.40151243
vn 0.89866480 0.17660506 -0.40151243
vn -0.37052929 -7.2686492e-2 -0.92597231
vn 0.35058074 6.7694839e-2 -0.93408273
vn 0.35058074 -6.7694839e-2 -0.93408273
vn -0.37052929 7.2686492e-2 -0.92597231
vn -7.2686492e-2 -0.37052929 0.92597231
vn 6.7694839e-2 0.35058074 0.93408273
vn -6.7694839e-2 0.35058074 0.93408273
vn 7.2686492e-2 -0.37052929 0.92597231
vn 0.37052929 7.2686492e-2 -0.92597231
vn -0.35058074 -6.7694839e-2 -0.93408273
vn -0.35058074 6.7694839e-2 -0.93408273
vn 0.37052929 -7.2686492e-2 -0.92597231
vn 0.21060666 0.31340089 -0.92597231
vn -0.20003054 -0.29576550 -0.93408273
vn 0.31340089 0.21060666 -0.92597231
vn -0.29576550 -0.20003054 -0.93408273
vn -0.21060666 0.31340089 0.92597231
vn 0.20003054 -0.29576550 0.93408273
vn 0.29576550 -0.20003054 0.93408273
vn -0.31340089 0.21060666 0.92597231
vn 7.2686492e-2 0.37052929 0.92597231
vn -6.7694839e-2 -0.35058074 0.93408273
vn -7.2686492e-2 0.37052929 0.92597231
vn 6.7694839e-2 -0.35058074 0.93408273
vn -7.2686492e-2 0.37052929 -0.92597231
vn 6.7694839e-2 -0.35058074 -0.93408273
vn 7.2686492e-2 0.37052929 -0.92597231
vn -6.7694839e-2 -0.35058074 -0.93408273
vn -0.29576550 0.20003054 -0.93408273
vn 0.31340089 -0.21060666 -0.92597231
vn -0.20003054 0.29576550 -0.93408273
vn 0.21060666 -0.31340089 -0.92597231
vn 0.29576550 -0.20003054 -0.93408273
vn -0.31340089 0.21060666 -0.92597231
vn -0.21060666 0.31340089 -0.92597231
vn 0.20003054 -0.29576550 -0.93408273
vn -0.21060666 -0.31340089 -0.92597231
vn 0.20003054 0.29576550 -0.93408273
vn -0.31340089 -0.21060666 -0.92597231
vn 0.29576550 0.20003054 -0.93408273
vn -0.31340089 -0.21060666 0.92597231
vn 0.29576550 0.20003054 0.93408273
vn -0.21060666 -0.31340089 0.92597231
vn 0.20003054 0.29576550 0.93408273
vn 0.37052929 -7.2686492e-2 0.92597231
vn -0.35058074 6.7694839e-2 0.93408273
vn -0.35058074 -6.7694839e-2 0.93408273
vn 0.37052929 7.2686492e-2 0.92597231
vn -0.20003054 0.29576550 0.93408273
vn 0.21060666 -0.31340089 0.92597231
vn 0.31340089 -0.21060666 0.92597231
vn -0.29576550 0.20003054 0.93408273
vn -6.7694839e-2 0.35058074 -0.93408273
vn 7.2686492e-2 -0.37052929 -0.92597231
vn -7.2686492e-2 -0.37052929 -0.92597231
vn 6.7694839e-2 0.35058074 -0.93408273
vn 0.35058074 -6.7694839e-2 0.93408273
vn -0.37052929 7.2686492e-2 0.92597231
vn -0.37052929 -7.2686492e-2 0.92597231
vn 0.35058074 6.7694839e-2 0.93408273
vn -0.29576550 -0.20003054 0.93408273
vn 0.31340089 0.21060666 0.92597231
vn 0.21060666 0.31340089 0.92597231
vn -0.20003054 -0.29576550 0.93408273
g cube45_copy4_default
usemtl default
f 1/12/1 81/20/81 84/40/84 2/24/2
f 2/239/2 3/213/3 4/212/4 1/237/1
f 2/239/2 57/231/57 60/210/60 3/213/3
f 3/32/3 98/48/98 99/28/99 4/16/4
f 4/225/4 51/221/51 50/222/50 1/226/1
f 5/3/5 53/6/53 56/8/56 6/4/6
f 6/205/6 7/199/7 8/187/8 5/185/5
f 6/72/6 100/64/100 97/80/97 7/96/7
f 7/199/7 63/198/63 62/189/62 8/187/8
f 8/88/8 83/76/83 82/60/82 5/68/5
f 9/193/9 39/191/39 38/203/38 10/201/10
f 9/86/9 93/74/93 75/82/75 39/98/39
f 10/201/10 11/207/11 12/195/12 9/193/9
f 10/94/10 116/78/116 113/62/113 11/70/11
f 11/2/11 17/7/17 20/5/20 12/1/12
f 11/176/11 113/170/113 71/154/71 17/158/17
f 12/66/12 95/58/95 93/74/93 9/86/9
f 13/23/13 126/39/126 127/19/127 14/11/14
f 14/211/14 15/232/15 16/234/16 13/209/13
f 14/179/14 49/183/49 52/184/52 15/180/15
f 15/15/15 77/27/77 79/47/79 16/31/16
f 16/234/16 35/240/35 34/214/34 13/209/13
f 16/31/16 79/47/79 73/55/73 35/43/35
f 17/158/17 71/154/71 70/125/70 18/121/18
f 18/137/18 19/138/19 20/5/20 17/7/17
f 18/137/18 47/143/47 46/144/46 19/138/19
f 19/160/19 120/156/120 117/127/117 20/123/20
f 20/123/20 117/127/117 95/111/95 12/105/12
f 21/29/21 105/45/105 107/25/107 22/13/22
f 22/236/22 23/218/23 24/220/24 21/235/21
f 22/177/22 41/181/41 44/182/44 23/178/23
f 22/117/22 107/113/107 69/129/69 41/133/41
f 23/9/23 101/17/101 103/37/103 24/21/24
f 24/220/24 59/215/59 58/229/58 21/235/21
f 24/21/24 103/37/103 65/49/65 59/33/59
f 25/141/25 55/139/55 54/140/54 26/142/26
f 25/175/25 78/169/78 92/153/92 55/157/55
f 26/206/26 27/200/27 28/188/28 25/186/25
f 26/106/26 54/124/54 86/128/86 128/112/128
f 26/67/26 128/59/128 125/75/125 27/87/27
f 27/200/27 37/197/37 40/190/40 28/188/28
f 28/95/28 80/79/80 78/63/78 25/71/25
f 29/162/29 42/146/42 72/150/72 114/166/114
f 29/14/29 114/26/114 115/46/115 30/30/30
f 30/216/30 31/230/31 32/233/32 29/217/29
f 30/216/30 33/219/33 36/238/36 31/230/31
f 31/22/31 94/38/94 96/18/96 32/10/32
f 32/227/32 43/223/43 42/224/42 29/228/29
f 33/42/33 109/54/109 112/51/112 34/35/34
f 34/214/34 35/240/35 36/238/36 33/219/33
f 34/35/34 112/51/112 126/39/126 13/23/13
f 35/43/35 73/55/73 76/50/76 36/34/36
f 36/34/36 76/50/76 94/38/94 31/22/31
f 37/99/37 111/83/111 110/90/110 38/102/38
f 38/203/38 39/191/39 40/190/40 37/197/37
f 38/102/38 110/90/110 116/78/116 10/94/10
f 39/98/39 75/82/75 74/91/74 40/103/40
f 40/103/40 74/91/74 80/79/80 28/95/28
f 41/133/41 69/129/69 72/150/72 42/146/42
f 42/224/42 43/223/43 44/182/44 41/181/41
f 43/135/43 32/119/32 96/115/96 118/131/118
f 43/135/43 118/131/118 119/152/119 44/148/44
f 44/148/44 119/152/119 101/168/101 23/164/23
f 45/85/45 104/73/104 102/57/102 46/65/46
f 46/208/46 47/196/47 48/194/48 45/202/45
f 46/174/46 102/172/102 120/156/120 19/160/19
f 47/107/47 18/121/18 70/125/70 108/109/108
f 47/69/47 108/61/108 106/77/106 48/93/48
f 48/194/48 61/192/61 64/204/64 45/202/45
f 49/136/49 85/132/85 87/151/87 50/147/50
f 50/222/50 51/221/51 52/184/52 49/183/49
f 50/147/50 87/151/87 81/167/81 1/163/1
f 51/134/51 89/130/89 91/149/91 52/145/52
f 52/145/52 91/149/91 77/165/77 15/161/15
f 53/159/53 88/155/88 86/128/86 54/124/54
f 54/140/54 55/139/55 56/8/56 53/6/53
f 55/157/55 92/153/92 90/126/90 56/122/56
f 56/122/56 90/126/90 100/110/100 6/108/6
f 57/36/57 122/52/122 123/53/123 58/41/58
f 58/229/58 59/215/59 60/210/60 57/231/57
f 58/41/58 123/53/123 105/45/105 21/29/21
f 59/33/59 65/49/65 68/56/68 60/44/60
f 60/44/60 68/56/68 98/48/98 3/32/3
f 61/101/61 124/89/124 121/84/121 62/100/62
f 62/189/62 63/198/63 64/204/64 61/192/61
f 62/100/62 121/84/121 83/76/83 8/88/8
f 63/104/63 67/92/67 66/81/66 64/97/64
f 64/97/64 66/81/66 104/73/104 45/85/45
f 65/49/65 103/37/103 104/73/104 66/81/66
f 66/81/66 67/92/67 68/56/68 65/49/65
f 67/92/67 97/80/97 98/48/98 68/56/68
f 69/129/69 107/113/107 108/109/108 70/125/70
f 70/125/70 71/154/71 72/150/72 69/129/69
f 71/154/71 113/170/113 114/166/114 72/150/72
f 73/55/73 79/47/79 80/79/80 74/91/74
f 74/91/74 75/82/75 76/50/76 73/55/73
f 75/82/75 93/74/93 94/38/94 76/50/76
f 77/165/77 91/149/91 92/153/92 78/169/78
f 79/47/79 77/27/77 78/63/78 80/79/80
f 82/60/82 83/76/83 84/40/84 81/20/81
f 82/171/82 88/155/88 53/159/53 5/173/5
f 84/40/84 122/52/122 57/36/57 2/24/2
f 85/132/85 127/116/127 128/112/128 86/128/86
f 86/128/86 88/155/88 87/151/87 85/132/85
f 88/155/88 82/171/82 81/167/81 87/151/87
f 89/130/89 99/114/99 100/110/100 90/126/90
f 90/126/90 92/153/92 91/149/91 89/130/89
f 93/74/93 95/58/95 96/18/96 94/38/94
f 95/111/95 117/127/117 118/131/118 96/115/96
f 97/80/97 67/92/67 63/104/63 7/96/7
f 97/80/97 100/64/100 99/28/99 98/48/98
f 99/114/99 89/130/89 51/134/51 4/118/4
f 101/168/101 119/152/119 120/156/120 102/172/102
f 102/57/102 104/73/104 103/37/103 101/17/101
f 106/77/106 108/61/108 107/25/107 105/45/105
f 106/77/106 124/89/124 61/101/61 48/93/48
f 109/54/109 115/46/115 116/78/116 110/90/110
f 110/90/110 111/83/111 112/51/112 109/54/109
f 111/83/111 125/75/125 126/39/126 112/51/112
f 113/62/113 116/78/116 115/46/115 114/26/114
f 115/46/115 109/54/109 33/42/33 30/30/30
f 117/127/117 120/156/120 119/152/119 118/131/118
f 121/84/121 124/89/124 123/53/123 122/52/122
f 122/52/122 84/40/84 83/76/83 121/84/121
f 124/89/124 106/77/106 105/45/105 123/53/123
f 125/75/125 111/83/111 37/99/37 27/87/27
f 125/75/125 128/59/128 127/19/127 126/39/126
f 127/116/127 85/132/85 49/136/49 14/120/14
