# Exported from Wings 3D 1.0.2
mtllib Stok.mtl
o cube1_sep15
#32 vertices, 26 faces
v -0.62489617 -0.89137244 -4.7678378e-2
v -0.62489617 -0.65780129 -4.7678378e-2
v -0.62489617 -0.65780129 -6.3626932e-2
v -0.62489617 -0.89137244 -6.3626932e-2
v -0.72970502 -0.89137244 -4.7678378e-2
v -0.72970502 -0.65780129 -4.7678378e-2
v -0.72970502 -0.65780129 -6.3626932e-2
v -0.72970502 -0.89137244 -6.3626932e-2
v 0.54229923 -1.09296541 0.11059469
v 0.54229923 1.16151985 0.11059469
v 0.54229923 1.16151985 -4.7792090e-2
v 0.54229923 -1.09296541 -4.7792090e-2
v -0.73269580 -1.09296541 0.11059469
v -0.73269580 1.16151985 0.11059469
v -0.73269580 1.16151985 -4.7792090e-2
v -0.73269580 -1.09296541 -4.7792090e-2
v 0.43774963 1.04910094 -4.7792090e-2
v 0.43774963 -1.09296541 -4.7792090e-2
v -0.62814621 -1.09296541 -4.7792090e-2
v -0.62814621 1.04910094 -4.7792090e-2
v 0.43774963 -1.09296541 0.11059469
v 0.43774963 1.04910094 0.11059469
v -0.62814621 1.04910094 0.11059469
v -0.62814621 -1.09296541 0.11059469
v -0.62489617 0.73678110 -4.7678378e-2
v -0.62489617 0.97035225 -4.7678378e-2
v -0.62489617 0.97035225 -6.3626932e-2
v -0.62489617 0.73678110 -6.3626932e-2
v -0.72970502 0.73678110 -4.7678378e-2
v -0.72970502 0.97035225 -4.7678378e-2
v -0.72970502 0.97035225 -6.3626932e-2
v -0.72970502 0.73678110 -6.3626932e-2
vt 7.7758398e-3 0.98647605
vt 9.8917785e-3 3.6920661e-2
vt 9.8917785e-3 1.3473252e-2
vt 1.0669522e-2 0.98229489
vt 2.1177735e-2 3.4739587e-2
vt 2.1177735e-2 1.1292179e-2
vt 2.4132966e-2 9.0297614e-2
vt 2.8741153e-2 8.6126317e-2
vt 8.5247141e-2 0.94137579
vt 8.8227065e-2 0.93723906
vt 0.10004663 9.0681225e-2
vt 0.10465405 8.6553441e-2
vt 0.16768585 3.6920661e-2
vt 0.16768585 1.3473252e-2
vt 0.20992662 1.1292179e-2
vt 0.20992662 3.4739587e-2
vt 0.47187364 2.2486960e-2
vt 0.47198288 2.8622988e-2
vt 0.47200563 2.1908604e-2
vt 0.47211488 2.8044632e-2
vt 0.47248192 2.2125488e-2
vt 0.47259117 2.8261515e-2
vt 0.47290419 2.2004997e-2
vt 0.47301344 2.8141025e-2
vt 0.56173752 2.0887002e-2
vt 0.56184677 2.7023029e-2
vt 0.56186952 2.0308646e-2
vt 0.56197876 2.6444674e-2
vt 0.56234581 2.0525529e-2
vt 0.56245506 2.6661557e-2
vt 0.56276808 2.0405039e-2
vt 0.56287732 2.6541066e-2
vt 0.58214358 1.2013302e-2
vt 0.58250551 1.1820517e-2
vt 0.58261341 1.2037400e-2
vt 0.58286151 5.2337338e-2
vt 0.58302371 1.1820517e-2
vt 0.58322345 5.2144552e-2
vt 0.58333135 5.2361436e-2
vt 0.58374164 5.2144552e-2
vt 0.67200746 1.0413344e-2
vt 0.67236940 1.0220559e-2
vt 0.67247730 1.0437442e-2
vt 0.67272540 5.0737380e-2
vt 0.67288759 1.0220559e-2
vt 0.67308734 5.0544594e-2
vt 0.67319523 5.0761478e-2
vt 0.67360553 5.0544594e-2
vt 0.67663972 2.1502262e-2
vt 0.67663972 3.7867596e-2
vt 0.67663972 2.1502262e-2
vt 0.67663972 3.7867596e-2
vt 0.74186478 4.7435314e-2
vt 0.74186478 8.7584986e-2
vt 0.74461511 4.8446425e-2
vt 0.74461511 8.8596097e-2
vt 0.76836719 4.7435314e-2
vt 0.76836719 8.7584986e-2
vt 0.77111752 4.8446425e-2
vt 0.77111752 8.8596097e-2
vt 0.78418752 2.1502262e-2
vt 0.78418752 3.7867596e-2
vt 0.83440850 2.2823806e-2
vt 0.83440850 0.37714910
vt 0.83714857 1.8371310e-2
vt 0.83714857 0.35502833
vt 0.85930130 2.2823806e-2
vt 0.85930130 0.37714910
vt 0.86204137 1.8371310e-2
vt 0.86204137 0.35502833
vt 0.86791373 2.3834917e-2
vt 0.86791373 0.37816021
vt 0.87221701 0.35543820
vt 0.87221701 1.8781187e-2
vt 0.89280653 2.3834917e-2
vt 0.89280653 0.37816021
vt 0.89432072 0.93865879
vt 0.89710980 1.8781187e-2
vt 0.89710980 0.35543820
vt 0.89730540 0.93498583
vt 0.90647238 1.1208688e-2
vt 0.91123139 7.5431962e-3
vt 0.97549826 0.98683475
vt 0.97839072 0.98320828
vt 0.98915120 1.1564303e-2
vt 0.99390949 7.9462022e-3
vn 1.00000000 0.0000000e+0 0.0000000e+0
vn 0.0000000e+0 -1.00000000 0.0000000e+0
vn 0.0000000e+0 0.0000000e+0 1.00000000
vn 1.00000000 0.0000000e+0 0.0000000e+0
vn 0.0000000e+0 1.00000000 0.0000000e+0
vn 0.0000000e+0 0.0000000e+0 1.00000000
vn 1.00000000 0.0000000e+0 0.0000000e+0
vn 0.0000000e+0 0.0000000e+0 -1.00000000
vn 0.0000000e+0 1.00000000 0.0000000e+0
vn 1.00000000 0.0000000e+0 0.0000000e+0
vn 0.0000000e+0 0.0000000e+0 -1.00000000
vn 0.0000000e+0 -1.00000000 0.0000000e+0
vn 0.0000000e+0 -1.00000000 0.0000000e+0
vn -1.00000000 0.0000000e+0 0.0000000e+0
vn 0.0000000e+0 0.0000000e+0 1.00000000
vn 0.0000000e+0 1.00000000 0.0000000e+0
vn -1.00000000 0.0000000e+0 0.0000000e+0
vn 0.0000000e+0 0.0000000e+0 1.00000000
vn 0.0000000e+0 0.0000000e+0 -1.00000000
vn 0.0000000e+0 1.00000000 0.0000000e+0
vn -1.00000000 0.0000000e+0 0.0000000e+0
vn 0.0000000e+0 0.0000000e+0 -1.00000000
vn 0.0000000e+0 -1.00000000 0.0000000e+0
vn -1.00000000 0.0000000e+0 0.0000000e+0
vn 1.00000000 0.0000000e+0 0.0000000e+0
vn 0.0000000e+0 0.0000000e+0 1.00000000
vn 0.0000000e+0 -1.00000000 0.0000000e+0
vn 1.00000000 0.0000000e+0 0.0000000e+0
vn 0.0000000e+0 1.00000000 0.0000000e+0
vn 0.0000000e+0 0.0000000e+0 1.00000000
vn 0.0000000e+0 0.0000000e+0 1.00000000
vn 1.00000000 0.0000000e+0 0.0000000e+0
vn 0.0000000e+0 1.00000000 0.0000000e+0
vn 0.0000000e+0 0.0000000e+0 -1.00000000
vn 0.0000000e+0 0.0000000e+0 -1.00000000
vn 1.00000000 0.0000000e+0 0.0000000e+0
vn 0.0000000e+0 0.0000000e+0 -1.00000000
vn 0.0000000e+0 -1.00000000 0.0000000e+0
vn -1.00000000 0.0000000e+0 0.0000000e+0
vn 0.0000000e+0 0.0000000e+0 1.00000000
vn 0.0000000e+0 -1.00000000 0.0000000e+0
vn 0.0000000e+0 1.00000000 0.0000000e+0
vn -1.00000000 0.0000000e+0 0.0000000e+0
vn 0.0000000e+0 0.0000000e+0 1.00000000
vn 0.0000000e+0 0.0000000e+0 1.00000000
vn 0.0000000e+0 1.00000000 0.0000000e+0
vn -1.00000000 0.0000000e+0 0.0000000e+0
vn 0.0000000e+0 0.0000000e+0 -1.00000000
vn 0.0000000e+0 0.0000000e+0 -1.00000000
vn -1.00000000 0.0000000e+0 0.0000000e+0
vn 0.0000000e+0 0.0000000e+0 -1.00000000
vn 0.0000000e+0 -1.00000000 0.0000000e+0
vn 0.0000000e+0 0.0000000e+0 -1.00000000
vn 0.0000000e+0 0.0000000e+0 -1.00000000
vn -1.00000000 0.0000000e+0 0.0000000e+0
vn 0.0000000e+0 -1.00000000 0.0000000e+0
vn 0.0000000e+0 0.0000000e+0 -1.00000000
vn -1.00000000 0.0000000e+0 0.0000000e+0
vn 0.0000000e+0 -1.00000000 0.0000000e+0
vn 0.0000000e+0 0.0000000e+0 -1.00000000
vn 1.00000000 0.0000000e+0 0.0000000e+0
vn 0.0000000e+0 -1.00000000 0.0000000e+0
vn 0.0000000e+0 0.0000000e+0 -1.00000000
vn 0.0000000e+0 0.0000000e+0 -1.00000000
vn 0.0000000e+0 -1.00000000 0.0000000e+0
vn 1.00000000 0.0000000e+0 0.0000000e+0
vn 0.0000000e+0 0.0000000e+0 1.00000000
vn -1.00000000 0.0000000e+0 0.0000000e+0
vn 0.0000000e+0 -1.00000000 0.0000000e+0
vn 0.0000000e+0 0.0000000e+0 1.00000000
vn 0.0000000e+0 0.0000000e+0 1.00000000
vn -1.00000000 0.0000000e+0 0.0000000e+0
vn 0.0000000e+0 -1.00000000 0.0000000e+0
vn 0.0000000e+0 0.0000000e+0 1.00000000
vn 0.0000000e+0 0.0000000e+0 1.00000000
vn 0.0000000e+0 -1.00000000 0.0000000e+0
vn 1.00000000 0.0000000e+0 0.0000000e+0
vn 0.0000000e+0 0.0000000e+0 1.00000000
vn 1.00000000 0.0000000e+0 0.0000000e+0
vn 0.0000000e+0 -1.00000000 0.0000000e+0
vn 1.00000000 0.0000000e+0 0.0000000e+0
vn 0.0000000e+0 -1.00000000 0.0000000e+0
vn 0.0000000e+0 0.0000000e+0 1.00000000
vn 1.00000000 0.0000000e+0 0.0000000e+0
vn 0.0000000e+0 1.00000000 0.0000000e+0
vn 0.0000000e+0 0.0000000e+0 1.00000000
vn 1.00000000 0.0000000e+0 0.0000000e+0
vn 0.0000000e+0 0.0000000e+0 -1.00000000
vn 0.0000000e+0 1.00000000 0.0000000e+0
vn 1.00000000 0.0000000e+0 0.0000000e+0
vn 0.0000000e+0 0.0000000e+0 -1.00000000
vn 0.0000000e+0 -1.00000000 0.0000000e+0
vn 0.0000000e+0 -1.00000000 0.0000000e+0
vn -1.00000000 0.0000000e+0 0.0000000e+0
vn 0.0000000e+0 0.0000000e+0 1.00000000
vn 0.0000000e+0 1.00000000 0.0000000e+0
vn -1.00000000 0.0000000e+0 0.0000000e+0
vn 0.0000000e+0 0.0000000e+0 1.00000000
vn 0.0000000e+0 0.0000000e+0 -1.00000000
vn 0.0000000e+0 1.00000000 0.0000000e+0
vn -1.00000000 0.0000000e+0 0.0000000e+0
vn 0.0000000e+0 0.0000000e+0 -1.00000000
vn 0.0000000e+0 -1.00000000 0.0000000e+0
vn -1.00000000 0.0000000e+0 0.0000000e+0
g cube1_sep15_default
usemtl default
f 1/18/1 4/17/10 3/25/7 2/26/4
f 1/51/2 5/61/13 8/62/23 4/50/12
f 2/42/6 6/46/18 5/38/15 1/34/3
f 3/62/9 7/52/20 6/49/16 2/61/5
f 4/40/11 8/37/22 7/45/19 3/48/8
f 6/31/17 7/32/21 8/24/24 5/23/14
f 9/63/25 12/67/36 11/68/32 10/64/28
f 9/53/27 21/57/69 18/58/59 12/54/38
f 10/83/30 22/77/70 21/81/67 9/85/26
f 11/16/33 15/5/46 14/6/42 10/15/29
f 11/4/35 17/10/54 20/80/64 15/84/49
f 12/8/37 18/12/57 17/10/53 11/4/34
f 13/7/40 24/11/78 23/9/75 14/1/45
f 14/76/43 15/72/47 16/71/50 13/75/39
f 14/1/44 23/9/74 22/77/71 10/83/31
f 15/84/48 20/80/63 19/82/60 16/86/51
f 16/60/52 19/56/62 24/55/80 13/59/41
f 17/2/56 22/3/73 23/14/76 20/13/65
f 18/74/58 21/78/68 22/79/72 17/73/55
f 20/70/66 23/66/77 24/65/79 19/69/61
f 25/22/81 28/21/90 27/29/87 26/30/84
f 25/51/82 29/61/93 32/62/103 28/50/92
f 26/41/86 30/44/98 29/36/95 25/33/83
f 27/62/89 31/52/100 30/49/96 26/61/85
f 28/39/91 32/35/102 31/43/99 27/47/88
f 30/27/97 31/28/101 32/20/104 29/19/94
