# Exported from Wings 3D 1.0.2
mtllib Table.mtl
o cube1
#104 vertices, 90 faces
v -2.80600000 1.02968034 5.06202400
v -2.80600000 1.27399317 5.06202400
v 2.80600000 1.27399317 5.06202400
v 2.80600000 1.02968034 5.06202400
v -2.80600000 1.02968034 -5.06202400
v -2.80600000 1.27399317 -5.06202400
v 2.80600000 1.27399317 -5.06202400
v 2.80600000 1.02968034 -5.06202400
v 2.76110400 1.02968034 5.01712800
v -2.76110400 1.02968034 5.01712800
v -2.76110400 1.02968034 -5.01712800
v 2.76110400 1.02968034 -5.01712800
v 2.76110400 1.15559835 5.01712800
v -2.76110400 1.15559835 5.01712800
v -2.76110400 1.15559835 -5.01712800
v 2.76110400 1.15559835 -5.01712800
v -2.74988000 1.27399317 5.00590400
v 2.74988000 1.27399317 5.00590400
v 2.74988000 1.27399317 -5.00590400
v -2.74988000 1.27399317 -5.00590400
v -2.74988000 1.23010336 5.00590400
v 2.74988000 1.23010336 5.00590400
v 2.74988000 1.23010336 -5.00590400
v -2.74988000 1.23010336 -5.00590400
v -1.61013496 1.00882987 3.41531260
v -1.61013496 1.19032363 3.41531260
v 1.65930524 1.19032363 3.41531260
v 1.65930524 1.00882987 3.41531260
v -1.61013496 1.00882987 -3.15288486
v -1.61013496 1.19032363 -3.15288486
v 1.65930524 1.19032363 -3.15288486
v 1.65930524 1.00882987 -3.15288486
v 1.56776092 1.00882987 3.32376828
v -1.51859064 1.00882987 3.32376828
v -1.51859064 1.00882987 -3.06134054
v 1.56776092 1.00882987 -3.06134054
v -1.51859064 1.19032363 3.32376828
v 1.56776092 1.19032363 3.32376828
v 1.56776092 1.19032363 -3.06134054
v -1.51859064 1.19032363 -3.06134054
v -2.54572949 -2.51533815 4.08795933
v -2.54572949 -2.33384439 4.08795933
v 2.59489977 -2.33384439 4.08795933
v 2.59489977 -2.51533815 4.08795933
v -2.54572949 -2.51533815 -3.82553159
v -2.54572949 -2.33384439 -3.82553159
v 2.59489977 -2.33384439 -3.82553159
v 2.59489977 -2.51533815 -3.82553159
v 2.51779033 -2.51533815 4.01084989
v -2.46862005 -2.51533815 4.01084989
v -2.46862005 -2.51533815 -3.74842215
v 2.51779033 -2.51533815 -3.74842215
v -2.46862005 -2.33384439 4.01084989
v 2.51779033 -2.33384439 4.01084989
v 2.51779033 -2.33384439 -3.74842215
v -2.46862005 -2.33384439 -3.74842215
v 2.89173247 -3.75399584 -3.77075061
v 1.58263080 1.07762780 -2.84839597
v 2.88074136 -3.75399584 -3.99884910
v 1.57163969 1.07762780 -3.07649445
v 1.34777313 1.07762780 -3.07649445
v 2.65687480 -3.75399584 -3.99884910
v 2.85885240 -3.75399584 -3.80268440
v 2.85093880 -3.75399584 -3.96691531
v 2.68975487 -3.75399584 -3.96691531
v 1.54975073 1.07762780 -2.88032975
v 1.38065320 1.07762780 -3.04456066
v 1.54183713 1.07762780 -3.04456066
v 2.89173247 -3.75399584 4.05819335
v 1.58263080 1.07762780 3.13583871
v 2.88074136 -3.75399584 4.28629184
v 1.57163969 1.07762780 3.36393720
v 1.34777313 1.07762780 3.36393720
v 2.65687480 -3.75399584 4.28629184
v 2.85885240 -3.75399584 4.09012714
v 2.85093880 -3.75399584 4.25435805
v 2.68975487 -3.75399584 4.25435805
v 1.54975073 1.07762780 3.16777250
v 1.38065320 1.07762780 3.33200341
v 1.54183713 1.07762780 3.33200341
v -2.85033885 -3.75399584 -3.77075061
v -1.54123718 1.07762780 -2.84839597
v -2.83934774 -3.75399584 -3.99884910
v -1.53024607 1.07762780 -3.07649445
v -1.30637951 1.07762780 -3.07649445
v -2.61548118 -3.75399584 -3.99884910
v -2.81745878 -3.75399584 -3.80268440
v -2.80954518 -3.75399584 -3.96691531
v -2.64836125 -3.75399584 -3.96691531
v -1.50835711 1.07762780 -2.88032975
v -1.33925958 1.07762780 -3.04456066
v -1.50044351 1.07762780 -3.04456066
v -2.85033885 -3.75399584 4.05819335
v -1.54123718 1.07762780 3.13583871
v -2.83934774 -3.75399584 4.28629184
v -1.53024607 1.07762780 3.36393720
v -1.30637951 1.07762780 3.36393720
v -2.61548118 -3.75399584 4.28629184
v -2.81745878 -3.75399584 4.09012714
v -2.80954518 -3.75399584 4.25435805
v -2.64836125 -3.75399584 4.25435805
v -1.50835711 1.07762780 3.16777250
v -1.33925958 1.07762780 3.33200341
v -1.50044351 1.07762780 3.33200341
vt 7.8000000e-3 1.1785859e-2
vt 7.8000000e-3 0.98705859
vt 1.2234590e-2 7.4222222e-3
vt 1.2234590e-2 7.4222222e-3
vt 1.2234590e-2 0.99142222
vt 1.2234590e-2 0.99142222
vt 1.6669180e-2 1.1785859e-2
vt 1.6669180e-2 0.98705859
vt 1.6669180e-2 0.99142222
vt 1.6669180e-2 7.4222222e-3
vt 2.2212417e-2 0.98596768
vt 2.2212417e-2 1.2876768e-2
vt 2.2212417e-2 1.2876768e-2
vt 2.2212417e-2 0.98596768
vt 2.7755654e-2 7.4222222e-3
vt 2.7755654e-2 1.3170045e-2
vt 2.7755654e-2 0.99142222
vt 2.7755654e-2 0.76732724
vt 3.5372117e-2 5.6754450e-3
vt 3.5372117e-2 1.3170045e-2
vt 3.5372117e-2 0.77482184
vt 3.5372117e-2 0.76732724
vt 4.2407273e-2 0.85716757
vt 4.2407273e-2 0.87784366
vt 4.2407273e-2 0.89851975
vt 4.2407273e-2 0.90885779
vt 4.2407273e-2 0.93987192
vt 4.2407273e-2 0.92953388
vt 4.2905420e-2 0.91919584
vt 4.2905420e-2 0.92953388
vt 4.2905420e-2 0.90885779
vt 4.2905420e-2 0.91919584
vt 4.2988580e-2 5.6754450e-3
vt 4.2988580e-2 0.77482184
vt 4.2988580e-2 0.77482184
vt 4.2988580e-2 5.6754450e-3
vt 4.3897488e-2 0.92808655
vt 4.3897488e-2 0.93842460
vt 4.3897488e-2 0.89996707
vt 4.3897488e-2 0.87929098
vt 4.3897488e-2 0.89707242
vt 4.3897488e-2 0.91030512
vt 4.3897488e-2 0.87639633
vt 4.3897488e-2 0.85861489
vt 4.4256153e-2 0.93098121
vt 4.4256153e-2 0.92064316
vt 4.4256153e-2 0.90741046
vt 4.4256153e-2 0.91774851
vt 5.0605044e-2 0.76732724
vt 5.0605044e-2 1.3170045e-2
vt 5.0605044e-2 0.77482184
vt 5.0605044e-2 5.6754450e-3
vt 5.1202782e-2 0.89707242
vt 5.1202782e-2 0.87929098
vt 5.1202782e-2 0.85861489
vt 5.1202782e-2 0.87639633
vt 5.1561448e-2 0.93098121
vt 5.1561448e-2 0.92064316
vt 5.1561448e-2 0.91774851
vt 5.1561448e-2 0.88962903
vt 5.1561448e-2 0.90741046
vt 5.1561448e-2 0.88673438
vt 5.1561448e-2 0.86605829
vt 5.1561448e-2 0.86895294
vt 5.2553515e-2 0.89851975
vt 5.2553515e-2 0.87784366
vt 5.2553515e-2 0.85716757
vt 5.2553515e-2 0.87784366
vt 5.3051662e-2 0.92953388
vt 5.3051662e-2 0.91919584
vt 5.3051662e-2 0.91919584
vt 5.3051662e-2 0.88818170
vt 5.3051662e-2 0.90885779
vt 5.3051662e-2 0.88818170
vt 5.3051662e-2 0.86750561
vt 5.8221507e-2 0.76732724
vt 5.8221507e-2 1.3170045e-2
vt 5.8221507e-2 0.64300391
vt 5.8221507e-2 4.6123971e-3
vt 6.7263772e-2 1.3509986e-2
vt 6.7263772e-2 1.3509986e-2
vt 6.7263772e-2 0.63410632
vt 6.7263772e-2 0.63410632
vt 7.3311851e-2 0.93730225
vt 7.3311851e-2 0.93929146
vt 7.3311851e-2 0.93929146
vt 7.3311851e-2 0.94751725
vt 7.3311851e-2 0.94751725
vt 7.3311851e-2 0.95574304
vt 7.3311851e-2 0.95574304
vt 7.3311851e-2 0.97219462
vt 7.3311851e-2 0.98042042
vt 7.3311851e-2 0.98042042
vt 7.3311851e-2 0.98864621
vt 7.3311851e-2 0.96396883
vt 7.3311851e-2 0.97219462
vt 7.3311851e-2 0.98864621
vt 7.3311851e-2 0.99063541
vt 7.3311851e-2 0.99063541
vt 7.3311851e-2 0.99262462
vt 7.3311851e-2 0.96396883
vt 7.6306037e-2 4.6123971e-3
vt 7.6306037e-2 0.64300391
vt 0.11264234 0.92742789
vt 0.11264234 0.13461423
vt 0.14087270 6.1443237e-2
vt 0.14087270 6.1443237e-2
vt 0.14087270 6.6986475e-2
vt 0.14087270 7.5855654e-2
vt 0.14087270 8.3472117e-2
vt 0.14087270 8.3472117e-2
vt 0.14087270 9.1088580e-2
vt 0.14087270 0.10632151
vt 0.14087270 0.12440604
vt 0.14087270 0.10632151
vt 0.14530729 7.1421064e-2
vt 0.14530729 7.1421064e-2
vt 0.14625630 1.0977778e-2
vt 0.14625630 2.2050700e-2
vt 0.14625630 2.2050700e-2
vt 0.14625630 3.8830570e-2
vt 0.14625630 3.8830570e-2
vt 0.14625630 4.4537517e-2
vt 0.14625630 3.3123623e-2
vt 0.14641594 5.5900000e-2
vt 0.14641594 6.6986475e-2
vt 0.14848917 7.5855654e-2
vt 0.14848917 9.1088580e-2
vt 0.14848917 9.8705044e-2
vt 0.14848917 9.8705044e-2
vt 0.14991497 0.11536377
vt 0.14991497 0.11536377
vt 0.32257595 0.98864621
vt 0.32257595 0.99063541
vt 0.32257595 0.99262462
vt 0.37100044 0.97219462
vt 0.37100044 0.98042042
vt 0.37100044 0.98042042
vt 0.37100044 0.98864621
vt 0.42498319 0.96396883
vt 0.42498319 0.97219462
vt 0.42498319 0.95574304
vt 0.42498319 0.96396883
vt 0.43197280 0.93929146
vt 0.43197280 0.94751725
vt 0.43197280 0.94751725
vt 0.43197280 0.95574304
vt 0.45228349 0.97005345
vt 0.45228349 0.97827924
vt 0.45228349 0.98650503
vt 0.45228349 0.96182765
vt 0.45228349 0.97005345
vt 0.45476848 0.11536377
vt 0.45476848 0.11536377
vt 0.46381074 0.12440604
vt 0.46381074 0.10632151
vt 0.52707425 0.93730225
vt 0.52707425 0.93929146
vt 0.54815657 0.92742789
vt 0.54815657 0.13461423
vt 0.59216535 0.97827924
vt 0.59216535 0.98650503
vt 0.59216535 0.97005345
vt 0.59216535 0.97827924
vt 0.60046342 0.96182765
vt 0.60046342 0.97005345
vt 0.60103610 3.3123623e-2
vt 0.60103610 3.8830570e-2
vt 0.60103610 3.8830570e-2
vt 0.60103610 4.4537517e-2
vt 0.60510571 1.0977778e-2
vt 0.60510571 2.2050700e-2
vt 0.60510571 2.2050700e-2
vt 0.60510571 3.3123623e-2
vt 0.61376225 0.11610158
vt 0.61376225 0.71230881
vt 0.64102045 9.8705044e-2
vt 0.64102045 9.8705044e-2
vt 0.64102045 7.5855654e-2
vt 0.64102045 9.1088580e-2
vt 0.64863692 0.10632151
vt 0.64863692 9.1088580e-2
vt 0.64863692 8.3472117e-2
vt 0.64863692 8.3472117e-2
vt 0.68965319 5.5900000e-2
vt 0.68965319 6.6986475e-2
vt 0.69076184 7.1421064e-2
vt 0.69313424 0.72696949
vt 0.69353461 0.99400926
vt 0.69519643 6.6986475e-2
vt 0.69519643 7.5855654e-2
vt 0.69519643 6.1443237e-2
vt 0.69519643 6.1443237e-2
vt 0.70447927 0.72393192
vt 0.70487964 0.99097169
vt 0.70665016 3.1777778e-3
vt 0.70665016 1.1403569e-2
vt 0.70665016 1.9629360e-2
vt 0.70665016 3.0702283e-2
vt 0.70665016 4.1775206e-2
vt 0.70665016 4.7482153e-2
vt 0.70665016 4.7482153e-2
vt 0.70665016 5.3189100e-2
vt 0.70665016 6.9640682e-2
vt 0.70665016 7.7866474e-2
vt 0.70665016 7.7866474e-2
vt 0.70665016 8.6092265e-2
vt 0.70665016 1.9629360e-2
vt 0.70665016 3.0702283e-2
vt 0.70665016 4.1775206e-2
vt 0.70665016 5.3189100e-2
vt 0.70665016 6.1414891e-2
vt 0.70665016 6.9640682e-2
vt 0.71604891 9.2469107e-2
vt 0.71604891 0.10069490
vt 0.71629128 0.72593434
vt 0.71669165 0.99297411
vt 0.73143617 0.98862518
vt 0.73146368 0.72158512
vt 0.73993880 0.98717157
vt 0.73996631 0.72013150
vt 0.74811027 0.98934721
vt 0.74813778 0.72230715
vt 0.75810158 0.98719857
vt 0.75812909 0.72015850
vt 0.76991079 0.98517965
vt 0.76993830 0.71813959
vt 0.78126005 0.98820138
vt 0.78128756 0.72116132
vt 0.79329326 0.72259576
vt 0.79369363 0.98963553
vt 0.80146168 0.72040871
vt 0.80186205 0.98744848
vt 0.80996633 0.72185046
vt 0.81036670 0.98889022
vt 0.81784424 0.72639171
vt 0.81824461 0.99343148
vt 0.82918927 0.72335414
vt 0.82958964 0.99039391
vt 0.84100129 0.72535656
vt 0.84140166 0.99239633
vt 0.85063224 0.98544741
vt 0.85065975 0.71840734
vt 0.85913487 0.98399379
vt 0.85916238 0.71695373
vt 0.86422884 9.2469107e-2
vt 0.86422884 0.10069490
vt 0.86730634 0.98616943
vt 0.86733385 0.71912937
vt 0.87544492 0.98416523
vt 0.87547243 0.71712517
vt 0.88725413 0.98214632
vt 0.88728164 0.71510625
vt 0.89860339 0.98516805
vt 0.89863090 0.71812798
vt 0.90440044 0.72115132
vt 0.90480081 0.98819109
vt 0.91256886 0.71896427
vt 0.91296923 0.98600404
vt 0.92107351 0.72040601
vt 0.92147388 0.98744578
vt 0.93264785 7.7866474e-2
vt 0.93264785 8.6092265e-2
vt 0.93264785 6.9640682e-2
vt 0.93264785 7.7866474e-2
vt 0.93963747 6.1414891e-2
vt 0.93963747 6.9640682e-2
vt 0.93963747 5.3189100e-2
vt 0.93963747 6.1414891e-2
vt 0.94187629 0.11610158
vt 0.94187629 0.71230881
vt 0.95693166 4.1775206e-2
vt 0.95693166 4.7482153e-2
vt 0.95693166 4.7482153e-2
vt 0.95693166 5.3189100e-2
vt 0.96100128 3.0702283e-2
vt 0.96100128 4.1775206e-2
vt 0.96100128 1.9629360e-2
vt 0.96100128 3.0702283e-2
vt 0.96441375 0.30267227
vt 0.96441375 0.75643466
vt 0.96640296 0.30267227
vt 0.96640296 0.75643466
vt 0.97342312 0.73145528
vt 0.97342312 0.29690981
vt 0.97342312 7.9637076e-2
vt 0.97358422 0.74494719
vt 0.97549855 0.73154516
vt 0.97549855 0.29699968
vt 0.97549855 7.9726947e-2
vt 0.97565952 0.74485442
vt 0.97672328 0.51427156
vt 0.97688426 0.31030810
vt 0.97688426 0.52758083
vt 0.97688426 0.96212631
vt 0.97879858 0.51417880
vt 0.97895969 0.31039797
vt 0.97895969 0.52767070
vt 0.97895969 0.96221618
vt 0.98716116 9.0903743e-2
vt 0.98732226 0.53894112
vt 0.98732226 0.97348660
vt 0.98732226 0.75621386
vt 0.98923659 9.0993614e-2
vt 0.98939757 0.53884836
vt 0.98939757 0.97339383
vt 0.98939757 0.75612109
vt 0.99046132 0.30826549
vt 0.99046132 0.74281097
vt 0.99046132 0.52553823
vt 0.99062230 0.32157476
vt 0.99253663 0.30817273
vt 0.99253663 0.74271820
vt 0.99253663 0.52544546
vt 0.99269773 0.32166463
vt 0.99604067 3.1777778e-3
vt 0.99604067 1.1403569e-2
vt 0.99604067 1.1403569e-2
vt 0.99604067 1.9629360e-2
vn 0.0000000e+0 0.0000000e+0 1.00000000
vn -1.00000000 0.0000000e+0 0.0000000e+0
vn 0.0000000e+0 -1.00000000 0.0000000e+0
vn 0.0000000e+0 -1.00000000 0.0000000e+0
vn 0.0000000e+0 0.0000000e+0 1.00000000
vn -1.00000000 0.0000000e+0 0.0000000e+0
vn 0.0000000e+0 1.00000000 0.0000000e+0
vn 0.0000000e+0 1.00000000 0.0000000e+0
vn 0.0000000e+0 0.0000000e+0 1.00000000
vn 1.00000000 0.0000000e+0 0.0000000e+0
vn 0.0000000e+0 1.00000000 0.0000000e+0
vn 0.0000000e+0 1.00000000 0.0000000e+0
vn 0.0000000e+0 0.0000000e+0 1.00000000
vn 1.00000000 0.0000000e+0 0.0000000e+0
vn 0.0000000e+0 -1.00000000 0.0000000e+0
vn 0.0000000e+0 -1.00000000 0.0000000e+0
vn 0.0000000e+0 0.0000000e+0 -1.00000000
vn -1.00000000 0.0000000e+0 0.0000000e+0
vn 0.0000000e+0 -1.00000000 0.0000000e+0
vn 0.0000000e+0 -1.00000000 0.0000000e+0
vn 0.0000000e+0 0.0000000e+0 -1.00000000
vn -1.00000000 0.0000000e+0 0.0000000e+0
vn 0.0000000e+0 1.00000000 0.0000000e+0
vn 0.0000000e+0 1.00000000 0.0000000e+0
vn 1.00000000 0.0000000e+0 0.0000000e+0
vn 0.0000000e+0 0.0000000e+0 -1.00000000
vn 0.0000000e+0 1.00000000 0.0000000e+0
vn 0.0000000e+0 1.00000000 0.0000000e+0
vn 1.00000000 0.0000000e+0 0.0000000e+0
vn 0.0000000e+0 0.0000000e+0 -1.00000000
vn 0.0000000e+0 -1.00000000 0.0000000e+0
vn 0.0000000e+0 -1.00000000 0.0000000e+0
vn 0.0000000e+0 -1.00000000 0.0000000e+0
vn 0.0000000e+0 -1.00000000 0.0000000e+0
vn 0.0000000e+0 0.0000000e+0 -1.00000000
vn -1.00000000 0.0000000e+0 0.0000000e+0
vn 0.0000000e+0 -1.00000000 0.0000000e+0
vn 0.0000000e+0 -1.00000000 0.0000000e+0
vn 0.0000000e+0 0.0000000e+0 -1.00000000
vn 1.00000000 0.0000000e+0 0.0000000e+0
vn 0.0000000e+0 -1.00000000 0.0000000e+0
vn 0.0000000e+0 -1.00000000 0.0000000e+0
vn 1.00000000 0.0000000e+0 0.0000000e+0
vn 0.0000000e+0 0.0000000e+0 1.00000000
vn 0.0000000e+0 -1.00000000 0.0000000e+0
vn 0.0000000e+0 -1.00000000 0.0000000e+0
vn 0.0000000e+0 0.0000000e+0 1.00000000
vn -1.00000000 0.0000000e+0 0.0000000e+0
vn 0.0000000e+0 -1.00000000 0.0000000e+0
vn 0.0000000e+0 0.0000000e+0 -1.00000000
vn -1.00000000 0.0000000e+0 0.0000000e+0
vn 0.0000000e+0 -1.00000000 0.0000000e+0
vn 0.0000000e+0 0.0000000e+0 -1.00000000
vn 1.00000000 0.0000000e+0 0.0000000e+0
vn 0.0000000e+0 -1.00000000 0.0000000e+0
vn 1.00000000 0.0000000e+0 0.0000000e+0
vn 0.0000000e+0 0.0000000e+0 1.00000000
vn 0.0000000e+0 -1.00000000 0.0000000e+0
vn 0.0000000e+0 0.0000000e+0 1.00000000
vn -1.00000000 0.0000000e+0 0.0000000e+0
vn 0.0000000e+0 1.00000000 0.0000000e+0
vn 0.0000000e+0 1.00000000 0.0000000e+0
vn 0.0000000e+0 0.0000000e+0 -1.00000000
vn 1.00000000 0.0000000e+0 0.0000000e+0
vn 0.0000000e+0 1.00000000 0.0000000e+0
vn 0.0000000e+0 1.00000000 0.0000000e+0
vn 0.0000000e+0 0.0000000e+0 -1.00000000
vn -1.00000000 0.0000000e+0 0.0000000e+0
vn 0.0000000e+0 1.00000000 0.0000000e+0
vn 0.0000000e+0 1.00000000 0.0000000e+0
vn -1.00000000 0.0000000e+0 0.0000000e+0
vn 0.0000000e+0 0.0000000e+0 1.00000000
vn 0.0000000e+0 1.00000000 0.0000000e+0
vn 0.0000000e+0 1.00000000 0.0000000e+0
vn 0.0000000e+0 0.0000000e+0 1.00000000
vn 1.00000000 0.0000000e+0 0.0000000e+0
vn 0.0000000e+0 1.00000000 0.0000000e+0
vn 0.0000000e+0 0.0000000e+0 -1.00000000
vn 1.00000000 0.0000000e+0 0.0000000e+0
vn 0.0000000e+0 1.00000000 0.0000000e+0
vn 0.0000000e+0 0.0000000e+0 -1.00000000
vn -1.00000000 0.0000000e+0 0.0000000e+0
vn 0.0000000e+0 1.00000000 0.0000000e+0
vn -1.00000000 0.0000000e+0 0.0000000e+0
vn 0.0000000e+0 0.0000000e+0 1.00000000
vn 0.0000000e+0 1.00000000 0.0000000e+0
vn 0.0000000e+0 0.0000000e+0 1.00000000
vn 1.00000000 0.0000000e+0 0.0000000e+0
vn 0.0000000e+0 0.0000000e+0 1.00000000
vn -1.00000000 0.0000000e+0 0.0000000e+0
vn 0.0000000e+0 -1.00000000 0.0000000e+0
vn 0.0000000e+0 -1.00000000 0.0000000e+0
vn 0.0000000e+0 0.0000000e+0 1.00000000
vn -1.00000000 0.0000000e+0 0.0000000e+0
vn 0.0000000e+0 0.0000000e+0 1.00000000
vn 1.00000000 0.0000000e+0 0.0000000e+0
vn 0.0000000e+0 0.0000000e+0 1.00000000
vn 1.00000000 0.0000000e+0 0.0000000e+0
vn 0.0000000e+0 -1.00000000 0.0000000e+0
vn 0.0000000e+0 -1.00000000 0.0000000e+0
vn 0.0000000e+0 0.0000000e+0 -1.00000000
vn -1.00000000 0.0000000e+0 0.0000000e+0
vn 0.0000000e+0 -1.00000000 0.0000000e+0
vn 0.0000000e+0 -1.00000000 0.0000000e+0
vn 0.0000000e+0 0.0000000e+0 -1.00000000
vn -1.00000000 0.0000000e+0 0.0000000e+0
vn 1.00000000 0.0000000e+0 0.0000000e+0
vn 0.0000000e+0 0.0000000e+0 -1.00000000
vn 1.00000000 0.0000000e+0 0.0000000e+0
vn 0.0000000e+0 0.0000000e+0 -1.00000000
vn 0.0000000e+0 -1.00000000 0.0000000e+0
vn 0.0000000e+0 -1.00000000 0.0000000e+0
vn 0.0000000e+0 -1.00000000 0.0000000e+0
vn 0.0000000e+0 -1.00000000 0.0000000e+0
vn 0.0000000e+0 0.0000000e+0 -1.00000000
vn -1.00000000 0.0000000e+0 0.0000000e+0
vn 0.0000000e+0 -1.00000000 0.0000000e+0
vn 0.0000000e+0 -1.00000000 0.0000000e+0
vn 0.0000000e+0 0.0000000e+0 -1.00000000
vn 1.00000000 0.0000000e+0 0.0000000e+0
vn 0.0000000e+0 -1.00000000 0.0000000e+0
vn 0.0000000e+0 -1.00000000 0.0000000e+0
vn 0.0000000e+0 0.0000000e+0 1.00000000
vn 1.00000000 0.0000000e+0 0.0000000e+0
vn 0.0000000e+0 -1.00000000 0.0000000e+0
vn 0.0000000e+0 -1.00000000 0.0000000e+0
vn -1.00000000 0.0000000e+0 0.0000000e+0
vn 0.0000000e+0 0.0000000e+0 1.00000000
vn 0.0000000e+0 0.0000000e+0 -1.00000000
vn 1.00000000 0.0000000e+0 0.0000000e+0
vn 0.0000000e+0 0.0000000e+0 -1.00000000
vn -1.00000000 0.0000000e+0 0.0000000e+0
vn -1.00000000 0.0000000e+0 0.0000000e+0
vn 0.0000000e+0 0.0000000e+0 1.00000000
vn 0.0000000e+0 0.0000000e+0 1.00000000
vn 1.00000000 0.0000000e+0 0.0000000e+0
vn 0.0000000e+0 0.0000000e+0 1.00000000
vn -1.00000000 0.0000000e+0 0.0000000e+0
vn 0.0000000e+0 -1.00000000 0.0000000e+0
vn 0.0000000e+0 -1.00000000 0.0000000e+0
vn 0.0000000e+0 0.0000000e+0 1.00000000
vn -1.00000000 0.0000000e+0 0.0000000e+0
vn 0.0000000e+0 1.00000000 0.0000000e+0
vn 0.0000000e+0 1.00000000 0.0000000e+0
vn 0.0000000e+0 0.0000000e+0 1.00000000
vn 1.00000000 0.0000000e+0 0.0000000e+0
vn 0.0000000e+0 1.00000000 0.0000000e+0
vn 0.0000000e+0 1.00000000 0.0000000e+0
vn 0.0000000e+0 0.0000000e+0 1.00000000
vn 1.00000000 0.0000000e+0 0.0000000e+0
vn 0.0000000e+0 -1.00000000 0.0000000e+0
vn 0.0000000e+0 -1.00000000 0.0000000e+0
vn 0.0000000e+0 0.0000000e+0 -1.00000000
vn -1.00000000 0.0000000e+0 0.0000000e+0
vn 0.0000000e+0 -1.00000000 0.0000000e+0
vn 0.0000000e+0 -1.00000000 0.0000000e+0
vn 0.0000000e+0 0.0000000e+0 -1.00000000
vn -1.00000000 0.0000000e+0 0.0000000e+0
vn 0.0000000e+0 1.00000000 0.0000000e+0
vn 0.0000000e+0 1.00000000 0.0000000e+0
vn 1.00000000 0.0000000e+0 0.0000000e+0
vn 0.0000000e+0 0.0000000e+0 -1.00000000
vn 0.0000000e+0 1.00000000 0.0000000e+0
vn 0.0000000e+0 1.00000000 0.0000000e+0
vn 1.00000000 0.0000000e+0 0.0000000e+0
vn 0.0000000e+0 0.0000000e+0 -1.00000000
vn 0.0000000e+0 -1.00000000 0.0000000e+0
vn 0.0000000e+0 -1.00000000 0.0000000e+0
vn 0.0000000e+0 -1.00000000 0.0000000e+0
vn 0.0000000e+0 -1.00000000 0.0000000e+0
vn 0.0000000e+0 0.0000000e+0 -1.00000000
vn -1.00000000 0.0000000e+0 0.0000000e+0
vn 0.0000000e+0 -1.00000000 0.0000000e+0
vn 0.0000000e+0 -1.00000000 0.0000000e+0
vn 0.0000000e+0 0.0000000e+0 -1.00000000
vn 1.00000000 0.0000000e+0 0.0000000e+0
vn 0.0000000e+0 -1.00000000 0.0000000e+0
vn 0.0000000e+0 -1.00000000 0.0000000e+0
vn 0.0000000e+0 0.0000000e+0 1.00000000
vn 1.00000000 0.0000000e+0 0.0000000e+0
vn 0.0000000e+0 -1.00000000 0.0000000e+0
vn 0.0000000e+0 -1.00000000 0.0000000e+0
vn -1.00000000 0.0000000e+0 0.0000000e+0
vn 0.0000000e+0 0.0000000e+0 1.00000000
vn 0.0000000e+0 1.00000000 0.0000000e+0
vn 0.0000000e+0 1.00000000 0.0000000e+0
vn 0.0000000e+0 0.0000000e+0 -1.00000000
vn 1.00000000 0.0000000e+0 0.0000000e+0
vn 0.0000000e+0 1.00000000 0.0000000e+0
vn 0.0000000e+0 1.00000000 0.0000000e+0
vn 0.0000000e+0 0.0000000e+0 -1.00000000
vn -1.00000000 0.0000000e+0 0.0000000e+0
vn 0.0000000e+0 1.00000000 0.0000000e+0
vn 0.0000000e+0 1.00000000 0.0000000e+0
vn -1.00000000 0.0000000e+0 0.0000000e+0
vn 0.0000000e+0 0.0000000e+0 1.00000000
vn 0.0000000e+0 1.00000000 0.0000000e+0
vn 0.0000000e+0 1.00000000 0.0000000e+0
vn 0.0000000e+0 0.0000000e+0 1.00000000
vn 1.00000000 0.0000000e+0 0.0000000e+0
vn 0.96189335 0.26946780 -4.6349606e-2
vn 0.0000000e+0 -1.00000000 0.0000000e+0
vn -0.66245496 -0.30969827 0.68208533
vn 0.96189335 0.26946780 -4.6349606e-2
vn 0.0000000e+0 1.00000000 0.0000000e+0
vn -0.66245496 -0.30969827 0.68208533
vn -2.0164398e-16 0.18751336 -0.98226205
vn 0.96189335 0.26946780 -4.6349606e-2
vn 0.0000000e+0 -1.00000000 0.0000000e+0
vn 0.0000000e+0 -1.00000000 0.0000000e+0
vn -2.0164398e-16 0.18751336 -0.98226205
vn 0.96189335 0.26946780 -4.6349606e-2
vn 0.0000000e+0 1.00000000 0.0000000e+0
vn 0.0000000e+0 1.00000000 0.0000000e+0
vn -2.0164398e-16 0.18751336 -0.98226205
vn 0.0000000e+0 1.00000000 0.0000000e+0
vn -0.66245496 -0.30969827 0.68208533
vn -2.0164398e-16 0.18751336 -0.98226205
vn 0.0000000e+0 -1.00000000 0.0000000e+0
vn -0.66245496 -0.30969827 0.68208533
vn 0.0000000e+0 -1.00000000 0.0000000e+0
vn -0.66245496 -0.30969827 0.68208533
vn -0.96189335 -0.26946780 4.6349606e-2
vn 0.0000000e+0 -1.00000000 0.0000000e+0
vn 0.0000000e+0 -1.00000000 0.0000000e+0
vn -0.96189335 -0.26946780 4.6349606e-2
vn 0.0000000e+0 -0.18751336 0.98226205
vn 0.0000000e+0 -1.00000000 0.0000000e+0
vn 0.0000000e+0 -0.18751336 0.98226205
vn -0.66245496 -0.30969827 0.68208533
vn 0.0000000e+0 1.00000000 0.0000000e+0
vn -0.66245496 -0.30969827 0.68208533
vn -0.96189335 -0.26946780 4.6349606e-2
vn 0.0000000e+0 1.00000000 0.0000000e+0
vn 0.0000000e+0 -0.18751336 0.98226205
vn -0.66245496 -0.30969827 0.68208533
vn 0.0000000e+0 1.00000000 0.0000000e+0
vn 0.0000000e+0 1.00000000 0.0000000e+0
vn -0.96189335 -0.26946780 4.6349606e-2
vn 0.0000000e+0 -0.18751336 0.98226205
vn 0.96189335 0.26946780 4.6349606e-2
vn 0.0000000e+0 -1.00000000 0.0000000e+0
vn -0.66245496 -0.30969827 -0.68208533
vn 0.96189335 0.26946780 4.6349606e-2
vn 0.0000000e+0 1.00000000 0.0000000e+0
vn -0.66245496 -0.30969827 -0.68208533
vn -1.0082199e-16 0.18751336 0.98226205
vn 0.96189335 0.26946780 4.6349606e-2
vn 0.0000000e+0 -1.00000000 0.0000000e+0
vn 0.0000000e+0 -1.00000000 0.0000000e+0
vn -1.0082199e-16 0.18751336 0.98226205
vn 0.96189335 0.26946780 4.6349606e-2
vn 0.0000000e+0 1.00000000 0.0000000e+0
vn 0.0000000e+0 1.00000000 0.0000000e+0
vn -1.0082199e-16 0.18751336 0.98226205
vn 0.0000000e+0 1.00000000 0.0000000e+0
vn -0.66245496 -0.30969827 -0.68208533
vn -1.0082199e-16 0.18751336 0.98226205
vn 0.0000000e+0 -1.00000000 0.0000000e+0
vn -0.66245496 -0.30969827 -0.68208533
vn 0.0000000e+0 -1.00000000 0.0000000e+0
vn -0.66245496 -0.30969827 -0.68208533
vn -0.96189335 -0.26946780 -4.6349606e-2
vn 0.0000000e+0 -1.00000000 0.0000000e+0
vn 0.0000000e+0 -1.00000000 0.0000000e+0
vn -0.96189335 -0.26946780 -4.6349606e-2
vn 0.0000000e+0 -0.18751336 -0.98226205
vn 0.0000000e+0 -1.00000000 0.0000000e+0
vn 0.0000000e+0 -0.18751336 -0.98226205
vn -0.66245496 -0.30969827 -0.68208533
vn 0.0000000e+0 1.00000000 0.0000000e+0
vn -0.66245496 -0.30969827 -0.68208533
vn -0.96189335 -0.26946780 -4.6349606e-2
vn 0.0000000e+0 1.00000000 0.0000000e+0
vn 0.0000000e+0 -0.18751336 -0.98226205
vn -0.66245496 -0.30969827 -0.68208533
vn 0.0000000e+0 1.00000000 0.0000000e+0
vn 0.0000000e+0 1.00000000 0.0000000e+0
vn -0.96189335 -0.26946780 -4.6349606e-2
vn 0.0000000e+0 -0.18751336 -0.98226205
vn -0.96189335 0.26946780 -4.6349606e-2
vn 0.0000000e+0 -1.00000000 0.0000000e+0
vn 0.66245496 -0.30969827 0.68208533
vn -0.96189335 0.26946780 -4.6349606e-2
vn 0.0000000e+0 1.00000000 0.0000000e+0
vn 0.66245496 -0.30969827 0.68208533
vn 1.0082199e-16 0.18751336 -0.98226205
vn -0.96189335 0.26946780 -4.6349606e-2
vn 0.0000000e+0 -1.00000000 0.0000000e+0
vn 0.0000000e+0 -1.00000000 0.0000000e+0
vn 1.0082199e-16 0.18751336 -0.98226205
vn -0.96189335 0.26946780 -4.6349606e-2
vn 0.0000000e+0 1.00000000 0.0000000e+0
vn 0.0000000e+0 1.00000000 0.0000000e+0
vn 1.0082199e-16 0.18751336 -0.98226205
vn 0.0000000e+0 1.00000000 0.0000000e+0
vn 0.66245496 -0.30969827 0.68208533
vn 1.0082199e-16 0.18751336 -0.98226205
vn 0.0000000e+0 -1.00000000 0.0000000e+0
vn 0.66245496 -0.30969827 0.68208533
vn 0.0000000e+0 -1.00000000 0.0000000e+0
vn 0.66245496 -0.30969827 0.68208533
vn 0.96189335 -0.26946780 4.6349606e-2
vn 0.0000000e+0 -1.00000000 0.0000000e+0
vn 0.0000000e+0 -1.00000000 0.0000000e+0
vn 0.96189335 -0.26946780 4.6349606e-2
vn 0.0000000e+0 -0.18751336 0.98226205
vn 0.0000000e+0 -1.00000000 0.0000000e+0
vn 0.0000000e+0 -0.18751336 0.98226205
vn 0.66245496 -0.30969827 0.68208533
vn 0.0000000e+0 1.00000000 0.0000000e+0
vn 0.66245496 -0.30969827 0.68208533
vn 0.96189335 -0.26946780 4.6349606e-2
vn 0.0000000e+0 1.00000000 0.0000000e+0
vn 0.0000000e+0 -0.18751336 0.98226205
vn 0.66245496 -0.30969827 0.68208533
vn 0.0000000e+0 1.00000000 0.0000000e+0
vn 0.0000000e+0 1.00000000 0.0000000e+0
vn 0.96189335 -0.26946780 4.6349606e-2
vn 0.0000000e+0 -0.18751336 0.98226205
vn -0.96189335 0.26946780 4.6349606e-2
vn 0.0000000e+0 -1.00000000 0.0000000e+0
vn 0.66245496 -0.30969827 -0.68208533
vn -0.96189335 0.26946780 4.6349606e-2
vn 0.0000000e+0 1.00000000 0.0000000e+0
vn 0.66245496 -0.30969827 -0.68208533
vn 0.0000000e+0 0.18751336 0.98226205
vn -0.96189335 0.26946780 4.6349606e-2
vn 0.0000000e+0 -1.00000000 0.0000000e+0
vn 0.0000000e+0 -1.00000000 0.0000000e+0
vn 0.0000000e+0 0.18751336 0.98226205
vn -0.96189335 0.26946780 4.6349606e-2
vn 0.0000000e+0 1.00000000 0.0000000e+0
vn 0.0000000e+0 1.00000000 0.0000000e+0
vn 0.0000000e+0 0.18751336 0.98226205
vn 0.0000000e+0 1.00000000 0.0000000e+0
vn 0.66245496 -0.30969827 -0.68208533
vn 0.0000000e+0 0.18751336 0.98226205
vn 0.0000000e+0 -1.00000000 0.0000000e+0
vn 0.66245496 -0.30969827 -0.68208533
vn 0.0000000e+0 -1.00000000 0.0000000e+0
vn 0.66245496 -0.30969827 -0.68208533
vn 0.96189335 -0.26946780 -4.6349606e-2
vn 0.0000000e+0 -1.00000000 0.0000000e+0
vn 0.0000000e+0 -1.00000000 0.0000000e+0
vn 0.96189335 -0.26946780 -4.6349606e-2
vn 0.0000000e+0 -0.18751336 -0.98226205
vn 0.0000000e+0 -1.00000000 0.0000000e+0
vn 0.0000000e+0 -0.18751336 -0.98226205
vn 0.66245496 -0.30969827 -0.68208533
vn 0.0000000e+0 1.00000000 0.0000000e+0
vn 0.66245496 -0.30969827 -0.68208533
vn 0.96189335 -0.26946780 -4.6349606e-2
vn 0.0000000e+0 1.00000000 0.0000000e+0
vn 0.0000000e+0 -0.18751336 -0.98226205
vn 0.66245496 -0.30969827 -0.68208533
vn 0.0000000e+0 1.00000000 0.0000000e+0
vn 0.0000000e+0 1.00000000 0.0000000e+0
vn 0.96189335 -0.26946780 -4.6349606e-2
vn 0.0000000e+0 -0.18751336 -0.98226205
g cube1_default
usemtl default
f 1/209/1 4/276/13 3/277/9 2/210/5
f 1/190/3 10/187/37 9/116/33 4/108/15
f 2/174/6 6/124/22 5/120/18 1/173/2
f 2/10/8 17/13/62 20/11/74 6/9/24
f 3/193/11 18/186/65 17/126/61 2/107/7
f 4/118/14 8/171/29 7/172/25 3/119/10
f 4/4/16 9/7/34 12/8/46 8/6/32
f 5/5/19 11/2/41 10/1/38 1/3/4
f 6/279/21 7/199/26 8/198/30 5/278/17
f 6/106/23 20/125/73 19/185/70 7/192/28
f 7/17/27 19/14/69 18/12/66 3/15/12
f 8/109/31 12/117/45 11/187/42 5/191/20
f 9/167/36 13/168/51 16/121/60 12/124/48
f 10/273/39 14/275/53 13/203/50 9/202/35
f 11/169/43 15/170/56 14/123/54 10/122/40
f 12/272/47 16/274/59 15/201/57 11/200/44
f 14/270/52 15/271/55 16/176/58 13/175/49
f 17/85/64 21/84/79 24/157/88 20/158/76
f 18/100/67 22/99/81 21/134/78 17/135/63
f 19/280/71 23/282/84 22/283/82 18/281/68
f 20/98/75 24/97/87 23/133/85 19/134/72
f 22/160/80 23/159/83 24/104/86 21/105/77
f 25/151/89 28/165/97 27/166/95 26/152/93
f 25/156/91 34/154/117 33/132/113 28/113/99
f 26/139/94 30/94/106 29/93/102 25/138/90
f 28/91/98 32/136/109 31/137/107 27/92/96
f 28/79/100 33/80/114 36/82/126 32/78/112
f 29/103/103 35/83/121 34/81/118 25/102/92
f 30/247/105 31/215/108 32/214/110 29/246/101
f 32/114/111 36/131/125 35/153/122 29/155/104
f 33/316/116 38/317/132 39/197/133 36/196/127
f 34/161/119 37/162/129 38/150/131 33/149/115
f 35/318/124 40/319/136 37/208/130 34/197/120
f 36/163/128 39/164/134 40/149/135 35/148/123
f 41/212/137 44/266/149 43/267/145 42/204/141
f 41/182/139 50/178/173 49/129/169 44/112/151
f 42/145/142 46/87/158 45/86/154 41/144/138
f 42/52/144 53/77/186 56/76/198 46/51/160
f 43/184/147 54/180/189 53/128/185 42/111/143
f 44/88/150 48/146/165 47/147/161 43/89/146
f 44/36/152 49/50/170 52/49/182 48/34/168
f 45/35/155 51/22/177 50/20/174 41/33/140
f 46/269/157 47/212/162 48/211/166 45/268/153
f 46/115/159 56/130/197 55/177/194 47/181/164
f 47/21/163 55/18/193 54/16/190 43/19/148
f 48/110/167 52/127/181 51/179/178 45/183/156
f 49/142/172 54/143/192 55/95/195 52/90/183
f 50/262/175 53/263/187 54/207/191 49/206/171
f 51/140/180 56/141/200 53/96/188 50/101/176
f 52/264/184 55/265/196 56/205/199 51/213/179
f 57/225/201 59/227/208 60/226/212 58/224/204
f 57/26/202 63/42/221 64/48/224 59/32/209
f 58/291/206 66/287/232 63/292/222 57/296/203
f 59/227/207 62/229/218 61/228/215 60/226/211
f 59/32/210 64/48/225 65/59/228 62/71/219
f 60/68/214 68/56/238 66/64/231 58/75/205
f 61/24/216 67/43/234 68/56/237 60/68/213
f 62/310/220 65/314/230 67/307/236 61/303/217
f 63/234/223 66/235/233 68/233/239 64/232/226
f 64/232/227 68/233/240 67/231/235 65/230/229
f 69/300/243 75/304/262 78/315/272 70/311/246
f 70/217/244 72/195/252 71/194/248 69/216/241
f 70/74/245 78/62/271 80/54/278 72/66/254
f 71/30/249 76/45/264 75/38/261 69/27/242
f 72/195/251 73/189/255 74/188/258 71/194/247
f 72/66/253 80/54/277 79/40/274 73/24/256
f 73/299/257 79/295/276 77/284/270 74/288/260
f 74/69/259 77/57/268 76/45/265 71/30/250
f 76/245/266 80/244/279 78/242/273 75/243/263
f 77/249/269 79/248/275 80/244/280 76/245/267
f 81/285/283 87/289/302 90/298/312 82/294/286
f 82/241/284 84/239/292 83/238/288 81/240/281
f 82/25/285 90/39/311 92/47/318 84/31/294
f 83/65/289 88/53/304 87/60/301 81/72/282
f 84/239/291 85/237/295 86/236/298 83/238/287
f 84/31/293 92/47/317 91/61/314 85/73/296
f 85/297/297 91/293/316 89/286/310 86/290/300
f 86/25/299 89/41/308 88/53/305 83/65/290
f 88/221/306 92/220/319 90/218/313 87/219/303
f 89/223/309 91/222/315 92/220/320 88/221/307
f 93/251/321 95/253/328 96/252/332 94/250/324
f 93/75/322 99/63/341 100/55/344 95/67/329
f 94/305/326 102/301/352 99/308/342 93/312/323
f 95/253/327 98/255/338 97/254/335 96/252/331
f 95/67/330 100/55/345 101/44/348 98/23/339
f 96/29/334 104/46/358 102/37/351 94/28/325
f 97/70/336 103/58/354 104/46/357 96/29/333
f 98/309/340 101/313/350 103/306/356 97/302/337
f 99/260/343 102/261/353 104/259/359 100/258/346
f 100/258/347 104/259/360 103/257/355 101/256/349
