# Exported from Wings 3D 1.0.2
mtllib TrapDoor.mtl
o cube1
#32 vertices, 20 faces
v -2.07400000 -5.8461912e-2 2.07400000
v -2.07400000 5.8461912e-2 2.07400000
v 2.07400000 5.8461912e-2 2.07400000
v 2.07400000 -5.8461912e-2 2.07400000
v -2.07400000 -5.8461912e-2 -2.07400000
v -2.07400000 5.8461912e-2 -2.07400000
v 2.07400000 5.8461912e-2 -2.07400000
v 2.07400000 -5.8461912e-2 -2.07400000
v 0.13645362 -0.13626840 1.31895979
v 9.9106343e-2 -0.13626840 1.44423872
v -2.8062035e-2 -0.13626840 1.47453450
v -0.11788314 -0.13626840 1.37955135
v -8.0535867e-2 -0.13626840 1.25427241
v 4.6632511e-2 -0.13626840 1.22397663
v 0.13645362 -3.3853978e-2 1.31895979
v 9.9106343e-2 -3.3853978e-2 1.44423872
v -2.8062035e-2 -3.3853978e-2 1.47453450
v -0.11788314 -3.3853978e-2 1.37955135
v -8.0535867e-2 -3.3853978e-2 1.25427241
v 4.6632511e-2 -3.3853978e-2 1.22397663
v 0.13645362 0.14685406 1.31895979
v 9.9106343e-2 0.14685406 1.44423872
v -2.8062035e-2 0.14685406 1.47453450
v -0.11788314 0.14685406 1.37955135
v -8.0535867e-2 0.14685406 1.25427241
v 4.6632511e-2 0.14685406 1.22397663
v 0.13645362 4.4439632e-2 1.31895979
v 9.9106343e-2 4.4439632e-2 1.44423872
v -2.8062035e-2 4.4439632e-2 1.47453450
v -0.11788314 4.4439632e-2 1.37955135
v -8.0535867e-2 4.4439632e-2 1.25427241
v 4.6632511e-2 4.4439632e-2 1.22397663
vt 0.0000000e+0 1.00000000
vt 1.1102230e-16 1.00000000
vt 2.2204460e-16 0.0000000e+0
vt 0.46523583 4.1464242e-2
vt 0.46523583 4.1464242e-2
vt 0.46523583 4.1464242e-2
vt 0.46523583 5.6403882e-2
vt 0.46523583 5.6403882e-2
vt 0.46523583 4.1464242e-2
vt 0.46523583 5.6403882e-2
vt 0.47534365 0.17932305
vt 0.48482198 0.15618950
vt 0.49063873 0.19909831
vt 0.49266366 0.11538792
vt 0.50616526 0.10119994
vt 0.50959539 0.15283120
vt 0.51077397 0.13262209
vt 0.51541214 0.19574000
vt 0.52427557 0.11843411
vt 0.52489047 0.17260645
vt 0.52888429 0.14985626
vt 0.54238588 0.13566827
vt 0.54699460 0.16709043
vt 0.56049620 0.15290244
vt 0.56510491 0.18432460
vt 0.57860651 0.17013661
vt 0.58321523 0.20155876
vt 0.59671682 0.18737078
vt 0.60132554 0.21879293
vt 0.61482714 0.20460495
vt 0.99523583 4.1464242e-2
vt 0.99523583 4.1464242e-2
vt 0.99523583 5.6403882e-2
vt 0.99523583 4.1464242e-2
vt 0.99523583 4.1464242e-2
vt 0.99523583 5.6403882e-2
vt 0.99523583 5.6403882e-2
vt 0.99523583 5.6403882e-2
vt 1.00000000 0.0000000e+0
vt 1.00000000 1.00000000
vt 1.00000000 2.2204460e-16
vt 1.00000000 1.00000000
vn 0.0000000e+0 0.0000000e+0 1.00000000
vn 0.0000000e+0 -1.00000000 0.0000000e+0
vn -1.00000000 0.0000000e+0 0.0000000e+0
vn 0.0000000e+0 0.0000000e+0 1.00000000
vn 0.0000000e+0 1.00000000 0.0000000e+0
vn -1.00000000 0.0000000e+0 0.0000000e+0
vn 0.0000000e+0 0.0000000e+0 1.00000000
vn 1.00000000 0.0000000e+0 0.0000000e+0
vn 0.0000000e+0 1.00000000 0.0000000e+0
vn 0.0000000e+0 0.0000000e+0 1.00000000
vn 1.00000000 0.0000000e+0 0.0000000e+0
vn 0.0000000e+0 -1.00000000 0.0000000e+0
vn 0.0000000e+0 -1.00000000 0.0000000e+0
vn 0.0000000e+0 0.0000000e+0 -1.00000000
vn -1.00000000 0.0000000e+0 0.0000000e+0
vn 0.0000000e+0 1.00000000 0.0000000e+0
vn 0.0000000e+0 0.0000000e+0 -1.00000000
vn -1.00000000 0.0000000e+0 0.0000000e+0
vn 1.00000000 0.0000000e+0 0.0000000e+0
vn 0.0000000e+0 1.00000000 0.0000000e+0
vn 0.0000000e+0 0.0000000e+0 -1.00000000
vn 1.00000000 0.0000000e+0 0.0000000e+0
vn 0.0000000e+0 -1.00000000 0.0000000e+0
vn 0.0000000e+0 0.0000000e+0 -1.00000000
vn 0.0000000e+0 -1.00000000 -1.9535103e-17
vn 0.72657467 0.0000000e+0 -0.68708751
vn 0.95832257 -2.5913900e-16 0.28568837
vn 0.0000000e+0 -1.00000000 -1.9535103e-17
vn 0.23174790 0.0000000e+0 0.97277588
vn 0.95832257 -2.5913900e-16 0.28568837
vn 0.0000000e+0 -1.00000000 -1.9535103e-17
vn -0.72657467 -1.0365560e-15 0.68708751
vn 0.23174790 0.0000000e+0 0.97277588
vn 0.0000000e+0 -1.00000000 -1.9535103e-17
vn -0.95832257 0.0000000e+0 -0.28568837
vn -0.72657467 -1.0365560e-15 0.68708751
vn 0.0000000e+0 -1.00000000 -1.9535103e-17
vn -0.23174790 -1.0365560e-15 -0.97277588
vn -0.95832257 0.0000000e+0 -0.28568837
vn 0.0000000e+0 -1.00000000 -1.9535103e-17
vn 0.72657467 0.0000000e+0 -0.68708751
vn -0.23174790 -1.0365560e-15 -0.97277588
vn 0.72657467 0.0000000e+0 -0.68708751
vn 0.95832257 -2.5913900e-16 0.28568837
vn 0.23174790 0.0000000e+0 0.97277588
vn 0.95832257 -2.5913900e-16 0.28568837
vn -0.72657467 -1.0365560e-15 0.68708751
vn 0.23174790 0.0000000e+0 0.97277588
vn -0.95832257 0.0000000e+0 -0.28568837
vn -0.72657467 -1.0365560e-15 0.68708751
vn -0.23174790 -1.0365560e-15 -0.97277588
vn -0.95832257 0.0000000e+0 -0.28568837
vn 0.72657467 0.0000000e+0 -0.68708751
vn -0.23174790 -1.0365560e-15 -0.97277588
vn 0.0000000e+0 1.00000000 -3.9070205e-17
vn 0.72657467 0.0000000e+0 -0.68708751
vn 0.95832257 2.5913900e-16 0.28568837
vn 0.0000000e+0 1.00000000 -3.9070205e-17
vn 0.23174790 0.0000000e+0 0.97277588
vn 0.95832257 2.5913900e-16 0.28568837
vn 0.0000000e+0 1.00000000 -3.9070205e-17
vn -0.72657467 5.1827799e-16 0.68708751
vn 0.23174790 0.0000000e+0 0.97277588
vn 0.0000000e+0 1.00000000 -3.9070205e-17
vn -0.95832257 0.0000000e+0 -0.28568837
vn -0.72657467 5.1827799e-16 0.68708751
vn 0.0000000e+0 1.00000000 -3.9070205e-17
vn -0.23174790 1.0365560e-15 -0.97277588
vn -0.95832257 0.0000000e+0 -0.28568837
vn 0.0000000e+0 1.00000000 -3.9070205e-17
vn 0.72657467 0.0000000e+0 -0.68708751
vn -0.23174790 1.0365560e-15 -0.97277588
vn 0.72657467 0.0000000e+0 -0.68708751
vn 0.95832257 2.5913900e-16 0.28568837
vn 0.23174790 0.0000000e+0 0.97277588
vn 0.95832257 2.5913900e-16 0.28568837
vn -0.72657467 5.1827799e-16 0.68708751
vn 0.23174790 0.0000000e+0 0.97277588
vn -0.95832257 0.0000000e+0 -0.28568837
vn -0.72657467 5.1827799e-16 0.68708751
vn -0.23174790 1.0365560e-15 -0.97277588
vn -0.95832257 0.0000000e+0 -0.28568837
vn 0.72657467 0.0000000e+0 -0.68708751
vn -0.23174790 1.0365560e-15 -0.97277588
g cube1_default
usemtl default
f 1/9/1 4/32/10 3/33/7 2/10/4
f 1/39/2 5/40/13 8/2/23 4/3/12
f 2/37/6 6/8/18 5/5/15 1/34/3
f 3/41/9 7/42/20 6/1/16 2/3/5
f 4/6/11 8/31/22 7/36/19 3/8/8
f 6/38/17 7/7/21 8/4/24 5/35/14
f 9/29/27 15/30/44 16/28/46 10/27/30
f 10/16/28 11/12/31 12/11/34 13/13/37 14/18/40 9/20/25
f 10/27/29 16/28/45 17/26/48 11/25/33
f 11/25/32 17/26/47 18/24/50 12/23/36
f 12/23/35 18/24/49 19/22/52 13/21/39
f 13/21/38 19/22/51 20/19/54 14/17/42
f 14/17/41 20/19/53 15/15/43 9/14/26
f 21/20/55 26/18/70 25/13/67 24/11/64 23/12/61 22/16/58
f 21/14/56 27/15/73 32/19/83 26/17/71
f 22/27/60 28/28/76 27/30/74 21/29/57
f 23/25/63 29/26/78 28/28/75 22/27/59
f 24/23/66 30/24/80 29/26/77 23/25/62
f 25/21/69 31/22/82 30/24/79 24/23/65
f 26/17/72 32/19/84 31/22/81 25/21/68
