# Exported from Wings 3D 1.0.2
mtllib WoodenBox.mtl
o cube2_sep45
#491 vertices, 421 faces
v -1.11759978 1.17767719 -1.24675843
v -1.11759978 1.20367743 -1.24675843
v 1.03769865 1.20367743 -1.28889490
v 1.03769865 1.17767719 -1.28889490
v -1.12089609 1.17767719 -1.41536621
v -1.12089609 1.20367743 -1.41536621
v 1.03440234 1.20367743 -1.45750268
v 1.03440234 1.17767719 -1.45750268
v 1.13298204 0.83308661 -1.29075770
v 1.11418205 0.81513007 -1.29039016
v 1.11088574 0.81513007 -1.45899794
v 1.12968573 0.83308661 -1.45936549
v -1.07585357 1.17767719 -1.24757458
v -1.07914989 1.17767719 -1.41618236
v -1.07914989 1.05353501 -1.41618236
v -1.07585357 1.05353501 -1.24757458
v -1.11759978 1.05353501 -1.24675843
v -1.12089609 1.05353501 -1.41536621
v -1.03077617 1.05084184 2.17135125
v -1.03077617 1.18624792 2.17135125
v 1.08453962 1.18624792 2.12999645
v 1.08453962 1.05084184 2.12999645
v -1.11489183 1.05084184 -2.13120107
v -1.11489183 1.18624792 -2.13120107
v 1.00042396 1.18624792 -2.17255587
v 1.00042396 1.05084184 -2.17255587
v 1.09899245 1.04374650 2.14396059
v 1.08939980 1.04374650 1.65329206
v 1.08208597 1.04374650 2.14429111
v 1.07249332 1.04374650 1.65362259
v 1.07249332 1.19168696 1.65362259
v 1.08208597 1.19168696 2.14429111
v 1.09899245 1.19168696 2.14396059
v 1.08939980 1.19168696 1.65329206
v 1.08178888 1.04374650 2.12909490
v 1.08178888 1.19168696 2.12909490
v 0.57297081 1.19168696 2.13904239
v 0.57297081 1.04374650 2.13904239
v 0.57326789 1.04374650 2.15423860
v 0.57326789 1.19168696 2.15423860
v -1.03581985 1.04374650 2.18569655
v -1.04541250 1.04374650 1.69502802
v -1.01891337 1.04374650 2.18536602
v -1.02850603 1.04374650 1.69469750
v -1.02850603 1.19168696 1.69469750
v -1.01891337 1.19168696 2.18536602
v -1.03581985 1.19168696 2.18569655
v -1.04541250 1.19168696 1.69502802
v -1.01921046 1.04374650 2.17016981
v -1.01921046 1.19168696 2.17016981
v -0.51039238 1.19168696 2.16022233
v -0.51039238 1.04374650 2.16022233
v -0.51009529 1.04374650 2.17541854
v -0.51009529 1.19168696 2.17541854
v -1.06554042 1.17767719 1.41610021
v -1.06554042 1.20367743 1.41610021
v 1.08975801 1.20367743 1.37396375
v 1.08975801 1.17767719 1.37396375
v -1.06883673 1.17767719 1.24749243
v -1.06883673 1.20367743 1.24749243
v 1.08646170 1.20367743 1.20535597
v 1.08646170 1.17767719 1.20535597
v 1.28539453 0.84008933 1.37013902
v 1.26659454 0.82213279 1.37050656
v 1.26329823 0.82213279 1.20189878
v 1.28209822 0.84008933 1.20153124
v -1.02379421 1.17767719 1.41528407
v -1.02709053 1.17767719 1.24667629
v -1.02709053 1.05353501 1.24667629
v -1.02379421 1.05353501 1.41528407
v -1.06554042 1.05353501 1.41610021
v -1.06883673 1.05353501 1.24749243
v -1.05786000 -1.05786000 2.15168724
v -1.05786000 1.05786000 2.15168724
v 1.05786000 1.05786000 2.15168724
v 1.05786000 -1.05786000 2.15168724
v -1.05786000 -1.05786000 -2.15168724
v -1.05786000 1.05786000 -2.15168724
v 1.05786000 1.05786000 -2.15168724
v 1.05786000 -1.05786000 -2.15168724
v -0.94784256 1.05786000 2.04166980
v 0.94784256 1.05786000 2.04166980
v 0.94784256 1.05786000 -2.04166980
v -0.94784256 1.05786000 -2.04166980
v -0.94784256 -0.79558000 2.04166980
v 0.94784256 -0.79558000 2.04166980
v 0.94784256 -0.79558000 -2.04166980
v -0.94784256 -0.79558000 -2.04166980
v -0.13890538 0.19646089 -2.38225093
v -0.13890538 0.28178989 -2.38225093
v 0.13741593 0.28178989 -2.38225093
v 0.13741593 0.19646089 -2.38225093
v -0.12823925 0.19646089 -2.30758806
v -0.12823925 0.28178989 -2.30758806
v 0.12674980 0.28178989 -2.30758806
v 0.12674980 0.19646089 -2.30758806
v 0.23689953 0.36514227 -2.21645256
v 0.23689953 0.45047126 -2.21645256
v 0.31156240 0.45047126 -2.22711869
v 0.31156240 0.36514227 -2.22711869
v 0.24178532 0.38625885 -2.06178220
v 0.24178532 0.48558180 -2.06178220
v 0.34110827 0.48558180 -2.06178220
v 0.34110827 0.38625885 -2.06178220
v -0.30168008 0.36514227 -2.22711869
v -0.30168008 0.45047126 -2.22711869
v -0.22701720 0.45047126 -2.21645256
v -0.22701720 0.36514227 -2.21645256
v -0.32933065 0.38625885 -2.06178220
v -0.32933065 0.48558180 -2.06178220
v -0.23000770 0.48558180 -2.06178220
v -0.23000770 0.38625885 -2.06178220
v 0.23081896 0.37529249 -2.00229308
v 0.23081896 0.49654816 -2.00229308
v 0.35207463 0.49654816 -2.00229308
v 0.35207463 0.37529249 -2.00229308
v -0.34029700 0.37529249 -2.00229308
v -0.34029700 0.49654816 -2.00229308
v -0.21904134 0.49654816 -2.00229308
v -0.21904134 0.37529249 -2.00229308
v -0.14068306 0.23912539 -2.39469475
v -1.6923733e-3 0.16834733 -2.40432239
v -0.13357232 0.18223939 -2.34491950
v -1.6923733e-3 0.25367632 -2.40432239
v -0.13357232 0.29601139 -2.34491950
v 0.13919361 0.23912539 -2.39469475
v 0.13208286 0.29601139 -2.34491950
v 0.13208286 0.18223939 -2.34491950
v -0.12646157 0.23912539 -2.29514425
v -1.6923733e-3 0.16834733 -2.31899340
v -1.6923733e-3 0.25367632 -2.31899340
v 0.12497212 0.23912539 -2.29514425
v 0.22445572 0.40780676 -2.21467488
v 0.27423097 0.35092077 -2.22178563
v 0.24878230 0.39325583 -2.13693675
v 0.27423097 0.46469276 -2.22178563
v 0.24878230 0.47858483 -2.13693675
v 0.32400622 0.40780676 -2.22889638
v 0.33411130 0.47858483 -2.13693675
v 0.33411130 0.39325583 -2.13693675
v 0.22523149 0.43592033 -2.06178220
v 0.29144680 0.36970502 -2.06178220
v 0.29144680 0.50213563 -2.06178220
v 0.35766210 0.43592033 -2.06178220
v 0.20125124 0.36613057 -2.27337206
v 0.20125124 0.28080158 -2.27337206
v 0.24391573 0.28080158 -2.31603656
v 0.24391573 0.36613057 -2.31603656
v -0.31412389 0.40780676 -2.22889638
v -0.26434864 0.35092077 -2.22178563
v -0.32233367 0.39325583 -2.13693675
v -0.26434864 0.46469276 -2.22178563
v -0.32233367 0.47858483 -2.13693675
v -0.21457339 0.40780676 -2.21467488
v -0.23700467 0.47858483 -2.13693675
v -0.23700467 0.39325583 -2.13693675
v -0.34588447 0.43592033 -2.06178220
v -0.27966917 0.36970502 -2.06178220
v -0.27966917 0.50213563 -2.06178220
v -0.21345387 0.43592033 -2.06178220
v -0.23971930 0.36613057 -2.31603656
v -0.23971930 0.28080158 -2.31603656
v -0.19705480 0.28080158 -2.27337206
v -0.19705480 0.36613057 -2.27337206
v 0.20213578 0.43592033 -1.99681437
v 0.22079439 0.36526792 -2.01794654
v 0.29144680 0.52523134 -1.99681437
v 0.22079439 0.50657274 -2.01794654
v 0.38075781 0.43592033 -1.99681437
v 0.36209921 0.50657274 -2.01794654
v 0.29144680 0.34660931 -1.99681437
v 0.36209921 0.36526792 -2.01794654
v -0.36898019 0.43592033 -1.99681437
v -0.35032158 0.36526792 -2.01794654
v -0.27966917 0.52523134 -1.99681437
v -0.35032158 0.50657274 -2.01794654
v -0.19035816 0.43592033 -1.99681437
v -0.20901676 0.50657274 -2.01794654
v -0.27966917 0.34660931 -1.99681437
v -0.20901676 0.36526792 -2.01794654
v -1.6923733e-3 0.21101183 -2.41854389
v -1.6923733e-3 0.15412583 -2.36165789
v -1.6923733e-3 0.26789782 -2.36165789
v -1.6923733e-3 0.21101183 -2.30477190
v 0.34833279 0.43592033 -2.13693675
v 0.29144680 0.37903433 -2.13693675
v 0.29144680 0.49280632 -2.13693675
v 0.29144680 0.43592033 -1.98977031
v 0.23456080 0.43592033 -2.13693675
v 0.19414049 0.32346608 -2.26626131
v 0.22258349 0.26658008 -2.29470431
v 0.25102648 0.32346608 -2.32314731
v 0.22258349 0.38035207 -2.29470431
v -0.22278317 0.43592033 -2.13693675
v -0.27966917 0.37903433 -2.13693675
v -0.27966917 0.49280632 -2.13693675
v -0.27966917 0.43592033 -1.98977031
v -0.33655517 0.43592033 -2.13693675
v -0.24683005 0.32346608 -2.32314731
v -0.21838705 0.26658008 -2.29470431
v -0.18994405 0.32346608 -2.26626131
v -0.21838705 0.38035207 -2.29470431
v 0.19724358 0.43592033 -2.01794654
v 0.29144680 0.53012354 -2.01794654
v 0.38565001 0.43592033 -2.01794654
v 0.29144680 0.34171711 -2.01794654
v -0.37387239 0.43592033 -2.01794654
v -0.27966917 0.53012354 -2.01794654
v -0.18546596 0.43592033 -2.01794654
v -0.27966917 0.34171711 -2.01794654
v -0.13890538 0.19646089 2.38678283
v -0.13890538 0.28178989 2.38678283
v 0.13741593 0.28178989 2.38678283
v 0.13741593 0.19646089 2.38678283
v -0.12823925 0.19646089 2.31211996
v -0.12823925 0.28178989 2.31211996
v 0.12674980 0.28178989 2.31211996
v 0.12674980 0.19646089 2.31211996
v 0.23689953 0.36514227 2.22098446
v 0.23689953 0.45047126 2.22098446
v 0.31156240 0.45047126 2.23165059
v 0.31156240 0.36514227 2.23165059
v 0.24178532 0.38625885 2.06631410
v 0.24178532 0.48558180 2.06631410
v 0.34110827 0.48558180 2.06631410
v 0.34110827 0.38625885 2.06631410
v -0.30168008 0.36514227 2.23165059
v -0.30168008 0.45047126 2.23165059
v -0.22701720 0.45047126 2.22098446
v -0.22701720 0.36514227 2.22098446
v -0.32933065 0.38625885 2.06631410
v -0.32933065 0.48558180 2.06631410
v -0.23000770 0.48558180 2.06631410
v -0.23000770 0.38625885 2.06631410
v 0.23081896 0.37529249 2.00682498
v 0.23081896 0.49654816 2.00682498
v 0.35207463 0.49654816 2.00682498
v 0.35207463 0.37529249 2.00682498
v -0.34029700 0.37529249 2.00682498
v -0.34029700 0.49654816 2.00682498
v -0.21904134 0.49654816 2.00682498
v -0.21904134 0.37529249 2.00682498
v -0.14068306 0.23912539 2.39922664
v -1.6923733e-3 0.16834733 2.40885429
v -0.13357232 0.18223939 2.34945140
v -1.6923733e-3 0.25367632 2.40885429
v -0.13357232 0.29601139 2.34945140
v 0.13919361 0.23912539 2.39922664
v 0.13208286 0.29601139 2.34945140
v 0.13208286 0.18223939 2.34945140
v -0.12646157 0.23912539 2.29967615
v -1.6923733e-3 0.16834733 2.32352529
v -1.6923733e-3 0.25367632 2.32352529
v 0.12497212 0.23912539 2.29967615
v 0.22445572 0.40780676 2.21920677
v 0.27423097 0.35092077 2.22631752
v 0.24878230 0.39325583 2.14146864
v 0.27423097 0.46469276 2.22631752
v 0.24878230 0.47858483 2.14146864
v 0.32400622 0.40780676 2.23342827
v 0.33411130 0.47858483 2.14146864
v 0.33411130 0.39325583 2.14146864
v 0.22523149 0.43592033 2.06631410
v 0.29144680 0.36970502 2.06631410
v 0.29144680 0.50213563 2.06631410
v 0.35766210 0.43592033 2.06631410
v 0.20125124 0.36613057 2.27790396
v 0.20125124 0.28080158 2.27790396
v 0.24391573 0.28080158 2.32056846
v 0.24391573 0.36613057 2.32056846
v -0.31412389 0.40780676 2.23342827
v -0.26434864 0.35092077 2.22631752
v -0.32233367 0.39325583 2.14146864
v -0.26434864 0.46469276 2.22631752
v -0.32233367 0.47858483 2.14146864
v -0.21457339 0.40780676 2.21920677
v -0.23700467 0.47858483 2.14146864
v -0.23700467 0.39325583 2.14146864
v -0.34588447 0.43592033 2.06631410
v -0.27966917 0.36970502 2.06631410
v -0.27966917 0.50213563 2.06631410
v -0.21345387 0.43592033 2.06631410
v -0.23971930 0.36613057 2.32056846
v -0.23971930 0.28080158 2.32056846
v -0.19705480 0.28080158 2.27790396
v -0.19705480 0.36613057 2.27790396
v 0.20213578 0.43592033 2.00134627
v 0.22079439 0.36526792 2.02247844
v 0.29144680 0.52523134 2.00134627
v 0.22079439 0.50657274 2.02247844
v 0.38075781 0.43592033 2.00134627
v 0.36209921 0.50657274 2.02247844
v 0.29144680 0.34660931 2.00134627
v 0.36209921 0.36526792 2.02247844
v -0.36898019 0.43592033 2.00134627
v -0.35032158 0.36526792 2.02247844
v -0.27966917 0.52523134 2.00134627
v -0.35032158 0.50657274 2.02247844
v -0.19035816 0.43592033 2.00134627
v -0.20901676 0.50657274 2.02247844
v -0.27966917 0.34660931 2.00134627
v -0.20901676 0.36526792 2.02247844
v -1.6923733e-3 0.21101183 2.42307579
v -1.6923733e-3 0.15412583 2.36618979
v -1.6923733e-3 0.26789782 2.36618979
v -1.6923733e-3 0.21101183 2.30930379
v 0.34833279 0.43592033 2.14146864
v 0.29144680 0.37903433 2.14146864
v 0.29144680 0.49280632 2.14146864
v 0.29144680 0.43592033 1.99430221
v 0.23456080 0.43592033 2.14146864
v 0.19414049 0.32346608 2.27079321
v 0.22258349 0.26658008 2.29923621
v 0.25102648 0.32346608 2.32767921
v 0.22258349 0.38035207 2.29923621
v -0.22278317 0.43592033 2.14146864
v -0.27966917 0.37903433 2.14146864
v -0.27966917 0.49280632 2.14146864
v -0.27966917 0.43592033 1.99430221
v -0.33655517 0.43592033 2.14146864
v -0.24683005 0.32346608 2.32767921
v -0.21838705 0.26658008 2.29923621
v -0.18994405 0.32346608 2.27079321
v -0.21838705 0.38035207 2.29923621
v 0.19724358 0.43592033 2.02247844
v 0.29144680 0.53012354 2.02247844
v 0.38565001 0.43592033 2.02247844
v 0.29144680 0.34171711 2.02247844
v -0.37387239 0.43592033 2.02247844
v -0.27966917 0.53012354 2.02247844
v -0.18546596 0.43592033 2.02247844
v -0.27966917 0.34171711 2.02247844
v -1.07785514 -1.07776672 1.39590097
v -1.07785514 -1.05176648 1.39590097
v 1.07785514 -1.05176648 1.39590097
v 1.07785514 -1.07776672 1.39590097
v -1.07785514 -1.07776672 1.22726097
v -1.07785514 -1.05176648 1.22726097
v 1.07785514 -1.05176648 1.22726097
v 1.07785514 -1.07776672 1.22726097
v -1.05126805 -1.05176648 1.39590097
v 1.05126805 -1.05176648 1.39590097
v -1.05126805 -1.05176648 1.22726097
v 1.05126805 -1.05176648 1.22726097
v -1.05126805 1.05566647 1.39590097
v -1.05126805 1.05566647 1.22726097
v -1.07785514 1.05566647 1.22726097
v -1.07785514 1.05566647 1.39590097
v 1.05126805 0.55339882 1.22726097
v 1.05126805 0.55339882 1.39590097
v 1.07785514 0.55339882 1.39590097
v 1.07785514 0.55339882 1.22726097
v -1.07785514 -1.07776672 -1.26746651
v -1.07785514 -1.05176648 -1.26746651
v 1.07785514 -1.05176648 -1.26746651
v 1.07785514 -1.07776672 -1.26746651
v -1.07785514 -1.07776672 -1.43610651
v -1.07785514 -1.05176648 -1.43610651
v 1.07785514 -1.05176648 -1.43610651
v 1.07785514 -1.07776672 -1.43610651
v -1.05126805 -1.05176648 -1.26746651
v 1.05126805 -1.05176648 -1.26746651
v -1.05126805 -1.05176648 -1.43610651
v 1.05126805 -1.05176648 -1.43610651
v -1.05126805 1.05566647 -1.26746651
v -1.05126805 1.05566647 -1.43610651
v -1.07785514 1.05566647 -1.43610651
v -1.07785514 1.05566647 -1.26746651
v 1.05126805 0.55339882 -1.43610651
v 1.05126805 0.55339882 -1.26746651
v 1.07785514 0.55339882 -1.26746651
v 1.07785514 0.55339882 -1.43610651
v 1.06212150 0.45081367 1.63546239
v 1.06212150 0.45081367 0.99644864
v 1.04521179 0.45081367 1.63546239
v 1.04521179 0.45081367 0.99644864
v 1.04521179 0.92490887 0.99644864
v 1.04521179 0.92490887 1.63546239
v 1.06212150 0.92490887 1.63546239
v 1.06212150 0.92490887 0.99644864
v 1.06212150 0.45081367 -1.03045758
v 1.06212150 0.45081367 -1.66947133
v 1.04521179 0.45081367 -1.03045758
v 1.04521179 0.45081367 -1.66947133
v 1.04521179 0.92490887 -1.66947133
v 1.04521179 0.92490887 -1.03045758
v 1.06212150 0.92490887 -1.03045758
v 1.06212150 0.92490887 -1.66947133
v -1.04767111 0.77188404 1.62141813
v -1.04767111 0.77188404 1.01049290
v -1.06458082 0.77188404 1.62141813
v -1.06458082 0.77188404 1.01049290
v -1.06458082 1.04875563 1.01049290
v -1.06458082 1.04875563 1.62141813
v -1.04767111 1.04875563 1.62141813
v -1.04767111 1.04875563 1.01049290
v -1.04767111 0.77188404 -1.04450184
v -1.04767111 0.77188404 -1.65542707
v -1.06458082 0.77188404 -1.04450184
v -1.06458082 0.77188404 -1.65542707
v -1.06458082 1.04875563 -1.65542707
v -1.06458082 1.04875563 -1.04450184
v -1.04767111 1.04875563 -1.04450184
v -1.04767111 1.04875563 -1.65542707
v 1.07203712 -1.06735997 2.16593121
v 1.07203712 -1.06735997 1.67516892
v 1.04201600 -0.92084811 1.69153347
v 1.07203712 -0.56515871 2.16593121
v 1.07203712 -0.91941951 1.67516892
v 1.04201600 -0.58784296 2.13856286
v 0.56363562 -0.92084811 2.13856286
v 0.54621210 -1.06735997 2.16593121
v 0.54621210 -0.91941951 2.16593121
v 0.54509449 -1.06735997 1.68553411
v 1.04458603 -1.04684429 1.69640511
v 0.56311034 -1.04053346 2.13471583
v 0.56284770 -1.04200094 1.70135035
v -1.08310966 -1.06735997 2.16593121
v -1.08310966 -1.06735997 1.67516892
v -1.05308855 -0.92084811 1.69153347
v -1.08310966 -0.56515871 2.16593121
v -1.08310966 -0.91941951 1.67516892
v -1.05308855 -0.58784296 2.13856286
v -0.57470816 -0.92084811 2.13856286
v -0.55728465 -1.06735997 2.16593121
v -0.55728465 -0.91941951 2.16593121
v -0.55616703 -1.06735997 1.68553411
v -1.05565857 -1.04684429 1.69640511
v -0.57418288 -1.04053346 2.13471583
v -0.57392024 -1.04200094 1.70135035
v 1.07203712 -1.06735997 -2.16184348
v 1.07203712 -1.06735997 -1.67108119
v 1.04201600 -0.92084811 -1.68744575
v 1.07203712 -0.56515871 -2.16184348
v 1.07203712 -0.91941951 -1.67108119
v 1.04201600 -0.58784296 -2.13447513
v 0.56363562 -0.92084811 -2.13447513
v 0.54621210 -1.06735997 -2.16184348
v 0.54621210 -0.91941951 -2.16184348
v 0.54509449 -1.06735997 -1.68144638
v 1.04458603 -1.04684429 -1.69231738
v 0.56311034 -1.04053346 -2.13062810
v 0.56284770 -1.04200094 -1.69726262
v -1.08310966 1.06969988 -2.16184348
v -1.08310966 1.06969988 -1.67108119
v -1.05308855 0.92318803 -1.68744575
v -1.08310966 0.56749863 -2.16184348
v -1.08310966 0.92175942 -1.67108119
v -1.05308855 0.59018288 -2.13447513
v -0.57470816 0.92318803 -2.13447513
v -0.55728465 1.06969988 -2.16184348
v -0.55728465 0.92175942 -2.16184348
v -1.04910663 1.06969988 -2.13028820
v -1.05565857 1.06859819 -1.69231738
v -0.57418288 1.06228736 -2.13062810
v 1.06926698 1.06969988 -2.16946645
v 1.06926698 1.06969988 -1.67870416
v 1.03924587 0.92318803 -1.69506872
v 1.06926698 0.56749863 -2.16946645
v 1.06926698 0.92175942 -1.67870416
v 1.03924587 0.59018288 -2.14209810
v 0.56086548 0.92318803 -2.14209810
v 0.54344196 1.06969988 -2.16946645
v 0.54344196 0.92175942 -2.16946645
v 1.03526395 1.06969988 -2.13791117
v 1.04181589 1.06859819 -1.69994035
v 0.56034020 1.06228736 -2.13825107
v -1.08310966 1.06969988 2.15880794
v -1.08310966 1.06969988 1.66804565
v -1.05308855 0.92318803 1.68441020
v -1.08310966 0.56749863 2.15880794
v -1.08310966 0.92175942 1.66804565
v -1.05308855 0.59018288 2.13143959
v -0.57470816 0.92318803 2.13143959
v -0.55728465 1.06969988 2.15880794
v -0.55728465 0.92175942 2.15880794
v -1.04910663 1.06969988 2.12725266
v -1.05565857 1.06859819 1.68928184
v -0.57418288 1.06228736 2.12759256
v 1.06926698 1.06969988 2.15880794
v 1.06926698 1.06969988 1.66804565
v 1.03924587 0.92318803 1.68441020
v 1.06926698 0.56749863 2.15880794
v 1.06926698 0.92175942 1.66804565
v 1.03924587 0.59018288 2.13143959
v 0.56086548 0.92318803 2.13143959
v 0.54344196 1.06969988 2.15880794
v 0.54344196 0.92175942 2.15880794
v 1.03526395 1.06969988 2.12725266
v 1.04181589 1.06859819 1.68928184
v 0.56034020 1.06228736 2.12759256
vt -0.90124320 4.4660707e-3
vt -0.90124320 0.20187587
vt -0.90124320 0.20663314
vt -0.90124320 0.40086512
vt -0.90124320 0.41464173
vt -0.90124320 0.42153004
vt -0.90124320 0.42153004
vt -0.90124320 0.42841834
vt -0.90124320 0.49424428
vt -0.90124320 0.50207025
vt -0.90124320 0.68251538
vt -0.90124320 0.81178489
vt -0.90124320 0.81956282
vt -0.90124320 0.42841834
vt -0.90124320 0.43530665
vt -0.90124320 0.40775343
vt -0.90124320 0.41464173
vt -0.90124320 0.19498756
vt -0.90124320 0.40775343
vt -0.90093120 0.64565137
vt -0.90093120 0.77492088
vt -0.89862776 0.81657506
vt -0.89692843 0.51020462
vt -0.89626152 0.20187587
vt -0.89626152 -2.9120000e-4
vt -0.89419942 0.42841834
vt -0.89419942 0.43530665
vt -0.89419942 0.41464173
vt -0.89419942 0.42153004
vt -0.89382677 0.50027747
vt -0.89018116 0.40086512
vt -0.89018116 0.19498756
vt -0.87599472 0.30481465
vt -0.87599472 0.29792634
vt -0.87096340 0.46965713
vt -0.86585936 0.47653177
vt -0.84940284 0.10079233
vt -0.84940284 9.3904027e-2
vt -0.83932451 1.04336265
vt -0.83932451 6.3797218e-2
vt -0.80122195 0.90716398
vt -0.80079748 0.90103535
vt -0.79885701 0.90424009
vt -0.79640920 0.26922289
vt -0.79640920 1.12735428
vt -0.78214550 0.50880135
vt -0.77625442 0.53996869
vt -0.77543432 0.81434029
vt -0.77543432 0.68507078
vt -0.77400681 0.50027747
vt -0.77377609 0.55803604
vt -0.77377609 0.68730555
vt -0.76771217 0.53895541
vt -0.71557457 0.44442360
vt -0.70846325 0.99970880
vt -0.70736675 0.43530665
vt -0.70736675 0.50027747
vt -0.70736675 0.50404890
vt -0.70517164 0.93969364
vt -0.70517164 0.99641120
vt -0.70255834 0.51187191
vt -0.69997482 0.93289920
vt -0.69915892 0.49116052
vt -0.65941280 0.81657506
vt -0.65941280 0.68730555
vt -0.65729394 0.56405272
vt -0.65729394 0.64881332
vt -0.65729394 0.77808283
vt -0.65729394 0.77808283
vt -0.65517508 0.81657506
vt -0.64986932 0.55803604
vt -0.62708754 0.58870391
vt -0.62197313 0.58184149
vt -0.57534543 0.50817115
vt -0.56819638 0.50027747
vt -0.56534014 0.53994751
vt -0.55661057 0.53759976
vt -0.55251707 0.81995493
vt -0.55022740 0.96676437
vt -0.54887413 0.45905234
vt -0.54416077 0.81657506
vt -0.54377009 0.46592698
vt -0.54216010 0.97599026
vt -0.54216010 0.81657506
vt -0.54081179 0.68730555
vt -0.54015942 0.97599026
vt -0.53915356 0.81434029
vt -0.53409279 0.82580095
vt -0.53180312 0.97261039
vt -0.52090672 0.43530665
vt -0.51349029 0.43530665
vt -0.51349029 0.44133983
vt -0.51349029 0.53751495
vt -0.50979474 -0.41264725
vt -0.50979474 0.12786150
vt -0.50979474 0.19055368
vt -0.50979474 0.56691818
vt -0.50979474 0.45152189
vt -0.50979474 0.51421408
vt -0.50530413 0.44443609
vt -0.50476502 0.53987048
vt -0.50174151 0.50025328
vt -0.49460219 0.50815238
vt -0.47173418 0.61385323
vt -0.46687942 0.98444354
vt -0.46687942 0.12631215
vt -0.46354802 0.59671398
vt -0.46354802 0.62298267
vt -0.45725337 0.55803604
vt -0.45500577 0.59772726
vt -0.44911469 0.56655993
vt -0.41365668 0.77492088
vt -0.41334468 0.68730555
vt -0.41334468 0.81178489
vt -0.41264725 1.31576899
vt -0.41264725 -0.67666710
vt -0.41228619 0.81434779
vt -0.38434537 0.85966612
vt -0.37914856 0.85287168
vt -0.36741682 0.51176828
vt -0.36260198 0.50395176
vt -0.36170985 -0.62572969
vt -0.36170985 1.26483158
vt -0.35506518 0.47644783
vt -0.34995077 0.46958541
vt -0.33716951 0.42841834
vt -0.33716951 0.43530665
vt -0.33716951 0.41464173
vt -0.33716951 0.42153004
vt -0.33433176 0.56796319
vt -0.33012573 0.40086512
vt -0.33012573 0.40775343
vt -0.33012573 0.42841834
vt -0.33012573 0.43530665
vt -0.33012573 0.42153004
vt -0.33012573 0.42841834
vt -0.33012573 0.40775343
vt -0.33012573 0.41464173
vt -0.33012573 0.41464173
vt -0.33012573 0.42153004
vt -0.33012573 0.20187587
vt -0.33012573 0.19498756
vt -0.33001699 0.55982883
vt -0.32716899 0.50025328
vt -0.31974437 0.49423660
vt -0.31593929 0.29792634
vt -0.30985893 0.30481465
vt -0.30487725 0.30957192
vt -0.30487725 0.20187587
vt -0.30487725 0.23476515
vt -0.30487725 0.23476515
vt -0.30487725 0.26765443
vt -0.30487725 0.29792634
vt -0.30487725 0.30054372
vt -0.30487725 0.30481465
vt -0.29381522 0.26765443
vt -0.29381522 0.30054372
vt -0.29381522 0.20187587
vt -0.29381522 0.23476515
vt -0.29381522 0.23476515
vt -0.29381522 0.26765443
vt -0.29381522 0.30054372
vt -0.28934741 9.3904027e-2
vt -0.28660354 0.77552096
vt -0.28646558 0.81238635
vt -0.28326706 0.10079233
vt -0.28275318 0.26765443
vt -0.28275318 0.30054372
vt -0.27828538 0.10554960
vt -0.27828538 9.3904027e-2
vt -0.27828538 0.10079233
vt -0.27828538 -2.9120000e-4
vt -0.27828538 0.55803604
vt -0.27124160 -2.9120000e-4
vt -0.27124160 -2.9120000e-4
vt -0.27124160 0.55803604
vt -0.27124160 0.55803604
vt -0.26419781 -2.9120000e-4
vt -0.26419781 0.55803604
vt -0.26419781 0.55803604
vt -0.26419781 -2.9120000e-4
vt -0.25837633 1.31576899
vt -0.25837633 -0.67666710
vt -0.25715403 0.55803604
vt -0.25715403 -2.9120000e-4
vt -0.25715403 0.55803604
vt -0.25715403 -2.9120000e-4
vt -0.25011025 0.55803604
vt -0.25011025 -2.9120000e-4
vt -0.25011025 0.42496907
vt -0.25011025 -2.9120000e-4
vt -0.24306647 0.42496907
vt -0.24306647 0.42496907
vt -0.24306647 -2.9120000e-4
vt -0.24306647 -2.9120000e-4
vt -0.23602268 0.42496907
vt -0.23602268 -2.9120000e-4
vt -0.23602268 0.42496907
vt -0.23602268 -2.9120000e-4
vt -0.22897890 0.42496907
vt -0.22897890 -2.9120000e-4
vt -0.22897890 0.42496907
vt -0.22897890 -2.9120000e-4
vt -0.22193512 0.42496907
vt -0.22193512 -2.9120000e-4
vt -0.22193512 0.30462011
vt -0.22193512 4.0240584e-2
vt -0.22193512 0.50077919
vt -0.22193512 0.54077119
vt -0.21931968 0.53778343
vt -0.21672707 1.4567342e-3
vt -0.21337996 4.1014561e-2
vt -0.21327031 0.30207590
vt -0.21327031 0.49823498
vt -0.20949409 0.34162435
vt -0.20949409 0.53778343
vt -0.20848188 0.14546527
vt -0.20848188 0.34162435
vt -0.20836595 9.7391140e-3
vt -0.20135153 0.15546088
vt -0.20135153 0.35161996
vt -0.20090563 0.53445819
vt -0.20090563 0.53458923
vt -0.20090563 0.18210742
vt -0.20090563 0.33843015
vt -0.20046003 0.35160870
vt -0.19570747 0.18890584
vt -0.19332044 0.34162435
vt -0.19232327 0.53766061
vt -0.18839583 0.49816618
vt -0.17973632 0.50071850
vt -0.17973632 0.53445819
vt -0.17929072 0.35160870
vt -0.17215113 0.34162435
vt -0.17115396 0.53766061
vt -0.16722652 0.49816618
vt -0.15856701 0.42984615
vt -0.15856701 0.50071850
vt -0.15728578 0.46837501
vt -0.12191387 0.62837235
vt -0.12148940 0.62224373
vt -0.11954894 0.62544846
vt -9.3749062e-2 7.9485985e-3
vt -8.9668155e-2 -2.9120000e-4
vt -8.3117477e-2 1.31725583
vt -8.3117477e-2 -0.67518025
vt -4.8622623e-2 0.30156448
vt -4.5965755e-2 0.15469280
vt -4.4605182e-2 0.13930670
vt -4.1244152e-2 0.46866396
vt -4.0263945e-2 0.30494967
vt -4.0139297e-2 0.34162435
vt -3.7971176e-2 0.14546527
vt -3.7891653e-2 0.14546527
vt -2.9155166e-2 0.72091717
vt -2.5863556e-2 0.71761957
vt -2.2963433e-2 0.11392016
vt -1.2464176e-2 0.11578862
vt -2.0000018e-3 1.62932957
vt 5.6982743e-3 -0.61828052
vt 7.1153444e-2 1.31725583
vt 7.1153444e-2 -0.67518025
vt 7.9732169e-2 -0.39129486
vt 8.2517218e-2 0.83892298
vt 8.2517218e-2 0.84879632
vt 8.2517218e-2 0.90161517
vt 8.2517218e-2 0.91148850
vt 9.2270255e-2 1.69396059
vt 9.9321682e-2 1.49850003
vt 0.14383605 -0.16177758
vt 0.16135891 -0.64243169
vt 0.16834665 0.62690375
vt 0.17545703 0.35346455
vt 0.17760969 1.33376124
vt 0.18723784 1.54828240
vt 0.18960441 1.75738768
vt 0.18971075 9.5873207e-2
vt 0.20391350 0.88736901
vt 0.20759104 -0.42347463
vt 0.20934574 0.47476695
vt 0.22055977 0.47638101
vt 0.22929380 1.11822435
vt 0.24823117 -0.17434788
vt 0.24998437 0.37765417
vt 0.25126549 0.62291940
vt 0.26118583 0.11146055
vt 0.26348187 1.35286475
vt 0.27312119 0.85856422
vt 0.27340251 1.60625338
vt 0.27358489 -0.79640920
vt 0.27358489 -6.3749629e-2
vt 0.27358489 7.1396750e-2
vt 0.27358489 0.79438176
vt 0.27358489 0.92952814
vt 0.27358489 1.09415208
vt 0.28319990 0.69710527
vt 0.28985458 0.21911499
vt 0.29441393 0.69871934
vt 0.29441511 1.10185498
vt 0.29573524 1.81216614
vt 0.29774288 0.63071539
vt 0.29774288 0.72628486
vt 0.29774288 0.73858150
vt 0.29774288 0.75087814
vt 0.29774288 0.76317478
vt 0.29774288 0.71398822
vt 0.29774288 0.72628486
vt 0.29774288 0.73858150
vt 0.29774288 0.64301203
vt 0.30106861 0.22072905
vt 0.30263164 -0.65848205
vt 0.30679489 0.63071539
vt 0.30679489 0.64301203
vt 0.30854184 0.31821992
vt 0.30854184 0.16265742
vt 0.30854184 0.16455326
vt 0.30854184 0.47378243
vt 0.30854184 0.31821992
vt 0.30854184 0.32011577
vt 0.30869074 0.63071539
vt 0.30869074 0.64301203
vt 0.31378705 0.59538337
vt 0.31378705 0.60443539
vt 0.31378705 0.61348740
vt 0.31378705 0.61348740
vt 0.31378705 0.62253942
vt 0.31378705 0.62443526
vt 0.31378705 0.47644447
vt 0.31378705 0.47834032
vt 0.31378705 0.59538337
vt 0.32083848 0.31821992
vt 0.32083848 0.45800388
vt 0.32083848 0.16265742
vt 0.32083848 0.31821992
vt 0.32083848 0.31821992
vt 0.32083848 0.32011577
vt 0.32083848 0.36481458
vt 0.32083848 0.41140923
vt 0.32083848 0.41140923
vt 0.32083848 0.45800388
vt 0.32083848 0.47030052
vt 0.32083848 0.47378243
vt 0.32083848 0.16455326
vt 0.32207148 0.31821992
vt 0.32207148 0.31821992
vt 0.32207148 0.33840843
vt 0.32207148 0.36481458
vt 0.32207148 0.39938395
vt 0.32207148 0.41017125
vt 0.32207148 0.41140923
vt 0.32207148 0.41140923
vt 0.32207148 0.45800388
vt 0.32207148 0.45800388
vt 0.32207148 0.33840843
vt 0.32207148 0.35070507
vt 0.32207148 0.35070507
vt 0.32207148 0.36300172
vt 0.32259026 0.37931862
vt 0.32273433 0.45800388
vt 0.32273433 0.45800388
vt 0.32273433 0.47030052
vt 0.32273433 0.47030052
vt 0.32330448 0.36481458
vt 0.32330448 0.39938395
vt 0.32330448 0.39938395
vt 0.32330448 0.41017125
vt 0.32330448 0.31821992
vt 0.32330448 0.33840843
vt 0.32330448 0.36481458
vt 0.32330448 0.39938395
vt 0.32330448 0.41017125
vt 0.32330448 0.41140923
vt 0.32330448 0.45595577
vt 0.32330448 0.45800388
vt 0.32330448 0.41140923
vt 0.32380746 -0.45844693
vt 0.32401012 0.35070507
vt 0.32401012 0.35070507
vt 0.32401012 0.36300172
vt 0.32401012 0.36300172
vt 0.32453747 0.36481458
vt 0.32453747 0.39938395
vt 0.32453747 0.39938395
vt 0.32453747 0.41017125
vt 0.32453747 0.45595577
vt 0.32453747 0.41140923
vt 0.32453747 0.45595577
vt 0.32453747 0.41140923
vt 0.32467297 0.45800388
vt 0.32467297 0.47030052
vt 0.32476062 0.73858150
vt 0.32476062 0.75087814
vt 0.32511605 0.33840843
vt 0.32511605 0.35070507
vt 0.32564574 0.39938395
vt 0.32564574 0.41017125
vt 0.32564574 0.39938395
vt 0.32564574 0.41017125
vt 0.32577047 0.36481458
vt 0.32577047 0.38500309
vt 0.32577047 0.36481458
vt 0.32577047 0.38500309
vt 0.32577047 0.39729973
vt 0.32577047 0.39938395
vt 0.32577047 0.45595577
vt 0.32577047 0.41140923
vt 0.32577047 0.45595577
vt 0.32577047 0.41140923
vt 0.32590597 0.35070507
vt 0.32590597 0.36300172
vt 0.32608369 0.61348740
vt 0.32608369 0.62253942
vt 0.32608369 0.62443526
vt 0.32608369 0.59538337
vt 0.32608369 0.60443539
vt 0.32608369 0.61348740
vt 0.32608369 0.47644447
vt 0.32608369 0.47834032
vt 0.32608369 0.59538337
vt 0.32638364 8.8619912e-2
vt 0.32661161 0.45800388
vt 0.32661161 0.47030052
vt 0.32661161 0.47030052
vt 0.32669862 0.72628486
vt 0.32669862 0.73858150
vt 0.32675401 0.39938395
vt 0.32675401 0.41017125
vt 0.32700347 0.36481458
vt 0.32700347 0.38500309
vt 0.32700347 0.41140923
vt 0.32700347 0.45595577
vt 0.32728760 0.61971262
vt 0.32823647 0.36481458
vt 0.32823647 0.38500309
vt 0.32823647 0.36481458
vt 0.32823647 0.38500309
vt 0.32823647 0.41140923
vt 0.32823647 0.44597860
vt 0.32823647 0.41140923
vt 0.32823647 0.45595577
vt 0.32855024 0.45800388
vt 0.32855024 0.47030052
vt 0.32881504 0.38500309
vt 0.32881504 0.39729973
vt 0.32946946 0.36481458
vt 0.32946946 0.38500309
vt 0.32946946 0.41140923
vt 0.32946946 0.44597860
vt 0.32952978 0.62562154
vt 0.32962242 0.62690055
vt 0.33312503 0.49402722
vt 0.33686110 -0.21493723
vt 0.33724815 1.40039898
vt 0.34307191 0.85248123
vt 0.34433905 0.49564128
vt 0.35602074 1.12251645
vt 0.35959718 1.65589474
vt 0.36559166 0.62430415
vt 0.36562486 0.62326966
vt 0.36660551 0.62295103
vt 0.36760808 0.50091233
vt 0.36889632 -0.41264725
vt 0.36889632 0.56691818
vt 0.36889632 -0.25837633
vt 0.36889632 0.72118910
vt 0.37501610 0.63347058
vt 0.37882211 0.50252640
vt 0.38623012 0.63508465
vt 0.38641745 0.35844206
vt 0.39763148 0.36005612
vt 0.39906549 0.35475741
vt 0.40217724 0.62295103
vt 0.40218474 0.62404388
vt 0.40218474 0.62562154
vt 0.40227738 0.62690055
vt 0.40246300 0.61444806
vt 0.40325221 1.46060290
vt 0.40354313 0.61691671
vt 0.40441901 3.9622166e-2
vt 0.41142331 1.85438740
vt 0.41367703 0.61606212
vt 0.41427714 0.39863980
vt 0.41544401 -0.26658381
vt 0.41895809 0.87260716
vt 0.42549117 0.40025386
vt 0.42743513 1.17413851
vt 0.43076994 -0.47673034
vt 0.43634259 -0.65888003
vt 0.43824663 0.62430415
vt 0.43827983 0.62326966
vt 0.43926048 0.62295103
vt 0.44725151 1.68933156
vt 0.45492975 0.75087814
vt 0.45492975 0.76317478
vt 0.45492975 0.71398822
vt 0.45492975 0.72628486
vt 0.46546290 0.84430912
vt 0.46587761 0.63071539
vt 0.46587761 0.64301203
vt 0.47483221 0.62295103
vt 0.47483971 0.62404388
vt 0.47521202 1.50426048
vt 0.47667692 0.84592318
vt 0.47772712 0.31297619
vt 0.47890292 0.73858150
vt 0.47890292 0.75087814
vt 0.48084093 0.73858150
vt 0.48084093 0.72628486
vt 0.48407720 -6.6714149e-3
vt 0.48503682 0.71398822
vt 0.48503682 0.72628486
vt 0.48663689 0.61426022
vt 0.49087987 0.72164597
vt 0.49377901 0.63071539
vt 0.49377901 0.64301203
vt 0.49377901 0.69638366
vt 0.49377901 0.74379372
vt 0.49377901 0.75458102
vt 0.49377901 0.70699653
vt 0.49377901 0.75458102
vt 0.49377901 0.76536832
vt 0.49379985 0.71796226
vt 0.49384902 0.70699653
vt 0.49516447 0.85303576
vt 0.49516447 0.86533240
vt 0.49516447 0.97089965
vt 0.49518968 0.93521487
vt 0.49653787 0.68694045
vt 0.49674557 0.91321656
vt 0.49694797 -0.29062733
vt 0.49716332 0.96935704
vt 0.49766052 0.93751110
vt 0.50209390 0.72326004
vt 0.50270130 1.22484012
vt 0.50775190 0.68855452
vt 0.51148084 0.53889149
vt 0.51598077 -0.62572969
vt 0.51598077 1.26483158
vt 0.52269487 0.54050556
vt 0.52642381 0.39084253
vt 0.52704606 -0.47638482
vt 0.53017642 0.71789313
vt 0.53018857 0.70705398
vt 0.53028727 0.69614286
vt 0.53032604 0.70687861
vt 0.53088734 0.75458102
vt 0.53088734 0.76536832
vt 0.53088734 0.76536832
vt 0.53139629 0.71784434
vt 0.53143506 0.70710859
vt 0.53153376 0.69608825
vt 0.53154591 0.70692740
vt 0.53208181 0.35613701
vt 0.53212034 0.71796226
vt 0.53212034 0.75458102
vt 0.53219779 0.93757609
vt 0.53342397 0.93524188
vt 0.53763784 0.39245660
vt 0.53818572 1.87278413
vt 0.54258623 1.69470516
vt 0.54329583 0.35775108
vt 0.54858232 0.88507908
vt 0.54858232 0.91964845
vt 0.54858232 0.95468237
vt 0.54858232 0.95545760
vt 0.54865933 0.91964845
vt 0.54980850 0.95779182
vt 0.55023453 1.50911954
vt 0.55402273 -2.1738622e-2
vt 0.55749878 0.23347387
vt 0.56411475 0.28571564
vt 0.56412128 -0.64250087
vt 0.56556375 0.75458102
vt 0.56556375 0.76536832
vt 0.56691818 -0.67666710
vt 0.56691818 1.31576899
vt 0.56787331 0.71796226
vt 0.56790501 0.74379372
vt 0.56790501 0.75458102
vt 0.56792248 0.70699653
vt 0.56794332 0.69603080
vt 0.56794332 0.70734939
vt 0.56871281 0.23508793
vt 0.56941653 -0.27556350
vt 0.57159980 1.24928309
vt 0.57777833 0.75165623
vt 0.57777833 0.76244354
vt 0.58204717 0.61150949
vt 0.58434577 0.95772682
vt 0.58459741 0.93891765
vt 0.58484297 0.98957276
vt 0.58681661 0.95543059
vt 0.58684181 0.99111537
vt 0.58700294 0.91965099
vt 0.58700294 0.95543059
vt 0.59517697 0.88507908
vt 0.59517697 0.90526759
vt 0.59517697 0.91964845
vt 0.59517697 0.94105226
vt 0.59517697 0.94105226
vt 0.59517697 0.97683187
vt 0.59517697 0.88507908
vt 0.59517697 0.90526759
vt 0.60868453 0.67914319
vt 0.61488666 0.75165623
vt 0.61488666 0.76244354
vt 0.61545604 -0.44598231
vt 0.61989856 0.68075725
vt 0.62049868 0.46333493
vt 0.62599058 1.48104405
vt 0.62600480 3.2372919e-3
vt 0.62727265 0.48780465
vt 0.62727265 0.48970050
vt 0.62727265 0.60674355
vt 0.63171270 0.46494899
vt 0.63291419 -0.23178856
vt 0.63351830 0.90526759
vt 0.63352058 0.97683441
vt 0.63359759 0.94180049
vt 0.63359979 0.94029647
vt 0.63654423 0.71934093
vt 0.63956930 0.48970050
vt 0.63956930 0.60674355
vt 0.63956930 0.48780465
vt 0.63972351 0.88507908
vt 0.63972351 0.90526759
vt 0.64331683 0.59386710
vt 0.64331683 0.60465440
vt 0.64331683 0.61544170
vt 0.64331683 0.66710462
vt 0.64331683 0.67789193
vt 0.64331683 0.70372339
vt 0.64331683 0.71451069
vt 0.64331683 0.72529799
vt 0.64482717 1.67894386
vt 0.64775826 0.72095499
vt 0.64794558 0.44431240
vt 0.65000402 1.23142517
vt 0.65235134 0.85303576
vt 0.65235134 0.86533240
vt 0.65535360 0.57687065
vt 0.65915961 0.44592647
vt 0.66473024 0.28454589
vt 0.66656763 0.57848471
vt 0.67271962 1.87091103
vt 0.67910150 0.56803564
vt 0.67910150 0.60465440
vt 0.67910150 0.64127316
vt 0.67910150 0.64127316
vt 0.67910150 0.67789193
vt 0.67910150 0.71451069
vt 0.67910150 0.75112945
vt 0.67945780 0.95342298
vt 0.67945780 0.98799235
vt 0.67945780 0.76586177
vt 0.67945780 0.77664907
vt 0.68165816 0.67789193
vt 0.68165816 0.71451069
vt 0.68323093 -0.59968703
vt 0.68807182 -0.15803768
vt 0.68838558 0.60756699
vt 0.68957605 0.93624505
vt 0.68983665 0.58375577
vt 0.69747830 -0.39676143
vt 0.70105068 0.58536983
vt 0.70259878 1.41448947
vt 0.70450330 6.9993939e-2
vt 0.71744283 0.59386710
vt 0.71744283 0.60465440
vt 0.71744283 0.61544170
vt 0.71744283 0.66710462
vt 0.71744283 0.67789193
vt 0.71744283 0.70372339
vt 0.71744283 0.71451069
vt 0.71744283 0.72529799
vt 0.71744283 0.73336576
vt 0.71744283 0.75355427
vt 0.71744283 0.75355427
vt 0.71744283 0.76434158
vt 0.71779912 0.76586177
vt 0.71779912 0.80248054
vt 0.72118910 1.31576899
vt 0.72118910 -0.67666710
vt 0.72605245 0.95342298
vt 0.72605245 0.98799235
vt 0.73310710 0.85866800
vt 0.73600169 1.15790448
vt 0.73976177 0.38067771
vt 0.74432113 0.86028206
vt 0.74925454 1.63429537
vt 0.75097580 0.38229177
vt 0.75211924 0.75355427
vt 0.75211924 0.76434158
vt 0.75358380 0.76586177
vt 0.75358380 0.77664907
vt 0.76098272 -9.4470848e-2
vt 0.76136310 0.32122575
vt 0.76198937 0.73336576
vt 0.76198937 0.75355427
vt 0.76947696 -0.32933868
vt 0.77263127 0.13499752
vt 0.78154358 0.30854184
vt 0.78156878 0.34422662
vt 0.78354242 0.31008445
vt 0.78403962 0.34193040
vt 0.79077392 0.60249680
vt 0.79103543 -0.53826652
vt 0.79135288 0.89040763
vt 0.79306932 1.34451337
vt 0.81324847 1.08207957
vt 0.81340618 1.84601303
vt 0.81361594 0.60301604
vt 0.81857689 0.34186540
vt 0.81980307 0.34419962
vt 0.81980307 0.34419962
vt 0.82102925 0.34186540
vt 0.82482997 0.60463010
vt 0.84371339 -0.26038522
vt 0.84737854 0.34439412
vt 0.85556652 0.34193040
vt 0.85606372 0.31008445
vt 0.85803736 0.34422662
vt 0.85806257 0.30854184
vt 0.86901771 1.57983599
vt 0.87919214 0.85598961
vt 0.88209474 0.59685937
vt 0.88448528 -0.46098727
vt 0.89644795 1.31725583
vt 0.89644795 -0.67518025
vt 0.96851513 1.80750921
vt 0.97080397 -0.37816972
vt 1.05071887 -0.67518025
vt 1.05071887 1.31725583
vt 1.06208265 0.83892298
vt 1.06208265 0.84879632
vt 1.06208265 0.90161517
vt 1.06208265 0.91148850
vt 1.09415208 0.26922289
vt 1.09415208 1.12735428
vt 1.15127552 -0.79640920
vt 1.15127552 -6.3749629e-2
vt 1.15127552 7.1396750e-2
vt 1.15127552 0.79438176
vt 1.15127552 0.92952814
vt 1.15127552 1.09415208
vt 1.15311157 1.04336265
vt 1.15311157 6.3797218e-2
vt 1.34846175 -0.41264725
vt 1.34846175 0.56691818
vt 1.34846175 -0.25837633
vt 1.34846175 0.72118910
vt 1.42368186 0.98444354
vt 1.42368186 0.12631215
vt 1.48264135 0.45152189
vt 1.48264135 0.51421408
vt 1.48264135 -0.41264725
vt 1.48264135 0.12786150
vt 1.48264135 0.19055368
vt 1.48264135 0.56691818
vn -0.52095652 -0.62902403 -0.57700353
vn 4.6402167e-3 0.63641299 -0.77133454
vn -5.2910435e-3 0.63706032 -0.77079579
vn 0.50676018 -0.63263542 -0.58563346
vn -0.12850885 -0.60493761 0.78583457
vn 0.51892428 0.62656584 0.58149190
vn -0.49927598 0.63129977 0.59345100
vn 0.12571690 -0.60736894 0.78440948
vn -0.52566292 -0.59074064 0.61213070
vn -0.78890828 0.59692842 -0.14594582
vn 0.53047961 0.59674690 -0.60206687
vn 0.77263786 -0.63483837 3.3144140e-3
vn -0.66008918 -0.66008918 -0.35855900
vn -0.66008918 0.66008918 -0.35855900
vn 0.66008918 0.66008918 -0.35855900
vn 0.66008918 -0.66008918 -0.35855900
vn -0.77725119 -0.62854620 2.8465274e-2
vn -0.53998222 0.59981225 -0.59046123
vn 0.78918118 0.58611441 -0.18347473
vn 0.54045748 -0.59458981 0.59528873
vn -0.66008918 -0.66008918 -0.35855900
vn -0.66008918 0.66008918 -0.35855900
vn 0.66008918 0.66008918 -0.35855900
vn 0.66008918 -0.66008918 -0.35855900
vn -0.49449612 -0.49449612 0.71480569
vn -0.49449612 0.49449612 0.71480569
vn 0.49449612 0.49449612 0.71480569
vn 0.49449612 -0.49449612 0.71480569
vn -0.49449612 -0.49449612 0.71480569
vn -0.49449612 0.49449612 0.71480569
vn 0.49449612 0.49449612 0.71480569
vn 0.49449612 -0.49449612 0.71480569
vn -0.36557372 4.0830297e-3 -0.93077343
vn -1.6923527e-3 -0.69935508 -0.71477241
vn -0.42393581 -0.89374194 0.14664166
vn 1.8354638e-4 0.68963557 -0.72415658
vn 0.40441848 0.90113602 -0.15620361
vn 0.35361881 3.4752200e-3 -0.93538316
vn -0.39317539 0.90716219 -0.14989952
vn 0.41206249 -0.90008911 0.14157716
vn 0.25878261 -7.6090828e-4 0.96593529
vn -5.8787143e-4 -0.68722149 0.72644771
vn 1.5213169e-3 0.69657938 0.71747812
vn -0.24465095 2.2924398e-4 0.96961119
vn -0.94481350 5.4480061e-3 0.32756338
vn 0.17320255 -0.86442112 0.47199258
vn -0.70856573 -0.69823013 0.10202594
vn -0.16027961 0.85448335 -0.49413424
vn -0.71343284 0.68892744 -0.12803346
vn 0.90056176 -7.2300594e-3 -0.43466796
vn 0.68628642 0.68152534 -0.25403573
vn 0.71606656 -0.69642504 -4.7337613e-2
vn -0.94024691 -1.6370111e-16 -0.34049338
vn -4.7622142e-16 -0.94024691 -0.34049338
vn -7.4409596e-17 0.94024691 -0.34049338
vn 0.94024691 -3.4228414e-16 -0.34049338
vn -0.82988511 0.54029048 0.13920096
vn -8.1981010e-2 -0.50866156 0.85705457
vn 0.78490751 -0.56986892 -0.24324806
vn 0.19726681 0.54817529 -0.81276667
vn -0.91303653 -6.2826549e-3 -0.40782940
vn -0.17416915 -0.86058397 0.47860248
vn -0.71681615 -0.69611333 -4.0010439e-2
vn 0.16042769 0.85027614 -0.50129177
vn -0.68791733 0.68223437 -0.24764088
vn 0.95951972 2.2498525e-3 0.28163248
vn 0.71298783 0.68779455 -0.13633417
vn 0.70952064 -0.69837143 9.4115889e-2
vn -0.94024691 -2.9763839e-16 -0.34049338
vn 4.9110334e-16 -0.94024691 -0.34049338
vn 8.4826940e-16 0.94024691 -0.34049338
vn 0.94024691 -1.4881919e-17 -0.34049338
vn -0.20569437 0.54993508 -0.80948207
vn -0.80046251 -0.55949523 -0.21499965
vn 9.1870083e-2 -0.51106153 0.85462039
vn 0.84676378 0.52369993 9.3431764e-2
vn -0.54893574 -1.6317684e-17 0.83586456
vn -0.70609145 -0.70609145 -5.3569895e-2
vn 1.6317684e-15 0.54893574 0.83586456
vn -0.70609145 0.70609145 -5.3569895e-2
vn 0.54893574 -1.6317684e-17 0.83586456
vn 0.70609145 0.70609145 -5.3569895e-2
vn -4.8953053e-17 -0.54893574 0.83586456
vn 0.70609145 -0.70609145 -5.3569895e-2
vn -0.54893574 4.8953053e-17 0.83586456
vn -0.70609145 -0.70609145 -5.3569895e-2
vn -1.5828154e-15 0.54893574 0.83586456
vn -0.70609145 0.70609145 -5.3569895e-2
vn 0.54893574 -1.6317684e-17 0.83586456
vn 0.70609145 0.70609145 -5.3569895e-2
vn -1.5828154e-15 -0.54893574 0.83586456
vn 0.70609145 -0.70609145 -5.3569895e-2
vn -1.0849284e-3 1.7379285e-3 -0.99999790
vn -1.4587634e-3 -0.99987930 1.5468177e-2
vn 1.3906629e-3 0.99988437 -1.5142930e-2
vn 6.1116693e-4 -3.2219077e-4 0.99999976
vn 0.98255141 -2.4157956e-3 -0.18597553
vn 1.2916983e-2 -0.99573462 9.1354916e-2
vn -1.2316429e-2 0.97507249 -0.22154447
vn 2.4543795e-17 3.1556307e-17 1.00000000
vn -0.99997272 1.1380106e-3 7.2982824e-3
vn -0.66141831 4.8405328e-3 0.75000159
vn 0.46134186 -0.76577831 0.44804829
vn 0.67505722 -2.1439314e-3 -0.73776226
vn -0.43609874 0.76606837 -0.47218338
vn 0.99998985 7.6729440e-4 -4.4401951e-3
vn -1.2588753e-2 -0.99571560 9.1607680e-2
vn 1.1989400e-2 0.97498034 -0.22196753
vn -3.5062564e-18 2.8050051e-17 1.00000000
vn -0.98432076 -2.1773450e-3 -0.17637431
vn -0.69787668 -8.8701266e-4 -0.71621739
vn -0.47168558 -0.75323856 0.45841508
vn 0.69856135 9.1393720e-4 0.71554959
vn 0.44524337 0.75325237 -0.48411694
vn -0.99863856 -1.0122388e-16 -5.2163462e-2
vn 1.8389006e-15 0.99863856 -5.2163462e-2
vn 0.99863856 -1.5183583e-16 -5.2163462e-2
vn -2.1931842e-16 -0.99863856 -5.2163462e-2
vn -0.99863856 -3.3741295e-17 -5.2163462e-2
vn -1.4340050e-15 0.99863856 -5.2163462e-2
vn 0.99863856 -1.0122388e-16 -5.2163462e-2
vn -1.7208060e-15 -0.99863856 -5.2163462e-2
vn -0.52095652 -0.62902403 0.57700353
vn 4.6402167e-3 0.63641299 0.77133454
vn -5.2910435e-3 0.63706032 0.77079579
vn 0.50676018 -0.63263542 0.58563346
vn -0.12850885 -0.60493761 -0.78583457
vn 0.51892428 0.62656584 -0.58149190
vn -0.49927598 0.63129977 -0.59345100
vn 0.12571690 -0.60736894 -0.78440948
vn -0.52566292 -0.59074064 -0.61213070
vn -0.78890828 0.59692842 0.14594582
vn 0.53047961 0.59674690 0.60206687
vn 0.77263786 -0.63483837 -3.3144140e-3
vn -0.66008918 -0.66008918 0.35855900
vn -0.66008918 0.66008918 0.35855900
vn 0.66008918 0.66008918 0.35855900
vn 0.66008918 -0.66008918 0.35855900
vn -0.77725119 -0.62854620 -2.8465274e-2
vn -0.53998222 0.59981225 0.59046123
vn 0.78918118 0.58611441 0.18347473
vn 0.54045748 -0.59458981 -0.59528873
vn -0.66008918 -0.66008918 0.35855900
vn -0.66008918 0.66008918 0.35855900
vn 0.66008918 0.66008918 0.35855900
vn 0.66008918 -0.66008918 0.35855900
vn -0.49449612 -0.49449612 -0.71480569
vn -0.49449612 0.49449612 -0.71480569
vn 0.49449612 0.49449612 -0.71480569
vn 0.49449612 -0.49449612 -0.71480569
vn -0.49449612 -0.49449612 -0.71480569
vn -0.49449612 0.49449612 -0.71480569
vn 0.49449612 0.49449612 -0.71480569
vn 0.49449612 -0.49449612 -0.71480569
vn -0.36557372 4.0830297e-3 0.93077343
vn -1.6923527e-3 -0.69935508 0.71477241
vn -0.42393581 -0.89374194 -0.14664166
vn 1.8354638e-4 0.68963557 0.72415658
vn 0.40441848 0.90113602 0.15620361
vn 0.35361881 3.4752200e-3 0.93538316
vn -0.39317539 0.90716219 0.14989952
vn 0.41206249 -0.90008911 -0.14157716
vn 0.25878261 -7.6090828e-4 -0.96593529
vn -5.8787143e-4 -0.68722149 -0.72644771
vn 1.5213169e-3 0.69657938 -0.71747812
vn -0.24465095 2.2924398e-4 -0.96961119
vn -0.94481350 5.4480061e-3 -0.32756338
vn 0.17320255 -0.86442112 -0.47199258
vn -0.70856573 -0.69823013 -0.10202594
vn -0.16027961 0.85448335 0.49413424
vn -0.71343284 0.68892744 0.12803346
vn 0.90056176 -7.2300594e-3 0.43466796
vn 0.68628642 0.68152534 0.25403573
vn 0.71606656 -0.69642504 4.7337613e-2
vn -0.94024691 3.8692990e-16 0.34049338
vn 1.1905535e-16 -0.94024691 0.34049338
vn 4.9110334e-16 0.94024691 0.34049338
vn 0.94024691 -1.7858303e-16 0.34049338
vn -0.82988511 0.54029048 -0.13920096
vn -8.1981010e-2 -0.50866156 -0.85705457
vn 0.78490751 -0.56986892 0.24324806
vn 0.19726681 0.54817529 0.81276667
vn -0.91303653 -6.2826549e-3 0.40782940
vn -0.17416915 -0.86058397 -0.47860248
vn -0.71681615 -0.69611333 4.0010439e-2
vn 0.16042769 0.85027614 0.50129177
vn -0.68791733 0.68223437 0.24764088
vn 0.95951972 2.2498525e-3 -0.28163248
vn 0.71298783 0.68779455 0.13633417
vn 0.70952064 -0.69837143 -9.4115889e-2
vn -0.94024691 4.0181182e-16 0.34049338
vn 3.1252030e-16 -0.94024691 0.34049338
vn 8.0362364e-16 0.94024691 0.34049338
vn 0.94024691 -6.8456829e-16 0.34049338
vn -0.20569437 0.54993508 0.80948207
vn -0.80046251 -0.55949523 0.21499965
vn 9.1870083e-2 -0.51106153 -0.85462039
vn 0.84676378 0.52369993 -9.3431764e-2
vn -0.54893574 6.5270737e-16 -0.83586456
vn -0.70609145 -0.70609145 5.3569895e-2
vn 4.4057748e-16 0.54893574 -0.83586456
vn -0.70609145 0.70609145 5.3569895e-2
vn 0.54893574 -6.8534274e-16 -0.83586456
vn 0.70609145 0.70609145 5.3569895e-2
vn -4.8953053e-16 -0.54893574 -0.83586456
vn 0.70609145 -0.70609145 5.3569895e-2
vn -0.54893574 7.1797811e-16 -0.83586456
vn -0.70609145 -0.70609145 5.3569895e-2
vn 4.7321285e-16 0.54893574 -0.83586456
vn -0.70609145 0.70609145 5.3569895e-2
vn 0.54893574 -6.8534274e-16 -0.83586456
vn 0.70609145 0.70609145 5.3569895e-2
vn -3.7530674e-16 -0.54893574 -0.83586456
vn 0.70609145 -0.70609145 5.3569895e-2
vn -1.0849284e-3 1.7379285e-3 0.99999790
vn -1.4587634e-3 -0.99987930 -1.5468177e-2
vn 1.3906629e-3 0.99988437 1.5142930e-2
vn 6.1116693e-4 -3.2219077e-4 -0.99999976
vn 0.98255141 -2.4157956e-3 0.18597553
vn 1.2916983e-2 -0.99573462 -9.1354916e-2
vn -1.2316429e-2 0.97507249 0.22154447
vn 2.8050051e-17 2.4543795e-17 -1.00000000
vn -0.99997272 1.1380106e-3 -7.2982824e-3
vn -0.66141831 4.8405328e-3 -0.75000159
vn 0.46134186 -0.76577831 -0.44804829
vn 0.67505722 -2.1439314e-3 0.73776226
vn -0.43609874 0.76606837 0.47218338
vn 0.99998985 7.6729440e-4 4.4401951e-3
vn -1.2588753e-2 -0.99571560 -9.1607680e-2
vn 1.1989400e-2 0.97498034 0.22196753
vn 3.5062564e-18 2.1037538e-17 -1.00000000
vn -0.98432076 -2.1773450e-3 0.17637431
vn -0.69787668 -8.8701266e-4 0.71621739
vn -0.47168558 -0.75323856 -0.45841508
vn 0.69856135 9.1393720e-4 -0.71554959
vn 0.44524337 0.75325237 0.48411694
vn -0.99863856 4.3863683e-16 5.2163462e-2
vn 7.2543784e-16 0.99863856 5.2163462e-2
vn 0.99863856 -8.4353237e-17 5.2163462e-2
vn -5.0611942e-16 -0.99863856 5.2163462e-2
vn -0.99863856 5.0611942e-16 5.2163462e-2
vn 9.6162691e-16 0.99863856 5.2163462e-2
vn 0.99863856 -6.4108460e-16 5.2163462e-2
vn -3.3741295e-16 -0.99863856 5.2163462e-2
vn -0.30951891 0.33510150 -0.88989046
vn -0.91393505 0.30266802 -0.27039748
vn 0.30951891 0.33510150 -0.88989046
vn 0.91393505 0.30266802 -0.27039748
vn -0.30951891 0.33510150 0.88989046
vn -0.91393505 0.30266802 0.27039748
vn 1.9546443e-2 -2.1663376e-16 0.99980895
vn -0.99980895 1.0357628e-17 1.9546443e-2
vn 1.9546443e-2 -2.1663376e-16 0.99980895
vn -0.99980895 1.0357628e-17 1.9546443e-2
vn 1.9546443e-2 -1.1025984e-15 0.99980895
vn 0.0000000e+0 1.00000000 0.0000000e+0
vn -0.99980895 0.0000000e+0 1.9546443e-2
vn 1.9546443e-2 9.9098611e-17 0.99980895
vn 0.0000000e+0 1.00000000 0.0000000e+0
vn 1.9546443e-2 9.9098611e-17 0.99980895
vn 0.96830360 0.24905776 -1.8930508e-2
vn 1.9546443e-2 9.9098611e-17 0.99980895
vn 1.9546443e-2 9.9098611e-17 0.99980895
vn -0.97826901 -0.20645574 1.9125333e-2
vn 0.0000000e+0 -1.00000000 0.0000000e+0
vn -1.9546443e-2 8.8693186e-16 -0.99980895
vn -0.99980895 1.0357628e-17 1.9546443e-2
vn -0.99980895 1.0357628e-17 1.9546443e-2
vn -1.9546443e-2 8.8693186e-16 -0.99980895
vn 0.0000000e+0 1.00000000 0.0000000e+0
vn -1.9546443e-2 1.1045328e-15 -0.99980895
vn -0.99980895 0.0000000e+0 1.9546443e-2
vn 0.0000000e+0 1.00000000 0.0000000e+0
vn -1.9546443e-2 5.5226641e-16 -0.99980895
vn -1.9546443e-2 5.5226641e-16 -0.99980895
vn 0.96830360 0.24905776 -1.8930508e-2
vn -1.9546443e-2 5.5226641e-16 -0.99980895
vn -0.97826901 -0.20645574 1.9125333e-2
vn -1.9546443e-2 5.5226641e-16 -0.99980895
vn 0.0000000e+0 -1.00000000 0.0000000e+0
vn 0.69049806 -0.72320827 -1.3499360e-2
vn 1.9546443e-2 1.3007956e-15 0.99980895
vn 0.96830360 0.24905776 -1.8930508e-2
vn 0.69049806 -0.72320827 -1.3499360e-2
vn 1.9546443e-2 1.3007956e-15 0.99980895
vn -0.97826901 -0.20645574 1.9125333e-2
vn 0.69049806 -0.72320827 -1.3499360e-2
vn -0.97826901 -0.20645574 1.9125333e-2
vn -1.9546443e-2 0.0000000e+0 -0.99980895
vn 0.69049806 -0.72320827 -1.3499360e-2
vn -1.9546443e-2 0.0000000e+0 -0.99980895
vn 0.96830360 0.24905776 -1.8930508e-2
vn 1.9546443e-2 -2.1663376e-16 0.99980895
vn 0.0000000e+0 -1.00000000 0.0000000e+0
vn 0.99980895 0.0000000e+0 -1.9546443e-2
vn 1.9546443e-2 -2.1663376e-16 0.99980895
vn -1.9546443e-2 8.8693186e-16 -0.99980895
vn 0.0000000e+0 -1.00000000 0.0000000e+0
vn 0.99980895 0.0000000e+0 -1.9546443e-2
vn -1.9546443e-2 8.8693186e-16 -0.99980895
vn 1.9708776e-15 -1.00000000 0.0000000e+0
vn 0.99980895 0.0000000e+0 -1.9546443e-2
vn -1.9546443e-2 6.6933090e-16 -0.99980895
vn 1.9708776e-15 -1.00000000 0.0000000e+0
vn 0.99980895 0.0000000e+0 -1.9546443e-2
vn 1.9546443e-2 6.6933090e-16 0.99980895
vn 1.9708776e-15 -1.00000000 0.0000000e+0
vn 1.9546443e-2 6.6933090e-16 0.99980895
vn -0.99980895 2.0715256e-17 1.9546443e-2
vn 1.9708776e-15 -1.00000000 0.0000000e+0
vn -0.99980895 2.0715256e-17 1.9546443e-2
vn -1.9546443e-2 6.6933090e-16 -0.99980895
vn 1.9546443e-2 0.0000000e+0 0.99980895
vn 0.0000000e+0 -1.00000000 0.0000000e+0
vn -0.99980895 0.0000000e+0 1.9546443e-2
vn 1.9546443e-2 0.0000000e+0 0.99980895
vn 0.0000000e+0 1.00000000 0.0000000e+0
vn -0.99980895 0.0000000e+0 1.9546443e-2
vn 1.9546443e-2 0.0000000e+0 0.99980895
vn 0.99980895 0.0000000e+0 -1.9546443e-2
vn 0.0000000e+0 1.00000000 0.0000000e+0
vn 1.9546443e-2 0.0000000e+0 0.99980895
vn 0.99980895 0.0000000e+0 -1.9546443e-2
vn 0.0000000e+0 -1.00000000 0.0000000e+0
vn 0.0000000e+0 -1.00000000 0.0000000e+0
vn -1.9546443e-2 0.0000000e+0 -0.99980895
vn -0.99980895 0.0000000e+0 1.9546443e-2
vn 0.0000000e+0 1.00000000 0.0000000e+0
vn -1.9546443e-2 0.0000000e+0 -0.99980895
vn -0.99980895 0.0000000e+0 1.9546443e-2
vn 0.99980895 0.0000000e+0 -1.9546443e-2
vn 0.0000000e+0 1.00000000 0.0000000e+0
vn -1.9546443e-2 0.0000000e+0 -0.99980895
vn 0.99980895 0.0000000e+0 -1.9546443e-2
vn 0.0000000e+0 -1.00000000 0.0000000e+0
vn -1.9546443e-2 0.0000000e+0 -0.99980895
vn 1.9546443e-2 0.0000000e+0 0.99980895
vn 0.99980895 -2.3893079e-17 -1.9546443e-2
vn 0.0000000e+0 -1.00000000 -2.0903687e-16
vn 0.99980895 -2.3893079e-17 -1.9546443e-2
vn -1.9546443e-2 -6.9343717e-16 -0.99980895
vn 0.0000000e+0 -1.00000000 -2.0903687e-16
vn 1.9546443e-2 0.0000000e+0 0.99980895
vn -1.1213378e-16 -1.00000000 -1.0451844e-16
vn -1.1213378e-16 -1.00000000 -1.0451844e-16
vn 1.9546443e-2 0.0000000e+0 0.99980895
vn -1.9546443e-2 -6.9343717e-16 -0.99980895
vn 0.0000000e+0 -1.00000000 -2.0903687e-16
vn -0.99980895 -2.4656707e-17 1.9546443e-2
vn 0.0000000e+0 1.00000000 -1.9597207e-17
vn -1.9546443e-2 -6.9343717e-16 -0.99980895
vn -0.99980895 -2.4656707e-17 1.9546443e-2
vn 8.4100338e-17 1.00000000 -9.7986035e-18
vn 1.9546443e-2 0.0000000e+0 0.99980895
vn 1.9546443e-2 0.0000000e+0 0.99980895
vn 8.4100338e-17 1.00000000 -9.7986035e-18
vn 0.0000000e+0 1.00000000 -1.9597207e-17
vn 1.9546443e-2 0.0000000e+0 0.99980895
vn 0.99980895 -2.3893079e-17 -1.9546443e-2
vn 0.0000000e+0 1.00000000 -1.9597207e-17
vn 0.99980895 -2.3893079e-17 -1.9546443e-2
vn -1.9546443e-2 -6.9343717e-16 -0.99980895
vn -1.1213378e-16 -1.00000000 -1.0451844e-16
vn -0.99980895 -2.4656707e-17 1.9546443e-2
vn -1.9546443e-2 0.0000000e+0 -0.99980895
vn -1.1213378e-16 -1.00000000 -1.0451844e-16
vn 8.4100338e-17 1.00000000 -9.7986035e-18
vn -0.99980895 -2.4656707e-17 1.9546443e-2
vn -1.9546443e-2 0.0000000e+0 -0.99980895
vn 8.4100338e-17 1.00000000 -9.7986035e-18
vn -0.99980895 0.0000000e+0 1.9546443e-2
vn -1.9546443e-2 0.0000000e+0 -0.99980895
vn 1.6820068e-16 1.00000000 0.0000000e+0
vn -0.99980895 0.0000000e+0 1.9546443e-2
vn -1.9546443e-2 0.0000000e+0 -0.99980895
vn -2.2426757e-16 -1.00000000 0.0000000e+0
vn -0.99980895 0.0000000e+0 1.9546443e-2
vn -2.2426757e-16 -1.00000000 0.0000000e+0
vn 1.9546443e-2 0.0000000e+0 0.99980895
vn -0.99980895 0.0000000e+0 1.9546443e-2
vn 1.9546443e-2 0.0000000e+0 0.99980895
vn 1.6820068e-16 1.00000000 0.0000000e+0
vn 1.9546443e-2 0.0000000e+0 0.99980895
vn -0.99980895 0.0000000e+0 1.9546443e-2
vn 0.0000000e+0 -1.00000000 -2.0903687e-16
vn -0.99980895 0.0000000e+0 1.9546443e-2
vn -1.9546443e-2 6.9343717e-16 -0.99980895
vn 0.0000000e+0 -1.00000000 -2.0903687e-16
vn 1.9546443e-2 0.0000000e+0 0.99980895
vn 1.1213378e-16 -1.00000000 -1.0451844e-16
vn 1.1213378e-16 -1.00000000 -1.0451844e-16
vn 1.9546443e-2 0.0000000e+0 0.99980895
vn -1.9546443e-2 6.9343717e-16 -0.99980895
vn 0.0000000e+0 -1.00000000 -2.0903687e-16
vn 0.99980895 -2.4656707e-17 -1.9546443e-2
vn 0.0000000e+0 1.00000000 1.9597207e-17
vn -1.9546443e-2 6.9343717e-16 -0.99980895
vn 0.99980895 -2.4656707e-17 -1.9546443e-2
vn -8.4100338e-17 1.00000000 9.7986035e-18
vn 1.9546443e-2 0.0000000e+0 0.99980895
vn 1.9546443e-2 0.0000000e+0 0.99980895
vn -8.4100338e-17 1.00000000 9.7986035e-18
vn 0.0000000e+0 1.00000000 1.9597207e-17
vn 1.9546443e-2 0.0000000e+0 0.99980895
vn -0.99980895 0.0000000e+0 1.9546443e-2
vn 0.0000000e+0 1.00000000 1.9597207e-17
vn -0.99980895 0.0000000e+0 1.9546443e-2
vn -1.9546443e-2 6.9343717e-16 -0.99980895
vn 1.1213378e-16 -1.00000000 -1.0451844e-16
vn 0.99980895 -2.4656707e-17 -1.9546443e-2
vn -1.9546443e-2 0.0000000e+0 -0.99980895
vn 1.1213378e-16 -1.00000000 -1.0451844e-16
vn -8.4100338e-17 1.00000000 9.7986035e-18
vn 0.99980895 -2.4656707e-17 -1.9546443e-2
vn -1.9546443e-2 0.0000000e+0 -0.99980895
vn -8.4100338e-17 1.00000000 9.7986035e-18
vn 0.99980895 0.0000000e+0 -1.9546443e-2
vn -1.9546443e-2 0.0000000e+0 -0.99980895
vn -1.6820068e-16 1.00000000 0.0000000e+0
vn 0.99980895 0.0000000e+0 -1.9546443e-2
vn -1.9546443e-2 0.0000000e+0 -0.99980895
vn 2.2426757e-16 -1.00000000 0.0000000e+0
vn 0.99980895 0.0000000e+0 -1.9546443e-2
vn 2.2426757e-16 -1.00000000 0.0000000e+0
vn 1.9546443e-2 0.0000000e+0 0.99980895
vn 0.99980895 0.0000000e+0 -1.9546443e-2
vn 1.9546443e-2 0.0000000e+0 0.99980895
vn -1.6820068e-16 1.00000000 0.0000000e+0
vn 1.9546443e-2 -2.1663376e-16 0.99980895
vn -0.99980895 -1.0357628e-17 1.9546443e-2
vn 1.9546443e-2 -2.1663376e-16 0.99980895
vn -0.99980895 -1.0357628e-17 1.9546443e-2
vn 1.9546443e-2 -1.1025984e-15 0.99980895
vn 0.0000000e+0 1.00000000 0.0000000e+0
vn -0.99980895 0.0000000e+0 1.9546443e-2
vn 1.9546443e-2 -5.5129921e-16 0.99980895
vn 0.0000000e+0 1.00000000 0.0000000e+0
vn 1.9546443e-2 -5.5129921e-16 0.99980895
vn 0.88040829 0.47390399 -1.7212139e-2
vn 1.9546443e-2 -5.5129921e-16 0.99980895
vn 1.9546443e-2 -5.5129921e-16 0.99980895
vn -0.89516274 -0.44539577 1.7500591e-2
vn 0.0000000e+0 -1.00000000 0.0000000e+0
vn -1.9546443e-2 8.8693186e-16 -0.99980895
vn -0.99980895 -1.0357628e-17 1.9546443e-2
vn -0.99980895 -1.0357628e-17 1.9546443e-2
vn -1.9546443e-2 8.8693186e-16 -0.99980895
vn 0.0000000e+0 1.00000000 0.0000000e+0
vn -1.9546443e-2 1.1045328e-15 -0.99980895
vn -0.99980895 0.0000000e+0 1.9546443e-2
vn 0.0000000e+0 1.00000000 0.0000000e+0
vn -1.9546443e-2 5.5226641e-16 -0.99980895
vn -1.9546443e-2 5.5226641e-16 -0.99980895
vn 0.88040829 0.47390399 -1.7212139e-2
vn -1.9546443e-2 5.5226641e-16 -0.99980895
vn -0.89516274 -0.44539577 1.7500591e-2
vn -1.9546443e-2 5.5226641e-16 -0.99980895
vn 0.0000000e+0 -1.00000000 0.0000000e+0
vn 0.69049806 -0.72320827 -1.3499360e-2
vn 1.9546443e-2 0.0000000e+0 0.99980895
vn 0.88040829 0.47390399 -1.7212139e-2
vn 0.69049806 -0.72320827 -1.3499360e-2
vn 1.9546443e-2 0.0000000e+0 0.99980895
vn -0.89516274 -0.44539577 1.7500591e-2
vn 0.69049806 -0.72320827 -1.3499360e-2
vn -0.89516274 -0.44539577 1.7500591e-2
vn -1.9546443e-2 0.0000000e+0 -0.99980895
vn 0.69049806 -0.72320827 -1.3499360e-2
vn -1.9546443e-2 0.0000000e+0 -0.99980895
vn 0.88040829 0.47390399 -1.7212139e-2
vn 1.9546443e-2 -2.1663376e-16 0.99980895
vn 0.0000000e+0 -1.00000000 0.0000000e+0
vn 0.99980895 0.0000000e+0 -1.9546443e-2
vn 1.9546443e-2 -2.1663376e-16 0.99980895
vn -1.9546443e-2 8.8693186e-16 -0.99980895
vn 0.0000000e+0 -1.00000000 0.0000000e+0
vn 0.99980895 0.0000000e+0 -1.9546443e-2
vn -1.9546443e-2 8.8693186e-16 -0.99980895
vn 1.9708776e-15 -1.00000000 0.0000000e+0
vn 0.99980895 0.0000000e+0 -1.9546443e-2
vn -1.9546443e-2 6.6933090e-16 -0.99980895
vn 1.9708776e-15 -1.00000000 0.0000000e+0
vn 0.99980895 0.0000000e+0 -1.9546443e-2
vn 1.9546443e-2 6.6933090e-16 0.99980895
vn 1.9708776e-15 -1.00000000 0.0000000e+0
vn 1.9546443e-2 6.6933090e-16 0.99980895
vn -0.99980895 -2.0715256e-17 1.9546443e-2
vn 1.9708776e-15 -1.00000000 0.0000000e+0
vn -0.99980895 -2.0715256e-17 1.9546443e-2
vn -1.9546443e-2 6.6933090e-16 -0.99980895
vn 0.0000000e+0 0.0000000e+0 1.00000000
vn 0.0000000e+0 -1.00000000 0.0000000e+0
vn -1.00000000 0.0000000e+0 0.0000000e+0
vn 0.0000000e+0 0.0000000e+0 1.00000000
vn -1.00000000 0.0000000e+0 0.0000000e+0
vn 0.0000000e+0 1.00000000 0.0000000e+0
vn 0.0000000e+0 1.00000000 0.0000000e+0
vn 0.0000000e+0 0.0000000e+0 1.00000000
vn 1.00000000 0.0000000e+0 0.0000000e+0
vn 0.0000000e+0 1.00000000 0.0000000e+0
vn 0.0000000e+0 1.00000000 0.0000000e+0
vn 0.0000000e+0 0.0000000e+0 1.00000000
vn 1.00000000 0.0000000e+0 0.0000000e+0
vn 0.0000000e+0 -1.00000000 0.0000000e+0
vn 0.0000000e+0 -1.00000000 0.0000000e+0
vn 0.0000000e+0 0.0000000e+0 -1.00000000
vn -1.00000000 0.0000000e+0 0.0000000e+0
vn 0.0000000e+0 0.0000000e+0 -1.00000000
vn -1.00000000 0.0000000e+0 0.0000000e+0
vn 0.0000000e+0 1.00000000 0.0000000e+0
vn 0.0000000e+0 1.00000000 0.0000000e+0
vn 1.00000000 0.0000000e+0 0.0000000e+0
vn 0.0000000e+0 0.0000000e+0 -1.00000000
vn 0.0000000e+0 1.00000000 0.0000000e+0
vn 0.0000000e+0 1.00000000 0.0000000e+0
vn 1.00000000 0.0000000e+0 0.0000000e+0
vn 0.0000000e+0 -1.00000000 0.0000000e+0
vn 0.0000000e+0 0.0000000e+0 -1.00000000
vn 0.0000000e+0 1.00000000 0.0000000e+0
vn 0.0000000e+0 1.00000000 0.0000000e+0
vn 0.0000000e+0 0.0000000e+0 -1.00000000
vn 1.00000000 0.0000000e+0 0.0000000e+0
vn 0.0000000e+0 1.00000000 0.0000000e+0
vn 0.0000000e+0 1.00000000 0.0000000e+0
vn 0.0000000e+0 0.0000000e+0 -1.00000000
vn -1.00000000 0.0000000e+0 0.0000000e+0
vn 0.0000000e+0 1.00000000 0.0000000e+0
vn 0.0000000e+0 1.00000000 0.0000000e+0
vn -1.00000000 0.0000000e+0 0.0000000e+0
vn 0.0000000e+0 0.0000000e+0 1.00000000
vn 0.0000000e+0 1.00000000 0.0000000e+0
vn 0.0000000e+0 1.00000000 0.0000000e+0
vn 0.0000000e+0 0.0000000e+0 1.00000000
vn 1.00000000 0.0000000e+0 0.0000000e+0
vn 0.0000000e+0 1.00000000 0.0000000e+0
vn 0.0000000e+0 0.0000000e+0 -1.00000000
vn 1.00000000 0.0000000e+0 0.0000000e+0
vn 0.0000000e+0 1.00000000 0.0000000e+0
vn 0.0000000e+0 0.0000000e+0 -1.00000000
vn -1.00000000 0.0000000e+0 0.0000000e+0
vn 0.0000000e+0 1.00000000 0.0000000e+0
vn -1.00000000 0.0000000e+0 0.0000000e+0
vn 0.0000000e+0 0.0000000e+0 1.00000000
vn 0.0000000e+0 1.00000000 0.0000000e+0
vn 0.0000000e+0 0.0000000e+0 1.00000000
vn 1.00000000 0.0000000e+0 0.0000000e+0
vn 0.0000000e+0 0.0000000e+0 1.00000000
vn 0.0000000e+0 -1.00000000 0.0000000e+0
vn -1.00000000 0.0000000e+0 0.0000000e+0
vn 0.0000000e+0 0.0000000e+0 1.00000000
vn -1.00000000 0.0000000e+0 0.0000000e+0
vn -1.00000000 0.0000000e+0 0.0000000e+0
vn 0.0000000e+0 0.0000000e+0 1.00000000
vn 0.0000000e+0 0.0000000e+0 1.00000000
vn 1.00000000 0.0000000e+0 0.0000000e+0
vn 0.0000000e+0 0.0000000e+0 1.00000000
vn 1.00000000 0.0000000e+0 0.0000000e+0
vn 0.0000000e+0 0.0000000e+0 1.00000000
vn 0.0000000e+0 -1.00000000 0.0000000e+0
vn 1.00000000 0.0000000e+0 0.0000000e+0
vn 0.0000000e+0 -1.00000000 0.0000000e+0
vn 0.0000000e+0 0.0000000e+0 -1.00000000
vn -1.00000000 0.0000000e+0 0.0000000e+0
vn 0.0000000e+0 0.0000000e+0 -1.00000000
vn -1.00000000 0.0000000e+0 0.0000000e+0
vn 0.0000000e+0 0.0000000e+0 -1.00000000
vn -1.00000000 0.0000000e+0 0.0000000e+0
vn 0.0000000e+0 0.0000000e+0 -1.00000000
vn 1.00000000 0.0000000e+0 0.0000000e+0
vn 1.00000000 0.0000000e+0 0.0000000e+0
vn 0.0000000e+0 0.0000000e+0 -1.00000000
vn 0.0000000e+0 -1.00000000 0.0000000e+0
vn 0.0000000e+0 0.0000000e+0 -1.00000000
vn 1.00000000 0.0000000e+0 0.0000000e+0
vn 0.0000000e+0 0.0000000e+0 1.00000000
vn 0.0000000e+0 0.0000000e+0 1.00000000
vn 0.0000000e+0 0.0000000e+0 1.00000000
vn 0.0000000e+0 0.0000000e+0 1.00000000
vn 0.0000000e+0 0.0000000e+0 -1.00000000
vn 0.0000000e+0 0.0000000e+0 -1.00000000
vn 0.0000000e+0 0.0000000e+0 -1.00000000
vn 0.0000000e+0 0.0000000e+0 -1.00000000
vn 0.0000000e+0 1.00000000 0.0000000e+0
vn 0.0000000e+0 0.0000000e+0 1.00000000
vn 0.0000000e+0 1.00000000 0.0000000e+0
vn 0.0000000e+0 0.0000000e+0 -1.00000000
vn 0.0000000e+0 1.00000000 0.0000000e+0
vn 0.0000000e+0 0.0000000e+0 -1.00000000
vn -1.00000000 0.0000000e+0 0.0000000e+0
vn 0.0000000e+0 1.00000000 0.0000000e+0
vn -1.00000000 0.0000000e+0 0.0000000e+0
vn 0.0000000e+0 0.0000000e+0 1.00000000
vn 0.0000000e+0 1.00000000 0.0000000e+0
vn 0.0000000e+0 0.0000000e+0 -1.00000000
vn 0.0000000e+0 1.00000000 0.0000000e+0
vn 0.0000000e+0 0.0000000e+0 1.00000000
vn 0.0000000e+0 1.00000000 0.0000000e+0
vn 0.0000000e+0 0.0000000e+0 1.00000000
vn 1.00000000 0.0000000e+0 0.0000000e+0
vn 0.0000000e+0 1.00000000 0.0000000e+0
vn 1.00000000 0.0000000e+0 0.0000000e+0
vn 0.0000000e+0 0.0000000e+0 -1.00000000
vn 0.0000000e+0 0.0000000e+0 1.00000000
vn 0.0000000e+0 -1.00000000 0.0000000e+0
vn -1.00000000 0.0000000e+0 0.0000000e+0
vn 0.0000000e+0 0.0000000e+0 1.00000000
vn -1.00000000 0.0000000e+0 0.0000000e+0
vn -1.00000000 0.0000000e+0 0.0000000e+0
vn 0.0000000e+0 0.0000000e+0 1.00000000
vn 0.0000000e+0 0.0000000e+0 1.00000000
vn 1.00000000 0.0000000e+0 0.0000000e+0
vn 0.0000000e+0 0.0000000e+0 1.00000000
vn 1.00000000 0.0000000e+0 0.0000000e+0
vn 0.0000000e+0 0.0000000e+0 1.00000000
vn 0.0000000e+0 -1.00000000 0.0000000e+0
vn 1.00000000 0.0000000e+0 0.0000000e+0
vn 0.0000000e+0 -1.00000000 0.0000000e+0
vn 0.0000000e+0 0.0000000e+0 -1.00000000
vn -1.00000000 0.0000000e+0 0.0000000e+0
vn 0.0000000e+0 0.0000000e+0 -1.00000000
vn -1.00000000 0.0000000e+0 0.0000000e+0
vn 0.0000000e+0 0.0000000e+0 -1.00000000
vn -1.00000000 0.0000000e+0 0.0000000e+0
vn 0.0000000e+0 0.0000000e+0 -1.00000000
vn 1.00000000 0.0000000e+0 0.0000000e+0
vn 1.00000000 0.0000000e+0 0.0000000e+0
vn 0.0000000e+0 0.0000000e+0 -1.00000000
vn 0.0000000e+0 -1.00000000 0.0000000e+0
vn 0.0000000e+0 0.0000000e+0 -1.00000000
vn 1.00000000 0.0000000e+0 0.0000000e+0
vn 0.0000000e+0 0.0000000e+0 1.00000000
vn 0.0000000e+0 0.0000000e+0 1.00000000
vn 0.0000000e+0 0.0000000e+0 1.00000000
vn 0.0000000e+0 0.0000000e+0 1.00000000
vn 0.0000000e+0 0.0000000e+0 -1.00000000
vn 0.0000000e+0 0.0000000e+0 -1.00000000
vn 0.0000000e+0 0.0000000e+0 -1.00000000
vn 0.0000000e+0 0.0000000e+0 -1.00000000
vn 0.0000000e+0 1.00000000 0.0000000e+0
vn 0.0000000e+0 0.0000000e+0 1.00000000
vn 0.0000000e+0 1.00000000 0.0000000e+0
vn 0.0000000e+0 0.0000000e+0 -1.00000000
vn 0.0000000e+0 1.00000000 0.0000000e+0
vn 0.0000000e+0 0.0000000e+0 -1.00000000
vn -1.00000000 0.0000000e+0 0.0000000e+0
vn 0.0000000e+0 1.00000000 0.0000000e+0
vn -1.00000000 0.0000000e+0 0.0000000e+0
vn 0.0000000e+0 0.0000000e+0 1.00000000
vn 0.0000000e+0 1.00000000 0.0000000e+0
vn 0.0000000e+0 0.0000000e+0 -1.00000000
vn 0.0000000e+0 1.00000000 0.0000000e+0
vn 0.0000000e+0 0.0000000e+0 1.00000000
vn 0.0000000e+0 1.00000000 0.0000000e+0
vn 0.0000000e+0 0.0000000e+0 1.00000000
vn 1.00000000 0.0000000e+0 0.0000000e+0
vn 0.0000000e+0 1.00000000 0.0000000e+0
vn 1.00000000 0.0000000e+0 0.0000000e+0
vn 0.0000000e+0 0.0000000e+0 -1.00000000
vn 0.0000000e+0 0.0000000e+0 1.00000000
vn 1.00000000 0.0000000e+0 0.0000000e+0
vn 0.0000000e+0 -1.00000000 0.0000000e+0
vn 1.00000000 0.0000000e+0 0.0000000e+0
vn 0.0000000e+0 0.0000000e+0 -1.00000000
vn 0.0000000e+0 -1.00000000 0.0000000e+0
vn 0.0000000e+0 0.0000000e+0 1.00000000
vn 0.0000000e+0 -1.00000000 0.0000000e+0
vn 0.0000000e+0 0.0000000e+0 -1.00000000
vn 0.0000000e+0 -1.00000000 0.0000000e+0
vn 0.0000000e+0 1.00000000 0.0000000e+0
vn 0.0000000e+0 0.0000000e+0 -1.00000000
vn 0.0000000e+0 1.00000000 0.0000000e+0
vn 0.0000000e+0 0.0000000e+0 1.00000000
vn 0.0000000e+0 1.00000000 0.0000000e+0
vn 0.0000000e+0 0.0000000e+0 1.00000000
vn 1.00000000 0.0000000e+0 0.0000000e+0
vn 0.0000000e+0 1.00000000 0.0000000e+0
vn 1.00000000 0.0000000e+0 0.0000000e+0
vn 0.0000000e+0 0.0000000e+0 -1.00000000
vn 0.0000000e+0 0.0000000e+0 1.00000000
vn 1.00000000 0.0000000e+0 0.0000000e+0
vn 0.0000000e+0 -1.00000000 0.0000000e+0
vn 1.00000000 0.0000000e+0 0.0000000e+0
vn 0.0000000e+0 0.0000000e+0 -1.00000000
vn 0.0000000e+0 -1.00000000 0.0000000e+0
vn 0.0000000e+0 0.0000000e+0 1.00000000
vn 0.0000000e+0 -1.00000000 0.0000000e+0
vn 0.0000000e+0 0.0000000e+0 -1.00000000
vn 0.0000000e+0 -1.00000000 0.0000000e+0
vn 0.0000000e+0 1.00000000 0.0000000e+0
vn 0.0000000e+0 0.0000000e+0 -1.00000000
vn 0.0000000e+0 1.00000000 0.0000000e+0
vn 0.0000000e+0 0.0000000e+0 1.00000000
vn 0.0000000e+0 1.00000000 0.0000000e+0
vn 0.0000000e+0 0.0000000e+0 1.00000000
vn 1.00000000 0.0000000e+0 0.0000000e+0
vn 0.0000000e+0 1.00000000 0.0000000e+0
vn 1.00000000 0.0000000e+0 0.0000000e+0
vn 0.0000000e+0 0.0000000e+0 -1.00000000
vn 0.0000000e+0 0.0000000e+0 1.00000000
vn 0.0000000e+0 -1.00000000 0.0000000e+0
vn 0.0000000e+0 0.0000000e+0 -1.00000000
vn 0.0000000e+0 -1.00000000 0.0000000e+0
vn -1.00000000 0.0000000e+0 0.0000000e+0
vn 0.0000000e+0 0.0000000e+0 1.00000000
vn 0.0000000e+0 -1.00000000 0.0000000e+0
vn -1.00000000 0.0000000e+0 0.0000000e+0
vn 0.0000000e+0 0.0000000e+0 -1.00000000
vn 0.0000000e+0 -1.00000000 0.0000000e+0
vn 0.0000000e+0 1.00000000 0.0000000e+0
vn -1.00000000 0.0000000e+0 0.0000000e+0
vn 0.0000000e+0 0.0000000e+0 -1.00000000
vn 0.0000000e+0 1.00000000 0.0000000e+0
vn -1.00000000 0.0000000e+0 0.0000000e+0
vn 0.0000000e+0 0.0000000e+0 1.00000000
vn 0.0000000e+0 1.00000000 0.0000000e+0
vn 0.0000000e+0 0.0000000e+0 1.00000000
vn 0.0000000e+0 1.00000000 0.0000000e+0
vn 0.0000000e+0 0.0000000e+0 -1.00000000
vn 0.0000000e+0 0.0000000e+0 1.00000000
vn 0.0000000e+0 -1.00000000 0.0000000e+0
vn 0.0000000e+0 0.0000000e+0 -1.00000000
vn 0.0000000e+0 -1.00000000 0.0000000e+0
vn -1.00000000 0.0000000e+0 0.0000000e+0
vn 0.0000000e+0 0.0000000e+0 1.00000000
vn 0.0000000e+0 -1.00000000 0.0000000e+0
vn -1.00000000 0.0000000e+0 0.0000000e+0
vn 0.0000000e+0 0.0000000e+0 -1.00000000
vn 0.0000000e+0 -1.00000000 0.0000000e+0
vn 0.0000000e+0 1.00000000 0.0000000e+0
vn -1.00000000 0.0000000e+0 0.0000000e+0
vn 0.0000000e+0 0.0000000e+0 -1.00000000
vn 0.0000000e+0 1.00000000 0.0000000e+0
vn -1.00000000 0.0000000e+0 0.0000000e+0
vn 0.0000000e+0 0.0000000e+0 1.00000000
vn 0.0000000e+0 1.00000000 0.0000000e+0
vn 0.0000000e+0 0.0000000e+0 1.00000000
vn 0.0000000e+0 1.00000000 0.0000000e+0
vn 0.0000000e+0 0.0000000e+0 -1.00000000
vn 1.00000000 0.0000000e+0 -8.6990339e-17
vn 0.0000000e+0 0.0000000e+0 1.00000000
vn 0.0000000e+0 -1.00000000 0.0000000e+0
vn 1.00000000 0.0000000e+0 -8.6990339e-17
vn 0.0000000e+0 -1.00000000 0.0000000e+0
vn -0.30951891 0.33510150 -0.88989046
vn -0.30951891 0.33510150 -0.88989046
vn -0.42878468 0.43199073 -0.79342782
vn -0.42878468 0.43199073 -0.79342782
vn 1.00000000 0.0000000e+0 -8.6990339e-17
vn 0.0000000e+0 0.0000000e+0 1.00000000
vn -0.39221857 0.82084688 -0.41518067
vn -0.39221857 0.82084688 -0.41518067
vn 1.00000000 0.0000000e+0 -8.6990339e-17
vn -0.42878468 0.43199073 -0.79342782
vn -0.42878468 0.43199073 -0.79342782
vn -0.39221857 0.82084688 -0.41518067
vn -0.39221857 0.82084688 -0.41518067
vn -0.79146846 0.45465771 -0.40848995
vn -0.79146846 0.45465771 -0.40848995
vn 0.0000000e+0 0.0000000e+0 1.00000000
vn 0.0000000e+0 -1.00000000 0.0000000e+0
vn -0.91393505 0.30266802 -0.27039748
vn -0.91393505 0.30266802 -0.27039748
vn 0.0000000e+0 0.0000000e+0 1.00000000
vn -0.79146846 0.45465771 -0.40848995
vn -0.79146846 0.45465771 -0.40848995
vn 0.0000000e+0 -1.00000000 0.0000000e+0
vn -0.83302202 0.55323970 3.6980334e-4
vn -8.8099544e-3 0.62718270 -0.77882234
vn -0.83302202 0.55323970 3.6980334e-4
vn -8.8099544e-3 0.62718270 -0.77882234
vn -1.00000000 0.0000000e+0 0.0000000e+0
vn 0.0000000e+0 0.0000000e+0 1.00000000
vn 0.0000000e+0 -1.00000000 0.0000000e+0
vn -1.00000000 0.0000000e+0 0.0000000e+0
vn 0.0000000e+0 -1.00000000 0.0000000e+0
vn 0.30951891 0.33510150 -0.88989046
vn 0.30951891 0.33510150 -0.88989046
vn 0.42878468 0.43199073 -0.79342782
vn 0.42878468 0.43199073 -0.79342782
vn -1.00000000 0.0000000e+0 0.0000000e+0
vn 0.0000000e+0 0.0000000e+0 1.00000000
vn 0.39221857 0.82084688 -0.41518067
vn 0.39221857 0.82084688 -0.41518067
vn -1.00000000 0.0000000e+0 0.0000000e+0
vn 0.42878468 0.43199073 -0.79342782
vn 0.42878468 0.43199073 -0.79342782
vn 0.39221857 0.82084688 -0.41518067
vn 0.39221857 0.82084688 -0.41518067
vn 0.79146846 0.45465771 -0.40848995
vn 0.79146846 0.45465771 -0.40848995
vn 0.0000000e+0 0.0000000e+0 1.00000000
vn 0.0000000e+0 -1.00000000 0.0000000e+0
vn 0.91393505 0.30266802 -0.27039748
vn 0.91393505 0.30266802 -0.27039748
vn 0.0000000e+0 0.0000000e+0 1.00000000
vn 0.79146846 0.45465771 -0.40848995
vn 0.79146846 0.45465771 -0.40848995
vn 0.0000000e+0 -1.00000000 0.0000000e+0
vn 0.83302202 0.55323970 3.6980334e-4
vn 8.8099544e-3 0.62718270 -0.77882234
vn 0.83302202 0.55323970 3.6980334e-4
vn 8.8099544e-3 0.62718270 -0.77882234
vn 1.00000000 0.0000000e+0 0.0000000e+0
vn 0.0000000e+0 0.0000000e+0 -1.00000000
vn 0.0000000e+0 -1.00000000 0.0000000e+0
vn 1.00000000 0.0000000e+0 0.0000000e+0
vn 0.0000000e+0 -1.00000000 0.0000000e+0
vn -0.30951891 0.33510150 0.88989046
vn -0.30951891 0.33510150 0.88989046
vn -0.42878468 0.43199073 0.79342782
vn -0.42878468 0.43199073 0.79342782
vn 1.00000000 0.0000000e+0 0.0000000e+0
vn 0.0000000e+0 0.0000000e+0 -1.00000000
vn -0.39221857 0.82084688 0.41518067
vn -0.39221857 0.82084688 0.41518067
vn 1.00000000 0.0000000e+0 0.0000000e+0
vn -0.42878468 0.43199073 0.79342782
vn -0.42878468 0.43199073 0.79342782
vn -0.39221857 0.82084688 0.41518067
vn -0.39221857 0.82084688 0.41518067
vn -0.79146846 0.45465771 0.40848995
vn -0.79146846 0.45465771 0.40848995
vn 0.0000000e+0 0.0000000e+0 -1.00000000
vn 0.0000000e+0 -1.00000000 0.0000000e+0
vn -0.91393505 0.30266802 0.27039748
vn -0.91393505 0.30266802 0.27039748
vn 0.0000000e+0 0.0000000e+0 -1.00000000
vn -0.79146846 0.45465771 0.40848995
vn -0.79146846 0.45465771 0.40848995
vn 0.0000000e+0 -1.00000000 0.0000000e+0
vn -0.83302202 0.55323970 -3.6980334e-4
vn -8.8099544e-3 0.62718270 0.77882234
vn -0.83302202 0.55323970 -3.6980334e-4
vn -8.8099544e-3 0.62718270 0.77882234
vn -1.00000000 0.0000000e+0 0.0000000e+0
vn 0.0000000e+0 0.0000000e+0 -1.00000000
vn 1.2309548e-2 0.99804455 6.1282605e-2
vn -1.00000000 0.0000000e+0 0.0000000e+0
vn 0.54731143 1.8690267e-2 0.83672031
vn 1.2309548e-2 0.99804455 6.1282605e-2
vn 0.73564253 -0.32305563 0.59536974
vn 0.73564253 -0.32305563 0.59536974
vn 0.73564253 -0.32305563 0.59536974
vn -1.00000000 0.0000000e+0 0.0000000e+0
vn 0.0000000e+0 0.0000000e+0 -1.00000000
vn 0.39221857 -0.82084688 0.41518067
vn 0.39221857 -0.82084688 0.41518067
vn -1.00000000 0.0000000e+0 0.0000000e+0
vn 0.42589128 -0.43247606 0.79472075
vn 0.42589128 -0.43247606 0.79472075
vn 0.39221857 -0.82084688 0.41518067
vn 0.39221857 -0.82084688 0.41518067
vn 4.8036217e-3 -1.3020722e-2 0.99990369
vn 0.99996346 -2.2501686e-3 8.2469331e-3
vn 0.59435294 -0.34579941 0.72606291
vn 0.59435294 -0.34579941 0.72606291
vn 0.59435294 -0.34579941 0.72606291
vn 0.0000000e+0 0.0000000e+0 -1.00000000
vn 0.86317080 -8.3457156e-3 0.50484306
vn 1.2309548e-2 0.99804455 6.1282605e-2
vn 0.0000000e+0 0.0000000e+0 -1.00000000
vn 0.79090330 -0.45443085 0.40983482
vn 0.79090330 -0.45443085 0.40983482
vn 1.2309548e-2 0.99804455 6.1282605e-2
vn 4.8036217e-3 -1.3020722e-2 0.99990369
vn 0.99996346 -2.2501686e-3 8.2469331e-3
vn 0.87761906 9.3248744e-3 0.47926801
vn 1.2309548e-2 0.99804455 6.1282605e-2
vn 0.87761906 9.3248744e-3 0.47926801
vn 0.49962044 -1.2298875e-2 0.86615712
vn 1.2309548e-2 0.99804455 6.1282605e-2
vn 0.49962044 -1.2298875e-2 0.86615712
vn 1.00000000 0.0000000e+0 8.6990339e-17
vn 0.0000000e+0 0.0000000e+0 -1.00000000
vn -1.2309548e-2 0.99804455 6.1282605e-2
vn 1.00000000 0.0000000e+0 8.6990339e-17
vn -0.54731143 1.8690267e-2 0.83672031
vn -1.2309548e-2 0.99804455 6.1282605e-2
vn -0.73564253 -0.32305563 0.59536974
vn -0.73564253 -0.32305563 0.59536974
vn -0.73564253 -0.32305563 0.59536974
vn 1.00000000 0.0000000e+0 8.6990339e-17
vn 0.0000000e+0 0.0000000e+0 -1.00000000
vn -0.39221857 -0.82084688 0.41518067
vn -0.39221857 -0.82084688 0.41518067
vn 1.00000000 0.0000000e+0 8.6990339e-17
vn -0.42589128 -0.43247606 0.79472075
vn -0.42589128 -0.43247606 0.79472075
vn -0.39221857 -0.82084688 0.41518067
vn -0.39221857 -0.82084688 0.41518067
vn -4.8036217e-3 -1.3020722e-2 0.99990369
vn -0.99996346 -2.2501686e-3 8.2469331e-3
vn -0.59435294 -0.34579941 0.72606291
vn -0.59435294 -0.34579941 0.72606291
vn -0.59435294 -0.34579941 0.72606291
vn 0.0000000e+0 0.0000000e+0 -1.00000000
vn -0.86317080 -8.3457156e-3 0.50484306
vn -1.2309548e-2 0.99804455 6.1282605e-2
vn 0.0000000e+0 0.0000000e+0 -1.00000000
vn -0.79090330 -0.45443085 0.40983482
vn -0.79090330 -0.45443085 0.40983482
vn -1.2309548e-2 0.99804455 6.1282605e-2
vn -4.8036217e-3 -1.3020722e-2 0.99990369
vn -0.99996346 -2.2501686e-3 8.2469331e-3
vn -0.87761906 9.3248744e-3 0.47926801
vn -1.2309548e-2 0.99804455 6.1282605e-2
vn -0.87761906 9.3248744e-3 0.47926801
vn -0.49962044 -1.2298875e-2 0.86615712
vn -1.2309548e-2 0.99804455 6.1282605e-2
vn -0.49962044 -1.2298875e-2 0.86615712
vn -1.00000000 0.0000000e+0 0.0000000e+0
vn 0.0000000e+0 0.0000000e+0 1.00000000
vn 1.2309548e-2 0.99804455 -6.1282605e-2
vn -1.00000000 0.0000000e+0 0.0000000e+0
vn 0.54731143 1.8690267e-2 -0.83672031
vn 1.2309548e-2 0.99804455 -6.1282605e-2
vn 0.73564253 -0.32305563 -0.59536974
vn 0.73564253 -0.32305563 -0.59536974
vn 0.73564253 -0.32305563 -0.59536974
vn -1.00000000 0.0000000e+0 0.0000000e+0
vn 0.0000000e+0 0.0000000e+0 1.00000000
vn 0.39221857 -0.82084688 -0.41518067
vn 0.39221857 -0.82084688 -0.41518067
vn -1.00000000 0.0000000e+0 0.0000000e+0
vn 0.42589128 -0.43247606 -0.79472075
vn 0.42589128 -0.43247606 -0.79472075
vn 0.39221857 -0.82084688 -0.41518067
vn 0.39221857 -0.82084688 -0.41518067
vn 4.8036217e-3 -1.3020722e-2 -0.99990369
vn 0.99996346 -2.2501686e-3 -8.2469331e-3
vn 0.59435294 -0.34579941 -0.72606291
vn 0.59435294 -0.34579941 -0.72606291
vn 0.59435294 -0.34579941 -0.72606291
vn 0.0000000e+0 0.0000000e+0 1.00000000
vn 0.86317080 -8.3457156e-3 -0.50484306
vn 1.2309548e-2 0.99804455 -6.1282605e-2
vn 0.0000000e+0 0.0000000e+0 1.00000000
vn 0.79090330 -0.45443085 -0.40983482
vn 0.79090330 -0.45443085 -0.40983482
vn 1.2309548e-2 0.99804455 -6.1282605e-2
vn 4.8036217e-3 -1.3020722e-2 -0.99990369
vn 0.99996346 -2.2501686e-3 -8.2469331e-3
vn 0.87761906 9.3248744e-3 -0.47926801
vn 1.2309548e-2 0.99804455 -6.1282605e-2
vn 0.87761906 9.3248744e-3 -0.47926801
vn 0.49962044 -1.2298875e-2 -0.86615712
vn 1.2309548e-2 0.99804455 -6.1282605e-2
vn 0.49962044 -1.2298875e-2 -0.86615712
vn 1.00000000 0.0000000e+0 0.0000000e+0
vn 0.0000000e+0 0.0000000e+0 1.00000000
vn -1.2309548e-2 0.99804455 -6.1282605e-2
vn 1.00000000 0.0000000e+0 0.0000000e+0
vn -0.54731143 1.8690267e-2 -0.83672031
vn -1.2309548e-2 0.99804455 -6.1282605e-2
vn -0.73564253 -0.32305563 -0.59536974
vn -0.73564253 -0.32305563 -0.59536974
vn -0.73564253 -0.32305563 -0.59536974
vn 1.00000000 0.0000000e+0 0.0000000e+0
vn 0.0000000e+0 0.0000000e+0 1.00000000
vn -0.39221857 -0.82084688 -0.41518067
vn -0.39221857 -0.82084688 -0.41518067
vn 1.00000000 0.0000000e+0 0.0000000e+0
vn -0.42589128 -0.43247606 -0.79472075
vn -0.42589128 -0.43247606 -0.79472075
vn -0.39221857 -0.82084688 -0.41518067
vn -0.39221857 -0.82084688 -0.41518067
vn -4.8036217e-3 -1.3020722e-2 -0.99990369
vn -0.99996346 -2.2501686e-3 -8.2469331e-3
vn -0.59435294 -0.34579941 -0.72606291
vn -0.59435294 -0.34579941 -0.72606291
vn -0.59435294 -0.34579941 -0.72606291
vn 0.0000000e+0 0.0000000e+0 1.00000000
vn -0.86317080 -8.3457156e-3 -0.50484306
vn -1.2309548e-2 0.99804455 -6.1282605e-2
vn 0.0000000e+0 0.0000000e+0 1.00000000
vn -0.79090330 -0.45443085 -0.40983482
vn -0.79090330 -0.45443085 -0.40983482
vn -1.2309548e-2 0.99804455 -6.1282605e-2
vn -4.8036217e-3 -1.3020722e-2 -0.99990369
vn -0.99996346 -2.2501686e-3 -8.2469331e-3
vn -0.87761906 9.3248744e-3 -0.47926801
vn -1.2309548e-2 0.99804455 -6.1282605e-2
vn -0.87761906 9.3248744e-3 -0.47926801
vn -0.49962044 -1.2298875e-2 -0.86615712
vn -1.2309548e-2 0.99804455 -6.1282605e-2
vn -0.49962044 -1.2298875e-2 -0.86615712
g cube2_sep45_Rope
usemtl Rope
f 89/454/1 162/456/74 199/486/111 121/484/33
f 90/529/2 125/590/37 183/588/95 124/512/36
f 90/529/2 161/534/73 202/585/114 125/590/37
f 91/504/3 124/512/36 183/588/95 127/571/39
f 91/504/3 148/509/60 192/479/104 126/471/38
f 92/358/4 147/420/59 191/286/103 128/284/40
f 93/278/5 123/288/35 182/285/94 130/272/42
f 93/725/5 130/726/42 184/706/96 129/708/41
f 93/278/5 163/282/75 200/299/112 123/288/35
f 94/662/6 129/708/41 184/706/96 131/661/43
f 94/662/6 164/638/76 201/687/113 129/708/41
f 95/643/7 131/661/43 184/706/96 132/697/44
f 95/643/7 145/611/57 193/569/105 127/571/39
f 96/273/8 130/272/42 182/285/94 128/284/40
f 96/719/8 132/697/44 184/706/96 130/726/42
f 96/719/8 146/701/58 190/667/102 132/697/44
f 97/696/9 135/718/47 189/700/101 133/660/45
f 97/270/9 146/277/58 191/286/103 134/283/46
f 98/616/10 133/660/45 189/700/101 137/664/49
f 98/616/10 137/664/49 187/607/99 136/584/48
f 99/530/11 136/584/48 187/607/99 139/541/51
f 99/530/11 139/541/51 185/487/97 138/483/50
f 100/452/12 134/283/46 191/286/103 147/420/59
f 100/452/12 138/483/50 185/487/97 140/376/52
f 101/260/13 135/263/47 186/279/98 142/271/54
f 101/310/13 166/470/78 203/561/115 141/583/53
f 102/691/14 141/583/53 203/561/115 168/642/80
f 102/691/14 168/642/80 204/665/116 143/717/55
f 103/689/15 143/717/55 204/665/116 170/636/82
f 103/689/15 170/636/82 205/533/117 144/503/56
f 104/311/16 142/271/54 186/279/98 140/376/52
f 104/298/16 144/503/56 205/533/117 172/468/84
f 105/453/17 151/289/63 198/457/110 149/477/61
f 105/453/17 162/456/74 200/299/112 150/287/62
f 106/502/18 149/477/61 198/457/110 153/492/65
f 106/502/18 153/492/65 196/560/108 152/568/64
f 107/610/19 152/568/64 196/560/108 155/635/67
f 107/610/19 155/635/67 194/690/106 154/666/66
f 108/274/20 150/287/62 200/299/112 163/282/75
f 108/709/20 154/666/66 194/690/106 156/724/68
f 109/276/21 151/289/63 195/275/107 158/268/70
f 109/297/21 174/469/86 207/553/119 157/570/69
f 110/688/22 157/570/69 207/553/119 176/637/88
f 110/688/22 176/637/88 208/663/120 159/712/71
f 111/686/23 159/712/71 208/663/120 178/621/90
f 111/686/23 178/621/90 209/513/121 160/497/72
f 112/259/24 158/268/70 195/275/107 156/269/68
f 112/296/24 160/497/72 209/513/121 180/466/92
f 113/485/25 166/470/78 206/455/118 171/467/83
f 114/615/26 168/642/80 203/561/115 165/558/77
f 115/608/27 170/636/82 204/665/116 167/644/79
f 116/481/28 172/468/84 205/533/117 169/535/81
f 117/482/29 174/469/86 210/451/122 179/461/91
f 118/609/30 176/637/88 207/553/119 173/540/85
f 119/604/31 178/621/90 208/663/120 175/641/87
f 120/476/32 180/466/92 209/513/121 177/528/89
f 121/484/33 181/478/93 122/432/34 89/454/1
f 121/484/33 199/486/111 161/534/73 90/529/2
f 122/432/34 181/478/93 126/471/38 92/358/4
f 122/432/34 182/285/94 123/288/35 89/454/1
f 123/288/35 200/299/112 162/456/74 89/454/1
f 124/512/36 181/478/93 121/484/33 90/529/2
f 125/590/37 202/585/114 164/638/76 94/662/6
f 126/471/38 181/478/93 124/512/36 91/504/3
f 126/471/38 192/479/104 147/420/59 92/358/4
f 127/571/39 183/588/95 131/661/43 95/643/7
f 127/571/39 193/569/105 148/509/60 91/504/3
f 128/284/40 182/285/94 122/432/34 92/358/4
f 128/284/40 191/286/103 146/277/58 96/273/8
f 129/708/41 201/687/113 163/710/75 93/725/5
f 131/661/43 183/588/95 125/590/37 94/662/6
f 132/697/44 190/667/102 145/611/57 95/643/7
f 133/660/45 190/667/102 146/701/58 97/696/9
f 134/283/46 186/279/98 135/263/47 97/270/9
f 136/584/48 193/569/105 145/611/57 98/616/10
f 137/664/49 189/700/101 141/727/53 102/707/14
f 138/483/50 192/479/104 148/509/60 99/530/11
f 139/541/51 187/607/99 143/659/55 103/572/15
f 140/376/52 185/487/97 144/488/56 104/311/16
f 140/376/52 186/279/98 134/283/46 100/452/12
f 141/727/53 189/700/101 135/718/47 101/731/13
f 142/281/54 206/455/118 166/470/78 101/310/13
f 143/659/55 187/607/99 137/664/49 102/707/14
f 144/488/56 185/487/97 139/541/51 103/572/15
f 145/611/57 190/667/102 133/660/45 98/616/10
f 147/420/59 192/479/104 138/483/50 100/452/12
f 148/509/60 193/569/105 136/584/48 99/530/11
f 149/477/61 199/486/111 162/456/74 105/453/17
f 150/287/62 195/275/107 151/289/63 105/453/17
f 152/568/64 202/585/114 161/534/73 106/502/18
f 153/492/65 198/457/110 157/300/69 110/480/22
f 154/666/66 201/687/113 164/638/76 107/610/19
f 155/635/67 196/560/108 159/559/71 111/645/23
f 156/724/68 194/690/106 160/711/72 112/730/24
f 156/269/68 195/275/107 150/287/62 108/274/20
f 157/300/69 198/457/110 151/289/63 109/276/21
f 158/280/70 210/451/122 174/469/86 109/297/21
f 159/559/71 196/560/108 153/492/65 110/480/22
f 160/711/72 194/690/106 155/635/67 111/645/23
f 161/534/73 199/486/111 149/477/61 106/502/18
f 163/710/75 201/687/113 154/666/66 108/709/20
f 164/638/76 202/585/114 152/568/64 107/610/19
f 165/558/77 188/539/100 167/644/79 114/615/26
f 165/558/77 203/561/115 166/470/78 113/485/25
f 167/644/79 188/539/100 169/535/81 115/608/27
f 167/644/79 204/665/116 168/642/80 114/615/26
f 169/535/81 188/539/100 171/467/83 116/481/28
f 169/535/81 205/533/117 170/636/82 115/608/27
f 171/467/83 188/539/100 165/558/77 113/485/25
f 171/467/83 206/455/118 172/468/84 116/481/28
f 172/468/84 206/455/118 142/281/54 104/298/16
f 173/540/85 197/536/109 175/641/87 118/609/30
f 173/540/85 207/553/119 174/469/86 117/482/29
f 175/641/87 197/536/109 177/528/89 119/604/31
f 175/641/87 208/663/120 176/637/88 118/609/30
f 177/528/89 197/536/109 179/461/91 120/476/32
f 177/528/89 209/513/121 178/621/90 119/604/31
f 179/461/91 197/536/109 173/540/85 117/482/29
f 179/461/91 210/451/122 180/466/92 120/476/32
f 180/466/92 210/451/122 158/280/70 112/296/24
f 211/454/123 244/432/156 303/478/215 243/484/155
f 211/454/123 245/288/157 304/285/216 244/432/156
f 211/454/123 284/456/196 322/299/234 245/288/157
f 212/529/124 243/484/155 303/478/215 246/512/158
f 212/529/124 283/534/195 321/486/233 243/484/155
f 213/504/125 246/512/158 303/478/215 248/471/160
f 213/504/125 270/509/182 315/569/227 249/571/161
f 214/358/126 244/432/156 304/285/216 250/284/162
f 214/358/126 248/471/160 303/478/215 244/432/156
f 214/358/126 269/420/181 314/479/226 248/471/160
f 215/725/127 285/710/197 323/687/235 251/708/163
f 216/662/128 247/590/159 305/588/217 253/661/165
f 216/662/128 286/638/198 324/585/236 247/590/159
f 217/643/129 253/661/165 305/588/217 249/571/161
f 217/643/129 267/611/179 312/667/224 254/697/166
f 218/273/130 268/277/180 313/286/225 250/284/162
f 219/270/131 257/263/169 308/279/220 256/283/168
f 219/696/131 268/701/180 312/667/224 255/660/167
f 220/616/132 255/660/167 312/667/224 267/611/179
f 220/616/132 267/611/179 315/569/227 258/584/170
f 221/530/133 258/584/170 315/569/227 270/509/182
f 221/530/133 270/509/182 314/479/226 260/483/172
f 222/452/134 256/283/168 308/279/220 262/376/174
f 222/452/134 260/483/172 314/479/226 269/420/181
f 223/731/135 257/718/169 311/700/223 263/727/175
f 223/310/135 288/470/200 328/455/240 264/281/176
f 224/707/136 259/664/171 309/607/221 265/659/177
f 224/707/136 263/727/175 311/700/223 259/664/171
f 225/572/137 261/541/173 307/487/219 266/488/178
f 225/572/137 265/659/177 309/607/221 261/541/173
f 226/298/138 264/281/176 328/455/240 294/468/206
f 226/311/138 266/488/178 307/487/219 262/376/174
f 227/453/139 273/289/185 317/275/229 272/287/184
f 227/453/139 284/456/196 321/486/233 271/477/183
f 228/502/140 271/477/183 321/486/233 283/534/195
f 228/502/140 283/534/195 324/585/236 274/568/186
f 229/610/141 274/568/186 324/585/236 286/638/198
f 229/610/141 286/638/198 323/687/235 276/666/188
f 230/274/142 272/287/184 317/275/229 278/269/190
f 230/709/142 276/666/188 323/687/235 285/710/197
f 231/276/143 273/289/185 320/457/232 279/300/191
f 231/297/143 296/469/208 332/451/244 280/280/192
f 232/480/144 275/492/187 318/560/230 281/559/193
f 232/480/144 279/300/191 320/457/232 275/492/187
f 233/645/145 277/635/189 316/690/228 282/711/194
f 233/645/145 281/559/193 318/560/230 277/635/189
f 234/296/146 280/280/192 332/451/244 302/466/214
f 234/730/146 282/711/194 316/690/228 278/724/190
f 235/485/147 287/558/199 310/539/222 293/467/205
f 235/485/147 288/470/200 325/561/237 287/558/199
f 236/615/148 289/644/201 310/539/222 287/558/199
f 236/615/148 290/642/202 326/665/238 289/644/201
f 237/608/149 291/535/203 310/539/222 289/644/201
f 237/608/149 292/636/204 327/533/239 291/535/203
f 238/481/150 293/467/205 310/539/222 291/535/203
f 238/481/150 294/468/206 328/455/240 293/467/205
f 239/482/151 295/540/207 319/536/231 301/461/213
f 239/482/151 296/469/208 329/553/241 295/540/207
f 240/609/152 297/641/209 319/536/231 295/540/207
f 240/609/152 298/637/210 330/663/242 297/641/209
f 241/604/153 299/528/211 319/536/231 297/641/209
f 241/604/153 300/621/212 331/513/243 299/528/211
f 242/476/154 301/461/213 319/536/231 299/528/211
f 242/476/154 302/466/214 332/451/244 301/461/213
f 243/484/155 321/486/233 284/456/196 211/454/123
f 245/288/157 322/299/234 285/282/197 215/278/127
f 246/512/158 305/588/217 247/590/159 212/529/124
f 247/590/159 324/585/236 283/534/195 212/529/124
f 248/471/160 314/479/226 270/509/182 213/504/125
f 249/571/161 305/588/217 246/512/158 213/504/125
f 249/571/161 315/569/227 267/611/179 217/643/129
f 250/284/162 304/285/216 252/272/164 218/273/130
f 250/284/162 313/286/225 269/420/181 214/358/126
f 251/708/163 306/706/218 252/726/164 215/725/127
f 251/708/163 323/687/235 286/638/198 216/662/128
f 252/272/164 304/285/216 245/288/157 215/278/127
f 252/726/164 306/706/218 254/697/166 218/719/130
f 253/661/165 306/706/218 251/708/163 216/662/128
f 254/697/166 306/706/218 253/661/165 217/643/129
f 254/697/166 312/667/224 268/701/180 218/719/130
f 255/660/167 311/700/223 257/718/169 219/696/131
f 256/283/168 313/286/225 268/277/180 219/270/131
f 258/584/170 309/607/221 259/664/171 220/616/132
f 259/664/171 311/700/223 255/660/167 220/616/132
f 260/483/172 307/487/219 261/541/173 221/530/133
f 261/541/173 309/607/221 258/584/170 221/530/133
f 262/376/174 307/487/219 260/483/172 222/452/134
f 262/376/174 308/279/220 264/271/176 226/311/138
f 263/583/175 325/561/237 288/470/200 223/310/135
f 264/271/176 308/279/220 257/263/169 223/260/135
f 265/717/177 326/665/238 290/642/202 224/691/136
f 266/503/178 327/533/239 292/636/204 225/689/137
f 269/420/181 313/286/225 256/283/168 222/452/134
f 271/477/183 320/457/232 273/289/185 227/453/139
f 272/287/184 322/299/234 284/456/196 227/453/139
f 274/568/186 318/560/230 275/492/187 228/502/140
f 275/492/187 320/457/232 271/477/183 228/502/140
f 276/666/188 316/690/228 277/635/189 229/610/141
f 277/635/189 318/560/230 274/568/186 229/610/141
f 278/724/190 316/690/228 276/666/188 230/709/142
f 278/269/190 317/275/229 280/268/192 234/259/146
f 279/570/191 329/553/241 296/469/208 231/297/143
f 280/268/192 317/275/229 273/289/185 231/276/143
f 281/712/193 330/663/242 298/637/210 232/688/144
f 282/497/194 331/513/243 300/621/212 233/686/145
f 285/282/197 322/299/234 272/287/184 230/274/142
f 287/558/199 325/561/237 290/642/202 236/615/148
f 289/644/201 326/665/238 292/636/204 237/608/149
f 290/642/202 325/561/237 263/583/175 224/691/136
f 291/535/203 327/533/239 294/468/206 238/481/150
f 292/636/204 326/665/238 265/717/177 225/689/137
f 293/467/205 328/455/240 288/470/200 235/485/147
f 294/468/206 327/533/239 266/503/178 226/298/138
f 295/540/207 329/553/241 298/637/210 240/609/152
f 297/641/209 330/663/242 300/621/212 241/604/153
f 298/637/210 329/553/241 279/570/191 232/688/144
f 299/528/211 331/513/243 302/466/214 242/476/154
f 300/621/212 330/663/242 281/712/193 233/686/145
f 301/461/213 332/451/244 296/469/208 239/482/151
f 302/466/214 331/513/243 282/497/194 234/296/146
g cube2_sep45_default
usemtl default
f 1/4/251 13/31/293 4/131/262 3/132/258 2/19/255
f 1/152/253 17/151/308 16/160/306 13/161/296
f 2/320/257 6/321/272 5/313/267 1/312/252
f 3/498/259 7/499/273 6/321/270 2/320/256
f 3/498/261 9/514/283 12/515/292 7/499/276
f 4/131/263 10/147/285 9/148/282 3/132/260
f 4/391/265 13/505/294 14/506/298 8/392/280
f 5/313/268 18/309/311 17/301/309 1/312/254
f 6/155/271 7/33/274 8/34/277 14/146/297 5/153/266
f 7/33/275 12/3/291 11/24/289 8/34/279
f 8/392/278 11/304/288 10/308/286 4/391/264
f 10/359/284 11/362/287 12/341/290 9/332/281
f 13/324/295 16/323/305 15/415/302 14/416/299
f 14/157/300 15/156/303 18/167/312 5/168/269
f 16/354/304 17/393/307 18/394/310 15/355/301
f 27/460/339 29/459/344 35/458/363 30/450/348 28/449/342
f 27/551/337 33/552/358 32/545/354 29/544/343
f 28/581/340 34/580/361 33/552/359 27/551/338
f 29/459/345 39/472/378 38/473/376 35/458/366
f 30/370/347 31/371/351 34/349/362 28/348/341
f 32/242/353 33/241/357 34/256/360 31/255/350 36/240/367
f 32/545/355 40/523/381 39/516/379 29/544/346
f 35/692/364 36/693/368 31/679/352 30/678/349
f 35/586/365 38/605/375 37/606/372 36/587/369
f 36/240/370 37/209/373 40/210/382 32/242/356
f 38/395/374 39/426/377 40/427/380 37/396/371
f 41/543/384 47/542/405 48/522/407 42/519/386
f 42/60/388 44/55/394 49/41/409 43/43/390 41/42/385
f 42/383/387 48/384/408 45/366/397 44/365/393
f 43/550/389 46/549/400 47/542/404 41/543/383
f 43/550/392 53/582/425 54/577/427 46/549/401
f 44/573/395 45/574/398 50/548/414 49/546/410
f 46/490/402 54/500/428 51/501/419 50/489/416
f 49/41/412 52/13/422 53/22/424 43/43/391
f 50/489/413 45/475/396 48/474/406 47/491/403 46/490/399
f 50/547/415 51/521/418 52/520/421 49/546/411
f 51/398/417 54/384/426 53/383/423 52/397/420
f 55/18/429 67/32/471 58/142/440 57/141/436 56/2/433
f 55/150/431 71/149/486 70/158/484 67/159/474
f 56/413/435 60/327/450 59/326/445 55/412/430
f 57/495/437 61/496/451 60/307/448 56/306/434
f 57/495/439 63/510/461 66/511/470 61/496/454
f 58/142/441 64/166/463 63/169/460 57/141/438
f 58/424/443 67/508/472 68/507/476 62/425/458
f 59/326/446 72/325/489 71/411/487 55/412/432
f 60/171/449 61/37/452 62/38/455 68/163/475 59/170/444
f 61/37/453 66/1/469 65/25/467 62/38/457
f 62/425/456 65/303/466 64/302/464 58/424/442
f 64/409/462 65/410/465 66/379/468 63/377/459
f 67/323/473 70/322/483 69/414/480 68/415/477
f 68/154/478 69/152/481 72/161/490 59/162/447
f 70/402/482 71/443/485 72/444/488 69/403/479
f 333/7/547 336/135/558 335/133/554 342/126/577 341/26/575 334/14/550
f 333/493/548 337/494/561 340/305/572 336/304/559
f 334/336/551 338/319/565 337/318/563 333/335/549
f 334/336/552 348/342/591 347/317/589 338/319/567
f 335/201/556 351/200/598 350/198/596 342/199/578
f 336/328/560 340/417/574 339/418/569 335/329/555
f 338/139/564 343/128/579 344/28/581 339/5/568 340/16/573 337/137/562
f 338/174/566 347/176/588 346/173/586 343/172/580
f 339/418/570 352/419/601 351/330/599 335/329/557
f 341/185/576 345/184/584 348/179/592 334/181/553
f 344/194/582 349/192/594 352/190/602 339/191/571
f 346/390/585 347/361/587 348/360/590 345/389/583
f 350/389/595 351/421/597 352/423/600 349/390/593
f 353/8/603 356/136/614 355/134/610 362/127/633 361/27/631 354/15/606
f 353/639/604 357/640/617 360/525/628 356/524/615
f 354/343/607 358/316/621 357/315/619 353/333/605
f 354/343/608 368/331/647 367/314/645 358/316/623
f 355/205/612 371/204/654 370/202/652 362/203/634
f 356/612/616 360/624/630 359/622/625 355/613/611
f 358/140/620 363/129/635 364/29/637 359/6/624 360/17/629 357/138/618
f 358/178/622 367/180/644 366/177/642 363/175/636
f 359/622/626 372/623/657 371/614/655 355/613/613
f 361/189/632 365/188/640 368/186/648 354/187/609
f 364/197/638 369/196/650 372/193/658 359/195/627
f 366/380/641 367/357/643 368/356/646 365/378/639
f 370/421/651 371/441/653 372/442/656 369/422/649
f 373/334/661 375/344/666 376/347/668 374/337/664
f 373/381/659 379/382/674 378/364/672 375/363/665
f 374/596/662 380/598/677 379/563/675 373/562/660
f 376/447/667 377/448/670 380/438/678 374/437/663
f 378/337/671 379/347/673 380/351/676 377/339/669
f 381/338/681 383/350/686 384/353/688 382/340/684
f 381/401/679 387/404/694 386/382/692 383/381/685
f 382/684/682 388/685/697 387/654/695 381/653/680
f 384/369/687 385/370/690 388/348/698 382/347/683
f 386/351/691 387/372/693 388/374/696 385/352/689
f 389/375/700 391/386/705 392/385/708 390/373/702
f 389/445/699 395/446/716 394/436/714 391/435/704
f 391/625/703 394/626/713 393/603/710 392/602/706
f 392/428/707 393/429/711 396/400/718 390/399/701
f 394/406/712 395/430/715 396/431/717 393/407/709
f 397/388/720 399/408/725 400/405/728 398/387/722
f 397/367/719 403/368/736 402/346/734 399/345/724
f 399/698/723 402/699/733 401/677/730 400/676/726
f 400/433/727 401/434/731 404/429/738 398/428/721
f 402/430/732 403/439/735 404/440/737 401/431/729
f 405/597/741 412/617/760 414/620/766 406/600/743
f 406/694/742 409/695/752 408/681/748 405/680/739
f 408/681/749 413/656/763 412/655/759 405/680/740
f 409/93/754 406/102/745 415/103/245 407/101/747
f 409/251/753 407/247/746 410/248/756 408/254/751
f 411/227/757 413/224/764 408/254/750 410/248/755
f 412/50/762 416/46/246 417/23/769 414/10/767
f 413/53/765 411/47/758 416/46/246 412/50/761
f 414/121/768 417/120/770 415/103/245 406/102/744
f 418/651/771 421/652/780 422/634/784 419/633/774
f 418/651/772 425/674/791 426/675/795 421/652/781
f 419/595/775 427/564/798 425/566/792 418/594/773
f 419/75/776 428/74/247 430/61/802 427/58/800
f 420/76/779 428/74/247 419/75/777 422/77/786
f 421/84/783 423/88/788 420/89/778 422/86/785
f 423/88/787 421/84/782 426/119/796 424/118/789
f 425/109/793 429/111/248 424/110/790 426/107/797
f 427/143/799 430/130/801 429/111/248 425/109/794
f 431/647/803 434/648/812 435/629/816 432/628/806
f 431/647/804 438/669/823 439/670/827 434/648/813
f 432/599/807 440/619/830 438/618/824 431/601/805
f 432/258/808 441/257/249 443/243/834 440/244/832
f 433/249/811 441/257/249 432/258/809 435/253/818
f 434/83/815 436/79/820 433/78/810 435/81/817
f 436/79/819 434/83/814 439/59/828 437/62/821
f 438/211/825 442/219/250 437/212/822 439/207/829
f 440/244/831 443/243/833 442/219/250 438/211/826
f 444/658/835 447/657/844 448/673/848 445/674/838
f 444/658/836 451/633/858 452/632/861 447/657/845
f 445/702/840 454/704/868 453/705/864 455/713/871 451/715/860 444/703/837
f 446/213/842 454/225/867 445/215/839 448/206/850
f 447/217/847 449/220/852 446/213/841 448/206/849
f 449/104/851 447/108/846 452/72/862 450/73/855
f 449/252/854 453/250/866 454/239/869 446/237/843
f 450/164/857 455/165/872 453/117/865 449/113/853
f 451/66/859 455/71/870 450/73/856 452/72/863
f 456/722/875 463/714/898 467/716/909 465/720/902 466/721/906 457/723/878
f 457/631/876 460/630/886 459/649/882 456/650/873
f 458/69/881 466/64/907 465/48/904 461/52/892
f 459/649/883 464/671/899 463/672/896 456/650/874
f 460/231/888 457/229/877 466/222/905 458/230/880
f 460/231/887 458/230/879 461/226/890 459/228/885
f 461/52/891 465/48/903 467/12/910 462/21/895
f 462/80/893 464/82/900 459/57/884 461/63/889
f 464/82/901 462/80/894 467/90/908 463/92/897
f 468/527/913 475/557/936 479/556/947 477/532/940 478/531/944 469/526/916
f 469/628/914 472/627/924 471/646/920 468/647/911
f 470/67/919 478/65/945 477/49/942 473/51/930
f 471/646/921 476/668/937 475/669/934 468/647/912
f 472/238/926 469/235/915 478/232/943 470/236/918
f 472/238/925 470/236/917 473/233/928 471/234/923
f 473/51/929 477/49/941 479/11/948 474/20/933
f 474/36/931 476/35/938 471/56/922 473/54/927
f 476/35/939 474/36/932 479/30/946 475/9/935
f 480/555/949 483/554/958 484/578/962 481/579/952
f 480/555/950 487/518/972 488/517/975 483/554/959
f 481/593/954 490/591/982 489/589/978 491/567/985 487/565/974 480/592/951
f 482/214/956 490/223/981 481/216/953 484/208/964
f 483/218/961 485/221/966 482/214/955 484/208/963
f 485/100/965 483/91/960 488/125/976 486/124/969
f 485/85/968 489/87/980 490/70/983 482/68/957
f 486/112/971 491/114/986 489/87/979 485/85/967
f 487/145/973 491/144/984 486/124/970 488/125/977
g cube2_sep45_wood
usemtl wood
f 19/264/313 22/734/322 21/736/319 20/266/316
f 19/729/314 23/728/325 26/245/335 22/246/324
f 20/755/318 24/99/330 23/98/327 19/754/315
f 21/683/321 25/682/332 24/182/328 20/183/317
f 22/95/323 26/757/334 25/758/331 21/96/320
f 24/737/329 25/267/333 26/265/336 23/735/326
f 73/464/491 76/750/502 75/751/498 74/465/494
f 73/732/492 77/733/505 80/261/517 76/262/504
f 74/759/495 78/97/509 77/94/507 73/756/493
f 74/116/497 81/122/520 84/123/532 78/115/511
f 75/575/500 82/537/523 81/122/519 74/116/496
f 76/40/503 80/747/516 79/746/512 75/39/499
f 78/749/508 79/463/513 80/462/518 77/748/506
f 78/115/510 84/123/531 83/538/528 79/576/515
f 79/576/514 83/538/527 82/537/524 75/575/501
f 81/105/522 85/106/537 88/753/546 84/752/534
f 82/294/525 86/292/539 85/742/536 81/744/521
f 83/45/529 87/44/542 86/738/540 82/739/526
f 84/293/533 88/291/545 87/741/543 83/743/530
f 86/740/538 87/745/541 88/295/544 85/290/535
