# Exported from Wings 3D 1.0.2
mtllib WreckedBoatPart1.mtl
o cube1_sep26
#298 vertices, 285 faces
v 1.64569876 -0.60011796 8.6453989e-2
v 1.58288662 -0.33605133 0.18775669
v 1.63325810 -0.32406973 0.18775669
v 1.69607024 -0.58813636 8.6453989e-2
v 1.64569876 -0.60011796 -0.21141131
v 1.58288662 -0.33605133 -0.21141131
v 1.63325810 -0.32406973 -0.21141131
v 1.69607024 -0.58813636 -0.21141131
v -0.56220868 -0.60336977 0.82952122
v -0.69039768 -0.28165922 0.77744842
v -0.58228060 -0.21054134 0.76955798
v -0.41026216 -0.60336977 0.83355316
v -0.56126204 -0.60876699 0.79384629
v -0.68945104 -0.28705644 0.74177349
v -0.58133396 -0.21593856 0.73388305
v -0.40931552 -0.60876699 0.79787822
v 0.85255315 -4.9002213e-2 -0.17388060
v 0.74013713 -4.7951575e-2 -0.16727785
v 0.85227618 -0.11853962 -0.16753137
v 0.73986016 -0.11748898 -0.16092862
v 0.68972133 -7.5996690e-2 -0.47663023
v 0.79930023 -7.8138274e-2 -0.49530490
v 0.68944436 -0.14553410 -0.47028101
v 0.79902325 -0.14767568 -0.48895567
v 0.83288947 1.9223845e-2 0.57248065
v -0.32683690 0.23365354 2.87034646
v 9.1904880e-2 0.23299843 2.88143854
v 0.72097792 1.8524159e-2 0.55993567
v -0.65028196 0.13980251 1.82837029
v 0.46976445 0.13805024 1.85803928
v -0.53023170 0.14091532 1.84579486
v 0.34896414 0.13953985 1.86908394
v -0.81842760 8.0950622e-2 1.17648310
v -0.22124691 0.25505560 3.10935031
v 0.26596619 0.19171813 2.43692543
v -0.28349262 0.21412675 2.65837786
v 0.56577847 7.6263301e-2 1.18553060
v -0.47724943 0.19288087 2.41723834
v -2.6122671e-2 0.25475034 3.11451897
v 0.67200093 7.8618903e-2 1.21596317
v -0.71075086 7.8260383e-2 1.15171653
v 5.9782341e-2 0.21358971 2.66747089
v 0.83261250 -5.0313564e-2 0.57882988
v -0.32711387 0.16411613 2.87669568
v 9.1627906e-2 0.16346102 2.88778777
v 0.72070094 -5.1013250e-2 0.56628490
v -0.65055894 7.0265101e-2 1.83471952
v 0.46948748 6.8512831e-2 1.86438851
v -0.53050868 7.1377909e-2 1.85214408
v 0.34868717 7.0002440e-2 1.87543316
v -0.81870458 1.1413214e-2 1.18283233
v -0.22152388 0.18551819 3.11569954
v 0.26568922 0.12218073 2.44327466
v -0.28376959 0.14458935 2.66472708
v 0.56550150 6.7258930e-3 1.19187983
v -0.47752640 0.12334346 2.42358757
v -2.6399645e-2 0.18521293 3.12086820
v 0.67172396 9.0814949e-3 1.22231240
v -0.71102784 8.7229745e-3 1.15806575
v 5.9505368e-2 0.14405231 2.67382012
v -9.8422108e-2 0.26347567 3.20692580
v -0.15391403 0.26356248 3.20545587
v -9.8699082e-2 0.19393826 3.21327503
v -0.15419100 0.19402508 3.21180510
v -0.89195600 5.1141673e-2 0.84680478
v -0.26841551 0.24648169 3.01339029
v 0.17322322 0.21447679 2.68213493
v 0.65434337 4.6752395e-2 0.86618750
v -0.56264533 0.16743748 2.13485439
v 0.57302723 0.10868987 1.54098602
v -0.62827082 0.10850341 1.48653938
v 0.20992760 0.17570940 2.25915154
v -0.73670616 0.11073890 1.50629240
v -0.18429477 0.26057667 3.17142958
v 0.36611202 0.16598447 2.15945631
v -0.41192825 0.17668227 2.24267915
v 0.46578324 0.10679180 1.51551985
v -0.39754741 0.21536974 2.66701575
v 2.6032948e-2 0.24602104 3.02118996
v 0.76278611 4.8552892e-2 0.89063736
v -0.78237711 4.9000089e-2 0.82813011
v -0.89223298 -1.8395736e-2 0.85315400
v -0.26869248 0.17694428 3.01973952
v 0.17294625 0.14493938 2.68848416
v 0.65406640 -2.2785014e-2 0.87253673
v -0.56292231 9.7900069e-2 2.14120362
v -6.6569049e-2 0.19085465 3.18090459
v 0.57275026 3.9152459e-2 1.54733525
v -0.62854779 3.8965998e-2 1.49288861
v 0.20965063 0.10617200 2.26550076
v -0.73698313 4.1201487e-2 1.51264163
v 0.36583505 9.6447064e-2 2.16580554
v -0.41220522 0.10714487 2.24902838
v 0.46550627 3.7254392e-2 1.52186908
v -0.39782438 0.14583233 2.67336498
v 2.5755974e-2 0.17648363 3.02753919
v 0.76250913 -2.0984517e-2 0.89698658
v -0.78265408 -2.0537319e-2 0.83447934
v -6.6292075e-2 0.26039206 3.17455536
v -0.18457174 0.19103926 3.17777881
v -0.12673659 0.19499324 3.22360618
v -0.12645962 0.26453065 3.21725695
v 0.10170072 -0.63519487 1.03123785
v 0.31216691 -0.46772728 1.13892895
v 0.27947042 -0.42760876 1.14044210
v 6.9004235e-2 -0.59507635 1.03275100
v 0.10170072 -0.62396827 0.73358419
v 0.31216691 -0.45268256 0.74004457
v 0.27947042 -0.41256404 0.74155772
v 6.9004235e-2 -0.58384975 0.73509734
v 0.31493883 -0.32386252 1.51858096
v 0.31341709 -0.31163599 1.53101336
v 0.32181142 -0.26928150 1.53344064
v 0.32813791 -0.25726509 1.52239758
v 1.31832796 -0.48598688 1.86853226
v 1.32465446 -0.47397047 1.85748920
v 1.30993363 -0.52834137 1.86610498
v 1.31145537 -0.54056790 1.85367258
v 0.36331196 -0.28785794 0.95736773
v 0.35969681 -0.30127506 0.96965698
v 0.37140520 -0.24702263 0.95970795
v 0.37289589 -0.23467763 0.97347359
v 1.61888055 -0.50563307 1.39245210
v 1.62331040 -0.51926557 1.38067732
v 1.61521717 -0.56010088 1.37833710
v 1.60568146 -0.57223050 1.38863549
v -0.95386447 -0.60658624 0.95789653
v -1.11289509 -0.46115963 1.15154350
v -1.08546734 -0.41831741 1.14189426
v -0.92643672 -0.56374401 0.94824728
v -1.07713717 -0.58860479 0.68733370
v -1.27809230 -0.43706277 0.78896342
v -1.25066455 -0.39422055 0.77931418
v -1.04970943 -0.54576257 0.67768445
v -0.88822156 -0.26065391 -0.18446608
v -0.80358191 -0.25982935 -0.17676609
v -0.73627329 -0.56742275 -8.5867311e-2
v -0.65528770 -0.53268908 -8.4516988e-2
v -0.72858525 -0.40036679 -0.12975245
v -0.81162037 -0.41630717 -0.13431754
v -0.52583147 -0.61641843 -0.64692097
v -0.59914706 -0.65577539 -0.66663888
v -0.58479285 -0.48847911 -0.71676405
v -0.66049152 -0.50859566 -0.74075129
v -0.60873033 -0.75594650 0.54078063
v -0.90718163 -0.15255421 0.53005831
v 0.79504919 -0.15255421 0.57522739
v -0.22162765 -0.47340975 2.38273503
v 1.2206730e-2 -0.47340975 2.38893987
v -0.29904738 0.19371882 2.83662497
v 6.5446316e-2 0.19371882 2.84629689
v -8.4985133e-2 -0.88793789 1.64247375
v -0.36079129 -1.06690313 0.53033523
v 0.24941307 -1.06690313 0.54652714
v -0.82225273 -0.15337877 0.52685787
v 0.71040954 -0.15337877 0.56752741
v -0.12321651 0.23029912 3.08325180
v -0.75273660 -0.47355817 0.53456489
v -0.42164781 -0.60073800 1.56865831
v -0.61252228 3.9271230e-2 1.80671027
v 0.64058250 -0.47355817 0.57153693
v -0.11273965 -0.41864257 2.68842338
v 0.25511844 -0.60073800 1.58661646
v -0.12530718 0.24221893 3.16204013
v 0.43309966 3.9271230e-2 1.83445609
v -0.22126768 -1.01625881 1.01899571
v -0.17731236 -0.71663236 2.07327060
v 8.4170611e-2 -1.01625881 1.02710059
v 0.36876397 -0.96273299 0.56918047
v -1.5634333e-2 -0.71663236 2.07756076
v -0.67151997 -0.44014177 0.52720828
v -0.52928395 3.8465544e-2 1.80358980
v 0.55932917 -0.44002034 0.56104275
v 0.35014396 3.8465544e-2 1.82692562
v -0.26025451 -0.15859319 2.62725872
v 3.7811379e-2 -0.15859319 2.63516797
v -0.22695047 -0.13146305 2.50366033
v 1.2176644e-2 -0.13143453 2.51029241
v 0.34100041 -0.29817587 1.72328545
v -0.33333847 -0.83866753 1.37551900
v 0.17717615 -0.83866753 1.38906563
v -0.10480806 -0.62332518 2.38951550
v -0.44720516 -0.26463849 1.66548329
v -0.11977013 -0.10895515 2.95337237
v -0.51465691 -0.29817587 1.70058039
v 0.27543993 -0.26455374 1.68548040
v -0.67877620 -0.62199277 0.53735229
v -0.52551786 -0.67759885 1.06122076
v -0.77547266 -5.6634632e-2 1.16801517
v 0.71717001 -0.31546967 0.57324089
v -0.16032386 -0.43390887 2.60847885
v 0.12408834 -0.53084722 2.03428482
v -0.20029356 0.22616235 3.05384376
v 0.23504509 0.12603536 2.40310368
v -0.30248945 -1.05148279 0.73628312
v -0.20249280 -0.60467246 2.23873124
v -0.54390385 -0.87059242 0.54506355
v -7.2708194e-3 -0.95937759 1.34145652
v 7.3577902e-4 -0.60467246 2.24412396
v -0.74602409 -0.30094030 0.52744323
v -0.33443535 0.14074840 2.48531208
v 0.55204180 -6.0646015e-2 1.17670770
v -0.24089884 -0.32309522 2.51117013
v 2.4639487e-2 -0.32309522 2.51821626
v -0.18397739 -0.36252918 2.52491902
v -3.1657913e-2 -0.36249430 2.52919156
v -0.82930669 -0.31546967 0.53220478
v -0.31454335 -0.53084722 2.02264562
v -0.44490357 0.12603536 2.38506109
v 0.56657836 -0.62199277 0.57039806
v -6.0982693e-2 -0.43390887 2.61111489
v 0.38575331 -0.67759885 1.08540155
v -4.4688330e-2 0.22616235 3.05797278
v 0.62969273 -5.6634632e-2 1.20530156
v -0.14662620 -0.95937759 1.33775869
v -0.13990439 -0.80903849 1.88046494
v -0.41742446 -1.02917068 0.54189742
v 0.18027122 -1.05148279 0.74909328
v 0.30535336 -1.02917068 0.56107649
v -4.2764574e-2 -0.80903849 1.88304257
v -0.69641458 -6.0646015e-2 1.14357962
v 0.63396849 -0.30088284 0.56468868
v 0.11941570 0.14074840 2.49735513
v -0.27964279 1.5232017e-2 2.73422294
v 5.1499732e-2 1.5232017e-2 2.74300988
v -0.20054968 4.8056518e-3 2.73519830
v -2.6593698e-2 4.8191460e-3 2.73996152
v -0.14907281 -1.09120749 0.72831555
v 2.7493014e-2 -1.09120749 0.73300077
v 0.38666146 -0.13163263 1.78046442
v 0.50345628 -0.38520553 1.15230850
v 0.29689369 -0.45599787 1.65973190
v 0.17763837 -0.22007077 2.23446341
v -0.41579230 -0.90083579 0.96471931
v -0.37848195 -0.72803565 1.48496514
v -0.24927541 -0.77614089 1.75578145
v -0.28181164 -0.93341037 1.22746303
v 7.3064886e-2 -0.77614089 1.76433482
v 0.21645183 -0.72803565 1.50075185
v 0.28129994 -0.90083579 0.98321681
v 0.13357370 -0.93341037 1.23848538
v -0.13115856 -0.66351845 2.29575042
v -0.10885456 -0.54121897 2.54201102
v -7.3521980e-2 -0.66351845 2.29727982
v -0.40219666 -0.49916742 1.61533227
v -0.31548035 -0.18269559 2.19410087
v -0.48911949 -0.11671162 1.73381309
v -0.57205771 -0.35286229 1.09514957
v -5.4039308e-2 -0.12144608 2.87472474
v -0.11639455 -0.27237787 2.82616097
v -0.18123752 -0.12144608 2.87134951
v -0.12281727 6.5095334e-2 3.06820621
v -0.46724181 -0.45599787 1.63945539
v -0.64660347 -0.38520553 1.12179140
v -0.56328608 -0.13163263 1.75525734
v -0.37863411 -0.22007077 2.21970259
v 0.31371943 -0.11667113 1.75555837
v 0.11667536 -0.18264360 2.20608048
v 0.23304501 -0.49900512 1.63326206
v 0.43000768 -0.35275190 1.12280652
v -0.25070953 -1.11827559 0.48414352
v -6.8891467e-2 -1.03497887 1.03597189
v 0.14193591 -1.11827559 0.49456245
v 0.56604116 -0.22318118 1.17967465
v 0.44300477 -0.53818549 1.12146388
v 0.15014022 -0.38208331 2.14028755
v 0.20610068 -4.9225813e-2 2.32075469
v -0.47032625 -0.79892342 1.02107196
v -0.28399583 -0.66194628 1.90232445
v -0.20511986 -0.87419146 1.57264404
v -0.35868188 -0.98201255 0.88313237
v 9.9964812e-2 -0.66194628 1.91251293
v 0.33276859 -0.79892342 1.04238227
v 0.22859669 -0.98201255 0.89871594
v 3.8683820e-2 -0.87419146 1.57911342
v -0.14959777 -0.56023135 2.45976687
v -6.3807029e-2 -0.56023135 2.46204335
v -9.7463100e-2 -0.74263416 2.11271527
v -0.28088819 -0.42455327 2.11208793
v -0.33006324 -2.5499848e-2 2.33009525
v -0.63355560 -0.21046122 1.12089671
v -0.51368103 -0.57990819 1.07831259
v -5.7713412e-2 -0.28568701 2.74860346
v -0.17087998 -0.28568701 2.74560056
v -0.19136785 5.2933602e-2 2.98594320
v -5.0000499e-2 5.2933602e-2 2.98969441
v -0.58460124 -0.53818549 1.09419612
v -0.71055159 -0.22318118 1.14579997
v -0.41163267 -4.9225813e-2 2.30436299
v -0.34618023 -0.38208331 2.12711757
v 0.12374862 -2.5473730e-2 2.34242227
v 8.6377536e-2 -0.42445931 2.12245492
v 0.37246613 -0.57969465 1.10323921
v 0.49024986 -0.21040899 1.15128717
v -0.14207959 -0.34012043 2.67425393
v -8.1576547e-2 -0.34010904 2.67593473
v -6.5832136e-3 -1.15584811 0.35251382
v -9.4866125e-2 -1.15584811 0.35017121
vt -0.25818295 1.95336556
vt -0.18328301 1.96653097
vt -0.10748587 0.45383722
vt -0.10514822 1.32490296
vt -4.6289961e-2 -1.14518754
vt -4.4225064e-2 0.17136012
vt -4.0365969e-2 0.51898950
vt -3.4687644e-2 0.94116595
vt -3.2678547e-2 -0.52205196
vt -3.1084179e-2 1.34496987
vt -2.2459557e-2 1.01046872
vt -1.4548071e-2 0.89515321
vt 1.5456922e-3 0.86435458
vt 7.8380092e-3 0.81586691
vt 8.5168762e-3 -0.40882018
vt 1.4041897e-2 0.84448552
vt 1.6582461e-2 -1.09480766
vt 1.9405891e-2 0.57474694
vt 2.4170682e-2 0.83368231
vt 3.1636723e-2 0.94116595
vt 3.3162183e-2 0.83008124
vt 3.3175875e-2 0.18586597
vt 3.3295065e-2 -0.48887891
vt 3.9967179e-2 -0.39610222
vt 4.1761261e-2 -0.86198326
vt 4.1825809e-2 -0.24366549
vt 4.2153685e-2 0.83368231
vt 4.3864809e-2 1.01046872
vt 5.1776295e-2 0.89515321
vt 5.2282469e-2 0.84448552
vt 5.2650057e-2 -0.40777058
vt 6.4778674e-2 0.86435458
vt 6.7870059e-2 0.86435458
vt 7.1953439e-2 -8.6607697e-2
vt 7.3607586e-2 -0.30841412
vt 8.0366264e-2 0.84448552
vt 8.0872438e-2 0.89515321
vt 8.2578587e-2 0.80078731
vt 8.6327524e-2 0.10720140
vt 8.8783924e-2 1.01046872
vt 9.0495048e-2 0.83368231
vt 9.5354397e-2 -0.19646275
vt 9.5913991e-2 5.3758252e-2
vt 9.9486550e-2 0.83008124
vt 0.10022153 1.34868510
vt 0.10101201 0.94116595
vt 0.10260558 1.39189598
vt 0.10847805 0.83368231
vt 0.11077763 -0.48605033
vt 0.11239023 -0.12466144
vt 0.11487054 0.18111551
vt 0.11504226 1.5600155e-2
vt 0.11507051 9.5163819e-2
vt 0.11535313 1.33252053
vt 0.11704624 -7.5398974e-2
vt 0.11760781 0.77251792
vt 0.11788479 1.27510422
vt 0.11805253 0.11500371
vt 0.11860684 0.84448552
vt 0.12051550 -0.52316523
vt 0.12279700 -0.41349230
vt 0.12344753 0.18744325
vt 0.12354564 -0.58774351
vt 0.12362550 0.19525036
vt 0.12443150 1.11775548
vt 0.12606455 1.20549393
vt 0.12742687 -8.3201007e-2
vt 0.13023840 0.29967576
vt 0.13109672 -0.48640309
vt 0.13110304 0.86435458
vt 0.13180111 0.61628193
vt 0.13196511 -0.23559867
vt 0.13399714 0.92703661
vt 0.13500505 -0.65824958
vt 0.13720873 5.0315136e-2
vt 0.13935614 6.2161551e-2
vt 0.14010673 -0.55688013
vt 0.14195164 -1.5428717e-2
vt 0.14399720 2.4673222e-2
vt 0.14425855 -0.32739529
vt 0.14443417 -7.0317872e-2
vt 0.14691406 9.3114559e-2
vt 0.14719680 0.89515321
vt 0.14736980 0.72155206
vt 0.14763186 0.70456536
vt 0.14844471 -7.8875327e-2
vt 0.14973953 0.81632478
vt 0.15067612 0.52578442
vt 0.15369346 0.30422686
vt 0.15384471 -0.62844148
vt 0.15399211 -0.73240703
vt 0.15416616 0.88076699
vt 0.15491966 0.17583334
vt 0.15510829 1.01046872
vt 0.15592940 -0.40514383
vt 0.15707593 0.22383165
vt 0.15835416 0.77795493
vt 0.16147730 -0.12685840
vt 0.16463120 0.40084867
vt 0.16488717 0.22395930
vt 0.16628796 -0.19940191
vt 0.16714444 0.61685433
vt 0.16733638 0.94116595
vt 0.16893422 0.95167082
vt 0.16908465 0.29670734
vt 0.16929882 -0.47752834
vt 0.16967375 0.84946227
vt 0.16986147 6.2327285e-2
vt 0.17028132 1.2089629e-2
vt 0.17213051 -6.2882135e-2
vt 0.17323943 -0.20162107
vt 0.17359261 -0.15064226
vt 0.17517389 0.64530374
vt 0.17569339 -0.70147428
vt 0.17575879 9.0724512e-2
vt 0.17806821 -0.21634034
vt 0.17810796 0.41415789
vt 0.17822481 -0.80873240
vt 0.17926458 1.38849584
vt 0.17960032 -0.40006960
vt 0.17977972 -0.19370484
vt 0.17994840 0.29003032
vt 0.18041517 0.69531577
vt 0.18507019 0.19538798
vt 0.18702916 0.92053820
vt 0.18724799 0.80356294
vt 0.18747816 -0.56422231
vt 0.18797836 0.77777639
vt 0.18797836 0.74497688
vt 0.18971329 -0.62354203
vt 0.18987122 -0.54698704
vt 0.19014353 1.02553103
vt 0.19385224 -0.29148385
vt 0.19597938 -1.4341847e-2
vt 0.19651638 0.50469359
vt 0.19745665 0.76754060
vt 0.19962311 0.74217298
vt 0.20193570 0.40250190
vt 0.20202261 0.77777639
vt 0.20202261 0.74497688
vt 0.20222572 -0.22515398
vt 0.20241358 -0.77674034
vt 0.20325193 0.17037129
vt 0.20420219 -0.15249209
vt 0.20421244 1.27981260
vt 0.20732472 -0.88717982
vt 0.20795255 0.30126818
vt 0.20904412 1.16040404
vt 0.21062751 0.99393757
vt 0.21088391 0.64078968
vt 0.21494724 -9.4452702e-2
vt 0.21525677 -0.35682502
vt 0.21577108 0.17326744
vt 0.21602720 0.57892746
vt 0.21611894 -0.61715103
vt 0.21637780 -0.26721488
vt 0.21782185 1.10197351
vt 0.21814287 0.95897031
vt 0.21850863 0.29593854
vt 0.21917666 0.83762456
vt 0.22248897 0.11152148
vt 0.22275401 0.35244601
vt 0.22349517 0.77777639
vt 0.22349517 0.74497688
vt 0.22417271 -0.25964298
vt 0.22926675 -0.29324163
vt 0.23001613 8.2405468e-2
vt 0.23046940 4.6278233e-2
vt 0.23080559 0.37995417
vt 0.23108421 1.63030071
vt 0.23124914 0.73439941
vt 0.23197058 0.74252979
vt 0.23377854 -0.27625927
vt 0.23452495 -0.26909081
vt 0.23493114 -0.85232817
vt 0.23800109 -0.15551553
vt 0.23858036 0.64466969
vt 0.23916623 1.37218020
vt 0.23984148 0.20199660
vt 0.24148316 1.06812022
vt 0.24170525 -0.24868369
vt 0.24220247 -0.41785330
vt 0.24286286 0.17868763
vt 0.24442104 0.71125042
vt 0.24452706 -0.96150965
vt 0.24957333 0.90646909
vt 0.24962905 -0.68693593
vt 0.25031509 1.17970887
vt 0.25105734 2.6483118e-2
vt 0.25175059 0.52740901
vt 0.25377121 0.50299750
vt 0.25421054 -0.35337847
vt 0.25439850 0.51443268
vt 0.25493856 0.44135767
vt 0.25518333 0.15227461
vt 0.25534255 0.53187322
vt 0.25677163 0.55932781
vt 0.25752918 0.77777639
vt 0.25752918 0.74497688
vt 0.25869865 0.59941494
vt 0.25870288 -2.5989075e-3
vt 0.25955906 1.21757368
vt 0.26016291 -7.7861023e-2
vt 0.26113000 0.65618147
vt 0.26224501 0.25805767
vt 0.26283773 0.13117360
vt 0.26317074 -0.22703007
vt 0.26398449 0.73322825
vt 0.26584178 -0.20725994
vt 0.26672454 0.29584827
vt 0.26686192 0.82415680
vt 0.26690989 0.42089490
vt 0.26873363 0.70445414
vt 0.26941489 0.92278977
vt 0.27100376 -0.43727912
vt 0.27102202 0.99029261
vt 0.27141029 1.02520886
vt 0.27148370 5.2854388e-2
vt 0.27270652 1.12815636
vt 0.27320505 1.32726923
vt 0.27327752 1.22936499
vt 0.27456611 7.5219851e-2
vt 0.27593195 -0.40221737
vt 0.27633422 1.14404078
vt 0.27637124 -0.91645447
vt 0.27675049 -0.56111129
vt 0.27758612 -0.47717243
vt 0.27759814 -0.34810758
vt 0.27774989 0.14485993
vt 0.27845798 -9.8831841e-3
vt 0.28048187 0.50153430
vt 0.28108803 0.51304157
vt 0.28191307 0.53058375
vt 0.28214687 -0.34883328
vt 0.28306014 0.55816355
vt 0.28378163 -0.40105425
vt 0.28452306 0.59839626
vt 0.28464312 0.97658084
vt 0.28523931 0.49159006
vt 0.28564606 0.72602601
vt 0.28564635 -0.26367003
vt 0.28570255 0.13780241
vt 0.28627587 -0.75851100
vt 0.28634106 0.65530804
vt 0.28693161 0.75967824
vt 0.28753076 -0.27058559
vt 0.28848448 0.73250572
vt 0.29054953 0.82358161
vt 0.29105702 -0.19726663
vt 0.29113614 0.29297266
vt 0.29190906 1.25292813
vt 0.29222154 0.92237713
vt 0.29323122 1.32736384
vt 0.29333052 1.02494518
vt 0.29373130 1.22936713
vt 0.29381617 1.12804152
vt 0.29466796 -0.11623401
vt 0.29499083 1.51601356
vt 0.29812908 0.49613456
vt 0.29899088 1.14942567
vt 0.29945572 0.20975253
vt 0.29955299 -0.26394599
vt 0.30016853 0.18324678
vt 0.30139254 0.35398429
vt 0.30156774 -0.25295647
vt 0.30275344 -0.27034332
vt 0.30359106 0.50702008
vt 0.30515845 0.49268974
vt 0.30530763 -0.35260515
vt 0.30545445 0.76369019
vt 0.30603310 0.66503425
vt 0.30610706 -8.5650613e-2
vt 0.30791616 0.77777639
vt 0.30791616 0.74497688
vt 0.30867675 0.82417210
vt 0.30921675 0.53778071
vt 0.31146023 0.98002952
vt 0.31159577 1.28233150
vt 0.31299374 -4.0088788e-2
vt 0.31428397 1.12734209
vt 0.31486904 0.28130342
vt 0.31667825 -1.4861122e-2
vt 0.31701736 1.26041923
vt 0.31708586 0.14416975
vt 0.31767221 -0.24876153
vt 0.31796550 -0.53710221
vt 0.31933601 0.21279226
vt 0.31945898 1.37096024
vt 0.32044814 -0.25520932
vt 0.32085830 -0.65359919
vt 0.32105595 1.20556874
vt 0.32130293 -0.30755083
vt 0.32137871 1.45077317
vt 0.32198106 0.53694344
vt 0.32503141 -0.11667997
vt 0.32547930 1.02266518
vt 0.32555098 1.04642829
vt 0.32567398 0.29290289
vt 0.32652701 0.32255205
vt 0.32691271 0.64145407
vt 0.32693742 -0.83028340
vt 0.32823579 -0.49186107
vt 0.32994950 0.20931606
vt 0.33002645 -0.29295034
vt 0.33254445 0.35344599
vt 0.33301927 6.5318027e-2
vt 0.33552097 0.50648541
vt 0.33879512 0.66441000
vt 0.34216935 1.58255584
vt 0.34226709 0.82350841
vt 0.34408116 0.77563717
vt 0.34428714 -0.29850504
vt 0.34581678 0.97932353
vt 0.34710658 0.13014322
vt 0.34815136 -0.24038388
vt 0.34917883 0.82166656
vt 0.34928352 1.12656408
vt 0.34958843 0.77804431
vt 0.34981365 -0.40530884
vt 0.35250918 1.25961762
vt 0.35483453 -0.15332751
vt 0.35499283 -6.8090933e-2
vt 0.35526159 1.37009260
vt 0.35682283 -0.22540912
vt 0.35729859 1.44985538
vt 0.36365862 -0.59655663
vt 0.36691032 0.58039225
vt 0.36842472 1.11851015
vt 0.36872228 0.54858468
vt 0.36893308 -0.45768580
vt 0.36972497 0.34877481
vt 0.37529028 -0.48496294
vt 0.37673978 -2.6085760e-2
vt 0.37866100 1.14297541
vt 0.37886880 0.18600240
vt 0.37998927 -0.28359135
vt 0.38031485 0.20778687
vt 0.38521398 -0.15148218
vt 0.38663296 -6.4353795e-2
vt 0.38677988 0.29033873
vt 0.38698573 -0.55484450
vt 0.39057507 1.60152841
vt 0.39110188 -0.79705761
vt 0.39327590 0.12171346
vt 0.39360927 -0.34309072
vt 0.39399552 -0.40298564
vt 0.39657899 0.88092373
vt 0.39742509 0.48454797
vt 0.39960452 0.54116636
vt 0.39960452 0.61561621
vt 0.40469344 -9.5962757e-2
vt 0.40552033 0.28424988
vt 0.41110703 -0.65784622
vt 0.41414779 -7.1732280e-2
vt 0.41455329 2.2693378e-2
vt 0.41760457 0.62415133
vt 0.41856407 0.84460612
vt 0.42034418 0.37554935
vt 0.42069308 -0.38614493
vt 0.43540912 0.87901703
vt 0.44034438 0.11265680
vt 0.44336405 1.3672446e-2
vt 0.44705385 -0.38870548
vt 0.44726291 0.11088524
vt 0.44752603 0.94002232
vt 0.45308601 0.55111229
vt 0.45359183 -1.10677136
vt 0.45667175 0.16634070
vt 0.45869168 -8.6117490e-2
vt 0.45869878 -0.44259685
vt 0.46061518 -0.12478383
vt 0.46070964 0.20626531
vt 0.46866381 0.64527850
vt 0.46965844 0.44455009
vt 0.47197001 0.10488323
vt 0.47229632 0.64145407
vt 0.47336849 0.66733108
vt 0.47751719 0.40207884
vt 0.48243660 0.56008501
vt 0.49107026 0.88526541
vt 0.49164580 0.55702031
vt 0.49301370 0.46997288
vt 0.49324334 0.45443186
vt 0.49641920 0.20175120
vt 0.49781717 0.47494717
vt 0.49819168 0.44960166
vt 0.50137871 -0.20292965
vt 0.50363837 -0.43426842
vt 0.50532473 -0.28738181
vt 0.50696249 0.44620320
vt 0.50778294 9.8458949e-2
vt 0.51414563 -1.26955154
vt 0.51531316 0.33483244
vt 0.51751956 0.17691856
vt 0.51910193 -0.49317968
vt 0.52073073 -0.84116232
vt 0.52145977 -0.15374076
vt 0.53147846 0.71179751
vt 0.53936048 0.42949228
vt 0.54114584 0.45138823
vt 0.54114584 0.46484622
vt 0.54325189 0.41962276
vt 0.54332608 -1.10829880
vt 0.54463774 0.58571657
vt 0.54495793 0.36375226
vt 0.54495793 0.51258869
vt 0.54797791 -0.17765220
vt 0.54970349 0.36375226
vt 0.54970349 0.51258869
vt 0.55366006 0.25482083
vt 0.55366006 0.41649192
vt 0.55377934 0.33405173
vt 0.55377934 0.46463050
vt 0.55521020 -0.47362605
vt 0.55919463 0.36375226
vt 0.55919463 0.51258869
vt 0.56209553 0.42382207
vt 0.56426380 0.51258869
vt 0.56426380 0.36375226
vt 0.56674949 0.31418162
vt 0.56711805 0.25482083
vt 0.56711805 0.41649192
vt 0.56723733 0.33405173
vt 0.56723733 0.46463050
vt 0.56849845 0.59412634
vt 0.56900937 0.36375226
vt 0.56900937 0.51258869
vt 0.56975588 0.99437771
vt 0.57322293 8.4620834e-2
vt 0.57850050 0.36375226
vt 0.57850050 0.51258869
vt 0.58144454 0.34441692
vt 0.58340791 0.18851754
vt 0.58509279 -0.18392632
vt 0.58559312 0.31838093
vt 0.58948828 0.45138823
vt 0.58948828 0.46484622
vt 0.59517818 -0.62816548
vt 0.59617004 -1.06286051
vt 0.59712137 0.80584366
vt 0.59845754 -0.21613872
vt 0.60071858 -1.27931919
vt 0.60444422 0.45708688
vt 0.60734013 0.24953065
vt 0.61027411 0.64977324
vt 0.61214364 -0.68392089
vt 0.61386638 0.24948281
vt 0.61680036 0.64972540
vt 0.62000881 0.60027342
vt 0.62226217 0.49484874
vt 0.62999112 0.24936460
vt 0.63292510 0.64960720
vt 0.63468205 -0.68402504
vt 0.63651737 0.24931676
vt 0.63945135 0.64955936
vt 0.64205384 7.0167296e-2
vt 0.64371303 0.60050525
vt 0.64565406 0.49530572
vt 0.65103157 0.35464215
vt 0.65192742 -0.62848122
vt 0.65272364 0.20083117
vt 0.65595147 1.26952930
vt 0.65702206 1.12520048
vt 0.65805518 0.98825003
vt 0.65900702 0.86583817
vt 0.65990310 0.75340170
vt 0.66076124 0.64630230
vt 0.66086338 0.17776687
vt 0.66705109 0.78348743
vt 0.66853076 -1.09828649
vt 0.67071244 0.76875163
vt 0.67741852 1.30167297
vt 0.67800047 7.6793451e-2
vt 0.67902951 1.26970048
vt 0.67907947 1.06977496
vt 0.67970981 0.96936173
vt 0.68006446 1.12536743
vt 0.68037396 0.86226633
vt 0.68099456 0.98841337
vt 0.68107572 0.74982640
vt 0.68178428 0.86600067
vt 0.68186330 0.62740358
vt 0.68248439 0.75356122
vt 0.68277613 0.49043520
vt 0.68314483 0.64646122
vt 0.68375632 0.34608439
vt 0.68596888 -0.22536381
vt 0.69211386 -0.47411238
vt 0.69958548 1.30183513
vt 0.70128199 1.06993568
vt 0.70209155 0.96952116
vt 0.70295490 0.86242790
vt 0.70326816 0.47798289
vt 0.70364266 0.45263738
vt 0.70385414 0.74998769
vt 0.70480506 0.62756629
vt 0.70482349 0.68227865
vt 0.70527455 1.39178260
vt 0.70582173 0.49059571
vt 0.70683787 0.34624112
vt 0.70684925 0.70869969
vt 0.70794948 0.47343789
vt 0.70808905 0.44170497
vt 0.70818766 0.45731870
vt 0.70835018 1.29876821
vt 0.70866709 0.74695758
vt 0.71358306 0.71028015
vt 0.71433183 0.70817649
vt 0.71438418 0.81382906
vt 0.71438418 0.83192027
vt 0.71664194 0.43902545
vt 0.71664194 0.45514639
vt 0.72125561 0.43441178
vt 0.72125561 0.45976006
vt 0.72419721 0.66963844
vt 0.72514321 1.39246952
vt 0.72836716 1.29940834
vt 0.72910392 0.71117783
vt 0.73316602 0.80936152
vt 0.73316602 0.83638781
vt 0.73317546 0.70397718
vt 0.73574586 0.20908181
vt 0.73597504 0.71038425
vt 0.73780473 0.91229070
vt 0.73780473 0.73345863
vt 0.73782942 0.81361763
vt 0.74228923 -0.28806996
vt 0.74261698 0.20828823
vt 0.75327091 0.70917465
vt 0.75620515 0.90019898
vt 0.75658658 0.90782316
vt 0.75658658 0.73792617
vt 0.75667306 0.80941832
vt 0.75673782 0.89360796
vt 0.75673782 0.91848603
vt 0.75813784 0.20918592
vt 0.76487165 0.21076637
vt 0.76766770 0.54340064
vt 0.76923991 1.04385100
vt 0.77098162 0.69288689
vt 0.77098162 0.71776496
vt 0.77098162 0.74264304
vt 0.77098162 0.79409566
vt 0.77098162 0.81897374
vt 0.77098162 0.84385181
vt 0.78087294 0.66963844
vt 0.78119341 0.45308501
vt 0.78119341 0.46617932
vt 0.78894753 0.81777667
vt 0.78921608 -8.6923522e-2
vt 0.79451022 0.79239918
vt 0.79451022 0.81727726
vt 0.79642618 0.92701800
vt 0.80450077 0.77887977
vt 0.81588753 0.68227865
vt 0.81588753 0.78348743
vt 0.82916856 0.79095764
vt 0.84558849 0.45308501
vt 0.84558849 0.46617932
vt 0.85224453 0.48541198
vt 0.85224453 0.56429370
vt 0.85224453 0.59343961
vt 0.85224453 0.66550247
vt 0.86117650 0.77887977
vt 0.86891716 0.64527850
vt 0.87155041 0.48541198
vt 0.87155041 0.56429370
vt 0.87155041 0.59343961
vt 0.87155041 0.66550247
vt 0.88204565 0.69288689
vt 0.88204565 0.71776496
vt 0.88204565 0.74264304
vt 0.90557426 0.79239918
vt 0.90557426 0.81727726
vt 0.90557426 0.89360796
vt 0.90557426 0.91848603
vt 0.91901690 0.84460612
vt 0.91981805 0.79409566
vt 0.91981805 0.81897374
vt 0.91981805 0.84385181
vt 0.92672902 0.43441178
vt 0.92672902 0.45976006
vt 0.93160546 0.43931456
vt 0.93160546 0.45485728
vn -0.86333775 -0.40754767 0.29757829
vn 0.84634131 -0.40754767 0.34294502
vn -7.1857362e-3 -0.96260885 0.27079985
vn -0.86532365 -0.43007795 0.25738674
vn -1.7964331e-2 -0.73576444 0.67699924
vn 0.85045591 -0.43007795 0.30291535
vn -0.29950307 -0.92841244 0.21988237
vn -0.62864334 -0.71914188 0.29604479
vn 0.28742055 -0.92841244 0.23545652
vn 0.61205850 -0.71914188 0.32896710
vn -0.89234735 -0.31570256 0.32256488
vn 0.87398498 -0.31570256 0.36943491
vn 0.92949139 0.24308860 -0.27740528
vn -0.91389594 0.24193836 -0.32597552
vn -0.71048070 -0.65597416 0.25478436
vn -1.2110628e-2 -0.88969328 0.45639808
vn 0.91415817 0.30813503 -0.26337739
vn -2.1348668e-2 -0.59351392 0.80454053
vn -0.89116589 -0.36218217 0.27321681
vn -0.86689669 -0.44424394 0.22613591
vn -0.77144150 -0.48823724 0.40804707
vn 0.84779867 -0.41872431 0.32543413
vn -0.38818206 -0.89954990 0.20031142
vn -0.80055281 -0.52291053 0.29271106
vn 0.18286738 -0.95103222 0.24919319
vn 0.78390286 -0.52291053 0.33475496
vn 0.88149828 0.45106035 -0.13966153
vn -0.88453855 -0.34971916 0.30868765
vn 0.86692311 -0.34971916 0.35516309
vn -0.89751302 -0.41902708 0.13742881
vn -0.86386440 -0.41872431 0.28001475
vn 0.74871588 -0.48823724 0.44838480
vn -0.19582553 -0.95103222 0.23914448
vn -0.31935823 -0.90150802 0.29205071
vn 0.37701265 -0.89954990 0.22061604
vn 0.30342045 -0.90150802 0.30857629
vn -0.89187676 -0.29261546 0.34486524
vn 0.87233240 -0.29261546 0.39167893
vn 0.91556938 0.25554461 -0.31053126
vn -0.89816651 0.25362452 -0.35912605
vn -0.12263516 -0.97541133 0.18312114
vn 0.11275110 -0.97541133 0.18936717
vn 0.86802576 -0.38749966 0.31044370
vn 0.87671651 -0.33537755 0.34480438
vn -0.81908766 -0.51377464 0.25520782
vn -0.67835147 -0.68164041 0.27423647
vn -0.52249923 -0.81657797 0.24534666
vn 0.66285325 -0.68164041 0.30982565
vn 0.50875244 -0.81657797 0.27271116
vn -0.42106608 -0.82631703 0.37403680
vn -1.4802085e-2 -0.82982481 0.55782765
vn 0.40063720 -0.82631703 0.39584089
vn 0.91614512 0.28283425 -0.28404736
vn 0.88718220 0.36700994 -0.27966309
vn 0.77272856 -0.38093733 0.50771776
vn -1.9939357e-2 -0.65951194 0.75142959
vn -0.79856699 -0.38093733 0.46602307
vn -2.2912782e-2 -0.50385323 0.86348534
vn -0.88326803 -0.38749966 0.26397272
vn -0.89308893 -0.34908972 0.28377548
vn -0.89376881 -0.33537755 0.29782414
vn -0.90049759 0.28167313 -0.33130702
vn -5.5655651e-3 -0.97774082 0.20974249
vn 0.86844173 -0.36622581 0.33419696
vn 0.87784562 -0.32004800 0.35630934
vn -0.80881593 -0.51904851 0.27641533
vn -0.45298930 -0.85168020 0.26351759
vn 0.79301856 -0.51904851 0.31892038
vn 0.56504477 -0.78504247 0.25383604
vn 0.43837668 -0.85168020 0.28717019
vn -0.68087559 -0.62307505 0.38494924
vn 0.65950237 -0.62307505 0.42051648
vn -9.2339044e-3 -0.93745403 0.34798660
vn 0.89339107 0.32706914 -0.30802300
vn 0.87653294 0.41161384 -0.24952767
vn 0.76926376 -0.42330518 0.47858751
vn -0.79356220 -0.42330518 0.43711756
vn -0.80861137 -0.32393698 0.49113387
vn 0.78142710 -0.32393698 0.53332591
vn -0.88877390 -0.38337811 0.25120148
vn -0.89550647 -0.32004800 0.30925303
vn -0.88494313 -0.36622581 0.28767049
vn -0.87700286 0.32440009 -0.35444401
vn -0.86879753 -0.46556712 -0.16863604
vn 8.0913066e-2 -0.34016416 0.93687855
vn -0.97285671 -0.23140833 0.0000000e+0
vn 8.0913066e-2 -0.34016416 0.93687855
vn -0.23140833 0.97285671 8.3934144e-17
vn -0.97285671 -0.23140833 0.0000000e+0
vn 8.0913066e-2 -0.34016416 0.93687855
vn 0.97285671 0.23140833 0.0000000e+0
vn -0.23140833 0.97285671 8.3934144e-17
vn 8.0913066e-2 -0.34016416 0.93687855
vn 0.97285671 0.23140833 0.0000000e+0
vn 0.0000000e+0 1.5429071e-17 -1.00000000
vn -0.97285671 -0.23140833 0.0000000e+0
vn -0.23140833 0.97285671 8.3934144e-17
vn 0.0000000e+0 1.5429071e-17 -1.00000000
vn -0.97285671 -0.23140833 0.0000000e+0
vn 0.97285671 0.23140833 0.0000000e+0
vn -0.23140833 0.97285671 8.3934144e-17
vn 0.0000000e+0 1.5429071e-17 -1.00000000
vn 0.97285671 0.23140833 0.0000000e+0
vn 0.0000000e+0 1.5429071e-17 -1.00000000
vn -2.6227646e-2 0.14953534 0.98840846
vn -0.93022839 -0.36569957 3.0642504e-2
vn -2.6227646e-2 0.14953534 0.98840846
vn -0.55127651 0.82264776 -0.13908582
vn -0.93022839 -0.36569957 3.0642504e-2
vn -2.6227646e-2 0.14953534 0.98840846
vn 0.91756013 0.39600336 -3.5563290e-2
vn -0.55127651 0.82264776 -0.13908582
vn -2.6227646e-2 0.14953534 0.98840846
vn 0.91756013 0.39600336 -3.5563290e-2
vn 2.6227646e-2 -0.14953534 -0.98840846
vn -0.93022839 -0.36569957 3.0642504e-2
vn -0.55127651 0.82264776 -0.13908582
vn 2.6227646e-2 -0.14953534 -0.98840846
vn -0.93022839 -0.36569957 3.0642504e-2
vn 0.91756013 0.39600336 -3.5563290e-2
vn -0.55127651 0.82264776 -0.13908582
vn 2.6227646e-2 -0.14953534 -0.98840846
vn 0.91756013 0.39600336 -3.5563290e-2
vn 2.6227646e-2 -0.14953534 -0.98840846
vn 3.9665585e-3 0.99584960 -9.0927678e-2
vn 0.99763672 -1.0178085e-2 -6.7951344e-2
vn 3.9665585e-3 0.99584960 -9.0927678e-2
vn 0.99763672 -1.0178085e-2 -6.7951344e-2
vn 3.9665585e-3 0.99584960 -9.0927678e-2
vn -0.99772588 1.0059383e-2 6.6647407e-2
vn 3.9665585e-3 0.99584960 -9.0927678e-2
vn -0.99772588 1.0059383e-2 6.6647407e-2
vn -3.9665585e-3 -0.99584960 9.0927678e-2
vn 0.99763672 -1.0178085e-2 -6.7951344e-2
vn 0.99763672 -1.0178085e-2 -6.7951344e-2
vn -3.9665585e-3 -0.99584960 9.0927678e-2
vn -0.99772588 1.0059383e-2 6.6647407e-2
vn -3.9665585e-3 -0.99584960 9.0927678e-2
vn -3.9665585e-3 -0.99584960 9.0927678e-2
vn -0.99772588 1.0059383e-2 6.6647407e-2
vn 3.9665585e-3 0.99584960 -9.0927678e-2
vn -0.98707499 1.8466849e-2 0.15919150
vn -0.16902309 -8.8952435e-2 -0.98158986
vn 3.9665585e-3 0.99584960 -9.0927678e-2
vn 0.98665109 -1.8700703e-2 -0.16177118
vn -0.16902309 -8.8952435e-2 -0.98158986
vn -0.98707499 1.8466849e-2 0.15919150
vn -3.9665585e-3 -0.99584960 9.0927678e-2
vn -0.16902309 -8.8952435e-2 -0.98158986
vn -3.9665585e-3 -0.99584960 9.0927678e-2
vn 0.98665109 -1.8700703e-2 -0.16177118
vn -0.16902309 -8.8952435e-2 -0.98158986
vn 3.9665585e-3 0.99584960 -9.0927678e-2
vn 0.99266722 7.0643307e-3 0.12067265
vn 3.9665585e-3 0.99584960 -9.0927678e-2
vn 0.99266722 7.0643307e-3 0.12067265
vn -0.93592855 3.5719351e-2 0.35037391
vn -0.93592855 3.5719351e-2 0.35037391
vn 3.9665585e-3 0.99584960 -9.0927678e-2
vn 3.9665585e-3 0.99584960 -9.0927678e-2
vn 3.9665585e-3 0.99584960 -9.0927678e-2
vn 0.91617406 3.2821807e-2 0.39943438
vn 0.91617406 3.2821807e-2 0.39943438
vn 3.9665585e-3 0.99584960 -9.0927678e-2
vn 3.9665585e-3 0.99584960 -9.0927678e-2
vn 3.9665585e-3 0.99584960 -9.0927678e-2
vn 3.9665585e-3 0.99584960 -9.0927678e-2
vn -0.99282492 -6.9452416e-3 -0.11937525
vn 3.9665585e-3 0.99584960 -9.0927678e-2
vn -0.99282492 -6.9452416e-3 -0.11937525
vn 3.9665585e-3 0.99584960 -9.0927678e-2
vn 3.9665585e-3 0.99584960 -9.0927678e-2
vn -0.96395106 2.7999452e-2 0.26460232
vn -0.96395106 2.7999452e-2 0.26460232
vn 3.9665585e-3 0.99584960 -9.0927678e-2
vn 3.9665585e-3 0.99584960 -9.0927678e-2
vn 0.94867381 2.5007223e-2 0.31526598
vn 0.94867381 2.5007223e-2 0.31526598
vn 3.9665585e-3 0.99584960 -9.0927678e-2
vn 3.9665585e-3 0.99584960 -9.0927678e-2
vn 0.96187607 -2.8664758e-2 -0.27197934
vn 0.96187607 -2.8664758e-2 -0.27197934
vn 3.9665585e-3 0.99584960 -9.0927678e-2
vn 3.9665585e-3 0.99584960 -9.0927678e-2
vn -0.94621328 -2.5679625e-2 -0.32252286
vn -0.94621328 -2.5679625e-2 -0.32252286
vn 3.9665585e-3 0.99584960 -9.0927678e-2
vn 3.9665585e-3 0.99584960 -9.0927678e-2
vn -0.97359888 2.4598731e-2 0.22693640
vn -0.97359888 2.4598731e-2 0.22693640
vn -0.87984777 4.6688602e-2 0.47295674
vn -0.87984777 4.6688602e-2 0.47295674
vn 3.9665585e-3 0.99584960 -9.0927678e-2
vn 3.9665585e-3 0.99584960 -9.0927678e-2
vn 3.9665585e-3 0.99584960 -9.0927678e-2
vn 0.93847252 2.7693538e-2 0.34424177
vn 0.93847252 2.7693538e-2 0.34424177
vn 3.9665585e-3 0.99584960 -9.0927678e-2
vn 3.9665585e-3 0.99584960 -9.0927678e-2
vn 0.95576403 -3.0518377e-2 -0.29254700
vn 2.6227646e-2 -9.1000716e-2 -0.99550539
vn 3.9665585e-3 0.99584960 -9.0927678e-2
vn 3.9665585e-3 0.99584960 -9.0927678e-2
vn 3.9665585e-3 0.99584960 -9.0927678e-2
vn 3.9665585e-3 0.99584960 -9.0927678e-2
vn 3.9665585e-3 0.99584960 -9.0927678e-2
vn -0.96070213 -2.1442724e-2 -0.27675192
vn -0.96070213 -2.1442724e-2 -0.27675192
vn 3.9665585e-3 0.99584960 -9.0927678e-2
vn -0.95528972 3.0656257e-2 0.29407777
vn -0.95528972 3.0656257e-2 0.29407777
vn 3.9665585e-3 0.99584960 -9.0927678e-2
vn 0.85371685 4.3976507e-2 0.51887726
vn 0.85371685 4.3976507e-2 0.51887726
vn 3.9665585e-3 0.99584960 -9.0927678e-2
vn 3.9665585e-3 0.99584960 -9.0927678e-2
vn 3.9665585e-3 0.99584960 -9.0927678e-2
vn 3.9665585e-3 0.99584960 -9.0927678e-2
vn 0.96029149 2.1573234e-2 0.27816336
vn 0.96029149 2.1573234e-2 0.27816336
vn 3.9665585e-3 0.99584960 -9.0927678e-2
vn 3.9665585e-3 0.99584960 -9.0927678e-2
vn 0.97393463 -2.4469390e-2 -0.22550519
vn 0.97393463 -2.4469390e-2 -0.22550519
vn 3.9665585e-3 0.99584960 -9.0927678e-2
vn -0.93902677 -2.7554049e-2 -0.34273825
vn 2.6227646e-2 -9.1000716e-2 -0.99550539
vn 3.9665585e-3 0.99584960 -9.0927678e-2
vn 3.9665585e-3 0.99584960 -9.0927678e-2
vn 3.9665585e-3 0.99584960 -9.0927678e-2
vn -3.9665585e-3 -0.99584960 9.0927678e-2
vn 0.99266722 7.0643307e-3 0.12067265
vn 0.99266722 7.0643307e-3 0.12067265
vn -3.9665585e-3 -0.99584960 9.0927678e-2
vn -0.93592855 3.5719351e-2 0.35037391
vn -3.9665585e-3 -0.99584960 9.0927678e-2
vn -0.93592855 3.5719351e-2 0.35037391
vn -3.9665585e-3 -0.99584960 9.0927678e-2
vn -3.9665585e-3 -0.99584960 9.0927678e-2
vn 0.91617406 3.2821807e-2 0.39943438
vn -3.9665585e-3 -0.99584960 9.0927678e-2
vn 0.91617406 3.2821807e-2 0.39943438
vn -3.9665585e-3 -0.99584960 9.0927678e-2
vn -3.9665585e-3 -0.99584960 9.0927678e-2
vn -0.99282492 -6.9452416e-3 -0.11937525
vn -3.9665585e-3 -0.99584960 9.0927678e-2
vn -3.9665585e-3 -0.99584960 9.0927678e-2
vn -0.99282492 -6.9452416e-3 -0.11937525
vn -0.96395106 2.7999452e-2 0.26460232
vn -3.9665585e-3 -0.99584960 9.0927678e-2
vn -3.9665585e-3 -0.99584960 9.0927678e-2
vn -0.96395106 2.7999452e-2 0.26460232
vn 0.94867381 2.5007223e-2 0.31526598
vn -3.9665585e-3 -0.99584960 9.0927678e-2
vn -3.9665585e-3 -0.99584960 9.0927678e-2
vn 0.94867381 2.5007223e-2 0.31526598
vn 0.96187607 -2.8664758e-2 -0.27197934
vn -3.9665585e-3 -0.99584960 9.0927678e-2
vn -3.9665585e-3 -0.99584960 9.0927678e-2
vn 0.96187607 -2.8664758e-2 -0.27197934
vn -0.94621328 -2.5679625e-2 -0.32252286
vn -3.9665585e-3 -0.99584960 9.0927678e-2
vn -3.9665585e-3 -0.99584960 9.0927678e-2
vn -0.94621328 -2.5679625e-2 -0.32252286
vn -0.97359888 2.4598731e-2 0.22693640
vn -3.9665585e-3 -0.99584960 9.0927678e-2
vn -3.9665585e-3 -0.99584960 9.0927678e-2
vn -0.97359888 2.4598731e-2 0.22693640
vn -0.87984777 4.6688602e-2 0.47295674
vn -3.9665585e-3 -0.99584960 9.0927678e-2
vn -0.87984777 4.6688602e-2 0.47295674
vn -3.9665585e-3 -0.99584960 9.0927678e-2
vn 0.93847252 2.7693538e-2 0.34424177
vn -3.9665585e-3 -0.99584960 9.0927678e-2
vn 0.93847252 2.7693538e-2 0.34424177
vn -3.9665585e-3 -0.99584960 9.0927678e-2
vn -3.9665585e-3 -0.99584960 9.0927678e-2
vn 0.95576403 -3.0518377e-2 -0.29254700
vn 2.6227646e-2 -9.1000716e-2 -0.99550539
vn -3.9665585e-3 -0.99584960 9.0927678e-2
vn -3.9665585e-3 -0.99584960 9.0927678e-2
vn -3.9665585e-3 -0.99584960 9.0927678e-2
vn -0.96070213 -2.1442724e-2 -0.27675192
vn -3.9665585e-3 -0.99584960 9.0927678e-2
vn -3.9665585e-3 -0.99584960 9.0927678e-2
vn -0.96070213 -2.1442724e-2 -0.27675192
vn -0.95528972 3.0656257e-2 0.29407777
vn -3.9665585e-3 -0.99584960 9.0927678e-2
vn -0.95528972 3.0656257e-2 0.29407777
vn -3.9665585e-3 -0.99584960 9.0927678e-2
vn 0.85371685 4.3976507e-2 0.51887726
vn -3.9665585e-3 -0.99584960 9.0927678e-2
vn 0.85371685 4.3976507e-2 0.51887726
vn -3.9665585e-3 -0.99584960 9.0927678e-2
vn 0.96029149 2.1573234e-2 0.27816336
vn -3.9665585e-3 -0.99584960 9.0927678e-2
vn -3.9665585e-3 -0.99584960 9.0927678e-2
vn 0.96029149 2.1573234e-2 0.27816336
vn 0.97393463 -2.4469390e-2 -0.22550519
vn -3.9665585e-3 -0.99584960 9.0927678e-2
vn -3.9665585e-3 -0.99584960 9.0927678e-2
vn 0.97393463 -2.4469390e-2 -0.22550519
vn -0.93902677 -2.7554049e-2 -0.34273825
vn -3.9665585e-3 -0.99584960 9.0927678e-2
vn 2.6227646e-2 -9.1000716e-2 -0.99550539
vn -3.9665585e-3 -0.99584960 9.0927678e-2
vn -3.9665585e-3 -0.99584960 9.0927678e-2
vn -3.9665585e-3 -0.99584960 9.0927678e-2
vn 0.54218451 7.4261478e-2 0.83697144
vn 3.9665585e-3 0.99584960 -9.0927678e-2
vn 0.54218451 7.4261478e-2 0.83697144
vn -0.58549932 7.6025696e-2 0.80710014
vn 3.9665585e-3 0.99584960 -9.0927678e-2
vn -0.58549932 7.6025696e-2 0.80710014
vn 0.54218451 7.4261478e-2 0.83697144
vn -3.9665585e-3 -0.99584960 9.0927678e-2
vn 0.54218451 7.4261478e-2 0.83697144
vn -0.58549932 7.6025696e-2 0.80710014
vn -3.9665585e-3 -0.99584960 9.0927678e-2
vn -0.58549932 7.6025696e-2 0.80710014
vn 3.9665585e-3 0.99584960 -9.0927678e-2
vn -0.97619918 2.3573176e-2 0.21559098
vn -0.16902309 -8.8952435e-2 -0.98158986
vn -0.91274797 4.0750391e-2 0.40648561
vn -0.91274797 4.0750391e-2 0.40648561
vn 3.9665585e-3 0.99584960 -9.0927678e-2
vn 3.9665585e-3 0.99584960 -9.0927678e-2
vn 0.93121780 2.9459891e-2 0.36327059
vn 0.93121780 2.9459891e-2 0.36327059
vn 3.9665585e-3 0.99584960 -9.0927678e-2
vn 3.9665585e-3 0.99584960 -9.0927678e-2
vn 3.9665585e-3 0.99584960 -9.0927678e-2
vn 3.9665585e-3 0.99584960 -9.0927678e-2
vn -0.97099529 -1.7902447e-2 -0.23842744
vn -0.97099529 -1.7902447e-2 -0.23842744
vn 3.9665585e-3 0.99584960 -9.0927678e-2
vn 3.9665585e-3 0.99584960 -9.0927678e-2
vn -0.95965481 2.9355763e-2 0.27964420
vn -0.95965481 2.9355763e-2 0.27964420
vn 3.9665585e-3 0.99584960 -9.0927678e-2
vn 3.9665585e-3 0.99584960 -9.0927678e-2
vn 0.95413670 2.3450184e-2 0.29845143
vn 0.95413670 2.3450184e-2 0.29845143
vn 3.9665585e-3 0.99584960 -9.0927678e-2
vn 3.9665585e-3 0.99584960 -9.0927678e-2
vn 0.96816157 -2.6583464e-2 -0.24891060
vn 0.96816157 -2.6583464e-2 -0.24891060
vn 3.9665585e-3 0.99584960 -9.0927678e-2
vn 3.9665585e-3 0.99584960 -9.0927678e-2
vn -0.94072267 -2.7122927e-2 -0.33809053
vn -0.94072267 -2.7122927e-2 -0.33809053
vn 3.9665585e-3 0.99584960 -9.0927678e-2
vn 3.9665585e-3 0.99584960 -9.0927678e-2
vn -0.96852095 2.6458108e-2 0.24752201
vn -0.96852095 2.6458108e-2 0.24752201
vn -0.80738831 5.6838131e-2 0.58727638
vn -0.80738831 5.6838131e-2 0.58727638
vn 3.9665585e-3 0.99584960 -9.0927678e-2
vn 3.9665585e-3 0.99584960 -9.0927678e-2
vn 3.9665585e-3 0.99584960 -9.0927678e-2
vn 3.9665585e-3 0.99584960 -9.0927678e-2
vn 0.94359152 2.6378206e-2 0.33005943
vn 0.94359152 2.6378206e-2 0.33005943
vn 3.9665585e-3 0.99584960 -9.0927678e-2
vn 3.9665585e-3 0.99584960 -9.0927678e-2
vn 0.95721284 -3.0092174e-2 -0.28781598
vn 0.95721284 -3.0092174e-2 -0.28781598
vn 3.9665585e-3 0.99584960 -9.0927678e-2
vn 3.9665585e-3 0.99584960 -9.0927678e-2
vn -0.95370471 -2.3576778e-2 -0.29981905
vn -0.95370471 -2.3576778e-2 -0.29981905
vn -0.94904710 3.2401494e-2 0.31346412
vn -0.94904710 3.2401494e-2 0.31346412
vn 3.9665585e-3 0.99584960 -9.0927678e-2
vn 3.9665585e-3 0.99584960 -9.0927678e-2
vn 0.89007122 3.7929949e-2 0.45424061
vn 0.89007122 3.7929949e-2 0.45424061
vn 3.9665585e-3 0.99584960 -9.0927678e-2
vn 3.9665585e-3 0.99584960 -9.0927678e-2
vn 3.9665585e-3 0.99584960 -9.0927678e-2
vn 3.9665585e-3 0.99584960 -9.0927678e-2
vn 0.97048876 1.8090672e-2 0.24046681
vn 0.97048876 1.8090672e-2 0.24046681
vn 3.9665585e-3 0.99584960 -9.0927678e-2
vn 0.97654374 -2.3432953e-2 -0.21404021
vn -0.16902309 -8.8952435e-2 -0.98158986
vn -0.97619918 2.3573176e-2 0.21559098
vn -3.9665585e-3 -0.99584960 9.0927678e-2
vn -0.16902309 -8.8952435e-2 -0.98158986
vn -0.91274797 4.0750391e-2 0.40648561
vn -0.91274797 4.0750391e-2 0.40648561
vn -3.9665585e-3 -0.99584960 9.0927678e-2
vn -3.9665585e-3 -0.99584960 9.0927678e-2
vn 0.93121780 2.9459891e-2 0.36327059
vn 0.93121780 2.9459891e-2 0.36327059
vn -3.9665585e-3 -0.99584960 9.0927678e-2
vn -3.9665585e-3 -0.99584960 9.0927678e-2
vn -0.97099529 -1.7902447e-2 -0.23842744
vn -0.97099529 -1.7902447e-2 -0.23842744
vn -3.9665585e-3 -0.99584960 9.0927678e-2
vn -3.9665585e-3 -0.99584960 9.0927678e-2
vn -0.95965481 2.9355763e-2 0.27964420
vn -0.95965481 2.9355763e-2 0.27964420
vn -3.9665585e-3 -0.99584960 9.0927678e-2
vn -3.9665585e-3 -0.99584960 9.0927678e-2
vn 0.77533891 5.4362015e-2 0.62920135
vn 0.77533891 5.4362015e-2 0.62920135
vn -3.9665585e-3 -0.99584960 9.0927678e-2
vn -3.9665585e-3 -0.99584960 9.0927678e-2
vn 0.95413670 2.3450184e-2 0.29845143
vn 0.95413670 2.3450184e-2 0.29845143
vn -3.9665585e-3 -0.99584960 9.0927678e-2
vn -3.9665585e-3 -0.99584960 9.0927678e-2
vn 0.96816157 -2.6583464e-2 -0.24891060
vn 0.96816157 -2.6583464e-2 -0.24891060
vn -3.9665585e-3 -0.99584960 9.0927678e-2
vn -3.9665585e-3 -0.99584960 9.0927678e-2
vn -0.94072267 -2.7122927e-2 -0.33809053
vn -0.94072267 -2.7122927e-2 -0.33809053
vn -3.9665585e-3 -0.99584960 9.0927678e-2
vn -3.9665585e-3 -0.99584960 9.0927678e-2
vn -3.9665585e-3 -0.99584960 9.0927678e-2
vn -3.9665585e-3 -0.99584960 9.0927678e-2
vn -0.96852095 2.6458108e-2 0.24752201
vn -0.96852095 2.6458108e-2 0.24752201
vn -3.9665585e-3 -0.99584960 9.0927678e-2
vn 0.94359152 2.6378206e-2 0.33005943
vn 0.94359152 2.6378206e-2 0.33005943
vn -3.9665585e-3 -0.99584960 9.0927678e-2
vn -3.9665585e-3 -0.99584960 9.0927678e-2
vn -3.9665585e-3 -0.99584960 9.0927678e-2
vn 0.95721284 -3.0092174e-2 -0.28781598
vn 0.95721284 -3.0092174e-2 -0.28781598
vn -3.9665585e-3 -0.99584960 9.0927678e-2
vn -3.9665585e-3 -0.99584960 9.0927678e-2
vn -0.95370471 -2.3576778e-2 -0.29981905
vn -0.95370471 -2.3576778e-2 -0.29981905
vn -0.94904710 3.2401494e-2 0.31346412
vn -0.94904710 3.2401494e-2 0.31346412
vn -3.9665585e-3 -0.99584960 9.0927678e-2
vn -3.9665585e-3 -0.99584960 9.0927678e-2
vn -3.9665585e-3 -0.99584960 9.0927678e-2
vn -3.9665585e-3 -0.99584960 9.0927678e-2
vn 0.89007122 3.7929949e-2 0.45424061
vn 0.89007122 3.7929949e-2 0.45424061
vn -3.9665585e-3 -0.99584960 9.0927678e-2
vn -3.9665585e-3 -0.99584960 9.0927678e-2
vn 0.97048876 1.8090672e-2 0.24046681
vn 0.97048876 1.8090672e-2 0.24046681
vn -3.9665585e-3 -0.99584960 9.0927678e-2
vn 0.97654374 -2.3432953e-2 -0.21404021
vn -0.16902309 -8.8952435e-2 -0.98158986
vn 0.77533891 5.4362015e-2 0.62920135
vn 0.77533891 5.4362015e-2 0.62920135
vn 3.9665585e-3 0.99584960 -9.0927678e-2
vn 3.9665585e-3 0.99584960 -9.0927678e-2
vn -0.80738831 5.6838131e-2 0.58727638
vn -0.80738831 5.6838131e-2 0.58727638
vn -3.9665585e-3 -0.99584960 9.0927678e-2
vn -3.9665585e-3 -0.99584960 9.0927678e-2
vn -3.9665585e-3 -0.99584960 9.0927678e-2
vn -2.6227646e-2 9.1000716e-2 0.99550539
vn -2.6227646e-2 9.1000716e-2 0.99550539
vn 3.9665585e-3 0.99584960 -9.0927678e-2
vn -2.6227646e-2 9.1000716e-2 0.99550539
vn -2.6227646e-2 9.1000716e-2 0.99550539
vn -0.27111739 -0.25595719 0.92789077
vn 0.63148814 -0.77483461 -2.9224423e-2
vn -0.27111739 -0.25595719 0.92789077
vn 0.77538554 0.63103945 2.3800903e-2
vn 0.63148814 -0.77483461 -2.9224423e-2
vn -0.27111739 -0.25595719 0.92789077
vn -0.63148814 0.77483461 2.9224423e-2
vn 0.77538554 0.63103945 2.3800903e-2
vn -0.27111739 -0.25595719 0.92789077
vn -0.63148814 0.77483461 2.9224423e-2
vn -1.0337477e-15 3.7690183e-2 -0.99928947
vn 0.63148814 -0.77483461 -2.9224423e-2
vn 0.77538554 0.63103945 2.3800903e-2
vn -1.0337477e-15 3.7690183e-2 -0.99928947
vn 0.63148814 -0.77483461 -2.9224423e-2
vn -0.63148814 0.77483461 2.9224423e-2
vn 0.77538554 0.63103945 2.3800903e-2
vn -1.0337477e-15 3.7690183e-2 -0.99928947
vn -0.63148814 0.77483461 2.9224423e-2
vn -1.0337477e-15 3.7690183e-2 -0.99928947
vn -0.30066078 -0.90157531 0.31107081
vn -0.97725484 0.19803219 -7.5869872e-2
vn -0.30066078 -0.90157531 0.31107081
vn -0.36720158 -0.36694823 0.85469995
vn -0.97725484 0.19803219 -7.5869872e-2
vn -0.36720158 -0.36694823 0.85469995
vn -0.21864067 0.38263216 0.89765745
vn -0.97725484 0.19803219 -7.5869872e-2
vn -0.21864067 0.38263216 0.89765745
vn 5.7996979e-2 0.90807181 0.41477939
vn -0.97725484 0.19803219 -7.5869872e-2
vn 5.7996979e-2 0.90807181 0.41477939
vn -0.21864067 0.38263216 0.89765745
vn 0.82533936 -0.19396517 0.53027583
vn -0.21864067 0.38263216 0.89765745
vn 0.82533936 -0.19396517 0.53027583
vn 5.7996979e-2 0.90807181 0.41477939
vn 5.7996979e-2 0.90807181 0.41477939
vn -0.36720158 -0.36694823 0.85469995
vn 0.82533936 -0.19396517 0.53027583
vn -0.36720158 -0.36694823 0.85469995
vn 0.82533936 -0.19396517 0.53027583
vn -0.30066078 -0.90157531 0.31107081
vn -0.30066078 -0.90157531 0.31107081
vn 0.22133842 -0.37450050 -0.90042139
vn -0.97725484 0.19803219 -7.5869872e-2
vn 0.22133842 -0.37450050 -0.90042139
vn -5.4689010e-2 -0.90473167 -0.42245675
vn -0.97725484 0.19803219 -7.5869872e-2
vn -5.4689010e-2 -0.90473167 -0.42245675
vn 0.36666460 0.35875872 -0.85839924
vn -0.97725484 0.19803219 -7.5869872e-2
vn 0.36666460 0.35875872 -0.85839924
vn 0.30261685 0.89809425 -0.31913909
vn -0.97725484 0.19803219 -7.5869872e-2
vn 0.30261685 0.89809425 -0.31913909
vn 0.82533936 -0.19396517 0.53027583
vn 0.30261685 0.89809425 -0.31913909
vn 0.30261685 0.89809425 -0.31913909
vn 0.82533936 -0.19396517 0.53027583
vn 0.36666460 0.35875872 -0.85839924
vn 0.36666460 0.35875872 -0.85839924
vn 0.82533936 -0.19396517 0.53027583
vn 0.22133842 -0.37450050 -0.90042139
vn 0.22133842 -0.37450050 -0.90042139
vn 0.82533936 -0.19396517 0.53027583
vn -5.4689010e-2 -0.90473167 -0.42245675
vn -5.4689010e-2 -0.90473167 -0.42245675
vn 0.64659627 -0.25176993 0.72008691
vn -0.52972963 -0.82743924 0.18636207
vn 0.64659627 -0.25176993 0.72008691
vn -0.74034553 0.55830103 0.37441748
vn -0.52972963 -0.82743924 0.18636207
vn 0.64659627 -0.25176993 0.72008691
vn 0.52972963 0.82743924 -0.18636207
vn -0.74034553 0.55830103 0.37441748
vn 0.64659627 -0.25176993 0.72008691
vn 0.52972963 0.82743924 -0.18636207
vn -0.41385385 6.0367713e-2 -0.90833954
vn -0.52972963 -0.82743924 0.18636207
vn -0.74034553 0.55830103 0.37441748
vn -0.41385385 6.0367713e-2 -0.90833954
vn -0.52972963 -0.82743924 0.18636207
vn 0.52972963 0.82743924 -0.18636207
vn -0.74034553 0.55830103 0.37441748
vn -0.41385385 6.0367713e-2 -0.90833954
vn 0.52972963 0.82743924 -0.18636207
vn -0.41385385 6.0367713e-2 -0.90833954
vn -0.90166801 -0.43046198 4.1198201e-2
vn 3.9665585e-3 0.98875638 -0.14948273
vn 9.6689996e-2 -0.26520967 -0.95933043
vn 3.9665585e-3 0.98875638 -0.14948273
vn 0.88759627 0.45834070 -4.5789342e-2
vn 9.6689996e-2 -0.26520967 -0.95933043
vn -0.89179834 -0.44959247 -5.0619563e-2
vn -0.89179834 -0.44959247 -5.0619563e-2
vn 0.39236213 -0.90053874 0.18730173
vn 0.39236213 -0.90053874 0.18730173
vn 0.87359664 0.48488732 4.1390746e-2
vn 0.87359664 0.48488732 4.1390746e-2
vn 0.39236213 -0.90053874 0.18730173
vn 0.39236213 -0.90053874 0.18730173
vn 0.87910790 0.47646504 1.2262546e-2
vn 0.87910790 0.47646504 1.2262546e-2
vn 0.87910790 0.47646504 1.2262546e-2
vn -0.18456436 0.96401711 -0.19132960
vn 9.6689996e-2 -0.26520967 -0.95933043
vn -0.89598511 -0.44363606 -1.9942943e-2
vn -0.89598511 -0.44363606 -1.9942943e-2
vn -0.89598511 -0.44363606 -1.9942943e-2
vn -0.18456436 0.96401711 -0.19132960
vn 9.6689996e-2 -0.26520967 -0.95933043
vn 0.85940691 0.49438593 0.13039292
vn 0.37555440 -0.29542492 -0.87845490
vn 0.39633103 -0.88976599 0.22635858
vn -0.87627004 -0.46019191 -0.14273832
vn 0.37555440 -0.29542492 -0.87845490
vn 0.39633103 -0.88976599 0.22635858
vn 0.85940691 0.49438593 0.13039292
vn -0.18456436 0.96401711 -0.19132960
vn 0.37555440 -0.29542492 -0.87845490
vn -0.87627004 -0.46019191 -0.14273832
vn -0.18456436 0.96401711 -0.19132960
vn 0.37555440 -0.29542492 -0.87845490
vn -0.86735234 -0.45225679 0.20775879
vn -0.86735234 -0.45225679 0.20775879
vn 0.88388371 0.38603620 -0.26405613
vn 0.88388371 0.38603620 -0.26405613
vn -0.89829236 -0.41652953 0.13990705
vn 3.9665585e-3 0.98875638 -0.14948273
vn -0.89829236 -0.41652953 0.13990705
vn 3.9665585e-3 0.98875638 -0.14948273
vn 0.87215214 -0.39845305 0.28387640
vn 3.9665585e-3 0.98875638 -0.14948273
vn 9.3801311e-2 -3.1163738e-2 -0.99510308
vn -0.88954854 -0.28183280 0.35954647
vn -0.88954854 -0.28183280 0.35954647
vn 3.9665585e-3 0.98875638 -0.14948273
vn 3.9665585e-3 0.98875638 -0.14948273
vn 0.86922886 -0.28183280 0.40621603
vn 0.86922886 -0.28183280 0.40621603
vn 3.9665585e-3 0.98875638 -0.14948273
vn 3.9665585e-3 0.98875638 -0.14948273
vn -0.43435062 -0.88093566 0.18786138
vn -0.43435062 -0.88093566 0.18786138
vn -8.8312571e-3 0.62865326 -0.77763557
vn -8.8312571e-3 0.62865326 -0.77763557
vn -8.8312571e-3 0.62865326 -0.77763557
vn 0.42377651 -0.88093566 0.21063198
vn 0.42377651 -0.88093566 0.21063198
vn 2.0526848e-2 0.63337877 -0.77356964
vn 2.0526848e-2 0.63337877 -0.77356964
vn 0.88460118 0.44426990 -0.14179216
vn 3.9665585e-3 0.98875638 -0.14948273
vn 3.9665585e-3 0.98875638 -0.14948273
vn 0.88460118 0.44426990 -0.14179216
vn -0.85929957 0.42643288 -0.28241680
vn 3.9665585e-3 0.98875638 -0.14948273
vn 9.3801311e-2 -3.1163738e-2 -0.99510308
vn 2.2086009e-2 0.56134383 -0.82728792
vn 2.2086009e-2 0.56134383 -0.82728792
vn 2.2086009e-2 0.56134383 -0.82728792
vn 3.9665585e-3 0.98875638 -0.14948273
vn 3.9665585e-3 0.98875638 -0.14948273
vn 3.9665585e-3 0.98875638 -0.14948273
vn 3.9665585e-3 0.98875638 -0.14948273
vn 2.2086009e-2 0.56134383 -0.82728792
vn 2.2086009e-2 0.56134383 -0.82728792
vn 3.9665585e-3 0.98875638 -0.14948273
vn -0.89672247 -0.42151781 0.13495017
vn -0.89672247 -0.42151781 0.13495017
vn 0.39446965 -0.91255466 0.10787814
vn 0.39446965 -0.91255466 0.10787814
vn -0.89284779 -0.34520954 0.28922861
vn -0.89284779 -0.34520954 0.28922861
vn 3.9665585e-3 0.98875638 -0.14948273
vn 3.9665585e-3 0.98875638 -0.14948273
vn 0.87020003 -0.41616626 0.26373765
vn 0.40214112 0.91438240 -4.6769007e-2
vn 0.10896432 -4.6707258e-2 -0.99294774
vn -2.3857653e-2 -0.43710600 0.89909352
vn -2.3857653e-2 -0.43710600 0.89909352
vn 3.9665585e-3 0.98875638 -0.14948273
vn 0.87625264 -0.34520954 0.33617210
vn 0.87625264 -0.34520954 0.33617210
vn 3.9665585e-3 0.98875638 -0.14948273
vn 3.9665585e-3 0.98875638 -0.14948273
vn 0.67940273 -0.69037224 0.24859224
vn -2.7948996e-2 0.66214694 -0.74885265
vn -2.7948996e-2 0.66214694 -0.74885265
vn 0.87834418 0.45781952 -0.13752378
vn 0.87834418 0.45781952 -0.13752378
vn 0.39446965 -0.91255466 0.10787814
vn 0.39446965 -0.91255466 0.10787814
vn 0.88916593 0.35710380 -0.28611331
vn 0.88916593 0.35710380 -0.28611331
vn 3.9665585e-3 0.98875638 -0.14948273
vn 3.9665585e-3 0.98875638 -0.14948273
vn 0.40214112 0.91438240 -4.6769007e-2
vn -0.94754116 0.12389609 -0.29464470
vn 0.10896432 -4.6707258e-2 -0.99294774
vn -0.87329153 0.35594792 -0.33266045
vn -0.87329153 0.35594792 -0.33266045
vn 3.9665585e-3 0.98875638 -0.14948273
vn 3.9665585e-3 0.98875638 -0.14948273
vn 0.87529458 -0.35999741 0.32289513
vn 0.87529458 -0.35999741 0.32289513
vn 0.87529458 -0.35999741 0.32289513
vn 0.46579228 0.22230553 -0.85651492
vn 0.43600189 0.89978229 -1.7151658e-2
vn 0.66619395 -0.68556669 0.29357099
vn 0.66619395 -0.68556669 0.29357099
vn 0.66619395 -0.68556669 0.29357099
vn 0.11354420 0.94793373 -0.29753884
vn 0.49645902 0.40073983 -0.77002339
vn -0.90904945 0.27698483 -0.31130130
vn -0.90904945 0.27698483 -0.31130130
vn -0.90904945 0.27698483 -0.31130130
vn 0.46579228 0.22230553 -0.85651492
vn 0.43600189 0.89978229 -1.7151658e-2
vn -0.87513793 -0.43605477 0.20973755
vn 0.46100269 0.86272345 -0.20780946
vn 0.85020202 0.43706885 -0.29347459
vn -0.88865390 -0.38011005 0.25653577
vn -0.88865390 -0.38011005 0.25653577
vn 3.9665585e-3 0.98875638 -0.14948273
vn 3.9665585e-3 0.98875638 -0.14948273
vn 0.87215214 -0.39845305 0.28387640
vn -0.19170268 -0.97612205 0.10215591
vn 9.3801311e-2 -3.1163738e-2 -0.99510308
vn -0.81788054 -0.28357058 0.50065871
vn -0.81788054 -0.28357058 0.50065871
vn 3.9665585e-3 0.98875638 -0.14948273
vn 3.9665585e-3 0.98875638 -0.14948273
vn 0.87697611 -0.31583452 0.36216219
vn 0.87697611 -0.31583452 0.36216219
vn 3.9665585e-3 0.98875638 -0.14948273
vn 3.9665585e-3 0.98875638 -0.14948273
vn -0.85928309 -0.46831091 0.20571208
vn 0.91349579 0.33322614 -0.23342189
vn 0.89922981 0.29989602 -0.31850923
vn 0.89922981 0.29989602 -0.31850923
vn 3.9665585e-3 0.98875638 -0.14948273
vn 3.9665585e-3 0.98875638 -0.14948273
vn -0.86370070 0.40391681 -0.30145035
vn -0.86370070 0.40391681 -0.30145035
vn 3.9665585e-3 0.98875638 -0.14948273
vn 3.9665585e-3 0.98875638 -0.14948273
vn 0.94738119 0.18713358 -0.25971120
vn 0.94738119 0.18713358 -0.25971120
vn 3.9665585e-3 0.98875638 -0.14948273
vn -0.93239655 0.18672922 -0.30946546
vn -0.93239655 0.18672922 -0.30946546
vn 3.9665585e-3 0.98875638 -0.14948273
vn -0.89494858 -0.31583452 0.31514377
vn -0.89494858 -0.31583452 0.31514377
vn 3.9665585e-3 0.98875638 -0.14948273
vn 3.9665585e-3 0.98875638 -0.14948273
vn 0.87020003 -0.41616626 0.26373765
vn -0.94754116 0.12389609 -0.29464470
vn 0.44817002 -0.86337182 0.23180320
vn 0.10896432 -4.6707258e-2 -0.99294774
vn 0.85191085 -0.43605112 0.29001262
vn 0.85191085 -0.43605112 0.29001262
vn 0.20956579 0.20272003 -0.95654941
vn 0.20956579 0.20272003 -0.95654941
vn 0.79017809 -0.28357058 0.54332892
vn 0.79017809 -0.28357058 0.54332892
vn 3.9665585e-3 0.98875638 -0.14948273
vn 3.9665585e-3 0.98875638 -0.14948273
vn 0.87379845 -0.38011005 0.30330285
vn 0.87379845 -0.38011005 0.30330285
vn 3.9665585e-3 0.98875638 -0.14948273
vn 3.9665585e-3 0.98875638 -0.14948273
vn -0.50807378 -0.83671622 0.20436977
vn -8.5960381e-2 0.97587912 -0.20067577
vn 0.59205882 -0.76886503 0.24148070
vn 0.59205882 -0.76886503 0.24148070
vn 3.2658718e-2 0.33877724 -0.94029963
vn 3.2658718e-2 0.33877724 -0.94029963
vn 0.87849681 0.40382415 -0.25528299
vn 0.87849681 0.40382415 -0.25528299
vn 3.9665585e-3 0.98875638 -0.14948273
vn 3.9665585e-3 0.98875638 -0.14948273
vn -0.87606098 -0.45819238 -0.15025612
vn -0.87606098 -0.45819238 -0.15025612
vn 9.3801311e-2 -3.1163738e-2 -0.99510308
vn -0.88229687 0.29665831 -0.36543957
vn -0.88229687 0.29665831 -0.36543957
vn 3.9665585e-3 0.98875638 -0.14948273
vn 3.9665585e-3 0.98875638 -0.14948273
vn 0.87698453 -0.34249146 0.33704262
vn 0.87698453 -0.34249146 0.33704262
vn 0.87698453 -0.34249146 0.33704262
vn -0.21260346 -0.97327072 8.6855447e-2
vn 0.46579228 0.22230553 -0.85651492
vn 0.87151962 -0.40070313 0.28264919
vn 0.87151962 -0.40070313 0.28264919
vn 0.41918873 0.90733608 -3.1969273e-2
vn 0.41918873 0.90733608 -3.1969273e-2
vn -0.72536938 -0.64354548 0.24431225
vn -0.72536938 -0.64354548 0.24431225
vn 6.7972796e-2 0.85589655 -0.51266050
vn 6.7972796e-2 0.85589655 -0.51266050
vn 0.81282965 -0.49771515 0.30263442
vn 0.81282965 -0.49771515 0.30263442
vn 0.81282965 -0.49771515 0.30263442
vn -0.28585704 -0.19759597 -0.93767883
vn -0.28585704 -0.19759597 -0.93767883
vn -0.28585704 -0.19759597 -0.93767883
vn 0.65862961 -0.70503507 0.26293077
vn 0.65862961 -0.70503507 0.26293077
vn 1.5914661e-2 0.91060142 -0.41297916
vn 1.5914661e-2 0.91060142 -0.41297916
vn 1.5914661e-2 0.91060142 -0.41297916
vn 0.93806217 0.23767456 -0.25209158
vn 0.93806217 0.23767456 -0.25209158
vn 3.9665585e-3 0.98875638 -0.14948273
vn 0.89975346 0.36264355 -0.24276198
vn 0.89975346 0.36264355 -0.24276198
vn 0.89975346 0.36264355 -0.24276198
vn 0.40054258 -0.91377791 6.7643022e-2
vn -0.27909909 2.3829562e-2 -0.95996659
vn -0.88827216 -0.38609095 0.24880986
vn -0.88827216 -0.38609095 0.24880986
vn -0.88827216 -0.38609095 0.24880986
vn 0.40054258 -0.91377791 6.7643022e-2
vn -0.27909909 2.3829562e-2 -0.95996659
vn -0.95173893 3.0983431e-2 -0.30534086
vn -0.95173893 3.0983431e-2 -0.30534086
vn -0.95173893 3.0983431e-2 -0.30534086
vn -0.95173893 3.0983431e-2 -0.30534086
vn 0.46579228 0.22230553 -0.85651492
vn -0.92361713 0.23774528 -0.30068018
vn -0.92361713 0.23774528 -0.30068018
vn 3.9665585e-3 0.98875638 -0.14948273
vn -0.93855930 0.18491426 -0.29139861
vn 0.41918873 0.90733608 -3.1969273e-2
vn 0.41918873 0.90733608 -3.1969273e-2
vn -0.93855930 0.18491426 -0.29139861
vn -0.23442289 -0.95653519 0.17345413
vn -0.23442289 -0.95653519 0.17345413
vn -0.23442289 -0.95653519 0.17345413
vn 1.6702091e-2 0.77687702 -0.62943080
vn 1.6702091e-2 0.77687702 -0.62943080
vn 1.6702091e-2 0.77687702 -0.62943080
vn 0.22489418 -0.95653519 0.18564221
vn 0.22489418 -0.95653519 0.18564221
vn 0.22489418 -0.95653519 0.18564221
vn 1.3566991e-2 0.85930579 -0.51128222
vn 1.3566991e-2 0.85930579 -0.51128222
vn 0.87379845 -0.38011005 0.30330285
vn 0.87379845 -0.38011005 0.30330285
vn -0.20217023 -0.97477913 9.4513703e-2
vn -0.20217023 -0.97477913 9.4513703e-2
vn 0.86850173 -0.40482784 0.28604050
vn 0.86850173 -0.40482784 0.28604050
vn 0.86850173 -0.40482784 0.28604050
vn 0.13594764 0.19540794 -0.97125382
vn 0.44817002 -0.86337182 0.23180320
vn -0.83665610 -0.49679621 0.23065145
vn -0.83665610 -0.49679621 0.23065145
vn -0.83665610 -0.49679621 0.23065145
vn 0.91349579 0.33322614 -0.23342189
vn 0.11354420 0.94793373 -0.29753884
vn 0.49645902 0.40073983 -0.77002339
vn -0.53665660 -0.81291662 0.22619962
vn -0.53665660 -0.81291662 0.22619962
vn -0.53665660 -0.81291662 0.22619962
vn -3.5178615e-2 0.88236842 -0.46924241
vn -3.5178615e-2 0.88236842 -0.46924241
vn 0.84090065 -0.45879093 0.28704874
vn 0.28199166 0.20887879 -0.93640288
vn -0.93018622 0.24445639 -0.27385155
vn 0.93994200 0.20999962 -0.26908958
vn 0.93994200 0.20999962 -0.26908958
vn 3.9665585e-3 0.98875638 -0.14948273
vn 0.93984984 0.24504847 -0.23797798
vn 3.9665585e-3 0.98875638 -0.14948273
vn 0.46100269 0.86272345 -0.20780946
vn -0.27909909 2.3829562e-2 -0.95996659
vn 0.88388371 0.38603620 -0.26405613
vn 0.88388371 0.38603620 -0.26405613
vn 0.37839879 -0.40152940 -0.83401948
vn 0.37839879 -0.40152940 -0.83401948
vn -0.88000463 -0.41153571 0.23712910
vn -0.88000463 -0.41153571 0.23712910
vn -0.88000463 -0.41153571 0.23712910
vn 0.46100269 0.86272345 -0.20780946
vn -0.27909909 2.3829562e-2 -0.95996659
vn -0.92474428 0.20983980 -0.31751422
vn -0.92474428 0.20983980 -0.31751422
vn 3.9665585e-3 0.98875638 -0.14948273
vn -0.93855930 0.18491426 -0.29139861
vn 3.9665585e-3 0.98875638 -0.14948273
vn 0.20956579 0.20272003 -0.95654941
vn -0.93855930 0.18491426 -0.29139861
vn 0.44817002 -0.86337182 0.23180320
vn 0.20956579 0.20272003 -0.95654941
vn -0.70321766 -0.53008440 -0.47380951
vn -0.70321766 -0.53008440 -0.47380951
vn 0.74064567 0.38531446 -0.55043325
vn 0.74064567 0.38531446 -0.55043325
vn 3.9665585e-3 0.98875638 -0.14948273
vn 0.74064567 0.38531446 -0.55043325
vn -0.70943238 0.38515597 -0.59022079
vn -0.70943238 0.38515597 -0.59022079
vn -0.70943238 0.38515597 -0.59022079
vn 3.9665585e-3 0.98875638 -0.14948273
vn 4.6397696e-2 -0.98510687 0.16556484
vn 4.6397696e-2 -0.98510687 0.16556484
vn 6.9656267e-3 0.96490553 -0.26250485
vn -5.5112823e-2 -0.98510687 0.16287123
vn -5.5112823e-2 -0.98510687 0.16287123
vn 6.9656267e-3 0.96490553 -0.26250485
g cube1_sep26_default
usemtl default
f 1/420/85 4/435/93 3/417/90 2/402/87
f 2/579/89 6/544/99 5/541/96 1/571/86
f 3/419/92 7/418/101 6/406/97 2/405/88
f 4/552/94 8/574/103 7/576/100 3/535/91
f 6/531/98 7/524/102 8/509/104 5/519/95
f 9/554/105 12/564/113 11/553/110 10/530/107
f 10/424/109 14/413/119 13/412/116 9/423/106
f 11/436/112 15/437/121 14/401/117 10/400/108
f 12/410/114 16/421/123 15/422/120 11/411/111
f 14/557/118 15/549/122 16/515/124 13/546/115
f 17/295/128 25/303/156 43/261/233 19/257/135
f 18/374/129 17/390/125 22/381/144 21/366/141
f 18/374/131 28/372/169 25/384/155 17/390/127
f 19/113/133 20/150/138 23/171/148 24/137/150
f 19/113/136 43/99/234 46/138/247 20/150/139
f 20/472/140 46/475/248 28/490/170 18/489/132
f 21/457/142 23/449/147 20/450/137 18/458/130
f 22/517/146 24/137/152 23/449/149 21/366/143
f 24/505/151 22/517/145 17/516/126 19/498/134
f 26/223/161 36/234/204 78/192/375
f 26/244/157 44/204/235 83/200/390 66/237/324
f 27/323/162 45/288/240 84/283/394 67/320/328
f 28/490/168 46/475/245 85/476/398 68/491/334
f 29/254/173 47/217/249 86/214/402 69/252/338
f 30/310/177 48/275/253 88/271/410 70/308/342
f 31/479/181 49/464/257 89/465/414 71/481/346
f 32/496/185 50/482/261 90/484/418 72/499/350
f 33/255/190 51/221/268 91/219/424 73/256/354
f 34/235/192 52/197/271 100/196/457 74/233/356
f 35/304/198 42/228/230 67/269/331
f 35/317/197 53/280/275 92/277/427 75/313/362
f 36/28/202 26/20/160 27/103/165 42/94/228
f 36/559/201 42/548/227 60/547/305 54/558/279
f 36/474/200 54/462/278 93/463/432 76/477/366
f 37/492/208 55/478/286 94/480/436 77/495/370
f 38/248/211 56/211/289 95/208/438 78/247/372
f 39/198/214 57/199/293 96/274/444 79/273/376
f 40/307/220 58/267/298 97/264/448 80/305/382
f 41/483/224 59/466/302 98/467/451 81/485/385
f 43/261/232 25/303/154 80/305/383 97/264/449
f 44/204/237 26/244/158 78/247/373 95/208/439
f 45/288/242 27/323/163 79/325/377 96/293/445
f 45/332/244 60/346/308 84/319/397
f 47/217/252 29/254/174 73/256/355 91/219/425
f 48/275/256 30/310/178 75/313/363 92/277/428
f 49/464/260 31/479/182 76/477/367 93/463/433
f 50/482/264 32/496/186 77/495/371 94/480/437
f 51/221/265 33/255/189 65/253/322 82/220/387
f 52/197/269 34/235/191 66/237/325 83/200/391
f 53/280/273 35/317/196 67/320/329 84/283/395
f 55/478/283 37/492/207 68/491/335 85/476/399
f 56/211/287 38/248/210 69/252/339 86/214/403
f 56/35/290 54/15/282 95/31/441
f 57/199/291 39/198/213 99/163/453 87/164/406
f 58/267/295 40/307/219 70/308/343 88/271/411
f 59/466/299 41/483/223 71/481/347 89/465/415
f 60/486/303 42/500/226 72/499/351 90/484/419
f 60/11/306 45/8/243 44/46/238 54/40/280
f 61/139/309 63/140/315 87/164/407 99/163/454
f 64/193/318 62/232/312 74/233/357 100/196/458
f 66/29/327 79/83/379 27/103/164 26/20/159
f 67/269/330 42/228/229 27/236/166
f 68/361/333 80/375/381 25/384/153 28/372/167
f 69/141/337 76/181/365 31/144/179 29/112/171
f 70/354/341 77/339/369 32/321/184 30/338/176
f 71/110/345 73/81/353 29/112/172 31/144/180
f 72/285/349 75/324/361 30/338/175 32/321/183
f 73/81/352 71/110/344 41/79/221 33/52/187
f 74/36/359 99/59/456 39/70/216 34/33/194
f 75/324/360 72/285/348 42/228/225 35/304/195
f 76/181/364 69/141/336 38/166/209 36/234/199
f 77/339/368 70/354/340 40/362/217 37/355/205
f 78/192/374 36/234/203 38/166/212
f 79/83/378 66/29/326 34/33/193 39/70/215
f 80/375/380 68/361/332 37/355/206 40/362/218
f 81/58/384 65/39/321 33/52/188 41/79/222
f 81/485/386 98/68/452 82/220/389 65/39/323
f 82/105/388 98/68/450 59/51/301 51/93/267
f 83/37/393 96/12/443 57/13/292 52/32/270
f 84/319/396 60/346/304 53/292/274
f 85/159/401 97/122/447 58/143/297 55/183/285
f 86/42/405 93/26/431 54/15/277 56/35/288
f 87/16/409 100/30/460 52/32/272 57/13/294
f 88/168/413 94/218/435 55/183/284 58/143/296
f 89/43/417 91/75/423 51/93/266 59/51/300
f 90/315/421 92/249/429 53/292/276 60/346/307
f 91/75/422 89/43/416 49/34/259 47/55/251
f 92/249/426 90/315/420 50/272/262 48/203/254
f 93/26/430 86/42/404 47/55/250 49/34/258
f 94/218/434 88/168/412 48/203/255 50/272/263
f 95/31/440 54/15/281 44/23/239
f 96/12/442 83/37/392 44/46/236 45/8/241
f 97/122/446 85/159/400 46/138/246 43/99/231
f 99/59/455 74/36/358 62/41/313 102/44/464 61/48/310
f 100/30/459 87/16/408 63/19/316 101/21/461 64/27/319
f 101/191/463 102/231/466 62/232/314 64/193/320
f 102/128/465 101/129/462 63/140/317 61/139/311
f 103/497/468 107/555/478 108/556/481 104/469/471
f 104/533/469 105/526/472 106/508/475 103/521/467
f 104/430/470 108/431/479 109/416/483 105/415/474
f 105/580/473 109/545/482 110/542/485 106/572/476
f 107/525/477 110/532/486 109/520/484 108/510/480
f 111/494/488 112/504/491 113/502/494 114/493/497 122/385/521 121/382/518 119/383/512 120/386/515
f 112/448/490 117/447/505 115/451/499 113/452/493
f 113/452/495 115/451/501 116/454/504 114/455/498
f 114/428/496 116/425/503 123/538/524 122/539/520
f 117/447/507 112/448/492 111/445/489 118/444/510
f 117/511/506 118/513/508 126/581/532 125/583/529 124/584/526 123/582/523 116/514/502 115/512/500
f 120/522/516 119/528/513 125/507/531 126/501/534
f 120/577/514 126/357/533 118/373/509 111/565/487
f 121/536/517 124/518/527 125/507/530 119/528/511
f 123/523/525 124/518/528 121/536/519 122/537/522
f 127/560/535 130/566/543 129/568/540 128/562/537
f 128/578/539 132/543/549 131/540/546 127/570/536
f 129/426/542 133/427/551 132/409/547 128/408/538
f 130/551/544 134/573/553 133/575/550 129/534/541
f 132/569/548 133/563/552 134/561/554 131/567/545
f 135/1/556 146/4/598 155/10/621 136/2/558
f 136/340/559 155/329/622 200/276/27 139/298/570
f 137/101/564 138/121/568 171/86/659 158/67/638
f 137/393/562 158/391/637 207/429/30 140/432/575
f 138/121/567 137/101/563 142/156/584 141/165/581
f 139/241/573 140/246/578 135/266/557 136/262/560
f 139/298/571 200/276/27 171/190/658 138/210/566
f 140/432/574 144/404/588 142/379/582 137/393/561
f 140/432/576 207/429/30 146/456/597 135/459/555
f 141/165/580 142/156/583 144/173/590 143/174/587
f 141/222/579 143/306/585 139/298/569 138/210/565
f 143/174/586 144/173/589 140/246/577 139/241/572
f 145/344/592 188/322/20 287/351/852 187/364/687
f 145/344/591 197/314/705 268/279/827 188/322/20
f 145/7/594 282/96/849 268/162/830 197/18/706
f 146/456/595 207/429/30 288/397/80 189/434/690
f 147/461/599 214/443/737 264/399/818 190/433/694
f 148/131/1 196/106/24 276/77/71 191/90/21
f 148/131/1 208/182/31 269/152/66 196/106/24
f 149/160/2 199/136/26 272/177/68 192/213/22
f 149/160/2 211/125/32 277/107/72 199/136/26
f 150/301/602 224/243/37 285/175/78 193/225/697
f 151/25/609 157/5/635 213/17/736
f 151/328/606 225/297/38 267/347/65 194/365/701
f 152/72/3 215/98/33 262/78/63 198/50/25
f 152/72/3 216/80/34 270/116/67 215/98/33
f 152/88/3 220/102/36 278/85/73 216/71/34
f 153/195/611 261/153/809 195/167/23
f 154/206/616 219/242/743 274/205/69 218/179/35
f 154/471/617 261/318/810 153/240/613 219/506/745
f 155/329/619 221/311/747 281/245/75 200/276/27
f 156/337/623 222/287/751 294/282/84 202/333/711
f 157/258/626 226/178/39 280/202/74 201/278/707
f 157/258/634 295/54/871 226/178/39
f 158/391/636 254/371/792 288/397/80 207/429/30
f 159/265/4 188/322/20 268/279/828 235/209/45
f 159/265/4 235/209/45 269/152/66 208/182/31
f 160/388/640 189/434/691 288/397/80 255/363/60
f 160/388/641 255/363/60 289/326/81 209/353/721
f 161/342/645 173/309/665 260/260/805 231/334/766
f 161/394/644 231/378/763 265/358/822 210/368/725
f 162/74/5 191/90/21 276/77/71 243/63/51
f 162/104/5 243/92/51 277/107/72 211/125/32
f 163/294/6 192/213/22 272/177/68 239/239/771
f 163/294/6 239/239/773 273/299/838 212/331/730
f 164/185/647 193/225/698 285/175/78 252/146/58
f 164/251/648 252/188/58 286/224/79 213/291/733
f 165/398/651 194/365/702 267/347/65 230/377/759
f 165/398/650 230/377/758 264/399/819 214/443/738
f 166/134/7 195/167/23 261/153/807 228/115/41
f 166/134/7 228/115/41 262/78/63 215/98/33
f 167/95/8 196/106/24 269/152/66 236/133/46
f 167/95/8 236/133/46 270/116/67 216/80/34
f 168/147/9 198/117/25 262/89/63 229/124/42
f 168/147/9 229/124/42 263/161/814 218/179/35
f 169/529/655 153/240/612 217/184/742 271/259/837 240/503/780
f 169/284/654 240/250/778 274/205/69 219/242/744
f 170/123/10 199/136/26 277/107/72 244/97/52
f 170/123/10 244/97/52 278/85/73 220/102/36
f 171/190/657 200/276/27 281/245/75 248/172/785
f 172/296/661 201/278/708 280/202/74 247/216/54
f 172/296/662 247/216/54 281/245/75 221/311/748
f 173/309/666 210/170/726 293/66/863 260/260/806
f 174/336/669 202/333/712 294/282/84 257/289/797
f 174/336/668 257/289/795 291/302/83 223/341/754
f 175/187/11 203/155/28 284/114/77 251/142/57
f 175/187/11 251/142/57 285/175/78 224/243/37
f 176/238/12 204/186/29 266/270/64 233/316/44
f 176/238/12 233/316/44 267/347/65 225/297/38
f 177/145/13 205/57/715 279/65/841 246/148/53
f 177/145/13 246/148/53 280/202/74 226/178/39
f 178/226/14 206/127/719 296/130/872 227/290/40
f 179/348/675 186/268/685 257/281/799 230/352/762
f 179/356/672 232/327/43 265/358/824 231/378/764
f 179/356/673 233/316/44 266/270/64 232/327/43
f 180/176/15 235/209/45 268/279/829 234/230/767
f 180/176/15 236/133/46 269/152/66 235/209/45
f 180/176/15 237/151/47 270/116/67 236/133/46
f 181/194/677 239/239/772 272/177/68 238/154/48
f 181/194/678 241/169/49 274/205/69 240/250/777
f 181/468/681 268/162/832 282/96/850 239/473/774
f 182/60/16 243/63/51 276/77/71 242/69/50
f 182/87/16 244/97/52 277/107/72 243/92/51
f 183/158/17 246/148/53 279/65/842 245/73/782
f 183/158/17 247/216/54 280/202/74 246/148/53
f 183/158/17 248/172/786 281/245/75 247/216/54
f 184/157/18 250/132/56 283/149/76 249/180/55
f 184/118/18 251/142/57 284/114/77 250/91/56
f 184/118/18 252/146/58 285/175/78 251/142/57
f 185/345/19 254/371/790 287/351/853 253/312/59
f 185/345/19 255/363/60 288/397/80 254/371/791
f 185/345/19 256/286/61 289/326/81 255/363/60
f 186/207/682 258/215/62 291/302/83 257/289/796
f 186/207/683 259/111/800 292/120/858 258/215/62
f 186/207/684 260/201/803 293/109/860 259/111/801
f 187/3/689 282/96/848 145/7/593
f 189/56/693 221/126/750 155/10/620 146/4/596
f 190/403/696 222/367/753 156/392/625 147/442/601
f 191/90/21 284/114/77 203/155/28 148/131/1
f 192/213/22 266/270/64 204/186/29 149/160/2
f 193/439/700 157/470/632 150/396/605
f 194/24/704 223/9/757 157/5/630 151/25/608
f 195/167/23 271/189/834 217/229/741 153/195/610
f 198/117/25 275/135/70 220/102/36 152/88/3
f 201/395/710 209/359/724 150/396/604 157/470/629
f 202/14/714 214/38/740 147/119/600 156/47/624
f 203/155/28 290/227/82 208/182/31 148/131/1
f 204/186/29 283/149/76 211/125/32 149/160/2
f 208/182/31 290/227/82 253/312/59 159/265/4
f 209/359/723 201/395/709 172/335/663 160/263/642
f 209/353/722 289/326/81 224/243/37 150/301/603
f 210/170/728 173/309/667 161/342/646
f 211/125/32 283/149/76 250/132/56 162/104/5
f 212/331/729 265/358/823 232/327/43 163/294/6
f 212/441/731 293/407/862 265/387/825
f 213/376/735 157/350/631 193/300/699 164/349/649
f 213/291/734 286/224/79 225/297/38 151/328/607
f 214/38/739 202/14/713 174/6/671 165/22/653
f 215/98/33 270/116/67 237/151/47 166/134/7
f 216/80/34 278/61/73 242/69/50 167/95/8
f 218/179/35 263/161/813 154/206/615
f 218/179/35 274/205/69 241/169/49 168/147/9
f 219/506/746 153/240/614 169/529/656
f 220/102/36 275/135/70 238/154/48 170/123/10
f 221/126/749 189/56/692 160/263/643 172/335/664
f 223/9/756 194/24/703 165/22/652 174/6/670
f 223/341/755 291/302/83 227/290/40 157/343/627
f 224/243/37 289/326/81 256/286/61 175/187/11
f 225/297/38 286/224/79 249/180/55 176/238/12
f 226/178/39 295/54/868 205/57/716 177/145/13
f 227/290/40 291/302/83 258/215/62 178/226/14
f 227/290/40 296/130/873 157/343/628
f 228/115/41 261/153/808 298/100/880
f 230/352/761 257/281/798 294/330/84 264/370/821
f 230/377/760 267/347/65 233/316/44 179/356/674
f 231/334/765 260/260/804 186/268/686 179/348/676
f 232/327/43 266/270/64 192/213/22 163/294/6
f 234/212/769 240/503/779 271/259/836
f 234/230/768 271/189/835 237/151/47 180/176/15
f 237/151/47 271/189/833 195/167/23 166/134/7
f 238/154/48 272/177/68 199/136/26 170/123/10
f 238/154/48 275/135/70 241/169/49 181/194/679
f 239/473/776 293/407/867 273/487/840
f 240/503/781 234/212/770 268/162/831 181/468/680
f 241/169/49 275/135/70 198/117/25 168/147/9
f 242/69/50 276/77/71 196/106/24 167/95/8
f 242/69/50 278/61/73 244/49/52 182/60/16
f 245/73/783 282/84/844 248/172/787 183/158/17
f 248/82/788 254/53/793 158/67/639 171/86/660
f 249/180/55 283/149/76 204/186/29 176/238/12
f 249/180/55 286/224/79 252/188/58 184/157/18
f 250/91/56 284/114/77 191/90/21 162/74/5
f 253/312/59 287/351/854 188/322/20 159/265/4
f 253/312/59 290/227/82 256/286/61 185/345/19
f 256/286/61 290/227/82 203/155/28 175/187/11
f 258/215/62 292/120/857 206/127/718 178/226/14
f 263/440/817 261/318/812 154/471/618
f 264/370/820 294/330/84 222/367/752 190/403/695
f 265/358/826 293/109/864 210/368/727
f 273/487/839 293/407/865 212/441/732
f 279/414/843 205/438/717 295/446/870 296/453/875 206/460/720 292/488/859 259/527/802 293/550/861 282/369/845 245/389/784
f 282/96/847 287/62/856 254/53/794 248/82/789
f 287/62/855 282/96/846 187/3/688
f 293/407/866 239/473/775 282/96/851
f 296/45/874 295/54/869 157/258/633
f 297/108/877 263/161/815 229/124/42
f 298/360/881 261/318/811 263/440/816 297/380/878
f 298/76/879 297/108/876 229/124/42 262/89/63 228/64/41
