# Exported from Wings 3D 1.0.2
mtllib WreckedBoatPart2.mtl
o cube1_sep55
#418 vertices, 393 faces
v -0.55271240 -0.39220163 -0.77299011
v -0.85134309 0.20904018 -0.72201573
v 0.85148691 0.20904018 -0.72201573
v 0.55285621 -0.39220163 -0.77299011
v -0.11688644 3.5643103e-2 -2.57562044
v 0.11703025 3.5643103e-2 -2.57562044
v -0.18223909 0.73703619 -2.97667803
v 0.18238291 0.73703619 -2.97667803
v 7.1906860e-5 -0.43694058 -1.86747009
v -0.30513767 -0.70352427 -0.78085611
v 0.30528149 -0.70352427 -0.78085611
v -0.76652897 0.20778290 -0.71664685
v 0.76667279 0.20778290 -0.71664685
v 7.1906860e-5 0.79281372 -3.21486068
v -0.69683287 -0.11090615 -0.74805511
v -0.33843033 -0.15583684 -1.77988482
v -0.52292309 0.50153500 -1.97103472
v 0.69697668 -0.11090615 -0.74805511
v 7.1906860e-5 0.11440569 -2.87297312
v 0.33857414 -0.15583684 -1.77988482
v 7.1906860e-5 0.81098901 -3.29247326
v 0.52306691 0.50153500 -1.97103472
v -0.15270099 -0.61433090 -1.26005165
v -8.0795562e-2 -0.23159906 -2.28550255
v -0.42504747 -0.59813131 -0.79195529
v 0.15284481 -0.61433090 -1.26005165
v 0.42519128 -0.59813131 -0.79195529
v 8.0939376e-2 -0.23159906 -2.28550255
v -0.61583996 -7.8355705e-2 -0.73590877
v -0.43979683 0.50030650 -1.96578872
v 0.61547357 -7.8140989e-2 -0.73706852
v 0.43994064 0.50030650 -1.96578872
v -0.14901350 0.36905479 -2.79516049
v 0.14915731 0.36905479 -2.79516049
v -0.11899973 0.38616178 -2.66895316
v 0.12021916 0.38621311 -2.66923665
v 0.42805116 0.15648655 -1.88963876
v -0.25527525 -0.40861061 -1.60409389
v 0.25541907 -0.40861061 -1.60409389
v 7.1906860e-5 -0.11349982 -2.59125893
v -0.36141032 0.18697242 -1.85020455
v 7.1906860e-5 0.44426811 -3.11244019
v -0.42790735 0.15648655 -1.88963876
v 0.36151094 0.18712248 -1.85101643
v -0.62282455 -0.25880093 -0.76072968
v -0.45572406 -0.27273738 -1.28312946
v -0.70275809 0.35529805 -1.34656989
v 0.77358243 4.6651335e-2 -0.73510444
v -4.9616159e-2 9.2907528e-2 -2.79578912
v 0.21946495 -5.0157519e-2 -2.22385041
v -7.7758093e-2 0.78650598 -3.18792519
v 0.34016591 0.63383267 -2.53597566
v -0.24139340 -0.67183729 -0.98330124
v -0.10157815 -0.10673578 -2.44210250
v -0.48779511 -0.50627690 -0.78469835
v 6.9774124e-2 -0.53234483 -1.57116932
v 0.48793893 -0.50627690 -0.78469835
v 0.10172197 -0.10673578 -2.44210250
v -0.69031163 6.0577827e-2 -0.72699750
v -0.22693350 0.65626707 -2.63177561
v 0.54432318 -0.29717689 -0.76613679
v 0.62451982 0.34918151 -1.32045087
v -0.13274399 0.19577053 -2.69210717
v 0.13288781 0.19577053 -2.69210717
v -7.5477863e-2 0.15743940 -2.70745110
v 7.6901344e-2 0.15749258 -2.70767821
v -0.77343862 4.6651335e-2 -0.73510444
v -0.21932114 -5.0157519e-2 -2.22385041
v -0.34002209 0.63383267 -2.53597566
v 0.62296837 -0.25880093 -0.76072968
v 4.9759973e-2 9.2907528e-2 -2.79578912
v 0.45586787 -0.27273738 -1.28312946
v 7.7901907e-2 0.78650598 -3.18792519
v 0.70290191 0.35529805 -1.34656989
v -6.9630311e-2 -0.53234483 -1.57116932
v -4.8515099e-2 -0.33917966 -2.09976979
v -0.36144421 -0.66486942 -0.79086180
v 0.24153721 -0.67183729 -0.98330124
v 0.36158802 -0.66486942 -0.79086180
v 4.8658913e-2 -0.33917966 -2.09976979
v -0.54485963 -0.29753507 -0.76460729
v -0.62437601 0.34918151 -1.32045087
v 0.69018333 6.0685154e-2 -0.72761771
v 0.22707731 0.65626707 -2.63177561
v -0.16555764 0.55090421 -2.88837817
v 0.16570145 0.55090421 -2.88837817
v -8.6466486e-2 0.54042146 -2.88809131
v 8.7554639e-2 0.54044667 -2.88823697
v -8.8242080e-2 -0.71239610 -0.97447744
v 8.8385893e-2 -0.71239610 -0.97447744
v 0.47521286 0.32696546 -1.93210912
v 0.57530419 2.3813669e-2 -1.32333920
v 0.38227414 -5.8110925e-3 -1.84007891
v 0.27830605 0.27549196 -2.39708785
v -0.34859690 -0.50319692 -1.20189441
v -0.29749969 -0.28950007 -1.70551174
v -0.16115497 -0.31610804 -1.97579316
v -0.20769387 -0.51497831 -1.46276549
v 0.16129879 -0.31610804 -1.97579316
v 0.29764350 -0.28950007 -1.70551174
v 0.34874072 -0.50319692 -1.20189441
v 0.20783768 -0.51497831 -1.46276549
v -2.8756529e-2 -0.16099353 -2.50173235
v 7.1906860e-5 -1.9474590e-2 -2.73676475
v 2.8900343e-2 -0.16099353 -2.50173235
v -0.31774796 -5.0906145e-2 -1.81776854
v -0.21570980 0.31057043 -2.36692255
v -0.40149739 0.33997000 -1.90758835
v -0.50134754 5.3769109e-2 -1.29223806
v 6.3693401e-2 0.42539995 -3.03333070
v 7.1906860e-5 0.27120569 -2.99863983
v -6.3549588e-2 0.42539995 -3.03333070
v 7.1906860e-5 0.62693563 -3.21304954
v -0.38213033 -5.8110925e-3 -1.84007891
v -0.57516038 2.3813669e-2 -1.32333920
v -0.47506905 0.32696546 -1.93210912
v -0.27816224 0.27549196 -2.39708785
v 0.40163585 0.34004561 -1.90802532
v 0.21661162 0.31066314 -2.36742886
v 0.31774579 -5.0658677e-2 -1.81882528
v 0.50109887 5.3964305e-2 -1.29329238
v -0.19631992 -0.75865301 -0.73601955
v 7.1906860e-5 -0.63195885 -1.27443347
v 0.19646373 -0.75865301 -0.73601955
v 0.63859296 0.18737253 -1.33601573
v 0.51405577 -0.13101186 -1.30641790
v 0.24831948 0.10653762 -2.31690969
v 0.30904731 0.45261912 -2.46867861
v -0.40161686 -0.39699623 -1.25135150
v -0.19197599 -0.19050704 -2.11361632
v -0.12187284 -0.42855759 -1.79996669
v -0.29367074 -0.59074793 -1.12556859
v 0.19211980 -0.19050704 -2.11361632
v 0.40176067 -0.39699623 -1.25135150
v 0.29381455 -0.59074793 -1.12556859
v 0.12201666 -0.42855759 -1.79996669
v -4.2838560e-2 -4.4904920e-2 -2.65740753
v 4.2982374e-2 -4.4904920e-2 -2.65740753
v 7.1906860e-5 -0.25453837 -2.32477239
v -0.18330528 6.2865268e-2 -2.30359819
v -0.22668018 0.47815057 -2.49026834
v -0.56214083 0.19790093 -1.30814917
v -0.44343803 -0.17401942 -1.29204704
v 5.6675110e-2 0.25162389 -2.92086833
v -5.6531297e-2 0.25162389 -2.92086833
v -7.0636648e-2 0.60839146 -3.13386174
v 7.0780462e-2 0.60839146 -3.13386174
v -0.51391196 -0.13101186 -1.30641790
v -0.63844915 0.18737253 -1.33601573
v -0.30890349 0.45261912 -2.46867861
v -0.24817567 0.10653762 -2.31690969
v 0.22729897 0.47819935 -2.49055026
v 0.18410621 6.3008539e-2 -2.30420998
v 0.44305853 -0.17369380 -1.29343749
v 0.56207532 0.19799850 -1.30871300
v -2.9633566e-2 0.19160820 -2.85335959
v 3.0892769e-2 0.19162556 -2.85343375
v 4.4228900e-2 -0.80712969 -0.60140155
v -4.4085086e-2 -0.80712969 -0.60140155
v -0.55271240 -0.51714887 -0.23943717
v 0.85148691 4.4210119e-2 -1.8154112e-2
v 0.55285621 -0.51714887 -0.23943717
v -0.30513767 -0.79959336 -0.37061935
v 0.30528149 -0.79959336 -0.37061935
v 0.76667279 4.5467401e-2 -2.3522991e-2
v -0.69683287 -0.25403056 -0.13688155
v 0.69697668 -0.25403056 -0.13688155
v -0.42504747 -0.71008710 -0.31387874
v 0.42519128 -0.71008710 -0.31387874
v -0.61583996 -0.21947155 -0.13331221
v 0.61547357 -0.21979410 -0.13217772
v 0.42805116 -0.52131509 1.00472744
v 0.25541907 -0.90086985 0.49796431
v 0.36151094 -0.47671594 0.98372363
v -0.62282455 -0.39217516 -0.19119158
v 0.77358243 -0.10710537 -7.8528569e-2
v -0.48779511 -0.62456139 -0.27959686
v 0.48793893 -0.62456139 -0.27959686
v 0.54432318 -0.42896168 -0.20338599
v 0.62296837 -0.39217516 -0.19119158
v 0.45586787 -0.63661312 0.27070218
v -0.36144421 -0.76940039 -0.34449090
v 0.36158802 -0.76940039 -0.34449090
v -0.54485963 -0.42860350 -0.20491549
v 0.69018333 -9.1206580e-2 -7.9005688e-2
v 0.47521286 -0.38741950 1.11847611
v 0.57530419 -0.38875038 0.43840254
v -0.34859690 -0.80704077 9.5587512e-2
v 0.29764350 -0.83917470 0.64172318
v 0.34874072 -0.80704077 9.5587512e-2
v -0.57516038 -0.38875038 0.43840254
v 0.40163585 -0.36500596 1.10270421
v 0.50109887 -0.34839367 0.42486711
v -0.19631992 -0.82908206 -0.43527159
v 0.19646373 -0.82908206 -0.43527159
v 0.63859296 -0.24782656 0.52238273
v 0.51405577 -0.51996423 0.35449664
v -0.40161686 -0.73384205 0.18705629
v -0.29367074 -0.85159900 -1.1675605e-2
v 0.40176067 -0.73384205 0.18705629
v -0.51391196 -0.51996423 0.35449664
v 0.56207532 -0.22618278 0.50263691
v 4.4228900e-2 -0.81274653 -0.57741639
v -4.4085086e-2 -0.81274653 -0.57741639
v -0.92880573 0.36709110 -0.73591521
v -0.17599609 0.78514031 -3.01181190
v 0.24261414 0.78921648 -2.99708099
v -0.81699364 0.36649003 -0.72250778
v -0.56067442 0.59912072 -2.00356672
v 0.55902014 0.61002362 -1.96416462
v -0.43981643 0.60281003 -2.01339800
v 0.43910322 0.61136841 -1.98246879
v -0.76719370 0.48291471 -1.37068493
v -5.6419913e-2 0.82796713 -3.24115343
v 0.38996437 0.71143428 -2.54782477
v -0.14531433 0.74784928 -2.80001313
v 0.61493829 0.49150162 -1.29473954
v -0.35301777 0.70419957 -2.57397034
v 0.13864303 0.82986653 -3.23428916
v 0.72276661 0.49742303 -1.31825317
v -0.66119002 0.47907546 -1.33964655
v 0.19785279 0.75119083 -2.78793706
v -0.92770497 0.29835762 -0.74817645
v -0.17489533 0.71640683 -3.02407314
v 0.24371490 0.72048300 -3.00934223
v -0.81589289 0.29775655 -0.73476902
v -0.55957366 0.53038724 -2.01582796
v 0.56012089 0.54129014 -1.97642586
v -0.43871567 0.53407655 -2.02565924
v 0.44020397 0.54263493 -1.99473003
v -0.76609294 0.41418123 -1.38294617
v -5.5319155e-2 0.75923365 -3.25341467
v 0.39106513 0.64270080 -2.56008601
v -0.14421357 0.67911580 -2.81227437
v 0.61603905 0.42276814 -1.30700078
v -0.35191701 0.63546610 -2.58623158
v 0.13974378 0.76113305 -3.24655040
v 0.72386737 0.42868955 -1.33051441
v -0.66008926 0.41034199 -1.35190779
v 0.19895354 0.68245735 -2.80019830
v 7.1964501e-2 0.84585388 -3.32989638
v 1.6490013e-2 0.84531370 -3.33184853
v 7.3065259e-2 0.77712040 -3.34215762
v 1.7590771e-2 0.77658023 -3.34410977
v -0.86015048 0.42420402 -1.04991259
v -0.10919496 0.81074807 -3.14936556
v 0.31195002 0.75435829 -2.79544991
v 0.68438247 0.43543791 -0.97422586
v -0.45501265 0.65379817 -2.30058918
v 0.64327038 0.55443929 -1.64500905
v -0.55899315 0.53874169 -1.66494592
v 0.32348024 0.67969274 -2.37585821
v -0.66605156 0.54168992 -1.69108414
v -1.5852950e-2 0.83913911 -3.30013891
v 0.47345294 0.66283900 -2.26791644
v -0.29818025 0.67363939 -2.39773447
v 0.53471722 0.54939158 -1.62645821
v -0.25864130 0.74880222 -2.81552904
v 0.18516100 0.81361433 -3.13900717
v 0.79407180 0.44031183 -0.99170045
v -0.75188666 0.42145240 -1.02476823
v -0.85904972 0.35547055 -1.06217383
v -0.10809420 0.74201459 -3.16162680
v 0.31305078 0.68562481 -2.80771115
v 0.68548323 0.36670443 -0.98648710
v -0.45391189 0.58506469 -2.31285042
v 0.10321343 0.77155431 -3.30824893
v 0.64437114 0.48570581 -1.65727028
v -0.55789239 0.47000822 -1.67720716
v 0.32458100 0.61095927 -2.38811945
v -0.66495080 0.47295644 -1.70334538
v 0.47455369 0.59410552 -2.28017768
v -0.29707949 0.60490592 -2.40999571
v 0.53581797 0.48065810 -1.63871945
v -0.25754055 0.68006874 -2.82779028
v 0.18626175 0.74488085 -3.15126841
v 0.79517256 0.37157835 -1.00396168
v -0.75078590 0.35271892 -1.03702947
v 0.10211268 0.84028779 -3.29598769
v -1.4752192e-2 0.77040564 -3.31240015
v 4.5693812e-2 0.77880709 -3.35407008
v 4.4593054e-2 0.84754057 -3.34180884
v -0.95347719 0.23511489 1.6959092e-3
v -0.84103216 0.23789963 -3.8199026e-3
v -0.95237643 0.16638141 -1.0565330e-2
v -0.83993141 0.16916616 -1.6081142e-2
v -0.90596371 0.17913314 0.31978127
v -0.79627438 0.18400706 0.30230669
v -0.90486295 0.11039966 0.30752003
v -0.79517363 0.11527358 0.29004545
v -0.57611162 6.6742536e-2 -1.14990066
v -0.57777124 8.1615305e-2 -1.15897890
v -0.57599797 0.12372262 -1.14927898
v -0.57332337 0.13295132 -1.13464868
v 0.47995090 0.12372262 -1.34231994
v 0.48262551 0.13295132 -1.32768964
v 0.47817763 8.1615305e-2 -1.35201986
v 0.47983725 6.6742536e-2 -1.34294161
v -0.61505815 -4.5234841e-2 -0.59804848
v -0.61468207 -5.5147940e-2 -0.61372340
v -0.61334849 -4.6378365e-3 -0.58869648
v -0.61189381 1.1060842e-2 -0.59847143
v 0.70840148 1.1060842e-2 -0.83983829
v 0.71322045 -4.6378365e-3 -0.83121025
v 0.71151079 -4.5234841e-2 -0.84056225
v 0.70561322 -5.5147940e-2 -0.85509027
v -0.48378456 -0.22007436 -1.15024784
v -0.54659670 6.0134498e-2 -1.18867198
v -0.49622522 7.1800486e-2 -1.18594005
v -0.43341308 -0.20840837 -1.14751591
v -0.48378456 -0.28799093 -0.86022874
v -0.54659670 -3.0880202e-2 -0.80001864
v -0.49622522 -1.9214214e-2 -0.79728671
v -0.43341308 -0.27632494 -0.85749681
v 0.61916460 7.5321473e-3 -0.97428892
v 0.74868977 0.32433034 -0.90010123
v 0.64082003 0.39436228 -0.88370118
v 0.46716460 7.5321473e-3 -0.97428892
v 0.61916460 -6.9752532e-4 -0.93914636
v 0.74868977 0.31610066 -0.86495867
v 0.64082003 0.38613260 -0.84855862
v 0.46716460 -6.9752532e-4 -0.93914636
v 0.47791473 -0.22007436 -1.15024784
v 0.54072688 6.0134498e-2 -1.18867198
v 0.49035539 7.1800486e-2 -1.18594005
v 0.42754325 -0.20840837 -1.14751591
v 0.47791473 -0.28799093 -0.86022874
v 0.54072688 -3.0880202e-2 -0.80001864
v 0.49035539 -1.9214214e-2 -0.79728671
v 0.42754325 -0.27632494 -0.85749681
v 6.3773466e-2 -0.34443258 -0.73513250
v 6.7186619e-2 -0.36102260 -0.76172084
v 7.1686507e-2 -0.35380528 -0.79207672
v 7.4637156e-2 -0.32700842 -0.80841808
v 7.4310117e-2 -0.29632926 -0.80117237
v 7.0896963e-2 -0.27973924 -0.77458404
v 6.6397076e-2 -0.28695656 -0.74422816
v 6.3446426e-2 -0.31375342 -0.72788680
v 0.31005812 -0.35011084 -0.69997386
v 0.31347128 -0.36670086 -0.72656219
v 0.31797116 -0.35948354 -0.75691807
v 0.32092181 -0.33268668 -0.77325943
v 0.32059477 -0.30200752 -0.76601373
v 0.31718162 -0.28541750 -0.73942539
v 0.31268173 -0.29263482 -0.70906952
v 0.30973108 -0.31943168 -0.69272816
v 7.9904675e-2 -0.21782814 -1.14972182
v 7.9904675e-2 6.9554263e-2 -1.18646606
v 0.13168156 6.9554263e-2 -1.18646606
v 0.13168156 -0.21782814 -1.14972182
v 7.9904675e-2 -0.28574471 -0.85970272
v 7.9904675e-2 -2.1460437e-2 -0.79781273
v 0.13168156 -2.1460437e-2 -0.79781273
v 0.13168156 -0.28574471 -0.85970272
v 0.22412228 -0.32291763 -0.74746501
v 0.21628889 -0.34108912 -0.76195091
v 0.19446787 -0.34818771 -0.77060305
v 0.17144168 -0.34005514 -0.76835313
v 0.16069874 -0.32145536 -0.75651911
v 0.16853213 -0.30328386 -0.74203321
v 0.19035316 -0.29618527 -0.73338107
v 0.21337935 -0.30431785 -0.73563100
v 0.65621464 1.17470016 -2.79200554
v 0.61869436 1.17506366 -2.81239350
v 0.52521997 1.18292435 -2.84022533
v 0.42743617 1.17947325 -2.83969678
v 0.38573471 1.18093626 -2.83061820
v 0.42626268 1.19430391 -2.82908139
v 0.52356042 1.20389806 -2.82521290
v 0.61752088 1.18989432 -2.80177811
v 0.46775518 0.64922659 -2.07870516
v 0.42360582 0.58779108 -1.99775475
v 0.41577243 0.56961959 -2.01224065
v 0.45543194 0.63561020 -2.09753995
v 0.39395141 0.56252100 -2.02089279
v 0.40936730 0.63432791 -2.11728333
v 0.37092521 0.57065357 -2.01864287
v 0.35972611 0.63781676 -2.11120254
v 0.36018228 0.58925336 -2.00680885
v 0.34325529 0.65209702 -2.09647828
v 0.36801567 0.60742485 -1.99232295
v 0.35700389 0.67222066 -2.08657714
v 0.38983669 0.61452344 -1.98367081
v 0.40541863 0.68423195 -2.08156334
v 0.41286289 0.60639087 -1.98592074
v 0.45270972 0.67001410 -2.07291454
v 0.56322988 0.69789859 -2.13615004
v 0.61075156 0.74912082 -2.20245878
v 0.51738113 0.67488899 -2.15327488
v 0.55817953 0.73827071 -2.21874984
v 0.41698685 0.66382146 -2.16589458
v 0.42934708 0.73624471 -2.24078077
v 0.31767584 0.67949333 -2.18178404
v 0.29972251 0.74422962 -2.25564616
v 0.26995536 0.70466024 -2.17801677
v 0.24523814 0.75754798 -2.25463806
v 0.31437874 0.72116259 -2.15195828
v 0.29781017 0.76839809 -2.23834700
v 0.41242292 0.72150112 -2.12460900
v 0.42664262 0.77042409 -2.21631607
v 0.51408404 0.71655825 -2.12344912
v 0.55626719 0.76243919 -2.20145068
v 0.68543970 1.14593038 -2.74858088
v 0.69192201 1.11969093 -2.71120543
v 0.63596818 1.13778251 -2.76365088
v 0.63934998 1.10884082 -2.72749648
v 0.51622021 1.13729877 -2.78455116
v 0.51051753 1.10681482 -2.74952742
v 0.39555453 1.14332541 -2.79797140
v 0.38089296 1.11479972 -2.76439281
v 0.34426308 1.15379644 -2.79728593
v 0.32640859 1.12811809 -2.76338470
v 0.39398930 1.16310705 -2.78381223
v 0.37898062 1.13896820 -2.74709365
v 0.51403301 1.16494098 -2.76476560
v 0.50781307 1.14099420 -2.72506271
v 0.63440295 1.15756415 -2.74949171
v 0.63743764 1.13300929 -2.71019732
vt -0.16251748 0.33921495
vt -0.15066074 0.41104018
vt -0.12905978 0.46103694
vt -0.11415194 1.18540330
vt -0.11197044 1.23903571
vt -8.8045077e-2 0.55497487
vt -8.6669420e-2 1.19202290
vt -6.6360544e-2 1.08869031
vt -5.7314965e-2 1.13400123
vt -4.9591201e-2 0.71508275
vt -2.5275842e-2 1.06821968
vt -2.1791856e-2 0.99570115
vt -1.7602344e-2 3.4283560e-2
vt 8.5490341e-3 0.75327707
vt 8.8336856e-3 0.99615765
vt 1.6881324e-2 0.90885720
vt 4.3909307e-2 0.91834496
vt 5.1488849e-2 0.82375828
vt 5.2896109e-2 0.44880135
vt 6.2958255e-2 0.20430546
vt 6.7242821e-2 0.55942055
vt 7.9649291e-2 0.83497616
vt 8.1410806e-2 0.74497688
vt 8.1410806e-2 0.77777639
vt 8.2783164e-2 -0.17578538
vt 8.4139403e-2 0.73572283
vt 8.4572367e-2 2.9202900e-2
vt 8.6327524e-2 0.10720140
vt 9.0179300e-2 0.44706555
vt 9.0780785e-2 0.67878194
vt 9.5455061e-2 0.77777639
vt 9.5455061e-2 0.74497688
vt 9.7961089e-2 0.87147236
vt 9.8687182e-2 0.20882622
vt 0.10260558 1.39189598
vt 0.10573522 0.55343574
vt 0.11018918 0.80216959
vt 0.11051259 0.64370133
vt 0.11515812 0.74588840
vt 0.11532505 2.03169354
vt 0.11692762 0.74497688
vt 0.11692762 0.77777639
vt 0.11805253 0.11500371
vt 0.11810066 0.91748510
vt 0.11820542 0.80245867
vt 0.12397311 -0.27666260
vt 0.12508471 -7.8096314e-2
vt 0.13023840 0.29967576
vt 0.13027706 0.67039933
vt 0.13309956 -6.9264606e-2
vt 0.13419443 0.94828373
vt 0.13489486 -0.49245621
vt 0.13637310 0.58171880
vt 0.13747006 0.40692218
vt 0.13935614 6.2161551e-2
vt 0.13956070 5.3703346e-2
vt 0.14035498 1.27758539
vt 0.14577306 0.65090460
vt 0.14669063 0.96815279
vt 0.14808421 0.92611450
vt 0.15085181 -0.57804445
vt 0.15086595 -0.68764168
vt 0.15096163 0.74497688
vt 0.15096163 0.77777639
vt 0.15359397 -0.40333207
vt 0.15441388 1.04604860
vt 0.15477493 1.26078253
vt 0.15480518 1.20334317
vt 0.15490629 -0.75060970
vt 0.15555341 0.85532112
vt 0.15574313 -0.18473674
vt 0.15622794 0.93904385
vt 0.15681941 0.97895600
vt 0.15760222 0.47227794
vt 0.15907684 0.79581317
vt 0.15946839 -0.65044395
vt 0.15990187 0.64959306
vt 0.16221790 0.69135187
vt 0.16428546 0.87147236
vt 0.16445547 0.86672876
vt 0.16488717 0.22395930
vt 0.16519093 0.23244083
vt 0.16546849 0.51502780
vt 0.16581092 0.98255707
vt 0.16773432 -0.81892993
vt 0.16895183 0.44253375
vt 0.16895912 0.97545526
vt 0.16908465 0.29670734
vt 0.16932774 -0.49303285
vt 0.16986147 6.2327285e-2
vt 0.16986947 5.3878427e-2
vt 0.17033748 -0.72015199
vt 0.17057246 0.72507417
vt 0.17267334 0.22329860
vt 0.17410547 1.03807518
vt 0.17475996 0.40809616
vt 0.17480242 0.97895600
vt 0.17651354 0.80216959
vt 0.17690462 0.93813893
vt 0.17870407 0.29733566
vt 0.17894324 -0.29438020
vt 0.17911974 1.04501829
vt 0.17926458 1.38849584
vt 0.18135943 0.78050462
vt 0.18307285 -0.56926129
vt 0.18442503 0.91748510
vt 0.18493120 0.96815279
vt 0.18521388 0.36330020
vt 0.18537697 0.58058405
vt 0.18539157 -0.78943202
vt 0.18556599 8.6161465e-2
vt 0.18570149 -7.7909154e-2
vt 0.18742742 -0.89000945
vt 0.18885737 1.00751467
vt 0.18962001 1.10693346
vt 0.19129186 2.03521077
vt 0.19387360 0.93377270
vt 0.19634257 0.85682222
vt 0.19742741 0.94828373
vt 0.19758135 -0.64071768
vt 0.19786069 -0.12737753
vt 0.19857833 -0.38254209
vt 0.19962311 0.74217298
vt 0.20051879 0.94828373
vt 0.20134861 0.74497688
vt 0.20134861 0.77777639
vt 0.20653716 0.66917618
vt 0.20677774 1.07646996
vt 0.20801829 -0.86001792
vt 0.20941714 -0.18176077
vt 0.20950157 1.15483305
vt 0.21121030 1.17830130
vt 0.21122031 -0.96314186
vt 0.21126202 0.46765470
vt 0.21284545 -0.32561360
vt 0.21301500 0.96815279
vt 0.21352117 0.91748510
vt 0.21480672 0.92715534
vt 0.21577108 0.17326744
vt 0.21671816 -0.45621889
vt 0.21920428 -0.70884916
vt 0.21928898 0.27918648
vt 0.22143266 0.80216959
vt 0.22248897 0.11152148
vt 0.22279589 5.5671744e-3
vt 0.22314378 0.97895600
vt 0.22786482 -0.48948289
vt 0.22822916 0.83338495
vt 0.22823192 0.74187564
vt 0.23067878 1.14746592
vt 0.23097062 -0.26056809
vt 0.23124914 0.73439941
vt 0.23213528 0.98255707
vt 0.23271733 -0.54868684
vt 0.23366074 0.87147236
vt 0.23441098 -0.93225498
vt 0.23611454 1.08785834
vt 0.23640162 0.54505819
vt 0.23702108 0.99515826
vt 0.23798507 1.25143390
vt 0.23812097 1.25217211
vt 0.23829610 -1.03829155
vt 0.23971186 0.36817560
vt 0.23991091 -0.52022125
vt 0.24011716 -8.4386676e-2
vt 0.24081624 1.08490364
vt 0.24100955 0.88344274
vt 0.24112678 0.97895600
vt 0.24124594 1.20430271
vt 0.24533304 0.66671865
vt 0.24614053 -0.77686747
vt 0.24719439 -0.32107968
vt 0.25105734 2.6483118e-2
vt 0.25125557 0.96815279
vt 0.25175059 0.52740901
vt 0.25210447 0.80582538
vt 0.25493856 0.44135767
vt 0.25518333 0.15227461
vt 0.25569217 0.45098148
vt 0.25584796 -0.32048550
vt 0.25704027 0.82436399
vt 0.25744551 0.91879074
vt 0.25870288 -2.5989075e-3
vt 0.26000048 0.29727422
vt 0.26053545 0.21810751
vt 0.26097314 1.21924088
vt 0.26236418 0.60501115
vt 0.26283773 0.13117360
vt 0.26291882 -1.3826148e-2
vt 0.26305674 -0.13937264
vt 0.26317074 -0.22703007
vt 0.26367755 1.33145971
vt 0.26368867 0.42317725
vt 0.26375177 0.94828373
vt 0.26575693 -1.00580513
vt 0.26672454 0.29584827
vt 0.26767994 1.32584728
vt 0.26779158 1.06213813
vt 0.26793895 -0.57997654
vt 0.26818500 -1.11213405
vt 0.27266239 1.42014319
vt 0.27291763 0.72545396
vt 0.27320505 1.32726923
vt 0.27417726 0.74497688
vt 0.27417726 0.77777639
vt 0.27456611 7.5219851e-2
vt 0.27759814 1.25002175
vt 0.27774989 0.14485993
vt 0.27845798 -9.8831841e-3
vt 0.27984554 0.91748510
vt 0.27999728 -0.84477793
vt 0.28018897 1.29501572
vt 0.28214687 1.24975665
vt 0.28294602 0.30304928
vt 0.28335917 0.86400273
vt 0.28496065 0.91141223
vt 0.28507348 -0.37096100
vt 0.28523931 0.49159006
vt 0.28570255 0.13780241
vt 0.28577839 -2.0477322e-2
vt 0.28637935 0.99854156
vt 0.28731587 -3.7005163e-2
vt 0.28775702 0.80216959
vt 0.28883865 -0.14893029
vt 0.29113614 0.29297266
vt 0.29117604 0.56924105
vt 0.29146154 -0.17462277
vt 0.29254645 1.42028503
vt 0.29323122 1.32736384
vt 0.29323489 1.29284221
vt 0.29349690 0.29083174
vt 0.29354960 0.45696971
vt 0.29374229 1.13976307
vt 0.29410787 0.65387455
vt 0.29520235 0.91229185
vt 0.29602268 0.43564974
vt 0.29632793 1.33199521
vt 0.29884511 0.58978560
vt 0.29974910 1.40013365
vt 0.29998511 0.87147236
vt 0.30101545 0.68126096
vt 0.30191531 0.74895125
vt 0.30246666 1.13027217
vt 0.30281276 -1.07012998
vt 0.30425586 -0.63779013
vt 0.30518298 0.90922618
vt 0.30579788 -0.35884190
vt 0.30856865 1.06602674
vt 0.30877181 0.13759141
vt 0.31195573 1.21390540
vt 0.31299374 -4.0088788e-2
vt 0.31360348 0.45862764
vt 0.31436591 0.30838678
vt 0.31462900 1.02177504
vt 0.31477047 1.07246924
vt 0.31520587 1.34710122
vt 0.31611640 -0.91471942
vt 0.31667825 -1.4861122e-2
vt 0.31675924 1.00038700
vt 0.31693347 -0.48242972
vt 0.31708586 0.14416975
vt 0.31713571 -2.6771109e-2
vt 0.31785057 -3.7581162e-2
vt 0.31809409 1.45724307
vt 0.31933601 0.21279226
vt 0.32044814 -0.25520932
vt 0.32049420 0.92164655
vt 0.32178759 1.25235915
vt 0.32191763 -0.41526793
vt 0.32344063 1.08743020
vt 0.32416698 0.29024121
vt 0.32514005 0.34911334
vt 0.32543986 0.39471312
vt 0.32567398 0.29290289
vt 0.32652701 0.32255205
vt 0.32686891 -0.20363907
vt 0.32721765 0.72365122
vt 0.32738400 0.43500845
vt 0.32965162 0.48525286
vt 0.33100400 0.58909890
vt 0.33175603 0.69771349
vt 0.33301927 6.5318027e-2
vt 0.33407777 0.51308521
vt 0.33457021 1.35524565
vt 0.33491503 0.74820862
vt 0.33826826 0.21975729
vt 0.33899492 0.90843731
vt 0.34012281 0.34929572
vt 0.34156724 1.14001129
vt 0.34219517 1.43632107
vt 0.34286435 1.19843455
vt 0.34309500 1.06518512
vt 0.34506307 0.38237607
vt 0.34510501 -0.69612245
vt 0.34704208 1.21302027
vt 0.34710658 0.13014322
vt 0.34723767 0.18457910
vt 0.34731430 -0.17471194
vt 0.34850250 1.20213337
vt 0.35029750 1.15459454
vt 0.35065343 1.34616981
vt 0.35101638 0.94210259
vt 0.35309957 0.31323950
vt 0.35367591 1.45626319
vt 0.35374807 0.36179660
vt 0.35392174 1.09582208
vt 0.35575968 -3.3019210e-2
vt 0.35577912 0.15022811
vt 0.35603538 0.21901206
vt 0.35637265 -0.98578122
vt 0.35711187 -3.7339836e-2
vt 0.35883707 0.69450073
vt 0.36386785 0.59507890
vt 0.36386785 0.66952876
vt 0.36463134 0.97796061
vt 0.36507527 -0.57293774
vt 0.36509439 0.18028582
vt 0.36537441 -0.45927430
vt 0.36541871 -0.41091375
vt 0.36549351 0.93269717
vt 0.36628622 1.19966678
vt 0.36702041 -0.42247280
vt 0.36954475 -0.23027357
vt 0.36969254 0.21550839
vt 0.36972497 0.34877481
vt 0.37350161 0.51008946
vt 0.37358290 0.46658760
vt 0.37551098 -0.99961852
vt 0.37738907 0.73964517
vt 0.38031485 0.20778687
vt 0.38054452 1.04431191
vt 0.38410189 1.27005284
vt 0.38411252 0.40854929
vt 0.38677988 0.29033873
vt 0.38781189 1.24811692
vt 0.38842593 -0.47312365
vt 0.38961175 0.53745249
vt 0.39130552 -0.75411369
vt 0.39327590 0.12171346
vt 0.39350596 5.6515968e-2
vt 0.39399552 1.19516906
vt 0.39970997 0.31893488
vt 0.40011285 0.79419359
vt 0.40101471 1.09288634
vt 0.40221911 -3.9935861e-2
vt 0.40231143 0.15734636
vt 0.40469344 -9.5962757e-2
vt 0.40806565 -0.20061541
vt 0.40949541 -0.53747361
vt 0.41142885 0.92490877
vt 0.41198574 1.03574829
vt 0.41414142 -3.7531308e-2
vt 0.41494388 -0.53243234
vt 0.41552682 -0.50234358
vt 0.41725068 0.89757671
vt 0.41760457 0.62415133
vt 0.42008065 -0.25657495
vt 0.42034418 0.37554935
vt 0.42099962 0.11599070
vt 0.42124961 0.33029031
vt 0.42479467 0.53525948
vt 0.42694023 -0.47131159
vt 0.42843621 0.78180339
vt 0.42873217 0.66836187
vt 0.43430003 1.51196166
vt 0.43591580 -0.46991111
vt 0.43655965 0.56924105
vt 0.43906581 -0.81423595
vt 0.44112568 0.80076945
vt 0.44160595 -0.71312772
vt 0.44246734 -0.41611540
vt 0.44505501 0.19583968
vt 0.44726291 0.11088524
vt 0.45146221 -1.01090312
vt 0.45308601 0.55111229
vt 0.45417524 0.32611474
vt 0.45432227 -0.52409084
vt 0.45634907 -4.9002459e-2
vt 0.45667175 0.16634070
vt 0.45909328 0.53213697
vt 0.46061518 -0.12478383
vt 0.46305225 1.09361707
vt 0.46574902 0.87615284
vt 0.46661432 0.85638612
vt 0.46758537 0.61168118
vt 0.46812285 -0.53250263
vt 0.46834315 0.67667807
vt 0.46950046 -0.54633313
vt 0.46951378 0.44881150
vt 0.47287521 0.87983799
vt 0.47336849 0.66733108
vt 0.47363450 0.90061767
vt 0.47651897 -0.28373732
vt 0.47751719 0.40207884
vt 0.47805684 0.89897777
vt 0.48243660 0.56008501
vt 0.48248195 0.76987880
vt 0.48335425 0.57273699
vt 0.48458245 0.82332538
vt 0.48670886 0.88318252
vt 0.48893182 0.91032714
vt 0.48925908 0.86361271
vt 0.49138894 0.61130546
vt 0.49164580 0.55702031
vt 0.49227593 0.72083484
vt 0.49369132 1.45925195
vt 0.49423721 0.91999824
vt 0.49660950 0.87938024
vt 0.50019378 1.14492648
vt 0.50072027 0.89872572
vt 0.50367019 0.45363190
vt 0.50533571 0.57229307
vt 0.50603184 0.73345231
vt 0.50711519 1.22868524
vt 0.50778294 9.8458949e-2
vt 0.50865564 -0.25939335
vt 0.51003609 0.93076315
vt 0.51184906 0.92316774
vt 0.51531316 0.33483244
vt 0.51715364 -5.9412324e-2
vt 0.51751956 0.17691856
vt 0.51824452 0.42906170
vt 0.51894711 0.53788220
vt 0.51961352 0.64813912
vt 0.52164891 -0.20252718
vt 0.52351756 -0.34156338
vt 0.52443371 0.11857080
vt 0.52654436 0.92958547
vt 0.52674666 -0.59039383
vt 0.52748057 0.54226113
vt 0.53051833 0.11845425
vt 0.53186138 0.50553212
vt 0.53284402 0.41962276
vt 0.53604317 0.89975358
vt 0.53628783 0.46731590
vt 0.53660175 0.11833672
vt 0.53788664 0.45567056
vt 0.53795367 -0.31105306
vt 0.53806552 0.50557734
vt 0.53936048 0.42949228
vt 0.54114584 0.45469633
vt 0.54114584 0.46815432
vt 0.54214834 0.88057975
vt 0.54268502 0.11821162
vt 0.54295784 0.86629749
vt 0.54339180 0.47668092
vt 0.54432226 0.50547739
vt 0.54463774 0.58571657
vt 0.54513450 0.54620655
vt 0.54557716 0.56840373
vt 0.54641933 0.61063363
vt 0.54704385 0.41649192
vt 0.54704385 0.25482083
vt 0.54725166 0.44856659
vt 0.54876945 0.11808548
vt 0.54915584 0.59986250
vt 0.55057802 0.50532781
vt 0.55168765 0.42382207
vt 0.55175699 0.87828770
vt 0.55214687 0.89783784
vt 0.55274940 0.92805113
vt 0.55296868 0.93904671
vt 0.55444906 0.36375226
vt 0.55444906 0.51258869
vt 0.55476295 0.25966072
vt 0.55476295 0.40849715
vt 0.55501513 -0.34849779
vt 0.55503714 0.47827973
vt 0.55606947 0.91927321
vt 0.55634162 0.31418162
vt 0.55677542 0.50503528
vt 0.55708744 0.33405173
vt 0.55708744 0.46463050
vt 0.55819033 0.34255566
vt 0.55819033 0.45058329
vt 0.55889700 0.45016540
vt 0.55950852 0.25966072
vt 0.55950852 0.40849715
vt 0.56050185 0.41649192
vt 0.56050185 0.25482083
vt 0.56261710 0.54156042
vt 0.56440216 0.47117576
vt 0.56600097 0.45953042
vt 0.56834106 0.59302346
vt 0.56836740 0.93562033
vt 0.56991327 1.09347382
vt 0.57054543 0.33405173
vt 0.57054543 0.46463050
vt 0.57096918 0.53684475
vt 0.57175945 0.60727107
vt 0.57375493 0.36375226
vt 0.57375493 0.51258869
vt 0.57406882 0.25966072
vt 0.57406882 0.40849715
vt 0.57518525 0.31838093
vt 0.57591933 0.56830262
vt 0.57749621 0.34255566
vt 0.57749621 0.45058329
vt 0.57881439 0.25966072
vt 0.57881439 0.40849715
vt 0.58144454 0.34441692
vt 0.58290427 -7.1252681e-2
vt 0.58340791 0.18851754
vt 0.58587616 0.91475851
vt 0.58594169 0.57068559
vt 0.58646243 0.93654336
vt 0.58948828 0.45469633
vt 0.58948828 0.46815432
vt 0.59342252 0.92154097
vt 0.59511074 0.89731708
vt 0.59553687 0.92905806
vt 0.59627439 1.07402005
vt 0.59677674 0.70452473
vt 0.59687356 0.57492881
vt 0.60143275 0.60911093
vt 0.60221230 -0.33955735
vt 0.60356799 0.89667469
vt 0.60396488 1.09358465
vt 0.60470214 1.19875542
vt 0.60546794 0.97889145
vt 0.60675799 0.61795531
vt 0.60690420 0.87718070
vt 0.60704174 0.92114205
vt 0.60734013 0.25670288
vt 0.60792337 0.57025279
vt 0.60797561 0.86164710
vt 0.60803200 0.48036077
vt 0.60818136 0.74403634
vt 0.61015095 0.61148290
vt 0.61027411 0.65694547
vt 0.61063379 0.45695618
vt 0.61063379 0.47005048
vt 0.61089400 0.91767182
vt 0.61335525 1.13014821
vt 0.61386638 0.25665504
vt 0.61511634 1.21342999
vt 0.61585813 1.07591410
vt 0.61680036 0.65689763
vt 0.61776489 0.90451418
vt 0.61910220 0.94974580
vt 0.61984041 0.71490678
vt 0.62000881 0.60027342
vt 0.62022215 0.54597294
vt 0.62061786 0.83208192
vt 0.62372168 0.62439120
vt 0.62523237 0.60853732
vt 0.62622344 0.89602297
vt 0.62693649 0.55305891
vt 0.62767094 1.09369814
vt 0.62808508 1.19863681
vt 0.62834589 0.61795819
vt 0.62931472 0.97925298
vt 0.62974893 0.74386652
vt 0.62999112 0.25653684
vt 0.62999746 0.48059236
vt 0.63063787 0.87669182
vt 0.63078033 0.86180372
vt 0.63292510 0.65677943
vt 0.63595380 1.13022122
vt 0.63651737 0.25648900
vt 0.63665013 0.58378821
vt 0.63707003 1.21352118
vt 0.63744702 1.07622646
vt 0.63945135 0.65673159
vt 0.64068108 0.95022834
vt 0.64330886 0.56287586
vt 0.64341927 0.83225908
vt 0.64367345 0.71489496
vt 0.64371303 0.60050525
vt 0.64386756 0.52033033
vt 0.64736347 0.46006250
vt 0.64896228 0.47170783
vt 0.64966241 0.52238823
vt 0.65103157 0.35464215
vt 0.65217204 -8.3716377e-2
vt 0.65272364 0.20083117
vt 0.65316048 1.07425763
vt 0.65446744 0.45069747
vt 0.65466466 0.66044063
vt 0.65558581 0.52431897
vt 0.65832730 0.47881181
vt 0.65940904 0.69306806
vt 0.66076124 0.64630230
vt 0.66153503 0.52616860
vt 0.66155738 0.54608532
vt 0.66234314 0.56433279
vt 0.66319586 0.31415449
vt 0.66611278 0.44909867
vt 0.66745289 0.52784016
vt 0.66997264 0.47721300
vt 0.67191846 0.56243363
vt 0.67422611 0.59955874
vt 0.67502887 0.45695618
vt 0.67502887 0.47005048
vt 0.67547780 0.45620264
vt 0.67601624 0.64046761
vt 0.67707661 0.46784798
vt 0.68314483 0.64646122
vt 0.68376281 0.54624050
vt 0.68536601 0.31430774
vt 0.68612974 0.57565671
vt 0.69315782 0.91957160
vt 0.69515382 0.60626824
vt 0.69874204 0.64749244
vt 0.70104122 0.54770186
vt 0.70521149 0.90597278
vt 0.70521149 0.81318628
vt 0.70684925 0.69354042
vt 0.70835018 1.29876821
vt 0.71108695 1.20089921
vt 0.71135999 0.47424334
vt 0.71167622 0.48569369
vt 0.71214924 0.50315110
vt 0.71282479 0.53063676
vt 0.71327022 1.09970743
vt 0.71358306 0.69512087
vt 0.71366136 0.57076085
vt 0.71438418 0.78852810
vt 0.71438418 0.85722123
vt 0.71454517 0.62757334
vt 0.71477612 0.99675724
vt 0.71530101 0.70467079
vt 0.71556906 0.89431669
vt 0.71570190 0.79564674
vt 0.71646511 0.43430097
vt 0.71664194 0.44525629
vt 0.71664194 0.46137724
vt 0.71669475 0.44984199
vt 0.71696607 0.90597278
vt 0.71696607 0.81318628
vt 0.72125561 0.44064263
vt 0.72125561 0.46599091
vt 0.72126858 0.42932668
vt 0.72164309 0.45467219
vt 0.72419721 0.77887977
vt 0.72836716 1.29940834
vt 0.72872064 0.81318628
vt 0.72872064 0.90597278
vt 0.72910392 0.69601856
vt 0.73153393 1.20145800
vt 0.73316602 0.78406056
vt 0.73316602 0.86168877
vt 0.73437628 1.10016711
vt 0.73574586 0.19392254
vt 0.73597504 0.69522498
vt 0.73669654 0.99709024
vt 0.73780473 0.88698973
vt 0.73780473 0.75875959
vt 0.73810139 0.47350997
vt 0.73837951 0.89452497
vt 0.73839024 0.48503127
vt 0.73874212 0.50258620
vt 0.73913533 0.53019024
vt 0.73939723 0.79571657
vt 0.73950368 0.57044535
vt 0.73977116 0.62738676
vt 0.73981219 0.70461548
vt 0.74047522 0.81318628
vt 0.74047522 0.90597278
vt 0.74261698 0.19312896
vt 0.74297651 0.73381778
vt 0.75222980 0.90597278
vt 0.75222980 0.81318628
vt 0.75620515 0.79095764
vt 0.75658658 0.88252220
vt 0.75658658 0.76322713
vt 0.75673782 0.57019300
vt 0.75673782 0.61994915
vt 0.75673782 0.74433952
vt 0.75813784 0.19402664
vt 0.76045860 0.15522053
vt 0.76398437 0.90597278
vt 0.76398437 0.81318628
vt 0.76487165 0.19560710
vt 0.76620094 0.15705411
vt 0.76782509 0.64249675
vt 0.76908252 1.04274812
vt 0.77098162 0.49386230
vt 0.77098162 0.56849652
vt 0.77098162 0.59337459
vt 0.77098162 0.59507107
vt 0.77098162 0.66970529
vt 0.77098162 0.69458337
vt 0.77194309 0.15888824
vt 0.77573895 0.90597278
vt 0.77573895 0.81318628
vt 0.77768858 0.16071191
vt 0.78087294 0.77887977
vt 0.78343389 0.16253613
vt 0.78749352 0.90597278
vt 0.78749352 0.81318628
vt 0.78894753 0.92701800
vt 0.78966064 0.53249253
vt 0.79008217 -1.01419899
vt 0.79451022 0.46898422
vt 0.79451022 0.51874037
vt 0.79451022 0.64313074
vt 0.79642618 0.81777667
vt 0.79924810 0.90597278
vt 0.79924810 0.81318628
vt 0.80450077 0.66963844
vt 0.82722430 0.11509483
vt 0.82726578 0.33063504
vt 0.82916856 0.90019898
vt 0.83457924 0.39984854
vt 0.83680732 -0.42118120
vt 0.85224453 0.53941562
vt 0.85224453 0.64062440
vt 0.85342287 0.39564923
vt 0.85807684 0.50528967
vt 0.86117650 0.66963844
vt 0.86392083 0.69945612
vt 0.86659646 -1.00775741
vt 0.87155041 0.53941562
vt 0.87155041 0.64062440
vt 0.87214292 0.76496163
vt 0.87306282 0.18970444
vt 0.87667765 1.22440649
vt 0.87692047 0.50109036
vt 0.88204565 0.49386230
vt 0.88204565 0.56849652
vt 0.88204565 0.59337459
vt 0.89646053 0.64758439
vt 0.90470746 1.45365644
vt 0.90557426 0.46898422
vt 0.90557426 0.51874037
vt 0.90557426 0.57019300
vt 0.90557426 0.61994915
vt 0.90557426 0.64313074
vt 0.90557426 0.74433952
vt 0.91169867 -0.43231404
vt 0.91981805 0.59507107
vt 0.91981805 0.66970529
vt 0.91981805 0.69458337
vt 0.91986687 0.64813912
vt 0.92671957 0.42629096
vt 0.92672902 0.44064263
vt 0.92672902 0.46599091
vt 0.92709407 0.45163647
vt 0.93140089 0.43083596
vt 0.93160546 0.44554541
vt 0.93160546 0.46108812
vt 0.93163907 0.44695514
vt 0.94534708 0.88826218
vt 0.94952164 0.20455059
vt 0.96732426 1.50249060
vt 0.96996661 0.44881150
vn -0.87182266 -0.45208100 -0.18854181
vn 0.87182266 -0.45208100 -0.18854181
vn -0.85514043 -0.38066408 -0.35189445
vn 0.85514043 -0.38066408 -0.35189445
vn -4.6554187e-16 -0.93790382 -0.34689541
vn -0.44145672 -0.86561140 -0.23628979
vn 0.44145672 -0.86561140 -0.23628979
vn -0.85819175 -0.40632642 -0.31369691
vn 0.89064617 -0.41300719 -0.19019586
vn -7.2778677e-17 -0.67933692 -0.73382651
vn 0.85819175 -0.40632642 -0.31369691
vn -0.29356511 -0.90726182 -0.30115698
vn -0.62056928 -0.69188283 -0.36904189
vn -0.76158979 -0.61207882 -0.21293313
vn 0.29356511 -0.90726182 -0.30115698
vn 0.76158979 -0.61207882 -0.21293313
vn 0.62056928 -0.69188283 -0.36904189
vn -0.91457137 0.36282857 0.17864669
vn -0.88347704 -0.28705630 -0.37022561
vn 0.88347704 -0.28705630 -0.37022561
vn 0.92180590 0.21820031 0.32040989
vn -0.92222116 0.21708124 0.31997480
vn 0.88360500 -0.33732910 -0.32473264
vn -0.70347232 -0.63203701 -0.32504755
vn 0.70347232 -0.63203701 -0.32504755
vn 9.8849018e-17 -0.85039566 -0.52614373
vn 0.90685018 0.28419126 0.31122031
vn -1.7887527e-15 -0.52735275 -0.84964644
vn -0.88360500 -0.33732910 -0.32473264
vn -0.90721815 0.28383100 0.31047574
vn -0.88412839 -0.42776467 -0.18797440
vn -0.86059320 -0.42293838 -0.28372959
vn 0.89355179 -0.40481805 -0.19413281
vn -0.76034624 -0.45247271 -0.46598503
vn 0.85613278 -0.39320589 -0.33529955
vn -0.38273203 -0.87986582 -0.28169547
vn -0.79250670 -0.49618008 -0.35459620
vn -0.84071514 -0.50487982 -0.19568958
vn 0.18941310 -0.92849141 -0.31941568
vn 0.84071514 -0.50487982 -0.19568958
vn 0.79250670 -0.49618008 -0.35459620
vn -0.87603909 -0.32208855 -0.35890735
vn 0.87603909 -0.32208855 -0.35890735
vn -0.85613278 -0.39320589 -0.33529955
vn 0.88412839 -0.42776467 -0.18797440
vn 0.76034624 -0.45247271 -0.46598503
vn 0.86059320 -0.42293838 -0.28372959
vn -0.18941310 -0.92849141 -0.31941568
vn -0.31149895 -0.87464056 -0.37144621
vn -0.61350460 -0.75472598 -0.23238070
vn 0.38273203 -0.87986582 -0.28169547
vn 0.61350460 -0.75472598 -0.23238070
vn 0.31149895 -0.87464056 -0.37144621
vn -0.87706266 0.43739234 0.19861779
vn -0.88241508 -0.26226385 -0.39059097
vn 0.88241508 -0.26226385 -0.39059097
vn 0.90701010 0.22800182 0.35404499
vn -0.90737661 0.22605060 0.35435690
vn -0.11773456 -0.95741965 -0.26360234
vn 0.11773456 -0.95741965 -0.26360234
vn 0.88524728 -0.32343157 -0.33425929
vn 0.88040140 -0.37131266 -0.29499200
vn 0.87595512 -0.36332037 -0.31733410
vn 0.88555426 -0.30864034 -0.34718121
vn -0.73367249 -0.61117424 -0.29696923
vn -0.81202983 -0.49002771 -0.31698644
vn -0.67083841 -0.65613663 -0.34563067
vn -0.51580733 -0.79327949 -0.32349722
vn 0.67083841 -0.65613663 -0.34563067
vn 0.81202983 -0.49002771 -0.31698644
vn 0.73367249 -0.61117424 -0.29696923
vn 0.51580733 -0.79327949 -0.32349722
vn -0.41099626 -0.79292988 -0.44982695
vn 3.3088726e-17 -0.78261626 -0.62250445
vn 0.41099626 -0.79292988 -0.44982695
vn 0.90828815 0.25731713 0.32984927
vn 0.87945172 0.34163533 0.33143624
vn 0.78592432 -0.34083017 -0.51590480
vn -1.4898811e-16 -0.59738248 -0.80195646
vn -0.78592432 -0.34083017 -0.51590480
vn -2.6296304e-15 -0.43326991 -0.90126421
vn -0.87595512 -0.36332037 -0.31733410
vn -0.88524728 -0.32343157 -0.33425929
vn -0.88555426 -0.30864034 -0.34718121
vn -0.88001499 0.34065308 0.33095182
vn -0.90896894 0.25623518 0.32881454
vn -0.90458149 0.31917726 0.28259196
vn -0.23449044 -0.94156065 -0.24182180
vn -4.3933067e-16 -0.95786467 -0.28721989
vn 0.23449044 -0.94156065 -0.24182180
vn 0.88179782 -0.36021976 -0.30442460
vn 0.87431138 -0.39099519 -0.28758022
vn 0.87700102 -0.34021928 -0.33929345
vn 0.88698815 -0.29244377 -0.35739146
vn -0.82405318 -0.48850243 -0.28688279
vn -0.80119917 -0.49361365 -0.33826832
vn -0.44583987 -0.82696641 -0.34256878
vn -0.57157917 -0.76347059 -0.30068241
vn 0.80119917 -0.49361365 -0.33826832
vn 0.82405318 -0.48850243 -0.28688279
vn 0.57157917 -0.76347059 -0.30068241
vn 0.44583987 -0.82696641 -0.34256878
vn -0.67042488 -0.58891552 -0.45134132
vn 0.67042488 -0.58891552 -0.45134132
vn 0.0000000e+0 -0.90666371 -0.42185413
vn 0.88490613 0.29954516 0.35667050
vn 0.78168803 -0.38538064 -0.49035250
vn -0.78168803 -0.38538064 -0.49035250
vn -0.79529908 -0.28198613 -0.53664066
vn 0.79529908 -0.28198613 -0.53664066
vn -0.87431138 -0.39099519 -0.28758022
vn -0.88698815 -0.29244377 -0.35739146
vn -0.87700102 -0.34021928 -0.33929345
vn -0.88609621 0.29692908 0.35590255
vn -0.86958220 0.38866880 0.30457078
vn 5.2374527e-2 -0.97057036 -0.23505336
vn -5.2374527e-2 -0.97057036 -0.23505336
vn 0.87182266 -0.48878890 -3.1790772e-2
vn -0.76158979 -0.64298045 -8.0976207e-2
vn 0.84074014 -0.53923281 -4.8826225e-2
vn 0.61859941 0.48908998 -0.61491931
vn 0.37254519 -0.10882575 -0.92161111
vn 0.13698553 -0.13483414 -0.98135351
vn -0.10445749 -9.7828124e-2 -0.98970616
vn -0.39919679 0.51255598 -0.76021595
vn -0.18761286 0.95310339 -0.23747704
vn 4.8606002e-2 0.98212124 -0.18186625
vn 0.28938983 0.94210577 -0.16938198
vn 0.82850939 -0.28109953 0.48430903
vn 0.96696307 -9.3292864e-2 0.23723168
vn 0.68923133 -0.66240266 -0.29356924
vn 0.49790172 -0.83106029 -0.24785616
vn 6.3072575e-2 -0.81662710 -0.57370901
vn 5.5144792e-2 -0.85018115 -0.52359437
vn -0.60881473 -0.63247531 -0.47887327
vn -0.44572502 -0.80930432 -0.38256466
vn -0.99791026 -4.7991357e-2 -4.3266024e-2
vn -0.94270970 -0.24026286 0.23145666
vn -0.70542335 0.58848068 0.39505491
vn -0.55492190 0.57074420 0.60523776
vn -6.5340170e-2 0.80627478 0.58792146
vn -7.2961165e-2 0.76884348 0.63526087
vn 0.59262271 0.55855334 0.58035894
vn 0.38870484 0.54898823 0.73994626
vn 0.77871165 -0.32325224 0.53769523
vn 0.96599065 -9.5548765e-2 0.24027588
vn 0.32782282 -0.85963446 -0.39186834
vn 0.25232708 -0.79566945 -0.55067337
vn 6.4016477e-2 -0.81236003 -0.57963185
vn 7.1573868e-2 -0.77597144 -0.62669411
vn -0.24362898 -0.84645924 -0.47344659
vn -0.12392475 -0.78699471 -0.60438563
vn -0.91178604 -0.28427665 0.29636633
vn -0.99793092 -5.0269201e-2 -4.0085956e-2
vn -0.36514300 0.68925542 0.62577756
vn -0.24999580 0.80631252 0.53606177
vn -6.4401168e-2 0.81060379 0.58204295
vn -5.6624452e-2 0.84422050 0.53299665
vn 0.20630880 0.67608021 0.70735581
vn 0.12625603 0.79763778 0.58977402
vn 0.93818986 0.24745474 -0.24200400
vn 0.99707698 7.6318742e-2 3.5980139e-3
vn 0.22157014 -0.74369033 -0.63073875
vn 0.21969762 -0.78041807 -0.58538926
vn 7.3012764e-2 -0.76857557 -0.63557905
vn 6.9105043e-2 -0.78830472 -0.61139198
vn -6.9688606e-2 -0.73697516 -0.67231772
vn -8.2234305e-2 -0.77345683 -0.62849189
vn -0.82090016 0.28801177 -0.49312488
vn -0.95379074 0.12129734 -0.27490030
vn -0.19606144 0.86014601 0.47085959
vn -0.20903644 0.82908990 0.51856889
vn -5.5089432e-2 0.85040154 0.52324217
vn -5.9216773e-2 0.83344797 0.54941593
vn 9.5197302e-2 0.85343084 0.51243856
vn 9.2895484e-2 0.82212866 0.56167152
vn -0.87937533 -0.37636821 -0.29162649
vn -2.5784463e-16 0.97365855 0.22801101
vn -7.1208878e-2 -0.11050213 0.99132163
vn 0.89426512 -0.40212900 -0.19642344
vn 1.2892232e-16 0.97365855 0.22801101
vn 1.2892232e-16 0.97365855 0.22801101
vn 0.89426512 -0.40212900 -0.19642344
vn -0.87969824 -0.25034865 -0.40429760
vn -0.87969824 -0.25034865 -0.40429760
vn -2.2939174e-15 0.97365855 0.22801101
vn -2.2939174e-15 0.97365855 0.22801101
vn 0.87969824 -0.25034865 -0.40429760
vn 0.87969824 -0.25034865 -0.40429760
vn 2.6046973e-15 0.97365855 0.22801101
vn 2.6046973e-15 0.97365855 0.22801101
vn 0.86669048 0.40392767 0.29272862
vn -2.5784463e-16 0.97365855 0.22801101
vn -7.1208878e-2 -0.11050213 0.99132163
vn -0.88010544 0.43045791 0.20030080
vn 1.2892232e-16 0.97365855 0.22801101
vn -0.88010544 0.43045791 0.20030080
vn 1.2892232e-16 0.97365855 0.22801101
vn 1.3368642e-4 0.49346807 0.86976390
vn 1.3368642e-4 0.49346807 0.86976390
vn 1.3368642e-4 0.49346807 0.86976390
vn 1.2431197e-16 0.97365855 0.22801101
vn 1.2431197e-16 0.97365855 0.22801101
vn 1.2431197e-16 0.97365855 0.22801101
vn 1.2431197e-16 0.97365855 0.22801101
vn 1.3368642e-4 0.49346807 0.86976390
vn 1.3368642e-4 0.49346807 0.86976390
vn 1.2431197e-16 0.97365855 0.22801101
vn -0.88843258 -0.41849556 -0.18854447
vn -0.88843258 -0.41849556 -0.18854447
vn -0.39719241 0.90186509 0.16993396
vn -0.39719241 0.90186509 0.16993396
vn -0.88486158 -0.31912900 -0.33937688
vn -0.88486158 -0.31912900 -0.33937688
vn -7.4889856e-16 0.97365855 0.22801101
vn -7.4889856e-16 0.97365855 0.22801101
vn -1.7679290e-15 -0.36389147 -0.93144135
vn -1.7679290e-15 -0.36389147 -0.93144135
vn 0.0000000e+0 0.97365855 0.22801101
vn 0.88486158 -0.31912900 -0.33937688
vn 0.88486158 -0.31912900 -0.33937688
vn 7.6203662e-16 0.97365855 0.22801101
vn 7.6203662e-16 0.97365855 0.22801101
vn 0.94745773 0.27767775 0.15880465
vn 0.94745773 0.27767775 0.15880465
vn -0.39719241 0.90186509 0.16993396
vn -0.39719241 0.90186509 0.16993396
vn 0.88126365 0.33124175 0.33712503
vn 0.88126365 0.33124175 0.33712503
vn -7.4889856e-16 0.97365855 0.22801101
vn -7.4889856e-16 0.97365855 0.22801101
vn -0.88180836 0.33010714 0.33681344
vn -0.88180836 0.33010714 0.33681344
vn 7.6203662e-16 0.97365855 0.22801101
vn 7.6203662e-16 0.97365855 0.22801101
vn -0.88153636 -0.35653659 -0.30947585
vn -0.88153636 -0.35653659 -0.30947585
vn -8.7782087e-16 0.97365855 0.22801101
vn -8.7782087e-16 0.97365855 0.22801101
vn -0.80431233 -0.24096870 -0.54315353
vn -0.80431233 -0.24096870 -0.54315353
vn -1.9831375e-15 0.97365855 0.22801101
vn -1.9831375e-15 0.97365855 0.22801101
vn 0.88627420 -0.28777471 -0.36291012
vn 0.88627420 -0.28777471 -0.36291012
vn 8.8433078e-16 0.97365855 0.22801101
vn 8.8433078e-16 0.97365855 0.22801101
vn 0.86669048 0.40392767 0.29272862
vn -7.1208878e-2 -0.11050213 0.99132163
vn 0.18957461 -0.96435127 -0.18462964
vn 0.89046465 0.27160940 0.36510415
vn 0.89046465 0.27160940 0.36510415
vn -3.1077993e-16 0.97365855 0.22801101
vn -3.1077993e-16 0.97365855 0.22801101
vn -0.94729249 0.27822749 0.15882823
vn 2.1033262e-17 0.97365855 0.22801101
vn 2.1033262e-17 0.97365855 0.22801101
vn -0.94729249 0.27822749 0.15882823
vn -0.87139303 0.38039381 0.30979790
vn -0.87139303 0.38039381 0.30979790
vn 6.2818802e-16 0.97365855 0.22801101
vn 6.2818802e-16 0.97365855 0.22801101
vn 0.94015876 0.16379846 0.29878349
vn 0.94015876 0.16379846 0.29878349
vn 4.2066523e-17 0.97365855 0.22801101
vn -0.94027731 0.16340546 0.29862557
vn -0.94027731 0.16340546 0.29862557
vn 4.2066523e-17 0.97365855 0.22801101
vn -0.87937533 -0.37636821 -0.29162649
vn -7.1208878e-2 -0.11050213 0.99132163
vn 0.18957461 -0.96435127 -0.18462964
vn -0.88627420 -0.28777471 -0.36291012
vn -0.88627420 -0.28777471 -0.36291012
vn -3.1077993e-16 0.97365855 0.22801101
vn -3.1077993e-16 0.97365855 0.22801101
vn 0.80431233 -0.24096870 -0.54315353
vn 0.80431233 -0.24096870 -0.54315353
vn 1.9831375e-15 0.97365855 0.22801101
vn 1.9831375e-15 0.97365855 0.22801101
vn 0.88153636 -0.35653659 -0.30947585
vn 0.88153636 -0.35653659 -0.30947585
vn 6.2818802e-16 0.97365855 0.22801101
vn 6.2818802e-16 0.97365855 0.22801101
vn 0.94745773 0.27767775 0.15880465
vn 2.1033262e-17 0.97365855 0.22801101
vn 0.94745773 0.27767775 0.15880465
vn 2.1033262e-17 0.97365855 0.22801101
vn 0.87141608 0.38029648 0.30985254
vn 0.87141608 0.38029648 0.30985254
vn -8.7782087e-16 0.97365855 0.22801101
vn -8.7782087e-16 0.97365855 0.22801101
vn -0.89168002 0.26840940 0.36450395
vn -0.89168002 0.26840940 0.36450395
vn 8.8433078e-16 0.97365855 0.22801101
vn 8.8433078e-16 0.97365855 0.22801101
vn 0.93104514 0.21480601 0.29498021
vn 0.93104514 0.21480601 0.29498021
vn 4.2066523e-17 0.97365855 0.22801101
vn 0.91626517 0.28457628 0.28191218
vn 0.91626517 0.28457628 0.28191218
vn 0.91626517 0.28457628 0.28191218
vn -0.35212045 -5.5190652e-2 0.93432606
vn -0.40219593 0.90630898 0.12977854
vn -0.88055764 -0.36738186 -0.29941413
vn -0.88055764 -0.36738186 -0.29941413
vn -0.88055764 -0.36738186 -0.29941413
vn -0.35212045 -5.5190652e-2 0.93432606
vn -0.40219593 0.90630898 0.12977854
vn -0.93126795 0.21494129 0.29417725
vn -0.93126795 0.21494129 0.29417725
vn 4.2066523e-17 0.97365855 0.22801101
vn 0.93247341 0.18585864 0.30975780
vn 0.93247341 0.18585864 0.30975780
vn 4.2066523e-17 0.97365855 0.22801101
vn 0.87167403 0.37817566 0.31171713
vn 0.87167403 0.37817566 0.31171713
vn 0.87167403 0.37817566 0.31171713
vn 0.18957461 -0.96435127 -0.18462964
vn -0.35212045 -5.5190652e-2 0.93432606
vn 0.93452327 0.23870975 0.26397710
vn 0.93452327 0.23870975 0.26397710
vn 4.2066523e-17 0.97365855 0.22801101
vn -0.88227705 -0.35253350 -0.31194125
vn -0.88227705 -0.35253350 -0.31194125
vn -0.88227705 -0.35253350 -0.31194125
vn 0.18957461 -0.96435127 -0.18462964
vn -0.35212045 -5.5190652e-2 0.93432606
vn -0.93284123 0.18578356 0.30869354
vn -0.93284123 0.18578356 0.30869354
vn 4.2066523e-17 0.97365855 0.22801101
vn -0.93452479 0.23900796 0.26370176
vn -0.93452479 0.23900796 0.26370176
vn 4.2066523e-17 0.97365855 0.22801101
vn 0.72578432 0.33857814 0.59883384
vn 0.72578432 0.33857814 0.59883384
vn 4.2066523e-17 0.97365855 0.22801101
vn 0.72578432 0.33857814 0.59883384
vn -0.72483888 0.33831563 0.60012593
vn -0.72483888 0.33831563 0.60012593
vn -0.72483888 0.33831563 0.60012593
vn 4.2066523e-17 0.97365855 0.22801101
vn -0.87643876 -0.46882958 -0.10979034
vn -0.87643876 -0.46882958 -0.10979034
vn -0.45536971 -0.38585546 0.80234281
vn -0.45536971 -0.38585546 0.80234281
vn -5.4928461e-3 -0.36281637 0.93184447
vn 0.0000000e+0 0.97365855 0.22801101
vn 0.90025791 -0.42388903 -9.9266183e-2
vn -6.7372307e-2 -0.34108091 0.93761655
vn -0.45315741 -0.86794895 -0.20325597
vn -0.45315741 -0.86794895 -0.20325597
vn -3.5725653e-17 -0.76549399 0.64344304
vn -3.5725653e-17 -0.76549399 0.64344304
vn 0.45315741 -0.86794895 -0.20325597
vn 0.45315741 -0.86794895 -0.20325597
vn -3.5725653e-17 -0.76549399 0.64344304
vn -3.5725653e-17 -0.76549399 0.64344304
vn -0.88543763 0.45251583 0.10596999
vn 0.0000000e+0 0.97365855 0.22801101
vn -6.7372307e-2 -0.34108091 0.93761655
vn -0.88843258 -0.45869679 -1.6876121e-2
vn -0.88843258 -0.45869679 -1.6876121e-2
vn -0.38938461 0.88688962 0.24860896
vn -0.38938461 0.88688962 0.24860896
vn 0.89378806 -0.44667011 -4.0357256e-2
vn 0.89378806 -0.44667011 -4.0357256e-2
vn 0.89378806 -0.44667011 -4.0357256e-2
vn -0.40075903 -0.87041480 -0.28595502
vn -3.9015811e-2 -0.32516239 0.94485300
vn 0.78461476 -0.61285703 -9.3733352e-2
vn 0.78461476 -0.61285703 -9.3733352e-2
vn 0.78461476 -0.61285703 -9.3733352e-2
vn -4.5811819e-2 -0.83548850 0.54759497
vn 0.80419554 -0.59428996 9.4332818e-3
vn -0.80419554 0.59428996 -9.4332818e-3
vn -4.5811819e-2 -0.83548850 0.54759497
vn 0.94412093 0.32635526 4.6129261e-2
vn -0.38938461 0.88688962 0.24860896
vn 0.94412093 0.32635526 4.6129261e-2
vn -0.38938461 0.88688962 0.24860896
vn -0.90419346 0.42547331 3.7505195e-2
vn -0.90419346 0.42547331 3.7505195e-2
vn -0.90419346 0.42547331 3.7505195e-2
vn -0.40075903 -0.87041480 -0.28595502
vn -3.9015811e-2 -0.32516239 0.94485300
vn 0.88369797 -0.44936925 0.13093960
vn -0.44290856 -0.52871343 0.72408156
vn -0.43539351 -0.84620472 -0.30719712
vn 0.78477878 -0.61866918 3.7023285e-2
vn -0.78477878 0.61866918 -3.7023285e-2
vn -0.87231816 0.47489045 -0.11636187
vn -0.44290856 -0.52871343 0.72408156
vn -0.43539351 -0.84620472 -0.30719712
vn -0.88779870 -0.45783812 -4.6879888e-2
vn -0.88779870 -0.45783812 -4.6879888e-2
vn -0.88779870 -0.45783812 -4.6879888e-2
vn -0.43763175 -0.89093570 -0.12129314
vn -5.4928461e-3 -0.36281637 0.93184447
vn 0.89619884 -0.44191355 -3.9243420e-2
vn 0.89619884 -0.44191355 -3.9243420e-2
vn 0.89619884 -0.44191355 -3.9243420e-2
vn 0.18892545 0.94621973 0.26263168
vn -6.7372307e-2 -0.34108091 0.93761655
vn -0.83490251 -0.54485692 -7.7902086e-2
vn -0.83490251 -0.54485692 -7.7902086e-2
vn -0.83490251 -0.54485692 -7.7902086e-2
vn 0.86609417 -0.42187318 0.26814904
vn -0.44640452 -0.48033670 0.75498321
vn 0.86609417 -0.42187318 0.26814904
vn -1.3160400e-4 0.94879076 0.31590518
vn -0.95143413 0.29974310 7.0193733e-2
vn -3.9015811e-2 -0.32516239 0.94485300
vn -0.43597170 0.89168028 0.12179883
vn -0.90081708 0.43364795 2.1864233e-2
vn -1.3160400e-4 0.94879076 0.31590518
vn 0.88490878 -0.46288439 -5.1715453e-2
vn 0.88490878 -0.46288439 -5.1715453e-2
vn 0.88490878 -0.46288439 -5.1715453e-2
vn -3.9015811e-2 -0.32516239 0.94485300
vn -0.43597170 0.89168028 0.12179883
vn 0.86153615 -0.50556980 4.6418014e-2
vn 0.86153615 -0.50556980 4.6418014e-2
vn -0.45536971 -0.38585546 0.80234281
vn -0.45536971 -0.38585546 0.80234281
vn -0.90081708 0.43364795 2.1864233e-2
vn -2.6210992e-4 0.91600643 0.40116350
vn -0.64819313 -0.74983900 -0.13261653
vn -0.64819313 -0.74983900 -0.13261653
vn -0.64819313 -0.74983900 -0.13261653
vn 0.44281080 -0.58647764 0.67820540
vn 0.44281080 -0.58647764 0.67820540
vn 0.44281080 -0.58647764 0.67820540
vn 0.62679661 -0.75865811 -0.17766229
vn 0.62679661 -0.75865811 -0.17766229
vn -6.8842406e-17 -0.56525841 0.82491389
vn 0.94412093 0.32635526 4.6129261e-2
vn -1.3160400e-4 0.94879076 0.31590518
vn 0.94412093 0.32635526 4.6129261e-2
vn -0.45921199 -0.28703333 0.84067605
vn -0.43763175 -0.89093570 -0.12129314
vn -5.4928461e-3 -0.36281637 0.93184447
vn -1.3160400e-4 0.94879076 0.31590518
vn -0.87863094 0.47494654 4.9330125e-2
vn -0.87863094 0.47494654 4.9330125e-2
vn -0.87863094 0.47494654 4.9330125e-2
vn 0.18892545 0.94621973 0.26263168
vn -6.7372307e-2 -0.34108091 0.93761655
vn 0.88369797 -0.44936925 0.13093960
vn 0.21022473 0.93810251 0.27526213
vn -0.44290856 -0.52871343 0.72408156
vn 0.88202475 -0.45897175 0.10666433
vn 0.88202475 -0.45897175 0.10666433
vn -0.41819322 -0.85854985 -0.29665903
vn -0.41819322 -0.85854985 -0.29665903
vn -0.74825013 -0.66321371 -1.6411106e-2
vn -0.74825013 -0.66321371 -1.6411106e-2
vn 0.75971973 0.64987914 2.1977887e-2
vn 0.78477878 -0.61866918 3.7023285e-2
vn -0.78477878 0.61866918 -3.7023285e-2
vn 0.78477878 -0.61866918 3.7023285e-2
vn 0.80419554 -0.59428996 9.4332818e-3
vn -0.80419554 0.59428996 -9.4332818e-3
vn -0.78477878 0.61866918 -3.7023285e-2
vn -0.87688971 -0.47571743 6.8973721e-2
vn 0.93527166 0.35323567 2.2169265e-2
vn -0.38661875 0.87644091 0.28701442
vn -0.87231816 0.47489045 -0.11636187
vn 0.21022473 0.93810251 0.27526213
vn -0.44290856 -0.52871343 0.72408156
vn -0.86768530 0.48853374 -9.1961991e-2
vn -0.86768530 0.48853374 -9.1961991e-2
vn -0.41819322 -0.85854985 -0.29665903
vn -0.41819322 -0.85854985 -0.29665903
vn -0.24154744 -0.94482756 -0.22125938
vn -0.24154744 -0.94482756 -0.22125938
vn 0.0000000e+0 -0.98773941 0.15611166
vn 0.0000000e+0 -0.98773941 0.15611166
vn 0.24154744 -0.94482756 -0.22125938
vn 0.24154744 -0.94482756 -0.22125938
vn 0.0000000e+0 -0.98773941 0.15611166
vn 0.0000000e+0 -0.98773941 0.15611166
vn 0.88202475 -0.45897175 0.10666433
vn 0.88202475 -0.45897175 0.10666433
vn 0.19959203 0.94224110 0.26896974
vn 0.19959203 0.94224110 0.26896974
vn 0.86926652 -0.49133493 5.4458316e-2
vn -0.43597170 0.89168028 0.12179883
vn -0.90081708 0.43364795 2.1864233e-2
vn -0.80431822 -0.59412369 9.4469044e-3
vn 0.75971973 0.64987914 2.1977887e-2
vn -0.68575780 -0.72660956 -4.2128215e-2
vn 0.75971973 0.64987914 2.1977887e-2
vn 0.82988615 -0.55741905 2.3937040e-2
vn 0.82988615 -0.55741905 2.3937040e-2
vn 0.78477878 -0.61866918 3.7023285e-2
vn -0.44640452 -0.48033670 0.75498321
vn -8.4658921e-2 -0.97870026 0.18702584
vn 0.80419554 -0.59428996 9.4332818e-3
vn -0.80419554 0.59428996 -9.4332818e-3
vn -0.78477878 0.61866918 -3.7023285e-2
vn -0.87688971 -0.47571743 6.8973721e-2
vn 0.93527166 0.35323567 2.2169265e-2
vn -0.43763175 -0.89093570 -0.12129314
vn -0.86768530 0.48853374 -9.1961991e-2
vn -0.86768530 0.48853374 -9.1961991e-2
vn 0.19959203 0.94224110 0.26896974
vn 0.19959203 0.94224110 0.26896974
vn 5.3973016e-2 -0.97223934 -0.22767866
vn 5.3973016e-2 -0.97223934 -0.22767866
vn 0.0000000e+0 -0.99346120 -0.11417027
vn -5.3973016e-2 -0.97223934 -0.22767866
vn -5.3973016e-2 -0.97223934 -0.22767866
vn 0.0000000e+0 -0.99346120 -0.11417027
vn -1.5764025e-2 0.98433645 0.17559398
vn -0.99239304 6.0418361e-3 -0.12296155
vn -1.5764025e-2 0.98433645 0.17559398
vn -0.99239304 6.0418361e-3 -0.12296155
vn -0.91336768 5.7278382e-2 -0.40308642
vn -0.91336768 5.7278382e-2 -0.40308642
vn -1.5764025e-2 0.98433645 0.17559398
vn -1.5764025e-2 0.98433645 0.17559398
vn -1.5764025e-2 0.98433645 0.17559398
vn 0.93815309 7.5307358e-2 -0.33793133
vn 0.93815309 7.5307358e-2 -0.33793133
vn -1.5764025e-2 0.98433645 0.17559398
vn -1.5764025e-2 0.98433645 0.17559398
vn -1.5764025e-2 0.98433645 0.17559398
vn -1.5764025e-2 0.98433645 0.17559398
vn 0.99257842 -5.7726397e-3 0.12146914
vn -1.5764025e-2 0.98433645 0.17559398
vn 0.99257842 -5.7726397e-3 0.12146914
vn -1.5764025e-2 0.98433645 0.17559398
vn -1.5764025e-2 0.98433645 0.17559398
vn -0.94642805 4.1958890e-2 -0.32017714
vn -0.94642805 4.1958890e-2 -0.32017714
vn -1.5764025e-2 0.98433645 0.17559398
vn -1.5764025e-2 0.98433645 0.17559398
vn 0.96559597 6.0577009e-2 -0.25289294
vn 0.96559597 6.0577009e-2 -0.25289294
vn -1.5764025e-2 0.98433645 0.17559398
vn -1.5764025e-2 0.98433645 0.17559398
vn 0.94391913 -4.3274794e-2 0.32732854
vn 0.94391913 -4.3274794e-2 0.32732854
vn -1.5764025e-2 0.98433645 0.17559398
vn -1.5764025e-2 0.98433645 0.17559398
vn -0.96357079 -6.1848763e-2 0.26020389
vn -0.96357079 -6.1848763e-2 0.26020389
vn -1.5764025e-2 0.98433645 0.17559398
vn -1.5764025e-2 0.98433645 0.17559398
vn -0.95829321 3.5244870e-2 -0.28360521
vn -0.95829321 3.5244870e-2 -0.28360521
vn -0.85011715 7.9253568e-2 -0.52059553
vn -0.85011715 7.9253568e-2 -0.52059553
vn -1.5764025e-2 0.98433645 0.17559398
vn -1.5764025e-2 0.98433645 0.17559398
vn -1.5764025e-2 0.98433645 0.17559398
vn 0.95713370 6.5653058e-2 -0.28210772
vn 0.95713370 6.5653058e-2 -0.28210772
vn -1.5764025e-2 0.98433645 0.17559398
vn -1.5764025e-2 0.98433645 0.17559398
vn 0.93659789 -4.6945276e-2 0.34724708
vn -3.2907084e-2 -0.17603142 0.98383437
vn -1.5764025e-2 0.98433645 0.17559398
vn -1.5764025e-2 0.98433645 0.17559398
vn -1.5764025e-2 0.98433645 0.17559398
vn -1.5764025e-2 0.98433645 0.17559398
vn -1.5764025e-2 0.98433645 0.17559398
vn -0.97531572 -5.3822300e-2 0.21415512
vn -0.97531572 -5.3822300e-2 0.21415512
vn -1.5764025e-2 0.98433645 0.17559398
vn -0.93603362 4.7218553e-2 -0.34872835
vn -0.93603362 4.7218553e-2 -0.34872835
vn -1.5764025e-2 0.98433645 0.17559398
vn 0.88290287 9.6128656e-2 -0.45961049
vn 0.88290287 9.6128656e-2 -0.45961049
vn -1.5764025e-2 0.98433645 0.17559398
vn -1.5764025e-2 0.98433645 0.17559398
vn -1.5764025e-2 0.98433645 0.17559398
vn -1.5764025e-2 0.98433645 0.17559398
vn 0.97498962 5.4069995e-2 -0.21557291
vn 0.97498962 5.4069995e-2 -0.21557291
vn -1.5764025e-2 0.98433645 0.17559398
vn -1.5764025e-2 0.98433645 0.17559398
vn 0.95871328 -3.4989910e-2 0.28221367
vn 0.95871328 -3.4989910e-2 0.28221367
vn -1.5764025e-2 0.98433645 0.17559398
vn -0.95759766 -6.5389792e-2 0.28059027
vn -3.2907084e-2 -0.17603142 0.98383437
vn -1.5764025e-2 0.98433645 0.17559398
vn -1.5764025e-2 0.98433645 0.17559398
vn -1.5764025e-2 0.98433645 0.17559398
vn -0.99239304 6.0418361e-3 -0.12296155
vn 1.5764025e-2 -0.98433645 -0.17559398
vn 1.5764025e-2 -0.98433645 -0.17559398
vn -0.99239304 6.0418361e-3 -0.12296155
vn -0.91336768 5.7278382e-2 -0.40308642
vn 1.5764025e-2 -0.98433645 -0.17559398
vn -0.91336768 5.7278382e-2 -0.40308642
vn 1.5764025e-2 -0.98433645 -0.17559398
vn 1.5764025e-2 -0.98433645 -0.17559398
vn 0.93815309 7.5307358e-2 -0.33793133
vn 1.5764025e-2 -0.98433645 -0.17559398
vn 0.93815309 7.5307358e-2 -0.33793133
vn 1.5764025e-2 -0.98433645 -0.17559398
vn 1.5764025e-2 -0.98433645 -0.17559398
vn 1.5764025e-2 -0.98433645 -0.17559398
vn 0.99257842 -5.7726397e-3 0.12146914
vn 0.99257842 -5.7726397e-3 0.12146914
vn 1.5764025e-2 -0.98433645 -0.17559398
vn -0.94642805 4.1958890e-2 -0.32017714
vn 1.5764025e-2 -0.98433645 -0.17559398
vn 1.5764025e-2 -0.98433645 -0.17559398
vn -0.94642805 4.1958890e-2 -0.32017714
vn 0.96559597 6.0577009e-2 -0.25289294
vn 1.5764025e-2 -0.98433645 -0.17559398
vn 1.5764025e-2 -0.98433645 -0.17559398
vn 0.96559597 6.0577009e-2 -0.25289294
vn 0.94391913 -4.3274794e-2 0.32732854
vn 1.5764025e-2 -0.98433645 -0.17559398
vn 1.5764025e-2 -0.98433645 -0.17559398
vn 0.94391913 -4.3274794e-2 0.32732854
vn -0.96357079 -6.1848763e-2 0.26020389
vn 1.5764025e-2 -0.98433645 -0.17559398
vn 1.5764025e-2 -0.98433645 -0.17559398
vn -0.96357079 -6.1848763e-2 0.26020389
vn -0.95829321 3.5244870e-2 -0.28360521
vn 1.5764025e-2 -0.98433645 -0.17559398
vn 1.5764025e-2 -0.98433645 -0.17559398
vn -0.95829321 3.5244870e-2 -0.28360521
vn -0.85011715 7.9253568e-2 -0.52059553
vn 1.5764025e-2 -0.98433645 -0.17559398
vn -0.85011715 7.9253568e-2 -0.52059553
vn 1.5764025e-2 -0.98433645 -0.17559398
vn 0.95713370 6.5653058e-2 -0.28210772
vn 1.5764025e-2 -0.98433645 -0.17559398
vn 0.95713370 6.5653058e-2 -0.28210772
vn 1.5764025e-2 -0.98433645 -0.17559398
vn 1.5764025e-2 -0.98433645 -0.17559398
vn 0.93659789 -4.6945276e-2 0.34724708
vn -3.2907084e-2 -0.17603142 0.98383437
vn 1.5764025e-2 -0.98433645 -0.17559398
vn 1.5764025e-2 -0.98433645 -0.17559398
vn 1.5764025e-2 -0.98433645 -0.17559398
vn -0.97531572 -5.3822300e-2 0.21415512
vn 1.5764025e-2 -0.98433645 -0.17559398
vn 1.5764025e-2 -0.98433645 -0.17559398
vn -0.97531572 -5.3822300e-2 0.21415512
vn -0.93603362 4.7218553e-2 -0.34872835
vn 1.5764025e-2 -0.98433645 -0.17559398
vn -0.93603362 4.7218553e-2 -0.34872835
vn 1.5764025e-2 -0.98433645 -0.17559398
vn 0.88290287 9.6128656e-2 -0.45961049
vn 1.5764025e-2 -0.98433645 -0.17559398
vn 0.88290287 9.6128656e-2 -0.45961049
vn 1.5764025e-2 -0.98433645 -0.17559398
vn 0.97498962 5.4069995e-2 -0.21557291
vn 1.5764025e-2 -0.98433645 -0.17559398
vn 1.5764025e-2 -0.98433645 -0.17559398
vn 0.97498962 5.4069995e-2 -0.21557291
vn 0.95871328 -3.4989910e-2 0.28221367
vn 1.5764025e-2 -0.98433645 -0.17559398
vn 1.5764025e-2 -0.98433645 -0.17559398
vn 0.95871328 -3.4989910e-2 0.28221367
vn -0.95759766 -6.5389792e-2 0.28059027
vn 1.5764025e-2 -0.98433645 -0.17559398
vn -3.2907084e-2 -0.17603142 0.98383437
vn 1.5764025e-2 -0.98433645 -0.17559398
vn 1.5764025e-2 -0.98433645 -0.17559398
vn 1.5764025e-2 -0.98433645 -0.17559398
vn 0.59083772 0.15084608 -0.79256309
vn -1.5764025e-2 0.98433645 0.17559398
vn 0.59083772 0.15084608 -0.79256309
vn -0.53649185 0.13986883 -0.83223386
vn -1.5764025e-2 0.98433645 0.17559398
vn -0.53649185 0.13986883 -0.83223386
vn 0.59083772 0.15084608 -0.79256309
vn 1.5764025e-2 -0.98433645 -0.17559398
vn 0.59083772 0.15084608 -0.79256309
vn -0.53649185 0.13986883 -0.83223386
vn 1.5764025e-2 -0.98433645 -0.17559398
vn -0.53649185 0.13986883 -0.83223386
vn -1.5764025e-2 0.98433645 0.17559398
vn -1.5764025e-2 0.98433645 0.17559398
vn -0.97006007 2.7510032e-2 -0.24130199
vn -0.97006007 2.7510032e-2 -0.24130199
vn -0.88690049 6.7324850e-2 -0.45702833
vn -0.88690049 6.7324850e-2 -0.45702833
vn -1.5764025e-2 0.98433645 0.17559398
vn -1.5764025e-2 0.98433645 0.17559398
vn 0.95102206 6.8983767e-2 -0.30132752
vn 0.95102206 6.8983767e-2 -0.30132752
vn -1.5764025e-2 0.98433645 0.17559398
vn -1.5764025e-2 0.98433645 0.17559398
vn -1.5764025e-2 0.98433645 0.17559398
vn -0.97784751 -5.1836936e-2 0.20279837
vn 0.16241045 -0.17076286 0.97183481
vn -1.5764025e-2 0.98433645 0.17559398
vn -1.5764025e-2 0.98433645 0.17559398
vn -0.94124714 4.4642371e-2 -0.33475495
vn -0.94124714 4.4642371e-2 -0.33475495
vn -1.5764025e-2 0.98433645 0.17559398
vn -1.5764025e-2 0.98433645 0.17559398
vn 0.97005058 5.7629091e-2 -0.23596773
vn 0.97005058 5.7629091e-2 -0.23596773
vn -1.5764025e-2 0.98433645 0.17559398
vn -1.5764025e-2 0.98433645 0.17559398
vn 0.95156196 -3.9160846e-2 0.30495290
vn 0.95156196 -3.9160846e-2 0.30495290
vn -1.5764025e-2 0.98433645 0.17559398
vn -1.5764025e-2 0.98433645 0.17559398
vn -0.95901451 -6.4575895e-2 0.27590056
vn -0.95901451 -6.4575895e-2 0.27590056
vn -1.5764025e-2 0.98433645 0.17559398
vn -1.5764025e-2 0.98433645 0.17559398
vn -0.95200307 3.8913309e-2 -0.30360487
vn -0.95200307 3.8913309e-2 -0.30360487
vn -0.77100927 9.9849165e-2 -0.62894741
vn -0.77100927 9.9849165e-2 -0.62894741
vn -1.5764025e-2 0.98433645 0.17559398
vn -1.5764025e-2 0.98433645 0.17559398
vn -1.5764025e-2 0.98433645 0.17559398
vn -1.5764025e-2 0.98433645 0.17559398
vn 0.96140129 6.3169196e-2 -0.26780068
vn 0.96140129 6.3169196e-2 -0.26780068
vn -1.5764025e-2 0.98433645 0.17559398
vn -1.5764025e-2 0.98433645 0.17559398
vn 0.93832476 -4.6100767e-2 0.34266801
vn 0.93832476 -4.6100767e-2 0.34266801
vn -1.5764025e-2 0.98433645 0.17559398
vn -1.5764025e-2 0.98433645 0.17559398
vn -0.96970057 -5.7868925e-2 0.23734360
vn -0.96970057 -5.7868925e-2 0.23734360
vn -0.92865215 5.0680650e-2 -0.36747333
vn -0.92865215 5.0680650e-2 -0.36747333
vn -1.5764025e-2 0.98433645 0.17559398
vn -1.5764025e-2 0.98433645 0.17559398
vn 0.91535236 8.4874085e-2 -0.39360698
vn 0.91535236 8.4874085e-2 -0.39360698
vn -1.5764025e-2 0.98433645 0.17559398
vn -1.5764025e-2 0.98433645 0.17559398
vn -1.5764025e-2 0.98433645 0.17559398
vn 0.97751340 5.2105599e-2 -0.20433442
vn 0.16241045 -0.17076286 0.97183481
vn -1.5764025e-2 0.98433645 0.17559398
vn -1.5764025e-2 0.98433645 0.17559398
vn 0.97062096 -2.7105053e-2 0.23908213
vn 0.97062096 -2.7105053e-2 0.23908213
vn -0.97006007 2.7510032e-2 -0.24130199
vn -0.97006007 2.7510032e-2 -0.24130199
vn 1.5764025e-2 -0.98433645 -0.17559398
vn 1.5764025e-2 -0.98433645 -0.17559398
vn -0.88690049 6.7324850e-2 -0.45702833
vn -0.88690049 6.7324850e-2 -0.45702833
vn 1.5764025e-2 -0.98433645 -0.17559398
vn 1.5764025e-2 -0.98433645 -0.17559398
vn 0.95102206 6.8983767e-2 -0.30132752
vn 0.95102206 6.8983767e-2 -0.30132752
vn 1.5764025e-2 -0.98433645 -0.17559398
vn 1.5764025e-2 -0.98433645 -0.17559398
vn -0.97784751 -5.1836936e-2 0.20279837
vn 1.5764025e-2 -0.98433645 -0.17559398
vn 0.16241045 -0.17076286 0.97183481
vn -0.94124714 4.4642371e-2 -0.33475495
vn -0.94124714 4.4642371e-2 -0.33475495
vn 1.5764025e-2 -0.98433645 -0.17559398
vn 1.5764025e-2 -0.98433645 -0.17559398
vn 0.81122074 0.11525595 -0.57326868
vn 0.81122074 0.11525595 -0.57326868
vn 1.5764025e-2 -0.98433645 -0.17559398
vn 1.5764025e-2 -0.98433645 -0.17559398
vn 0.97005058 5.7629091e-2 -0.23596773
vn 0.97005058 5.7629091e-2 -0.23596773
vn 1.5764025e-2 -0.98433645 -0.17559398
vn 1.5764025e-2 -0.98433645 -0.17559398
vn 0.95156196 -3.9160846e-2 0.30495290
vn 0.95156196 -3.9160846e-2 0.30495290
vn 1.5764025e-2 -0.98433645 -0.17559398
vn 1.5764025e-2 -0.98433645 -0.17559398
vn -0.95901451 -6.4575895e-2 0.27590056
vn -0.95901451 -6.4575895e-2 0.27590056
vn 1.5764025e-2 -0.98433645 -0.17559398
vn 1.5764025e-2 -0.98433645 -0.17559398
vn 1.5764025e-2 -0.98433645 -0.17559398
vn 1.5764025e-2 -0.98433645 -0.17559398
vn -0.95200307 3.8913309e-2 -0.30360487
vn -0.95200307 3.8913309e-2 -0.30360487
vn 1.5764025e-2 -0.98433645 -0.17559398
vn 0.96140129 6.3169196e-2 -0.26780068
vn 0.96140129 6.3169196e-2 -0.26780068
vn 1.5764025e-2 -0.98433645 -0.17559398
vn 1.5764025e-2 -0.98433645 -0.17559398
vn 1.5764025e-2 -0.98433645 -0.17559398
vn 0.93832476 -4.6100767e-2 0.34266801
vn 0.93832476 -4.6100767e-2 0.34266801
vn 1.5764025e-2 -0.98433645 -0.17559398
vn 1.5764025e-2 -0.98433645 -0.17559398
vn -0.96970057 -5.7868925e-2 0.23734360
vn -0.96970057 -5.7868925e-2 0.23734360
vn -0.92865215 5.0680650e-2 -0.36747333
vn -0.92865215 5.0680650e-2 -0.36747333
vn 1.5764025e-2 -0.98433645 -0.17559398
vn 1.5764025e-2 -0.98433645 -0.17559398
vn 1.5764025e-2 -0.98433645 -0.17559398
vn 1.5764025e-2 -0.98433645 -0.17559398
vn 0.91535236 8.4874085e-2 -0.39360698
vn 0.91535236 8.4874085e-2 -0.39360698
vn 1.5764025e-2 -0.98433645 -0.17559398
vn 0.97751340 5.2105599e-2 -0.20433442
vn 0.16241045 -0.17076286 0.97183481
vn 1.5764025e-2 -0.98433645 -0.17559398
vn 1.5764025e-2 -0.98433645 -0.17559398
vn 0.97062096 -2.7105053e-2 0.23908213
vn 0.97062096 -2.7105053e-2 0.23908213
vn 0.81122074 0.11525595 -0.57326868
vn 0.81122074 0.11525595 -0.57326868
vn -1.5764025e-2 0.98433645 0.17559398
vn -1.5764025e-2 0.98433645 0.17559398
vn -0.77100927 9.9849165e-2 -0.62894741
vn -0.77100927 9.9849165e-2 -0.62894741
vn 1.5764025e-2 -0.98433645 -0.17559398
vn 1.5764025e-2 -0.98433645 -0.17559398
vn 1.5764025e-2 -0.98433645 -0.17559398
vn 3.2907084e-2 0.17603142 -0.98383437
vn 3.2907084e-2 0.17603142 -0.98383437
vn -1.5764025e-2 0.98433645 0.17559398
vn 3.2907084e-2 0.17603142 -0.98383437
vn 3.2907084e-2 0.17603142 -0.98383437
vn -1.5764025e-2 0.98433645 0.17559398
vn -0.99827555 -2.5425748e-2 5.2909842e-2
vn -1.5764025e-2 0.98433645 0.17559398
vn -0.99827555 -2.5425748e-2 5.2909842e-2
vn -1.5764025e-2 0.98433645 0.17559398
vn 0.99836078 2.5159187e-2 -5.1407913e-2
vn -1.5764025e-2 0.98433645 0.17559398
vn 0.99836078 2.5159187e-2 -5.1407913e-2
vn -0.99827555 -2.5425748e-2 5.2909842e-2
vn 1.5764025e-2 -0.98433645 -0.17559398
vn 1.5764025e-2 -0.98433645 -0.17559398
vn -0.99827555 -2.5425748e-2 5.2909842e-2
vn 1.5764025e-2 -0.98433645 -0.17559398
vn 0.99836078 2.5159187e-2 -5.1407913e-2
vn 0.99836078 2.5159187e-2 -5.1407913e-2
vn 1.5764025e-2 -0.98433645 -0.17559398
vn -1.5764025e-2 0.98433645 0.17559398
vn -0.98922591 -4.0917062e-2 0.14056275
vn 0.16241045 -0.17076286 0.97183481
vn -1.5764025e-2 0.98433645 0.17559398
vn 0.98966602 4.0392885e-2 -0.13758484
vn 0.16241045 -0.17076286 0.97183481
vn -0.98922591 -4.0917062e-2 0.14056275
vn 1.5764025e-2 -0.98433645 -0.17559398
vn 0.16241045 -0.17076286 0.97183481
vn 1.5764025e-2 -0.98433645 -0.17559398
vn 0.98966602 4.0392885e-2 -0.13758484
vn 0.16241045 -0.17076286 0.97183481
vn -0.10488866 -0.81228717 -0.57374900
vn -0.99699855 5.4625132e-2 -5.4863401e-2
vn -0.10488866 -0.81228717 -0.57374900
vn -0.17745852 -0.16194829 -0.97071171
vn -0.99699855 5.4625132e-2 -5.4863401e-2
vn -0.17745852 -0.16194829 -0.97071171
vn -0.14607558 0.58325771 -0.79904466
vn -0.99699855 5.4625132e-2 -5.4863401e-2
vn -0.14607558 0.58325771 -0.79904466
vn -2.9123556e-2 0.98679925 -0.15930809
vn -0.99699855 5.4625132e-2 -5.4863401e-2
vn -2.9123556e-2 0.98679925 -0.15930809
vn -0.14607558 0.58325771 -0.79904466
vn 0.91310252 5.4625132e-2 -0.40405430
vn -0.14607558 0.58325771 -0.79904466
vn 0.91310252 5.4625132e-2 -0.40405430
vn -2.9123556e-2 0.98679925 -0.15930809
vn -2.9123556e-2 0.98679925 -0.15930809
vn -0.17745852 -0.16194829 -0.97071171
vn 0.91310252 5.4625132e-2 -0.40405430
vn -0.17745852 -0.16194829 -0.97071171
vn 0.91310252 5.4625132e-2 -0.40405430
vn -0.10488866 -0.81228717 -0.57374900
vn -0.10488866 -0.81228717 -0.57374900
vn 0.14701389 -0.57592171 0.80417728
vn -0.99699855 5.4625132e-2 -5.4863401e-2
vn 0.14701389 -0.57592171 0.80417728
vn 3.0719891e-2 -0.98530137 0.16804017
vn -0.99699855 5.4625132e-2 -5.4863401e-2
vn 3.0719891e-2 -0.98530137 0.16804017
vn 0.17771350 0.15305837 0.97210650
vn -0.99699855 5.4625132e-2 -5.4863401e-2
vn 0.17771350 0.15305837 0.97210650
vn 0.10619941 0.80700366 0.58091891
vn -0.99699855 5.4625132e-2 -5.4863401e-2
vn 0.10619941 0.80700366 0.58091891
vn 0.91310252 5.4625132e-2 -0.40405430
vn 0.10619941 0.80700366 0.58091891
vn 0.10619941 0.80700366 0.58091891
vn 0.91310252 5.4625132e-2 -0.40405430
vn 0.17771350 0.15305837 0.97210650
vn 0.17771350 0.15305837 0.97210650
vn 0.91310252 5.4625132e-2 -0.40405430
vn 0.14701389 -0.57592171 0.80417728
vn 0.14701389 -0.57592171 0.80417728
vn 0.91310252 5.4625132e-2 -0.40405430
vn 3.0719891e-2 -0.98530137 0.16804017
vn 3.0719891e-2 -0.98530137 0.16804017
vn 8.0913066e-2 -0.11758512 -0.98976099
vn -0.97285671 -0.22531270 -5.2763647e-2
vn 8.0913066e-2 -0.11758512 -0.98976099
vn -0.23140833 0.94723026 0.22182204
vn -0.97285671 -0.22531270 -5.2763647e-2
vn 8.0913066e-2 -0.11758512 -0.98976099
vn 0.97285671 0.22531270 5.2763647e-2
vn -0.23140833 0.94723026 0.22182204
vn 8.0913066e-2 -0.11758512 -0.98976099
vn 0.97285671 0.22531270 5.2763647e-2
vn 6.1716282e-16 -0.22801101 0.97365855
vn -0.97285671 -0.22531270 -5.2763647e-2
vn -0.23140833 0.94723026 0.22182204
vn 6.1716282e-16 -0.22801101 0.97365855
vn -0.97285671 -0.22531270 -5.2763647e-2
vn 0.97285671 0.22531270 5.2763647e-2
vn -0.23140833 0.94723026 0.22182204
vn 6.1716282e-16 -0.22801101 0.97365855
vn 0.97285671 0.22531270 5.2763647e-2
vn 6.1716282e-16 -0.22801101 0.97365855
vn -3.2794211e-16 0.22801101 -0.97365855
vn 0.92908825 -0.36011552 -8.4331724e-2
vn -3.2794211e-16 0.22801101 -0.97365855
vn 0.55477191 0.81008633 0.18970573
vn 0.92908825 -0.36011552 -8.4331724e-2
vn -3.2794211e-16 0.22801101 -0.97365855
vn -0.91629392 0.38995658 9.1319894e-2
vn 0.55477191 0.81008633 0.18970573
vn -3.2794211e-16 0.22801101 -0.97365855
vn -0.91629392 0.38995658 9.1319894e-2
vn 1.9862740e-16 -0.22801101 0.97365855
vn 0.92908825 -0.36011552 -8.4331724e-2
vn 0.55477191 0.81008633 0.18970573
vn 1.9862740e-16 -0.22801101 0.97365855
vn 0.92908825 -0.36011552 -8.4331724e-2
vn -0.91629392 0.38995658 9.1319894e-2
vn 0.55477191 0.81008633 0.18970573
vn 1.9862740e-16 -0.22801101 0.97365855
vn -0.91629392 0.38995658 9.1319894e-2
vn 1.9862740e-16 -0.22801101 0.97365855
vn -8.0913066e-2 -0.11758512 -0.98976099
vn 0.97285671 -0.22531270 -5.2763647e-2
vn -8.0913066e-2 -0.11758512 -0.98976099
vn 0.23140833 0.94723026 0.22182204
vn 0.97285671 -0.22531270 -5.2763647e-2
vn -8.0913066e-2 -0.11758512 -0.98976099
vn -0.97285671 0.22531270 5.2763647e-2
vn 0.23140833 0.94723026 0.22182204
vn -8.0913066e-2 -0.11758512 -0.98976099
vn -0.97285671 0.22531270 5.2763647e-2
vn -5.2458840e-16 -0.22801101 0.97365855
vn 0.97285671 -0.22531270 -5.2763647e-2
vn 0.23140833 0.94723026 0.22182204
vn -5.2458840e-16 -0.22801101 0.97365855
vn 0.97285671 -0.22531270 -5.2763647e-2
vn -0.97285671 0.22531270 5.2763647e-2
vn 0.23140833 0.94723026 0.22182204
vn -5.2458840e-16 -0.22801101 0.97365855
vn -0.97285671 0.22531270 5.2763647e-2
vn -5.2458840e-16 -0.22801101 0.97365855
vn -0.98970573 2.2818347e-2 -0.14128656
vn -0.12790538 -0.58393060 0.80166406
vn -0.12790538 -0.58393060 0.80166406
vn -0.98970573 2.2818347e-2 -0.14128656
vn -4.5040214e-2 -0.98670630 0.15614757
vn -4.5040214e-2 -0.98670630 0.15614757
vn -0.98970573 2.2818347e-2 -0.14128656
vn 6.4208895e-2 -0.81148282 -0.58083805
vn 6.4208895e-2 -0.81148282 -0.58083805
vn -0.98970573 2.2818347e-2 -0.14128656
vn 0.13584531 -0.16090372 -0.97757662
vn 0.13584531 -0.16090372 -0.97757662
vn -0.98970573 2.2818347e-2 -0.14128656
vn 0.12790538 0.58393060 -0.80166406
vn 0.12790538 0.58393060 -0.80166406
vn -0.98970573 2.2818347e-2 -0.14128656
vn 4.5040214e-2 0.98670630 -0.15614757
vn 4.5040214e-2 0.98670630 -0.15614757
vn -0.98970573 2.2818347e-2 -0.14128656
vn -6.4208895e-2 0.81148282 0.58083805
vn -6.4208895e-2 0.81148282 0.58083805
vn -0.98970573 2.2818347e-2 -0.14128656
vn -0.13584531 0.16090372 0.97757662
vn -0.13584531 0.16090372 0.97757662
vn 0.98970573 -2.2818347e-2 0.14128656
vn -0.12790538 -0.58393060 0.80166406
vn -0.12790538 -0.58393060 0.80166406
vn 0.98970573 -2.2818347e-2 0.14128656
vn -4.5040214e-2 -0.98670630 0.15614757
vn -4.5040214e-2 -0.98670630 0.15614757
vn 0.98970573 -2.2818347e-2 0.14128656
vn 6.4208895e-2 -0.81148282 -0.58083805
vn 6.4208895e-2 -0.81148282 -0.58083805
vn 0.98970573 -2.2818347e-2 0.14128656
vn 0.13584531 -0.16090372 -0.97757662
vn 0.13584531 -0.16090372 -0.97757662
vn 0.98970573 -2.2818347e-2 0.14128656
vn 0.12790538 0.58393060 -0.80166406
vn 0.12790538 0.58393060 -0.80166406
vn 0.98970573 -2.2818347e-2 0.14128656
vn 4.5040214e-2 0.98670630 -0.15614757
vn 4.5040214e-2 0.98670630 -0.15614757
vn 0.98970573 -2.2818347e-2 0.14128656
vn -6.4208895e-2 0.81148282 0.58083805
vn -6.4208895e-2 0.81148282 0.58083805
vn 0.98970573 -2.2818347e-2 0.14128656
vn -0.13584531 0.16090372 0.97757662
vn -0.13584531 0.16090372 0.97757662
vn 0.0000000e+0 -0.12682590 -0.99192499
vn -1.00000000 0.0000000e+0 -1.8337583e-17
vn 0.0000000e+0 -0.12682590 -0.99192499
vn 0.0000000e+0 0.97365855 0.22801101
vn -1.00000000 0.0000000e+0 -1.8337583e-17
vn 0.0000000e+0 -0.12682590 -0.99192499
vn 1.00000000 0.0000000e+0 1.8337583e-17
vn 0.0000000e+0 0.97365855 0.22801101
vn 0.0000000e+0 -0.12682590 -0.99192499
vn 1.00000000 0.0000000e+0 1.8337583e-17
vn 0.0000000e+0 -0.22801101 0.97365855
vn -1.00000000 0.0000000e+0 -1.8337583e-17
vn 0.0000000e+0 0.97365855 0.22801101
vn 0.0000000e+0 -0.22801101 0.97365855
vn -1.00000000 0.0000000e+0 -1.8337583e-17
vn 1.00000000 0.0000000e+0 1.8337583e-17
vn 0.0000000e+0 0.97365855 0.22801101
vn 0.0000000e+0 -0.22801101 0.97365855
vn 1.00000000 0.0000000e+0 1.8337583e-17
vn 0.0000000e+0 -0.22801101 0.97365855
vn 0.98970573 -2.2818347e-2 0.14128656
vn 0.98970573 -2.2818347e-2 0.14128656
vn 0.74523018 -0.58994002 -0.31080985
vn 0.74523018 -0.58994002 -0.31080985
vn 6.4208895e-2 -0.81148282 -0.58083805
vn 6.4208895e-2 -0.81148282 -0.58083805
vn -0.65442509 -0.55767000 -0.51061921
vn -0.65442509 -0.55767000 -0.51061921
vn -0.98970573 2.2818347e-2 -0.14128656
vn -0.98970573 2.2818347e-2 -0.14128656
vn -0.74523018 0.58994002 0.31080985
vn -0.74523018 0.58994002 0.31080985
vn -6.4208895e-2 0.81148282 0.58083805
vn -6.4208895e-2 0.81148282 0.58083805
vn 0.65442509 0.55767000 0.51061921
vn 0.65442509 0.55767000 0.51061921
g cube1_sep55_default
usemtl default
f 1/342/1 160/339/342 175/373/395 45/376/31
f 2/694/178 12/713/193 82/731/291 47/706/239
f 3/575/183 161/576/348 176/503/400 48/502/33
f 4/345/2 72/323/47 126/357/92 70/378/45
f 4/345/2 162/346/118 178/308/120 57/307/40
f 5/159/3 63/198/42 145/150/108 49/128/34
f 5/159/3 68/215/44 151/267/113 63/198/42
f 6/141/4 64/171/43 127/245/93 50/199/35
f 6/141/4 71/110/46 144/129/107 64/171/43
f 7/718/187 14/746/205 51/724/243
f 7/332/185 85/291/55 150/351/112 69/382/273
f 8/414/190 14/365/203 84/355/295 52/397/247
f 8/310/189 86/257/56 147/195/110 73/244/277
f 9/65/5 80/89/53 136/122/102 56/101/39
f 10/184/6 77/214/50 132/193/98 53/163/36
f 10/184/6 163/178/351 182/208/428 77/214/50
f 11/189/7 124/145/90 78/165/51
f 11/189/7 164/188/355 195/144/478 124/145/90
f 12/297/194 2/317/179 67/309/270 59/286/249
f 13/328/196 3/374/181 74/371/283 62/322/262
f 13/40/198 165/35/359 161/103/347 3/116/182
f 14/746/202 7/718/186 69/716/275 60/744/254
f 14/290/200 88/212/58 152/233/114 84/299/293
f 14/290/206 156/57/335 157/67/340
f 14/290/201 157/67/339 88/212/58
f 16/281/8 46/326/32 148/361/111 114/329/82
f 16/281/8 114/329/82 151/267/113 68/215/44
f 17/717/215 30/745/230 60/744/253 69/716/274
f 18/420/9 167/421/367 180/379/417 70/378/45
f 19/115/10 49/128/34 145/150/108 111/132/79
f 19/85/10 111/113/79 144/129/107 71/110/46
f 20/269/11 50/199/35 127/245/93 93/318/63
f 20/269/11 93/318/63 126/357/92 72/323/47
f 21/314/219 51/226/242 14/313/204 73/367/278
f 22/372/223 32/324/235 62/322/261 74/371/282
f 23/134/12 53/163/36 132/193/98 98/158/68
f 23/134/12 98/158/68 131/127/97 75/109/48
f 24/118/13 54/138/37 137/114/103 103/99/73
f 24/118/13 103/99/73 139/80/105 76/104/49
f 25/253/14 55/303/38 129/279/95 95/232/65
f 25/253/14 95/232/65 132/193/98 77/214/50
f 25/253/14 168/249/119 177/296/405 55/303/38
f 26/130/15 56/101/39 136/122/102 102/151/72
f 26/130/15 102/151/72 135/190/101 78/165/51
f 27/262/16 169/261/372 183/219/433 79/220/52
f 28/105/17 58/120/41 133/164/99 99/140/69
f 28/105/17 99/140/69 136/122/102 80/89/53
f 29/196/225 170/175/377 184/83/436 81/100/286
f 30/745/231 17/717/216 47/706/238 82/731/290
f 31/179/18 171/185/383 185/265/444 83/252/54
f 32/324/234 22/372/222 52/397/246 84/355/294
f 33/243/19 63/198/42 151/267/113 117/315/84
f 33/243/19 117/315/84 150/351/112 85/291/55
f 34/211/20 64/171/43 144/129/107 110/156/78
f 34/211/20 110/156/78 147/195/110 86/257/56
f 35/260/21 65/147/264 156/154/334 87/316/57
f 36/169/22 66/68/266 153/66/328 119/166/86
f 36/169/22 119/166/86 152/233/114 88/212/58
f 37/354/23 94/294/64 128/338/94 91/388/61
f 38/187/24 98/158/68 132/193/98 95/232/65
f 39/180/25 102/151/72 136/122/102 99/140/69
f 40/87/26 105/72/75 139/80/105 103/99/73
f 41/224/27 109/206/301 143/111/321 106/121/297
f 42/133/28 113/162/81 147/195/110 110/156/78
f 43/363/29 117/315/84 151/267/113 114/329/82
f 44/167/30 121/170/87 155/241/115 118/235/85
f 45/376/31 148/361/111 46/326/32 1/342/1
f 45/376/31 175/373/396 166/415/362 15/419/210
f 46/326/32 129/279/95 55/303/38 1/342/1
f 47/529/236 149/448/323 67/501/269 2/574/177
f 48/502/33 125/438/91 74/516/280 3/575/180
f 48/502/33 176/503/401 167/421/366 18/420/9
f 49/128/34 137/114/103 54/138/37 5/159/3
f 50/199/35 133/164/99 58/120/41 6/141/4
f 51/284/240 146/230/109 85/291/55 7/332/184
f 52/368/244 128/338/94 86/257/56 8/310/188
f 53/163/36 122/142/88 10/184/6
f 54/138/37 130/176/96 68/215/44 5/159/3
f 55/303/38 177/296/406 160/339/343 1/342/1
f 56/53/39 123/74/89 75/109/48 9/78/5
f 57/307/40 134/276/100 72/323/47 4/345/2
f 57/307/40 178/308/120 169/261/371 27/262/16
f 58/120/41 138/92/104 71/110/46 6/141/4
f 59/286/250 67/309/271 149/288/326 142/272/318
f 59/274/248 142/282/315 82/340/288 12/334/192
f 60/362/251 141/319/106 87/316/57 14/370/199
f 61/86/258 179/94/411 171/185/382 31/179/18
f 62/312/259 155/241/115 83/252/54 13/327/195
f 68/215/44 130/176/96 96/234/66 16/281/8
f 69/382/272 150/351/112 116/399/83 17/445/214
f 70/378/45 126/357/92 92/393/62 18/420/9
f 70/378/45 180/379/418 162/346/118 4/345/2
f 71/110/46 138/92/104 104/69/74 19/85/10
f 72/323/47 134/276/100 100/217/70 20/269/11
f 73/406/279 14/365/208 8/414/191
f 73/244/276 147/195/110 113/162/81 21/200/218
f 74/516/281 125/438/91 91/388/61 22/429/220
f 75/109/48 123/74/89 89/108/59 23/134/12
f 75/109/48 131/127/97 76/104/49 9/78/5
f 76/104/49 131/127/97 97/149/67 24/118/13
f 76/52/49 139/61/105 80/89/53 9/65/5
f 77/214/50 182/208/429 168/249/119 25/253/14
f 78/165/51 124/145/90 90/112/60 26/130/15
f 78/165/51 135/190/101 79/220/52 11/189/7
f 79/220/52 135/190/101 101/227/71 27/262/16
f 79/220/52 183/219/434 164/188/354 11/189/7
f 80/89/53 139/61/105 105/76/75 28/105/17
f 81/100/284 143/111/320 109/206/300 29/196/224
f 81/360/287 184/359/437 179/702/410 61/703/257
f 82/340/289 142/282/317 108/298/77 30/348/229
f 83/252/54 155/241/115 121/170/87 31/179/18
f 83/252/54 185/265/445 165/330/358 13/327/197
f 84/299/292 152/233/114 118/235/85 32/302/232
f 85/291/55 146/230/109 112/186/80 33/243/19
f 86/257/56 128/338/94 94/294/64 34/211/20
f 87/316/57 141/319/106 107/247/76 35/260/21
f 87/316/57 156/154/337 14/370/207
f 88/212/58 157/67/338 66/68/267 36/169/22
f 89/108/59 122/142/88 53/163/36 23/134/12
f 89/108/59 159/82/117 122/142/88
f 90/112/60 123/71/89 56/101/39 26/130/15
f 90/112/60 158/91/116 159/56/117 89/47/59 123/71/89
f 91/388/61 125/438/91 92/393/62 37/354/23
f 91/388/61 128/338/94 52/368/245 22/429/221
f 92/393/62 125/438/91 48/502/33 18/420/9
f 92/393/62 126/357/92 93/318/63 37/354/23
f 93/318/63 127/245/93 94/294/64 37/354/23
f 94/294/64 127/245/93 64/171/43 34/211/20
f 95/232/65 129/279/95 96/234/66 38/187/24
f 96/234/66 129/279/95 46/326/32 16/281/8
f 96/234/66 130/176/96 97/149/67 38/187/24
f 97/149/67 130/176/96 54/138/37 24/118/13
f 97/149/67 131/127/97 98/158/68 38/187/24
f 99/140/69 133/164/99 100/217/70 39/180/25
f 100/217/70 133/164/99 50/199/35 20/269/11
f 100/217/70 134/276/100 101/227/71 39/180/25
f 101/227/71 134/276/100 57/307/40 27/262/16
f 101/227/71 135/190/101 102/151/72 39/180/25
f 103/99/73 137/114/103 104/95/74 40/87/26
f 104/95/74 137/114/103 49/128/34 19/115/10
f 104/69/74 138/92/104 105/76/75 40/62/26
f 105/76/75 138/92/104 58/120/41 28/105/17
f 106/121/296 140/135/313 107/247/76 41/224/27
f 106/413/298 143/380/322 81/360/285 61/703/256 154/693/333 120/661/311 153/602/330 66/577/268 157/559/341 156/534/336 65/512/265 140/469/314
f 107/247/76 140/135/312 65/147/263 35/260/21
f 107/247/76 141/319/106 108/298/77 41/224/27
f 108/298/77 141/319/106 60/362/252 30/348/228
f 108/298/77 142/282/316 109/206/299 41/224/27
f 109/293/303 115/305/308 15/422/211 29/411/226
f 110/156/78 144/129/107 111/113/79 42/133/28
f 111/132/79 145/150/108 112/186/80 42/160/28
f 112/186/80 145/150/108 63/198/42 33/243/19
f 112/186/80 146/230/109 113/197/81 42/160/28
f 113/197/81 146/230/109 51/284/241 21/239/217
f 114/329/82 148/361/111 115/396/305 43/363/29
f 115/396/304 148/361/111 45/376/31 15/419/209
f 115/396/306 149/448/325 116/399/83 43/363/29
f 116/399/83 149/448/324 47/529/237 17/445/213
f 116/399/83 150/351/112 117/315/84 43/363/29
f 118/235/85 152/233/114 119/166/86 44/167/30
f 118/235/85 155/241/115 62/312/260 32/302/233
f 119/166/86 153/66/329 120/70/309 44/167/30
f 120/70/310 154/77/332 121/170/87 44/167/30
f 121/170/87 154/77/331 61/86/255 31/179/18
f 122/142/88 194/139/475 163/178/350 10/184/6
f 124/145/90 158/91/116 90/112/60
f 124/145/90 195/144/479 203/90/508 158/91/116
f 142/272/319 149/288/327 115/305/307 109/293/302
f 158/91/116 203/90/509 204/55/511 159/56/117
f 159/82/117 204/81/512 194/139/474 122/142/88
f 160/513/346 184/579/441 175/582/398
f 161/337/349 165/283/360 185/273/447 176/333/403
f 162/346/118 181/325/422 200/275/493 178/308/120
f 164/3/356 163/202/352 194/93/476 195/6/480
f 166/605/363 170/601/378 29/411/227 15/422/212
f 166/415/361 175/373/394 201/347/501 191/381/464
f 167/426/369 171/467/385 179/425/412 180/416/419
f 167/421/365 176/503/399 196/440/482 187/394/451
f 169/1/376 182/277/432 163/202/353 164/3/357 183/2/435
f 169/1/373 200/27/497 177/405/409 182/277/431
f 169/261/374 200/275/498 190/225/461
f 170/601/379 191/723/465 201/712/502 184/579/438
f 171/185/381 193/183/471 202/258/505 185/265/443
f 172/353/388 174/349/393 193/386/472 187/377/453
f 172/356/386 187/394/452 196/440/483 186/391/448
f 173/177/389 190/225/460 200/275/495 189/218/458
f 175/582/397 184/579/440 201/712/503
f 176/333/402 185/273/446 202/311/506 196/352/484
f 177/405/408 200/27/496 181/50/423 160/513/344
f 178/308/120 200/275/494 169/261/370
f 180/416/420 179/425/413 197/25/487
f 180/379/416 197/358/486 181/325/421 162/346/118
f 181/50/424 184/579/439 160/513/345
f 182/208/427 199/173/491 188/209/456 168/249/119
f 184/579/442 181/50/426 179/425/415
f 186/366/450 192/336/469 174/349/392 172/353/387
f 187/377/454 193/386/473 171/467/384 167/426/368
f 188/209/455 198/251/489 177/296/404 168/249/119
f 189/172/459 200/27/500 190/13/463 173/46/390
f 190/13/462 200/27/499 169/1/375
f 191/723/466 170/601/380 166/605/364
f 192/266/467 202/258/504 193/183/470 174/191/391
f 196/352/485 202/311/507 192/336/468 186/366/449
f 197/25/488 179/425/414 181/50/425
f 198/409/490 188/344/457 199/254/492 182/277/430 177/405/407
f 203/10/510 195/6/481 194/93/477 204/14/513
f 205/19/514 208/29/528 261/36/745 245/21/683
f 205/19/516 283/20/830 284/34/834 208/29/530
f 206/79/520 207/240/525 259/210/740 246/106/689
f 207/237/527 222/207/590 247/268/692
f 208/600/531 284/599/835 286/585/842 226/587/608
f 209/60/532 211/117/540 256/157/726 249/102/698
f 210/350/537 212/320/545 257/343/730 250/369/702
f 211/117/541 209/60/533 253/45/714 251/75/706
f 212/320/544 210/350/536 255/331/722 252/270/710
f 213/30/548 221/49/582 251/75/705 253/45/713
f 214/124/555 219/194/577 279/174/817 254/136/720
f 215/300/556 222/207/586 252/270/709 255/331/721
f 216/213/560 218/131/570 249/102/697 256/157/725
f 217/364/566 220/387/578 250/369/701 257/343/729
f 218/131/573 216/213/564 258/161/735
f 219/194/576 214/124/554 246/106/688 259/210/739
f 220/387/579 217/364/567 248/375/694 260/404/741
f 221/49/583 213/30/549 245/21/682 261/36/744
f 222/223/589 207/240/526 206/79/521 216/98/563
f 223/231/595 285/222/839 283/263/831 205/271/517
f 224/5/600 234/4/642 275/7/801
f 225/33/602 224/155/597 263/137/754 276/44/803
f 226/38/606 223/58/593 262/39/750 278/26/810
f 226/38/609 286/54/843 285/96/838 223/58/594
f 227/15/612 229/12/620 269/16/777 271/17/783
f 228/221/615 230/259/623 270/306/781 272/255/787
f 229/12/619 227/15/611 266/11/765 273/8/791
f 230/259/624 228/221/616 268/182/773 274/216/795
f 231/22/628 239/18/662 278/26/811 262/39/751
f 232/119/631 237/51/653 276/44/804 263/137/755
f 233/289/635 240/341/665 264/321/758
f 234/143/641 224/155/599 225/33/604 240/37/667
f 234/531/640 240/593/666 222/594/588 216/532/562
f 235/181/646 238/148/658 277/123/807 265/152/761
f 236/9/649 234/4/638 273/8/792 266/11/766
f 237/51/655 232/119/633 280/107/821 267/59/770
f 238/148/657 235/181/645 274/216/796 268/182/774
f 239/18/661 231/22/627 271/17/784 269/16/778
f 240/341/668 233/289/637 272/255/790 270/306/782
f 241/651/672 243/612/678 281/611/823 282/649/826
f 241/168/671 282/153/825 242/146/674 254/136/719 279/174/816
f 244/32/681 242/31/675 282/24/827 281/23/824
f 244/97/680 281/84/822 243/73/677 267/59/769 280/107/820
f 245/278/684 262/236/748 223/231/592 205/271/515
f 246/126/686 263/125/752 224/204/596 206/205/518
f 247/268/693 222/207/591 215/300/559
f 247/657/690 264/622/756 225/620/601 207/656/523
f 248/569/696 265/152/762 277/609/809 260/404/743
f 249/292/699 266/248/763 227/246/610 209/287/534
f 250/643/703 268/615/771 228/621/614 210/646/538
f 251/557/707 269/526/775 229/528/618 211/553/542
f 252/563/711 270/537/779 230/540/622 212/565/546
f 253/285/715 271/242/785 231/238/629 213/280/551
f 254/42/717 280/41/818 232/63/632 214/64/553
f 255/650/723 272/623/788 233/624/636 215/654/558
f 256/551/727 273/521/793 234/527/639 216/555/561
f 257/567/731 274/544/797 235/541/647 217/568/569
f 258/161/736 216/213/565 206/192/522
f 258/301/733 275/256/799 236/250/650 218/295/572
f 259/655/737 276/617/805 237/614/654 219/653/575
f 260/636/742 277/609/808 238/610/659 220/640/581
f 261/549/746 278/518/812 239/520/663 221/552/585
f 262/236/749 245/278/685 213/280/550 231/238/626
f 263/125/753 246/126/687 214/64/552 232/63/630
f 264/321/759 240/341/669 225/335/605
f 264/622/757 247/657/691 215/654/557 233/624/634
f 265/542/760 248/569/695 217/568/568 235/541/644
f 266/248/764 249/292/700 218/295/571 236/250/648
f 267/613/767 279/652/814 219/653/574 237/614/652
f 268/615/772 250/643/704 220/640/580 238/610/656
f 269/526/776 251/557/708 221/552/584 239/520/660
f 270/537/780 252/563/712 222/562/587 240/536/664
f 271/242/786 253/285/716 209/287/535 227/246/613
f 272/623/789 255/650/724 210/646/539 228/621/617
f 273/521/794 256/551/728 211/553/543 229/528/621
f 274/544/798 257/567/732 212/565/547 230/540/625
f 275/7/802 234/4/643 236/9/651
f 275/256/800 258/301/734 206/304/519 224/264/598
f 276/617/806 259/655/738 207/656/524 225/620/603
f 278/518/813 261/549/747 208/550/529 226/519/607
f 279/652/815 267/613/768 243/612/676 241/651/670
f 280/41/819 254/42/718 242/31/673 244/32/679
f 283/228/829 285/201/836 289/203/850 287/229/845
f 286/585/841 284/599/833 288/598/848 290/583/854
f 287/28/844 288/43/847 284/34/832 283/20/828
f 287/229/846 289/88/852 290/583/855 288/43/849
f 290/48/853 289/88/851 285/96/837 286/54/840
f 291/735/856 298/424/878 306/389/902 300/747/883
f 293/554/862 295/558/868 297/538/874 292/535/859
f 294/560/867 296/564/873 295/558/870 293/554/864
f 295/743/869 296/739/871 303/634/892 304/628/895 305/625/898 306/633/901 298/736/877 297/740/875
f 298/530/879 291/524/858 292/535/861 297/538/876
f 299/616/880 305/660/899 304/670/896 301/639/886
f 300/737/884 299/741/881 301/742/887 302/738/890 294/632/866 293/627/863 292/626/860 291/631/857
f 302/645/891 301/639/888 304/670/897 303/674/894
f 302/486/889 303/484/893 296/676/872 294/677/865
f 306/644/903 305/660/900 299/616/882 300/608/885
f 307/695/905 311/725/915 312/727/918 308/667/908
f 308/719/906 309/710/909 310/705/912 307/709/904
f 308/466/907 312/465/916 313/493/920 309/494/911
f 309/732/910 313/681/919 314/678/922 310/720/913
f 311/648/914 314/666/923 313/642/921 312/619/917
f 315/701/924 318/711/932 317/698/929 316/664/926
f 316/488/928 320/473/938 319/472/935 315/487/925
f 317/442/931 321/441/940 320/507/936 316/508/927
f 318/453/933 322/480/942 321/479/939 317/452/930
f 320/704/937 321/692/941 322/635/943 319/688/934
f 323/470/944 326/495/952 325/458/949 324/433/946
f 324/734/948 328/683/958 327/680/955 323/722/945
f 325/464/951 329/463/960 328/491/956 324/492/947
f 326/696/953 330/726/962 329/728/959 325/668/950
f 328/665/957 329/647/961 330/618/963 327/641/954
f 331/597/964 338/590/985 337/581/982 336/572/979 335/571/976 334/578/973 333/588/970 332/595/967
f 331/638/965 339/637/989 346/658/1010 338/659/986
f 332/629/969 340/630/993 339/637/990 331/638/966
f 333/606/972 341/607/996 340/630/992 332/629/968
f 334/690/975 342/691/999 341/700/995 333/699/971
f 335/685/978 343/686/1002 342/691/998 334/690/974
f 336/672/981 344/673/1005 343/686/1001 335/685/977
f 337/662/984 345/663/1008 344/673/1004 336/672/980
f 338/659/987 346/658/1011 345/663/1007 337/662/983
f 340/437/991 341/454/994 342/476/997 343/483/1000 344/482/1003 345/468/1006 346/446/1009 339/435/988
f 347/697/1013 351/729/1023 352/730/1026 348/669/1016
f 348/498/1014 349/475/1017 350/474/1020 347/497/1012
f 348/478/1015 352/477/1024 353/499/1028 349/500/1019
f 349/733/1018 353/682/1027 354/679/1030 350/721/1021
f 351/707/1022 354/714/1031 353/715/1029 352/708/1025
f 355/455/1032 372/471/130 385/457/143 362/444/1046
f 356/675/1035 373/573/131 372/570/130 355/671/1033
f 357/684/1037 375/580/133 373/573/131 356/675/1034
f 358/687/1039 377/584/135 375/580/133 357/684/1036
f 359/689/1041 379/589/137 377/584/135 358/687/1038
f 360/431/1043 381/439/139 379/432/137 359/427/1040
f 361/436/1045 383/447/141 381/439/139 360/431/1042
f 362/444/1047 385/457/143 383/447/141 361/436/1044
f 363/392/121 403/383/161 405/400/163 364/401/122
f 364/511/122 370/509/128 363/533/121
f 364/401/122 405/400/163 407/434/165 365/428/123
f 365/462/123 369/461/127 370/509/128 364/511/122
f 365/428/123 407/434/165 409/504/167 366/485/124
f 366/417/124 368/418/126 369/461/127 365/462/123
f 366/485/124 409/504/167 411/523/169 367/506/125
f 367/407/125 368/418/126 366/417/124
f 367/407/125 411/395/169 413/410/171 368/418/126
f 368/418/126 413/410/171 415/460/173 369/461/127
f 369/461/127 415/460/173 417/517/175 370/509/128
f 370/509/128 417/517/175 403/547/161 363/533/121
f 371/543/129 374/548/132 389/514/147 387/496/145
f 371/489/129 386/481/144 385/457/143 372/471/130
f 372/570/130 373/573/131 374/548/132 371/543/129
f 373/573/131 375/580/133 376/566/134 374/548/132
f 374/548/132 376/566/134 391/561/149 389/514/147
f 375/580/133 377/584/135 378/586/136 376/566/134
f 376/566/134 378/586/136 393/592/151 391/561/149
f 377/584/135 379/589/137 380/591/138 378/586/136
f 378/586/136 380/591/138 395/603/153 393/592/151
f 379/432/137 381/439/139 382/430/140 380/423/138
f 380/423/138 382/430/140 397/412/155 395/398/153
f 381/439/139 383/447/141 384/449/142 382/430/140
f 382/430/140 384/449/142 399/450/157 397/412/155
f 383/447/141 385/457/143 386/481/144 384/449/142
f 384/449/142 386/481/144 401/505/159 399/450/157
f 387/496/145 389/514/147 390/490/148 388/456/146
f 387/525/145 401/505/159 386/481/144 371/489/129
f 388/456/146 390/490/148 406/402/164 404/384/162
f 388/546/146 402/515/160 401/505/159 387/525/145
f 389/514/147 391/561/149 392/545/150 390/490/148
f 390/490/148 392/545/150 408/443/166 406/402/164
f 391/561/149 393/592/151 394/596/152 392/545/150
f 392/545/150 394/596/152 410/510/168 408/443/166
f 393/592/151 395/603/153 396/604/154 394/596/152
f 394/596/152 396/604/154 412/539/170 410/510/168
f 395/398/153 397/412/155 398/403/156 396/385/154
f 396/385/154 398/403/156 414/408/172 412/390/170
f 397/412/155 399/450/157 400/451/158 398/403/156
f 398/403/156 400/451/158 416/459/174 414/408/172
f 399/450/157 401/505/159 402/515/160 400/451/158
f 400/451/158 402/515/160 418/522/176 416/459/174
f 403/547/161 417/517/175 418/522/176 404/556/162
f 404/384/162 406/402/164 405/400/163 403/383/161
f 404/556/162 418/522/176 402/515/160 388/546/146
f 406/402/164 408/443/166 407/434/165 405/400/163
f 408/443/166 410/510/168 409/504/167 407/434/165
f 410/510/168 412/539/170 411/523/169 409/504/167
f 412/390/170 414/408/172 413/410/171 411/395/169
f 414/408/172 416/459/174 415/460/173 413/410/171
f 416/459/174 418/522/176 417/517/175 415/460/173
